<?xml version="1.0" encoding="utf-8" standalone="no"?>
<!DOCTYPE svg PUBLIC "-//W3C//DTD SVG 1.1//EN"
  "http://www.w3.org/Graphics/SVG/1.1/DTD/svg11.dtd">
<!-- Created with matplotlib (http://matplotlib.org/) -->
<svg height="576pt" version="1.1" viewBox="0 0 1080 576" width="1080pt" xmlns="http://www.w3.org/2000/svg" xmlns:xlink="http://www.w3.org/1999/xlink">
 <defs>
  <style type="text/css">
*{stroke-linecap:butt;stroke-linejoin:round;stroke-miterlimit:100000;}
  </style>
 </defs>
 <g id="figure_1">
  <g id="patch_1">
   <path d="M 0 576 
L 1080 576 
L 1080 0 
L 0 0 
z
" style="fill:#ffffff;"/>
  </g>
  <g id="axes_1">
   <g id="patch_2">
    <path d="M 76.125 459.558604 
L 1069.2 459.558604 
L 1069.2 19.8 
L 76.125 19.8 
z
" style="fill:#eaeaf2;"/>
   </g>
   <g id="matplotlib.axis_1">
    <g id="xtick_1">
     <g id="line2d_1">
      <defs>
       <path d="M 0 0 
L 0 0 
" id="m43682302ed" style="stroke:#262626;"/>
      </defs>
      <g>
       <use style="fill:#262626;stroke:#262626;" x="109.2275" xlink:href="#m43682302ed" y="459.558604024"/>
      </g>
     </g>
     <g id="line2d_2">
      <g>
       <use style="fill:#262626;stroke:#262626;" x="109.2275" xlink:href="#m43682302ed" y="19.8"/>
      </g>
     </g>
     <g id="text_1">
      <!-- Flagstaff 1 -->
      <defs>
       <path d="M 37.109375 75.984375 
L 37.109375 68.5 
L 28.515625 68.5 
Q 23.6875 68.5 21.796875 66.546875 
Q 19.921875 64.59375 19.921875 59.515625 
L 19.921875 54.6875 
L 34.71875 54.6875 
L 34.71875 47.703125 
L 19.921875 47.703125 
L 19.921875 0 
L 10.890625 0 
L 10.890625 47.703125 
L 2.296875 47.703125 
L 2.296875 54.6875 
L 10.890625 54.6875 
L 10.890625 58.5 
Q 10.890625 67.625 15.140625 71.796875 
Q 19.390625 75.984375 28.609375 75.984375 
z
" id="BitstreamVeraSans-Roman-66"/>
       <path d="M 34.28125 27.484375 
Q 23.390625 27.484375 19.1875 25 
Q 14.984375 22.515625 14.984375 16.5 
Q 14.984375 11.71875 18.140625 8.90625 
Q 21.296875 6.109375 26.703125 6.109375 
Q 34.1875 6.109375 38.703125 11.40625 
Q 43.21875 16.703125 43.21875 25.484375 
L 43.21875 27.484375 
z
M 52.203125 31.203125 
L 52.203125 0 
L 43.21875 0 
L 43.21875 8.296875 
Q 40.140625 3.328125 35.546875 0.953125 
Q 30.953125 -1.421875 24.3125 -1.421875 
Q 15.921875 -1.421875 10.953125 3.296875 
Q 6 8.015625 6 15.921875 
Q 6 25.140625 12.171875 29.828125 
Q 18.359375 34.515625 30.609375 34.515625 
L 43.21875 34.515625 
L 43.21875 35.40625 
Q 43.21875 41.609375 39.140625 45 
Q 35.0625 48.390625 27.6875 48.390625 
Q 23 48.390625 18.546875 47.265625 
Q 14.109375 46.140625 10.015625 43.890625 
L 10.015625 52.203125 
Q 14.9375 54.109375 19.578125 55.046875 
Q 24.21875 56 28.609375 56 
Q 40.484375 56 46.34375 49.84375 
Q 52.203125 43.703125 52.203125 31.203125 
" id="BitstreamVeraSans-Roman-61"/>
       <path d="M 18.3125 70.21875 
L 18.3125 54.6875 
L 36.8125 54.6875 
L 36.8125 47.703125 
L 18.3125 47.703125 
L 18.3125 18.015625 
Q 18.3125 11.328125 20.140625 9.421875 
Q 21.96875 7.515625 27.59375 7.515625 
L 36.8125 7.515625 
L 36.8125 0 
L 27.59375 0 
Q 17.1875 0 13.234375 3.875 
Q 9.28125 7.765625 9.28125 18.015625 
L 9.28125 47.703125 
L 2.6875 47.703125 
L 2.6875 54.6875 
L 9.28125 54.6875 
L 9.28125 70.21875 
z
" id="BitstreamVeraSans-Roman-74"/>
       <path id="BitstreamVeraSans-Roman-20"/>
       <path d="M 45.40625 27.984375 
Q 45.40625 37.75 41.375 43.109375 
Q 37.359375 48.484375 30.078125 48.484375 
Q 22.859375 48.484375 18.828125 43.109375 
Q 14.796875 37.75 14.796875 27.984375 
Q 14.796875 18.265625 18.828125 12.890625 
Q 22.859375 7.515625 30.078125 7.515625 
Q 37.359375 7.515625 41.375 12.890625 
Q 45.40625 18.265625 45.40625 27.984375 
M 54.390625 6.78125 
Q 54.390625 -7.171875 48.1875 -13.984375 
Q 42 -20.796875 29.203125 -20.796875 
Q 24.46875 -20.796875 20.265625 -20.09375 
Q 16.0625 -19.390625 12.109375 -17.921875 
L 12.109375 -9.1875 
Q 16.0625 -11.328125 19.921875 -12.34375 
Q 23.78125 -13.375 27.78125 -13.375 
Q 36.625 -13.375 41.015625 -8.765625 
Q 45.40625 -4.15625 45.40625 5.171875 
L 45.40625 9.625 
Q 42.625 4.78125 38.28125 2.390625 
Q 33.9375 0 27.875 0 
Q 17.828125 0 11.671875 7.65625 
Q 5.515625 15.328125 5.515625 27.984375 
Q 5.515625 40.671875 11.671875 48.328125 
Q 17.828125 56 27.875 56 
Q 33.9375 56 38.28125 53.609375 
Q 42.625 51.21875 45.40625 46.390625 
L 45.40625 54.6875 
L 54.390625 54.6875 
z
" id="BitstreamVeraSans-Roman-67"/>
       <path d="M 9.8125 72.90625 
L 51.703125 72.90625 
L 51.703125 64.59375 
L 19.671875 64.59375 
L 19.671875 43.109375 
L 48.578125 43.109375 
L 48.578125 34.8125 
L 19.671875 34.8125 
L 19.671875 0 
L 9.8125 0 
z
" id="BitstreamVeraSans-Roman-46"/>
       <path d="M 44.28125 53.078125 
L 44.28125 44.578125 
Q 40.484375 46.53125 36.375 47.5 
Q 32.28125 48.484375 27.875 48.484375 
Q 21.1875 48.484375 17.84375 46.4375 
Q 14.5 44.390625 14.5 40.28125 
Q 14.5 37.15625 16.890625 35.375 
Q 19.28125 33.59375 26.515625 31.984375 
L 29.59375 31.296875 
Q 39.15625 29.25 43.1875 25.515625 
Q 47.21875 21.78125 47.21875 15.09375 
Q 47.21875 7.46875 41.1875 3.015625 
Q 35.15625 -1.421875 24.609375 -1.421875 
Q 20.21875 -1.421875 15.453125 -0.5625 
Q 10.6875 0.296875 5.421875 2 
L 5.421875 11.28125 
Q 10.40625 8.6875 15.234375 7.390625 
Q 20.0625 6.109375 24.8125 6.109375 
Q 31.15625 6.109375 34.5625 8.28125 
Q 37.984375 10.453125 37.984375 14.40625 
Q 37.984375 18.0625 35.515625 20.015625 
Q 33.0625 21.96875 24.703125 23.78125 
L 21.578125 24.515625 
Q 13.234375 26.265625 9.515625 29.90625 
Q 5.8125 33.546875 5.8125 39.890625 
Q 5.8125 47.609375 11.28125 51.796875 
Q 16.75 56 26.8125 56 
Q 31.78125 56 36.171875 55.265625 
Q 40.578125 54.546875 44.28125 53.078125 
" id="BitstreamVeraSans-Roman-73"/>
       <path d="M 9.421875 75.984375 
L 18.40625 75.984375 
L 18.40625 0 
L 9.421875 0 
z
" id="BitstreamVeraSans-Roman-6c"/>
       <path d="M 12.40625 8.296875 
L 28.515625 8.296875 
L 28.515625 63.921875 
L 10.984375 60.40625 
L 10.984375 69.390625 
L 28.421875 72.90625 
L 38.28125 72.90625 
L 38.28125 8.296875 
L 54.390625 8.296875 
L 54.390625 0 
L 12.40625 0 
z
" id="BitstreamVeraSans-Roman-31"/>
      </defs>
      <g style="fill:#262626;" transform="translate(75.762566726 552.038975035)rotate(-45.0)scale(0.2 -0.2)">
       <use xlink:href="#BitstreamVeraSans-Roman-46"/>
       <use x="57.51953125" xlink:href="#BitstreamVeraSans-Roman-6c"/>
       <use x="85.302734375" xlink:href="#BitstreamVeraSans-Roman-61"/>
       <use x="146.58203125" xlink:href="#BitstreamVeraSans-Roman-67"/>
       <use x="210.05859375" xlink:href="#BitstreamVeraSans-Roman-73"/>
       <use x="262.158203125" xlink:href="#BitstreamVeraSans-Roman-74"/>
       <use x="301.3671875" xlink:href="#BitstreamVeraSans-Roman-61"/>
       <use x="362.646484375" xlink:href="#BitstreamVeraSans-Roman-66"/>
       <use x="397.8515625" xlink:href="#BitstreamVeraSans-Roman-66"/>
       <use x="433.056640625" xlink:href="#BitstreamVeraSans-Roman-20"/>
       <use x="464.84375" xlink:href="#BitstreamVeraSans-Roman-31"/>
      </g>
     </g>
    </g>
    <g id="xtick_2">
     <g id="line2d_3">
      <g>
       <use style="fill:#262626;stroke:#262626;" x="219.569166667" xlink:href="#m43682302ed" y="459.558604024"/>
      </g>
     </g>
     <g id="line2d_4">
      <g>
       <use style="fill:#262626;stroke:#262626;" x="219.569166667" xlink:href="#m43682302ed" y="19.8"/>
      </g>
     </g>
     <g id="text_2">
      <!-- Flagstaff 2 -->
      <defs>
       <path d="M 19.1875 8.296875 
L 53.609375 8.296875 
L 53.609375 0 
L 7.328125 0 
L 7.328125 8.296875 
Q 12.9375 14.109375 22.625 23.890625 
Q 32.328125 33.6875 34.8125 36.53125 
Q 39.546875 41.84375 41.421875 45.53125 
Q 43.3125 49.21875 43.3125 52.78125 
Q 43.3125 58.59375 39.234375 62.25 
Q 35.15625 65.921875 28.609375 65.921875 
Q 23.96875 65.921875 18.8125 64.3125 
Q 13.671875 62.703125 7.8125 59.421875 
L 7.8125 69.390625 
Q 13.765625 71.78125 18.9375 73 
Q 24.125 74.21875 28.421875 74.21875 
Q 39.75 74.21875 46.484375 68.546875 
Q 53.21875 62.890625 53.21875 53.421875 
Q 53.21875 48.921875 51.53125 44.890625 
Q 49.859375 40.875 45.40625 35.40625 
Q 44.1875 33.984375 37.640625 27.21875 
Q 31.109375 20.453125 19.1875 8.296875 
" id="BitstreamVeraSans-Roman-32"/>
      </defs>
      <g style="fill:#262626;" transform="translate(186.104233393 552.038975035)rotate(-45.0)scale(0.2 -0.2)">
       <use xlink:href="#BitstreamVeraSans-Roman-46"/>
       <use x="57.51953125" xlink:href="#BitstreamVeraSans-Roman-6c"/>
       <use x="85.302734375" xlink:href="#BitstreamVeraSans-Roman-61"/>
       <use x="146.58203125" xlink:href="#BitstreamVeraSans-Roman-67"/>
       <use x="210.05859375" xlink:href="#BitstreamVeraSans-Roman-73"/>
       <use x="262.158203125" xlink:href="#BitstreamVeraSans-Roman-74"/>
       <use x="301.3671875" xlink:href="#BitstreamVeraSans-Roman-61"/>
       <use x="362.646484375" xlink:href="#BitstreamVeraSans-Roman-66"/>
       <use x="397.8515625" xlink:href="#BitstreamVeraSans-Roman-66"/>
       <use x="433.056640625" xlink:href="#BitstreamVeraSans-Roman-20"/>
       <use x="464.84375" xlink:href="#BitstreamVeraSans-Roman-32"/>
      </g>
     </g>
    </g>
    <g id="xtick_3">
     <g id="line2d_5">
      <g>
       <use style="fill:#262626;stroke:#262626;" x="329.910833333" xlink:href="#m43682302ed" y="459.558604024"/>
      </g>
     </g>
     <g id="line2d_6">
      <g>
       <use style="fill:#262626;stroke:#262626;" x="329.910833333" xlink:href="#m43682302ed" y="19.8"/>
      </g>
     </g>
     <g id="text_3">
      <!-- Flagstaff 3 -->
      <defs>
       <path d="M 40.578125 39.3125 
Q 47.65625 37.796875 51.625 33 
Q 55.609375 28.21875 55.609375 21.1875 
Q 55.609375 10.40625 48.1875 4.484375 
Q 40.765625 -1.421875 27.09375 -1.421875 
Q 22.515625 -1.421875 17.65625 -0.515625 
Q 12.796875 0.390625 7.625 2.203125 
L 7.625 11.71875 
Q 11.71875 9.328125 16.59375 8.109375 
Q 21.484375 6.890625 26.8125 6.890625 
Q 36.078125 6.890625 40.9375 10.546875 
Q 45.796875 14.203125 45.796875 21.1875 
Q 45.796875 27.640625 41.28125 31.265625 
Q 36.765625 34.90625 28.71875 34.90625 
L 20.21875 34.90625 
L 20.21875 43.015625 
L 29.109375 43.015625 
Q 36.375 43.015625 40.234375 45.921875 
Q 44.09375 48.828125 44.09375 54.296875 
Q 44.09375 59.90625 40.109375 62.90625 
Q 36.140625 65.921875 28.71875 65.921875 
Q 24.65625 65.921875 20.015625 65.03125 
Q 15.375 64.15625 9.8125 62.3125 
L 9.8125 71.09375 
Q 15.4375 72.65625 20.34375 73.4375 
Q 25.25 74.21875 29.59375 74.21875 
Q 40.828125 74.21875 47.359375 69.109375 
Q 53.90625 64.015625 53.90625 55.328125 
Q 53.90625 49.265625 50.4375 45.09375 
Q 46.96875 40.921875 40.578125 39.3125 
" id="BitstreamVeraSans-Roman-33"/>
      </defs>
      <g style="fill:#262626;" transform="translate(296.445900059 552.038975035)rotate(-45.0)scale(0.2 -0.2)">
       <use xlink:href="#BitstreamVeraSans-Roman-46"/>
       <use x="57.51953125" xlink:href="#BitstreamVeraSans-Roman-6c"/>
       <use x="85.302734375" xlink:href="#BitstreamVeraSans-Roman-61"/>
       <use x="146.58203125" xlink:href="#BitstreamVeraSans-Roman-67"/>
       <use x="210.05859375" xlink:href="#BitstreamVeraSans-Roman-73"/>
       <use x="262.158203125" xlink:href="#BitstreamVeraSans-Roman-74"/>
       <use x="301.3671875" xlink:href="#BitstreamVeraSans-Roman-61"/>
       <use x="362.646484375" xlink:href="#BitstreamVeraSans-Roman-66"/>
       <use x="397.8515625" xlink:href="#BitstreamVeraSans-Roman-66"/>
       <use x="433.056640625" xlink:href="#BitstreamVeraSans-Roman-20"/>
       <use x="464.84375" xlink:href="#BitstreamVeraSans-Roman-33"/>
      </g>
     </g>
    </g>
    <g id="xtick_4">
     <g id="line2d_7">
      <g>
       <use style="fill:#262626;stroke:#262626;" x="440.2525" xlink:href="#m43682302ed" y="459.558604024"/>
      </g>
     </g>
     <g id="line2d_8">
      <g>
       <use style="fill:#262626;stroke:#262626;" x="440.2525" xlink:href="#m43682302ed" y="19.8"/>
      </g>
     </g>
     <g id="text_4">
      <!-- San Diego 1 -->
      <defs>
       <path d="M 56.203125 29.59375 
L 56.203125 25.203125 
L 14.890625 25.203125 
Q 15.484375 15.921875 20.484375 11.0625 
Q 25.484375 6.203125 34.421875 6.203125 
Q 39.59375 6.203125 44.453125 7.46875 
Q 49.3125 8.734375 54.109375 11.28125 
L 54.109375 2.78125 
Q 49.265625 0.734375 44.1875 -0.34375 
Q 39.109375 -1.421875 33.890625 -1.421875 
Q 20.796875 -1.421875 13.15625 6.1875 
Q 5.515625 13.8125 5.515625 26.8125 
Q 5.515625 40.234375 12.765625 48.109375 
Q 20.015625 56 32.328125 56 
Q 43.359375 56 49.78125 48.890625 
Q 56.203125 41.796875 56.203125 29.59375 
M 47.21875 32.234375 
Q 47.125 39.59375 43.09375 43.984375 
Q 39.0625 48.390625 32.421875 48.390625 
Q 24.90625 48.390625 20.390625 44.140625 
Q 15.875 39.890625 15.1875 32.171875 
z
" id="BitstreamVeraSans-Roman-65"/>
       <path d="M 9.421875 54.6875 
L 18.40625 54.6875 
L 18.40625 0 
L 9.421875 0 
z
M 9.421875 75.984375 
L 18.40625 75.984375 
L 18.40625 64.59375 
L 9.421875 64.59375 
z
" id="BitstreamVeraSans-Roman-69"/>
       <path d="M 53.515625 70.515625 
L 53.515625 60.890625 
Q 47.90625 63.578125 42.921875 64.890625 
Q 37.9375 66.21875 33.296875 66.21875 
Q 25.25 66.21875 20.875 63.09375 
Q 16.5 59.96875 16.5 54.203125 
Q 16.5 49.359375 19.40625 46.890625 
Q 22.3125 44.4375 30.421875 42.921875 
L 36.375 41.703125 
Q 47.40625 39.59375 52.65625 34.296875 
Q 57.90625 29 57.90625 20.125 
Q 57.90625 9.515625 50.796875 4.046875 
Q 43.703125 -1.421875 29.984375 -1.421875 
Q 24.8125 -1.421875 18.96875 -0.25 
Q 13.140625 0.921875 6.890625 3.21875 
L 6.890625 13.375 
Q 12.890625 10.015625 18.65625 8.296875 
Q 24.421875 6.59375 29.984375 6.59375 
Q 38.421875 6.59375 43.015625 9.90625 
Q 47.609375 13.234375 47.609375 19.390625 
Q 47.609375 24.75 44.3125 27.78125 
Q 41.015625 30.8125 33.5 32.328125 
L 27.484375 33.5 
Q 16.453125 35.6875 11.515625 40.375 
Q 6.59375 45.0625 6.59375 53.421875 
Q 6.59375 63.09375 13.40625 68.65625 
Q 20.21875 74.21875 32.171875 74.21875 
Q 37.3125 74.21875 42.625 73.28125 
Q 47.953125 72.359375 53.515625 70.515625 
" id="BitstreamVeraSans-Roman-53"/>
       <path d="M 19.671875 64.796875 
L 19.671875 8.109375 
L 31.59375 8.109375 
Q 46.6875 8.109375 53.6875 14.9375 
Q 60.6875 21.78125 60.6875 36.53125 
Q 60.6875 51.171875 53.6875 57.984375 
Q 46.6875 64.796875 31.59375 64.796875 
z
M 9.8125 72.90625 
L 30.078125 72.90625 
Q 51.265625 72.90625 61.171875 64.09375 
Q 71.09375 55.28125 71.09375 36.53125 
Q 71.09375 17.671875 61.125 8.828125 
Q 51.171875 0 30.078125 0 
L 9.8125 0 
z
" id="BitstreamVeraSans-Roman-44"/>
       <path d="M 30.609375 48.390625 
Q 23.390625 48.390625 19.1875 42.75 
Q 14.984375 37.109375 14.984375 27.296875 
Q 14.984375 17.484375 19.15625 11.84375 
Q 23.34375 6.203125 30.609375 6.203125 
Q 37.796875 6.203125 41.984375 11.859375 
Q 46.1875 17.53125 46.1875 27.296875 
Q 46.1875 37.015625 41.984375 42.703125 
Q 37.796875 48.390625 30.609375 48.390625 
M 30.609375 56 
Q 42.328125 56 49.015625 48.375 
Q 55.71875 40.765625 55.71875 27.296875 
Q 55.71875 13.875 49.015625 6.21875 
Q 42.328125 -1.421875 30.609375 -1.421875 
Q 18.84375 -1.421875 12.171875 6.21875 
Q 5.515625 13.875 5.515625 27.296875 
Q 5.515625 40.765625 12.171875 48.375 
Q 18.84375 56 30.609375 56 
" id="BitstreamVeraSans-Roman-6f"/>
       <path d="M 54.890625 33.015625 
L 54.890625 0 
L 45.90625 0 
L 45.90625 32.71875 
Q 45.90625 40.484375 42.875 44.328125 
Q 39.84375 48.1875 33.796875 48.1875 
Q 26.515625 48.1875 22.3125 43.546875 
Q 18.109375 38.921875 18.109375 30.90625 
L 18.109375 0 
L 9.078125 0 
L 9.078125 54.6875 
L 18.109375 54.6875 
L 18.109375 46.1875 
Q 21.34375 51.125 25.703125 53.5625 
Q 30.078125 56 35.796875 56 
Q 45.21875 56 50.046875 50.171875 
Q 54.890625 44.34375 54.890625 33.015625 
" id="BitstreamVeraSans-Roman-6e"/>
      </defs>
      <g style="fill:#262626;" transform="translate(401.282077522 563.049953443)rotate(-45.0)scale(0.2 -0.2)">
       <use xlink:href="#BitstreamVeraSans-Roman-53"/>
       <use x="63.4765625" xlink:href="#BitstreamVeraSans-Roman-61"/>
       <use x="124.755859375" xlink:href="#BitstreamVeraSans-Roman-6e"/>
       <use x="188.134765625" xlink:href="#BitstreamVeraSans-Roman-20"/>
       <use x="219.921875" xlink:href="#BitstreamVeraSans-Roman-44"/>
       <use x="296.923828125" xlink:href="#BitstreamVeraSans-Roman-69"/>
       <use x="324.70703125" xlink:href="#BitstreamVeraSans-Roman-65"/>
       <use x="386.23046875" xlink:href="#BitstreamVeraSans-Roman-67"/>
       <use x="449.70703125" xlink:href="#BitstreamVeraSans-Roman-6f"/>
       <use x="510.888671875" xlink:href="#BitstreamVeraSans-Roman-20"/>
       <use x="542.67578125" xlink:href="#BitstreamVeraSans-Roman-31"/>
      </g>
     </g>
    </g>
    <g id="xtick_5">
     <g id="line2d_9">
      <g>
       <use style="fill:#262626;stroke:#262626;" x="550.594166667" xlink:href="#m43682302ed" y="459.558604024"/>
      </g>
     </g>
     <g id="line2d_10">
      <g>
       <use style="fill:#262626;stroke:#262626;" x="550.594166667" xlink:href="#m43682302ed" y="19.8"/>
      </g>
     </g>
     <g id="text_5">
      <!-- San Diego 2 -->
      <g style="fill:#262626;" transform="translate(511.623744189 563.049953443)rotate(-45.0)scale(0.2 -0.2)">
       <use xlink:href="#BitstreamVeraSans-Roman-53"/>
       <use x="63.4765625" xlink:href="#BitstreamVeraSans-Roman-61"/>
       <use x="124.755859375" xlink:href="#BitstreamVeraSans-Roman-6e"/>
       <use x="188.134765625" xlink:href="#BitstreamVeraSans-Roman-20"/>
       <use x="219.921875" xlink:href="#BitstreamVeraSans-Roman-44"/>
       <use x="296.923828125" xlink:href="#BitstreamVeraSans-Roman-69"/>
       <use x="324.70703125" xlink:href="#BitstreamVeraSans-Roman-65"/>
       <use x="386.23046875" xlink:href="#BitstreamVeraSans-Roman-67"/>
       <use x="449.70703125" xlink:href="#BitstreamVeraSans-Roman-6f"/>
       <use x="510.888671875" xlink:href="#BitstreamVeraSans-Roman-20"/>
       <use x="542.67578125" xlink:href="#BitstreamVeraSans-Roman-32"/>
      </g>
     </g>
    </g>
    <g id="xtick_6">
     <g id="line2d_11">
      <g>
       <use style="fill:#262626;stroke:#262626;" x="660.935833333" xlink:href="#m43682302ed" y="459.558604024"/>
      </g>
     </g>
     <g id="line2d_12">
      <g>
       <use style="fill:#262626;stroke:#262626;" x="660.935833333" xlink:href="#m43682302ed" y="19.8"/>
      </g>
     </g>
     <g id="text_6">
      <!-- San Diego 3 -->
      <g style="fill:#262626;" transform="translate(621.965410855 563.049953443)rotate(-45.0)scale(0.2 -0.2)">
       <use xlink:href="#BitstreamVeraSans-Roman-53"/>
       <use x="63.4765625" xlink:href="#BitstreamVeraSans-Roman-61"/>
       <use x="124.755859375" xlink:href="#BitstreamVeraSans-Roman-6e"/>
       <use x="188.134765625" xlink:href="#BitstreamVeraSans-Roman-20"/>
       <use x="219.921875" xlink:href="#BitstreamVeraSans-Roman-44"/>
       <use x="296.923828125" xlink:href="#BitstreamVeraSans-Roman-69"/>
       <use x="324.70703125" xlink:href="#BitstreamVeraSans-Roman-65"/>
       <use x="386.23046875" xlink:href="#BitstreamVeraSans-Roman-67"/>
       <use x="449.70703125" xlink:href="#BitstreamVeraSans-Roman-6f"/>
       <use x="510.888671875" xlink:href="#BitstreamVeraSans-Roman-20"/>
       <use x="542.67578125" xlink:href="#BitstreamVeraSans-Roman-33"/>
      </g>
     </g>
    </g>
    <g id="xtick_7">
     <g id="line2d_13">
      <g>
       <use style="fill:#262626;stroke:#262626;" x="771.2775" xlink:href="#m43682302ed" y="459.558604024"/>
      </g>
     </g>
     <g id="line2d_14">
      <g>
       <use style="fill:#262626;stroke:#262626;" x="771.2775" xlink:href="#m43682302ed" y="19.8"/>
      </g>
     </g>
     <g id="text_7">
      <!-- Toronto 1 -->
      <defs>
       <path d="M 41.109375 46.296875 
Q 39.59375 47.171875 37.8125 47.578125 
Q 36.03125 48 33.890625 48 
Q 26.265625 48 22.1875 43.046875 
Q 18.109375 38.09375 18.109375 28.8125 
L 18.109375 0 
L 9.078125 0 
L 9.078125 54.6875 
L 18.109375 54.6875 
L 18.109375 46.1875 
Q 20.953125 51.171875 25.484375 53.578125 
Q 30.03125 56 36.53125 56 
Q 37.453125 56 38.578125 55.875 
Q 39.703125 55.765625 41.0625 55.515625 
z
" id="BitstreamVeraSans-Roman-72"/>
       <path d="M -0.296875 72.90625 
L 61.375 72.90625 
L 61.375 64.59375 
L 35.5 64.59375 
L 35.5 0 
L 25.59375 0 
L 25.59375 64.59375 
L -0.296875 64.59375 
z
" id="BitstreamVeraSans-Roman-54"/>
      </defs>
      <g style="fill:#262626;" transform="translate(740.995652096 545.672804296)rotate(-45.0)scale(0.2 -0.2)">
       <use xlink:href="#BitstreamVeraSans-Roman-54"/>
       <use x="60.818359375" xlink:href="#BitstreamVeraSans-Roman-6f"/>
       <use x="122.0" xlink:href="#BitstreamVeraSans-Roman-72"/>
       <use x="163.08203125" xlink:href="#BitstreamVeraSans-Roman-6f"/>
       <use x="224.263671875" xlink:href="#BitstreamVeraSans-Roman-6e"/>
       <use x="287.642578125" xlink:href="#BitstreamVeraSans-Roman-74"/>
       <use x="326.8515625" xlink:href="#BitstreamVeraSans-Roman-6f"/>
       <use x="388.033203125" xlink:href="#BitstreamVeraSans-Roman-20"/>
       <use x="419.8203125" xlink:href="#BitstreamVeraSans-Roman-31"/>
      </g>
     </g>
    </g>
    <g id="xtick_8">
     <g id="line2d_15">
      <g>
       <use style="fill:#262626;stroke:#262626;" x="881.619166667" xlink:href="#m43682302ed" y="459.558604024"/>
      </g>
     </g>
     <g id="line2d_16">
      <g>
       <use style="fill:#262626;stroke:#262626;" x="881.619166667" xlink:href="#m43682302ed" y="19.8"/>
      </g>
     </g>
     <g id="text_8">
      <!-- Toronto 2 -->
      <g style="fill:#262626;" transform="translate(851.337318762 545.672804296)rotate(-45.0)scale(0.2 -0.2)">
       <use xlink:href="#BitstreamVeraSans-Roman-54"/>
       <use x="60.818359375" xlink:href="#BitstreamVeraSans-Roman-6f"/>
       <use x="122.0" xlink:href="#BitstreamVeraSans-Roman-72"/>
       <use x="163.08203125" xlink:href="#BitstreamVeraSans-Roman-6f"/>
       <use x="224.263671875" xlink:href="#BitstreamVeraSans-Roman-6e"/>
       <use x="287.642578125" xlink:href="#BitstreamVeraSans-Roman-74"/>
       <use x="326.8515625" xlink:href="#BitstreamVeraSans-Roman-6f"/>
       <use x="388.033203125" xlink:href="#BitstreamVeraSans-Roman-20"/>
       <use x="419.8203125" xlink:href="#BitstreamVeraSans-Roman-32"/>
      </g>
     </g>
    </g>
    <g id="xtick_9">
     <g id="line2d_17">
      <g>
       <use style="fill:#262626;stroke:#262626;" x="991.960833333" xlink:href="#m43682302ed" y="459.558604024"/>
      </g>
     </g>
     <g id="line2d_18">
      <g>
       <use style="fill:#262626;stroke:#262626;" x="991.960833333" xlink:href="#m43682302ed" y="19.8"/>
      </g>
     </g>
     <g id="text_9">
      <!-- Toronto 3 -->
      <g style="fill:#262626;" transform="translate(961.678985429 545.672804296)rotate(-45.0)scale(0.2 -0.2)">
       <use xlink:href="#BitstreamVeraSans-Roman-54"/>
       <use x="60.818359375" xlink:href="#BitstreamVeraSans-Roman-6f"/>
       <use x="122.0" xlink:href="#BitstreamVeraSans-Roman-72"/>
       <use x="163.08203125" xlink:href="#BitstreamVeraSans-Roman-6f"/>
       <use x="224.263671875" xlink:href="#BitstreamVeraSans-Roman-6e"/>
       <use x="287.642578125" xlink:href="#BitstreamVeraSans-Roman-74"/>
       <use x="326.8515625" xlink:href="#BitstreamVeraSans-Roman-6f"/>
       <use x="388.033203125" xlink:href="#BitstreamVeraSans-Roman-20"/>
       <use x="419.8203125" xlink:href="#BitstreamVeraSans-Roman-33"/>
      </g>
     </g>
    </g>
   </g>
   <g id="matplotlib.axis_2">
    <g id="ytick_1">
     <g id="line2d_19">
      <path clip-path="url(#p28e8a67591)" d="M 76.125 459.558604 
L 1069.2 459.558604 
" style="fill:none;stroke:#ffffff;stroke-linecap:round;"/>
     </g>
     <g id="line2d_20">
      <g>
       <use style="fill:#262626;stroke:#262626;" x="76.125" xlink:href="#m43682302ed" y="459.558604024"/>
      </g>
     </g>
     <g id="line2d_21">
      <g>
       <use style="fill:#262626;stroke:#262626;" x="1069.2" xlink:href="#m43682302ed" y="459.558604024"/>
      </g>
     </g>
     <g id="text_10">
      <!-- 0.0 -->
      <defs>
       <path d="M 10.6875 12.40625 
L 21 12.40625 
L 21 0 
L 10.6875 0 
z
" id="BitstreamVeraSans-Roman-2e"/>
       <path d="M 31.78125 66.40625 
Q 24.171875 66.40625 20.328125 58.90625 
Q 16.5 51.421875 16.5 36.375 
Q 16.5 21.390625 20.328125 13.890625 
Q 24.171875 6.390625 31.78125 6.390625 
Q 39.453125 6.390625 43.28125 13.890625 
Q 47.125 21.390625 47.125 36.375 
Q 47.125 51.421875 43.28125 58.90625 
Q 39.453125 66.40625 31.78125 66.40625 
M 31.78125 74.21875 
Q 44.046875 74.21875 50.515625 64.515625 
Q 56.984375 54.828125 56.984375 36.375 
Q 56.984375 17.96875 50.515625 8.265625 
Q 44.046875 -1.421875 31.78125 -1.421875 
Q 19.53125 -1.421875 13.0625 8.265625 
Q 6.59375 17.96875 6.59375 36.375 
Q 6.59375 54.828125 13.0625 64.515625 
Q 19.53125 74.21875 31.78125 74.21875 
" id="BitstreamVeraSans-Roman-30"/>
      </defs>
      <g style="fill:#262626;" transform="translate(37.31875 465.077354024)scale(0.2 -0.2)">
       <use xlink:href="#BitstreamVeraSans-Roman-30"/>
       <use x="63.623046875" xlink:href="#BitstreamVeraSans-Roman-2e"/>
       <use x="95.41015625" xlink:href="#BitstreamVeraSans-Roman-30"/>
      </g>
     </g>
    </g>
    <g id="ytick_2">
     <g id="line2d_22">
      <path clip-path="url(#p28e8a67591)" d="M 76.125 371.606883 
L 1069.2 371.606883 
" style="fill:none;stroke:#ffffff;stroke-linecap:round;"/>
     </g>
     <g id="line2d_23">
      <g>
       <use style="fill:#262626;stroke:#262626;" x="76.125" xlink:href="#m43682302ed" y="371.60688322"/>
      </g>
     </g>
     <g id="line2d_24">
      <g>
       <use style="fill:#262626;stroke:#262626;" x="1069.2" xlink:href="#m43682302ed" y="371.60688322"/>
      </g>
     </g>
     <g id="text_11">
      <!-- 0.2 -->
      <g style="fill:#262626;" transform="translate(37.31875 377.12563322)scale(0.2 -0.2)">
       <use xlink:href="#BitstreamVeraSans-Roman-30"/>
       <use x="63.623046875" xlink:href="#BitstreamVeraSans-Roman-2e"/>
       <use x="95.41015625" xlink:href="#BitstreamVeraSans-Roman-32"/>
      </g>
     </g>
    </g>
    <g id="ytick_3">
     <g id="line2d_25">
      <path clip-path="url(#p28e8a67591)" d="M 76.125 283.655162 
L 1069.2 283.655162 
" style="fill:none;stroke:#ffffff;stroke-linecap:round;"/>
     </g>
     <g id="line2d_26">
      <g>
       <use style="fill:#262626;stroke:#262626;" x="76.125" xlink:href="#m43682302ed" y="283.655162415"/>
      </g>
     </g>
     <g id="line2d_27">
      <g>
       <use style="fill:#262626;stroke:#262626;" x="1069.2" xlink:href="#m43682302ed" y="283.655162415"/>
      </g>
     </g>
     <g id="text_12">
      <!-- 0.4 -->
      <defs>
       <path d="M 37.796875 64.3125 
L 12.890625 25.390625 
L 37.796875 25.390625 
z
M 35.203125 72.90625 
L 47.609375 72.90625 
L 47.609375 25.390625 
L 58.015625 25.390625 
L 58.015625 17.1875 
L 47.609375 17.1875 
L 47.609375 0 
L 37.796875 0 
L 37.796875 17.1875 
L 4.890625 17.1875 
L 4.890625 26.703125 
z
" id="BitstreamVeraSans-Roman-34"/>
      </defs>
      <g style="fill:#262626;" transform="translate(37.31875 289.173912415)scale(0.2 -0.2)">
       <use xlink:href="#BitstreamVeraSans-Roman-30"/>
       <use x="63.623046875" xlink:href="#BitstreamVeraSans-Roman-2e"/>
       <use x="95.41015625" xlink:href="#BitstreamVeraSans-Roman-34"/>
      </g>
     </g>
    </g>
    <g id="ytick_4">
     <g id="line2d_28">
      <path clip-path="url(#p28e8a67591)" d="M 76.125 195.703442 
L 1069.2 195.703442 
" style="fill:none;stroke:#ffffff;stroke-linecap:round;"/>
     </g>
     <g id="line2d_29">
      <g>
       <use style="fill:#262626;stroke:#262626;" x="76.125" xlink:href="#m43682302ed" y="195.70344161"/>
      </g>
     </g>
     <g id="line2d_30">
      <g>
       <use style="fill:#262626;stroke:#262626;" x="1069.2" xlink:href="#m43682302ed" y="195.70344161"/>
      </g>
     </g>
     <g id="text_13">
      <!-- 0.6 -->
      <defs>
       <path d="M 33.015625 40.375 
Q 26.375 40.375 22.484375 35.828125 
Q 18.609375 31.296875 18.609375 23.390625 
Q 18.609375 15.53125 22.484375 10.953125 
Q 26.375 6.390625 33.015625 6.390625 
Q 39.65625 6.390625 43.53125 10.953125 
Q 47.40625 15.53125 47.40625 23.390625 
Q 47.40625 31.296875 43.53125 35.828125 
Q 39.65625 40.375 33.015625 40.375 
M 52.59375 71.296875 
L 52.59375 62.3125 
Q 48.875 64.0625 45.09375 64.984375 
Q 41.3125 65.921875 37.59375 65.921875 
Q 27.828125 65.921875 22.671875 59.328125 
Q 17.53125 52.734375 16.796875 39.40625 
Q 19.671875 43.65625 24.015625 45.921875 
Q 28.375 48.1875 33.59375 48.1875 
Q 44.578125 48.1875 50.953125 41.515625 
Q 57.328125 34.859375 57.328125 23.390625 
Q 57.328125 12.15625 50.6875 5.359375 
Q 44.046875 -1.421875 33.015625 -1.421875 
Q 20.359375 -1.421875 13.671875 8.265625 
Q 6.984375 17.96875 6.984375 36.375 
Q 6.984375 53.65625 15.1875 63.9375 
Q 23.390625 74.21875 37.203125 74.21875 
Q 40.921875 74.21875 44.703125 73.484375 
Q 48.484375 72.75 52.59375 71.296875 
" id="BitstreamVeraSans-Roman-36"/>
      </defs>
      <g style="fill:#262626;" transform="translate(37.31875 201.22219161)scale(0.2 -0.2)">
       <use xlink:href="#BitstreamVeraSans-Roman-30"/>
       <use x="63.623046875" xlink:href="#BitstreamVeraSans-Roman-2e"/>
       <use x="95.41015625" xlink:href="#BitstreamVeraSans-Roman-36"/>
      </g>
     </g>
    </g>
    <g id="ytick_5">
     <g id="line2d_31">
      <path clip-path="url(#p28e8a67591)" d="M 76.125 107.751721 
L 1069.2 107.751721 
" style="fill:none;stroke:#ffffff;stroke-linecap:round;"/>
     </g>
     <g id="line2d_32">
      <g>
       <use style="fill:#262626;stroke:#262626;" x="76.125" xlink:href="#m43682302ed" y="107.751720805"/>
      </g>
     </g>
     <g id="line2d_33">
      <g>
       <use style="fill:#262626;stroke:#262626;" x="1069.2" xlink:href="#m43682302ed" y="107.751720805"/>
      </g>
     </g>
     <g id="text_14">
      <!-- 0.8 -->
      <defs>
       <path d="M 31.78125 34.625 
Q 24.75 34.625 20.71875 30.859375 
Q 16.703125 27.09375 16.703125 20.515625 
Q 16.703125 13.921875 20.71875 10.15625 
Q 24.75 6.390625 31.78125 6.390625 
Q 38.8125 6.390625 42.859375 10.171875 
Q 46.921875 13.96875 46.921875 20.515625 
Q 46.921875 27.09375 42.890625 30.859375 
Q 38.875 34.625 31.78125 34.625 
M 21.921875 38.8125 
Q 15.578125 40.375 12.03125 44.71875 
Q 8.5 49.078125 8.5 55.328125 
Q 8.5 64.0625 14.71875 69.140625 
Q 20.953125 74.21875 31.78125 74.21875 
Q 42.671875 74.21875 48.875 69.140625 
Q 55.078125 64.0625 55.078125 55.328125 
Q 55.078125 49.078125 51.53125 44.71875 
Q 48 40.375 41.703125 38.8125 
Q 48.828125 37.15625 52.796875 32.3125 
Q 56.78125 27.484375 56.78125 20.515625 
Q 56.78125 9.90625 50.3125 4.234375 
Q 43.84375 -1.421875 31.78125 -1.421875 
Q 19.734375 -1.421875 13.25 4.234375 
Q 6.78125 9.90625 6.78125 20.515625 
Q 6.78125 27.484375 10.78125 32.3125 
Q 14.796875 37.15625 21.921875 38.8125 
M 18.3125 54.390625 
Q 18.3125 48.734375 21.84375 45.5625 
Q 25.390625 42.390625 31.78125 42.390625 
Q 38.140625 42.390625 41.71875 45.5625 
Q 45.3125 48.734375 45.3125 54.390625 
Q 45.3125 60.0625 41.71875 63.234375 
Q 38.140625 66.40625 31.78125 66.40625 
Q 25.390625 66.40625 21.84375 63.234375 
Q 18.3125 60.0625 18.3125 54.390625 
" id="BitstreamVeraSans-Roman-38"/>
      </defs>
      <g style="fill:#262626;" transform="translate(37.31875 113.270470805)scale(0.2 -0.2)">
       <use xlink:href="#BitstreamVeraSans-Roman-30"/>
       <use x="63.623046875" xlink:href="#BitstreamVeraSans-Roman-2e"/>
       <use x="95.41015625" xlink:href="#BitstreamVeraSans-Roman-38"/>
      </g>
     </g>
    </g>
    <g id="ytick_6">
     <g id="line2d_34">
      <path clip-path="url(#p28e8a67591)" d="M 76.125 19.8 
L 1069.2 19.8 
" style="fill:none;stroke:#ffffff;stroke-linecap:round;"/>
     </g>
     <g id="line2d_35">
      <g>
       <use style="fill:#262626;stroke:#262626;" x="76.125" xlink:href="#m43682302ed" y="19.8"/>
      </g>
     </g>
     <g id="line2d_36">
      <g>
       <use style="fill:#262626;stroke:#262626;" x="1069.2" xlink:href="#m43682302ed" y="19.8"/>
      </g>
     </g>
     <g id="text_15">
      <!-- 1.0 -->
      <g style="fill:#262626;" transform="translate(37.31875 25.31875)scale(0.2 -0.2)">
       <use xlink:href="#BitstreamVeraSans-Roman-31"/>
       <use x="63.623046875" xlink:href="#BitstreamVeraSans-Roman-2e"/>
       <use x="95.41015625" xlink:href="#BitstreamVeraSans-Roman-30"/>
      </g>
     </g>
    </g>
    <g id="text_16">
     <!-- Percent Predicted Contribution -->
     <defs>
      <path d="M 19.671875 64.796875 
L 19.671875 37.40625 
L 32.078125 37.40625 
Q 38.96875 37.40625 42.71875 40.96875 
Q 46.484375 44.53125 46.484375 51.125 
Q 46.484375 57.671875 42.71875 61.234375 
Q 38.96875 64.796875 32.078125 64.796875 
z
M 9.8125 72.90625 
L 32.078125 72.90625 
Q 44.34375 72.90625 50.609375 67.359375 
Q 56.890625 61.8125 56.890625 51.125 
Q 56.890625 40.328125 50.609375 34.8125 
Q 44.34375 29.296875 32.078125 29.296875 
L 19.671875 29.296875 
L 19.671875 0 
L 9.8125 0 
z
" id="BitstreamVeraSans-Roman-50"/>
      <path d="M 8.5 21.578125 
L 8.5 54.6875 
L 17.484375 54.6875 
L 17.484375 21.921875 
Q 17.484375 14.15625 20.5 10.265625 
Q 23.53125 6.390625 29.59375 6.390625 
Q 36.859375 6.390625 41.078125 11.03125 
Q 45.3125 15.671875 45.3125 23.6875 
L 45.3125 54.6875 
L 54.296875 54.6875 
L 54.296875 0 
L 45.3125 0 
L 45.3125 8.40625 
Q 42.046875 3.421875 37.71875 1 
Q 33.40625 -1.421875 27.6875 -1.421875 
Q 18.265625 -1.421875 13.375 4.4375 
Q 8.5 10.296875 8.5 21.578125 
" id="BitstreamVeraSans-Roman-75"/>
      <path d="M 45.40625 46.390625 
L 45.40625 75.984375 
L 54.390625 75.984375 
L 54.390625 0 
L 45.40625 0 
L 45.40625 8.203125 
Q 42.578125 3.328125 38.25 0.953125 
Q 33.9375 -1.421875 27.875 -1.421875 
Q 17.96875 -1.421875 11.734375 6.484375 
Q 5.515625 14.40625 5.515625 27.296875 
Q 5.515625 40.1875 11.734375 48.09375 
Q 17.96875 56 27.875 56 
Q 33.9375 56 38.25 53.625 
Q 42.578125 51.265625 45.40625 46.390625 
M 14.796875 27.296875 
Q 14.796875 17.390625 18.875 11.75 
Q 22.953125 6.109375 30.078125 6.109375 
Q 37.203125 6.109375 41.296875 11.75 
Q 45.40625 17.390625 45.40625 27.296875 
Q 45.40625 37.203125 41.296875 42.84375 
Q 37.203125 48.484375 30.078125 48.484375 
Q 22.953125 48.484375 18.875 42.84375 
Q 14.796875 37.203125 14.796875 27.296875 
" id="BitstreamVeraSans-Roman-64"/>
      <path d="M 64.40625 67.28125 
L 64.40625 56.890625 
Q 59.421875 61.53125 53.78125 63.8125 
Q 48.140625 66.109375 41.796875 66.109375 
Q 29.296875 66.109375 22.65625 58.46875 
Q 16.015625 50.828125 16.015625 36.375 
Q 16.015625 21.96875 22.65625 14.328125 
Q 29.296875 6.6875 41.796875 6.6875 
Q 48.140625 6.6875 53.78125 8.984375 
Q 59.421875 11.28125 64.40625 15.921875 
L 64.40625 5.609375 
Q 59.234375 2.09375 53.4375 0.328125 
Q 47.65625 -1.421875 41.21875 -1.421875 
Q 24.65625 -1.421875 15.125 8.703125 
Q 5.609375 18.84375 5.609375 36.375 
Q 5.609375 53.953125 15.125 64.078125 
Q 24.65625 74.21875 41.21875 74.21875 
Q 47.75 74.21875 53.53125 72.484375 
Q 59.328125 70.75 64.40625 67.28125 
" id="BitstreamVeraSans-Roman-43"/>
      <path d="M 48.6875 27.296875 
Q 48.6875 37.203125 44.609375 42.84375 
Q 40.53125 48.484375 33.40625 48.484375 
Q 26.265625 48.484375 22.1875 42.84375 
Q 18.109375 37.203125 18.109375 27.296875 
Q 18.109375 17.390625 22.1875 11.75 
Q 26.265625 6.109375 33.40625 6.109375 
Q 40.53125 6.109375 44.609375 11.75 
Q 48.6875 17.390625 48.6875 27.296875 
M 18.109375 46.390625 
Q 20.953125 51.265625 25.265625 53.625 
Q 29.59375 56 35.59375 56 
Q 45.5625 56 51.78125 48.09375 
Q 58.015625 40.1875 58.015625 27.296875 
Q 58.015625 14.40625 51.78125 6.484375 
Q 45.5625 -1.421875 35.59375 -1.421875 
Q 29.59375 -1.421875 25.265625 0.953125 
Q 20.953125 3.328125 18.109375 8.203125 
L 18.109375 0 
L 9.078125 0 
L 9.078125 75.984375 
L 18.109375 75.984375 
z
" id="BitstreamVeraSans-Roman-62"/>
      <path d="M 48.78125 52.59375 
L 48.78125 44.1875 
Q 44.96875 46.296875 41.140625 47.34375 
Q 37.3125 48.390625 33.40625 48.390625 
Q 24.65625 48.390625 19.8125 42.84375 
Q 14.984375 37.3125 14.984375 27.296875 
Q 14.984375 17.28125 19.8125 11.734375 
Q 24.65625 6.203125 33.40625 6.203125 
Q 37.3125 6.203125 41.140625 7.25 
Q 44.96875 8.296875 48.78125 10.40625 
L 48.78125 2.09375 
Q 45.015625 0.34375 40.984375 -0.53125 
Q 36.96875 -1.421875 32.421875 -1.421875 
Q 20.0625 -1.421875 12.78125 6.34375 
Q 5.515625 14.109375 5.515625 27.296875 
Q 5.515625 40.671875 12.859375 48.328125 
Q 20.21875 56 33.015625 56 
Q 37.15625 56 41.109375 55.140625 
Q 45.0625 54.296875 48.78125 52.59375 
" id="BitstreamVeraSans-Roman-63"/>
     </defs>
     <g style="fill:#262626;" transform="translate(27.7434375 409.053520762)rotate(-90.0)scale(0.22 -0.22)">
      <use xlink:href="#BitstreamVeraSans-Roman-50"/>
      <use x="60.255859375" xlink:href="#BitstreamVeraSans-Roman-65"/>
      <use x="121.779296875" xlink:href="#BitstreamVeraSans-Roman-72"/>
      <use x="162.861328125" xlink:href="#BitstreamVeraSans-Roman-63"/>
      <use x="217.841796875" xlink:href="#BitstreamVeraSans-Roman-65"/>
      <use x="279.365234375" xlink:href="#BitstreamVeraSans-Roman-6e"/>
      <use x="342.744140625" xlink:href="#BitstreamVeraSans-Roman-74"/>
      <use x="381.953125" xlink:href="#BitstreamVeraSans-Roman-20"/>
      <use x="413.740234375" xlink:href="#BitstreamVeraSans-Roman-50"/>
      <use x="474.02734375" xlink:href="#BitstreamVeraSans-Roman-72"/>
      <use x="515.109375" xlink:href="#BitstreamVeraSans-Roman-65"/>
      <use x="576.6328125" xlink:href="#BitstreamVeraSans-Roman-64"/>
      <use x="640.109375" xlink:href="#BitstreamVeraSans-Roman-69"/>
      <use x="667.892578125" xlink:href="#BitstreamVeraSans-Roman-63"/>
      <use x="722.873046875" xlink:href="#BitstreamVeraSans-Roman-74"/>
      <use x="762.08203125" xlink:href="#BitstreamVeraSans-Roman-65"/>
      <use x="823.60546875" xlink:href="#BitstreamVeraSans-Roman-64"/>
      <use x="887.08203125" xlink:href="#BitstreamVeraSans-Roman-20"/>
      <use x="918.869140625" xlink:href="#BitstreamVeraSans-Roman-43"/>
      <use x="988.693359375" xlink:href="#BitstreamVeraSans-Roman-6f"/>
      <use x="1049.875" xlink:href="#BitstreamVeraSans-Roman-6e"/>
      <use x="1113.25390625" xlink:href="#BitstreamVeraSans-Roman-74"/>
      <use x="1152.462890625" xlink:href="#BitstreamVeraSans-Roman-72"/>
      <use x="1193.576171875" xlink:href="#BitstreamVeraSans-Roman-69"/>
      <use x="1221.359375" xlink:href="#BitstreamVeraSans-Roman-62"/>
      <use x="1284.8359375" xlink:href="#BitstreamVeraSans-Roman-75"/>
      <use x="1348.21484375" xlink:href="#BitstreamVeraSans-Roman-74"/>
      <use x="1387.423828125" xlink:href="#BitstreamVeraSans-Roman-69"/>
      <use x="1415.20703125" xlink:href="#BitstreamVeraSans-Roman-6f"/>
      <use x="1476.388671875" xlink:href="#BitstreamVeraSans-Roman-6e"/>
     </g>
    </g>
   </g>
   <g id="patch_3">
    <path clip-path="url(#p28e8a67591)" d="M 87.159167 459.558604 
L 104.813833 459.558604 
L 104.813833 457.405253 
L 87.159167 457.405253 
z
" style="fill:#ffffd9;stroke:#000000;stroke-linejoin:miter;stroke-width:0.3;"/>
   </g>
   <g id="patch_4">
    <path clip-path="url(#p28e8a67591)" d="M 197.500833 459.558604 
L 215.1555 459.558604 
L 215.1555 458.904222 
L 197.500833 458.904222 
z
" style="fill:#ffffd9;stroke:#000000;stroke-linejoin:miter;stroke-width:0.3;"/>
   </g>
   <g id="patch_5">
    <path clip-path="url(#p28e8a67591)" d="M 307.8425 459.558604 
L 325.497167 459.558604 
L 325.497167 456.759205 
L 307.8425 456.759205 
z
" style="fill:#ffffd9;stroke:#000000;stroke-linejoin:miter;stroke-width:0.3;"/>
   </g>
   <g id="patch_6">
    <path clip-path="url(#p28e8a67591)" d="M 418.184167 459.558604 
L 435.838833 459.558604 
L 435.838833 459.083365 
L 418.184167 459.083365 
z
" style="fill:#ffffd9;stroke:#000000;stroke-linejoin:miter;stroke-width:0.3;"/>
   </g>
   <g id="patch_7">
    <path clip-path="url(#p28e8a67591)" d="M 528.525833 459.558604 
L 546.1805 459.558604 
L 546.1805 458.316652 
L 528.525833 458.316652 
z
" style="fill:#ffffd9;stroke:#000000;stroke-linejoin:miter;stroke-width:0.3;"/>
   </g>
   <g id="patch_8">
    <path clip-path="url(#p28e8a67591)" d="M 638.8675 459.558604 
L 656.522167 459.558604 
L 656.522167 459.030963 
L 638.8675 459.030963 
z
" style="fill:#ffffd9;stroke:#000000;stroke-linejoin:miter;stroke-width:0.3;"/>
   </g>
   <g id="patch_9">
    <path clip-path="url(#p28e8a67591)" d="M 749.209167 459.558604 
L 766.863833 459.558604 
L 766.863833 454.260142 
L 749.209167 454.260142 
z
" style="fill:#ffffd9;stroke:#000000;stroke-linejoin:miter;stroke-width:0.3;"/>
   </g>
   <g id="patch_10">
    <path clip-path="url(#p28e8a67591)" d="M 859.550833 459.558604 
L 877.2055 459.558604 
L 877.2055 458.59575 
L 859.550833 458.59575 
z
" style="fill:#ffffd9;stroke:#000000;stroke-linejoin:miter;stroke-width:0.3;"/>
   </g>
   <g id="patch_11">
    <path clip-path="url(#p28e8a67591)" d="M 969.8925 459.558604 
L 987.547167 459.558604 
L 987.547167 458.989147 
L 969.8925 458.989147 
z
" style="fill:#ffffd9;stroke:#000000;stroke-linejoin:miter;stroke-width:0.3;"/>
   </g>
   <g id="patch_12">
    <path clip-path="url(#p28e8a67591)" d="M 104.813833 459.558604 
L 122.4685 459.558604 
L 122.4685 445.430674 
L 104.813833 445.430674 
z
" style="fill:#c6e9b4;stroke:#000000;stroke-linejoin:miter;stroke-width:0.3;"/>
   </g>
   <g id="patch_13">
    <path clip-path="url(#p28e8a67591)" d="M 215.1555 459.558604 
L 232.810167 459.558604 
L 232.810167 451.070031 
L 215.1555 451.070031 
z
" style="fill:#c6e9b4;stroke:#000000;stroke-linejoin:miter;stroke-width:0.3;"/>
   </g>
   <g id="patch_14">
    <path clip-path="url(#p28e8a67591)" d="M 325.497167 459.558604 
L 343.151833 459.558604 
L 343.151833 454.405715 
L 325.497167 454.405715 
z
" style="fill:#c6e9b4;stroke:#000000;stroke-linejoin:miter;stroke-width:0.3;"/>
   </g>
   <g id="patch_15">
    <path clip-path="url(#p28e8a67591)" d="M 435.838833 459.558604 
L 453.4935 459.558604 
L 453.4935 457.347065 
L 435.838833 457.347065 
z
" style="fill:#c6e9b4;stroke:#000000;stroke-linejoin:miter;stroke-width:0.3;"/>
   </g>
   <g id="patch_16">
    <path clip-path="url(#p28e8a67591)" d="M 546.1805 459.558604 
L 563.835167 459.558604 
L 563.835167 454.702874 
L 546.1805 454.702874 
z
" style="fill:#c6e9b4;stroke:#000000;stroke-linejoin:miter;stroke-width:0.3;"/>
   </g>
   <g id="patch_17">
    <path clip-path="url(#p28e8a67591)" d="M 656.522167 459.558604 
L 674.176833 459.558604 
L 674.176833 451.926547 
L 656.522167 451.926547 
z
" style="fill:#c6e9b4;stroke:#000000;stroke-linejoin:miter;stroke-width:0.3;"/>
   </g>
   <g id="patch_18">
    <path clip-path="url(#p28e8a67591)" d="M 766.863833 459.558604 
L 784.5185 459.558604 
L 784.5185 455.842663 
L 766.863833 455.842663 
z
" style="fill:#c6e9b4;stroke:#000000;stroke-linejoin:miter;stroke-width:0.3;"/>
   </g>
   <g id="patch_19">
    <path clip-path="url(#p28e8a67591)" d="M 877.2055 459.558604 
L 894.860167 459.558604 
L 894.860167 452.622695 
L 877.2055 452.622695 
z
" style="fill:#c6e9b4;stroke:#000000;stroke-linejoin:miter;stroke-width:0.3;"/>
   </g>
   <g id="patch_20">
    <path clip-path="url(#p28e8a67591)" d="M 987.547167 459.558604 
L 1005.201833 459.558604 
L 1005.201833 450.939936 
L 987.547167 450.939936 
z
" style="fill:#c6e9b4;stroke:#000000;stroke-linejoin:miter;stroke-width:0.3;"/>
   </g>
   <g id="patch_21">
    <path clip-path="url(#p28e8a67591)" d="M 122.4685 459.558604 
L 140.123167 459.558604 
L 140.123167 365.527219 
L 122.4685 365.527219 
z
" style="fill:#40b5c4;stroke:#000000;stroke-linejoin:miter;stroke-width:0.3;"/>
   </g>
   <g id="patch_22">
    <path clip-path="url(#p28e8a67591)" d="M 232.810167 459.558604 
L 250.464833 459.558604 
L 250.464833 338.661458 
L 232.810167 338.661458 
z
" style="fill:#40b5c4;stroke:#000000;stroke-linejoin:miter;stroke-width:0.3;"/>
   </g>
   <g id="patch_23">
    <path clip-path="url(#p28e8a67591)" d="M 343.151833 459.558604 
L 360.8065 459.558604 
L 360.8065 330.735319 
L 343.151833 330.735319 
z
" style="fill:#40b5c4;stroke:#000000;stroke-linejoin:miter;stroke-width:0.3;"/>
   </g>
   <g id="patch_24">
    <path clip-path="url(#p28e8a67591)" d="M 453.4935 459.558604 
L 471.148167 459.558604 
L 471.148167 355.604701 
L 453.4935 355.604701 
z
" style="fill:#40b5c4;stroke:#000000;stroke-linejoin:miter;stroke-width:0.3;"/>
   </g>
   <g id="patch_25">
    <path clip-path="url(#p28e8a67591)" d="M 563.835167 459.558604 
L 581.489833 459.558604 
L 581.489833 340.73186 
L 563.835167 340.73186 
z
" style="fill:#40b5c4;stroke:#000000;stroke-linejoin:miter;stroke-width:0.3;"/>
   </g>
   <g id="patch_26">
    <path clip-path="url(#p28e8a67591)" d="M 674.176833 459.558604 
L 691.8315 459.558604 
L 691.8315 342.893712 
L 674.176833 342.893712 
z
" style="fill:#40b5c4;stroke:#000000;stroke-linejoin:miter;stroke-width:0.3;"/>
   </g>
   <g id="patch_27">
    <path clip-path="url(#p28e8a67591)" d="M 784.5185 459.558604 
L 802.173167 459.558604 
L 802.173167 334.452901 
L 784.5185 334.452901 
z
" style="fill:#40b5c4;stroke:#000000;stroke-linejoin:miter;stroke-width:0.3;"/>
   </g>
   <g id="patch_28">
    <path clip-path="url(#p28e8a67591)" d="M 894.860167 459.558604 
L 912.514833 459.558604 
L 912.514833 346.158275 
L 894.860167 346.158275 
z
" style="fill:#40b5c4;stroke:#000000;stroke-linejoin:miter;stroke-width:0.3;"/>
   </g>
   <g id="patch_29">
    <path clip-path="url(#p28e8a67591)" d="M 1005.201833 459.558604 
L 1022.8565 459.558604 
L 1022.8565 337.442493 
L 1005.201833 337.442493 
z
" style="fill:#40b5c4;stroke:#000000;stroke-linejoin:miter;stroke-width:0.3;"/>
   </g>
   <g id="patch_30">
    <path clip-path="url(#p28e8a67591)" d="M 140.123167 459.558604 
L 157.777833 459.558604 
L 157.777833 457.63659 
L 140.123167 457.63659 
z
" style="fill:#225da8;stroke:#000000;stroke-linejoin:miter;stroke-width:0.3;"/>
   </g>
   <g id="patch_31">
    <path clip-path="url(#p28e8a67591)" d="M 250.464833 459.558604 
L 268.1195 459.558604 
L 268.1195 457.04029 
L 250.464833 457.04029 
z
" style="fill:#225da8;stroke:#000000;stroke-linejoin:miter;stroke-width:0.3;"/>
   </g>
   <g id="patch_32">
    <path clip-path="url(#p28e8a67591)" d="M 360.8065 459.558604 
L 378.461167 459.558604 
L 378.461167 457.212906 
L 360.8065 457.212906 
z
" style="fill:#225da8;stroke:#000000;stroke-linejoin:miter;stroke-width:0.3;"/>
   </g>
   <g id="patch_33">
    <path clip-path="url(#p28e8a67591)" d="M 471.148167 459.558604 
L 488.802833 459.558604 
L 488.802833 451.255894 
L 471.148167 451.255894 
z
" style="fill:#225da8;stroke:#000000;stroke-linejoin:miter;stroke-width:0.3;"/>
   </g>
   <g id="patch_34">
    <path clip-path="url(#p28e8a67591)" d="M 581.489833 459.558604 
L 599.1445 459.558604 
L 599.1445 457.926832 
L 581.489833 457.926832 
z
" style="fill:#225da8;stroke:#000000;stroke-linejoin:miter;stroke-width:0.3;"/>
   </g>
   <g id="patch_35">
    <path clip-path="url(#p28e8a67591)" d="M 691.8315 459.558604 
L 709.486167 459.558604 
L 709.486167 457.382316 
L 691.8315 457.382316 
z
" style="fill:#225da8;stroke:#000000;stroke-linejoin:miter;stroke-width:0.3;"/>
   </g>
   <g id="patch_36">
    <path clip-path="url(#p28e8a67591)" d="M 802.173167 459.558604 
L 819.827833 459.558604 
L 819.827833 457.80447 
L 802.173167 457.80447 
z
" style="fill:#225da8;stroke:#000000;stroke-linejoin:miter;stroke-width:0.3;"/>
   </g>
   <g id="patch_37">
    <path clip-path="url(#p28e8a67591)" d="M 912.514833 459.558604 
L 930.1695 459.558604 
L 930.1695 458.582221 
L 912.514833 458.582221 
z
" style="fill:#225da8;stroke:#000000;stroke-linejoin:miter;stroke-width:0.3;"/>
   </g>
   <g id="patch_38">
    <path clip-path="url(#p28e8a67591)" d="M 1022.8565 459.558604 
L 1040.511167 459.558604 
L 1040.511167 458.573287 
L 1022.8565 458.573287 
z
" style="fill:#225da8;stroke:#000000;stroke-linejoin:miter;stroke-width:0.3;"/>
   </g>
   <g id="patch_39">
    <path clip-path="url(#p28e8a67591)" d="M 157.777833 459.558604 
L 175.4325 459.558604 
L 175.4325 132.03468 
L 157.777833 132.03468 
z
" style="fill:#081d58;stroke:#000000;stroke-linejoin:miter;stroke-width:0.3;"/>
   </g>
   <g id="patch_40">
    <path clip-path="url(#p28e8a67591)" d="M 268.1195 459.558604 
L 285.774167 459.558604 
L 285.774167 152.358415 
L 268.1195 152.358415 
z
" style="fill:#081d58;stroke:#000000;stroke-linejoin:miter;stroke-width:0.3;"/>
   </g>
   <g id="patch_41">
    <path clip-path="url(#p28e8a67591)" d="M 378.461167 459.558604 
L 396.115833 459.558604 
L 396.115833 158.921272 
L 378.461167 158.921272 
z
" style="fill:#081d58;stroke:#000000;stroke-linejoin:miter;stroke-width:0.3;"/>
   </g>
   <g id="patch_42">
    <path clip-path="url(#p28e8a67591)" d="M 488.802833 459.558604 
L 506.4575 459.558604 
L 506.4575 134.74339 
L 488.802833 134.74339 
z
" style="fill:#081d58;stroke:#000000;stroke-linejoin:miter;stroke-width:0.3;"/>
   </g>
   <g id="patch_43">
    <path clip-path="url(#p28e8a67591)" d="M 599.1445 459.558604 
L 616.799167 459.558604 
L 616.799167 146.356199 
L 599.1445 146.356199 
z
" style="fill:#081d58;stroke:#000000;stroke-linejoin:miter;stroke-width:0.3;"/>
   </g>
   <g id="patch_44">
    <path clip-path="url(#p28e8a67591)" d="M 709.486167 459.558604 
L 727.140833 459.558604 
L 727.140833 146.800879 
L 709.486167 146.800879 
z
" style="fill:#081d58;stroke:#000000;stroke-linejoin:miter;stroke-width:0.3;"/>
   </g>
   <g id="patch_45">
    <path clip-path="url(#p28e8a67591)" d="M 819.827833 459.558604 
L 837.4825 459.558604 
L 837.4825 155.67424 
L 819.827833 155.67424 
z
" style="fill:#081d58;stroke:#000000;stroke-linejoin:miter;stroke-width:0.3;"/>
   </g>
   <g id="patch_46">
    <path clip-path="url(#p28e8a67591)" d="M 930.1695 459.558604 
L 947.824167 459.558604 
L 947.824167 142.075475 
L 930.1695 142.075475 
z
" style="fill:#081d58;stroke:#000000;stroke-linejoin:miter;stroke-width:0.3;"/>
   </g>
   <g id="patch_47">
    <path clip-path="url(#p28e8a67591)" d="M 1040.511167 459.558604 
L 1058.165833 459.558604 
L 1058.165833 152.089553 
L 1040.511167 152.089553 
z
" style="fill:#081d58;stroke:#000000;stroke-linejoin:miter;stroke-width:0.3;"/>
   </g>
   <g id="line2d_37">
    <path clip-path="url(#p28e8a67591)" d="M 95.9865 459.284367 
L 95.9865 453.832969 
" style="fill:none;stroke:#424242;stroke-linecap:round;stroke-width:3.15;"/>
   </g>
   <g id="line2d_38">
    <path clip-path="url(#p28e8a67591)" d="M 206.328167 459.318631 
L 206.328167 458.227808 
" style="fill:none;stroke:#424242;stroke-linecap:round;stroke-width:3.15;"/>
   </g>
   <g id="line2d_39">
    <path clip-path="url(#p28e8a67591)" d="M 316.669833 459.408449 
L 316.669833 451.556641 
" style="fill:none;stroke:#424242;stroke-linecap:round;stroke-width:3.15;"/>
   </g>
   <g id="line2d_40">
    <path clip-path="url(#p28e8a67591)" d="M 427.0115 459.422969 
L 427.0115 458.576689 
" style="fill:none;stroke:#424242;stroke-linecap:round;stroke-width:3.15;"/>
   </g>
   <g id="line2d_41">
    <path clip-path="url(#p28e8a67591)" d="M 537.353167 459.308326 
L 537.353167 456.485096 
" style="fill:none;stroke:#424242;stroke-linecap:round;stroke-width:3.15;"/>
   </g>
   <g id="line2d_42">
    <path clip-path="url(#p28e8a67591)" d="M 647.694833 459.363845 
L 647.694833 458.491689 
" style="fill:none;stroke:#424242;stroke-linecap:round;stroke-width:3.15;"/>
   </g>
   <g id="line2d_43">
    <path clip-path="url(#p28e8a67591)" d="M 758.0365 459.454625 
L 758.0365 444.105859 
" style="fill:none;stroke:#424242;stroke-linecap:round;stroke-width:3.15;"/>
   </g>
   <g id="line2d_44">
    <path clip-path="url(#p28e8a67591)" d="M 868.378167 459.211885 
L 868.378167 457.607203 
" style="fill:none;stroke:#424242;stroke-linecap:round;stroke-width:3.15;"/>
   </g>
   <g id="line2d_45">
    <path clip-path="url(#p28e8a67591)" d="M 978.719833 459.327526 
L 978.719833 458.559226 
" style="fill:none;stroke:#424242;stroke-linecap:round;stroke-width:3.15;"/>
   </g>
   <g id="line2d_46">
    <path clip-path="url(#p28e8a67591)" d="M 113.641167 456.420965 
L 113.641167 430.186165 
" style="fill:none;stroke:#424242;stroke-linecap:round;stroke-width:3.15;"/>
   </g>
   <g id="line2d_47">
    <path clip-path="url(#p28e8a67591)" d="M 223.982833 456.915674 
L 223.982833 443.092321 
" style="fill:none;stroke:#424242;stroke-linecap:round;stroke-width:3.15;"/>
   </g>
   <g id="line2d_48">
    <path clip-path="url(#p28e8a67591)" d="M 334.3245 457.465856 
L 334.3245 450.788819 
" style="fill:none;stroke:#424242;stroke-linecap:round;stroke-width:3.15;"/>
   </g>
   <g id="line2d_49">
    <path clip-path="url(#p28e8a67591)" d="M 444.666167 458.606204 
L 444.666167 455.397814 
" style="fill:none;stroke:#424242;stroke-linecap:round;stroke-width:3.15;"/>
   </g>
   <g id="line2d_50">
    <path clip-path="url(#p28e8a67591)" d="M 555.007833 457.629353 
L 555.007833 450.762224 
" style="fill:none;stroke:#424242;stroke-linecap:round;stroke-width:3.15;"/>
   </g>
   <g id="line2d_51">
    <path clip-path="url(#p28e8a67591)" d="M 665.3495 456.436349 
L 665.3495 445.539271 
" style="fill:none;stroke:#424242;stroke-linecap:round;stroke-width:3.15;"/>
   </g>
   <g id="line2d_52">
    <path clip-path="url(#p28e8a67591)" d="M 775.691167 458.31228 
L 775.691167 451.596963 
" style="fill:none;stroke:#424242;stroke-linecap:round;stroke-width:3.15;"/>
   </g>
   <g id="line2d_53">
    <path clip-path="url(#p28e8a67591)" d="M 886.032833 456.044232 
L 886.032833 448.083321 
" style="fill:none;stroke:#424242;stroke-linecap:round;stroke-width:3.15;"/>
   </g>
   <g id="line2d_54">
    <path clip-path="url(#p28e8a67591)" d="M 996.3745 456.739646 
L 996.3745 440.77059 
" style="fill:none;stroke:#424242;stroke-linecap:round;stroke-width:3.15;"/>
   </g>
   <g id="line2d_55">
    <path clip-path="url(#p28e8a67591)" d="M 131.295833 386.209152 
L 131.295833 342.453808 
" style="fill:none;stroke:#424242;stroke-linecap:round;stroke-width:3.15;"/>
   </g>
   <g id="line2d_56">
    <path clip-path="url(#p28e8a67591)" d="M 241.6375 365.474496 
L 241.6375 312.558556 
" style="fill:none;stroke:#424242;stroke-linecap:round;stroke-width:3.15;"/>
   </g>
   <g id="line2d_57">
    <path clip-path="url(#p28e8a67591)" d="M 351.979167 357.636561 
L 351.979167 303.245875 
" style="fill:none;stroke:#424242;stroke-linecap:round;stroke-width:3.15;"/>
   </g>
   <g id="line2d_58">
    <path clip-path="url(#p28e8a67591)" d="M 462.320833 379.866926 
L 462.320833 331.407263 
" style="fill:none;stroke:#424242;stroke-linecap:round;stroke-width:3.15;"/>
   </g>
   <g id="line2d_59">
    <path clip-path="url(#p28e8a67591)" d="M 572.6625 368.312125 
L 572.6625 314.754944 
" style="fill:none;stroke:#424242;stroke-linecap:round;stroke-width:3.15;"/>
   </g>
   <g id="line2d_60">
    <path clip-path="url(#p28e8a67591)" d="M 683.004167 372.671519 
L 683.004167 308.727689 
" style="fill:none;stroke:#424242;stroke-linecap:round;stroke-width:3.15;"/>
   </g>
   <g id="line2d_61">
    <path clip-path="url(#p28e8a67591)" d="M 793.345833 363.668541 
L 793.345833 303.170877 
" style="fill:none;stroke:#424242;stroke-linecap:round;stroke-width:3.15;"/>
   </g>
   <g id="line2d_62">
    <path clip-path="url(#p28e8a67591)" d="M 903.6875 372.215474 
L 903.6875 317.591591 
" style="fill:none;stroke:#424242;stroke-linecap:round;stroke-width:3.15;"/>
   </g>
   <g id="line2d_63">
    <path clip-path="url(#p28e8a67591)" d="M 1014.029167 365.062537 
L 1014.029167 307.812378 
" style="fill:none;stroke:#424242;stroke-linecap:round;stroke-width:3.15;"/>
   </g>
   <g id="line2d_64">
    <path clip-path="url(#p28e8a67591)" d="M 148.9505 459.241141 
L 148.9505 455.138794 
" style="fill:none;stroke:#424242;stroke-linecap:round;stroke-width:3.15;"/>
   </g>
   <g id="line2d_65">
    <path clip-path="url(#p28e8a67591)" d="M 259.292167 459.455731 
L 259.292167 453.01322 
" style="fill:none;stroke:#424242;stroke-linecap:round;stroke-width:3.15;"/>
   </g>
   <g id="line2d_66">
    <path clip-path="url(#p28e8a67591)" d="M 369.633833 459.224883 
L 369.633833 454.028963 
" style="fill:none;stroke:#424242;stroke-linecap:round;stroke-width:3.15;"/>
   </g>
   <g id="line2d_67">
    <path clip-path="url(#p28e8a67591)" d="M 479.9755 459.433203 
L 479.9755 437.338896 
" style="fill:none;stroke:#424242;stroke-linecap:round;stroke-width:3.15;"/>
   </g>
   <g id="line2d_68">
    <path clip-path="url(#p28e8a67591)" d="M 590.317167 459.13088 
L 590.317167 456.369605 
" style="fill:none;stroke:#424242;stroke-linecap:round;stroke-width:3.15;"/>
   </g>
   <g id="line2d_69">
    <path clip-path="url(#p28e8a67591)" d="M 700.658833 459.254349 
L 700.658833 453.832514 
" style="fill:none;stroke:#424242;stroke-linecap:round;stroke-width:3.15;"/>
   </g>
   <g id="line2d_70">
    <path clip-path="url(#p28e8a67591)" d="M 811.0005 459.426451 
L 811.0005 455.755647 
" style="fill:none;stroke:#424242;stroke-linecap:round;stroke-width:3.15;"/>
   </g>
   <g id="line2d_71">
    <path clip-path="url(#p28e8a67591)" d="M 921.342167 459.30757 
L 921.342167 457.591822 
" style="fill:none;stroke:#424242;stroke-linecap:round;stroke-width:3.15;"/>
   </g>
   <g id="line2d_72">
    <path clip-path="url(#p28e8a67591)" d="M 1031.683833 459.257634 
L 1031.683833 457.62299 
" style="fill:none;stroke:#424242;stroke-linecap:round;stroke-width:3.15;"/>
   </g>
   <g id="line2d_73">
    <path clip-path="url(#p28e8a67591)" d="M 166.605167 163.967303 
L 166.605167 106.165019 
" style="fill:none;stroke:#424242;stroke-linecap:round;stroke-width:3.15;"/>
   </g>
   <g id="line2d_74">
    <path clip-path="url(#p28e8a67591)" d="M 276.946833 182.481125 
L 276.946833 123.484505 
" style="fill:none;stroke:#424242;stroke-linecap:round;stroke-width:3.15;"/>
   </g>
   <g id="line2d_75">
    <path clip-path="url(#p28e8a67591)" d="M 387.2885 187.461207 
L 387.2885 130.718591 
" style="fill:none;stroke:#424242;stroke-linecap:round;stroke-width:3.15;"/>
   </g>
   <g id="line2d_76">
    <path clip-path="url(#p28e8a67591)" d="M 497.630167 162.80182 
L 497.630167 109.797296 
" style="fill:none;stroke:#424242;stroke-linecap:round;stroke-width:3.15;"/>
   </g>
   <g id="line2d_77">
    <path clip-path="url(#p28e8a67591)" d="M 607.971833 174.184129 
L 607.971833 118.802409 
" style="fill:none;stroke:#424242;stroke-linecap:round;stroke-width:3.15;"/>
   </g>
   <g id="line2d_78">
    <path clip-path="url(#p28e8a67591)" d="M 718.3135 182.372142 
L 718.3135 113.129321 
" style="fill:none;stroke:#424242;stroke-linecap:round;stroke-width:3.15;"/>
   </g>
   <g id="line2d_79">
    <path clip-path="url(#p28e8a67591)" d="M 828.655167 194.293708 
L 828.655167 124.02325 
" style="fill:none;stroke:#424242;stroke-linecap:round;stroke-width:3.15;"/>
   </g>
   <g id="line2d_80">
    <path clip-path="url(#p28e8a67591)" d="M 938.996833 171.391203 
L 938.996833 114.71107 
" style="fill:none;stroke:#424242;stroke-linecap:round;stroke-width:3.15;"/>
   </g>
   <g id="line2d_81">
    <path clip-path="url(#p28e8a67591)" d="M 1049.3385 182.025724 
L 1049.3385 125.021962 
" style="fill:none;stroke:#424242;stroke-linecap:round;stroke-width:3.15;"/>
   </g>
   <g id="patch_48">
    <path d="M 76.125 459.558604 
L 76.125 19.8 
" style="fill:none;"/>
   </g>
   <g id="patch_49">
    <path d="M 1069.2 459.558604 
L 1069.2 19.8 
" style="fill:none;"/>
   </g>
   <g id="patch_50">
    <path d="M 76.125 459.558604 
L 1069.2 459.558604 
" style="fill:none;"/>
   </g>
   <g id="patch_51">
    <path d="M 76.125 19.8 
L 1069.2 19.8 
" style="fill:none;"/>
   </g>
   <g id="legend_1">
    <g id="patch_52">
     <path d="M 1087.2 186.485552 
L 1127.2 186.485552 
L 1127.2 172.485552 
L 1087.2 172.485552 
z
" style="fill:#ffffd9;stroke:#000000;stroke-linejoin:miter;stroke-width:0.3;"/>
    </g>
    <g id="text_17">
     <!-- Mouth -->
     <defs>
      <path d="M 54.890625 33.015625 
L 54.890625 0 
L 45.90625 0 
L 45.90625 32.71875 
Q 45.90625 40.484375 42.875 44.328125 
Q 39.84375 48.1875 33.796875 48.1875 
Q 26.515625 48.1875 22.3125 43.546875 
Q 18.109375 38.921875 18.109375 30.90625 
L 18.109375 0 
L 9.078125 0 
L 9.078125 75.984375 
L 18.109375 75.984375 
L 18.109375 46.1875 
Q 21.34375 51.125 25.703125 53.5625 
Q 30.078125 56 35.796875 56 
Q 45.21875 56 50.046875 50.171875 
Q 54.890625 44.34375 54.890625 33.015625 
" id="BitstreamVeraSans-Roman-68"/>
      <path d="M 9.8125 72.90625 
L 24.515625 72.90625 
L 43.109375 23.296875 
L 61.8125 72.90625 
L 76.515625 72.90625 
L 76.515625 0 
L 66.890625 0 
L 66.890625 64.015625 
L 48.09375 14.015625 
L 38.1875 14.015625 
L 19.390625 64.015625 
L 19.390625 0 
L 9.8125 0 
z
" id="BitstreamVeraSans-Roman-4d"/>
     </defs>
     <g style="fill:#262626;" transform="translate(1143.2 186.485552012)scale(0.2 -0.2)">
      <use xlink:href="#BitstreamVeraSans-Roman-4d"/>
      <use x="86.279296875" xlink:href="#BitstreamVeraSans-Roman-6f"/>
      <use x="147.4609375" xlink:href="#BitstreamVeraSans-Roman-75"/>
      <use x="210.83984375" xlink:href="#BitstreamVeraSans-Roman-74"/>
      <use x="250.048828125" xlink:href="#BitstreamVeraSans-Roman-68"/>
     </g>
    </g>
    <g id="patch_53">
     <path d="M 1087.2 215.841802 
L 1127.2 215.841802 
L 1127.2 201.841802 
L 1087.2 201.841802 
z
" style="fill:#c6e9b4;stroke:#000000;stroke-linejoin:miter;stroke-width:0.3;"/>
    </g>
    <g id="text_18">
     <!-- Nasal -->
     <defs>
      <path d="M 9.8125 72.90625 
L 23.09375 72.90625 
L 55.421875 11.921875 
L 55.421875 72.90625 
L 64.984375 72.90625 
L 64.984375 0 
L 51.703125 0 
L 19.390625 60.984375 
L 19.390625 0 
L 9.8125 0 
z
" id="BitstreamVeraSans-Roman-4e"/>
     </defs>
     <g style="fill:#262626;" transform="translate(1143.2 215.841802012)scale(0.2 -0.2)">
      <use xlink:href="#BitstreamVeraSans-Roman-4e"/>
      <use x="74.8046875" xlink:href="#BitstreamVeraSans-Roman-61"/>
      <use x="136.083984375" xlink:href="#BitstreamVeraSans-Roman-73"/>
      <use x="188.18359375" xlink:href="#BitstreamVeraSans-Roman-61"/>
      <use x="249.462890625" xlink:href="#BitstreamVeraSans-Roman-6c"/>
     </g>
    </g>
    <g id="patch_54">
     <path d="M 1087.2 245.198052 
L 1127.2 245.198052 
L 1127.2 231.198052 
L 1087.2 231.198052 
z
" style="fill:#40b5c4;stroke:#000000;stroke-linejoin:miter;stroke-width:0.3;"/>
    </g>
    <g id="text_19">
     <!-- Skin -->
     <defs>
      <path d="M 9.078125 75.984375 
L 18.109375 75.984375 
L 18.109375 31.109375 
L 44.921875 54.6875 
L 56.390625 54.6875 
L 27.390625 29.109375 
L 57.625 0 
L 45.90625 0 
L 18.109375 26.703125 
L 18.109375 0 
L 9.078125 0 
z
" id="BitstreamVeraSans-Roman-6b"/>
     </defs>
     <g style="fill:#262626;" transform="translate(1143.2 245.198052012)scale(0.2 -0.2)">
      <use xlink:href="#BitstreamVeraSans-Roman-53"/>
      <use x="63.4765625" xlink:href="#BitstreamVeraSans-Roman-6b"/>
      <use x="121.38671875" xlink:href="#BitstreamVeraSans-Roman-69"/>
      <use x="149.169921875" xlink:href="#BitstreamVeraSans-Roman-6e"/>
     </g>
    </g>
    <g id="patch_55">
     <path d="M 1087.2 274.554302 
L 1127.2 274.554302 
L 1127.2 260.554302 
L 1087.2 260.554302 
z
" style="fill:#225da8;stroke:#000000;stroke-linejoin:miter;stroke-width:0.3;"/>
    </g>
    <g id="text_20">
     <!-- Stool -->
     <g style="fill:#262626;" transform="translate(1143.2 274.554302012)scale(0.2 -0.2)">
      <use xlink:href="#BitstreamVeraSans-Roman-53"/>
      <use x="63.4765625" xlink:href="#BitstreamVeraSans-Roman-74"/>
      <use x="102.685546875" xlink:href="#BitstreamVeraSans-Roman-6f"/>
      <use x="163.8671875" xlink:href="#BitstreamVeraSans-Roman-6f"/>
      <use x="225.048828125" xlink:href="#BitstreamVeraSans-Roman-6c"/>
     </g>
    </g>
    <g id="patch_56">
     <path d="M 1087.2 303.910552 
L 1127.2 303.910552 
L 1127.2 289.910552 
L 1087.2 289.910552 
z
" style="fill:#081d58;stroke:#000000;stroke-linejoin:miter;stroke-width:0.3;"/>
    </g>
    <g id="text_21">
     <!-- Unknown -->
     <defs>
      <path d="M 4.203125 54.6875 
L 13.1875 54.6875 
L 24.421875 12.015625 
L 35.59375 54.6875 
L 46.1875 54.6875 
L 57.421875 12.015625 
L 68.609375 54.6875 
L 77.59375 54.6875 
L 63.28125 0 
L 52.6875 0 
L 40.921875 44.828125 
L 29.109375 0 
L 18.5 0 
z
" id="BitstreamVeraSans-Roman-77"/>
      <path d="M 8.6875 72.90625 
L 18.609375 72.90625 
L 18.609375 28.609375 
Q 18.609375 16.890625 22.84375 11.734375 
Q 27.09375 6.59375 36.625 6.59375 
Q 46.09375 6.59375 50.34375 11.734375 
Q 54.59375 16.890625 54.59375 28.609375 
L 54.59375 72.90625 
L 64.5 72.90625 
L 64.5 27.390625 
Q 64.5 13.140625 57.4375 5.859375 
Q 50.390625 -1.421875 36.625 -1.421875 
Q 22.796875 -1.421875 15.734375 5.859375 
Q 8.6875 13.140625 8.6875 27.390625 
z
" id="BitstreamVeraSans-Roman-55"/>
     </defs>
     <g style="fill:#262626;" transform="translate(1143.2 303.910552012)scale(0.2 -0.2)">
      <use xlink:href="#BitstreamVeraSans-Roman-55"/>
      <use x="73.193359375" xlink:href="#BitstreamVeraSans-Roman-6e"/>
      <use x="136.572265625" xlink:href="#BitstreamVeraSans-Roman-6b"/>
      <use x="194.482421875" xlink:href="#BitstreamVeraSans-Roman-6e"/>
      <use x="257.861328125" xlink:href="#BitstreamVeraSans-Roman-6f"/>
      <use x="319.04296875" xlink:href="#BitstreamVeraSans-Roman-77"/>
      <use x="400.830078125" xlink:href="#BitstreamVeraSans-Roman-6e"/>
     </g>
    </g>
   </g>
  </g>
 </g>
 <defs>
  <clipPath id="p28e8a67591">
   <rect height="439.758604024" width="993.075" x="76.125" y="19.8"/>
  </clipPath>
 </defs>
</svg>
