<?xml version="1.0" encoding="utf-8" standalone="no"?>
<!DOCTYPE svg PUBLIC "-//W3C//DTD SVG 1.1//EN"
  "http://www.w3.org/Graphics/SVG/1.1/DTD/svg11.dtd">
<!-- Created with matplotlib (http://matplotlib.org/) -->
<svg height="792pt" version="1.1" viewBox="0 0 1440 792" width="1440pt" xmlns="http://www.w3.org/2000/svg" xmlns:xlink="http://www.w3.org/1999/xlink">
 <defs>
  <style type="text/css">
*{stroke-linecap:butt;stroke-linejoin:round;stroke-miterlimit:100000;}
  </style>
 </defs>
 <g id="figure_1">
  <g id="patch_1">
   <path d="M 0 792 
L 1440 792 
L 1440 0 
L 0 0 
z
" style="fill:#ffffff;"/>
  </g>
  <g id="axes_1">
   <g id="patch_2">
    <path d="M 180 693 
L 1296 693 
L 1296 79.2 
L 180 79.2 
z
" style="fill:#eaeaf2;"/>
   </g>
   <g id="matplotlib.axis_1">
    <g id="xtick_1">
     <g id="line2d_1">
      <defs>
       <path d="M 0 0 
L 0 0 
" id="mec60d53340" style="stroke:#262626;"/>
      </defs>
      <g>
       <use style="fill:#262626;stroke:#262626;" x="366.0" xlink:href="#mec60d53340" y="693.0"/>
      </g>
     </g>
     <g id="line2d_2">
      <g>
       <use style="fill:#262626;stroke:#262626;" x="366.0" xlink:href="#mec60d53340" y="79.2"/>
      </g>
     </g>
     <g id="text_1">
      <!-- All Row 2/3 Pairs (n=225) -->
      <defs>
       <path d="M 44.28125 53.078125 
L 44.28125 44.578125 
Q 40.484375 46.53125 36.375 47.5 
Q 32.28125 48.484375 27.875 48.484375 
Q 21.1875 48.484375 17.84375 46.4375 
Q 14.5 44.390625 14.5 40.28125 
Q 14.5 37.15625 16.890625 35.375 
Q 19.28125 33.59375 26.515625 31.984375 
L 29.59375 31.296875 
Q 39.15625 29.25 43.1875 25.515625 
Q 47.21875 21.78125 47.21875 15.09375 
Q 47.21875 7.46875 41.1875 3.015625 
Q 35.15625 -1.421875 24.609375 -1.421875 
Q 20.21875 -1.421875 15.453125 -0.5625 
Q 10.6875 0.296875 5.421875 2 
L 5.421875 11.28125 
Q 10.40625 8.6875 15.234375 7.390625 
Q 20.0625 6.109375 24.8125 6.109375 
Q 31.15625 6.109375 34.5625 8.28125 
Q 37.984375 10.453125 37.984375 14.40625 
Q 37.984375 18.0625 35.515625 20.015625 
Q 33.0625 21.96875 24.703125 23.78125 
L 21.578125 24.515625 
Q 13.234375 26.265625 9.515625 29.90625 
Q 5.8125 33.546875 5.8125 39.890625 
Q 5.8125 47.609375 11.28125 51.796875 
Q 16.75 56 26.8125 56 
Q 31.78125 56 36.171875 55.265625 
Q 40.578125 54.546875 44.28125 53.078125 
" id="BitstreamVeraSans-Roman-73"/>
       <path d="M 19.671875 64.796875 
L 19.671875 37.40625 
L 32.078125 37.40625 
Q 38.96875 37.40625 42.71875 40.96875 
Q 46.484375 44.53125 46.484375 51.125 
Q 46.484375 57.671875 42.71875 61.234375 
Q 38.96875 64.796875 32.078125 64.796875 
z
M 9.8125 72.90625 
L 32.078125 72.90625 
Q 44.34375 72.90625 50.609375 67.359375 
Q 56.890625 61.8125 56.890625 51.125 
Q 56.890625 40.328125 50.609375 34.8125 
Q 44.34375 29.296875 32.078125 29.296875 
L 19.671875 29.296875 
L 19.671875 0 
L 9.8125 0 
z
" id="BitstreamVeraSans-Roman-50"/>
       <path d="M 34.28125 27.484375 
Q 23.390625 27.484375 19.1875 25 
Q 14.984375 22.515625 14.984375 16.5 
Q 14.984375 11.71875 18.140625 8.90625 
Q 21.296875 6.109375 26.703125 6.109375 
Q 34.1875 6.109375 38.703125 11.40625 
Q 43.21875 16.703125 43.21875 25.484375 
L 43.21875 27.484375 
z
M 52.203125 31.203125 
L 52.203125 0 
L 43.21875 0 
L 43.21875 8.296875 
Q 40.140625 3.328125 35.546875 0.953125 
Q 30.953125 -1.421875 24.3125 -1.421875 
Q 15.921875 -1.421875 10.953125 3.296875 
Q 6 8.015625 6 15.921875 
Q 6 25.140625 12.171875 29.828125 
Q 18.359375 34.515625 30.609375 34.515625 
L 43.21875 34.515625 
L 43.21875 35.40625 
Q 43.21875 41.609375 39.140625 45 
Q 35.0625 48.390625 27.6875 48.390625 
Q 23 48.390625 18.546875 47.265625 
Q 14.109375 46.140625 10.015625 43.890625 
L 10.015625 52.203125 
Q 14.9375 54.109375 19.578125 55.046875 
Q 24.21875 56 28.609375 56 
Q 40.484375 56 46.34375 49.84375 
Q 52.203125 43.703125 52.203125 31.203125 
" id="BitstreamVeraSans-Roman-61"/>
       <path d="M 9.421875 75.984375 
L 18.40625 75.984375 
L 18.40625 0 
L 9.421875 0 
z
" id="BitstreamVeraSans-Roman-6c"/>
       <path d="M 19.1875 8.296875 
L 53.609375 8.296875 
L 53.609375 0 
L 7.328125 0 
L 7.328125 8.296875 
Q 12.9375 14.109375 22.625 23.890625 
Q 32.328125 33.6875 34.8125 36.53125 
Q 39.546875 41.84375 41.421875 45.53125 
Q 43.3125 49.21875 43.3125 52.78125 
Q 43.3125 58.59375 39.234375 62.25 
Q 35.15625 65.921875 28.609375 65.921875 
Q 23.96875 65.921875 18.8125 64.3125 
Q 13.671875 62.703125 7.8125 59.421875 
L 7.8125 69.390625 
Q 13.765625 71.78125 18.9375 73 
Q 24.125 74.21875 28.421875 74.21875 
Q 39.75 74.21875 46.484375 68.546875 
Q 53.21875 62.890625 53.21875 53.421875 
Q 53.21875 48.921875 51.53125 44.890625 
Q 49.859375 40.875 45.40625 35.40625 
Q 44.1875 33.984375 37.640625 27.21875 
Q 31.109375 20.453125 19.1875 8.296875 
" id="BitstreamVeraSans-Roman-32"/>
       <path d="M 30.609375 48.390625 
Q 23.390625 48.390625 19.1875 42.75 
Q 14.984375 37.109375 14.984375 27.296875 
Q 14.984375 17.484375 19.15625 11.84375 
Q 23.34375 6.203125 30.609375 6.203125 
Q 37.796875 6.203125 41.984375 11.859375 
Q 46.1875 17.53125 46.1875 27.296875 
Q 46.1875 37.015625 41.984375 42.703125 
Q 37.796875 48.390625 30.609375 48.390625 
M 30.609375 56 
Q 42.328125 56 49.015625 48.375 
Q 55.71875 40.765625 55.71875 27.296875 
Q 55.71875 13.875 49.015625 6.21875 
Q 42.328125 -1.421875 30.609375 -1.421875 
Q 18.84375 -1.421875 12.171875 6.21875 
Q 5.515625 13.875 5.515625 27.296875 
Q 5.515625 40.765625 12.171875 48.375 
Q 18.84375 56 30.609375 56 
" id="BitstreamVeraSans-Roman-6f"/>
       <path d="M 44.390625 34.1875 
Q 47.5625 33.109375 50.5625 29.59375 
Q 53.5625 26.078125 56.59375 19.921875 
L 66.609375 0 
L 56 0 
L 46.6875 18.703125 
Q 43.0625 26.03125 39.671875 28.421875 
Q 36.28125 30.8125 30.421875 30.8125 
L 19.671875 30.8125 
L 19.671875 0 
L 9.8125 0 
L 9.8125 72.90625 
L 32.078125 72.90625 
Q 44.578125 72.90625 50.734375 67.671875 
Q 56.890625 62.453125 56.890625 51.90625 
Q 56.890625 45.015625 53.6875 40.46875 
Q 50.484375 35.9375 44.390625 34.1875 
M 19.671875 64.796875 
L 19.671875 38.921875 
L 32.078125 38.921875 
Q 39.203125 38.921875 42.84375 42.21875 
Q 46.484375 45.515625 46.484375 51.90625 
Q 46.484375 58.296875 42.84375 61.546875 
Q 39.203125 64.796875 32.078125 64.796875 
z
" id="BitstreamVeraSans-Roman-52"/>
       <path d="M 25.390625 72.90625 
L 33.6875 72.90625 
L 8.296875 -9.28125 
L 0 -9.28125 
z
" id="BitstreamVeraSans-Roman-2f"/>
       <path d="M 41.109375 46.296875 
Q 39.59375 47.171875 37.8125 47.578125 
Q 36.03125 48 33.890625 48 
Q 26.265625 48 22.1875 43.046875 
Q 18.109375 38.09375 18.109375 28.8125 
L 18.109375 0 
L 9.078125 0 
L 9.078125 54.6875 
L 18.109375 54.6875 
L 18.109375 46.1875 
Q 20.953125 51.171875 25.484375 53.578125 
Q 30.03125 56 36.53125 56 
Q 37.453125 56 38.578125 55.875 
Q 39.703125 55.765625 41.0625 55.515625 
z
" id="BitstreamVeraSans-Roman-72"/>
       <path d="M 40.578125 39.3125 
Q 47.65625 37.796875 51.625 33 
Q 55.609375 28.21875 55.609375 21.1875 
Q 55.609375 10.40625 48.1875 4.484375 
Q 40.765625 -1.421875 27.09375 -1.421875 
Q 22.515625 -1.421875 17.65625 -0.515625 
Q 12.796875 0.390625 7.625 2.203125 
L 7.625 11.71875 
Q 11.71875 9.328125 16.59375 8.109375 
Q 21.484375 6.890625 26.8125 6.890625 
Q 36.078125 6.890625 40.9375 10.546875 
Q 45.796875 14.203125 45.796875 21.1875 
Q 45.796875 27.640625 41.28125 31.265625 
Q 36.765625 34.90625 28.71875 34.90625 
L 20.21875 34.90625 
L 20.21875 43.015625 
L 29.109375 43.015625 
Q 36.375 43.015625 40.234375 45.921875 
Q 44.09375 48.828125 44.09375 54.296875 
Q 44.09375 59.90625 40.109375 62.90625 
Q 36.140625 65.921875 28.71875 65.921875 
Q 24.65625 65.921875 20.015625 65.03125 
Q 15.375 64.15625 9.8125 62.3125 
L 9.8125 71.09375 
Q 15.4375 72.65625 20.34375 73.4375 
Q 25.25 74.21875 29.59375 74.21875 
Q 40.828125 74.21875 47.359375 69.109375 
Q 53.90625 64.015625 53.90625 55.328125 
Q 53.90625 49.265625 50.4375 45.09375 
Q 46.96875 40.921875 40.578125 39.3125 
" id="BitstreamVeraSans-Roman-33"/>
       <path d="M 54.890625 33.015625 
L 54.890625 0 
L 45.90625 0 
L 45.90625 32.71875 
Q 45.90625 40.484375 42.875 44.328125 
Q 39.84375 48.1875 33.796875 48.1875 
Q 26.515625 48.1875 22.3125 43.546875 
Q 18.109375 38.921875 18.109375 30.90625 
L 18.109375 0 
L 9.078125 0 
L 9.078125 54.6875 
L 18.109375 54.6875 
L 18.109375 46.1875 
Q 21.34375 51.125 25.703125 53.5625 
Q 30.078125 56 35.796875 56 
Q 45.21875 56 50.046875 50.171875 
Q 54.890625 44.34375 54.890625 33.015625 
" id="BitstreamVeraSans-Roman-6e"/>
       <path id="BitstreamVeraSans-Roman-20"/>
       <path d="M 9.421875 54.6875 
L 18.40625 54.6875 
L 18.40625 0 
L 9.421875 0 
z
M 9.421875 75.984375 
L 18.40625 75.984375 
L 18.40625 64.59375 
L 9.421875 64.59375 
z
" id="BitstreamVeraSans-Roman-69"/>
       <path d="M 4.203125 54.6875 
L 13.1875 54.6875 
L 24.421875 12.015625 
L 35.59375 54.6875 
L 46.1875 54.6875 
L 57.421875 12.015625 
L 68.609375 54.6875 
L 77.59375 54.6875 
L 63.28125 0 
L 52.6875 0 
L 40.921875 44.828125 
L 29.109375 0 
L 18.5 0 
z
" id="BitstreamVeraSans-Roman-77"/>
       <path d="M 10.59375 45.40625 
L 73.1875 45.40625 
L 73.1875 37.203125 
L 10.59375 37.203125 
z
M 10.59375 25.484375 
L 73.1875 25.484375 
L 73.1875 17.1875 
L 10.59375 17.1875 
z
" id="BitstreamVeraSans-Roman-3d"/>
       <path d="M 31 75.875 
Q 24.46875 64.65625 21.28125 53.65625 
Q 18.109375 42.671875 18.109375 31.390625 
Q 18.109375 20.125 21.3125 9.0625 
Q 24.515625 -2 31 -13.1875 
L 23.1875 -13.1875 
Q 15.875 -1.703125 12.234375 9.375 
Q 8.59375 20.453125 8.59375 31.390625 
Q 8.59375 42.28125 12.203125 53.3125 
Q 15.828125 64.359375 23.1875 75.875 
z
" id="BitstreamVeraSans-Roman-28"/>
       <path d="M 34.1875 63.1875 
L 20.796875 26.90625 
L 47.609375 26.90625 
z
M 28.609375 72.90625 
L 39.796875 72.90625 
L 67.578125 0 
L 57.328125 0 
L 50.6875 18.703125 
L 17.828125 18.703125 
L 11.1875 0 
L 0.78125 0 
z
" id="BitstreamVeraSans-Roman-41"/>
       <path d="M 8.015625 75.875 
L 15.828125 75.875 
Q 23.140625 64.359375 26.78125 53.3125 
Q 30.421875 42.28125 30.421875 31.390625 
Q 30.421875 20.453125 26.78125 9.375 
Q 23.140625 -1.703125 15.828125 -13.1875 
L 8.015625 -13.1875 
Q 14.5 -2 17.703125 9.0625 
Q 20.90625 20.125 20.90625 31.390625 
Q 20.90625 42.671875 17.703125 53.65625 
Q 14.5 64.65625 8.015625 75.875 
" id="BitstreamVeraSans-Roman-29"/>
       <path d="M 10.796875 72.90625 
L 49.515625 72.90625 
L 49.515625 64.59375 
L 19.828125 64.59375 
L 19.828125 46.734375 
Q 21.96875 47.46875 24.109375 47.828125 
Q 26.265625 48.1875 28.421875 48.1875 
Q 40.625 48.1875 47.75 41.5 
Q 54.890625 34.8125 54.890625 23.390625 
Q 54.890625 11.625 47.5625 5.09375 
Q 40.234375 -1.421875 26.90625 -1.421875 
Q 22.3125 -1.421875 17.546875 -0.640625 
Q 12.796875 0.140625 7.71875 1.703125 
L 7.71875 11.625 
Q 12.109375 9.234375 16.796875 8.0625 
Q 21.484375 6.890625 26.703125 6.890625 
Q 35.15625 6.890625 40.078125 11.328125 
Q 45.015625 15.765625 45.015625 23.390625 
Q 45.015625 31 40.078125 35.4375 
Q 35.15625 39.890625 26.703125 39.890625 
Q 22.75 39.890625 18.8125 39.015625 
Q 14.890625 38.140625 10.796875 36.28125 
z
" id="BitstreamVeraSans-Roman-35"/>
      </defs>
      <g style="fill:#262626;" transform="translate(205.625 718.99609375)scale(0.25 -0.25)">
       <use xlink:href="#BitstreamVeraSans-Roman-41"/>
       <use x="68.408203125" xlink:href="#BitstreamVeraSans-Roman-6c"/>
       <use x="96.19140625" xlink:href="#BitstreamVeraSans-Roman-6c"/>
       <use x="123.974609375" xlink:href="#BitstreamVeraSans-Roman-20"/>
       <use x="155.76171875" xlink:href="#BitstreamVeraSans-Roman-52"/>
       <use x="225.181640625" xlink:href="#BitstreamVeraSans-Roman-6f"/>
       <use x="286.36328125" xlink:href="#BitstreamVeraSans-Roman-77"/>
       <use x="368.150390625" xlink:href="#BitstreamVeraSans-Roman-20"/>
       <use x="399.9375" xlink:href="#BitstreamVeraSans-Roman-32"/>
       <use x="463.560546875" xlink:href="#BitstreamVeraSans-Roman-2f"/>
       <use x="497.251953125" xlink:href="#BitstreamVeraSans-Roman-33"/>
       <use x="560.875" xlink:href="#BitstreamVeraSans-Roman-20"/>
       <use x="592.662109375" xlink:href="#BitstreamVeraSans-Roman-50"/>
       <use x="652.90234375" xlink:href="#BitstreamVeraSans-Roman-61"/>
       <use x="714.181640625" xlink:href="#BitstreamVeraSans-Roman-69"/>
       <use x="741.96484375" xlink:href="#BitstreamVeraSans-Roman-72"/>
       <use x="783.078125" xlink:href="#BitstreamVeraSans-Roman-73"/>
       <use x="835.177734375" xlink:href="#BitstreamVeraSans-Roman-20"/>
       <use x="866.96484375" xlink:href="#BitstreamVeraSans-Roman-28"/>
       <use x="905.978515625" xlink:href="#BitstreamVeraSans-Roman-6e"/>
       <use x="969.357421875" xlink:href="#BitstreamVeraSans-Roman-3d"/>
       <use x="1053.146484375" xlink:href="#BitstreamVeraSans-Roman-32"/>
       <use x="1116.76953125" xlink:href="#BitstreamVeraSans-Roman-32"/>
       <use x="1180.392578125" xlink:href="#BitstreamVeraSans-Roman-35"/>
       <use x="1244.015625" xlink:href="#BitstreamVeraSans-Roman-29"/>
      </g>
     </g>
    </g>
    <g id="xtick_2">
     <g id="line2d_3">
      <g>
       <use style="fill:#262626;stroke:#262626;" x="738.0" xlink:href="#mec60d53340" y="693.0"/>
      </g>
     </g>
     <g id="line2d_4">
      <g>
       <use style="fill:#262626;stroke:#262626;" x="738.0" xlink:href="#mec60d53340" y="79.2"/>
      </g>
     </g>
     <g id="text_2">
      <!-- Wall and Ceiling Pairs (n=109) -->
      <defs>
       <path d="M 64.40625 67.28125 
L 64.40625 56.890625 
Q 59.421875 61.53125 53.78125 63.8125 
Q 48.140625 66.109375 41.796875 66.109375 
Q 29.296875 66.109375 22.65625 58.46875 
Q 16.015625 50.828125 16.015625 36.375 
Q 16.015625 21.96875 22.65625 14.328125 
Q 29.296875 6.6875 41.796875 6.6875 
Q 48.140625 6.6875 53.78125 8.984375 
Q 59.421875 11.28125 64.40625 15.921875 
L 64.40625 5.609375 
Q 59.234375 2.09375 53.4375 0.328125 
Q 47.65625 -1.421875 41.21875 -1.421875 
Q 24.65625 -1.421875 15.125 8.703125 
Q 5.609375 18.84375 5.609375 36.375 
Q 5.609375 53.953125 15.125 64.078125 
Q 24.65625 74.21875 41.21875 74.21875 
Q 47.75 74.21875 53.53125 72.484375 
Q 59.328125 70.75 64.40625 67.28125 
" id="BitstreamVeraSans-Roman-43"/>
       <path d="M 10.984375 1.515625 
L 10.984375 10.5 
Q 14.703125 8.734375 18.5 7.8125 
Q 22.3125 6.890625 25.984375 6.890625 
Q 35.75 6.890625 40.890625 13.453125 
Q 46.046875 20.015625 46.78125 33.40625 
Q 43.953125 29.203125 39.59375 26.953125 
Q 35.25 24.703125 29.984375 24.703125 
Q 19.046875 24.703125 12.671875 31.3125 
Q 6.296875 37.9375 6.296875 49.421875 
Q 6.296875 60.640625 12.9375 67.421875 
Q 19.578125 74.21875 30.609375 74.21875 
Q 43.265625 74.21875 49.921875 64.515625 
Q 56.59375 54.828125 56.59375 36.375 
Q 56.59375 19.140625 48.40625 8.859375 
Q 40.234375 -1.421875 26.421875 -1.421875 
Q 22.703125 -1.421875 18.890625 -0.6875 
Q 15.09375 0.046875 10.984375 1.515625 
M 30.609375 32.421875 
Q 37.25 32.421875 41.125 36.953125 
Q 45.015625 41.5 45.015625 49.421875 
Q 45.015625 57.28125 41.125 61.84375 
Q 37.25 66.40625 30.609375 66.40625 
Q 23.96875 66.40625 20.09375 61.84375 
Q 16.21875 57.28125 16.21875 49.421875 
Q 16.21875 41.5 20.09375 36.953125 
Q 23.96875 32.421875 30.609375 32.421875 
" id="BitstreamVeraSans-Roman-39"/>
       <path d="M 3.328125 72.90625 
L 13.28125 72.90625 
L 28.609375 11.28125 
L 43.890625 72.90625 
L 54.984375 72.90625 
L 70.3125 11.28125 
L 85.59375 72.90625 
L 95.609375 72.90625 
L 77.296875 0 
L 64.890625 0 
L 49.515625 63.28125 
L 33.984375 0 
L 21.578125 0 
z
" id="BitstreamVeraSans-Roman-57"/>
       <path d="M 56.203125 29.59375 
L 56.203125 25.203125 
L 14.890625 25.203125 
Q 15.484375 15.921875 20.484375 11.0625 
Q 25.484375 6.203125 34.421875 6.203125 
Q 39.59375 6.203125 44.453125 7.46875 
Q 49.3125 8.734375 54.109375 11.28125 
L 54.109375 2.78125 
Q 49.265625 0.734375 44.1875 -0.34375 
Q 39.109375 -1.421875 33.890625 -1.421875 
Q 20.796875 -1.421875 13.15625 6.1875 
Q 5.515625 13.8125 5.515625 26.8125 
Q 5.515625 40.234375 12.765625 48.109375 
Q 20.015625 56 32.328125 56 
Q 43.359375 56 49.78125 48.890625 
Q 56.203125 41.796875 56.203125 29.59375 
M 47.21875 32.234375 
Q 47.125 39.59375 43.09375 43.984375 
Q 39.0625 48.390625 32.421875 48.390625 
Q 24.90625 48.390625 20.390625 44.140625 
Q 15.875 39.890625 15.1875 32.171875 
z
" id="BitstreamVeraSans-Roman-65"/>
       <path d="M 45.40625 46.390625 
L 45.40625 75.984375 
L 54.390625 75.984375 
L 54.390625 0 
L 45.40625 0 
L 45.40625 8.203125 
Q 42.578125 3.328125 38.25 0.953125 
Q 33.9375 -1.421875 27.875 -1.421875 
Q 17.96875 -1.421875 11.734375 6.484375 
Q 5.515625 14.40625 5.515625 27.296875 
Q 5.515625 40.1875 11.734375 48.09375 
Q 17.96875 56 27.875 56 
Q 33.9375 56 38.25 53.625 
Q 42.578125 51.265625 45.40625 46.390625 
M 14.796875 27.296875 
Q 14.796875 17.390625 18.875 11.75 
Q 22.953125 6.109375 30.078125 6.109375 
Q 37.203125 6.109375 41.296875 11.75 
Q 45.40625 17.390625 45.40625 27.296875 
Q 45.40625 37.203125 41.296875 42.84375 
Q 37.203125 48.484375 30.078125 48.484375 
Q 22.953125 48.484375 18.875 42.84375 
Q 14.796875 37.203125 14.796875 27.296875 
" id="BitstreamVeraSans-Roman-64"/>
       <path d="M 12.40625 8.296875 
L 28.515625 8.296875 
L 28.515625 63.921875 
L 10.984375 60.40625 
L 10.984375 69.390625 
L 28.421875 72.90625 
L 38.28125 72.90625 
L 38.28125 8.296875 
L 54.390625 8.296875 
L 54.390625 0 
L 12.40625 0 
z
" id="BitstreamVeraSans-Roman-31"/>
       <path d="M 45.40625 27.984375 
Q 45.40625 37.75 41.375 43.109375 
Q 37.359375 48.484375 30.078125 48.484375 
Q 22.859375 48.484375 18.828125 43.109375 
Q 14.796875 37.75 14.796875 27.984375 
Q 14.796875 18.265625 18.828125 12.890625 
Q 22.859375 7.515625 30.078125 7.515625 
Q 37.359375 7.515625 41.375 12.890625 
Q 45.40625 18.265625 45.40625 27.984375 
M 54.390625 6.78125 
Q 54.390625 -7.171875 48.1875 -13.984375 
Q 42 -20.796875 29.203125 -20.796875 
Q 24.46875 -20.796875 20.265625 -20.09375 
Q 16.0625 -19.390625 12.109375 -17.921875 
L 12.109375 -9.1875 
Q 16.0625 -11.328125 19.921875 -12.34375 
Q 23.78125 -13.375 27.78125 -13.375 
Q 36.625 -13.375 41.015625 -8.765625 
Q 45.40625 -4.15625 45.40625 5.171875 
L 45.40625 9.625 
Q 42.625 4.78125 38.28125 2.390625 
Q 33.9375 0 27.875 0 
Q 17.828125 0 11.671875 7.65625 
Q 5.515625 15.328125 5.515625 27.984375 
Q 5.515625 40.671875 11.671875 48.328125 
Q 17.828125 56 27.875 56 
Q 33.9375 56 38.28125 53.609375 
Q 42.625 51.21875 45.40625 46.390625 
L 45.40625 54.6875 
L 54.390625 54.6875 
z
" id="BitstreamVeraSans-Roman-67"/>
       <path d="M 31.78125 66.40625 
Q 24.171875 66.40625 20.328125 58.90625 
Q 16.5 51.421875 16.5 36.375 
Q 16.5 21.390625 20.328125 13.890625 
Q 24.171875 6.390625 31.78125 6.390625 
Q 39.453125 6.390625 43.28125 13.890625 
Q 47.125 21.390625 47.125 36.375 
Q 47.125 51.421875 43.28125 58.90625 
Q 39.453125 66.40625 31.78125 66.40625 
M 31.78125 74.21875 
Q 44.046875 74.21875 50.515625 64.515625 
Q 56.984375 54.828125 56.984375 36.375 
Q 56.984375 17.96875 50.515625 8.265625 
Q 44.046875 -1.421875 31.78125 -1.421875 
Q 19.53125 -1.421875 13.0625 8.265625 
Q 6.59375 17.96875 6.59375 36.375 
Q 6.59375 54.828125 13.0625 64.515625 
Q 19.53125 74.21875 31.78125 74.21875 
" id="BitstreamVeraSans-Roman-30"/>
      </defs>
      <g style="fill:#262626;" transform="translate(546.62109375 718.99609375)scale(0.25 -0.25)">
       <use xlink:href="#BitstreamVeraSans-Roman-57"/>
       <use x="98.783203125" xlink:href="#BitstreamVeraSans-Roman-61"/>
       <use x="160.0625" xlink:href="#BitstreamVeraSans-Roman-6c"/>
       <use x="187.845703125" xlink:href="#BitstreamVeraSans-Roman-6c"/>
       <use x="215.62890625" xlink:href="#BitstreamVeraSans-Roman-20"/>
       <use x="247.416015625" xlink:href="#BitstreamVeraSans-Roman-61"/>
       <use x="308.6953125" xlink:href="#BitstreamVeraSans-Roman-6e"/>
       <use x="372.07421875" xlink:href="#BitstreamVeraSans-Roman-64"/>
       <use x="435.55078125" xlink:href="#BitstreamVeraSans-Roman-20"/>
       <use x="467.337890625" xlink:href="#BitstreamVeraSans-Roman-43"/>
       <use x="537.162109375" xlink:href="#BitstreamVeraSans-Roman-65"/>
       <use x="598.685546875" xlink:href="#BitstreamVeraSans-Roman-69"/>
       <use x="626.46875" xlink:href="#BitstreamVeraSans-Roman-6c"/>
       <use x="654.251953125" xlink:href="#BitstreamVeraSans-Roman-69"/>
       <use x="682.03515625" xlink:href="#BitstreamVeraSans-Roman-6e"/>
       <use x="745.4140625" xlink:href="#BitstreamVeraSans-Roman-67"/>
       <use x="808.890625" xlink:href="#BitstreamVeraSans-Roman-20"/>
       <use x="840.677734375" xlink:href="#BitstreamVeraSans-Roman-50"/>
       <use x="900.91796875" xlink:href="#BitstreamVeraSans-Roman-61"/>
       <use x="962.197265625" xlink:href="#BitstreamVeraSans-Roman-69"/>
       <use x="989.98046875" xlink:href="#BitstreamVeraSans-Roman-72"/>
       <use x="1031.09375" xlink:href="#BitstreamVeraSans-Roman-73"/>
       <use x="1083.193359375" xlink:href="#BitstreamVeraSans-Roman-20"/>
       <use x="1114.98046875" xlink:href="#BitstreamVeraSans-Roman-28"/>
       <use x="1153.994140625" xlink:href="#BitstreamVeraSans-Roman-6e"/>
       <use x="1217.373046875" xlink:href="#BitstreamVeraSans-Roman-3d"/>
       <use x="1301.162109375" xlink:href="#BitstreamVeraSans-Roman-31"/>
       <use x="1364.78515625" xlink:href="#BitstreamVeraSans-Roman-30"/>
       <use x="1428.408203125" xlink:href="#BitstreamVeraSans-Roman-39"/>
       <use x="1492.03125" xlink:href="#BitstreamVeraSans-Roman-29"/>
      </g>
     </g>
    </g>
    <g id="xtick_3">
     <g id="line2d_5">
      <g>
       <use style="fill:#262626;stroke:#262626;" x="1110.0" xlink:href="#mec60d53340" y="693.0"/>
      </g>
     </g>
     <g id="line2d_6">
      <g>
       <use style="fill:#262626;stroke:#262626;" x="1110.0" xlink:href="#mec60d53340" y="79.2"/>
      </g>
     </g>
     <g id="text_3">
      <!-- Floor Pairs (n=116) -->
      <defs>
       <path d="M 9.8125 72.90625 
L 51.703125 72.90625 
L 51.703125 64.59375 
L 19.671875 64.59375 
L 19.671875 43.109375 
L 48.578125 43.109375 
L 48.578125 34.8125 
L 19.671875 34.8125 
L 19.671875 0 
L 9.8125 0 
z
" id="BitstreamVeraSans-Roman-46"/>
       <path d="M 33.015625 40.375 
Q 26.375 40.375 22.484375 35.828125 
Q 18.609375 31.296875 18.609375 23.390625 
Q 18.609375 15.53125 22.484375 10.953125 
Q 26.375 6.390625 33.015625 6.390625 
Q 39.65625 6.390625 43.53125 10.953125 
Q 47.40625 15.53125 47.40625 23.390625 
Q 47.40625 31.296875 43.53125 35.828125 
Q 39.65625 40.375 33.015625 40.375 
M 52.59375 71.296875 
L 52.59375 62.3125 
Q 48.875 64.0625 45.09375 64.984375 
Q 41.3125 65.921875 37.59375 65.921875 
Q 27.828125 65.921875 22.671875 59.328125 
Q 17.53125 52.734375 16.796875 39.40625 
Q 19.671875 43.65625 24.015625 45.921875 
Q 28.375 48.1875 33.59375 48.1875 
Q 44.578125 48.1875 50.953125 41.515625 
Q 57.328125 34.859375 57.328125 23.390625 
Q 57.328125 12.15625 50.6875 5.359375 
Q 44.046875 -1.421875 33.015625 -1.421875 
Q 20.359375 -1.421875 13.671875 8.265625 
Q 6.984375 17.96875 6.984375 36.375 
Q 6.984375 53.65625 15.1875 63.9375 
Q 23.390625 74.21875 37.203125 74.21875 
Q 40.921875 74.21875 44.703125 73.484375 
Q 48.484375 72.75 52.59375 71.296875 
" id="BitstreamVeraSans-Roman-36"/>
      </defs>
      <g style="fill:#262626;" transform="translate(988.634765625 718.99609375)scale(0.25 -0.25)">
       <use xlink:href="#BitstreamVeraSans-Roman-46"/>
       <use x="57.51953125" xlink:href="#BitstreamVeraSans-Roman-6c"/>
       <use x="85.302734375" xlink:href="#BitstreamVeraSans-Roman-6f"/>
       <use x="146.484375" xlink:href="#BitstreamVeraSans-Roman-6f"/>
       <use x="207.666015625" xlink:href="#BitstreamVeraSans-Roman-72"/>
       <use x="248.779296875" xlink:href="#BitstreamVeraSans-Roman-20"/>
       <use x="280.56640625" xlink:href="#BitstreamVeraSans-Roman-50"/>
       <use x="340.806640625" xlink:href="#BitstreamVeraSans-Roman-61"/>
       <use x="402.0859375" xlink:href="#BitstreamVeraSans-Roman-69"/>
       <use x="429.869140625" xlink:href="#BitstreamVeraSans-Roman-72"/>
       <use x="470.982421875" xlink:href="#BitstreamVeraSans-Roman-73"/>
       <use x="523.08203125" xlink:href="#BitstreamVeraSans-Roman-20"/>
       <use x="554.869140625" xlink:href="#BitstreamVeraSans-Roman-28"/>
       <use x="593.8828125" xlink:href="#BitstreamVeraSans-Roman-6e"/>
       <use x="657.26171875" xlink:href="#BitstreamVeraSans-Roman-3d"/>
       <use x="741.05078125" xlink:href="#BitstreamVeraSans-Roman-31"/>
       <use x="804.673828125" xlink:href="#BitstreamVeraSans-Roman-31"/>
       <use x="868.296875" xlink:href="#BitstreamVeraSans-Roman-36"/>
       <use x="931.919921875" xlink:href="#BitstreamVeraSans-Roman-29"/>
      </g>
     </g>
    </g>
   </g>
   <g id="matplotlib.axis_2">
    <g id="ytick_1">
     <g id="line2d_7">
      <path clip-path="url(#p428788dc3a)" d="M 180 693 
L 1296 693 
" style="fill:none;stroke:#ffffff;stroke-linecap:round;"/>
     </g>
     <g id="line2d_8">
      <g>
       <use style="fill:#262626;stroke:#262626;" x="180.0" xlink:href="#mec60d53340" y="693.0"/>
      </g>
     </g>
     <g id="line2d_9">
      <g>
       <use style="fill:#262626;stroke:#262626;" x="1296.0" xlink:href="#mec60d53340" y="693.0"/>
      </g>
     </g>
     <g id="text_4">
      <!-- −100 -->
      <defs>
       <path d="M 10.59375 35.5 
L 73.1875 35.5 
L 73.1875 27.203125 
L 10.59375 27.203125 
z
" id="BitstreamVeraSans-Roman-2212"/>
      </defs>
      <g style="fill:#262626;" transform="translate(104.33203125 699.8984375)scale(0.25 -0.25)">
       <use xlink:href="#BitstreamVeraSans-Roman-2212"/>
       <use x="83.7890625" xlink:href="#BitstreamVeraSans-Roman-31"/>
       <use x="147.412109375" xlink:href="#BitstreamVeraSans-Roman-30"/>
       <use x="211.03515625" xlink:href="#BitstreamVeraSans-Roman-30"/>
      </g>
     </g>
    </g>
    <g id="ytick_2">
     <g id="line2d_10">
      <path clip-path="url(#p428788dc3a)" d="M 180 590.7 
L 1296 590.7 
" style="fill:none;stroke:#ffffff;stroke-linecap:round;"/>
     </g>
     <g id="line2d_11">
      <g>
       <use style="fill:#262626;stroke:#262626;" x="180.0" xlink:href="#mec60d53340" y="590.7"/>
      </g>
     </g>
     <g id="line2d_12">
      <g>
       <use style="fill:#262626;stroke:#262626;" x="1296.0" xlink:href="#mec60d53340" y="590.7"/>
      </g>
     </g>
     <g id="text_5">
      <!-- 0 -->
      <g style="fill:#262626;" transform="translate(157.09375 597.5984375)scale(0.25 -0.25)">
       <use xlink:href="#BitstreamVeraSans-Roman-30"/>
      </g>
     </g>
    </g>
    <g id="ytick_3">
     <g id="line2d_13">
      <path clip-path="url(#p428788dc3a)" d="M 180 488.4 
L 1296 488.4 
" style="fill:none;stroke:#ffffff;stroke-linecap:round;"/>
     </g>
     <g id="line2d_14">
      <g>
       <use style="fill:#262626;stroke:#262626;" x="180.0" xlink:href="#mec60d53340" y="488.4"/>
      </g>
     </g>
     <g id="line2d_15">
      <g>
       <use style="fill:#262626;stroke:#262626;" x="1296.0" xlink:href="#mec60d53340" y="488.4"/>
      </g>
     </g>
     <g id="text_6">
      <!-- 100 -->
      <g style="fill:#262626;" transform="translate(125.28125 495.2984375)scale(0.25 -0.25)">
       <use xlink:href="#BitstreamVeraSans-Roman-31"/>
       <use x="63.623046875" xlink:href="#BitstreamVeraSans-Roman-30"/>
       <use x="127.24609375" xlink:href="#BitstreamVeraSans-Roman-30"/>
      </g>
     </g>
    </g>
    <g id="ytick_4">
     <g id="line2d_16">
      <path clip-path="url(#p428788dc3a)" d="M 180 386.1 
L 1296 386.1 
" style="fill:none;stroke:#ffffff;stroke-linecap:round;"/>
     </g>
     <g id="line2d_17">
      <g>
       <use style="fill:#262626;stroke:#262626;" x="180.0" xlink:href="#mec60d53340" y="386.1"/>
      </g>
     </g>
     <g id="line2d_18">
      <g>
       <use style="fill:#262626;stroke:#262626;" x="1296.0" xlink:href="#mec60d53340" y="386.1"/>
      </g>
     </g>
     <g id="text_7">
      <!-- 200 -->
      <g style="fill:#262626;" transform="translate(125.28125 392.9984375)scale(0.25 -0.25)">
       <use xlink:href="#BitstreamVeraSans-Roman-32"/>
       <use x="63.623046875" xlink:href="#BitstreamVeraSans-Roman-30"/>
       <use x="127.24609375" xlink:href="#BitstreamVeraSans-Roman-30"/>
      </g>
     </g>
    </g>
    <g id="ytick_5">
     <g id="line2d_19">
      <path clip-path="url(#p428788dc3a)" d="M 180 283.8 
L 1296 283.8 
" style="fill:none;stroke:#ffffff;stroke-linecap:round;"/>
     </g>
     <g id="line2d_20">
      <g>
       <use style="fill:#262626;stroke:#262626;" x="180.0" xlink:href="#mec60d53340" y="283.8"/>
      </g>
     </g>
     <g id="line2d_21">
      <g>
       <use style="fill:#262626;stroke:#262626;" x="1296.0" xlink:href="#mec60d53340" y="283.8"/>
      </g>
     </g>
     <g id="text_8">
      <!-- 300 -->
      <g style="fill:#262626;" transform="translate(125.28125 290.6984375)scale(0.25 -0.25)">
       <use xlink:href="#BitstreamVeraSans-Roman-33"/>
       <use x="63.623046875" xlink:href="#BitstreamVeraSans-Roman-30"/>
       <use x="127.24609375" xlink:href="#BitstreamVeraSans-Roman-30"/>
      </g>
     </g>
    </g>
    <g id="ytick_6">
     <g id="line2d_22">
      <path clip-path="url(#p428788dc3a)" d="M 180 181.5 
L 1296 181.5 
" style="fill:none;stroke:#ffffff;stroke-linecap:round;"/>
     </g>
     <g id="line2d_23">
      <g>
       <use style="fill:#262626;stroke:#262626;" x="180.0" xlink:href="#mec60d53340" y="181.5"/>
      </g>
     </g>
     <g id="line2d_24">
      <g>
       <use style="fill:#262626;stroke:#262626;" x="1296.0" xlink:href="#mec60d53340" y="181.5"/>
      </g>
     </g>
     <g id="text_9">
      <!-- 400 -->
      <defs>
       <path d="M 37.796875 64.3125 
L 12.890625 25.390625 
L 37.796875 25.390625 
z
M 35.203125 72.90625 
L 47.609375 72.90625 
L 47.609375 25.390625 
L 58.015625 25.390625 
L 58.015625 17.1875 
L 47.609375 17.1875 
L 47.609375 0 
L 37.796875 0 
L 37.796875 17.1875 
L 4.890625 17.1875 
L 4.890625 26.703125 
z
" id="BitstreamVeraSans-Roman-34"/>
      </defs>
      <g style="fill:#262626;" transform="translate(125.28125 188.3984375)scale(0.25 -0.25)">
       <use xlink:href="#BitstreamVeraSans-Roman-34"/>
       <use x="63.623046875" xlink:href="#BitstreamVeraSans-Roman-30"/>
       <use x="127.24609375" xlink:href="#BitstreamVeraSans-Roman-30"/>
      </g>
     </g>
    </g>
    <g id="ytick_7">
     <g id="line2d_25">
      <path clip-path="url(#p428788dc3a)" d="M 180 79.2 
L 1296 79.2 
" style="fill:none;stroke:#ffffff;stroke-linecap:round;"/>
     </g>
     <g id="line2d_26">
      <g>
       <use style="fill:#262626;stroke:#262626;" x="180.0" xlink:href="#mec60d53340" y="79.2"/>
      </g>
     </g>
     <g id="line2d_27">
      <g>
       <use style="fill:#262626;stroke:#262626;" x="1296.0" xlink:href="#mec60d53340" y="79.2"/>
      </g>
     </g>
     <g id="text_10">
      <!-- 500 -->
      <g style="fill:#262626;" transform="translate(125.28125 86.0984375)scale(0.25 -0.25)">
       <use xlink:href="#BitstreamVeraSans-Roman-35"/>
       <use x="63.623046875" xlink:href="#BitstreamVeraSans-Roman-30"/>
       <use x="127.24609375" xlink:href="#BitstreamVeraSans-Roman-30"/>
      </g>
     </g>
    </g>
    <g id="text_11">
     <!-- OTU Counts -->
     <defs>
      <path d="M 18.3125 70.21875 
L 18.3125 54.6875 
L 36.8125 54.6875 
L 36.8125 47.703125 
L 18.3125 47.703125 
L 18.3125 18.015625 
Q 18.3125 11.328125 20.140625 9.421875 
Q 21.96875 7.515625 27.59375 7.515625 
L 36.8125 7.515625 
L 36.8125 0 
L 27.59375 0 
Q 17.1875 0 13.234375 3.875 
Q 9.28125 7.765625 9.28125 18.015625 
L 9.28125 47.703125 
L 2.6875 47.703125 
L 2.6875 54.6875 
L 9.28125 54.6875 
L 9.28125 70.21875 
z
" id="BitstreamVeraSans-Roman-74"/>
      <path d="M 39.40625 66.21875 
Q 28.65625 66.21875 22.328125 58.203125 
Q 16.015625 50.203125 16.015625 36.375 
Q 16.015625 22.609375 22.328125 14.59375 
Q 28.65625 6.59375 39.40625 6.59375 
Q 50.140625 6.59375 56.421875 14.59375 
Q 62.703125 22.609375 62.703125 36.375 
Q 62.703125 50.203125 56.421875 58.203125 
Q 50.140625 66.21875 39.40625 66.21875 
M 39.40625 74.21875 
Q 54.734375 74.21875 63.90625 63.9375 
Q 73.09375 53.65625 73.09375 36.375 
Q 73.09375 19.140625 63.90625 8.859375 
Q 54.734375 -1.421875 39.40625 -1.421875 
Q 24.03125 -1.421875 14.8125 8.828125 
Q 5.609375 19.09375 5.609375 36.375 
Q 5.609375 53.65625 14.8125 63.9375 
Q 24.03125 74.21875 39.40625 74.21875 
" id="BitstreamVeraSans-Roman-4f"/>
      <path d="M 8.5 21.578125 
L 8.5 54.6875 
L 17.484375 54.6875 
L 17.484375 21.921875 
Q 17.484375 14.15625 20.5 10.265625 
Q 23.53125 6.390625 29.59375 6.390625 
Q 36.859375 6.390625 41.078125 11.03125 
Q 45.3125 15.671875 45.3125 23.6875 
L 45.3125 54.6875 
L 54.296875 54.6875 
L 54.296875 0 
L 45.3125 0 
L 45.3125 8.40625 
Q 42.046875 3.421875 37.71875 1 
Q 33.40625 -1.421875 27.6875 -1.421875 
Q 18.265625 -1.421875 13.375 4.4375 
Q 8.5 10.296875 8.5 21.578125 
" id="BitstreamVeraSans-Roman-75"/>
      <path d="M 8.6875 72.90625 
L 18.609375 72.90625 
L 18.609375 28.609375 
Q 18.609375 16.890625 22.84375 11.734375 
Q 27.09375 6.59375 36.625 6.59375 
Q 46.09375 6.59375 50.34375 11.734375 
Q 54.59375 16.890625 54.59375 28.609375 
L 54.59375 72.90625 
L 64.5 72.90625 
L 64.5 27.390625 
Q 64.5 13.140625 57.4375 5.859375 
Q 50.390625 -1.421875 36.625 -1.421875 
Q 22.796875 -1.421875 15.734375 5.859375 
Q 8.6875 13.140625 8.6875 27.390625 
z
" id="BitstreamVeraSans-Roman-55"/>
      <path d="M -0.296875 72.90625 
L 61.375 72.90625 
L 61.375 64.59375 
L 35.5 64.59375 
L 35.5 0 
L 25.59375 0 
L 25.59375 64.59375 
L -0.296875 64.59375 
z
" id="BitstreamVeraSans-Roman-54"/>
     </defs>
     <g style="fill:#262626;" transform="translate(93.612890625 467.751367187)rotate(-90.0)scale(0.275 -0.275)">
      <use xlink:href="#BitstreamVeraSans-Roman-4f"/>
      <use x="78.7109375" xlink:href="#BitstreamVeraSans-Roman-54"/>
      <use x="139.794921875" xlink:href="#BitstreamVeraSans-Roman-55"/>
      <use x="212.98828125" xlink:href="#BitstreamVeraSans-Roman-20"/>
      <use x="244.775390625" xlink:href="#BitstreamVeraSans-Roman-43"/>
      <use x="314.599609375" xlink:href="#BitstreamVeraSans-Roman-6f"/>
      <use x="375.78125" xlink:href="#BitstreamVeraSans-Roman-75"/>
      <use x="439.16015625" xlink:href="#BitstreamVeraSans-Roman-6e"/>
      <use x="502.5390625" xlink:href="#BitstreamVeraSans-Roman-74"/>
      <use x="541.748046875" xlink:href="#BitstreamVeraSans-Roman-73"/>
     </g>
    </g>
   </g>
   <g id="PolyCollection_1">
    <defs>
     <path d="M 292.642494 -177.404597 
L 290.557506 -177.404597 
L 290.035875 -181.005933 
L 289.308881 -184.607268 
L 288.321979 -188.208604 
L 287.016622 -191.809939 
L 285.33383 -195.411274 
L 283.218839 -199.01261 
L 280.626561 -202.613945 
L 277.527358 -206.215281 
L 273.912549 -209.816616 
L 269.798971 -213.417951 
L 265.231976 -217.019287 
L 260.286336 -220.620622 
L 255.064741 -224.221958 
L 249.693804 -227.823293 
L 244.317774 -231.424628 
L 239.090407 -235.025964 
L 234.165652 -238.627299 
L 229.688017 -242.228635 
L 225.783483 -245.82997 
L 222.55185 -249.431306 
L 220.061223 -253.032641 
L 218.345135 -256.633976 
L 217.402462 -260.235312 
L 217.2 -263.836647 
L 217.677222 -267.437983 
L 218.752554 -271.039318 
L 220.330369 -274.640653 
L 222.307945 -278.241989 
L 224.581777 -281.843324 
L 227.052857 -285.44466 
L 229.630799 -289.045995 
L 232.236864 -292.64733 
L 234.806062 -296.248666 
L 237.288484 -299.850001 
L 239.649937 -303.451337 
L 241.871835 -307.052672 
L 243.950212 -310.654007 
L 245.893726 -314.255343 
L 247.720662 -317.856678 
L 249.45509 -321.458014 
L 251.122559 -325.059349 
L 252.745845 -328.660684 
L 254.3413 -332.26202 
L 255.916294 -335.863355 
L 257.468041 -339.464691 
L 258.983902 -343.066026 
L 260.44306 -346.667361 
L 261.819292 -350.268697 
L 263.084518 -353.870032 
L 264.212734 -357.471368 
L 265.183948 -361.072703 
L 265.987714 -364.674039 
L 266.625852 -368.275374 
L 267.113923 -371.876709 
L 267.481144 -375.478045 
L 267.76852 -379.07938 
L 268.025267 -382.680716 
L 268.303843 -386.282051 
L 268.654227 -389.883386 
L 269.118236 -393.484722 
L 269.724757 -397.086057 
L 270.486591 -400.687393 
L 271.399389 -404.288728 
L 272.442762 -407.890063 
L 273.583314 -411.491399 
L 274.779067 -415.092734 
L 275.98457 -418.69407 
L 277.155991 -422.295405 
L 278.25557 -425.89674 
L 279.254957 -429.498076 
L 280.13721 -433.099411 
L 280.897345 -436.700747 
L 281.541574 -440.302082 
L 282.085414 -443.903417 
L 282.551011 -447.504753 
L 282.964031 -451.106088 
L 283.350503 -454.707424 
L 283.733985 -458.308759 
L 284.133347 -461.910094 
L 284.561362 -465.51143 
L 285.024178 -469.112765 
L 285.521621 -472.714101 
L 286.048162 -476.315436 
L 286.59431 -479.916772 
L 287.14819 -483.518107 
L 287.697071 -487.119442 
L 288.228671 -490.720778 
L 288.73214 -494.322113 
L 289.198708 -497.923449 
L 289.62199 -501.524784 
L 289.998057 -505.126119 
L 290.325291 -508.727455 
L 290.604127 -512.32879 
L 290.836714 -515.930126 
L 291.026533 -519.531461 
L 291.178002 -523.132796 
L 291.296096 -526.734132 
L 291.385985 -530.335467 
L 291.452735 -533.936803 
L 291.747265 -533.936803 
L 291.747265 -533.936803 
L 291.814015 -530.335467 
L 291.903904 -526.734132 
L 292.021998 -523.132796 
L 292.173467 -519.531461 
L 292.363286 -515.930126 
L 292.595873 -512.32879 
L 292.874709 -508.727455 
L 293.201943 -505.126119 
L 293.57801 -501.524784 
L 294.001292 -497.923449 
L 294.46786 -494.322113 
L 294.971329 -490.720778 
L 295.502929 -487.119442 
L 296.05181 -483.518107 
L 296.60569 -479.916772 
L 297.151838 -476.315436 
L 297.678379 -472.714101 
L 298.175822 -469.112765 
L 298.638638 -465.51143 
L 299.066653 -461.910094 
L 299.466015 -458.308759 
L 299.849497 -454.707424 
L 300.235969 -451.106088 
L 300.648989 -447.504753 
L 301.114586 -443.903417 
L 301.658426 -440.302082 
L 302.302655 -436.700747 
L 303.06279 -433.099411 
L 303.945043 -429.498076 
L 304.94443 -425.89674 
L 306.044009 -422.295405 
L 307.21543 -418.69407 
L 308.420933 -415.092734 
L 309.616686 -411.491399 
L 310.757238 -407.890063 
L 311.800611 -404.288728 
L 312.713409 -400.687393 
L 313.475243 -397.086057 
L 314.081764 -393.484722 
L 314.545773 -389.883386 
L 314.896157 -386.282051 
L 315.174733 -382.680716 
L 315.43148 -379.07938 
L 315.718856 -375.478045 
L 316.086077 -371.876709 
L 316.574148 -368.275374 
L 317.212286 -364.674039 
L 318.016052 -361.072703 
L 318.987266 -357.471368 
L 320.115482 -353.870032 
L 321.380708 -350.268697 
L 322.75694 -346.667361 
L 324.216098 -343.066026 
L 325.731959 -339.464691 
L 327.283706 -335.863355 
L 328.8587 -332.26202 
L 330.454155 -328.660684 
L 332.077441 -325.059349 
L 333.74491 -321.458014 
L 335.479338 -317.856678 
L 337.306274 -314.255343 
L 339.249788 -310.654007 
L 341.328165 -307.052672 
L 343.550063 -303.451337 
L 345.911516 -299.850001 
L 348.393938 -296.248666 
L 350.963136 -292.64733 
L 353.569201 -289.045995 
L 356.147143 -285.44466 
L 358.618223 -281.843324 
L 360.892055 -278.241989 
L 362.869631 -274.640653 
L 364.447446 -271.039318 
L 365.522778 -267.437983 
L 366 -263.836647 
L 365.797538 -260.235312 
L 364.854865 -256.633976 
L 363.138777 -253.032641 
L 360.64815 -249.431306 
L 357.416517 -245.82997 
L 353.511983 -242.228635 
L 349.034348 -238.627299 
L 344.109593 -235.025964 
L 338.882226 -231.424628 
L 333.506196 -227.823293 
L 328.135259 -224.221958 
L 322.913664 -220.620622 
L 317.968024 -217.019287 
L 313.401029 -213.417951 
L 309.287451 -209.816616 
L 305.672642 -206.215281 
L 302.573439 -202.613945 
L 299.981161 -199.01261 
L 297.86617 -195.411274 
L 296.183378 -191.809939 
L 294.878021 -188.208604 
L 293.891119 -184.607268 
L 293.164125 -181.005933 
L 292.642494 -177.404597 
z
" id="mf310202901" style="stroke:#404040;stroke-width:1.75;"/>
    </defs>
    <g clip-path="url(#p428788dc3a)">
     <use style="fill:#9fceb8;stroke:#404040;stroke-width:1.75;" x="0.0" xlink:href="#mf310202901" y="792.0"/>
    </g>
   </g>
   <g id="PolyCollection_2">
    <defs>
     <path d="M 441.069724 -161.630608 
L 439.730276 -161.630608 
L 439.3766 -166.373143 
L 438.873313 -171.115678 
L 438.176067 -175.858214 
L 437.235725 -180.600749 
L 436.001317 -185.343284 
L 434.42434 -190.085819 
L 432.464238 -194.828354 
L 430.094604 -199.57089 
L 427.309353 -204.313425 
L 424.127911 -209.05596 
L 420.598378 -213.798495 
L 416.79774 -218.54103 
L 412.828559 -223.283566 
L 408.812123 -228.026101 
L 404.878692 -232.768636 
L 401.156097 -237.511171 
L 397.758403 -242.253706 
L 394.776446 -246.996241 
L 392.271779 -251.738777 
L 390.274934 -256.481312 
L 388.788049 -261.223847 
L 387.791026 -265.966382 
L 387.249704 -270.708917 
L 387.124222 -275.451453 
L 387.37583 -280.193988 
L 387.970941 -284.936523 
L 388.881941 -289.679058 
L 390.085086 -294.421593 
L 391.556474 -299.164129 
L 393.267434 -303.906664 
L 395.180695 -308.649199 
L 397.2484 -313.391734 
L 399.412507 -318.134269 
L 401.607538 -322.876805 
L 403.765107 -327.61934 
L 405.819346 -332.361875 
L 407.712222 -337.10441 
L 409.397893 -341.846945 
L 410.845527 -346.58948 
L 412.040395 -351.332016 
L 412.983366 -356.074551 
L 413.689172 -360.817086 
L 414.183906 -365.559621 
L 414.502155 -370.302156 
L 414.684091 -375.044692 
L 414.772652 -379.787227 
L 414.810911 -384.529762 
L 414.83965 -389.272297 
L 414.895185 -394.014832 
L 415.007542 -398.757368 
L 415.199075 -403.499903 
L 415.483648 -408.242438 
L 415.866422 -412.984973 
L 416.344266 -417.727508 
L 416.906728 -422.470044 
L 417.537525 -427.212579 
L 418.216459 -431.955114 
L 418.921682 -436.697649 
L 419.63221 -441.440184 
L 420.330466 -446.18272 
L 421.00462 -450.925255 
L 421.65035 -455.66779 
L 422.271691 -460.410325 
L 422.880707 -465.15286 
L 423.495891 -469.895395 
L 424.139447 -474.637931 
L 424.833826 -479.380466 
L 425.598077 -484.123001 
L 426.444614 -488.865536 
L 427.37695 -493.608071 
L 428.388723 -498.350607 
L 429.46416 -503.093142 
L 430.579787 -507.835677 
L 431.707067 -512.578212 
L 432.815489 -517.320747 
L 433.875646 -522.063283 
L 434.861893 -526.805818 
L 435.754315 -531.548353 
L 436.539881 -536.290888 
L 437.212769 -541.033423 
L 437.773977 -545.775959 
L 438.230356 -550.518494 
L 438.593257 -555.261029 
L 438.876961 -560.003564 
L 439.097075 -564.746099 
L 439.269039 -569.488634 
L 439.406872 -574.23117 
L 439.522267 -578.973705 
L 439.624071 -583.71624 
L 439.718178 -588.458775 
L 439.807776 -593.20131 
L 439.89386 -597.943846 
L 439.975899 -602.686381 
L 440.052536 -607.428916 
L 440.1222 -612.171451 
L 440.183571 -616.913986 
L 440.235861 -621.656522 
L 440.278911 -626.399057 
L 440.31315 -631.141592 
L 440.48685 -631.141592 
L 440.48685 -631.141592 
L 440.521089 -626.399057 
L 440.564139 -621.656522 
L 440.616429 -616.913986 
L 440.6778 -612.171451 
L 440.747464 -607.428916 
L 440.824101 -602.686381 
L 440.90614 -597.943846 
L 440.992224 -593.20131 
L 441.081822 -588.458775 
L 441.175929 -583.71624 
L 441.277733 -578.973705 
L 441.393128 -574.23117 
L 441.530961 -569.488634 
L 441.702925 -564.746099 
L 441.923039 -560.003564 
L 442.206743 -555.261029 
L 442.569644 -550.518494 
L 443.026023 -545.775959 
L 443.587231 -541.033423 
L 444.260119 -536.290888 
L 445.045685 -531.548353 
L 445.938107 -526.805818 
L 446.924354 -522.063283 
L 447.984511 -517.320747 
L 449.092933 -512.578212 
L 450.220213 -507.835677 
L 451.33584 -503.093142 
L 452.411277 -498.350607 
L 453.42305 -493.608071 
L 454.355386 -488.865536 
L 455.201923 -484.123001 
L 455.966174 -479.380466 
L 456.660553 -474.637931 
L 457.304109 -469.895395 
L 457.919293 -465.15286 
L 458.528309 -460.410325 
L 459.14965 -455.66779 
L 459.79538 -450.925255 
L 460.469534 -446.18272 
L 461.16779 -441.440184 
L 461.878318 -436.697649 
L 462.583541 -431.955114 
L 463.262475 -427.212579 
L 463.893272 -422.470044 
L 464.455734 -417.727508 
L 464.933578 -412.984973 
L 465.316352 -408.242438 
L 465.600925 -403.499903 
L 465.792458 -398.757368 
L 465.904815 -394.014832 
L 465.96035 -389.272297 
L 465.989089 -384.529762 
L 466.027348 -379.787227 
L 466.115909 -375.044692 
L 466.297845 -370.302156 
L 466.616094 -365.559621 
L 467.110828 -360.817086 
L 467.816634 -356.074551 
L 468.759605 -351.332016 
L 469.954473 -346.58948 
L 471.402107 -341.846945 
L 473.087778 -337.10441 
L 474.980654 -332.361875 
L 477.034893 -327.61934 
L 479.192462 -322.876805 
L 481.387493 -318.134269 
L 483.5516 -313.391734 
L 485.619305 -308.649199 
L 487.532566 -303.906664 
L 489.243526 -299.164129 
L 490.714914 -294.421593 
L 491.918059 -289.679058 
L 492.829059 -284.936523 
L 493.42417 -280.193988 
L 493.675778 -275.451453 
L 493.550296 -270.708917 
L 493.008974 -265.966382 
L 492.011951 -261.223847 
L 490.525066 -256.481312 
L 488.528221 -251.738777 
L 486.023554 -246.996241 
L 483.041597 -242.253706 
L 479.643903 -237.511171 
L 475.921308 -232.768636 
L 471.987877 -228.026101 
L 467.971441 -223.283566 
L 464.00226 -218.54103 
L 460.201622 -213.798495 
L 456.672089 -209.05596 
L 453.490647 -204.313425 
L 450.705396 -199.57089 
L 448.335762 -194.828354 
L 446.37566 -190.085819 
L 444.798683 -185.343284 
L 443.564275 -180.600749 
L 442.623933 -175.858214 
L 441.926687 -171.115678 
L 441.4234 -166.373143 
L 441.069724 -161.630608 
z
" id="md5d9b58383" style="stroke:#404040;stroke-width:1.75;"/>
    </defs>
    <g clip-path="url(#p428788dc3a)">
     <use style="fill:#327ba5;stroke:#404040;stroke-width:1.75;" x="0.0" xlink:href="#md5d9b58383" y="792.0"/>
    </g>
   </g>
   <g id="PolyCollection_3">
    <defs>
     <path d="M 664.897544 -179.022976 
L 662.302456 -179.022976 
L 661.637998 -182.591617 
L 660.709266 -186.160258 
L 659.448033 -189.728898 
L 657.78359 -193.297539 
L 655.648618 -196.86618 
L 652.986475 -200.434821 
L 649.759216 -204.003462 
L 645.955433 -207.572103 
L 641.596799 -211.140744 
L 636.742232 -214.709385 
L 631.488808 -218.278026 
L 625.968923 -221.846666 
L 620.343733 -225.415307 
L 614.793427 -228.983948 
L 609.505372 -232.552589 
L 604.66147 -236.12123 
L 600.426154 -239.689871 
L 596.936294 -243.258512 
L 594.293898 -246.827153 
L 592.562021 -250.395794 
L 591.763789 -253.964435 
L 591.884049 -257.533075 
L 592.872947 -261.101716 
L 594.650742 -264.670357 
L 597.113316 -268.238998 
L 600.138089 -271.807639 
L 603.59023 -275.37628 
L 607.329183 -278.944921 
L 611.215459 -282.513562 
L 615.117482 -286.082203 
L 618.918106 -289.650843 
L 622.520247 -293.219484 
L 625.851035 -296.788125 
L 628.863998 -300.356766 
L 631.538979 -303.925407 
L 633.879809 -307.494048 
L 635.910029 -311.062689 
L 637.667259 -314.63133 
L 639.196951 -318.199971 
L 640.546369 -321.768612 
L 641.759546 -325.337252 
L 642.87378 -328.905893 
L 643.91793 -332.474534 
L 644.912428 -336.043175 
L 645.870601 -339.611816 
L 646.800685 -343.180457 
L 647.707854 -346.749098 
L 648.595725 -350.317739 
L 649.467042 -353.88638 
L 650.323579 -357.45502 
L 651.165538 -361.023661 
L 651.990874 -364.592302 
L 652.794942 -368.160943 
L 653.570698 -371.729584 
L 654.309461 -375.298225 
L 655.002028 -378.866866 
L 655.639853 -382.435507 
L 656.216005 -386.004148 
L 656.725752 -389.572788 
L 657.166801 -393.141429 
L 657.539333 -396.71007 
L 657.846033 -400.278711 
L 658.092245 -403.847352 
L 658.286238 -407.415993 
L 658.439414 -410.984634 
L 658.566212 -414.553275 
L 658.683446 -418.121916 
L 658.808966 -421.690557 
L 658.959717 -425.259197 
L 659.149495 -428.827838 
L 659.386827 -432.396479 
L 659.673459 -435.96512 
L 660.003801 -439.533761 
L 660.365509 -443.102402 
L 660.741131 -446.671043 
L 661.110515 -450.239684 
L 661.453559 -453.808325 
L 661.752853 -457.376965 
L 661.995807 -460.945606 
L 662.176006 -464.514247 
L 662.293674 -468.082888 
L 662.355258 -471.651529 
L 662.372276 -475.22017 
L 662.359615 -478.788811 
L 662.333543 -482.357452 
L 662.309678 -485.926093 
L 662.301191 -489.494734 
L 662.317459 -493.063374 
L 662.363325 -496.632015 
L 662.439042 -500.200656 
L 662.540839 -503.769297 
L 662.661988 -507.337938 
L 662.794133 -510.906579 
L 662.928649 -514.47522 
L 663.057797 -518.043861 
L 663.175541 -521.612502 
L 663.277942 -525.181142 
L 663.363172 -528.749783 
L 663.431221 -532.318424 
L 663.768779 -532.318424 
L 663.768779 -532.318424 
L 663.836828 -528.749783 
L 663.922058 -525.181142 
L 664.024459 -521.612502 
L 664.142203 -518.043861 
L 664.271351 -514.47522 
L 664.405867 -510.906579 
L 664.538012 -507.337938 
L 664.659161 -503.769297 
L 664.760958 -500.200656 
L 664.836675 -496.632015 
L 664.882541 -493.063374 
L 664.898809 -489.494734 
L 664.890322 -485.926093 
L 664.866457 -482.357452 
L 664.840385 -478.788811 
L 664.827724 -475.22017 
L 664.844742 -471.651529 
L 664.906326 -468.082888 
L 665.023994 -464.514247 
L 665.204193 -460.945606 
L 665.447147 -457.376965 
L 665.746441 -453.808325 
L 666.089485 -450.239684 
L 666.458869 -446.671043 
L 666.834491 -443.102402 
L 667.196199 -439.533761 
L 667.526541 -435.96512 
L 667.813173 -432.396479 
L 668.050505 -428.827838 
L 668.240283 -425.259197 
L 668.391034 -421.690557 
L 668.516554 -418.121916 
L 668.633788 -414.553275 
L 668.760586 -410.984634 
L 668.913762 -407.415993 
L 669.107755 -403.847352 
L 669.353967 -400.278711 
L 669.660667 -396.71007 
L 670.033199 -393.141429 
L 670.474248 -389.572788 
L 670.983995 -386.004148 
L 671.560147 -382.435507 
L 672.197972 -378.866866 
L 672.890539 -375.298225 
L 673.629302 -371.729584 
L 674.405058 -368.160943 
L 675.209126 -364.592302 
L 676.034462 -361.023661 
L 676.876421 -357.45502 
L 677.732958 -353.88638 
L 678.604275 -350.317739 
L 679.492146 -346.749098 
L 680.399315 -343.180457 
L 681.329399 -339.611816 
L 682.287572 -336.043175 
L 683.28207 -332.474534 
L 684.32622 -328.905893 
L 685.440454 -325.337252 
L 686.653631 -321.768612 
L 688.003049 -318.199971 
L 689.532741 -314.63133 
L 691.289971 -311.062689 
L 693.320191 -307.494048 
L 695.661021 -303.925407 
L 698.336002 -300.356766 
L 701.348965 -296.788125 
L 704.679753 -293.219484 
L 708.281894 -289.650843 
L 712.082518 -286.082203 
L 715.984541 -282.513562 
L 719.870817 -278.944921 
L 723.60977 -275.37628 
L 727.061911 -271.807639 
L 730.086684 -268.238998 
L 732.549258 -264.670357 
L 734.327053 -261.101716 
L 735.315951 -257.533075 
L 735.436211 -253.964435 
L 734.637979 -250.395794 
L 732.906102 -246.827153 
L 730.263706 -243.258512 
L 726.773846 -239.689871 
L 722.53853 -236.12123 
L 717.694628 -232.552589 
L 712.406573 -228.983948 
L 706.856267 -225.415307 
L 701.231077 -221.846666 
L 695.711192 -218.278026 
L 690.457768 -214.709385 
L 685.603201 -211.140744 
L 681.244567 -207.572103 
L 677.440784 -204.003462 
L 674.213525 -200.434821 
L 671.551382 -196.86618 
L 669.41641 -193.297539 
L 667.751967 -189.728898 
L 666.490734 -186.160258 
L 665.562002 -182.591617 
L 664.897544 -179.022976 
z
" id="m6792ed4728" style="stroke:#404040;stroke-width:1.75;"/>
    </defs>
    <g clip-path="url(#p428788dc3a)">
     <use style="fill:#9fceb8;stroke:#404040;stroke-width:1.75;" x="0.0" xlink:href="#m6792ed4728" y="792.0"/>
    </g>
   </g>
   <g id="PolyCollection_4">
    <defs>
     <path d="M 813.002805 -182.6749 
L 811.797195 -182.6749 
L 811.471394 -185.788465 
L 811.003808 -188.90203 
L 810.349151 -192.015594 
L 809.454118 -195.129159 
L 808.258122 -198.242724 
L 806.694979 -201.356288 
L 804.695828 -204.469853 
L 802.193628 -207.583417 
L 799.129514 -210.696982 
L 795.461075 -213.810547 
L 791.172199 -216.924111 
L 786.283525 -220.037676 
L 780.861848 -223.151241 
L 775.026297 -226.264805 
L 768.948883 -229.37837 
L 762.847529 -232.491935 
L 756.97074 -235.605499 
L 751.574823 -238.719064 
L 746.896373 -241.832629 
L 743.124343 -244.946193 
L 740.376732 -248.059758 
L 738.686533 -251.173322 
L 738 -254.286887 
L 738.187904 -257.400452 
L 739.067779 -260.514016 
L 740.432947 -263.627581 
L 742.082882 -266.741146 
L 743.849528 -269.85471 
L 745.615398 -272.968275 
L 747.321351 -276.08184 
L 748.964142 -279.195404 
L 750.585766 -282.308969 
L 752.257726 -285.422533 
L 754.06362 -288.536098 
L 756.082913 -291.649663 
L 758.37779 -294.763227 
L 760.98398 -297.876792 
L 763.905594 -300.990357 
L 767.113625 -304.103921 
L 770.547652 -307.217486 
L 774.120403 -310.331051 
L 777.724933 -313.444615 
L 781.244081 -316.55818 
L 784.561626 -319.671744 
L 787.57413 -322.785309 
L 790.20206 -325.898874 
L 792.39861 -329.012438 
L 794.154744 -332.126003 
L 795.499477 -335.239568 
L 796.495153 -338.353132 
L 797.228349 -341.466697 
L 797.797787 -344.580262 
L 798.301164 -347.693826 
L 798.822933 -350.807391 
L 799.424813 -353.920956 
L 800.140227 -357.03452 
L 800.973167 -360.148085 
L 801.901201 -363.261649 
L 802.881792 -366.375214 
L 803.860703 -369.488779 
L 804.781153 -372.602343 
L 805.592455 -375.715908 
L 806.257116 -378.829473 
L 806.755629 -381.943037 
L 807.088535 -385.056602 
L 807.275626 -388.170167 
L 807.352514 -391.283731 
L 807.365083 -394.397296 
L 807.362668 -397.51086 
L 807.390975 -400.624425 
L 807.485845 -403.73799 
L 807.668809 -406.851554 
L 807.945079 -409.965119 
L 808.304172 -413.078684 
L 808.722863 -416.192248 
L 809.169804 -419.305813 
L 809.610866 -422.419378 
L 810.014293 -425.532942 
L 810.354894 -428.646507 
L 810.616792 -431.760071 
L 810.794566 -434.873636 
L 810.892873 -437.987201 
L 810.924839 -441.100765 
L 810.909574 -444.21433 
L 810.869219 -447.327895 
L 810.825914 -450.441459 
L 810.799043 -453.555024 
L 810.803101 -456.668589 
L 810.846397 -459.782153 
L 810.930732 -462.895718 
L 811.052026 -466.009283 
L 811.201705 -469.122847 
L 811.368558 -472.236412 
L 811.540692 -475.349976 
L 811.707254 -478.463541 
L 811.859668 -481.577106 
L 811.992268 -484.69067 
L 812.102356 -487.804235 
L 812.189808 -490.9178 
L 812.610192 -490.9178 
L 812.610192 -490.9178 
L 812.697644 -487.804235 
L 812.807732 -484.69067 
L 812.940332 -481.577106 
L 813.092746 -478.463541 
L 813.259308 -475.349976 
L 813.431442 -472.236412 
L 813.598295 -469.122847 
L 813.747974 -466.009283 
L 813.869268 -462.895718 
L 813.953603 -459.782153 
L 813.996899 -456.668589 
L 814.000957 -453.555024 
L 813.974086 -450.441459 
L 813.930781 -447.327895 
L 813.890426 -444.21433 
L 813.875161 -441.100765 
L 813.907127 -437.987201 
L 814.005434 -434.873636 
L 814.183208 -431.760071 
L 814.445106 -428.646507 
L 814.785707 -425.532942 
L 815.189134 -422.419378 
L 815.630196 -419.305813 
L 816.077137 -416.192248 
L 816.495828 -413.078684 
L 816.854921 -409.965119 
L 817.131191 -406.851554 
L 817.314155 -403.73799 
L 817.409025 -400.624425 
L 817.437332 -397.51086 
L 817.434917 -394.397296 
L 817.447486 -391.283731 
L 817.524374 -388.170167 
L 817.711465 -385.056602 
L 818.044371 -381.943037 
L 818.542884 -378.829473 
L 819.207545 -375.715908 
L 820.018847 -372.602343 
L 820.939297 -369.488779 
L 821.918208 -366.375214 
L 822.898799 -363.261649 
L 823.826833 -360.148085 
L 824.659773 -357.03452 
L 825.375187 -353.920956 
L 825.977067 -350.807391 
L 826.498836 -347.693826 
L 827.002213 -344.580262 
L 827.571651 -341.466697 
L 828.304847 -338.353132 
L 829.300523 -335.239568 
L 830.645256 -332.126003 
L 832.40139 -329.012438 
L 834.59794 -325.898874 
L 837.22587 -322.785309 
L 840.238374 -319.671744 
L 843.555919 -316.55818 
L 847.075067 -313.444615 
L 850.679597 -310.331051 
L 854.252348 -307.217486 
L 857.686375 -304.103921 
L 860.894406 -300.990357 
L 863.81602 -297.876792 
L 866.42221 -294.763227 
L 868.717087 -291.649663 
L 870.73638 -288.536098 
L 872.542274 -285.422533 
L 874.214234 -282.308969 
L 875.835858 -279.195404 
L 877.478649 -276.08184 
L 879.184602 -272.968275 
L 880.950472 -269.85471 
L 882.717118 -266.741146 
L 884.367053 -263.627581 
L 885.732221 -260.514016 
L 886.612096 -257.400452 
L 886.8 -254.286887 
L 886.113467 -251.173322 
L 884.423268 -248.059758 
L 881.675657 -244.946193 
L 877.903627 -241.832629 
L 873.225177 -238.719064 
L 867.82926 -235.605499 
L 861.952471 -232.491935 
L 855.851117 -229.37837 
L 849.773703 -226.264805 
L 843.938152 -223.151241 
L 838.516475 -220.037676 
L 833.627801 -216.924111 
L 829.338925 -213.810547 
L 825.670486 -210.696982 
L 822.606372 -207.583417 
L 820.104172 -204.469853 
L 818.105021 -201.356288 
L 816.541878 -198.242724 
L 815.345882 -195.129159 
L 814.450849 -192.015594 
L 813.796192 -188.90203 
L 813.328606 -185.788465 
L 813.002805 -182.6749 
z
" id="mb4f5e26f74" style="stroke:#404040;stroke-width:1.75;"/>
    </defs>
    <g clip-path="url(#p428788dc3a)">
     <use style="fill:#327ba5;stroke:#404040;stroke-width:1.75;" x="0.0" xlink:href="#mb4f5e26f74" y="792.0"/>
    </g>
   </g>
   <g id="PolyCollection_5">
    <defs>
     <path d="M 1036.18832 -173.632253 
L 1035.01168 -173.632253 
L 1034.760303 -177.18373 
L 1034.42033 -180.735208 
L 1033.968254 -184.286686 
L 1033.377111 -187.838163 
L 1032.616884 -191.389641 
L 1031.655283 -194.941119 
L 1030.458923 -198.492597 
L 1028.994941 -202.044074 
L 1027.233013 -205.595552 
L 1025.147707 -209.14703 
L 1022.721018 -212.698508 
L 1019.944903 -216.249985 
L 1016.823544 -219.801463 
L 1013.375076 -223.352941 
L 1009.632492 -226.904418 
L 1005.643521 -230.455896 
L 1001.46933 -234.007374 
L 997.182071 -237.558852 
L 992.861406 -241.110329 
L 988.590332 -244.661807 
L 984.450694 -248.213285 
L 980.51886 -251.764763 
L 976.862009 -255.31624 
L 973.535382 -258.867718 
L 970.5807 -262.419196 
L 968.025797 -265.970673 
L 965.885303 -269.522151 
L 964.162122 -273.073629 
L 962.849363 -276.625107 
L 961.932399 -280.176584 
L 961.390802 -283.728062 
L 961.2 -287.27954 
L 961.332637 -290.831018 
L 961.759682 -294.382495 
L 962.451377 -297.933973 
L 963.378094 -301.485451 
L 964.511133 -305.036928 
L 965.823381 -308.588406 
L 967.289746 -312.139884 
L 968.887217 -315.691362 
L 970.594461 -319.242839 
L 972.390934 -322.794317 
L 974.255609 -326.345795 
L 976.16552 -329.897273 
L 978.094424 -333.44875 
L 980.011933 -337.000228 
L 981.883411 -340.551706 
L 983.670882 -344.103183 
L 985.335024 -347.654661 
L 986.838142 -351.206139 
L 988.147875 -354.757617 
L 989.241168 -358.309094 
L 990.108003 -361.860572 
L 990.754301 -365.41205 
L 991.203492 -368.963527 
L 991.496356 -372.515005 
L 991.688961 -376.066483 
L 991.84876 -379.617961 
L 992.049135 -383.169438 
L 992.362957 -386.720916 
L 992.855818 -390.272394 
L 993.579735 -393.823872 
L 994.568043 -397.375349 
L 995.832093 -400.926827 
L 997.360165 -404.478305 
L 999.118714 -408.029782 
L 1001.055833 -411.58126 
L 1003.106512 -415.132738 
L 1005.199101 -418.684216 
L 1007.262244 -422.235693 
L 1009.231517 -425.787171 
L 1011.055062 -429.338649 
L 1012.697648 -432.890127 
L 1014.142795 -436.441604 
L 1015.392821 -439.993082 
L 1016.466943 -443.54456 
L 1017.397746 -447.096037 
L 1018.226535 -450.647515 
L 1018.998153 -454.198993 
L 1019.755895 -457.750471 
L 1020.537067 -461.301948 
L 1021.369622 -464.853426 
L 1022.270148 -468.404904 
L 1023.243289 -471.956382 
L 1024.282498 -475.507859 
L 1025.371883 -479.059337 
L 1026.48881 -482.610815 
L 1027.606866 -486.162292 
L 1028.698821 -489.71377 
L 1029.739251 -493.265248 
L 1030.706601 -496.816726 
L 1031.584554 -500.368203 
L 1032.362675 -503.919681 
L 1033.036394 -507.471159 
L 1033.606453 -511.022637 
L 1034.077979 -514.574114 
L 1034.459353 -518.125592 
L 1034.761038 -521.67707 
L 1034.994487 -525.228547 
L 1036.205513 -525.228547 
L 1036.205513 -525.228547 
L 1036.438962 -521.67707 
L 1036.740647 -518.125592 
L 1037.122021 -514.574114 
L 1037.593547 -511.022637 
L 1038.163606 -507.471159 
L 1038.837325 -503.919681 
L 1039.615446 -500.368203 
L 1040.493399 -496.816726 
L 1041.460749 -493.265248 
L 1042.501179 -489.71377 
L 1043.593134 -486.162292 
L 1044.71119 -482.610815 
L 1045.828117 -479.059337 
L 1046.917502 -475.507859 
L 1047.956711 -471.956382 
L 1048.929852 -468.404904 
L 1049.830378 -464.853426 
L 1050.662933 -461.301948 
L 1051.444105 -457.750471 
L 1052.201847 -454.198993 
L 1052.973465 -450.647515 
L 1053.802254 -447.096037 
L 1054.733057 -443.54456 
L 1055.807179 -439.993082 
L 1057.057205 -436.441604 
L 1058.502352 -432.890127 
L 1060.144938 -429.338649 
L 1061.968483 -425.787171 
L 1063.937756 -422.235693 
L 1066.000899 -418.684216 
L 1068.093488 -415.132738 
L 1070.144167 -411.58126 
L 1072.081286 -408.029782 
L 1073.839835 -404.478305 
L 1075.367907 -400.926827 
L 1076.631957 -397.375349 
L 1077.620265 -393.823872 
L 1078.344182 -390.272394 
L 1078.837043 -386.720916 
L 1079.150865 -383.169438 
L 1079.35124 -379.617961 
L 1079.511039 -376.066483 
L 1079.703644 -372.515005 
L 1079.996508 -368.963527 
L 1080.445699 -365.41205 
L 1081.091997 -361.860572 
L 1081.958832 -358.309094 
L 1083.052125 -354.757617 
L 1084.361858 -351.206139 
L 1085.864976 -347.654661 
L 1087.529118 -344.103183 
L 1089.316589 -340.551706 
L 1091.188067 -337.000228 
L 1093.105576 -333.44875 
L 1095.03448 -329.897273 
L 1096.944391 -326.345795 
L 1098.809066 -322.794317 
L 1100.605539 -319.242839 
L 1102.312783 -315.691362 
L 1103.910254 -312.139884 
L 1105.376619 -308.588406 
L 1106.688867 -305.036928 
L 1107.821906 -301.485451 
L 1108.748623 -297.933973 
L 1109.440318 -294.382495 
L 1109.867363 -290.831018 
L 1110 -287.27954 
L 1109.809198 -283.728062 
L 1109.267601 -280.176584 
L 1108.350637 -276.625107 
L 1107.037878 -273.073629 
L 1105.314697 -269.522151 
L 1103.174203 -265.970673 
L 1100.6193 -262.419196 
L 1097.664618 -258.867718 
L 1094.337991 -255.31624 
L 1090.68114 -251.764763 
L 1086.749306 -248.213285 
L 1082.609668 -244.661807 
L 1078.338594 -241.110329 
L 1074.017929 -237.558852 
L 1069.73067 -234.007374 
L 1065.556479 -230.455896 
L 1061.567508 -226.904418 
L 1057.824924 -223.352941 
L 1054.376456 -219.801463 
L 1051.255097 -216.249985 
L 1048.478982 -212.698508 
L 1046.052293 -209.14703 
L 1043.966987 -205.595552 
L 1042.205059 -202.044074 
L 1040.741077 -198.492597 
L 1039.544717 -194.941119 
L 1038.583116 -191.389641 
L 1037.822889 -187.838163 
L 1037.231746 -184.286686 
L 1036.77967 -180.735208 
L 1036.439697 -177.18373 
L 1036.18832 -173.632253 
z
" id="m1fa555876b" style="stroke:#404040;stroke-width:1.75;"/>
    </defs>
    <g clip-path="url(#p428788dc3a)">
     <use style="fill:#9fceb8;stroke:#404040;stroke-width:1.75;" x="0.0" xlink:href="#m1fa555876b" y="792.0"/>
    </g>
   </g>
   <g id="PolyCollection_6">
    <defs>
     <path d="M 1184.961309 -162.011397 
L 1183.838691 -162.011397 
L 1183.605194 -166.801006 
L 1183.299091 -171.590615 
L 1182.907695 -176.380224 
L 1182.419402 -181.169834 
L 1181.82475 -185.959443 
L 1181.117392 -190.749052 
L 1180.2948 -195.538661 
L 1179.358544 -200.32827 
L 1178.314018 -205.117879 
L 1177.169573 -209.907489 
L 1175.935133 -214.697098 
L 1174.620476 -219.486707 
L 1173.233448 -224.276316 
L 1171.778445 -229.065925 
L 1170.255459 -233.855534 
L 1168.659965 -238.645143 
L 1166.983754 -243.434753 
L 1165.216726 -248.224362 
L 1163.349462 -253.013971 
L 1161.376288 -257.80358 
L 1159.298427 -262.593189 
L 1157.126789 -267.382798 
L 1154.883946 -272.172407 
L 1152.604886 -276.962017 
L 1150.336269 -281.751626 
L 1148.13402 -286.541235 
L 1146.059339 -291.330844 
L 1144.173408 -296.120453 
L 1142.531288 -300.910062 
L 1141.175714 -305.699672 
L 1140.131599 -310.489281 
L 1139.402063 -315.27889 
L 1138.966672 -320.068499 
L 1138.782331 -324.858108 
L 1138.786909 -329.647717 
L 1138.905259 -334.437326 
L 1139.056951 -339.226936 
L 1139.164728 -344.016545 
L 1139.162588 -348.806154 
L 1139.002453 -353.595763 
L 1138.658589 -358.385372 
L 1138.129317 -363.174981 
L 1137.435953 -367.964591 
L 1136.619303 -372.7542 
L 1135.734368 -377.543809 
L 1134.844065 -382.333418 
L 1134.012826 -387.123027 
L 1133.300803 -391.912636 
L 1132.759202 -396.702245 
L 1132.427029 -401.491855 
L 1132.329273 -406.281464 
L 1132.476399 -411.071073 
L 1132.86493 -415.860682 
L 1133.478914 -420.650291 
L 1134.292115 -425.4399 
L 1135.270849 -430.229509 
L 1136.377388 -435.019119 
L 1137.573816 -439.808728 
L 1138.826096 -444.598337 
L 1140.10795 -449.387946 
L 1141.404043 -454.177555 
L 1142.711895 -458.967164 
L 1144.042089 -463.756774 
L 1145.41651 -468.546383 
L 1146.864736 -473.335992 
L 1148.418999 -478.125601 
L 1150.10847 -482.91521 
L 1151.953751 -487.704819 
L 1153.962451 -492.494428 
L 1156.126539 -497.284038 
L 1158.421851 -502.073647 
L 1160.809764 -506.863256 
L 1163.240697 -511.652865 
L 1165.658854 -516.442474 
L 1168.007479 -521.232083 
L 1170.233914 -526.021693 
L 1172.293846 -530.811302 
L 1174.154335 -535.600911 
L 1175.795418 -540.39052 
L 1177.21029 -545.180129 
L 1178.404243 -549.969738 
L 1179.392623 -554.759347 
L 1180.198167 -559.548957 
L 1180.848069 -564.338566 
L 1181.371106 -569.128175 
L 1181.795105 -573.917784 
L 1182.144958 -578.707393 
L 1182.441306 -583.497002 
L 1182.699917 -588.286611 
L 1182.931705 -593.076221 
L 1183.143263 -597.86583 
L 1183.337751 -602.655439 
L 1183.51594 -607.445048 
L 1183.677247 -612.234657 
L 1183.820631 -617.024266 
L 1183.945251 -621.813876 
L 1184.050877 -626.603485 
L 1184.138041 -631.393094 
L 1184.208009 -636.182703 
L 1184.591991 -636.182703 
L 1184.591991 -636.182703 
L 1184.661959 -631.393094 
L 1184.749123 -626.603485 
L 1184.854749 -621.813876 
L 1184.979369 -617.024266 
L 1185.122753 -612.234657 
L 1185.28406 -607.445048 
L 1185.462249 -602.655439 
L 1185.656737 -597.86583 
L 1185.868295 -593.076221 
L 1186.100083 -588.286611 
L 1186.358694 -583.497002 
L 1186.655042 -578.707393 
L 1187.004895 -573.917784 
L 1187.428894 -569.128175 
L 1187.951931 -564.338566 
L 1188.601833 -559.548957 
L 1189.407377 -554.759347 
L 1190.395757 -549.969738 
L 1191.58971 -545.180129 
L 1193.004582 -540.39052 
L 1194.645665 -535.600911 
L 1196.506154 -530.811302 
L 1198.566086 -526.021693 
L 1200.792521 -521.232083 
L 1203.141146 -516.442474 
L 1205.559303 -511.652865 
L 1207.990236 -506.863256 
L 1210.378149 -502.073647 
L 1212.673461 -497.284038 
L 1214.837549 -492.494428 
L 1216.846249 -487.704819 
L 1218.69153 -482.91521 
L 1220.381001 -478.125601 
L 1221.935264 -473.335992 
L 1223.38349 -468.546383 
L 1224.757911 -463.756774 
L 1226.088105 -458.967164 
L 1227.395957 -454.177555 
L 1228.69205 -449.387946 
L 1229.973904 -444.598337 
L 1231.226184 -439.808728 
L 1232.422612 -435.019119 
L 1233.529151 -430.229509 
L 1234.507885 -425.4399 
L 1235.321086 -420.650291 
L 1235.93507 -415.860682 
L 1236.323601 -411.071073 
L 1236.470727 -406.281464 
L 1236.372971 -401.491855 
L 1236.040798 -396.702245 
L 1235.499197 -391.912636 
L 1234.787174 -387.123027 
L 1233.955935 -382.333418 
L 1233.065632 -377.543809 
L 1232.180697 -372.7542 
L 1231.364047 -367.964591 
L 1230.670683 -363.174981 
L 1230.141411 -358.385372 
L 1229.797547 -353.595763 
L 1229.637412 -348.806154 
L 1229.635272 -344.016545 
L 1229.743049 -339.226936 
L 1229.894741 -334.437326 
L 1230.013091 -329.647717 
L 1230.017669 -324.858108 
L 1229.833328 -320.068499 
L 1229.397937 -315.27889 
L 1228.668401 -310.489281 
L 1227.624286 -305.699672 
L 1226.268712 -300.910062 
L 1224.626592 -296.120453 
L 1222.740661 -291.330844 
L 1220.66598 -286.541235 
L 1218.463731 -281.751626 
L 1216.195114 -276.962017 
L 1213.916054 -272.172407 
L 1211.673211 -267.382798 
L 1209.501573 -262.593189 
L 1207.423712 -257.80358 
L 1205.450538 -253.013971 
L 1203.583274 -248.224362 
L 1201.816246 -243.434753 
L 1200.140035 -238.645143 
L 1198.544541 -233.855534 
L 1197.021555 -229.065925 
L 1195.566552 -224.276316 
L 1194.179524 -219.486707 
L 1192.864867 -214.697098 
L 1191.630427 -209.907489 
L 1190.485982 -205.117879 
L 1189.441456 -200.32827 
L 1188.5052 -195.538661 
L 1187.682608 -190.749052 
L 1186.97525 -185.959443 
L 1186.380598 -181.169834 
L 1185.892305 -176.380224 
L 1185.500909 -171.590615 
L 1185.194806 -166.801006 
L 1184.961309 -162.011397 
z
" id="mec68c7f9c9" style="stroke:#404040;stroke-width:1.75;"/>
    </defs>
    <g clip-path="url(#p428788dc3a)">
     <use style="fill:#327ba5;stroke:#404040;stroke-width:1.75;" x="0.0" xlink:href="#mec68c7f9c9" y="792.0"/>
    </g>
   </g>
   <g id="patch_3">
    <path clip-path="url(#p428788dc3a)" d="M 366 590.7 
L 366 590.7 
L 366 590.7 
L 366 590.7 
z
" style="fill:#9fceb8;stroke:#404040;stroke-linejoin:miter;stroke-width:0.875;"/>
   </g>
   <g id="patch_4">
    <path clip-path="url(#p428788dc3a)" d="M 366 590.7 
L 366 590.7 
L 366 590.7 
L 366 590.7 
z
" style="fill:#327ba5;stroke:#404040;stroke-linejoin:miter;stroke-width:0.875;"/>
   </g>
   <g id="line2d_28">
    <path clip-path="url(#p428788dc3a)" d="M 291.6 572.6952 
L 291.6 331.7787 
" style="fill:none;stroke:#404040;stroke-linecap:round;stroke-width:1.75;"/>
   </g>
   <g id="line2d_29">
    <path clip-path="url(#p428788dc3a)" d="M 291.6 536.1741 
L 291.6 453.0042 
" style="fill:none;stroke:#404040;stroke-linecap:round;stroke-width:5.25;"/>
   </g>
   <g id="line2d_30">
    <path clip-path="url(#p428788dc3a)" d="M 440.4 575.1504 
L 440.4 216.0774 
" style="fill:none;stroke:#404040;stroke-linecap:round;stroke-width:1.75;"/>
   </g>
   <g id="line2d_31">
    <path clip-path="url(#p428788dc3a)" d="M 440.4 524.7165 
L 440.4 395.4093 
" style="fill:none;stroke:#404040;stroke-linecap:round;stroke-width:5.25;"/>
   </g>
   <g id="line2d_32">
    <path clip-path="url(#p428788dc3a)" d="M 663.6 572.6952 
L 663.6 423.0303 
" style="fill:none;stroke:#404040;stroke-linecap:round;stroke-width:1.75;"/>
   </g>
   <g id="line2d_33">
    <path clip-path="url(#p428788dc3a)" d="M 663.6 545.918175 
L 663.6 491.954925 
" style="fill:none;stroke:#404040;stroke-linecap:round;stroke-width:5.25;"/>
   </g>
   <g id="line2d_34">
    <path clip-path="url(#p428788dc3a)" d="M 812.4 575.1504 
L 812.4 423.3372 
" style="fill:none;stroke:#404040;stroke-linecap:round;stroke-width:1.75;"/>
   </g>
   <g id="line2d_35">
    <path clip-path="url(#p428788dc3a)" d="M 812.4 543.360675 
L 812.4 491.750325 
" style="fill:none;stroke:#404040;stroke-linecap:round;stroke-width:5.25;"/>
   </g>
   <g id="line2d_36">
    <path clip-path="url(#p428788dc3a)" d="M 1035.6 569.8308 
L 1035.6 315.3084 
" style="fill:none;stroke:#404040;stroke-linecap:round;stroke-width:1.75;"/>
   </g>
   <g id="line2d_37">
    <path clip-path="url(#p428788dc3a)" d="M 1035.6 515.9187 
L 1035.6 409.3221 
" style="fill:none;stroke:#404040;stroke-linecap:round;stroke-width:5.25;"/>
   </g>
   <g id="line2d_38">
    <path clip-path="url(#p428788dc3a)" d="M 1184.4 569.7285 
L 1184.4 216.0774 
" style="fill:none;stroke:#404040;stroke-linecap:round;stroke-width:1.75;"/>
   </g>
   <g id="line2d_39">
    <path clip-path="url(#p428788dc3a)" d="M 1184.4 472.9527 
L 1184.4 356.48415 
" style="fill:none;stroke:#404040;stroke-linecap:round;stroke-width:5.25;"/>
   </g>
   <g id="patch_5">
    <path d="M 180 693 
L 180 79.2 
" style="fill:none;"/>
   </g>
   <g id="patch_6">
    <path d="M 1296 693 
L 1296 79.2 
" style="fill:none;"/>
   </g>
   <g id="patch_7">
    <path d="M 180 79.2 
L 1296 79.2 
" style="fill:none;"/>
   </g>
   <g id="patch_8">
    <path d="M 180 693 
L 1296 693 
" style="fill:none;"/>
   </g>
   <g id="PathCollection_1">
    <defs>
     <path d="M 0 1.75 
C 0.464105 1.75 0.909265 1.565609 1.237437 1.237437 
C 1.565609 0.909265 1.75 0.464105 1.75 0 
C 1.75 -0.464105 1.565609 -0.909265 1.237437 -1.237437 
C 0.909265 -1.565609 0.464105 -1.75 0 -1.75 
C -0.464105 -1.75 -0.909265 -1.565609 -1.237437 -1.237437 
C -1.565609 -0.909265 -1.75 -0.464105 -1.75 0 
C -1.75 0.464105 -1.565609 0.909265 -1.237437 1.237437 
C -0.909265 1.565609 -0.464105 1.75 0 1.75 
z
" id="mc45c074a5b" style="stroke:#404040;stroke-width:0.3;"/>
    </defs>
    <g clip-path="url(#p428788dc3a)">
     <use style="fill:#ffffff;stroke:#404040;stroke-width:0.3;" x="291.6" xlink:href="#mc45c074a5b" y="503.6427"/>
    </g>
   </g>
   <g id="PathCollection_2">
    <g clip-path="url(#p428788dc3a)">
     <use style="fill:#ffffff;stroke:#404040;stroke-width:0.3;" x="440.4" xlink:href="#mc45c074a5b" y="481.239"/>
    </g>
   </g>
   <g id="PathCollection_3">
    <g clip-path="url(#p428788dc3a)">
     <use style="fill:#ffffff;stroke:#404040;stroke-width:0.3;" x="663.6" xlink:href="#mc45c074a5b" y="527.0694"/>
    </g>
   </g>
   <g id="PathCollection_4">
    <g clip-path="url(#p428788dc3a)">
     <use style="fill:#ffffff;stroke:#404040;stroke-width:0.3;" x="812.4" xlink:href="#mc45c074a5b" y="520.88025"/>
    </g>
   </g>
   <g id="PathCollection_5">
    <g clip-path="url(#p428788dc3a)">
     <use style="fill:#ffffff;stroke:#404040;stroke-width:0.3;" x="1035.6" xlink:href="#mc45c074a5b" y="476.2263"/>
    </g>
   </g>
   <g id="PathCollection_6">
    <g clip-path="url(#p428788dc3a)">
     <use style="fill:#ffffff;stroke:#404040;stroke-width:0.3;" x="1184.4" xlink:href="#mc45c074a5b" y="403.6956"/>
    </g>
   </g>
   <g id="text_12">
    <!-- OTU Counts -->
    <g style="fill:#262626;" transform="translate(648.92578125 74.2)scale(0.3 -0.3)">
     <use xlink:href="#BitstreamVeraSans-Roman-4f"/>
     <use x="78.7109375" xlink:href="#BitstreamVeraSans-Roman-54"/>
     <use x="139.794921875" xlink:href="#BitstreamVeraSans-Roman-55"/>
     <use x="212.98828125" xlink:href="#BitstreamVeraSans-Roman-20"/>
     <use x="244.775390625" xlink:href="#BitstreamVeraSans-Roman-43"/>
     <use x="314.599609375" xlink:href="#BitstreamVeraSans-Roman-6f"/>
     <use x="375.78125" xlink:href="#BitstreamVeraSans-Roman-75"/>
     <use x="439.16015625" xlink:href="#BitstreamVeraSans-Roman-6e"/>
     <use x="502.5390625" xlink:href="#BitstreamVeraSans-Roman-74"/>
     <use x="541.748046875" xlink:href="#BitstreamVeraSans-Roman-73"/>
    </g>
   </g>
   <g id="legend_1">
    <g id="text_13">
     <!-- Sampling Frequency -->
     <defs>
      <path d="M 14.796875 27.296875 
Q 14.796875 17.390625 18.875 11.75 
Q 22.953125 6.109375 30.078125 6.109375 
Q 37.203125 6.109375 41.296875 11.75 
Q 45.40625 17.390625 45.40625 27.296875 
Q 45.40625 37.203125 41.296875 42.84375 
Q 37.203125 48.484375 30.078125 48.484375 
Q 22.953125 48.484375 18.875 42.84375 
Q 14.796875 37.203125 14.796875 27.296875 
M 45.40625 8.203125 
Q 42.578125 3.328125 38.25 0.953125 
Q 33.9375 -1.421875 27.875 -1.421875 
Q 17.96875 -1.421875 11.734375 6.484375 
Q 5.515625 14.40625 5.515625 27.296875 
Q 5.515625 40.1875 11.734375 48.09375 
Q 17.96875 56 27.875 56 
Q 33.9375 56 38.25 53.625 
Q 42.578125 51.265625 45.40625 46.390625 
L 45.40625 54.6875 
L 54.390625 54.6875 
L 54.390625 -20.796875 
L 45.40625 -20.796875 
z
" id="BitstreamVeraSans-Roman-71"/>
      <path d="M 53.515625 70.515625 
L 53.515625 60.890625 
Q 47.90625 63.578125 42.921875 64.890625 
Q 37.9375 66.21875 33.296875 66.21875 
Q 25.25 66.21875 20.875 63.09375 
Q 16.5 59.96875 16.5 54.203125 
Q 16.5 49.359375 19.40625 46.890625 
Q 22.3125 44.4375 30.421875 42.921875 
L 36.375 41.703125 
Q 47.40625 39.59375 52.65625 34.296875 
Q 57.90625 29 57.90625 20.125 
Q 57.90625 9.515625 50.796875 4.046875 
Q 43.703125 -1.421875 29.984375 -1.421875 
Q 24.8125 -1.421875 18.96875 -0.25 
Q 13.140625 0.921875 6.890625 3.21875 
L 6.890625 13.375 
Q 12.890625 10.015625 18.65625 8.296875 
Q 24.421875 6.59375 29.984375 6.59375 
Q 38.421875 6.59375 43.015625 9.90625 
Q 47.609375 13.234375 47.609375 19.390625 
Q 47.609375 24.75 44.3125 27.78125 
Q 41.015625 30.8125 33.5 32.328125 
L 27.484375 33.5 
Q 16.453125 35.6875 11.515625 40.375 
Q 6.59375 45.0625 6.59375 53.421875 
Q 6.59375 63.09375 13.40625 68.65625 
Q 20.21875 74.21875 32.171875 74.21875 
Q 37.3125 74.21875 42.625 73.28125 
Q 47.953125 72.359375 53.515625 70.515625 
" id="BitstreamVeraSans-Roman-53"/>
      <path d="M 48.78125 52.59375 
L 48.78125 44.1875 
Q 44.96875 46.296875 41.140625 47.34375 
Q 37.3125 48.390625 33.40625 48.390625 
Q 24.65625 48.390625 19.8125 42.84375 
Q 14.984375 37.3125 14.984375 27.296875 
Q 14.984375 17.28125 19.8125 11.734375 
Q 24.65625 6.203125 33.40625 6.203125 
Q 37.3125 6.203125 41.140625 7.25 
Q 44.96875 8.296875 48.78125 10.40625 
L 48.78125 2.09375 
Q 45.015625 0.34375 40.984375 -0.53125 
Q 36.96875 -1.421875 32.421875 -1.421875 
Q 20.0625 -1.421875 12.78125 6.34375 
Q 5.515625 14.109375 5.515625 27.296875 
Q 5.515625 40.671875 12.859375 48.328125 
Q 20.21875 56 33.015625 56 
Q 37.15625 56 41.109375 55.140625 
Q 45.0625 54.296875 48.78125 52.59375 
" id="BitstreamVeraSans-Roman-63"/>
      <path d="M 18.109375 8.203125 
L 18.109375 -20.796875 
L 9.078125 -20.796875 
L 9.078125 54.6875 
L 18.109375 54.6875 
L 18.109375 46.390625 
Q 20.953125 51.265625 25.265625 53.625 
Q 29.59375 56 35.59375 56 
Q 45.5625 56 51.78125 48.09375 
Q 58.015625 40.1875 58.015625 27.296875 
Q 58.015625 14.40625 51.78125 6.484375 
Q 45.5625 -1.421875 35.59375 -1.421875 
Q 29.59375 -1.421875 25.265625 0.953125 
Q 20.953125 3.328125 18.109375 8.203125 
M 48.6875 27.296875 
Q 48.6875 37.203125 44.609375 42.84375 
Q 40.53125 48.484375 33.40625 48.484375 
Q 26.265625 48.484375 22.1875 42.84375 
Q 18.109375 37.203125 18.109375 27.296875 
Q 18.109375 17.390625 22.1875 11.75 
Q 26.265625 6.109375 33.40625 6.109375 
Q 40.53125 6.109375 44.609375 11.75 
Q 48.6875 17.390625 48.6875 27.296875 
" id="BitstreamVeraSans-Roman-70"/>
      <path d="M 52 44.1875 
Q 55.375 50.25 60.0625 53.125 
Q 64.75 56 71.09375 56 
Q 79.640625 56 84.28125 50.015625 
Q 88.921875 44.046875 88.921875 33.015625 
L 88.921875 0 
L 79.890625 0 
L 79.890625 32.71875 
Q 79.890625 40.578125 77.09375 44.375 
Q 74.3125 48.1875 68.609375 48.1875 
Q 61.625 48.1875 57.5625 43.546875 
Q 53.515625 38.921875 53.515625 30.90625 
L 53.515625 0 
L 44.484375 0 
L 44.484375 32.71875 
Q 44.484375 40.625 41.703125 44.40625 
Q 38.921875 48.1875 33.109375 48.1875 
Q 26.21875 48.1875 22.15625 43.53125 
Q 18.109375 38.875 18.109375 30.90625 
L 18.109375 0 
L 9.078125 0 
L 9.078125 54.6875 
L 18.109375 54.6875 
L 18.109375 46.1875 
Q 21.1875 51.21875 25.484375 53.609375 
Q 29.78125 56 35.6875 56 
Q 41.65625 56 45.828125 52.96875 
Q 50 49.953125 52 44.1875 
" id="BitstreamVeraSans-Roman-6d"/>
      <path d="M 32.171875 -5.078125 
Q 28.375 -14.84375 24.75 -17.8125 
Q 21.140625 -20.796875 15.09375 -20.796875 
L 7.90625 -20.796875 
L 7.90625 -13.28125 
L 13.1875 -13.28125 
Q 16.890625 -13.28125 18.9375 -11.515625 
Q 21 -9.765625 23.484375 -3.21875 
L 25.09375 0.875 
L 2.984375 54.6875 
L 12.5 54.6875 
L 29.59375 11.921875 
L 46.6875 54.6875 
L 56.203125 54.6875 
z
" id="BitstreamVeraSans-Roman-79"/>
     </defs>
     <g style="fill:#262626;" transform="translate(1096.35703125 113.09765625)scale(0.15 -0.15)">
      <use xlink:href="#BitstreamVeraSans-Roman-53"/>
      <use x="63.4765625" xlink:href="#BitstreamVeraSans-Roman-61"/>
      <use x="124.755859375" xlink:href="#BitstreamVeraSans-Roman-6d"/>
      <use x="222.16796875" xlink:href="#BitstreamVeraSans-Roman-70"/>
      <use x="285.64453125" xlink:href="#BitstreamVeraSans-Roman-6c"/>
      <use x="313.427734375" xlink:href="#BitstreamVeraSans-Roman-69"/>
      <use x="341.2109375" xlink:href="#BitstreamVeraSans-Roman-6e"/>
      <use x="404.58984375" xlink:href="#BitstreamVeraSans-Roman-67"/>
      <use x="468.06640625" xlink:href="#BitstreamVeraSans-Roman-20"/>
      <use x="499.853515625" xlink:href="#BitstreamVeraSans-Roman-46"/>
      <use x="557.263671875" xlink:href="#BitstreamVeraSans-Roman-72"/>
      <use x="598.345703125" xlink:href="#BitstreamVeraSans-Roman-65"/>
      <use x="659.869140625" xlink:href="#BitstreamVeraSans-Roman-71"/>
      <use x="723.345703125" xlink:href="#BitstreamVeraSans-Roman-75"/>
      <use x="786.724609375" xlink:href="#BitstreamVeraSans-Roman-65"/>
      <use x="848.248046875" xlink:href="#BitstreamVeraSans-Roman-6e"/>
      <use x="911.626953125" xlink:href="#BitstreamVeraSans-Roman-63"/>
      <use x="966.607421875" xlink:href="#BitstreamVeraSans-Roman-79"/>
     </g>
    </g>
    <g id="patch_9">
     <path d="M 1073.085938 147.713281 
L 1123.085938 147.713281 
L 1123.085938 130.213281 
L 1073.085938 130.213281 
z
" style="fill:#9fceb8;stroke:#404040;stroke-linejoin:miter;stroke-width:0.875;"/>
    </g>
    <g id="text_14">
     <!-- Frequent -->
     <g style="fill:#262626;" transform="translate(1143.0859375 147.71328125)scale(0.25 -0.25)">
      <use xlink:href="#BitstreamVeraSans-Roman-46"/>
      <use x="57.41015625" xlink:href="#BitstreamVeraSans-Roman-72"/>
      <use x="98.4921875" xlink:href="#BitstreamVeraSans-Roman-65"/>
      <use x="160.015625" xlink:href="#BitstreamVeraSans-Roman-71"/>
      <use x="223.4921875" xlink:href="#BitstreamVeraSans-Roman-75"/>
      <use x="286.87109375" xlink:href="#BitstreamVeraSans-Roman-65"/>
      <use x="348.39453125" xlink:href="#BitstreamVeraSans-Roman-6e"/>
      <use x="411.7734375" xlink:href="#BitstreamVeraSans-Roman-74"/>
     </g>
    </g>
    <g id="patch_10">
     <path d="M 1073.085938 184.408594 
L 1123.085938 184.408594 
L 1123.085938 166.908594 
L 1073.085938 166.908594 
z
" style="fill:#327ba5;stroke:#404040;stroke-linejoin:miter;stroke-width:0.875;"/>
    </g>
    <g id="text_15">
     <!-- Infrequent -->
     <defs>
      <path d="M 9.8125 72.90625 
L 19.671875 72.90625 
L 19.671875 0 
L 9.8125 0 
z
" id="BitstreamVeraSans-Roman-49"/>
      <path d="M 37.109375 75.984375 
L 37.109375 68.5 
L 28.515625 68.5 
Q 23.6875 68.5 21.796875 66.546875 
Q 19.921875 64.59375 19.921875 59.515625 
L 19.921875 54.6875 
L 34.71875 54.6875 
L 34.71875 47.703125 
L 19.921875 47.703125 
L 19.921875 0 
L 10.890625 0 
L 10.890625 47.703125 
L 2.296875 47.703125 
L 2.296875 54.6875 
L 10.890625 54.6875 
L 10.890625 58.5 
Q 10.890625 67.625 15.140625 71.796875 
Q 19.390625 75.984375 28.609375 75.984375 
z
" id="BitstreamVeraSans-Roman-66"/>
     </defs>
     <g style="fill:#262626;" transform="translate(1143.0859375 184.40859375)scale(0.25 -0.25)">
      <use xlink:href="#BitstreamVeraSans-Roman-49"/>
      <use x="29.4921875" xlink:href="#BitstreamVeraSans-Roman-6e"/>
      <use x="92.87109375" xlink:href="#BitstreamVeraSans-Roman-66"/>
      <use x="128.076171875" xlink:href="#BitstreamVeraSans-Roman-72"/>
      <use x="169.158203125" xlink:href="#BitstreamVeraSans-Roman-65"/>
      <use x="230.681640625" xlink:href="#BitstreamVeraSans-Roman-71"/>
      <use x="294.158203125" xlink:href="#BitstreamVeraSans-Roman-75"/>
      <use x="357.537109375" xlink:href="#BitstreamVeraSans-Roman-65"/>
      <use x="419.060546875" xlink:href="#BitstreamVeraSans-Roman-6e"/>
      <use x="482.439453125" xlink:href="#BitstreamVeraSans-Roman-74"/>
     </g>
    </g>
   </g>
  </g>
 </g>
 <defs>
  <clipPath id="p428788dc3a">
   <rect height="613.8" width="1116.0" x="180.0" y="79.2"/>
  </clipPath>
 </defs>
</svg>
