<?xml version="1.0" encoding="utf-8" standalone="no"?>
<!DOCTYPE svg PUBLIC "-//W3C//DTD SVG 1.1//EN"
  "http://www.w3.org/Graphics/SVG/1.1/DTD/svg11.dtd">
<!-- Created with matplotlib (http://matplotlib.org/) -->
<svg height="792pt" version="1.1" viewBox="0 0 1440 792" width="1440pt" xmlns="http://www.w3.org/2000/svg" xmlns:xlink="http://www.w3.org/1999/xlink">
 <defs>
  <style type="text/css">
*{stroke-linecap:butt;stroke-linejoin:round;stroke-miterlimit:100000;}
  </style>
 </defs>
 <g id="figure_1">
  <g id="patch_1">
   <path d="M 0 792 
L 1440 792 
L 1440 0 
L 0 0 
z
" style="fill:#ffffff;"/>
  </g>
  <g id="axes_1">
   <g id="patch_2">
    <path d="M 180 693 
L 1296 693 
L 1296 79.2 
L 180 79.2 
z
" style="fill:#eaeaf2;"/>
   </g>
   <g id="matplotlib.axis_1">
    <g id="xtick_1">
     <g id="line2d_1">
      <defs>
       <path d="M 0 0 
L 0 0 
" id="me98c730476" style="stroke:#262626;"/>
      </defs>
      <g>
       <use style="fill:#262626;stroke:#262626;" x="319.5" xlink:href="#me98c730476" y="693.0"/>
      </g>
     </g>
     <g id="line2d_2">
      <g>
       <use style="fill:#262626;stroke:#262626;" x="319.5" xlink:href="#me98c730476" y="79.2"/>
      </g>
     </g>
     <g id="text_1">
      <!-- Material (n=198) -->
      <defs>
       <path d="M 18.3125 70.21875 
L 18.3125 54.6875 
L 36.8125 54.6875 
L 36.8125 47.703125 
L 18.3125 47.703125 
L 18.3125 18.015625 
Q 18.3125 11.328125 20.140625 9.421875 
Q 21.96875 7.515625 27.59375 7.515625 
L 36.8125 7.515625 
L 36.8125 0 
L 27.59375 0 
Q 17.1875 0 13.234375 3.875 
Q 9.28125 7.765625 9.28125 18.015625 
L 9.28125 47.703125 
L 2.6875 47.703125 
L 2.6875 54.6875 
L 9.28125 54.6875 
L 9.28125 70.21875 
z
" id="BitstreamVeraSans-Roman-74"/>
       <path d="M 31 75.875 
Q 24.46875 64.65625 21.28125 53.65625 
Q 18.109375 42.671875 18.109375 31.390625 
Q 18.109375 20.125 21.3125 9.0625 
Q 24.515625 -2 31 -13.1875 
L 23.1875 -13.1875 
Q 15.875 -1.703125 12.234375 9.375 
Q 8.59375 20.453125 8.59375 31.390625 
Q 8.59375 42.28125 12.203125 53.3125 
Q 15.828125 64.359375 23.1875 75.875 
z
" id="BitstreamVeraSans-Roman-28"/>
       <path d="M 8.015625 75.875 
L 15.828125 75.875 
Q 23.140625 64.359375 26.78125 53.3125 
Q 30.421875 42.28125 30.421875 31.390625 
Q 30.421875 20.453125 26.78125 9.375 
Q 23.140625 -1.703125 15.828125 -13.1875 
L 8.015625 -13.1875 
Q 14.5 -2 17.703125 9.0625 
Q 20.90625 20.125 20.90625 31.390625 
Q 20.90625 42.671875 17.703125 53.65625 
Q 14.5 64.65625 8.015625 75.875 
" id="BitstreamVeraSans-Roman-29"/>
       <path d="M 10.984375 1.515625 
L 10.984375 10.5 
Q 14.703125 8.734375 18.5 7.8125 
Q 22.3125 6.890625 25.984375 6.890625 
Q 35.75 6.890625 40.890625 13.453125 
Q 46.046875 20.015625 46.78125 33.40625 
Q 43.953125 29.203125 39.59375 26.953125 
Q 35.25 24.703125 29.984375 24.703125 
Q 19.046875 24.703125 12.671875 31.3125 
Q 6.296875 37.9375 6.296875 49.421875 
Q 6.296875 60.640625 12.9375 67.421875 
Q 19.578125 74.21875 30.609375 74.21875 
Q 43.265625 74.21875 49.921875 64.515625 
Q 56.59375 54.828125 56.59375 36.375 
Q 56.59375 19.140625 48.40625 8.859375 
Q 40.234375 -1.421875 26.421875 -1.421875 
Q 22.703125 -1.421875 18.890625 -0.6875 
Q 15.09375 0.046875 10.984375 1.515625 
M 30.609375 32.421875 
Q 37.25 32.421875 41.125 36.953125 
Q 45.015625 41.5 45.015625 49.421875 
Q 45.015625 57.28125 41.125 61.84375 
Q 37.25 66.40625 30.609375 66.40625 
Q 23.96875 66.40625 20.09375 61.84375 
Q 16.21875 57.28125 16.21875 49.421875 
Q 16.21875 41.5 20.09375 36.953125 
Q 23.96875 32.421875 30.609375 32.421875 
" id="BitstreamVeraSans-Roman-39"/>
       <path d="M 34.28125 27.484375 
Q 23.390625 27.484375 19.1875 25 
Q 14.984375 22.515625 14.984375 16.5 
Q 14.984375 11.71875 18.140625 8.90625 
Q 21.296875 6.109375 26.703125 6.109375 
Q 34.1875 6.109375 38.703125 11.40625 
Q 43.21875 16.703125 43.21875 25.484375 
L 43.21875 27.484375 
z
M 52.203125 31.203125 
L 52.203125 0 
L 43.21875 0 
L 43.21875 8.296875 
Q 40.140625 3.328125 35.546875 0.953125 
Q 30.953125 -1.421875 24.3125 -1.421875 
Q 15.921875 -1.421875 10.953125 3.296875 
Q 6 8.015625 6 15.921875 
Q 6 25.140625 12.171875 29.828125 
Q 18.359375 34.515625 30.609375 34.515625 
L 43.21875 34.515625 
L 43.21875 35.40625 
Q 43.21875 41.609375 39.140625 45 
Q 35.0625 48.390625 27.6875 48.390625 
Q 23 48.390625 18.546875 47.265625 
Q 14.109375 46.140625 10.015625 43.890625 
L 10.015625 52.203125 
Q 14.9375 54.109375 19.578125 55.046875 
Q 24.21875 56 28.609375 56 
Q 40.484375 56 46.34375 49.84375 
Q 52.203125 43.703125 52.203125 31.203125 
" id="BitstreamVeraSans-Roman-61"/>
       <path d="M 9.421875 75.984375 
L 18.40625 75.984375 
L 18.40625 0 
L 9.421875 0 
z
" id="BitstreamVeraSans-Roman-6c"/>
       <path d="M 56.203125 29.59375 
L 56.203125 25.203125 
L 14.890625 25.203125 
Q 15.484375 15.921875 20.484375 11.0625 
Q 25.484375 6.203125 34.421875 6.203125 
Q 39.59375 6.203125 44.453125 7.46875 
Q 49.3125 8.734375 54.109375 11.28125 
L 54.109375 2.78125 
Q 49.265625 0.734375 44.1875 -0.34375 
Q 39.109375 -1.421875 33.890625 -1.421875 
Q 20.796875 -1.421875 13.15625 6.1875 
Q 5.515625 13.8125 5.515625 26.8125 
Q 5.515625 40.234375 12.765625 48.109375 
Q 20.015625 56 32.328125 56 
Q 43.359375 56 49.78125 48.890625 
Q 56.203125 41.796875 56.203125 29.59375 
M 47.21875 32.234375 
Q 47.125 39.59375 43.09375 43.984375 
Q 39.0625 48.390625 32.421875 48.390625 
Q 24.90625 48.390625 20.390625 44.140625 
Q 15.875 39.890625 15.1875 32.171875 
z
" id="BitstreamVeraSans-Roman-65"/>
       <path d="M 9.421875 54.6875 
L 18.40625 54.6875 
L 18.40625 0 
L 9.421875 0 
z
M 9.421875 75.984375 
L 18.40625 75.984375 
L 18.40625 64.59375 
L 9.421875 64.59375 
z
" id="BitstreamVeraSans-Roman-69"/>
       <path d="M 10.59375 45.40625 
L 73.1875 45.40625 
L 73.1875 37.203125 
L 10.59375 37.203125 
z
M 10.59375 25.484375 
L 73.1875 25.484375 
L 73.1875 17.1875 
L 10.59375 17.1875 
z
" id="BitstreamVeraSans-Roman-3d"/>
       <path id="BitstreamVeraSans-Roman-20"/>
       <path d="M 54.890625 33.015625 
L 54.890625 0 
L 45.90625 0 
L 45.90625 32.71875 
Q 45.90625 40.484375 42.875 44.328125 
Q 39.84375 48.1875 33.796875 48.1875 
Q 26.515625 48.1875 22.3125 43.546875 
Q 18.109375 38.921875 18.109375 30.90625 
L 18.109375 0 
L 9.078125 0 
L 9.078125 54.6875 
L 18.109375 54.6875 
L 18.109375 46.1875 
Q 21.34375 51.125 25.703125 53.5625 
Q 30.078125 56 35.796875 56 
Q 45.21875 56 50.046875 50.171875 
Q 54.890625 44.34375 54.890625 33.015625 
" id="BitstreamVeraSans-Roman-6e"/>
       <path d="M 9.8125 72.90625 
L 24.515625 72.90625 
L 43.109375 23.296875 
L 61.8125 72.90625 
L 76.515625 72.90625 
L 76.515625 0 
L 66.890625 0 
L 66.890625 64.015625 
L 48.09375 14.015625 
L 38.1875 14.015625 
L 19.390625 64.015625 
L 19.390625 0 
L 9.8125 0 
z
" id="BitstreamVeraSans-Roman-4d"/>
       <path d="M 12.40625 8.296875 
L 28.515625 8.296875 
L 28.515625 63.921875 
L 10.984375 60.40625 
L 10.984375 69.390625 
L 28.421875 72.90625 
L 38.28125 72.90625 
L 38.28125 8.296875 
L 54.390625 8.296875 
L 54.390625 0 
L 12.40625 0 
z
" id="BitstreamVeraSans-Roman-31"/>
       <path d="M 41.109375 46.296875 
Q 39.59375 47.171875 37.8125 47.578125 
Q 36.03125 48 33.890625 48 
Q 26.265625 48 22.1875 43.046875 
Q 18.109375 38.09375 18.109375 28.8125 
L 18.109375 0 
L 9.078125 0 
L 9.078125 54.6875 
L 18.109375 54.6875 
L 18.109375 46.1875 
Q 20.953125 51.171875 25.484375 53.578125 
Q 30.03125 56 36.53125 56 
Q 37.453125 56 38.578125 55.875 
Q 39.703125 55.765625 41.0625 55.515625 
z
" id="BitstreamVeraSans-Roman-72"/>
       <path d="M 31.78125 34.625 
Q 24.75 34.625 20.71875 30.859375 
Q 16.703125 27.09375 16.703125 20.515625 
Q 16.703125 13.921875 20.71875 10.15625 
Q 24.75 6.390625 31.78125 6.390625 
Q 38.8125 6.390625 42.859375 10.171875 
Q 46.921875 13.96875 46.921875 20.515625 
Q 46.921875 27.09375 42.890625 30.859375 
Q 38.875 34.625 31.78125 34.625 
M 21.921875 38.8125 
Q 15.578125 40.375 12.03125 44.71875 
Q 8.5 49.078125 8.5 55.328125 
Q 8.5 64.0625 14.71875 69.140625 
Q 20.953125 74.21875 31.78125 74.21875 
Q 42.671875 74.21875 48.875 69.140625 
Q 55.078125 64.0625 55.078125 55.328125 
Q 55.078125 49.078125 51.53125 44.71875 
Q 48 40.375 41.703125 38.8125 
Q 48.828125 37.15625 52.796875 32.3125 
Q 56.78125 27.484375 56.78125 20.515625 
Q 56.78125 9.90625 50.3125 4.234375 
Q 43.84375 -1.421875 31.78125 -1.421875 
Q 19.734375 -1.421875 13.25 4.234375 
Q 6.78125 9.90625 6.78125 20.515625 
Q 6.78125 27.484375 10.78125 32.3125 
Q 14.796875 37.15625 21.921875 38.8125 
M 18.3125 54.390625 
Q 18.3125 48.734375 21.84375 45.5625 
Q 25.390625 42.390625 31.78125 42.390625 
Q 38.140625 42.390625 41.71875 45.5625 
Q 45.3125 48.734375 45.3125 54.390625 
Q 45.3125 60.0625 41.71875 63.234375 
Q 38.140625 66.40625 31.78125 66.40625 
Q 25.390625 66.40625 21.84375 63.234375 
Q 18.3125 60.0625 18.3125 54.390625 
" id="BitstreamVeraSans-Roman-38"/>
      </defs>
      <g style="fill:#262626;" transform="translate(212.736328125 718.99609375)scale(0.25 -0.25)">
       <use xlink:href="#BitstreamVeraSans-Roman-4d"/>
       <use x="86.279296875" xlink:href="#BitstreamVeraSans-Roman-61"/>
       <use x="147.55859375" xlink:href="#BitstreamVeraSans-Roman-74"/>
       <use x="186.767578125" xlink:href="#BitstreamVeraSans-Roman-65"/>
       <use x="248.291015625" xlink:href="#BitstreamVeraSans-Roman-72"/>
       <use x="289.404296875" xlink:href="#BitstreamVeraSans-Roman-69"/>
       <use x="317.1875" xlink:href="#BitstreamVeraSans-Roman-61"/>
       <use x="378.466796875" xlink:href="#BitstreamVeraSans-Roman-6c"/>
       <use x="406.25" xlink:href="#BitstreamVeraSans-Roman-20"/>
       <use x="438.037109375" xlink:href="#BitstreamVeraSans-Roman-28"/>
       <use x="477.05078125" xlink:href="#BitstreamVeraSans-Roman-6e"/>
       <use x="540.4296875" xlink:href="#BitstreamVeraSans-Roman-3d"/>
       <use x="624.21875" xlink:href="#BitstreamVeraSans-Roman-31"/>
       <use x="687.841796875" xlink:href="#BitstreamVeraSans-Roman-39"/>
       <use x="751.46484375" xlink:href="#BitstreamVeraSans-Roman-38"/>
       <use x="815.087890625" xlink:href="#BitstreamVeraSans-Roman-29"/>
      </g>
     </g>
    </g>
    <g id="xtick_2">
     <g id="line2d_3">
      <g>
       <use style="fill:#262626;stroke:#262626;" x="598.5" xlink:href="#me98c730476" y="693.0"/>
      </g>
     </g>
     <g id="line2d_4">
      <g>
       <use style="fill:#262626;stroke:#262626;" x="598.5" xlink:href="#me98c730476" y="79.2"/>
      </g>
     </g>
     <g id="text_2">
      <!-- Row (n=198) -->
      <defs>
       <path d="M 44.390625 34.1875 
Q 47.5625 33.109375 50.5625 29.59375 
Q 53.5625 26.078125 56.59375 19.921875 
L 66.609375 0 
L 56 0 
L 46.6875 18.703125 
Q 43.0625 26.03125 39.671875 28.421875 
Q 36.28125 30.8125 30.421875 30.8125 
L 19.671875 30.8125 
L 19.671875 0 
L 9.8125 0 
L 9.8125 72.90625 
L 32.078125 72.90625 
Q 44.578125 72.90625 50.734375 67.671875 
Q 56.890625 62.453125 56.890625 51.90625 
Q 56.890625 45.015625 53.6875 40.46875 
Q 50.484375 35.9375 44.390625 34.1875 
M 19.671875 64.796875 
L 19.671875 38.921875 
L 32.078125 38.921875 
Q 39.203125 38.921875 42.84375 42.21875 
Q 46.484375 45.515625 46.484375 51.90625 
Q 46.484375 58.296875 42.84375 61.546875 
Q 39.203125 64.796875 32.078125 64.796875 
z
" id="BitstreamVeraSans-Roman-52"/>
       <path d="M 30.609375 48.390625 
Q 23.390625 48.390625 19.1875 42.75 
Q 14.984375 37.109375 14.984375 27.296875 
Q 14.984375 17.484375 19.15625 11.84375 
Q 23.34375 6.203125 30.609375 6.203125 
Q 37.796875 6.203125 41.984375 11.859375 
Q 46.1875 17.53125 46.1875 27.296875 
Q 46.1875 37.015625 41.984375 42.703125 
Q 37.796875 48.390625 30.609375 48.390625 
M 30.609375 56 
Q 42.328125 56 49.015625 48.375 
Q 55.71875 40.765625 55.71875 27.296875 
Q 55.71875 13.875 49.015625 6.21875 
Q 42.328125 -1.421875 30.609375 -1.421875 
Q 18.84375 -1.421875 12.171875 6.21875 
Q 5.515625 13.875 5.515625 27.296875 
Q 5.515625 40.765625 12.171875 48.375 
Q 18.84375 56 30.609375 56 
" id="BitstreamVeraSans-Roman-6f"/>
       <path d="M 4.203125 54.6875 
L 13.1875 54.6875 
L 24.421875 12.015625 
L 35.59375 54.6875 
L 46.1875 54.6875 
L 57.421875 12.015625 
L 68.609375 54.6875 
L 77.59375 54.6875 
L 63.28125 0 
L 52.6875 0 
L 40.921875 44.828125 
L 29.109375 0 
L 18.5 0 
z
" id="BitstreamVeraSans-Roman-77"/>
      </defs>
      <g style="fill:#262626;" transform="translate(515.96875 718.99609375)scale(0.25 -0.25)">
       <use xlink:href="#BitstreamVeraSans-Roman-52"/>
       <use x="69.419921875" xlink:href="#BitstreamVeraSans-Roman-6f"/>
       <use x="130.6015625" xlink:href="#BitstreamVeraSans-Roman-77"/>
       <use x="212.388671875" xlink:href="#BitstreamVeraSans-Roman-20"/>
       <use x="244.17578125" xlink:href="#BitstreamVeraSans-Roman-28"/>
       <use x="283.189453125" xlink:href="#BitstreamVeraSans-Roman-6e"/>
       <use x="346.568359375" xlink:href="#BitstreamVeraSans-Roman-3d"/>
       <use x="430.357421875" xlink:href="#BitstreamVeraSans-Roman-31"/>
       <use x="493.98046875" xlink:href="#BitstreamVeraSans-Roman-39"/>
       <use x="557.603515625" xlink:href="#BitstreamVeraSans-Roman-38"/>
       <use x="621.2265625" xlink:href="#BitstreamVeraSans-Roman-29"/>
      </g>
     </g>
    </g>
    <g id="xtick_3">
     <g id="line2d_5">
      <g>
       <use style="fill:#262626;stroke:#262626;" x="877.5" xlink:href="#me98c730476" y="693.0"/>
      </g>
     </g>
     <g id="line2d_6">
      <g>
       <use style="fill:#262626;stroke:#262626;" x="877.5" xlink:href="#me98c730476" y="79.2"/>
      </g>
     </g>
     <g id="text_3">
      <!-- Plate Location (n=198) -->
      <defs>
       <path d="M 9.8125 72.90625 
L 19.671875 72.90625 
L 19.671875 8.296875 
L 55.171875 8.296875 
L 55.171875 0 
L 9.8125 0 
z
" id="BitstreamVeraSans-Roman-4c"/>
       <path d="M 48.78125 52.59375 
L 48.78125 44.1875 
Q 44.96875 46.296875 41.140625 47.34375 
Q 37.3125 48.390625 33.40625 48.390625 
Q 24.65625 48.390625 19.8125 42.84375 
Q 14.984375 37.3125 14.984375 27.296875 
Q 14.984375 17.28125 19.8125 11.734375 
Q 24.65625 6.203125 33.40625 6.203125 
Q 37.3125 6.203125 41.140625 7.25 
Q 44.96875 8.296875 48.78125 10.40625 
L 48.78125 2.09375 
Q 45.015625 0.34375 40.984375 -0.53125 
Q 36.96875 -1.421875 32.421875 -1.421875 
Q 20.0625 -1.421875 12.78125 6.34375 
Q 5.515625 14.109375 5.515625 27.296875 
Q 5.515625 40.671875 12.859375 48.328125 
Q 20.21875 56 33.015625 56 
Q 37.15625 56 41.109375 55.140625 
Q 45.0625 54.296875 48.78125 52.59375 
" id="BitstreamVeraSans-Roman-63"/>
       <path d="M 19.671875 64.796875 
L 19.671875 37.40625 
L 32.078125 37.40625 
Q 38.96875 37.40625 42.71875 40.96875 
Q 46.484375 44.53125 46.484375 51.125 
Q 46.484375 57.671875 42.71875 61.234375 
Q 38.96875 64.796875 32.078125 64.796875 
z
M 9.8125 72.90625 
L 32.078125 72.90625 
Q 44.34375 72.90625 50.609375 67.359375 
Q 56.890625 61.8125 56.890625 51.125 
Q 56.890625 40.328125 50.609375 34.8125 
Q 44.34375 29.296875 32.078125 29.296875 
L 19.671875 29.296875 
L 19.671875 0 
L 9.8125 0 
z
" id="BitstreamVeraSans-Roman-50"/>
      </defs>
      <g style="fill:#262626;" transform="translate(733.1953125 718.99609375)scale(0.25 -0.25)">
       <use xlink:href="#BitstreamVeraSans-Roman-50"/>
       <use x="60.302734375" xlink:href="#BitstreamVeraSans-Roman-6c"/>
       <use x="88.0859375" xlink:href="#BitstreamVeraSans-Roman-61"/>
       <use x="149.365234375" xlink:href="#BitstreamVeraSans-Roman-74"/>
       <use x="188.57421875" xlink:href="#BitstreamVeraSans-Roman-65"/>
       <use x="250.09765625" xlink:href="#BitstreamVeraSans-Roman-20"/>
       <use x="281.884765625" xlink:href="#BitstreamVeraSans-Roman-4c"/>
       <use x="337.58203125" xlink:href="#BitstreamVeraSans-Roman-6f"/>
       <use x="398.763671875" xlink:href="#BitstreamVeraSans-Roman-63"/>
       <use x="453.744140625" xlink:href="#BitstreamVeraSans-Roman-61"/>
       <use x="515.0234375" xlink:href="#BitstreamVeraSans-Roman-74"/>
       <use x="554.232421875" xlink:href="#BitstreamVeraSans-Roman-69"/>
       <use x="582.015625" xlink:href="#BitstreamVeraSans-Roman-6f"/>
       <use x="643.197265625" xlink:href="#BitstreamVeraSans-Roman-6e"/>
       <use x="706.576171875" xlink:href="#BitstreamVeraSans-Roman-20"/>
       <use x="738.36328125" xlink:href="#BitstreamVeraSans-Roman-28"/>
       <use x="777.376953125" xlink:href="#BitstreamVeraSans-Roman-6e"/>
       <use x="840.755859375" xlink:href="#BitstreamVeraSans-Roman-3d"/>
       <use x="924.544921875" xlink:href="#BitstreamVeraSans-Roman-31"/>
       <use x="988.16796875" xlink:href="#BitstreamVeraSans-Roman-39"/>
       <use x="1051.791015625" xlink:href="#BitstreamVeraSans-Roman-38"/>
       <use x="1115.4140625" xlink:href="#BitstreamVeraSans-Roman-29"/>
      </g>
     </g>
    </g>
    <g id="xtick_4">
     <g id="line2d_7">
      <g>
       <use style="fill:#262626;stroke:#262626;" x="1156.5" xlink:href="#me98c730476" y="693.0"/>
      </g>
     </g>
     <g id="line2d_8">
      <g>
       <use style="fill:#262626;stroke:#262626;" x="1156.5" xlink:href="#me98c730476" y="79.2"/>
      </g>
     </g>
     <g id="text_4">
      <!-- Run (n=357) -->
      <defs>
       <path d="M 10.796875 72.90625 
L 49.515625 72.90625 
L 49.515625 64.59375 
L 19.828125 64.59375 
L 19.828125 46.734375 
Q 21.96875 47.46875 24.109375 47.828125 
Q 26.265625 48.1875 28.421875 48.1875 
Q 40.625 48.1875 47.75 41.5 
Q 54.890625 34.8125 54.890625 23.390625 
Q 54.890625 11.625 47.5625 5.09375 
Q 40.234375 -1.421875 26.90625 -1.421875 
Q 22.3125 -1.421875 17.546875 -0.640625 
Q 12.796875 0.140625 7.71875 1.703125 
L 7.71875 11.625 
Q 12.109375 9.234375 16.796875 8.0625 
Q 21.484375 6.890625 26.703125 6.890625 
Q 35.15625 6.890625 40.078125 11.328125 
Q 45.015625 15.765625 45.015625 23.390625 
Q 45.015625 31 40.078125 35.4375 
Q 35.15625 39.890625 26.703125 39.890625 
Q 22.75 39.890625 18.8125 39.015625 
Q 14.890625 38.140625 10.796875 36.28125 
z
" id="BitstreamVeraSans-Roman-35"/>
       <path d="M 40.578125 39.3125 
Q 47.65625 37.796875 51.625 33 
Q 55.609375 28.21875 55.609375 21.1875 
Q 55.609375 10.40625 48.1875 4.484375 
Q 40.765625 -1.421875 27.09375 -1.421875 
Q 22.515625 -1.421875 17.65625 -0.515625 
Q 12.796875 0.390625 7.625 2.203125 
L 7.625 11.71875 
Q 11.71875 9.328125 16.59375 8.109375 
Q 21.484375 6.890625 26.8125 6.890625 
Q 36.078125 6.890625 40.9375 10.546875 
Q 45.796875 14.203125 45.796875 21.1875 
Q 45.796875 27.640625 41.28125 31.265625 
Q 36.765625 34.90625 28.71875 34.90625 
L 20.21875 34.90625 
L 20.21875 43.015625 
L 29.109375 43.015625 
Q 36.375 43.015625 40.234375 45.921875 
Q 44.09375 48.828125 44.09375 54.296875 
Q 44.09375 59.90625 40.109375 62.90625 
Q 36.140625 65.921875 28.71875 65.921875 
Q 24.65625 65.921875 20.015625 65.03125 
Q 15.375 64.15625 9.8125 62.3125 
L 9.8125 71.09375 
Q 15.4375 72.65625 20.34375 73.4375 
Q 25.25 74.21875 29.59375 74.21875 
Q 40.828125 74.21875 47.359375 69.109375 
Q 53.90625 64.015625 53.90625 55.328125 
Q 53.90625 49.265625 50.4375 45.09375 
Q 46.96875 40.921875 40.578125 39.3125 
" id="BitstreamVeraSans-Roman-33"/>
       <path d="M 8.5 21.578125 
L 8.5 54.6875 
L 17.484375 54.6875 
L 17.484375 21.921875 
Q 17.484375 14.15625 20.5 10.265625 
Q 23.53125 6.390625 29.59375 6.390625 
Q 36.859375 6.390625 41.078125 11.03125 
Q 45.3125 15.671875 45.3125 23.6875 
L 45.3125 54.6875 
L 54.296875 54.6875 
L 54.296875 0 
L 45.3125 0 
L 45.3125 8.40625 
Q 42.046875 3.421875 37.71875 1 
Q 33.40625 -1.421875 27.6875 -1.421875 
Q 18.265625 -1.421875 13.375 4.4375 
Q 8.5 10.296875 8.5 21.578125 
" id="BitstreamVeraSans-Roman-75"/>
       <path d="M 8.203125 72.90625 
L 55.078125 72.90625 
L 55.078125 68.703125 
L 28.609375 0 
L 18.3125 0 
L 43.21875 64.59375 
L 8.203125 64.59375 
z
" id="BitstreamVeraSans-Roman-37"/>
      </defs>
      <g style="fill:#262626;" transform="translate(1075.99609375 718.99609375)scale(0.25 -0.25)">
       <use xlink:href="#BitstreamVeraSans-Roman-52"/>
       <use x="69.419921875" xlink:href="#BitstreamVeraSans-Roman-75"/>
       <use x="132.798828125" xlink:href="#BitstreamVeraSans-Roman-6e"/>
       <use x="196.177734375" xlink:href="#BitstreamVeraSans-Roman-20"/>
       <use x="227.96484375" xlink:href="#BitstreamVeraSans-Roman-28"/>
       <use x="266.978515625" xlink:href="#BitstreamVeraSans-Roman-6e"/>
       <use x="330.357421875" xlink:href="#BitstreamVeraSans-Roman-3d"/>
       <use x="414.146484375" xlink:href="#BitstreamVeraSans-Roman-33"/>
       <use x="477.76953125" xlink:href="#BitstreamVeraSans-Roman-35"/>
       <use x="541.392578125" xlink:href="#BitstreamVeraSans-Roman-37"/>
       <use x="605.015625" xlink:href="#BitstreamVeraSans-Roman-29"/>
      </g>
     </g>
    </g>
   </g>
   <g id="matplotlib.axis_2">
    <g id="ytick_1">
     <g id="line2d_9">
      <path clip-path="url(#pdfd1c95dfc)" d="M 180 693 
L 1296 693 
" style="fill:none;stroke:#ffffff;stroke-linecap:round;"/>
     </g>
     <g id="line2d_10">
      <g>
       <use style="fill:#262626;stroke:#262626;" x="180.0" xlink:href="#me98c730476" y="693.0"/>
      </g>
     </g>
     <g id="line2d_11">
      <g>
       <use style="fill:#262626;stroke:#262626;" x="1296.0" xlink:href="#me98c730476" y="693.0"/>
      </g>
     </g>
     <g id="text_5">
      <!-- −0.2 -->
      <defs>
       <path d="M 10.6875 12.40625 
L 21 12.40625 
L 21 0 
L 10.6875 0 
z
" id="BitstreamVeraSans-Roman-2e"/>
       <path d="M 19.1875 8.296875 
L 53.609375 8.296875 
L 53.609375 0 
L 7.328125 0 
L 7.328125 8.296875 
Q 12.9375 14.109375 22.625 23.890625 
Q 32.328125 33.6875 34.8125 36.53125 
Q 39.546875 41.84375 41.421875 45.53125 
Q 43.3125 49.21875 43.3125 52.78125 
Q 43.3125 58.59375 39.234375 62.25 
Q 35.15625 65.921875 28.609375 65.921875 
Q 23.96875 65.921875 18.8125 64.3125 
Q 13.671875 62.703125 7.8125 59.421875 
L 7.8125 69.390625 
Q 13.765625 71.78125 18.9375 73 
Q 24.125 74.21875 28.421875 74.21875 
Q 39.75 74.21875 46.484375 68.546875 
Q 53.21875 62.890625 53.21875 53.421875 
Q 53.21875 48.921875 51.53125 44.890625 
Q 49.859375 40.875 45.40625 35.40625 
Q 44.1875 33.984375 37.640625 27.21875 
Q 31.109375 20.453125 19.1875 8.296875 
" id="BitstreamVeraSans-Roman-32"/>
       <path d="M 10.59375 35.5 
L 73.1875 35.5 
L 73.1875 27.203125 
L 10.59375 27.203125 
z
" id="BitstreamVeraSans-Roman-2212"/>
       <path d="M 31.78125 66.40625 
Q 24.171875 66.40625 20.328125 58.90625 
Q 16.5 51.421875 16.5 36.375 
Q 16.5 21.390625 20.328125 13.890625 
Q 24.171875 6.390625 31.78125 6.390625 
Q 39.453125 6.390625 43.28125 13.890625 
Q 47.125 21.390625 47.125 36.375 
Q 47.125 51.421875 43.28125 58.90625 
Q 39.453125 66.40625 31.78125 66.40625 
M 31.78125 74.21875 
Q 44.046875 74.21875 50.515625 64.515625 
Q 56.984375 54.828125 56.984375 36.375 
Q 56.984375 17.96875 50.515625 8.265625 
Q 44.046875 -1.421875 31.78125 -1.421875 
Q 19.53125 -1.421875 13.0625 8.265625 
Q 6.59375 17.96875 6.59375 36.375 
Q 6.59375 54.828125 13.0625 64.515625 
Q 19.53125 74.21875 31.78125 74.21875 
" id="BitstreamVeraSans-Roman-30"/>
      </defs>
      <g style="fill:#262626;" transform="translate(112.29296875 699.8984375)scale(0.25 -0.25)">
       <use xlink:href="#BitstreamVeraSans-Roman-2212"/>
       <use x="83.7890625" xlink:href="#BitstreamVeraSans-Roman-30"/>
       <use x="147.412109375" xlink:href="#BitstreamVeraSans-Roman-2e"/>
       <use x="179.19921875" xlink:href="#BitstreamVeraSans-Roman-32"/>
      </g>
     </g>
    </g>
    <g id="ytick_2">
     <g id="line2d_12">
      <path clip-path="url(#pdfd1c95dfc)" d="M 180 616.275 
L 1296 616.275 
" style="fill:none;stroke:#ffffff;stroke-linecap:round;"/>
     </g>
     <g id="line2d_13">
      <g>
       <use style="fill:#262626;stroke:#262626;" x="180.0" xlink:href="#me98c730476" y="616.275"/>
      </g>
     </g>
     <g id="line2d_14">
      <g>
       <use style="fill:#262626;stroke:#262626;" x="1296.0" xlink:href="#me98c730476" y="616.275"/>
      </g>
     </g>
     <g id="text_6">
      <!-- 0.0 -->
      <g style="fill:#262626;" transform="translate(133.2421875 623.1734375)scale(0.25 -0.25)">
       <use xlink:href="#BitstreamVeraSans-Roman-30"/>
       <use x="63.623046875" xlink:href="#BitstreamVeraSans-Roman-2e"/>
       <use x="95.41015625" xlink:href="#BitstreamVeraSans-Roman-30"/>
      </g>
     </g>
    </g>
    <g id="ytick_3">
     <g id="line2d_15">
      <path clip-path="url(#pdfd1c95dfc)" d="M 180 539.55 
L 1296 539.55 
" style="fill:none;stroke:#ffffff;stroke-linecap:round;"/>
     </g>
     <g id="line2d_16">
      <g>
       <use style="fill:#262626;stroke:#262626;" x="180.0" xlink:href="#me98c730476" y="539.55"/>
      </g>
     </g>
     <g id="line2d_17">
      <g>
       <use style="fill:#262626;stroke:#262626;" x="1296.0" xlink:href="#me98c730476" y="539.55"/>
      </g>
     </g>
     <g id="text_7">
      <!-- 0.2 -->
      <g style="fill:#262626;" transform="translate(133.2421875 546.4484375)scale(0.25 -0.25)">
       <use xlink:href="#BitstreamVeraSans-Roman-30"/>
       <use x="63.623046875" xlink:href="#BitstreamVeraSans-Roman-2e"/>
       <use x="95.41015625" xlink:href="#BitstreamVeraSans-Roman-32"/>
      </g>
     </g>
    </g>
    <g id="ytick_4">
     <g id="line2d_18">
      <path clip-path="url(#pdfd1c95dfc)" d="M 180 462.825 
L 1296 462.825 
" style="fill:none;stroke:#ffffff;stroke-linecap:round;"/>
     </g>
     <g id="line2d_19">
      <g>
       <use style="fill:#262626;stroke:#262626;" x="180.0" xlink:href="#me98c730476" y="462.825"/>
      </g>
     </g>
     <g id="line2d_20">
      <g>
       <use style="fill:#262626;stroke:#262626;" x="1296.0" xlink:href="#me98c730476" y="462.825"/>
      </g>
     </g>
     <g id="text_8">
      <!-- 0.4 -->
      <defs>
       <path d="M 37.796875 64.3125 
L 12.890625 25.390625 
L 37.796875 25.390625 
z
M 35.203125 72.90625 
L 47.609375 72.90625 
L 47.609375 25.390625 
L 58.015625 25.390625 
L 58.015625 17.1875 
L 47.609375 17.1875 
L 47.609375 0 
L 37.796875 0 
L 37.796875 17.1875 
L 4.890625 17.1875 
L 4.890625 26.703125 
z
" id="BitstreamVeraSans-Roman-34"/>
      </defs>
      <g style="fill:#262626;" transform="translate(133.2421875 469.7234375)scale(0.25 -0.25)">
       <use xlink:href="#BitstreamVeraSans-Roman-30"/>
       <use x="63.623046875" xlink:href="#BitstreamVeraSans-Roman-2e"/>
       <use x="95.41015625" xlink:href="#BitstreamVeraSans-Roman-34"/>
      </g>
     </g>
    </g>
    <g id="ytick_5">
     <g id="line2d_21">
      <path clip-path="url(#pdfd1c95dfc)" d="M 180 386.1 
L 1296 386.1 
" style="fill:none;stroke:#ffffff;stroke-linecap:round;"/>
     </g>
     <g id="line2d_22">
      <g>
       <use style="fill:#262626;stroke:#262626;" x="180.0" xlink:href="#me98c730476" y="386.1"/>
      </g>
     </g>
     <g id="line2d_23">
      <g>
       <use style="fill:#262626;stroke:#262626;" x="1296.0" xlink:href="#me98c730476" y="386.1"/>
      </g>
     </g>
     <g id="text_9">
      <!-- 0.6 -->
      <defs>
       <path d="M 33.015625 40.375 
Q 26.375 40.375 22.484375 35.828125 
Q 18.609375 31.296875 18.609375 23.390625 
Q 18.609375 15.53125 22.484375 10.953125 
Q 26.375 6.390625 33.015625 6.390625 
Q 39.65625 6.390625 43.53125 10.953125 
Q 47.40625 15.53125 47.40625 23.390625 
Q 47.40625 31.296875 43.53125 35.828125 
Q 39.65625 40.375 33.015625 40.375 
M 52.59375 71.296875 
L 52.59375 62.3125 
Q 48.875 64.0625 45.09375 64.984375 
Q 41.3125 65.921875 37.59375 65.921875 
Q 27.828125 65.921875 22.671875 59.328125 
Q 17.53125 52.734375 16.796875 39.40625 
Q 19.671875 43.65625 24.015625 45.921875 
Q 28.375 48.1875 33.59375 48.1875 
Q 44.578125 48.1875 50.953125 41.515625 
Q 57.328125 34.859375 57.328125 23.390625 
Q 57.328125 12.15625 50.6875 5.359375 
Q 44.046875 -1.421875 33.015625 -1.421875 
Q 20.359375 -1.421875 13.671875 8.265625 
Q 6.984375 17.96875 6.984375 36.375 
Q 6.984375 53.65625 15.1875 63.9375 
Q 23.390625 74.21875 37.203125 74.21875 
Q 40.921875 74.21875 44.703125 73.484375 
Q 48.484375 72.75 52.59375 71.296875 
" id="BitstreamVeraSans-Roman-36"/>
      </defs>
      <g style="fill:#262626;" transform="translate(133.2421875 392.9984375)scale(0.25 -0.25)">
       <use xlink:href="#BitstreamVeraSans-Roman-30"/>
       <use x="63.623046875" xlink:href="#BitstreamVeraSans-Roman-2e"/>
       <use x="95.41015625" xlink:href="#BitstreamVeraSans-Roman-36"/>
      </g>
     </g>
    </g>
    <g id="ytick_6">
     <g id="line2d_24">
      <path clip-path="url(#pdfd1c95dfc)" d="M 180 309.375 
L 1296 309.375 
" style="fill:none;stroke:#ffffff;stroke-linecap:round;"/>
     </g>
     <g id="line2d_25">
      <g>
       <use style="fill:#262626;stroke:#262626;" x="180.0" xlink:href="#me98c730476" y="309.375"/>
      </g>
     </g>
     <g id="line2d_26">
      <g>
       <use style="fill:#262626;stroke:#262626;" x="1296.0" xlink:href="#me98c730476" y="309.375"/>
      </g>
     </g>
     <g id="text_10">
      <!-- 0.8 -->
      <g style="fill:#262626;" transform="translate(133.2421875 316.2734375)scale(0.25 -0.25)">
       <use xlink:href="#BitstreamVeraSans-Roman-30"/>
       <use x="63.623046875" xlink:href="#BitstreamVeraSans-Roman-2e"/>
       <use x="95.41015625" xlink:href="#BitstreamVeraSans-Roman-38"/>
      </g>
     </g>
    </g>
    <g id="ytick_7">
     <g id="line2d_27">
      <path clip-path="url(#pdfd1c95dfc)" d="M 180 232.65 
L 1296 232.65 
" style="fill:none;stroke:#ffffff;stroke-linecap:round;"/>
     </g>
     <g id="line2d_28">
      <g>
       <use style="fill:#262626;stroke:#262626;" x="180.0" xlink:href="#me98c730476" y="232.65"/>
      </g>
     </g>
     <g id="line2d_29">
      <g>
       <use style="fill:#262626;stroke:#262626;" x="1296.0" xlink:href="#me98c730476" y="232.65"/>
      </g>
     </g>
     <g id="text_11">
      <!-- 1.0 -->
      <g style="fill:#262626;" transform="translate(133.2421875 239.5484375)scale(0.25 -0.25)">
       <use xlink:href="#BitstreamVeraSans-Roman-31"/>
       <use x="63.623046875" xlink:href="#BitstreamVeraSans-Roman-2e"/>
       <use x="95.41015625" xlink:href="#BitstreamVeraSans-Roman-30"/>
      </g>
     </g>
    </g>
    <g id="ytick_8">
     <g id="line2d_30">
      <path clip-path="url(#pdfd1c95dfc)" d="M 180 155.925 
L 1296 155.925 
" style="fill:none;stroke:#ffffff;stroke-linecap:round;"/>
     </g>
     <g id="line2d_31">
      <g>
       <use style="fill:#262626;stroke:#262626;" x="180.0" xlink:href="#me98c730476" y="155.925"/>
      </g>
     </g>
     <g id="line2d_32">
      <g>
       <use style="fill:#262626;stroke:#262626;" x="1296.0" xlink:href="#me98c730476" y="155.925"/>
      </g>
     </g>
     <g id="text_12">
      <!-- 1.2 -->
      <g style="fill:#262626;" transform="translate(133.2421875 162.8234375)scale(0.25 -0.25)">
       <use xlink:href="#BitstreamVeraSans-Roman-31"/>
       <use x="63.623046875" xlink:href="#BitstreamVeraSans-Roman-2e"/>
       <use x="95.41015625" xlink:href="#BitstreamVeraSans-Roman-32"/>
      </g>
     </g>
    </g>
    <g id="ytick_9">
     <g id="line2d_33">
      <path clip-path="url(#pdfd1c95dfc)" d="M 180 79.2 
L 1296 79.2 
" style="fill:none;stroke:#ffffff;stroke-linecap:round;"/>
     </g>
     <g id="line2d_34">
      <g>
       <use style="fill:#262626;stroke:#262626;" x="180.0" xlink:href="#me98c730476" y="79.2"/>
      </g>
     </g>
     <g id="line2d_35">
      <g>
       <use style="fill:#262626;stroke:#262626;" x="1296.0" xlink:href="#me98c730476" y="79.2"/>
      </g>
     </g>
     <g id="text_13">
      <!-- 1.4 -->
      <g style="fill:#262626;" transform="translate(133.2421875 86.0984375)scale(0.25 -0.25)">
       <use xlink:href="#BitstreamVeraSans-Roman-31"/>
       <use x="63.623046875" xlink:href="#BitstreamVeraSans-Roman-2e"/>
       <use x="95.41015625" xlink:href="#BitstreamVeraSans-Roman-34"/>
      </g>
     </g>
    </g>
    <g id="text_14">
     <!-- Distance -->
     <defs>
      <path d="M 19.671875 64.796875 
L 19.671875 8.109375 
L 31.59375 8.109375 
Q 46.6875 8.109375 53.6875 14.9375 
Q 60.6875 21.78125 60.6875 36.53125 
Q 60.6875 51.171875 53.6875 57.984375 
Q 46.6875 64.796875 31.59375 64.796875 
z
M 9.8125 72.90625 
L 30.078125 72.90625 
Q 51.265625 72.90625 61.171875 64.09375 
Q 71.09375 55.28125 71.09375 36.53125 
Q 71.09375 17.671875 61.125 8.828125 
Q 51.171875 0 30.078125 0 
L 9.8125 0 
z
" id="BitstreamVeraSans-Roman-44"/>
      <path d="M 44.28125 53.078125 
L 44.28125 44.578125 
Q 40.484375 46.53125 36.375 47.5 
Q 32.28125 48.484375 27.875 48.484375 
Q 21.1875 48.484375 17.84375 46.4375 
Q 14.5 44.390625 14.5 40.28125 
Q 14.5 37.15625 16.890625 35.375 
Q 19.28125 33.59375 26.515625 31.984375 
L 29.59375 31.296875 
Q 39.15625 29.25 43.1875 25.515625 
Q 47.21875 21.78125 47.21875 15.09375 
Q 47.21875 7.46875 41.1875 3.015625 
Q 35.15625 -1.421875 24.609375 -1.421875 
Q 20.21875 -1.421875 15.453125 -0.5625 
Q 10.6875 0.296875 5.421875 2 
L 5.421875 11.28125 
Q 10.40625 8.6875 15.234375 7.390625 
Q 20.0625 6.109375 24.8125 6.109375 
Q 31.15625 6.109375 34.5625 8.28125 
Q 37.984375 10.453125 37.984375 14.40625 
Q 37.984375 18.0625 35.515625 20.015625 
Q 33.0625 21.96875 24.703125 23.78125 
L 21.578125 24.515625 
Q 13.234375 26.265625 9.515625 29.90625 
Q 5.8125 33.546875 5.8125 39.890625 
Q 5.8125 47.609375 11.28125 51.796875 
Q 16.75 56 26.8125 56 
Q 31.78125 56 36.171875 55.265625 
Q 40.578125 54.546875 44.28125 53.078125 
" id="BitstreamVeraSans-Roman-73"/>
     </defs>
     <g style="fill:#262626;" transform="translate(101.573828125 446.221875)rotate(-90.0)scale(0.275 -0.275)">
      <use xlink:href="#BitstreamVeraSans-Roman-44"/>
      <use x="77.001953125" xlink:href="#BitstreamVeraSans-Roman-69"/>
      <use x="104.78515625" xlink:href="#BitstreamVeraSans-Roman-73"/>
      <use x="156.884765625" xlink:href="#BitstreamVeraSans-Roman-74"/>
      <use x="196.09375" xlink:href="#BitstreamVeraSans-Roman-61"/>
      <use x="257.373046875" xlink:href="#BitstreamVeraSans-Roman-6e"/>
      <use x="320.751953125" xlink:href="#BitstreamVeraSans-Roman-63"/>
      <use x="375.732421875" xlink:href="#BitstreamVeraSans-Roman-65"/>
     </g>
    </g>
   </g>
   <g id="PolyCollection_1">
    <defs>
     <path d="M 263.712831 -187.924481 
L 263.687169 -187.924481 
L 263.664304 -191.607341 
L 263.619147 -195.290202 
L 263.546695 -198.973062 
L 263.446002 -202.655922 
L 263.313406 -206.338783 
L 263.141154 -210.021643 
L 262.932689 -213.704504 
L 262.715995 -217.387364 
L 262.528694 -221.070224 
L 262.388952 -224.753085 
L 262.287264 -228.435945 
L 262.195735 -232.118806 
L 262.063951 -235.801666 
L 261.803334 -239.484526 
L 261.294345 -243.167387 
L 260.428967 -246.850247 
L 259.160035 -250.533108 
L 257.518851 -254.215968 
L 255.583787 -257.898828 
L 253.409061 -261.581689 
L 250.952418 -265.264549 
L 248.085983 -268.94741 
L 244.748242 -272.63027 
L 241.112556 -276.31313 
L 237.541143 -279.995991 
L 234.333985 -283.678851 
L 231.564307 -287.361712 
L 229.154651 -291.044572 
L 227.03112 -294.727432 
L 225.184737 -298.410293 
L 223.644473 -302.093153 
L 222.415357 -305.776014 
L 221.434824 -309.458874 
L 220.608643 -313.141734 
L 219.878615 -316.824595 
L 219.202219 -320.507455 
L 218.492967 -324.190316 
L 217.677665 -327.873176 
L 216.80968 -331.556036 
L 216.027524 -335.238897 
L 215.371809 -338.921757 
L 214.691231 -342.604618 
L 213.754046 -346.287478 
L 212.451592 -349.970338 
L 210.911333 -353.653199 
L 209.442582 -357.336059 
L 208.374634 -361.01892 
L 207.9 -364.70178 
L 208.018299 -368.38464 
L 208.599409 -372.067501 
L 209.479531 -375.750361 
L 210.532216 -379.433222 
L 211.750222 -383.116082 
L 213.28667 -386.798942 
L 215.336633 -390.481803 
L 217.947515 -394.164663 
L 220.983496 -397.847524 
L 224.260808 -401.530384 
L 227.652727 -405.213244 
L 231.059515 -408.896105 
L 234.353958 -412.578965 
L 237.400784 -416.261826 
L 240.099233 -419.944686 
L 242.41262 -423.627546 
L 244.411096 -427.310407 
L 246.268853 -430.993267 
L 248.145503 -434.676128 
L 250.052719 -438.358988 
L 251.862803 -442.041848 
L 253.443464 -445.724709 
L 254.769872 -449.407569 
L 255.921614 -453.09043 
L 256.991868 -456.77329 
L 258.002244 -460.45615 
L 258.90633 -464.139011 
L 259.672173 -467.821871 
L 260.336735 -471.504732 
L 260.961217 -475.187592 
L 261.554219 -478.870452 
L 262.066045 -482.553313 
L 262.448155 -486.236173 
L 262.699006 -489.919034 
L 262.860374 -493.601894 
L 262.985633 -497.284754 
L 263.10998 -500.967615 
L 263.238682 -504.650475 
L 263.356993 -508.333336 
L 263.451206 -512.016196 
L 263.520442 -515.699056 
L 263.570777 -519.381917 
L 263.605367 -523.064777 
L 263.624639 -526.747638 
L 263.632493 -530.430498 
L 263.637281 -534.113358 
L 263.646197 -537.796219 
L 263.660413 -541.479079 
L 263.675913 -545.16194 
L 263.688114 -548.8448 
L 263.695301 -552.52766 
L 263.704699 -552.52766 
L 263.704699 -552.52766 
L 263.711886 -548.8448 
L 263.724087 -545.16194 
L 263.739587 -541.479079 
L 263.753803 -537.796219 
L 263.762719 -534.113358 
L 263.767507 -530.430498 
L 263.775361 -526.747638 
L 263.794633 -523.064777 
L 263.829223 -519.381917 
L 263.879558 -515.699056 
L 263.948794 -512.016196 
L 264.043007 -508.333336 
L 264.161318 -504.650475 
L 264.29002 -500.967615 
L 264.414367 -497.284754 
L 264.539626 -493.601894 
L 264.700994 -489.919034 
L 264.951845 -486.236173 
L 265.333955 -482.553313 
L 265.845781 -478.870452 
L 266.438783 -475.187592 
L 267.063265 -471.504732 
L 267.727827 -467.821871 
L 268.49367 -464.139011 
L 269.397756 -460.45615 
L 270.408132 -456.77329 
L 271.478386 -453.09043 
L 272.630128 -449.407569 
L 273.956536 -445.724709 
L 275.537197 -442.041848 
L 277.347281 -438.358988 
L 279.254497 -434.676128 
L 281.131147 -430.993267 
L 282.988904 -427.310407 
L 284.98738 -423.627546 
L 287.300767 -419.944686 
L 289.999216 -416.261826 
L 293.046042 -412.578965 
L 296.340485 -408.896105 
L 299.747273 -405.213244 
L 303.139192 -401.530384 
L 306.416504 -397.847524 
L 309.452485 -394.164663 
L 312.063367 -390.481803 
L 314.11333 -386.798942 
L 315.649778 -383.116082 
L 316.867784 -379.433222 
L 317.920469 -375.750361 
L 318.800591 -372.067501 
L 319.381701 -368.38464 
L 319.5 -364.70178 
L 319.025366 -361.01892 
L 317.957418 -357.336059 
L 316.488667 -353.653199 
L 314.948408 -349.970338 
L 313.645954 -346.287478 
L 312.708769 -342.604618 
L 312.028191 -338.921757 
L 311.372476 -335.238897 
L 310.59032 -331.556036 
L 309.722335 -327.873176 
L 308.907033 -324.190316 
L 308.197781 -320.507455 
L 307.521385 -316.824595 
L 306.791357 -313.141734 
L 305.965176 -309.458874 
L 304.984643 -305.776014 
L 303.755527 -302.093153 
L 302.215263 -298.410293 
L 300.36888 -294.727432 
L 298.245349 -291.044572 
L 295.835693 -287.361712 
L 293.066015 -283.678851 
L 289.858857 -279.995991 
L 286.287444 -276.31313 
L 282.651758 -272.63027 
L 279.314017 -268.94741 
L 276.447582 -265.264549 
L 273.990939 -261.581689 
L 271.816213 -257.898828 
L 269.881149 -254.215968 
L 268.239965 -250.533108 
L 266.971033 -246.850247 
L 266.105655 -243.167387 
L 265.596666 -239.484526 
L 265.336049 -235.801666 
L 265.204265 -232.118806 
L 265.112736 -228.435945 
L 265.011048 -224.753085 
L 264.871306 -221.070224 
L 264.684005 -217.387364 
L 264.467311 -213.704504 
L 264.258846 -210.021643 
L 264.086594 -206.338783 
L 263.953998 -202.655922 
L 263.853305 -198.973062 
L 263.780853 -195.290202 
L 263.735696 -191.607341 
L 263.712831 -187.924481 
z
" id="m0cba486f5d" style="stroke:#3c3c3c;stroke-width:1.75;"/>
    </defs>
    <g clip-path="url(#pdfd1c95dfc)">
     <use style="fill:#ebf2c3;stroke:#3c3c3c;stroke-width:1.75;" x="0.0" xlink:href="#m0cba486f5d" y="792.0"/>
    </g>
   </g>
   <g id="PolyCollection_2">
    <defs>
     <path d="M 375.316853 -186.039234 
L 375.283147 -186.039234 
L 375.253847 -189.738829 
L 375.191639 -193.438423 
L 375.080602 -197.138017 
L 374.91449 -200.837611 
L 374.707553 -204.537205 
L 374.494969 -208.236799 
L 374.316546 -211.936393 
L 374.192211 -215.635987 
L 374.108851 -219.335582 
L 374.029636 -223.035176 
L 373.915752 -226.73477 
L 373.741627 -230.434364 
L 373.496602 -234.133958 
L 373.176317 -237.833552 
L 372.763369 -241.533146 
L 372.199812 -245.23274 
L 371.373741 -248.932335 
L 370.145995 -252.631929 
L 368.407218 -256.331523 
L 366.119736 -260.031117 
L 363.319256 -263.730711 
L 360.103446 -267.430305 
L 356.634894 -271.129899 
L 353.133514 -274.829493 
L 349.821255 -278.529087 
L 346.843075 -282.228682 
L 344.236463 -285.928276 
L 341.976709 -289.62787 
L 340.035091 -293.327464 
L 338.382124 -297.027058 
L 336.962855 -300.726652 
L 335.714641 -304.426246 
L 334.613527 -308.12584 
L 333.666863 -311.825435 
L 332.848299 -315.525029 
L 332.08037 -319.224623 
L 331.313521 -322.924217 
L 330.593871 -326.623811 
L 330.00861 -330.323405 
L 329.563147 -334.022999 
L 329.127918 -337.722593 
L 328.506514 -341.422188 
L 327.571713 -345.121782 
L 326.373827 -348.821376 
L 325.12758 -352.52097 
L 324.061111 -356.220564 
L 323.248119 -359.920158 
L 322.589694 -363.619752 
L 321.969528 -367.319346 
L 321.413591 -371.018941 
L 321.082898 -374.718535 
L 321.131144 -378.418129 
L 321.602146 -382.117723 
L 322.45768 -385.817317 
L 323.669953 -389.516911 
L 325.278902 -393.216505 
L 327.385337 -396.916099 
L 330.107032 -400.615693 
L 333.513816 -404.315288 
L 337.541659 -408.014882 
L 341.934551 -411.714476 
L 346.296692 -415.41407 
L 350.245637 -419.113664 
L 353.54457 -422.813258 
L 356.131948 -426.512852 
L 358.089448 -430.212446 
L 359.606814 -433.912041 
L 360.930202 -437.611635 
L 362.27241 -441.311229 
L 363.729995 -445.010823 
L 365.273272 -448.710417 
L 366.811309 -452.410011 
L 368.266457 -456.109605 
L 369.597154 -459.809199 
L 370.774418 -463.508794 
L 371.76669 -467.208388 
L 372.55964 -470.907982 
L 373.177452 -474.607576 
L 373.66958 -478.30717 
L 374.077741 -482.006764 
L 374.419717 -485.706358 
L 374.697034 -489.405952 
L 374.908094 -493.105546 
L 375.055125 -496.805141 
L 375.146765 -500.504735 
L 375.198215 -504.204329 
L 375.227254 -507.903923 
L 375.247348 -511.603517 
L 375.263482 -515.303111 
L 375.274028 -519.002705 
L 375.276023 -522.702299 
L 375.26946 -526.401894 
L 375.258664 -530.101488 
L 375.250572 -533.801082 
L 375.250691 -537.500676 
L 375.259517 -541.20027 
L 375.272728 -544.899864 
L 375.284935 -548.599458 
L 375.293177 -552.299052 
L 375.306823 -552.299052 
L 375.306823 -552.299052 
L 375.315065 -548.599458 
L 375.327272 -544.899864 
L 375.340483 -541.20027 
L 375.349309 -537.500676 
L 375.349428 -533.801082 
L 375.341336 -530.101488 
L 375.33054 -526.401894 
L 375.323977 -522.702299 
L 375.325972 -519.002705 
L 375.336518 -515.303111 
L 375.352652 -511.603517 
L 375.372746 -507.903923 
L 375.401785 -504.204329 
L 375.453235 -500.504735 
L 375.544875 -496.805141 
L 375.691906 -493.105546 
L 375.902966 -489.405952 
L 376.180283 -485.706358 
L 376.522259 -482.006764 
L 376.93042 -478.30717 
L 377.422548 -474.607576 
L 378.04036 -470.907982 
L 378.83331 -467.208388 
L 379.825582 -463.508794 
L 381.002846 -459.809199 
L 382.333543 -456.109605 
L 383.788691 -452.410011 
L 385.326728 -448.710417 
L 386.870005 -445.010823 
L 388.32759 -441.311229 
L 389.669798 -437.611635 
L 390.993186 -433.912041 
L 392.510552 -430.212446 
L 394.468052 -426.512852 
L 397.05543 -422.813258 
L 400.354363 -419.113664 
L 404.303308 -415.41407 
L 408.665449 -411.714476 
L 413.058341 -408.014882 
L 417.086184 -404.315288 
L 420.492968 -400.615693 
L 423.214663 -396.916099 
L 425.321098 -393.216505 
L 426.930047 -389.516911 
L 428.14232 -385.817317 
L 428.997854 -382.117723 
L 429.468856 -378.418129 
L 429.517102 -374.718535 
L 429.186409 -371.018941 
L 428.630472 -367.319346 
L 428.010306 -363.619752 
L 427.351881 -359.920158 
L 426.538889 -356.220564 
L 425.47242 -352.52097 
L 424.226173 -348.821376 
L 423.028287 -345.121782 
L 422.093486 -341.422188 
L 421.472082 -337.722593 
L 421.036853 -334.022999 
L 420.59139 -330.323405 
L 420.006129 -326.623811 
L 419.286479 -322.924217 
L 418.51963 -319.224623 
L 417.751701 -315.525029 
L 416.933137 -311.825435 
L 415.986473 -308.12584 
L 414.885359 -304.426246 
L 413.637145 -300.726652 
L 412.217876 -297.027058 
L 410.564909 -293.327464 
L 408.623291 -289.62787 
L 406.363537 -285.928276 
L 403.756925 -282.228682 
L 400.778745 -278.529087 
L 397.466486 -274.829493 
L 393.965106 -271.129899 
L 390.496554 -267.430305 
L 387.280744 -263.730711 
L 384.480264 -260.031117 
L 382.192782 -256.331523 
L 380.454005 -252.631929 
L 379.226259 -248.932335 
L 378.400188 -245.23274 
L 377.836631 -241.533146 
L 377.423683 -237.833552 
L 377.103398 -234.133958 
L 376.858373 -230.434364 
L 376.684248 -226.73477 
L 376.570364 -223.035176 
L 376.491149 -219.335582 
L 376.407789 -215.635987 
L 376.283454 -211.936393 
L 376.105031 -208.236799 
L 375.892447 -204.537205 
L 375.68551 -200.837611 
L 375.519398 -197.138017 
L 375.408361 -193.438423 
L 375.346153 -189.738829 
L 375.316853 -186.039234 
z
" id="mc2f8b717f4" style="stroke:#3c3c3c;stroke-width:1.75;"/>
    </defs>
    <g clip-path="url(#pdfd1c95dfc)">
     <use style="fill:#325c96;stroke:#3c3c3c;stroke-width:1.75;" x="0.0" xlink:href="#mc2f8b717f4" y="792.0"/>
    </g>
   </g>
   <g id="PolyCollection_3">
    <defs>
     <path d="M 542.721651 -188.398416 
L 542.678349 -188.398416 
L 542.640663 -192.083682 
L 542.565237 -195.768948 
L 542.442629 -199.454215 
L 542.27851 -203.139481 
L 542.093463 -206.824748 
L 541.91128 -210.510014 
L 541.746114 -214.19528 
L 541.599061 -217.880547 
L 541.464692 -221.565813 
L 541.338703 -225.25108 
L 541.215264 -228.936346 
L 541.073336 -232.621613 
L 540.867812 -236.306879 
L 540.53745 -239.992145 
L 540.017009 -243.677412 
L 539.235865 -247.362678 
L 538.113827 -251.047945 
L 536.580438 -254.733211 
L 534.608783 -258.418477 
L 532.218149 -262.103744 
L 529.439392 -265.78901 
L 526.307986 -269.474277 
L 522.919939 -273.159543 
L 519.474232 -276.844809 
L 516.213635 -280.530076 
L 513.302777 -284.215342 
L 510.761917 -287.900609 
L 508.503438 -291.585875 
L 506.424912 -295.271142 
L 504.499668 -298.956408 
L 502.806772 -302.641674 
L 501.456294 -306.326941 
L 500.464689 -310.012207 
L 499.703259 -313.697474 
L 498.959422 -317.38274 
L 498.055843 -321.068006 
L 496.963669 -324.753273 
L 495.834641 -328.438539 
L 494.89082 -332.123806 
L 494.235357 -335.809072 
L 493.75143 -339.494339 
L 493.180966 -343.179605 
L 492.310408 -346.864871 
L 491.119425 -350.550138 
L 489.798396 -354.235404 
L 488.633029 -357.920671 
L 487.84018 -361.605937 
L 487.47715 -365.291203 
L 487.47315 -368.97647 
L 487.707601 -372.661736 
L 488.069316 -376.347003 
L 488.530235 -380.032269 
L 489.218105 -383.717536 
L 490.363834 -387.402802 
L 492.120812 -391.088068 
L 494.459078 -394.773335 
L 497.263019 -398.458601 
L 500.488218 -402.143868 
L 504.153112 -405.829134 
L 508.174753 -409.5144 
L 512.284071 -413.199667 
L 516.139641 -416.884933 
L 519.486035 -420.5702 
L 522.20355 -424.255466 
L 524.301887 -427.940732 
L 525.931134 -431.625999 
L 527.344491 -435.311265 
L 528.767207 -438.996532 
L 530.280996 -442.681798 
L 531.835733 -446.367065 
L 533.346981 -450.052331 
L 534.766862 -453.737597 
L 536.081921 -457.422864 
L 537.273529 -461.10813 
L 538.302984 -464.793397 
L 539.144312 -468.478663 
L 539.818766 -472.163929 
L 540.379301 -475.849196 
L 540.865531 -479.534462 
L 541.285832 -483.219729 
L 541.634519 -486.904995 
L 541.909783 -490.590262 
L 542.11609 -494.275528 
L 542.261051 -497.960794 
L 542.354839 -501.646061 
L 542.410953 -505.331327 
L 542.445874 -509.016594 
L 542.475867 -512.70186 
L 542.5107 -516.387126 
L 542.549101 -520.072393 
L 542.582125 -523.757659 
L 542.602873 -527.442926 
L 542.61324 -531.128192 
L 542.621514 -534.813458 
L 542.634539 -538.498725 
L 542.652678 -542.183991 
L 542.67128 -545.869258 
L 542.685614 -549.554524 
L 542.694114 -553.239791 
L 542.705886 -553.239791 
L 542.705886 -553.239791 
L 542.714386 -549.554524 
L 542.72872 -545.869258 
L 542.747322 -542.183991 
L 542.765461 -538.498725 
L 542.778486 -534.813458 
L 542.78676 -531.128192 
L 542.797127 -527.442926 
L 542.817875 -523.757659 
L 542.850899 -520.072393 
L 542.8893 -516.387126 
L 542.924133 -512.70186 
L 542.954126 -509.016594 
L 542.989047 -505.331327 
L 543.045161 -501.646061 
L 543.138949 -497.960794 
L 543.28391 -494.275528 
L 543.490217 -490.590262 
L 543.765481 -486.904995 
L 544.114168 -483.219729 
L 544.534469 -479.534462 
L 545.020699 -475.849196 
L 545.581234 -472.163929 
L 546.255688 -468.478663 
L 547.097016 -464.793397 
L 548.126471 -461.10813 
L 549.318079 -457.422864 
L 550.633138 -453.737597 
L 552.053019 -450.052331 
L 553.564267 -446.367065 
L 555.119004 -442.681798 
L 556.632793 -438.996532 
L 558.055509 -435.311265 
L 559.468866 -431.625999 
L 561.098113 -427.940732 
L 563.19645 -424.255466 
L 565.913965 -420.5702 
L 569.260359 -416.884933 
L 573.115929 -413.199667 
L 577.225247 -409.5144 
L 581.246888 -405.829134 
L 584.911782 -402.143868 
L 588.136981 -398.458601 
L 590.940922 -394.773335 
L 593.279188 -391.088068 
L 595.036166 -387.402802 
L 596.181895 -383.717536 
L 596.869765 -380.032269 
L 597.330684 -376.347003 
L 597.692399 -372.661736 
L 597.92685 -368.97647 
L 597.92285 -365.291203 
L 597.55982 -361.605937 
L 596.766971 -357.920671 
L 595.601604 -354.235404 
L 594.280575 -350.550138 
L 593.089592 -346.864871 
L 592.219034 -343.179605 
L 591.64857 -339.494339 
L 591.164643 -335.809072 
L 590.50918 -332.123806 
L 589.565359 -328.438539 
L 588.436331 -324.753273 
L 587.344157 -321.068006 
L 586.440578 -317.38274 
L 585.696741 -313.697474 
L 584.935311 -310.012207 
L 583.943706 -306.326941 
L 582.593228 -302.641674 
L 580.900332 -298.956408 
L 578.975088 -295.271142 
L 576.896562 -291.585875 
L 574.638083 -287.900609 
L 572.097223 -284.215342 
L 569.186365 -280.530076 
L 565.925768 -276.844809 
L 562.480061 -273.159543 
L 559.092014 -269.474277 
L 555.960608 -265.78901 
L 553.181851 -262.103744 
L 550.791217 -258.418477 
L 548.819562 -254.733211 
L 547.286173 -251.047945 
L 546.164135 -247.362678 
L 545.382991 -243.677412 
L 544.86255 -239.992145 
L 544.532188 -236.306879 
L 544.326664 -232.621613 
L 544.184736 -228.936346 
L 544.061297 -225.25108 
L 543.935308 -221.565813 
L 543.800939 -217.880547 
L 543.653886 -214.19528 
L 543.48872 -210.510014 
L 543.306537 -206.824748 
L 543.12149 -203.139481 
L 542.957371 -199.454215 
L 542.834763 -195.768948 
L 542.759337 -192.083682 
L 542.721651 -188.398416 
z
" id="md66fffd350" style="stroke:#3c3c3c;stroke-width:1.75;"/>
    </defs>
    <g clip-path="url(#pdfd1c95dfc)">
     <use style="fill:#ebf2c3;stroke:#3c3c3c;stroke-width:1.75;" x="0.0" xlink:href="#md66fffd350" y="792.0"/>
    </g>
   </g>
   <g id="PolyCollection_4">
    <defs>
     <path d="M 654.313408 -187.071288 
L 654.286592 -187.071288 
L 654.26522 -190.750033 
L 654.223425 -194.428778 
L 654.153099 -198.107522 
L 654.047226 -201.786267 
L 653.900699 -205.465011 
L 653.715454 -209.143756 
L 653.50907 -212.8225 
L 653.313644 -216.501245 
L 653.15589 -220.179989 
L 653.03498 -223.858734 
L 652.923956 -227.537478 
L 652.790703 -231.216223 
L 652.606449 -234.894968 
L 652.326379 -238.573712 
L 651.866412 -242.252457 
L 651.112619 -245.931201 
L 649.96997 -249.609946 
L 648.412584 -253.28869 
L 646.483734 -256.967435 
L 644.23305 -260.646179 
L 641.64499 -264.324924 
L 638.645841 -268.003668 
L 635.218898 -271.682413 
L 631.526176 -275.361158 
L 627.878487 -279.039902 
L 624.549594 -282.718647 
L 621.64022 -286.397391 
L 619.139386 -290.076136 
L 617.052473 -293.75488 
L 615.396045 -297.433625 
L 614.099375 -301.112369 
L 613.000956 -304.791114 
L 611.970891 -308.469858 
L 611.004822 -312.148603 
L 610.1835 -315.827348 
L 609.55905 -319.506092 
L 609.089326 -323.184837 
L 608.668492 -326.863581 
L 608.205176 -330.542326 
L 607.661973 -334.22107 
L 607.014087 -337.899815 
L 606.184603 -341.578559 
L 605.068222 -345.257304 
L 603.656187 -348.936048 
L 602.116635 -352.614793 
L 600.711025 -356.293538 
L 599.628131 -359.972282 
L 598.909679 -363.651027 
L 598.526201 -367.329771 
L 598.5 -371.008516 
L 598.922011 -374.68726 
L 599.838433 -378.366005 
L 601.1685 -382.044749 
L 602.784517 -385.723494 
L 604.655053 -389.402238 
L 606.865197 -393.080983 
L 609.499339 -396.759728 
L 612.537431 -400.438472 
L 615.86355 -404.117217 
L 619.329431 -407.795961 
L 622.782186 -411.474706 
L 626.060771 -415.15345 
L 629.020168 -418.832195 
L 631.595329 -422.510939 
L 633.846516 -426.189684 
L 635.918298 -429.868428 
L 637.928103 -433.547173 
L 639.888456 -437.225918 
L 641.729562 -440.904662 
L 643.376549 -444.583407 
L 644.805198 -448.262151 
L 646.051042 -451.940896 
L 647.179096 -455.61964 
L 648.233031 -459.298385 
L 649.206303 -462.977129 
L 650.068932 -466.655874 
L 650.818687 -470.334618 
L 651.488869 -474.013363 
L 652.103089 -477.692108 
L 652.641081 -481.370852 
L 653.060322 -485.049597 
L 653.343431 -488.728341 
L 653.518513 -492.407086 
L 653.639983 -496.08583 
L 653.755146 -499.764575 
L 653.883252 -503.443319 
L 654.015703 -507.122064 
L 654.131311 -510.800808 
L 654.213901 -514.479553 
L 654.260711 -518.158298 
L 654.279191 -521.837042 
L 654.279675 -525.515787 
L 654.271593 -529.194531 
L 654.263314 -532.873276 
L 654.261212 -536.55202 
L 654.267083 -540.230765 
L 654.277645 -543.909509 
L 654.287855 -547.588254 
L 654.294723 -551.266998 
L 654.305277 -551.266998 
L 654.305277 -551.266998 
L 654.312145 -547.588254 
L 654.322355 -543.909509 
L 654.332917 -540.230765 
L 654.338788 -536.55202 
L 654.336686 -532.873276 
L 654.328407 -529.194531 
L 654.320325 -525.515787 
L 654.320809 -521.837042 
L 654.339289 -518.158298 
L 654.386099 -514.479553 
L 654.468689 -510.800808 
L 654.584297 -507.122064 
L 654.716748 -503.443319 
L 654.844854 -499.764575 
L 654.960017 -496.08583 
L 655.081487 -492.407086 
L 655.256569 -488.728341 
L 655.539678 -485.049597 
L 655.958919 -481.370852 
L 656.496911 -477.692108 
L 657.111131 -474.013363 
L 657.781313 -470.334618 
L 658.531068 -466.655874 
L 659.393697 -462.977129 
L 660.366969 -459.298385 
L 661.420904 -455.61964 
L 662.548958 -451.940896 
L 663.794802 -448.262151 
L 665.223451 -444.583407 
L 666.870438 -440.904662 
L 668.711544 -437.225918 
L 670.671897 -433.547173 
L 672.681702 -429.868428 
L 674.753484 -426.189684 
L 677.004671 -422.510939 
L 679.579832 -418.832195 
L 682.539229 -415.15345 
L 685.817814 -411.474706 
L 689.270569 -407.795961 
L 692.73645 -404.117217 
L 696.062569 -400.438472 
L 699.100661 -396.759728 
L 701.734803 -393.080983 
L 703.944947 -389.402238 
L 705.815483 -385.723494 
L 707.4315 -382.044749 
L 708.761567 -378.366005 
L 709.677989 -374.68726 
L 710.1 -371.008516 
L 710.073799 -367.329771 
L 709.690321 -363.651027 
L 708.971869 -359.972282 
L 707.888975 -356.293538 
L 706.483365 -352.614793 
L 704.943813 -348.936048 
L 703.531778 -345.257304 
L 702.415397 -341.578559 
L 701.585913 -337.899815 
L 700.938027 -334.22107 
L 700.394824 -330.542326 
L 699.931508 -326.863581 
L 699.510674 -323.184837 
L 699.04095 -319.506092 
L 698.4165 -315.827348 
L 697.595178 -312.148603 
L 696.629109 -308.469858 
L 695.599044 -304.791114 
L 694.500625 -301.112369 
L 693.203955 -297.433625 
L 691.547527 -293.75488 
L 689.460614 -290.076136 
L 686.95978 -286.397391 
L 684.050406 -282.718647 
L 680.721513 -279.039902 
L 677.073824 -275.361158 
L 673.381102 -271.682413 
L 669.954159 -268.003668 
L 666.95501 -264.324924 
L 664.36695 -260.646179 
L 662.116266 -256.967435 
L 660.187416 -253.28869 
L 658.63003 -249.609946 
L 657.487381 -245.931201 
L 656.733588 -242.252457 
L 656.273621 -238.573712 
L 655.993551 -234.894968 
L 655.809297 -231.216223 
L 655.676044 -227.537478 
L 655.56502 -223.858734 
L 655.44411 -220.179989 
L 655.286356 -216.501245 
L 655.09093 -212.8225 
L 654.884546 -209.143756 
L 654.699301 -205.465011 
L 654.552774 -201.786267 
L 654.446901 -198.107522 
L 654.376575 -194.428778 
L 654.33478 -190.750033 
L 654.313408 -187.071288 
z
" id="m5c9b124147" style="stroke:#3c3c3c;stroke-width:1.75;"/>
    </defs>
    <g clip-path="url(#pdfd1c95dfc)">
     <use style="fill:#325c96;stroke:#3c3c3c;stroke-width:1.75;" x="0.0" xlink:href="#m5c9b124147" y="792.0"/>
    </g>
   </g>
   <g id="PolyCollection_5">
    <defs>
     <path d="M 821.713956 -188.124237 
L 821.686044 -188.124237 
L 821.660548 -191.802625 
L 821.609688 -195.481013 
L 821.52897 -199.159401 
L 821.423044 -202.837789 
L 821.299752 -206.516177 
L 821.163423 -210.194565 
L 821.020828 -213.872953 
L 820.888846 -217.551342 
L 820.784982 -221.22973 
L 820.71338 -224.908118 
L 820.664096 -228.586506 
L 820.611026 -232.264894 
L 820.502881 -235.943282 
L 820.272053 -239.62167 
L 819.859213 -243.300058 
L 819.220356 -246.978446 
L 818.319368 -250.656834 
L 817.139929 -254.335223 
L 815.705264 -258.013611 
L 814.056991 -261.691999 
L 812.208211 -265.370387 
L 810.159645 -269.048775 
L 807.991673 -272.727163 
L 805.894881 -276.405551 
L 804.041012 -280.083939 
L 802.430705 -283.762327 
L 800.924578 -287.440715 
L 799.420392 -291.119103 
L 797.955059 -294.797492 
L 796.645223 -298.47588 
L 795.559395 -302.154268 
L 794.627967 -305.832656 
L 793.669134 -309.511044 
L 792.533393 -313.189432 
L 791.218191 -316.86782 
L 789.818139 -320.546208 
L 788.393509 -324.224596 
L 786.932727 -327.902984 
L 785.430827 -331.581373 
L 783.93881 -335.259761 
L 782.481606 -338.938149 
L 780.958137 -342.616537 
L 779.20934 -346.294925 
L 777.197011 -349.973313 
L 775.055321 -353.651701 
L 772.967053 -357.330089 
L 771.035884 -361.008477 
L 769.283307 -364.686865 
L 767.757818 -368.365254 
L 766.615807 -372.043642 
L 766.029713 -375.72203 
L 766.030625 -379.400418 
L 766.531787 -383.078806 
L 767.496416 -386.757194 
L 768.991333 -390.435582 
L 771.078205 -394.11397 
L 773.733876 -397.792358 
L 776.899849 -401.470746 
L 780.533483 -405.149134 
L 784.533495 -408.827523 
L 788.648575 -412.505911 
L 792.541111 -416.184299 
L 795.94453 -419.862687 
L 798.74527 -423.541075 
L 800.976441 -427.219463 
L 802.793565 -430.897851 
L 804.421625 -434.576239 
L 806.046216 -438.254627 
L 807.718787 -441.933015 
L 809.370757 -445.611404 
L 810.920954 -449.289792 
L 812.362867 -452.96818 
L 813.745827 -456.646568 
L 815.084235 -460.324956 
L 816.3147 -464.003344 
L 817.360154 -467.681732 
L 818.214141 -471.36012 
L 818.931076 -475.038508 
L 819.548814 -478.716896 
L 820.059253 -482.395285 
L 820.448082 -486.073673 
L 820.727072 -489.752061 
L 820.925057 -493.430449 
L 821.070612 -497.108837 
L 821.187167 -500.787225 
L 821.290257 -504.465613 
L 821.383838 -508.144001 
L 821.464409 -511.822389 
L 821.529329 -515.500777 
L 821.578164 -519.179166 
L 821.609307 -522.857554 
L 821.621697 -526.535942 
L 821.620692 -530.21433 
L 821.618454 -533.892718 
L 821.625854 -537.571106 
L 821.644263 -541.249494 
L 821.666296 -544.927882 
L 821.683808 -548.60627 
L 821.693863 -552.284658 
L 821.706137 -552.284658 
L 821.706137 -552.284658 
L 821.716192 -548.60627 
L 821.733704 -544.927882 
L 821.755737 -541.249494 
L 821.774146 -537.571106 
L 821.781546 -533.892718 
L 821.779308 -530.21433 
L 821.778303 -526.535942 
L 821.790693 -522.857554 
L 821.821836 -519.179166 
L 821.870671 -515.500777 
L 821.935591 -511.822389 
L 822.016162 -508.144001 
L 822.109743 -504.465613 
L 822.212833 -500.787225 
L 822.329388 -497.108837 
L 822.474943 -493.430449 
L 822.672928 -489.752061 
L 822.951918 -486.073673 
L 823.340747 -482.395285 
L 823.851186 -478.716896 
L 824.468924 -475.038508 
L 825.185859 -471.36012 
L 826.039846 -467.681732 
L 827.0853 -464.003344 
L 828.315765 -460.324956 
L 829.654173 -456.646568 
L 831.037133 -452.96818 
L 832.479046 -449.289792 
L 834.029243 -445.611404 
L 835.681213 -441.933015 
L 837.353784 -438.254627 
L 838.978375 -434.576239 
L 840.606435 -430.897851 
L 842.423559 -427.219463 
L 844.65473 -423.541075 
L 847.45547 -419.862687 
L 850.858889 -416.184299 
L 854.751425 -412.505911 
L 858.866505 -408.827523 
L 862.866517 -405.149134 
L 866.500151 -401.470746 
L 869.666124 -397.792358 
L 872.321795 -394.11397 
L 874.408667 -390.435582 
L 875.903584 -386.757194 
L 876.868213 -383.078806 
L 877.369375 -379.400418 
L 877.370287 -375.72203 
L 876.784193 -372.043642 
L 875.642182 -368.365254 
L 874.116693 -364.686865 
L 872.364116 -361.008477 
L 870.432947 -357.330089 
L 868.344679 -353.651701 
L 866.202989 -349.973313 
L 864.19066 -346.294925 
L 862.441863 -342.616537 
L 860.918394 -338.938149 
L 859.46119 -335.259761 
L 857.969173 -331.581373 
L 856.467273 -327.902984 
L 855.006491 -324.224596 
L 853.581861 -320.546208 
L 852.181809 -316.86782 
L 850.866607 -313.189432 
L 849.730866 -309.511044 
L 848.772033 -305.832656 
L 847.840605 -302.154268 
L 846.754777 -298.47588 
L 845.444941 -294.797492 
L 843.979608 -291.119103 
L 842.475422 -287.440715 
L 840.969295 -283.762327 
L 839.358988 -280.083939 
L 837.505119 -276.405551 
L 835.408327 -272.727163 
L 833.240355 -269.048775 
L 831.191789 -265.370387 
L 829.343009 -261.691999 
L 827.694736 -258.013611 
L 826.260071 -254.335223 
L 825.080632 -250.656834 
L 824.179644 -246.978446 
L 823.540787 -243.300058 
L 823.127947 -239.62167 
L 822.897119 -235.943282 
L 822.788974 -232.264894 
L 822.735904 -228.586506 
L 822.68662 -224.908118 
L 822.615018 -221.22973 
L 822.511154 -217.551342 
L 822.379172 -213.872953 
L 822.236577 -210.194565 
L 822.100248 -206.516177 
L 821.976956 -202.837789 
L 821.87103 -199.159401 
L 821.790312 -195.481013 
L 821.739452 -191.802625 
L 821.713956 -188.124237 
z
" id="mf81459bde8" style="stroke:#3c3c3c;stroke-width:1.75;"/>
    </defs>
    <g clip-path="url(#pdfd1c95dfc)">
     <use style="fill:#ebf2c3;stroke:#3c3c3c;stroke-width:1.75;" x="0.0" xlink:href="#mf81459bde8" y="792.0"/>
    </g>
   </g>
   <g id="PolyCollection_6">
    <defs>
     <path d="M 933.314643 -188.372954 
L 933.285357 -188.372954 
L 933.262569 -191.645032 
L 933.216167 -194.91711 
L 933.134187 -198.189188 
L 933.008125 -201.461266 
L 932.839142 -204.733344 
L 932.641301 -208.005422 
L 932.437629 -211.277499 
L 932.24952 -214.549577 
L 932.085936 -217.821655 
L 931.939422 -221.093733 
L 931.790877 -224.365811 
L 931.620432 -227.637889 
L 931.418516 -230.909967 
L 931.186569 -234.182045 
L 930.919045 -237.454123 
L 930.575681 -240.726201 
L 930.069797 -243.998279 
L 929.28909 -247.270357 
L 928.135989 -250.542435 
L 926.558067 -253.814512 
L 924.548992 -257.08659 
L 922.119463 -260.358668 
L 919.254329 -263.630746 
L 915.891425 -266.902824 
L 911.962963 -270.174902 
L 907.497018 -273.44698 
L 902.701836 -276.719058 
L 897.938156 -279.991136 
L 893.576553 -283.263214 
L 889.850026 -286.535292 
L 886.807749 -289.80737 
L 884.364032 -293.079448 
L 882.371529 -296.351525 
L 880.69083 -299.623603 
L 879.26549 -302.895681 
L 878.167496 -306.167759 
L 877.547786 -309.439837 
L 877.5 -312.711915 
L 877.947801 -315.983993 
L 878.665987 -319.256071 
L 879.429515 -322.528149 
L 880.162786 -325.800227 
L 880.954757 -329.072305 
L 881.930463 -332.344383 
L 883.104258 -335.616461 
L 884.341861 -338.888538 
L 885.440083 -342.160616 
L 886.244887 -345.432694 
L 886.741108 -348.704772 
L 887.083828 -351.97685 
L 887.550086 -355.248928 
L 888.417345 -358.521006 
L 889.832675 -361.793084 
L 891.75292 -365.065162 
L 893.981969 -368.33724 
L 896.266355 -371.609318 
L 898.392593 -374.881396 
L 900.252354 -378.153474 
L 901.86322 -381.425551 
L 903.338844 -384.697629 
L 904.81791 -387.969707 
L 906.391284 -391.241785 
L 908.072978 -394.513863 
L 909.825175 -397.785941 
L 911.605121 -401.058019 
L 913.390746 -404.330097 
L 915.169319 -407.602175 
L 916.913189 -410.874253 
L 918.575481 -414.146331 
L 920.108708 -417.418409 
L 921.486069 -420.690487 
L 922.714189 -423.962564 
L 923.834602 -427.234642 
L 924.905081 -430.50672 
L 925.962478 -433.778798 
L 926.996714 -437.050876 
L 927.963495 -440.322954 
L 928.821898 -443.595032 
L 929.557246 -446.86711 
L 930.174076 -450.139188 
L 930.680128 -453.411266 
L 931.082099 -456.683344 
L 931.389834 -459.955422 
L 931.618424 -463.2275 
L 931.788928 -466.499577 
L 931.93042 -469.771655 
L 932.076632 -473.043733 
L 932.252007 -476.315811 
L 932.456498 -479.587889 
L 932.664572 -482.859967 
L 932.842203 -486.132045 
L 932.969359 -489.404123 
L 933.050432 -492.676201 
L 933.105674 -495.948279 
L 933.153476 -499.220357 
L 933.199642 -502.492435 
L 933.240009 -505.764513 
L 933.269324 -509.03659 
L 933.286703 -512.308668 
L 933.313297 -512.308668 
L 933.313297 -512.308668 
L 933.330676 -509.03659 
L 933.359991 -505.764513 
L 933.400358 -502.492435 
L 933.446524 -499.220357 
L 933.494326 -495.948279 
L 933.549568 -492.676201 
L 933.630641 -489.404123 
L 933.757797 -486.132045 
L 933.935428 -482.859967 
L 934.143502 -479.587889 
L 934.347993 -476.315811 
L 934.523368 -473.043733 
L 934.66958 -469.771655 
L 934.811072 -466.499577 
L 934.981576 -463.2275 
L 935.210166 -459.955422 
L 935.517901 -456.683344 
L 935.919872 -453.411266 
L 936.425924 -450.139188 
L 937.042754 -446.86711 
L 937.778102 -443.595032 
L 938.636505 -440.322954 
L 939.603286 -437.050876 
L 940.637522 -433.778798 
L 941.694919 -430.50672 
L 942.765398 -427.234642 
L 943.885811 -423.962564 
L 945.113931 -420.690487 
L 946.491292 -417.418409 
L 948.024519 -414.146331 
L 949.686811 -410.874253 
L 951.430681 -407.602175 
L 953.209254 -404.330097 
L 954.994879 -401.058019 
L 956.774825 -397.785941 
L 958.527022 -394.513863 
L 960.208716 -391.241785 
L 961.78209 -387.969707 
L 963.261156 -384.697629 
L 964.73678 -381.425551 
L 966.347646 -378.153474 
L 968.207407 -374.881396 
L 970.333645 -371.609318 
L 972.618031 -368.33724 
L 974.84708 -365.065162 
L 976.767325 -361.793084 
L 978.182655 -358.521006 
L 979.049914 -355.248928 
L 979.516172 -351.97685 
L 979.858892 -348.704772 
L 980.355113 -345.432694 
L 981.159917 -342.160616 
L 982.258139 -338.888538 
L 983.495742 -335.616461 
L 984.669537 -332.344383 
L 985.645243 -329.072305 
L 986.437214 -325.800227 
L 987.170485 -322.528149 
L 987.934013 -319.256071 
L 988.652199 -315.983993 
L 989.1 -312.711915 
L 989.052214 -309.439837 
L 988.432504 -306.167759 
L 987.33451 -302.895681 
L 985.90917 -299.623603 
L 984.228471 -296.351525 
L 982.235968 -293.079448 
L 979.792251 -289.80737 
L 976.749974 -286.535292 
L 973.023447 -283.263214 
L 968.661844 -279.991136 
L 963.898164 -276.719058 
L 959.102982 -273.44698 
L 954.637037 -270.174902 
L 950.708575 -266.902824 
L 947.345671 -263.630746 
L 944.480537 -260.358668 
L 942.051008 -257.08659 
L 940.041933 -253.814512 
L 938.464011 -250.542435 
L 937.31091 -247.270357 
L 936.530203 -243.998279 
L 936.024319 -240.726201 
L 935.680955 -237.454123 
L 935.413431 -234.182045 
L 935.181484 -230.909967 
L 934.979568 -227.637889 
L 934.809123 -224.365811 
L 934.660578 -221.093733 
L 934.514064 -217.821655 
L 934.35048 -214.549577 
L 934.162371 -211.277499 
L 933.958699 -208.005422 
L 933.760858 -204.733344 
L 933.591875 -201.461266 
L 933.465813 -198.189188 
L 933.383833 -194.91711 
L 933.337431 -191.645032 
L 933.314643 -188.372954 
z
" id="md8d7ae5d49" style="stroke:#3c3c3c;stroke-width:1.75;"/>
    </defs>
    <g clip-path="url(#pdfd1c95dfc)">
     <use style="fill:#325c96;stroke:#3c3c3c;stroke-width:1.75;" x="0.0" xlink:href="#md8d7ae5d49" y="792.0"/>
    </g>
   </g>
   <g id="PolyCollection_7">
    <defs>
     <path d="M 1100.702427 -250.894414 
L 1100.697573 -250.894414 
L 1100.68829 -254.473168 
L 1100.658501 -258.051923 
L 1100.58831 -261.630677 
L 1100.464535 -265.209431 
L 1100.295683 -268.788186 
L 1100.108637 -272.36694 
L 1099.922309 -275.945695 
L 1099.710486 -279.524449 
L 1099.403283 -283.103203 
L 1098.972872 -286.681958 
L 1098.517421 -290.260712 
L 1098.154232 -293.839466 
L 1097.858079 -297.418221 
L 1097.540622 -300.996975 
L 1097.185234 -304.575729 
L 1096.855705 -308.154484 
L 1096.610228 -311.733238 
L 1096.387601 -315.311992 
L 1096.091267 -318.890747 
L 1095.737418 -322.469501 
L 1095.372635 -326.048255 
L 1094.994278 -329.62701 
L 1094.630042 -333.205764 
L 1094.327843 -336.784518 
L 1094.035927 -340.363273 
L 1093.539966 -343.942027 
L 1092.569579 -347.520782 
L 1091.052118 -351.099536 
L 1089.224579 -354.67829 
L 1087.341052 -358.257045 
L 1085.323945 -361.835799 
L 1082.846597 -365.414553 
L 1079.738359 -368.993308 
L 1076.141685 -372.572062 
L 1072.294008 -376.150816 
L 1068.4137 -379.729571 
L 1064.667063 -383.308325 
L 1061.081681 -386.887079 
L 1057.54162 -390.465834 
L 1053.944123 -394.044588 
L 1050.437655 -397.623342 
L 1047.497879 -401.202097 
L 1045.638215 -404.780851 
L 1044.9 -408.359606 
L 1045.006929 -411.93836 
L 1045.864877 -415.517114 
L 1047.422065 -419.095869 
L 1049.585945 -422.674623 
L 1052.223385 -426.253377 
L 1055.112548 -429.832132 
L 1058.272746 -433.410886 
L 1061.833585 -436.98964 
L 1065.59199 -440.568395 
L 1069.238418 -444.147149 
L 1072.6348 -447.725903 
L 1075.649226 -451.304658 
L 1078.166952 -454.883412 
L 1080.285908 -458.462166 
L 1082.260024 -462.040921 
L 1084.243663 -465.619675 
L 1086.13419 -469.198429 
L 1087.739336 -472.777184 
L 1089.0731 -476.355938 
L 1090.286619 -479.934693 
L 1091.40651 -483.513447 
L 1092.330807 -487.092201 
L 1093.000539 -490.670956 
L 1093.536986 -494.24971 
L 1094.143155 -497.828464 
L 1094.852129 -501.407219 
L 1095.54115 -504.985973 
L 1096.165578 -508.564727 
L 1096.801933 -512.143482 
L 1097.521415 -515.722236 
L 1098.31255 -519.30099 
L 1099.044971 -522.879745 
L 1099.561969 -526.458499 
L 1099.864833 -530.037253 
L 1100.065742 -533.616008 
L 1100.231272 -537.194762 
L 1100.371512 -540.773516 
L 1100.476976 -544.352271 
L 1100.54281 -547.931025 
L 1100.577251 -551.50978 
L 1100.593511 -555.088534 
L 1100.603559 -558.667288 
L 1100.612835 -562.246043 
L 1100.622239 -565.824797 
L 1100.63501 -569.403551 
L 1100.652325 -572.982306 
L 1100.668318 -576.56106 
L 1100.678718 -580.139814 
L 1100.683929 -583.718569 
L 1100.684061 -587.297323 
L 1100.681551 -590.876077 
L 1100.68228 -594.454832 
L 1100.68807 -598.033586 
L 1100.694692 -601.61234 
L 1100.698489 -605.191095 
L 1100.701511 -605.191095 
L 1100.701511 -605.191095 
L 1100.705308 -601.61234 
L 1100.71193 -598.033586 
L 1100.71772 -594.454832 
L 1100.718449 -590.876077 
L 1100.715939 -587.297323 
L 1100.716071 -583.718569 
L 1100.721282 -580.139814 
L 1100.731682 -576.56106 
L 1100.747675 -572.982306 
L 1100.76499 -569.403551 
L 1100.777761 -565.824797 
L 1100.787165 -562.246043 
L 1100.796441 -558.667288 
L 1100.806489 -555.088534 
L 1100.822749 -551.50978 
L 1100.85719 -547.931025 
L 1100.923024 -544.352271 
L 1101.028488 -540.773516 
L 1101.168728 -537.194762 
L 1101.334258 -533.616008 
L 1101.535167 -530.037253 
L 1101.838031 -526.458499 
L 1102.355029 -522.879745 
L 1103.08745 -519.30099 
L 1103.878585 -515.722236 
L 1104.598067 -512.143482 
L 1105.234422 -508.564727 
L 1105.85885 -504.985973 
L 1106.547871 -501.407219 
L 1107.256845 -497.828464 
L 1107.863014 -494.24971 
L 1108.399461 -490.670956 
L 1109.069193 -487.092201 
L 1109.99349 -483.513447 
L 1111.113381 -479.934693 
L 1112.3269 -476.355938 
L 1113.660664 -472.777184 
L 1115.26581 -469.198429 
L 1117.156337 -465.619675 
L 1119.139976 -462.040921 
L 1121.114092 -458.462166 
L 1123.233048 -454.883412 
L 1125.750774 -451.304658 
L 1128.7652 -447.725903 
L 1132.161582 -444.147149 
L 1135.80801 -440.568395 
L 1139.566415 -436.98964 
L 1143.127254 -433.410886 
L 1146.287452 -429.832132 
L 1149.176615 -426.253377 
L 1151.814055 -422.674623 
L 1153.977935 -419.095869 
L 1155.535123 -415.517114 
L 1156.393071 -411.93836 
L 1156.5 -408.359606 
L 1155.761785 -404.780851 
L 1153.902121 -401.202097 
L 1150.962345 -397.623342 
L 1147.455877 -394.044588 
L 1143.85838 -390.465834 
L 1140.318319 -386.887079 
L 1136.732937 -383.308325 
L 1132.9863 -379.729571 
L 1129.105992 -376.150816 
L 1125.258315 -372.572062 
L 1121.661641 -368.993308 
L 1118.553403 -365.414553 
L 1116.076055 -361.835799 
L 1114.058948 -358.257045 
L 1112.175421 -354.67829 
L 1110.347882 -351.099536 
L 1108.830421 -347.520782 
L 1107.860034 -343.942027 
L 1107.364073 -340.363273 
L 1107.072157 -336.784518 
L 1106.769958 -333.205764 
L 1106.405722 -329.62701 
L 1106.027365 -326.048255 
L 1105.662582 -322.469501 
L 1105.308733 -318.890747 
L 1105.012399 -315.311992 
L 1104.789772 -311.733238 
L 1104.544295 -308.154484 
L 1104.214766 -304.575729 
L 1103.859378 -300.996975 
L 1103.541921 -297.418221 
L 1103.245768 -293.839466 
L 1102.882579 -290.260712 
L 1102.427128 -286.681958 
L 1101.996717 -283.103203 
L 1101.689514 -279.524449 
L 1101.477691 -275.945695 
L 1101.291363 -272.36694 
L 1101.104317 -268.788186 
L 1100.935465 -265.209431 
L 1100.81169 -261.630677 
L 1100.741499 -258.051923 
L 1100.71171 -254.473168 
L 1100.702427 -250.894414 
z
" id="m0af5a4d89f" style="stroke:#3c3c3c;stroke-width:1.75;"/>
    </defs>
    <g clip-path="url(#pdfd1c95dfc)">
     <use style="fill:#ebf2c3;stroke:#3c3c3c;stroke-width:1.75;" x="0.0" xlink:href="#m0af5a4d89f" y="792.0"/>
    </g>
   </g>
   <g id="PolyCollection_8">
    <defs>
     <path d="M 1212.307041 -188.848378 
L 1212.292959 -188.848378 
L 1212.273742 -193.267432 
L 1212.228581 -197.686486 
L 1212.151243 -202.10554 
L 1212.047345 -206.524595 
L 1211.929356 -210.943649 
L 1211.814678 -215.362703 
L 1211.720376 -219.781757 
L 1211.646102 -224.200811 
L 1211.575441 -228.619865 
L 1211.488986 -233.03892 
L 1211.353467 -237.457974 
L 1211.103911 -241.877028 
L 1210.645426 -246.296082 
L 1209.882022 -250.715136 
L 1208.764854 -255.134191 
L 1207.311695 -259.553245 
L 1205.53926 -263.972299 
L 1203.380653 -268.391353 
L 1200.797869 -272.810407 
L 1198.017081 -277.229461 
L 1195.440999 -281.648516 
L 1193.252718 -286.06757 
L 1191.350533 -290.486624 
L 1189.654149 -294.905678 
L 1188.190499 -299.324732 
L 1186.975457 -303.743787 
L 1186.014019 -308.162841 
L 1185.317358 -312.581895 
L 1184.816354 -317.000949 
L 1184.333127 -321.420003 
L 1183.772393 -325.839058 
L 1183.26361 -330.258112 
L 1182.961909 -334.677166 
L 1182.79549 -339.09622 
L 1182.493626 -343.515274 
L 1181.823178 -347.934328 
L 1180.809695 -352.353383 
L 1179.722613 -356.772437 
L 1178.829174 -361.191491 
L 1178.216657 -365.610545 
L 1177.883432 -370.029599 
L 1177.850696 -374.448654 
L 1178.072849 -378.867708 
L 1178.496033 -383.286762 
L 1179.234978 -387.705816 
L 1180.418733 -392.12487 
L 1181.976567 -396.543924 
L 1183.774551 -400.962979 
L 1185.85135 -405.382033 
L 1188.294291 -409.801087 
L 1190.934847 -414.220141 
L 1193.400778 -418.639195 
L 1195.425259 -423.05825 
L 1197.019531 -427.477304 
L 1198.392401 -431.896358 
L 1199.73636 -436.315412 
L 1201.109279 -440.734466 
L 1202.471667 -445.15352 
L 1203.767877 -449.572575 
L 1204.983612 -453.991629 
L 1206.146398 -458.410683 
L 1207.235145 -462.829737 
L 1208.140425 -467.248791 
L 1208.805599 -471.667846 
L 1209.31495 -476.0869 
L 1209.755416 -480.505954 
L 1210.111679 -484.925008 
L 1210.358265 -489.344062 
L 1210.542551 -493.763117 
L 1210.727026 -498.182171 
L 1210.927059 -502.601225 
L 1211.13065 -507.020279 
L 1211.326176 -511.439333 
L 1211.507302 -515.858387 
L 1211.674254 -520.277442 
L 1211.817956 -524.696496 
L 1211.919711 -529.11555 
L 1211.987032 -533.534604 
L 1212.047712 -537.953658 
L 1212.102741 -542.372713 
L 1212.134139 -546.791767 
L 1212.147102 -551.210821 
L 1212.162994 -555.629875 
L 1212.190226 -560.048929 
L 1212.223058 -564.467983 
L 1212.25125 -568.887038 
L 1212.266769 -573.306092 
L 1212.270066 -577.725146 
L 1212.267944 -582.1442 
L 1212.264786 -586.563254 
L 1212.262981 -590.982309 
L 1212.267058 -595.401363 
L 1212.276917 -599.820417 
L 1212.285199 -604.239471 
L 1212.287828 -608.658525 
L 1212.288607 -613.077579 
L 1212.29156 -617.496634 
L 1212.295698 -621.915688 
L 1212.298536 -626.334742 
L 1212.301464 -626.334742 
L 1212.301464 -626.334742 
L 1212.304302 -621.915688 
L 1212.30844 -617.496634 
L 1212.311393 -613.077579 
L 1212.312172 -608.658525 
L 1212.314801 -604.239471 
L 1212.323083 -599.820417 
L 1212.332942 -595.401363 
L 1212.337019 -590.982309 
L 1212.335214 -586.563254 
L 1212.332056 -582.1442 
L 1212.329934 -577.725146 
L 1212.333231 -573.306092 
L 1212.34875 -568.887038 
L 1212.376942 -564.467983 
L 1212.409774 -560.048929 
L 1212.437006 -555.629875 
L 1212.452898 -551.210821 
L 1212.465861 -546.791767 
L 1212.497259 -542.372713 
L 1212.552288 -537.953658 
L 1212.612968 -533.534604 
L 1212.680289 -529.11555 
L 1212.782044 -524.696496 
L 1212.925746 -520.277442 
L 1213.092698 -515.858387 
L 1213.273824 -511.439333 
L 1213.46935 -507.020279 
L 1213.672941 -502.601225 
L 1213.872974 -498.182171 
L 1214.057449 -493.763117 
L 1214.241735 -489.344062 
L 1214.488321 -484.925008 
L 1214.844584 -480.505954 
L 1215.28505 -476.0869 
L 1215.794401 -471.667846 
L 1216.459575 -467.248791 
L 1217.364855 -462.829737 
L 1218.453602 -458.410683 
L 1219.616388 -453.991629 
L 1220.832123 -449.572575 
L 1222.128333 -445.15352 
L 1223.490721 -440.734466 
L 1224.86364 -436.315412 
L 1226.207599 -431.896358 
L 1227.580469 -427.477304 
L 1229.174741 -423.05825 
L 1231.199222 -418.639195 
L 1233.665153 -414.220141 
L 1236.305709 -409.801087 
L 1238.74865 -405.382033 
L 1240.825449 -400.962979 
L 1242.623433 -396.543924 
L 1244.181267 -392.12487 
L 1245.365022 -387.705816 
L 1246.103967 -383.286762 
L 1246.527151 -378.867708 
L 1246.749304 -374.448654 
L 1246.716568 -370.029599 
L 1246.383343 -365.610545 
L 1245.770826 -361.191491 
L 1244.877387 -356.772437 
L 1243.790305 -352.353383 
L 1242.776822 -347.934328 
L 1242.106374 -343.515274 
L 1241.80451 -339.09622 
L 1241.638091 -334.677166 
L 1241.33639 -330.258112 
L 1240.827607 -325.839058 
L 1240.266873 -321.420003 
L 1239.783646 -317.000949 
L 1239.282642 -312.581895 
L 1238.585981 -308.162841 
L 1237.624543 -303.743787 
L 1236.409501 -299.324732 
L 1234.945851 -294.905678 
L 1233.249467 -290.486624 
L 1231.347282 -286.06757 
L 1229.159001 -281.648516 
L 1226.582919 -277.229461 
L 1223.802131 -272.810407 
L 1221.219347 -268.391353 
L 1219.06074 -263.972299 
L 1217.288305 -259.553245 
L 1215.835146 -255.134191 
L 1214.717978 -250.715136 
L 1213.954574 -246.296082 
L 1213.496089 -241.877028 
L 1213.246533 -237.457974 
L 1213.111014 -233.03892 
L 1213.024559 -228.619865 
L 1212.953898 -224.200811 
L 1212.879624 -219.781757 
L 1212.785322 -215.362703 
L 1212.670644 -210.943649 
L 1212.552655 -206.524595 
L 1212.448757 -202.10554 
L 1212.371419 -197.686486 
L 1212.326258 -193.267432 
L 1212.307041 -188.848378 
z
" id="m1af2364511" style="stroke:#3c3c3c;stroke-width:1.75;"/>
    </defs>
    <g clip-path="url(#pdfd1c95dfc)">
     <use style="fill:#325c96;stroke:#3c3c3c;stroke-width:1.75;" x="0.0" xlink:href="#m1af2364511" y="792.0"/>
    </g>
   </g>
   <g id="patch_3">
    <path clip-path="url(#pdfd1c95dfc)" d="M 319.5 616.275 
L 319.5 616.275 
L 319.5 616.275 
L 319.5 616.275 
z
" style="fill:#ebf2c3;stroke:#3c3c3c;stroke-linejoin:miter;stroke-width:0.875;"/>
   </g>
   <g id="patch_4">
    <path clip-path="url(#pdfd1c95dfc)" d="M 319.5 616.275 
L 319.5 616.275 
L 319.5 616.275 
L 319.5 616.275 
z
" style="fill:#325c96;stroke:#3c3c3c;stroke-linejoin:miter;stroke-width:0.875;"/>
   </g>
   <g id="line2d_36">
    <path clip-path="url(#pdfd1c95dfc)" d="M 263.7 581.397311 
L 263.7 297.645056 
" style="fill:none;stroke:#3c3c3c;stroke-linecap:round;stroke-width:1.75;"/>
   </g>
   <g id="line2d_37">
    <path clip-path="url(#pdfd1c95dfc)" d="M 263.7 475.569017 
L 263.7 404.354681 
" style="fill:none;stroke:#3c3c3c;stroke-linecap:round;stroke-width:5.25;"/>
   </g>
   <g id="line2d_38">
    <path clip-path="url(#pdfd1c95dfc)" d="M 375.3 586.253908 
L 375.3 299.038021 
" style="fill:none;stroke:#3c3c3c;stroke-linecap:round;stroke-width:1.75;"/>
   </g>
   <g id="line2d_39">
    <path clip-path="url(#pdfd1c95dfc)" d="M 375.3 476.047934 
L 375.3 402.382462 
" style="fill:none;stroke:#3c3c3c;stroke-linecap:round;stroke-width:5.25;"/>
   </g>
   <g id="line2d_40">
    <path clip-path="url(#pdfd1c95dfc)" d="M 542.7 582.361879 
L 542.7 299.038021 
" style="fill:none;stroke:#3c3c3c;stroke-linecap:round;stroke-width:1.75;"/>
   </g>
   <g id="line2d_41">
    <path clip-path="url(#pdfd1c95dfc)" d="M 542.7 475.084113 
L 542.7 403.148237 
" style="fill:none;stroke:#3c3c3c;stroke-linecap:round;stroke-width:5.25;"/>
   </g>
   <g id="line2d_42">
    <path clip-path="url(#pdfd1c95dfc)" d="M 654.3 584.336339 
L 654.3 297.006086 
" style="fill:none;stroke:#3c3c3c;stroke-linecap:round;stroke-width:1.75;"/>
   </g>
   <g id="line2d_43">
    <path clip-path="url(#pdfd1c95dfc)" d="M 654.3 476.290501 
L 654.3 403.963838 
" style="fill:none;stroke:#3c3c3c;stroke-linecap:round;stroke-width:5.25;"/>
   </g>
   <g id="line2d_44">
    <path clip-path="url(#pdfd1c95dfc)" d="M 821.7 563.36409 
L 821.7 297.006086 
" style="fill:none;stroke:#3c3c3c;stroke-linecap:round;stroke-width:1.75;"/>
   </g>
   <g id="line2d_45">
    <path clip-path="url(#pdfd1c95dfc)" d="M 821.7 463.422048 
L 821.7 396.529911 
" style="fill:none;stroke:#3c3c3c;stroke-linecap:round;stroke-width:5.25;"/>
   </g>
   <g id="line2d_46">
    <path clip-path="url(#pdfd1c95dfc)" d="M 933.3 582.361879 
L 933.3 330.531351 
" style="fill:none;stroke:#3c3c3c;stroke-linecap:round;stroke-width:1.75;"/>
   </g>
   <g id="line2d_47">
    <path clip-path="url(#pdfd1c95dfc)" d="M 933.3 489.506823 
L 933.3 425.741832 
" style="fill:none;stroke:#3c3c3c;stroke-linecap:round;stroke-width:5.25;"/>
   </g>
   <g id="line2d_48">
    <path clip-path="url(#pdfd1c95dfc)" d="M 1100.7 474.24135 
L 1100.7 284.148449 
" style="fill:none;stroke:#3c3c3c;stroke-linecap:round;stroke-width:1.75;"/>
   </g>
   <g id="line2d_49">
    <path clip-path="url(#pdfd1c95dfc)" d="M 1100.7 403.017464 
L 1100.7 355.468523 
" style="fill:none;stroke:#3c3c3c;stroke-linecap:round;stroke-width:5.25;"/>
   </g>
   <g id="line2d_50">
    <path clip-path="url(#pdfd1c95dfc)" d="M 1212.3 585.665389 
L 1212.3 282.412074 
" style="fill:none;stroke:#3c3c3c;stroke-linecap:round;stroke-width:1.75;"/>
   </g>
   <g id="line2d_51">
    <path clip-path="url(#pdfd1c95dfc)" d="M 1212.3 472.217786 
L 1212.3 396.294777 
" style="fill:none;stroke:#3c3c3c;stroke-linecap:round;stroke-width:5.25;"/>
   </g>
   <g id="patch_5">
    <path d="M 180 693 
L 1296 693 
" style="fill:none;"/>
   </g>
   <g id="patch_6">
    <path d="M 180 693 
L 180 79.2 
" style="fill:none;"/>
   </g>
   <g id="patch_7">
    <path d="M 180 79.2 
L 1296 79.2 
" style="fill:none;"/>
   </g>
   <g id="patch_8">
    <path d="M 1296 693 
L 1296 79.2 
" style="fill:none;"/>
   </g>
   <g id="PathCollection_1">
    <defs>
     <path d="M 0 1.75 
C 0.464105 1.75 0.909265 1.565609 1.237437 1.237437 
C 1.565609 0.909265 1.75 0.464105 1.75 0 
C 1.75 -0.464105 1.565609 -0.909265 1.237437 -1.237437 
C 0.909265 -1.565609 0.464105 -1.75 0 -1.75 
C -0.464105 -1.75 -0.909265 -1.565609 -1.237437 -1.237437 
C -1.565609 -0.909265 -1.75 -0.464105 -1.75 0 
C -1.75 0.464105 -1.565609 0.909265 -1.237437 1.237437 
C -0.909265 1.565609 -0.464105 1.75 0 1.75 
z
" id="mb692f9f338" style="stroke:#3c3c3c;stroke-width:0.3;"/>
    </defs>
    <g clip-path="url(#pdfd1c95dfc)">
     <use style="fill:#ffffff;stroke:#3c3c3c;stroke-width:0.3;" x="263.7" xlink:href="#mb692f9f338" y="437.289074764"/>
    </g>
   </g>
   <g id="PathCollection_2">
    <g clip-path="url(#pdfd1c95dfc)">
     <use style="fill:#ffffff;stroke:#3c3c3c;stroke-width:0.3;" x="375.3" xlink:href="#mb692f9f338" y="436.269165502"/>
    </g>
   </g>
   <g id="PathCollection_3">
    <g clip-path="url(#pdfd1c95dfc)">
     <use style="fill:#ffffff;stroke:#3c3c3c;stroke-width:0.3;" x="542.7" xlink:href="#mb692f9f338" y="436.561798489"/>
    </g>
   </g>
   <g id="PathCollection_4">
    <g clip-path="url(#pdfd1c95dfc)">
     <use style="fill:#ffffff;stroke:#3c3c3c;stroke-width:0.3;" x="654.3" xlink:href="#mb692f9f338" y="437.308969556"/>
    </g>
   </g>
   <g id="PathCollection_5">
    <g clip-path="url(#pdfd1c95dfc)">
     <use style="fill:#ffffff;stroke:#3c3c3c;stroke-width:0.3;" x="821.7" xlink:href="#mb692f9f338" y="426.193930057"/>
    </g>
   </g>
   <g id="PathCollection_6">
    <g clip-path="url(#pdfd1c95dfc)">
     <use style="fill:#ffffff;stroke:#3c3c3c;stroke-width:0.3;" x="933.3" xlink:href="#mb692f9f338" y="460.238178262"/>
    </g>
   </g>
   <g id="PathCollection_7">
    <g clip-path="url(#pdfd1c95dfc)">
     <use style="fill:#ffffff;stroke:#3c3c3c;stroke-width:0.3;" x="1100.7" xlink:href="#mb692f9f338" y="379.716224889"/>
    </g>
   </g>
   <g id="PathCollection_8">
    <g clip-path="url(#pdfd1c95dfc)">
     <use style="fill:#ffffff;stroke:#3c3c3c;stroke-width:0.3;" x="1212.3" xlink:href="#mb692f9f338" y="431.826250927"/>
    </g>
   </g>
   <g id="text_15">
    <!-- Weighted UniFrac -->
    <defs>
     <path d="M 54.890625 33.015625 
L 54.890625 0 
L 45.90625 0 
L 45.90625 32.71875 
Q 45.90625 40.484375 42.875 44.328125 
Q 39.84375 48.1875 33.796875 48.1875 
Q 26.515625 48.1875 22.3125 43.546875 
Q 18.109375 38.921875 18.109375 30.90625 
L 18.109375 0 
L 9.078125 0 
L 9.078125 75.984375 
L 18.109375 75.984375 
L 18.109375 46.1875 
Q 21.34375 51.125 25.703125 53.5625 
Q 30.078125 56 35.796875 56 
Q 45.21875 56 50.046875 50.171875 
Q 54.890625 44.34375 54.890625 33.015625 
" id="BitstreamVeraSans-Roman-68"/>
     <path d="M 45.40625 27.984375 
Q 45.40625 37.75 41.375 43.109375 
Q 37.359375 48.484375 30.078125 48.484375 
Q 22.859375 48.484375 18.828125 43.109375 
Q 14.796875 37.75 14.796875 27.984375 
Q 14.796875 18.265625 18.828125 12.890625 
Q 22.859375 7.515625 30.078125 7.515625 
Q 37.359375 7.515625 41.375 12.890625 
Q 45.40625 18.265625 45.40625 27.984375 
M 54.390625 6.78125 
Q 54.390625 -7.171875 48.1875 -13.984375 
Q 42 -20.796875 29.203125 -20.796875 
Q 24.46875 -20.796875 20.265625 -20.09375 
Q 16.0625 -19.390625 12.109375 -17.921875 
L 12.109375 -9.1875 
Q 16.0625 -11.328125 19.921875 -12.34375 
Q 23.78125 -13.375 27.78125 -13.375 
Q 36.625 -13.375 41.015625 -8.765625 
Q 45.40625 -4.15625 45.40625 5.171875 
L 45.40625 9.625 
Q 42.625 4.78125 38.28125 2.390625 
Q 33.9375 0 27.875 0 
Q 17.828125 0 11.671875 7.65625 
Q 5.515625 15.328125 5.515625 27.984375 
Q 5.515625 40.671875 11.671875 48.328125 
Q 17.828125 56 27.875 56 
Q 33.9375 56 38.28125 53.609375 
Q 42.625 51.21875 45.40625 46.390625 
L 45.40625 54.6875 
L 54.390625 54.6875 
z
" id="BitstreamVeraSans-Roman-67"/>
     <path d="M 3.328125 72.90625 
L 13.28125 72.90625 
L 28.609375 11.28125 
L 43.890625 72.90625 
L 54.984375 72.90625 
L 70.3125 11.28125 
L 85.59375 72.90625 
L 95.609375 72.90625 
L 77.296875 0 
L 64.890625 0 
L 49.515625 63.28125 
L 33.984375 0 
L 21.578125 0 
z
" id="BitstreamVeraSans-Roman-57"/>
     <path d="M 9.8125 72.90625 
L 51.703125 72.90625 
L 51.703125 64.59375 
L 19.671875 64.59375 
L 19.671875 43.109375 
L 48.578125 43.109375 
L 48.578125 34.8125 
L 19.671875 34.8125 
L 19.671875 0 
L 9.8125 0 
z
" id="BitstreamVeraSans-Roman-46"/>
     <path d="M 8.6875 72.90625 
L 18.609375 72.90625 
L 18.609375 28.609375 
Q 18.609375 16.890625 22.84375 11.734375 
Q 27.09375 6.59375 36.625 6.59375 
Q 46.09375 6.59375 50.34375 11.734375 
Q 54.59375 16.890625 54.59375 28.609375 
L 54.59375 72.90625 
L 64.5 72.90625 
L 64.5 27.390625 
Q 64.5 13.140625 57.4375 5.859375 
Q 50.390625 -1.421875 36.625 -1.421875 
Q 22.796875 -1.421875 15.734375 5.859375 
Q 8.6875 13.140625 8.6875 27.390625 
z
" id="BitstreamVeraSans-Roman-55"/>
     <path d="M 45.40625 46.390625 
L 45.40625 75.984375 
L 54.390625 75.984375 
L 54.390625 0 
L 45.40625 0 
L 45.40625 8.203125 
Q 42.578125 3.328125 38.25 0.953125 
Q 33.9375 -1.421875 27.875 -1.421875 
Q 17.96875 -1.421875 11.734375 6.484375 
Q 5.515625 14.40625 5.515625 27.296875 
Q 5.515625 40.1875 11.734375 48.09375 
Q 17.96875 56 27.875 56 
Q 33.9375 56 38.25 53.625 
Q 42.578125 51.265625 45.40625 46.390625 
M 14.796875 27.296875 
Q 14.796875 17.390625 18.875 11.75 
Q 22.953125 6.109375 30.078125 6.109375 
Q 37.203125 6.109375 41.296875 11.75 
Q 45.40625 17.390625 45.40625 27.296875 
Q 45.40625 37.203125 41.296875 42.84375 
Q 37.203125 48.484375 30.078125 48.484375 
Q 22.953125 48.484375 18.875 42.84375 
Q 14.796875 37.203125 14.796875 27.296875 
" id="BitstreamVeraSans-Roman-64"/>
    </defs>
    <g style="fill:#262626;" transform="translate(604.4859375 74.2)scale(0.3 -0.3)">
     <use xlink:href="#BitstreamVeraSans-Roman-57"/>
     <use x="98.798828125" xlink:href="#BitstreamVeraSans-Roman-65"/>
     <use x="160.322265625" xlink:href="#BitstreamVeraSans-Roman-69"/>
     <use x="188.10546875" xlink:href="#BitstreamVeraSans-Roman-67"/>
     <use x="251.58203125" xlink:href="#BitstreamVeraSans-Roman-68"/>
     <use x="314.9609375" xlink:href="#BitstreamVeraSans-Roman-74"/>
     <use x="354.169921875" xlink:href="#BitstreamVeraSans-Roman-65"/>
     <use x="415.693359375" xlink:href="#BitstreamVeraSans-Roman-64"/>
     <use x="479.169921875" xlink:href="#BitstreamVeraSans-Roman-20"/>
     <use x="510.95703125" xlink:href="#BitstreamVeraSans-Roman-55"/>
     <use x="584.150390625" xlink:href="#BitstreamVeraSans-Roman-6e"/>
     <use x="647.529296875" xlink:href="#BitstreamVeraSans-Roman-69"/>
     <use x="675.3125" xlink:href="#BitstreamVeraSans-Roman-46"/>
     <use x="732.72265625" xlink:href="#BitstreamVeraSans-Roman-72"/>
     <use x="773.8359375" xlink:href="#BitstreamVeraSans-Roman-61"/>
     <use x="835.115234375" xlink:href="#BitstreamVeraSans-Roman-63"/>
    </g>
   </g>
   <g id="legend_1">
    <g id="patch_9">
     <path d="M 1094.109375 120.696094 
L 1144.109375 120.696094 
L 1144.109375 103.196094 
L 1094.109375 103.196094 
z
" style="fill:#ebf2c3;stroke:#3c3c3c;stroke-linejoin:miter;stroke-width:0.875;"/>
    </g>
    <g id="text_16">
     <!-- Between -->
     <defs>
      <path d="M 19.671875 34.8125 
L 19.671875 8.109375 
L 35.5 8.109375 
Q 43.453125 8.109375 47.28125 11.40625 
Q 51.125 14.703125 51.125 21.484375 
Q 51.125 28.328125 47.28125 31.5625 
Q 43.453125 34.8125 35.5 34.8125 
z
M 19.671875 64.796875 
L 19.671875 42.828125 
L 34.28125 42.828125 
Q 41.5 42.828125 45.03125 45.53125 
Q 48.578125 48.25 48.578125 53.8125 
Q 48.578125 59.328125 45.03125 62.0625 
Q 41.5 64.796875 34.28125 64.796875 
z
M 9.8125 72.90625 
L 35.015625 72.90625 
Q 46.296875 72.90625 52.390625 68.21875 
Q 58.5 63.53125 58.5 54.890625 
Q 58.5 48.1875 55.375 44.234375 
Q 52.25 40.28125 46.1875 39.3125 
Q 53.46875 37.75 57.5 32.78125 
Q 61.53125 27.828125 61.53125 20.40625 
Q 61.53125 10.640625 54.890625 5.3125 
Q 48.25 0 35.984375 0 
L 9.8125 0 
z
" id="BitstreamVeraSans-Roman-42"/>
     </defs>
     <g style="fill:#262626;" transform="translate(1164.109375 120.69609375)scale(0.25 -0.25)">
      <use xlink:href="#BitstreamVeraSans-Roman-42"/>
      <use x="68.603515625" xlink:href="#BitstreamVeraSans-Roman-65"/>
      <use x="130.126953125" xlink:href="#BitstreamVeraSans-Roman-74"/>
      <use x="169.3359375" xlink:href="#BitstreamVeraSans-Roman-77"/>
      <use x="251.123046875" xlink:href="#BitstreamVeraSans-Roman-65"/>
      <use x="312.646484375" xlink:href="#BitstreamVeraSans-Roman-65"/>
      <use x="374.169921875" xlink:href="#BitstreamVeraSans-Roman-6e"/>
     </g>
    </g>
    <g id="patch_10">
     <path d="M 1094.109375 157.391406 
L 1144.109375 157.391406 
L 1144.109375 139.891406 
L 1094.109375 139.891406 
z
" style="fill:#325c96;stroke:#3c3c3c;stroke-linejoin:miter;stroke-width:0.875;"/>
    </g>
    <g id="text_17">
     <!-- Within -->
     <g style="fill:#262626;" transform="translate(1164.109375 157.39140625)scale(0.25 -0.25)">
      <use xlink:href="#BitstreamVeraSans-Roman-57"/>
      <use x="98.845703125" xlink:href="#BitstreamVeraSans-Roman-69"/>
      <use x="126.62890625" xlink:href="#BitstreamVeraSans-Roman-74"/>
      <use x="165.837890625" xlink:href="#BitstreamVeraSans-Roman-68"/>
      <use x="229.216796875" xlink:href="#BitstreamVeraSans-Roman-69"/>
      <use x="257.0" xlink:href="#BitstreamVeraSans-Roman-6e"/>
     </g>
    </g>
   </g>
  </g>
 </g>
 <defs>
  <clipPath id="pdfd1c95dfc">
   <rect height="613.8" width="1116.0" x="180.0" y="79.2"/>
  </clipPath>
 </defs>
</svg>
