<?xml version="1.0" encoding="utf-8" standalone="no"?>
<!DOCTYPE svg PUBLIC "-//W3C//DTD SVG 1.1//EN"
  "http://www.w3.org/Graphics/SVG/1.1/DTD/svg11.dtd">
<!-- Created with matplotlib (http://matplotlib.org/) -->
<svg height="792pt" version="1.1" viewBox="0 0 1440 792" width="1440pt" xmlns="http://www.w3.org/2000/svg" xmlns:xlink="http://www.w3.org/1999/xlink">
 <defs>
  <style type="text/css">
*{stroke-linecap:butt;stroke-linejoin:round;stroke-miterlimit:100000;}
  </style>
 </defs>
 <g id="figure_1">
  <g id="patch_1">
   <path d="M 0 792 
L 1440 792 
L 1440 0 
L 0 0 
z
" style="fill:#ffffff;"/>
  </g>
  <g id="axes_1">
   <g id="patch_2">
    <path d="M 180 693 
L 1296 693 
L 1296 79.2 
L 180 79.2 
z
" style="fill:#eaeaf2;"/>
   </g>
   <g id="matplotlib.axis_1">
    <g id="xtick_1">
     <g id="line2d_1">
      <defs>
       <path d="M 0 0 
L 0 0 
" id="m947edd4171" style="stroke:#262626;"/>
      </defs>
      <g>
       <use style="fill:#262626;stroke:#262626;" x="366.0" xlink:href="#m947edd4171" y="693.0"/>
      </g>
     </g>
     <g id="line2d_2">
      <g>
       <use style="fill:#262626;stroke:#262626;" x="366.0" xlink:href="#m947edd4171" y="79.2"/>
      </g>
     </g>
     <g id="text_1">
      <!-- All Row 2/3 Pairs (n=414) -->
      <defs>
       <path d="M 25.390625 72.90625 
L 33.6875 72.90625 
L 8.296875 -9.28125 
L 0 -9.28125 
z
" id="BitstreamVeraSans-Roman-2f"/>
       <path d="M 41.109375 46.296875 
Q 39.59375 47.171875 37.8125 47.578125 
Q 36.03125 48 33.890625 48 
Q 26.265625 48 22.1875 43.046875 
Q 18.109375 38.09375 18.109375 28.8125 
L 18.109375 0 
L 9.078125 0 
L 9.078125 54.6875 
L 18.109375 54.6875 
L 18.109375 46.1875 
Q 20.953125 51.171875 25.484375 53.578125 
Q 30.03125 56 36.53125 56 
Q 37.453125 56 38.578125 55.875 
Q 39.703125 55.765625 41.0625 55.515625 
z
" id="BitstreamVeraSans-Roman-72"/>
       <path d="M 34.28125 27.484375 
Q 23.390625 27.484375 19.1875 25 
Q 14.984375 22.515625 14.984375 16.5 
Q 14.984375 11.71875 18.140625 8.90625 
Q 21.296875 6.109375 26.703125 6.109375 
Q 34.1875 6.109375 38.703125 11.40625 
Q 43.21875 16.703125 43.21875 25.484375 
L 43.21875 27.484375 
z
M 52.203125 31.203125 
L 52.203125 0 
L 43.21875 0 
L 43.21875 8.296875 
Q 40.140625 3.328125 35.546875 0.953125 
Q 30.953125 -1.421875 24.3125 -1.421875 
Q 15.921875 -1.421875 10.953125 3.296875 
Q 6 8.015625 6 15.921875 
Q 6 25.140625 12.171875 29.828125 
Q 18.359375 34.515625 30.609375 34.515625 
L 43.21875 34.515625 
L 43.21875 35.40625 
Q 43.21875 41.609375 39.140625 45 
Q 35.0625 48.390625 27.6875 48.390625 
Q 23 48.390625 18.546875 47.265625 
Q 14.109375 46.140625 10.015625 43.890625 
L 10.015625 52.203125 
Q 14.9375 54.109375 19.578125 55.046875 
Q 24.21875 56 28.609375 56 
Q 40.484375 56 46.34375 49.84375 
Q 52.203125 43.703125 52.203125 31.203125 
" id="BitstreamVeraSans-Roman-61"/>
       <path d="M 40.578125 39.3125 
Q 47.65625 37.796875 51.625 33 
Q 55.609375 28.21875 55.609375 21.1875 
Q 55.609375 10.40625 48.1875 4.484375 
Q 40.765625 -1.421875 27.09375 -1.421875 
Q 22.515625 -1.421875 17.65625 -0.515625 
Q 12.796875 0.390625 7.625 2.203125 
L 7.625 11.71875 
Q 11.71875 9.328125 16.59375 8.109375 
Q 21.484375 6.890625 26.8125 6.890625 
Q 36.078125 6.890625 40.9375 10.546875 
Q 45.796875 14.203125 45.796875 21.1875 
Q 45.796875 27.640625 41.28125 31.265625 
Q 36.765625 34.90625 28.71875 34.90625 
L 20.21875 34.90625 
L 20.21875 43.015625 
L 29.109375 43.015625 
Q 36.375 43.015625 40.234375 45.921875 
Q 44.09375 48.828125 44.09375 54.296875 
Q 44.09375 59.90625 40.109375 62.90625 
Q 36.140625 65.921875 28.71875 65.921875 
Q 24.65625 65.921875 20.015625 65.03125 
Q 15.375 64.15625 9.8125 62.3125 
L 9.8125 71.09375 
Q 15.4375 72.65625 20.34375 73.4375 
Q 25.25 74.21875 29.59375 74.21875 
Q 40.828125 74.21875 47.359375 69.109375 
Q 53.90625 64.015625 53.90625 55.328125 
Q 53.90625 49.265625 50.4375 45.09375 
Q 46.96875 40.921875 40.578125 39.3125 
" id="BitstreamVeraSans-Roman-33"/>
       <path d="M 30.609375 48.390625 
Q 23.390625 48.390625 19.1875 42.75 
Q 14.984375 37.109375 14.984375 27.296875 
Q 14.984375 17.484375 19.15625 11.84375 
Q 23.34375 6.203125 30.609375 6.203125 
Q 37.796875 6.203125 41.984375 11.859375 
Q 46.1875 17.53125 46.1875 27.296875 
Q 46.1875 37.015625 41.984375 42.703125 
Q 37.796875 48.390625 30.609375 48.390625 
M 30.609375 56 
Q 42.328125 56 49.015625 48.375 
Q 55.71875 40.765625 55.71875 27.296875 
Q 55.71875 13.875 49.015625 6.21875 
Q 42.328125 -1.421875 30.609375 -1.421875 
Q 18.84375 -1.421875 12.171875 6.21875 
Q 5.515625 13.875 5.515625 27.296875 
Q 5.515625 40.765625 12.171875 48.375 
Q 18.84375 56 30.609375 56 
" id="BitstreamVeraSans-Roman-6f"/>
       <path d="M 12.40625 8.296875 
L 28.515625 8.296875 
L 28.515625 63.921875 
L 10.984375 60.40625 
L 10.984375 69.390625 
L 28.421875 72.90625 
L 38.28125 72.90625 
L 38.28125 8.296875 
L 54.390625 8.296875 
L 54.390625 0 
L 12.40625 0 
z
" id="BitstreamVeraSans-Roman-31"/>
       <path d="M 44.28125 53.078125 
L 44.28125 44.578125 
Q 40.484375 46.53125 36.375 47.5 
Q 32.28125 48.484375 27.875 48.484375 
Q 21.1875 48.484375 17.84375 46.4375 
Q 14.5 44.390625 14.5 40.28125 
Q 14.5 37.15625 16.890625 35.375 
Q 19.28125 33.59375 26.515625 31.984375 
L 29.59375 31.296875 
Q 39.15625 29.25 43.1875 25.515625 
Q 47.21875 21.78125 47.21875 15.09375 
Q 47.21875 7.46875 41.1875 3.015625 
Q 35.15625 -1.421875 24.609375 -1.421875 
Q 20.21875 -1.421875 15.453125 -0.5625 
Q 10.6875 0.296875 5.421875 2 
L 5.421875 11.28125 
Q 10.40625 8.6875 15.234375 7.390625 
Q 20.0625 6.109375 24.8125 6.109375 
Q 31.15625 6.109375 34.5625 8.28125 
Q 37.984375 10.453125 37.984375 14.40625 
Q 37.984375 18.0625 35.515625 20.015625 
Q 33.0625 21.96875 24.703125 23.78125 
L 21.578125 24.515625 
Q 13.234375 26.265625 9.515625 29.90625 
Q 5.8125 33.546875 5.8125 39.890625 
Q 5.8125 47.609375 11.28125 51.796875 
Q 16.75 56 26.8125 56 
Q 31.78125 56 36.171875 55.265625 
Q 40.578125 54.546875 44.28125 53.078125 
" id="BitstreamVeraSans-Roman-73"/>
       <path d="M 9.421875 75.984375 
L 18.40625 75.984375 
L 18.40625 0 
L 9.421875 0 
z
" id="BitstreamVeraSans-Roman-6c"/>
       <path d="M 10.59375 45.40625 
L 73.1875 45.40625 
L 73.1875 37.203125 
L 10.59375 37.203125 
z
M 10.59375 25.484375 
L 73.1875 25.484375 
L 73.1875 17.1875 
L 10.59375 17.1875 
z
" id="BitstreamVeraSans-Roman-3d"/>
       <path d="M 54.890625 33.015625 
L 54.890625 0 
L 45.90625 0 
L 45.90625 32.71875 
Q 45.90625 40.484375 42.875 44.328125 
Q 39.84375 48.1875 33.796875 48.1875 
Q 26.515625 48.1875 22.3125 43.546875 
Q 18.109375 38.921875 18.109375 30.90625 
L 18.109375 0 
L 9.078125 0 
L 9.078125 54.6875 
L 18.109375 54.6875 
L 18.109375 46.1875 
Q 21.34375 51.125 25.703125 53.5625 
Q 30.078125 56 35.796875 56 
Q 45.21875 56 50.046875 50.171875 
Q 54.890625 44.34375 54.890625 33.015625 
" id="BitstreamVeraSans-Roman-6e"/>
       <path d="M 44.390625 34.1875 
Q 47.5625 33.109375 50.5625 29.59375 
Q 53.5625 26.078125 56.59375 19.921875 
L 66.609375 0 
L 56 0 
L 46.6875 18.703125 
Q 43.0625 26.03125 39.671875 28.421875 
Q 36.28125 30.8125 30.421875 30.8125 
L 19.671875 30.8125 
L 19.671875 0 
L 9.8125 0 
L 9.8125 72.90625 
L 32.078125 72.90625 
Q 44.578125 72.90625 50.734375 67.671875 
Q 56.890625 62.453125 56.890625 51.90625 
Q 56.890625 45.015625 53.6875 40.46875 
Q 50.484375 35.9375 44.390625 34.1875 
M 19.671875 64.796875 
L 19.671875 38.921875 
L 32.078125 38.921875 
Q 39.203125 38.921875 42.84375 42.21875 
Q 46.484375 45.515625 46.484375 51.90625 
Q 46.484375 58.296875 42.84375 61.546875 
Q 39.203125 64.796875 32.078125 64.796875 
z
" id="BitstreamVeraSans-Roman-52"/>
       <path d="M 19.671875 64.796875 
L 19.671875 37.40625 
L 32.078125 37.40625 
Q 38.96875 37.40625 42.71875 40.96875 
Q 46.484375 44.53125 46.484375 51.125 
Q 46.484375 57.671875 42.71875 61.234375 
Q 38.96875 64.796875 32.078125 64.796875 
z
M 9.8125 72.90625 
L 32.078125 72.90625 
Q 44.34375 72.90625 50.609375 67.359375 
Q 56.890625 61.8125 56.890625 51.125 
Q 56.890625 40.328125 50.609375 34.8125 
Q 44.34375 29.296875 32.078125 29.296875 
L 19.671875 29.296875 
L 19.671875 0 
L 9.8125 0 
z
" id="BitstreamVeraSans-Roman-50"/>
       <path d="M 4.203125 54.6875 
L 13.1875 54.6875 
L 24.421875 12.015625 
L 35.59375 54.6875 
L 46.1875 54.6875 
L 57.421875 12.015625 
L 68.609375 54.6875 
L 77.59375 54.6875 
L 63.28125 0 
L 52.6875 0 
L 40.921875 44.828125 
L 29.109375 0 
L 18.5 0 
z
" id="BitstreamVeraSans-Roman-77"/>
       <path d="M 34.1875 63.1875 
L 20.796875 26.90625 
L 47.609375 26.90625 
z
M 28.609375 72.90625 
L 39.796875 72.90625 
L 67.578125 0 
L 57.328125 0 
L 50.6875 18.703125 
L 17.828125 18.703125 
L 11.1875 0 
L 0.78125 0 
z
" id="BitstreamVeraSans-Roman-41"/>
       <path d="M 37.796875 64.3125 
L 12.890625 25.390625 
L 37.796875 25.390625 
z
M 35.203125 72.90625 
L 47.609375 72.90625 
L 47.609375 25.390625 
L 58.015625 25.390625 
L 58.015625 17.1875 
L 47.609375 17.1875 
L 47.609375 0 
L 37.796875 0 
L 37.796875 17.1875 
L 4.890625 17.1875 
L 4.890625 26.703125 
z
" id="BitstreamVeraSans-Roman-34"/>
       <path d="M 9.421875 54.6875 
L 18.40625 54.6875 
L 18.40625 0 
L 9.421875 0 
z
M 9.421875 75.984375 
L 18.40625 75.984375 
L 18.40625 64.59375 
L 9.421875 64.59375 
z
" id="BitstreamVeraSans-Roman-69"/>
       <path d="M 19.1875 8.296875 
L 53.609375 8.296875 
L 53.609375 0 
L 7.328125 0 
L 7.328125 8.296875 
Q 12.9375 14.109375 22.625 23.890625 
Q 32.328125 33.6875 34.8125 36.53125 
Q 39.546875 41.84375 41.421875 45.53125 
Q 43.3125 49.21875 43.3125 52.78125 
Q 43.3125 58.59375 39.234375 62.25 
Q 35.15625 65.921875 28.609375 65.921875 
Q 23.96875 65.921875 18.8125 64.3125 
Q 13.671875 62.703125 7.8125 59.421875 
L 7.8125 69.390625 
Q 13.765625 71.78125 18.9375 73 
Q 24.125 74.21875 28.421875 74.21875 
Q 39.75 74.21875 46.484375 68.546875 
Q 53.21875 62.890625 53.21875 53.421875 
Q 53.21875 48.921875 51.53125 44.890625 
Q 49.859375 40.875 45.40625 35.40625 
Q 44.1875 33.984375 37.640625 27.21875 
Q 31.109375 20.453125 19.1875 8.296875 
" id="BitstreamVeraSans-Roman-32"/>
       <path d="M 31 75.875 
Q 24.46875 64.65625 21.28125 53.65625 
Q 18.109375 42.671875 18.109375 31.390625 
Q 18.109375 20.125 21.3125 9.0625 
Q 24.515625 -2 31 -13.1875 
L 23.1875 -13.1875 
Q 15.875 -1.703125 12.234375 9.375 
Q 8.59375 20.453125 8.59375 31.390625 
Q 8.59375 42.28125 12.203125 53.3125 
Q 15.828125 64.359375 23.1875 75.875 
z
" id="BitstreamVeraSans-Roman-28"/>
       <path d="M 8.015625 75.875 
L 15.828125 75.875 
Q 23.140625 64.359375 26.78125 53.3125 
Q 30.421875 42.28125 30.421875 31.390625 
Q 30.421875 20.453125 26.78125 9.375 
Q 23.140625 -1.703125 15.828125 -13.1875 
L 8.015625 -13.1875 
Q 14.5 -2 17.703125 9.0625 
Q 20.90625 20.125 20.90625 31.390625 
Q 20.90625 42.671875 17.703125 53.65625 
Q 14.5 64.65625 8.015625 75.875 
" id="BitstreamVeraSans-Roman-29"/>
       <path id="BitstreamVeraSans-Roman-20"/>
      </defs>
      <g style="fill:#262626;" transform="translate(205.625 718.99609375)scale(0.25 -0.25)">
       <use xlink:href="#BitstreamVeraSans-Roman-41"/>
       <use x="68.408203125" xlink:href="#BitstreamVeraSans-Roman-6c"/>
       <use x="96.19140625" xlink:href="#BitstreamVeraSans-Roman-6c"/>
       <use x="123.974609375" xlink:href="#BitstreamVeraSans-Roman-20"/>
       <use x="155.76171875" xlink:href="#BitstreamVeraSans-Roman-52"/>
       <use x="225.181640625" xlink:href="#BitstreamVeraSans-Roman-6f"/>
       <use x="286.36328125" xlink:href="#BitstreamVeraSans-Roman-77"/>
       <use x="368.150390625" xlink:href="#BitstreamVeraSans-Roman-20"/>
       <use x="399.9375" xlink:href="#BitstreamVeraSans-Roman-32"/>
       <use x="463.560546875" xlink:href="#BitstreamVeraSans-Roman-2f"/>
       <use x="497.251953125" xlink:href="#BitstreamVeraSans-Roman-33"/>
       <use x="560.875" xlink:href="#BitstreamVeraSans-Roman-20"/>
       <use x="592.662109375" xlink:href="#BitstreamVeraSans-Roman-50"/>
       <use x="652.90234375" xlink:href="#BitstreamVeraSans-Roman-61"/>
       <use x="714.181640625" xlink:href="#BitstreamVeraSans-Roman-69"/>
       <use x="741.96484375" xlink:href="#BitstreamVeraSans-Roman-72"/>
       <use x="783.078125" xlink:href="#BitstreamVeraSans-Roman-73"/>
       <use x="835.177734375" xlink:href="#BitstreamVeraSans-Roman-20"/>
       <use x="866.96484375" xlink:href="#BitstreamVeraSans-Roman-28"/>
       <use x="905.978515625" xlink:href="#BitstreamVeraSans-Roman-6e"/>
       <use x="969.357421875" xlink:href="#BitstreamVeraSans-Roman-3d"/>
       <use x="1053.146484375" xlink:href="#BitstreamVeraSans-Roman-34"/>
       <use x="1116.76953125" xlink:href="#BitstreamVeraSans-Roman-31"/>
       <use x="1180.392578125" xlink:href="#BitstreamVeraSans-Roman-34"/>
       <use x="1244.015625" xlink:href="#BitstreamVeraSans-Roman-29"/>
      </g>
     </g>
    </g>
    <g id="xtick_2">
     <g id="line2d_3">
      <g>
       <use style="fill:#262626;stroke:#262626;" x="738.0" xlink:href="#m947edd4171" y="693.0"/>
      </g>
     </g>
     <g id="line2d_4">
      <g>
       <use style="fill:#262626;stroke:#262626;" x="738.0" xlink:href="#m947edd4171" y="79.2"/>
      </g>
     </g>
     <g id="text_2">
      <!-- Wall and Ceiling Pairs (n=267) -->
      <defs>
       <path d="M 64.40625 67.28125 
L 64.40625 56.890625 
Q 59.421875 61.53125 53.78125 63.8125 
Q 48.140625 66.109375 41.796875 66.109375 
Q 29.296875 66.109375 22.65625 58.46875 
Q 16.015625 50.828125 16.015625 36.375 
Q 16.015625 21.96875 22.65625 14.328125 
Q 29.296875 6.6875 41.796875 6.6875 
Q 48.140625 6.6875 53.78125 8.984375 
Q 59.421875 11.28125 64.40625 15.921875 
L 64.40625 5.609375 
Q 59.234375 2.09375 53.4375 0.328125 
Q 47.65625 -1.421875 41.21875 -1.421875 
Q 24.65625 -1.421875 15.125 8.703125 
Q 5.609375 18.84375 5.609375 36.375 
Q 5.609375 53.953125 15.125 64.078125 
Q 24.65625 74.21875 41.21875 74.21875 
Q 47.75 74.21875 53.53125 72.484375 
Q 59.328125 70.75 64.40625 67.28125 
" id="BitstreamVeraSans-Roman-43"/>
       <path d="M 56.203125 29.59375 
L 56.203125 25.203125 
L 14.890625 25.203125 
Q 15.484375 15.921875 20.484375 11.0625 
Q 25.484375 6.203125 34.421875 6.203125 
Q 39.59375 6.203125 44.453125 7.46875 
Q 49.3125 8.734375 54.109375 11.28125 
L 54.109375 2.78125 
Q 49.265625 0.734375 44.1875 -0.34375 
Q 39.109375 -1.421875 33.890625 -1.421875 
Q 20.796875 -1.421875 13.15625 6.1875 
Q 5.515625 13.8125 5.515625 26.8125 
Q 5.515625 40.234375 12.765625 48.109375 
Q 20.015625 56 32.328125 56 
Q 43.359375 56 49.78125 48.890625 
Q 56.203125 41.796875 56.203125 29.59375 
M 47.21875 32.234375 
Q 47.125 39.59375 43.09375 43.984375 
Q 39.0625 48.390625 32.421875 48.390625 
Q 24.90625 48.390625 20.390625 44.140625 
Q 15.875 39.890625 15.1875 32.171875 
z
" id="BitstreamVeraSans-Roman-65"/>
       <path d="M 33.015625 40.375 
Q 26.375 40.375 22.484375 35.828125 
Q 18.609375 31.296875 18.609375 23.390625 
Q 18.609375 15.53125 22.484375 10.953125 
Q 26.375 6.390625 33.015625 6.390625 
Q 39.65625 6.390625 43.53125 10.953125 
Q 47.40625 15.53125 47.40625 23.390625 
Q 47.40625 31.296875 43.53125 35.828125 
Q 39.65625 40.375 33.015625 40.375 
M 52.59375 71.296875 
L 52.59375 62.3125 
Q 48.875 64.0625 45.09375 64.984375 
Q 41.3125 65.921875 37.59375 65.921875 
Q 27.828125 65.921875 22.671875 59.328125 
Q 17.53125 52.734375 16.796875 39.40625 
Q 19.671875 43.65625 24.015625 45.921875 
Q 28.375 48.1875 33.59375 48.1875 
Q 44.578125 48.1875 50.953125 41.515625 
Q 57.328125 34.859375 57.328125 23.390625 
Q 57.328125 12.15625 50.6875 5.359375 
Q 44.046875 -1.421875 33.015625 -1.421875 
Q 20.359375 -1.421875 13.671875 8.265625 
Q 6.984375 17.96875 6.984375 36.375 
Q 6.984375 53.65625 15.1875 63.9375 
Q 23.390625 74.21875 37.203125 74.21875 
Q 40.921875 74.21875 44.703125 73.484375 
Q 48.484375 72.75 52.59375 71.296875 
" id="BitstreamVeraSans-Roman-36"/>
       <path d="M 8.203125 72.90625 
L 55.078125 72.90625 
L 55.078125 68.703125 
L 28.609375 0 
L 18.3125 0 
L 43.21875 64.59375 
L 8.203125 64.59375 
z
" id="BitstreamVeraSans-Roman-37"/>
       <path d="M 45.40625 46.390625 
L 45.40625 75.984375 
L 54.390625 75.984375 
L 54.390625 0 
L 45.40625 0 
L 45.40625 8.203125 
Q 42.578125 3.328125 38.25 0.953125 
Q 33.9375 -1.421875 27.875 -1.421875 
Q 17.96875 -1.421875 11.734375 6.484375 
Q 5.515625 14.40625 5.515625 27.296875 
Q 5.515625 40.1875 11.734375 48.09375 
Q 17.96875 56 27.875 56 
Q 33.9375 56 38.25 53.625 
Q 42.578125 51.265625 45.40625 46.390625 
M 14.796875 27.296875 
Q 14.796875 17.390625 18.875 11.75 
Q 22.953125 6.109375 30.078125 6.109375 
Q 37.203125 6.109375 41.296875 11.75 
Q 45.40625 17.390625 45.40625 27.296875 
Q 45.40625 37.203125 41.296875 42.84375 
Q 37.203125 48.484375 30.078125 48.484375 
Q 22.953125 48.484375 18.875 42.84375 
Q 14.796875 37.203125 14.796875 27.296875 
" id="BitstreamVeraSans-Roman-64"/>
       <path d="M 3.328125 72.90625 
L 13.28125 72.90625 
L 28.609375 11.28125 
L 43.890625 72.90625 
L 54.984375 72.90625 
L 70.3125 11.28125 
L 85.59375 72.90625 
L 95.609375 72.90625 
L 77.296875 0 
L 64.890625 0 
L 49.515625 63.28125 
L 33.984375 0 
L 21.578125 0 
z
" id="BitstreamVeraSans-Roman-57"/>
       <path d="M 45.40625 27.984375 
Q 45.40625 37.75 41.375 43.109375 
Q 37.359375 48.484375 30.078125 48.484375 
Q 22.859375 48.484375 18.828125 43.109375 
Q 14.796875 37.75 14.796875 27.984375 
Q 14.796875 18.265625 18.828125 12.890625 
Q 22.859375 7.515625 30.078125 7.515625 
Q 37.359375 7.515625 41.375 12.890625 
Q 45.40625 18.265625 45.40625 27.984375 
M 54.390625 6.78125 
Q 54.390625 -7.171875 48.1875 -13.984375 
Q 42 -20.796875 29.203125 -20.796875 
Q 24.46875 -20.796875 20.265625 -20.09375 
Q 16.0625 -19.390625 12.109375 -17.921875 
L 12.109375 -9.1875 
Q 16.0625 -11.328125 19.921875 -12.34375 
Q 23.78125 -13.375 27.78125 -13.375 
Q 36.625 -13.375 41.015625 -8.765625 
Q 45.40625 -4.15625 45.40625 5.171875 
L 45.40625 9.625 
Q 42.625 4.78125 38.28125 2.390625 
Q 33.9375 0 27.875 0 
Q 17.828125 0 11.671875 7.65625 
Q 5.515625 15.328125 5.515625 27.984375 
Q 5.515625 40.671875 11.671875 48.328125 
Q 17.828125 56 27.875 56 
Q 33.9375 56 38.28125 53.609375 
Q 42.625 51.21875 45.40625 46.390625 
L 45.40625 54.6875 
L 54.390625 54.6875 
z
" id="BitstreamVeraSans-Roman-67"/>
      </defs>
      <g style="fill:#262626;" transform="translate(546.62109375 718.99609375)scale(0.25 -0.25)">
       <use xlink:href="#BitstreamVeraSans-Roman-57"/>
       <use x="98.783203125" xlink:href="#BitstreamVeraSans-Roman-61"/>
       <use x="160.0625" xlink:href="#BitstreamVeraSans-Roman-6c"/>
       <use x="187.845703125" xlink:href="#BitstreamVeraSans-Roman-6c"/>
       <use x="215.62890625" xlink:href="#BitstreamVeraSans-Roman-20"/>
       <use x="247.416015625" xlink:href="#BitstreamVeraSans-Roman-61"/>
       <use x="308.6953125" xlink:href="#BitstreamVeraSans-Roman-6e"/>
       <use x="372.07421875" xlink:href="#BitstreamVeraSans-Roman-64"/>
       <use x="435.55078125" xlink:href="#BitstreamVeraSans-Roman-20"/>
       <use x="467.337890625" xlink:href="#BitstreamVeraSans-Roman-43"/>
       <use x="537.162109375" xlink:href="#BitstreamVeraSans-Roman-65"/>
       <use x="598.685546875" xlink:href="#BitstreamVeraSans-Roman-69"/>
       <use x="626.46875" xlink:href="#BitstreamVeraSans-Roman-6c"/>
       <use x="654.251953125" xlink:href="#BitstreamVeraSans-Roman-69"/>
       <use x="682.03515625" xlink:href="#BitstreamVeraSans-Roman-6e"/>
       <use x="745.4140625" xlink:href="#BitstreamVeraSans-Roman-67"/>
       <use x="808.890625" xlink:href="#BitstreamVeraSans-Roman-20"/>
       <use x="840.677734375" xlink:href="#BitstreamVeraSans-Roman-50"/>
       <use x="900.91796875" xlink:href="#BitstreamVeraSans-Roman-61"/>
       <use x="962.197265625" xlink:href="#BitstreamVeraSans-Roman-69"/>
       <use x="989.98046875" xlink:href="#BitstreamVeraSans-Roman-72"/>
       <use x="1031.09375" xlink:href="#BitstreamVeraSans-Roman-73"/>
       <use x="1083.193359375" xlink:href="#BitstreamVeraSans-Roman-20"/>
       <use x="1114.98046875" xlink:href="#BitstreamVeraSans-Roman-28"/>
       <use x="1153.994140625" xlink:href="#BitstreamVeraSans-Roman-6e"/>
       <use x="1217.373046875" xlink:href="#BitstreamVeraSans-Roman-3d"/>
       <use x="1301.162109375" xlink:href="#BitstreamVeraSans-Roman-32"/>
       <use x="1364.78515625" xlink:href="#BitstreamVeraSans-Roman-36"/>
       <use x="1428.408203125" xlink:href="#BitstreamVeraSans-Roman-37"/>
       <use x="1492.03125" xlink:href="#BitstreamVeraSans-Roman-29"/>
      </g>
     </g>
    </g>
    <g id="xtick_3">
     <g id="line2d_5">
      <g>
       <use style="fill:#262626;stroke:#262626;" x="1110.0" xlink:href="#m947edd4171" y="693.0"/>
      </g>
     </g>
     <g id="line2d_6">
      <g>
       <use style="fill:#262626;stroke:#262626;" x="1110.0" xlink:href="#m947edd4171" y="79.2"/>
      </g>
     </g>
     <g id="text_3">
      <!-- Floor Pairs (n=147) -->
      <defs>
       <path d="M 9.8125 72.90625 
L 51.703125 72.90625 
L 51.703125 64.59375 
L 19.671875 64.59375 
L 19.671875 43.109375 
L 48.578125 43.109375 
L 48.578125 34.8125 
L 19.671875 34.8125 
L 19.671875 0 
L 9.8125 0 
z
" id="BitstreamVeraSans-Roman-46"/>
      </defs>
      <g style="fill:#262626;" transform="translate(988.634765625 718.99609375)scale(0.25 -0.25)">
       <use xlink:href="#BitstreamVeraSans-Roman-46"/>
       <use x="57.51953125" xlink:href="#BitstreamVeraSans-Roman-6c"/>
       <use x="85.302734375" xlink:href="#BitstreamVeraSans-Roman-6f"/>
       <use x="146.484375" xlink:href="#BitstreamVeraSans-Roman-6f"/>
       <use x="207.666015625" xlink:href="#BitstreamVeraSans-Roman-72"/>
       <use x="248.779296875" xlink:href="#BitstreamVeraSans-Roman-20"/>
       <use x="280.56640625" xlink:href="#BitstreamVeraSans-Roman-50"/>
       <use x="340.806640625" xlink:href="#BitstreamVeraSans-Roman-61"/>
       <use x="402.0859375" xlink:href="#BitstreamVeraSans-Roman-69"/>
       <use x="429.869140625" xlink:href="#BitstreamVeraSans-Roman-72"/>
       <use x="470.982421875" xlink:href="#BitstreamVeraSans-Roman-73"/>
       <use x="523.08203125" xlink:href="#BitstreamVeraSans-Roman-20"/>
       <use x="554.869140625" xlink:href="#BitstreamVeraSans-Roman-28"/>
       <use x="593.8828125" xlink:href="#BitstreamVeraSans-Roman-6e"/>
       <use x="657.26171875" xlink:href="#BitstreamVeraSans-Roman-3d"/>
       <use x="741.05078125" xlink:href="#BitstreamVeraSans-Roman-31"/>
       <use x="804.673828125" xlink:href="#BitstreamVeraSans-Roman-34"/>
       <use x="868.296875" xlink:href="#BitstreamVeraSans-Roman-37"/>
       <use x="931.919921875" xlink:href="#BitstreamVeraSans-Roman-29"/>
      </g>
     </g>
    </g>
   </g>
   <g id="matplotlib.axis_2">
    <g id="ytick_1">
     <g id="line2d_7">
      <path clip-path="url(#pe29d80d0f0)" d="M 180 693 
L 1296 693 
" style="fill:none;stroke:#ffffff;stroke-linecap:round;"/>
     </g>
     <g id="line2d_8">
      <g>
       <use style="fill:#262626;stroke:#262626;" x="180.0" xlink:href="#m947edd4171" y="693.0"/>
      </g>
     </g>
     <g id="line2d_9">
      <g>
       <use style="fill:#262626;stroke:#262626;" x="1296.0" xlink:href="#m947edd4171" y="693.0"/>
      </g>
     </g>
     <g id="text_4">
      <!-- −20 -->
      <defs>
       <path d="M 31.78125 66.40625 
Q 24.171875 66.40625 20.328125 58.90625 
Q 16.5 51.421875 16.5 36.375 
Q 16.5 21.390625 20.328125 13.890625 
Q 24.171875 6.390625 31.78125 6.390625 
Q 39.453125 6.390625 43.28125 13.890625 
Q 47.125 21.390625 47.125 36.375 
Q 47.125 51.421875 43.28125 58.90625 
Q 39.453125 66.40625 31.78125 66.40625 
M 31.78125 74.21875 
Q 44.046875 74.21875 50.515625 64.515625 
Q 56.984375 54.828125 56.984375 36.375 
Q 56.984375 17.96875 50.515625 8.265625 
Q 44.046875 -1.421875 31.78125 -1.421875 
Q 19.53125 -1.421875 13.0625 8.265625 
Q 6.59375 17.96875 6.59375 36.375 
Q 6.59375 54.828125 13.0625 64.515625 
Q 19.53125 74.21875 31.78125 74.21875 
" id="BitstreamVeraSans-Roman-30"/>
       <path d="M 10.59375 35.5 
L 73.1875 35.5 
L 73.1875 27.203125 
L 10.59375 27.203125 
z
" id="BitstreamVeraSans-Roman-2212"/>
      </defs>
      <g style="fill:#262626;" transform="translate(120.23828125 699.8984375)scale(0.25 -0.25)">
       <use xlink:href="#BitstreamVeraSans-Roman-2212"/>
       <use x="83.7890625" xlink:href="#BitstreamVeraSans-Roman-32"/>
       <use x="147.412109375" xlink:href="#BitstreamVeraSans-Roman-30"/>
      </g>
     </g>
    </g>
    <g id="ytick_2">
     <g id="line2d_10">
      <path clip-path="url(#pe29d80d0f0)" d="M 180 605.314286 
L 1296 605.314286 
" style="fill:none;stroke:#ffffff;stroke-linecap:round;"/>
     </g>
     <g id="line2d_11">
      <g>
       <use style="fill:#262626;stroke:#262626;" x="180.0" xlink:href="#m947edd4171" y="605.314285714"/>
      </g>
     </g>
     <g id="line2d_12">
      <g>
       <use style="fill:#262626;stroke:#262626;" x="1296.0" xlink:href="#m947edd4171" y="605.314285714"/>
      </g>
     </g>
     <g id="text_5">
      <!-- 0 -->
      <g style="fill:#262626;" transform="translate(157.09375 612.212723214)scale(0.25 -0.25)">
       <use xlink:href="#BitstreamVeraSans-Roman-30"/>
      </g>
     </g>
    </g>
    <g id="ytick_3">
     <g id="line2d_13">
      <path clip-path="url(#pe29d80d0f0)" d="M 180 517.628571 
L 1296 517.628571 
" style="fill:none;stroke:#ffffff;stroke-linecap:round;"/>
     </g>
     <g id="line2d_14">
      <g>
       <use style="fill:#262626;stroke:#262626;" x="180.0" xlink:href="#m947edd4171" y="517.628571429"/>
      </g>
     </g>
     <g id="line2d_15">
      <g>
       <use style="fill:#262626;stroke:#262626;" x="1296.0" xlink:href="#m947edd4171" y="517.628571429"/>
      </g>
     </g>
     <g id="text_6">
      <!-- 20 -->
      <g style="fill:#262626;" transform="translate(141.1875 524.527008929)scale(0.25 -0.25)">
       <use xlink:href="#BitstreamVeraSans-Roman-32"/>
       <use x="63.623046875" xlink:href="#BitstreamVeraSans-Roman-30"/>
      </g>
     </g>
    </g>
    <g id="ytick_4">
     <g id="line2d_16">
      <path clip-path="url(#pe29d80d0f0)" d="M 180 429.942857 
L 1296 429.942857 
" style="fill:none;stroke:#ffffff;stroke-linecap:round;"/>
     </g>
     <g id="line2d_17">
      <g>
       <use style="fill:#262626;stroke:#262626;" x="180.0" xlink:href="#m947edd4171" y="429.942857143"/>
      </g>
     </g>
     <g id="line2d_18">
      <g>
       <use style="fill:#262626;stroke:#262626;" x="1296.0" xlink:href="#m947edd4171" y="429.942857143"/>
      </g>
     </g>
     <g id="text_7">
      <!-- 40 -->
      <g style="fill:#262626;" transform="translate(141.1875 436.841294643)scale(0.25 -0.25)">
       <use xlink:href="#BitstreamVeraSans-Roman-34"/>
       <use x="63.623046875" xlink:href="#BitstreamVeraSans-Roman-30"/>
      </g>
     </g>
    </g>
    <g id="ytick_5">
     <g id="line2d_19">
      <path clip-path="url(#pe29d80d0f0)" d="M 180 342.257143 
L 1296 342.257143 
" style="fill:none;stroke:#ffffff;stroke-linecap:round;"/>
     </g>
     <g id="line2d_20">
      <g>
       <use style="fill:#262626;stroke:#262626;" x="180.0" xlink:href="#m947edd4171" y="342.257142857"/>
      </g>
     </g>
     <g id="line2d_21">
      <g>
       <use style="fill:#262626;stroke:#262626;" x="1296.0" xlink:href="#m947edd4171" y="342.257142857"/>
      </g>
     </g>
     <g id="text_8">
      <!-- 60 -->
      <g style="fill:#262626;" transform="translate(141.1875 349.155580357)scale(0.25 -0.25)">
       <use xlink:href="#BitstreamVeraSans-Roman-36"/>
       <use x="63.623046875" xlink:href="#BitstreamVeraSans-Roman-30"/>
      </g>
     </g>
    </g>
    <g id="ytick_6">
     <g id="line2d_22">
      <path clip-path="url(#pe29d80d0f0)" d="M 180 254.571429 
L 1296 254.571429 
" style="fill:none;stroke:#ffffff;stroke-linecap:round;"/>
     </g>
     <g id="line2d_23">
      <g>
       <use style="fill:#262626;stroke:#262626;" x="180.0" xlink:href="#m947edd4171" y="254.571428571"/>
      </g>
     </g>
     <g id="line2d_24">
      <g>
       <use style="fill:#262626;stroke:#262626;" x="1296.0" xlink:href="#m947edd4171" y="254.571428571"/>
      </g>
     </g>
     <g id="text_9">
      <!-- 80 -->
      <defs>
       <path d="M 31.78125 34.625 
Q 24.75 34.625 20.71875 30.859375 
Q 16.703125 27.09375 16.703125 20.515625 
Q 16.703125 13.921875 20.71875 10.15625 
Q 24.75 6.390625 31.78125 6.390625 
Q 38.8125 6.390625 42.859375 10.171875 
Q 46.921875 13.96875 46.921875 20.515625 
Q 46.921875 27.09375 42.890625 30.859375 
Q 38.875 34.625 31.78125 34.625 
M 21.921875 38.8125 
Q 15.578125 40.375 12.03125 44.71875 
Q 8.5 49.078125 8.5 55.328125 
Q 8.5 64.0625 14.71875 69.140625 
Q 20.953125 74.21875 31.78125 74.21875 
Q 42.671875 74.21875 48.875 69.140625 
Q 55.078125 64.0625 55.078125 55.328125 
Q 55.078125 49.078125 51.53125 44.71875 
Q 48 40.375 41.703125 38.8125 
Q 48.828125 37.15625 52.796875 32.3125 
Q 56.78125 27.484375 56.78125 20.515625 
Q 56.78125 9.90625 50.3125 4.234375 
Q 43.84375 -1.421875 31.78125 -1.421875 
Q 19.734375 -1.421875 13.25 4.234375 
Q 6.78125 9.90625 6.78125 20.515625 
Q 6.78125 27.484375 10.78125 32.3125 
Q 14.796875 37.15625 21.921875 38.8125 
M 18.3125 54.390625 
Q 18.3125 48.734375 21.84375 45.5625 
Q 25.390625 42.390625 31.78125 42.390625 
Q 38.140625 42.390625 41.71875 45.5625 
Q 45.3125 48.734375 45.3125 54.390625 
Q 45.3125 60.0625 41.71875 63.234375 
Q 38.140625 66.40625 31.78125 66.40625 
Q 25.390625 66.40625 21.84375 63.234375 
Q 18.3125 60.0625 18.3125 54.390625 
" id="BitstreamVeraSans-Roman-38"/>
      </defs>
      <g style="fill:#262626;" transform="translate(141.1875 261.469866071)scale(0.25 -0.25)">
       <use xlink:href="#BitstreamVeraSans-Roman-38"/>
       <use x="63.623046875" xlink:href="#BitstreamVeraSans-Roman-30"/>
      </g>
     </g>
    </g>
    <g id="ytick_7">
     <g id="line2d_25">
      <path clip-path="url(#pe29d80d0f0)" d="M 180 166.885714 
L 1296 166.885714 
" style="fill:none;stroke:#ffffff;stroke-linecap:round;"/>
     </g>
     <g id="line2d_26">
      <g>
       <use style="fill:#262626;stroke:#262626;" x="180.0" xlink:href="#m947edd4171" y="166.885714286"/>
      </g>
     </g>
     <g id="line2d_27">
      <g>
       <use style="fill:#262626;stroke:#262626;" x="1296.0" xlink:href="#m947edd4171" y="166.885714286"/>
      </g>
     </g>
     <g id="text_10">
      <!-- 100 -->
      <g style="fill:#262626;" transform="translate(125.28125 173.784151786)scale(0.25 -0.25)">
       <use xlink:href="#BitstreamVeraSans-Roman-31"/>
       <use x="63.623046875" xlink:href="#BitstreamVeraSans-Roman-30"/>
       <use x="127.24609375" xlink:href="#BitstreamVeraSans-Roman-30"/>
      </g>
     </g>
    </g>
    <g id="ytick_8">
     <g id="line2d_28">
      <path clip-path="url(#pe29d80d0f0)" d="M 180 79.2 
L 1296 79.2 
" style="fill:none;stroke:#ffffff;stroke-linecap:round;"/>
     </g>
     <g id="line2d_29">
      <g>
       <use style="fill:#262626;stroke:#262626;" x="180.0" xlink:href="#m947edd4171" y="79.2"/>
      </g>
     </g>
     <g id="line2d_30">
      <g>
       <use style="fill:#262626;stroke:#262626;" x="1296.0" xlink:href="#m947edd4171" y="79.2"/>
      </g>
     </g>
     <g id="text_11">
      <!-- 120 -->
      <g style="fill:#262626;" transform="translate(125.28125 86.0984375)scale(0.25 -0.25)">
       <use xlink:href="#BitstreamVeraSans-Roman-31"/>
       <use x="63.623046875" xlink:href="#BitstreamVeraSans-Roman-32"/>
       <use x="127.24609375" xlink:href="#BitstreamVeraSans-Roman-30"/>
      </g>
     </g>
    </g>
    <g id="text_12">
     <!-- Phylogenetic Diversity -->
     <defs>
      <path d="M 18.3125 70.21875 
L 18.3125 54.6875 
L 36.8125 54.6875 
L 36.8125 47.703125 
L 18.3125 47.703125 
L 18.3125 18.015625 
Q 18.3125 11.328125 20.140625 9.421875 
Q 21.96875 7.515625 27.59375 7.515625 
L 36.8125 7.515625 
L 36.8125 0 
L 27.59375 0 
Q 17.1875 0 13.234375 3.875 
Q 9.28125 7.765625 9.28125 18.015625 
L 9.28125 47.703125 
L 2.6875 47.703125 
L 2.6875 54.6875 
L 9.28125 54.6875 
L 9.28125 70.21875 
z
" id="BitstreamVeraSans-Roman-74"/>
      <path d="M 2.984375 54.6875 
L 12.5 54.6875 
L 29.59375 8.796875 
L 46.6875 54.6875 
L 56.203125 54.6875 
L 35.6875 0 
L 23.484375 0 
z
" id="BitstreamVeraSans-Roman-76"/>
      <path d="M 48.78125 52.59375 
L 48.78125 44.1875 
Q 44.96875 46.296875 41.140625 47.34375 
Q 37.3125 48.390625 33.40625 48.390625 
Q 24.65625 48.390625 19.8125 42.84375 
Q 14.984375 37.3125 14.984375 27.296875 
Q 14.984375 17.28125 19.8125 11.734375 
Q 24.65625 6.203125 33.40625 6.203125 
Q 37.3125 6.203125 41.140625 7.25 
Q 44.96875 8.296875 48.78125 10.40625 
L 48.78125 2.09375 
Q 45.015625 0.34375 40.984375 -0.53125 
Q 36.96875 -1.421875 32.421875 -1.421875 
Q 20.0625 -1.421875 12.78125 6.34375 
Q 5.515625 14.109375 5.515625 27.296875 
Q 5.515625 40.671875 12.859375 48.328125 
Q 20.21875 56 33.015625 56 
Q 37.15625 56 41.109375 55.140625 
Q 45.0625 54.296875 48.78125 52.59375 
" id="BitstreamVeraSans-Roman-63"/>
      <path d="M 32.171875 -5.078125 
Q 28.375 -14.84375 24.75 -17.8125 
Q 21.140625 -20.796875 15.09375 -20.796875 
L 7.90625 -20.796875 
L 7.90625 -13.28125 
L 13.1875 -13.28125 
Q 16.890625 -13.28125 18.9375 -11.515625 
Q 21 -9.765625 23.484375 -3.21875 
L 25.09375 0.875 
L 2.984375 54.6875 
L 12.5 54.6875 
L 29.59375 11.921875 
L 46.6875 54.6875 
L 56.203125 54.6875 
z
" id="BitstreamVeraSans-Roman-79"/>
      <path d="M 54.890625 33.015625 
L 54.890625 0 
L 45.90625 0 
L 45.90625 32.71875 
Q 45.90625 40.484375 42.875 44.328125 
Q 39.84375 48.1875 33.796875 48.1875 
Q 26.515625 48.1875 22.3125 43.546875 
Q 18.109375 38.921875 18.109375 30.90625 
L 18.109375 0 
L 9.078125 0 
L 9.078125 75.984375 
L 18.109375 75.984375 
L 18.109375 46.1875 
Q 21.34375 51.125 25.703125 53.5625 
Q 30.078125 56 35.796875 56 
Q 45.21875 56 50.046875 50.171875 
Q 54.890625 44.34375 54.890625 33.015625 
" id="BitstreamVeraSans-Roman-68"/>
      <path d="M 19.671875 64.796875 
L 19.671875 8.109375 
L 31.59375 8.109375 
Q 46.6875 8.109375 53.6875 14.9375 
Q 60.6875 21.78125 60.6875 36.53125 
Q 60.6875 51.171875 53.6875 57.984375 
Q 46.6875 64.796875 31.59375 64.796875 
z
M 9.8125 72.90625 
L 30.078125 72.90625 
Q 51.265625 72.90625 61.171875 64.09375 
Q 71.09375 55.28125 71.09375 36.53125 
Q 71.09375 17.671875 61.125 8.828125 
Q 51.171875 0 30.078125 0 
L 9.8125 0 
z
" id="BitstreamVeraSans-Roman-44"/>
     </defs>
     <g style="fill:#262626;" transform="translate(109.519140625 540.1515625)rotate(-90.0)scale(0.275 -0.275)">
      <use xlink:href="#BitstreamVeraSans-Roman-50"/>
      <use x="60.302734375" xlink:href="#BitstreamVeraSans-Roman-68"/>
      <use x="123.681640625" xlink:href="#BitstreamVeraSans-Roman-79"/>
      <use x="182.861328125" xlink:href="#BitstreamVeraSans-Roman-6c"/>
      <use x="210.64453125" xlink:href="#BitstreamVeraSans-Roman-6f"/>
      <use x="271.826171875" xlink:href="#BitstreamVeraSans-Roman-67"/>
      <use x="335.302734375" xlink:href="#BitstreamVeraSans-Roman-65"/>
      <use x="396.826171875" xlink:href="#BitstreamVeraSans-Roman-6e"/>
      <use x="460.205078125" xlink:href="#BitstreamVeraSans-Roman-65"/>
      <use x="521.728515625" xlink:href="#BitstreamVeraSans-Roman-74"/>
      <use x="560.9375" xlink:href="#BitstreamVeraSans-Roman-69"/>
      <use x="588.720703125" xlink:href="#BitstreamVeraSans-Roman-63"/>
      <use x="643.701171875" xlink:href="#BitstreamVeraSans-Roman-20"/>
      <use x="675.48828125" xlink:href="#BitstreamVeraSans-Roman-44"/>
      <use x="752.490234375" xlink:href="#BitstreamVeraSans-Roman-69"/>
      <use x="780.2734375" xlink:href="#BitstreamVeraSans-Roman-76"/>
      <use x="839.453125" xlink:href="#BitstreamVeraSans-Roman-65"/>
      <use x="900.9765625" xlink:href="#BitstreamVeraSans-Roman-72"/>
      <use x="942.08984375" xlink:href="#BitstreamVeraSans-Roman-73"/>
      <use x="994.189453125" xlink:href="#BitstreamVeraSans-Roman-69"/>
      <use x="1021.97265625" xlink:href="#BitstreamVeraSans-Roman-74"/>
      <use x="1061.181640625" xlink:href="#BitstreamVeraSans-Roman-79"/>
     </g>
    </g>
   </g>
   <g id="PolyCollection_1">
    <defs>
     <path d="M 291.94949 -167.728213 
L 291.25051 -167.728213 
L 291.01541 -172.294487 
L 290.652813 -176.860761 
L 290.112477 -181.427035 
L 289.334131 -185.993309 
L 288.249754 -190.559583 
L 286.78773 -195.125857 
L 284.878724 -199.692131 
L 282.462725 -204.258405 
L 279.496354 -208.824679 
L 275.959434 -213.390953 
L 271.859912 -217.957227 
L 267.23664 -222.523501 
L 262.159956 -227.089775 
L 256.730413 -231.65605 
L 251.076107 -236.222324 
L 245.348871 -240.788598 
L 239.719209 -245.354872 
L 234.369514 -249.921146 
L 229.485056 -254.48742 
L 225.242583 -259.053694 
L 221.797147 -263.619968 
L 219.268615 -268.186242 
L 217.730013 -272.752516 
L 217.2 -277.31879 
L 217.641261 -281.885064 
L 218.965483 -286.451338 
L 221.044184 -291.017612 
L 223.723341 -295.583886 
L 226.839046 -300.15016 
L 230.231449 -304.716434 
L 233.755053 -309.282708 
L 237.284702 -313.848982 
L 240.717802 -318.415256 
L 243.974119 -322.98153 
L 246.994539 -327.547804 
L 249.739734 -332.114078 
L 252.188935 -336.680352 
L 254.338529 -341.246626 
L 256.200045 -345.8129 
L 257.797428 -350.379174 
L 259.163925 -354.945448 
L 260.339145 -359.511722 
L 261.366773 -364.077996 
L 262.292947 -368.64427 
L 263.164846 -373.210544 
L 264.028736 -377.776818 
L 264.926919 -382.343092 
L 265.893544 -386.909366 
L 266.949947 -391.47564 
L 268.100657 -396.041914 
L 269.331395 -400.608188 
L 270.610021 -405.174462 
L 271.890788 -409.740736 
L 273.121383 -414.30701 
L 274.251512 -418.873284 
L 275.241256 -423.439558 
L 276.067322 -428.005832 
L 276.725709 -432.572107 
L 277.230193 -437.138381 
L 277.607149 -441.704655 
L 277.888324 -446.270929 
L 278.103763 -450.837203 
L 278.277006 -455.403477 
L 278.423813 -459.969751 
L 278.554377 -464.536025 
L 278.677736 -469.102299 
L 278.806343 -473.668573 
L 278.958809 -478.234847 
L 279.159659 -482.801121 
L 279.436114 -487.367395 
L 279.813022 -491.933669 
L 280.307641 -496.499943 
L 280.925865 -501.066217 
L 281.660855 -505.632491 
L 282.494134 -510.198765 
L 283.398513 -514.765039 
L 284.341823 -519.331313 
L 285.290564 -523.897587 
L 286.212888 -528.463861 
L 287.080788 -533.030135 
L 287.871603 -537.596409 
L 288.569058 -542.162683 
L 289.163925 -546.728957 
L 289.654251 -551.295231 
L 290.045001 -555.861505 
L 290.347002 -560.427779 
L 290.575208 -564.994053 
L 290.74651 -569.560327 
L 290.877469 -574.126601 
L 290.982365 -578.692875 
L 291.071943 -583.259149 
L 291.152976 -587.825423 
L 291.228619 -592.391697 
L 291.299324 -596.957971 
L 291.363988 -601.524245 
L 291.421036 -606.090519 
L 291.469223 -610.656793 
L 291.508056 -615.223067 
L 291.537875 -619.789341 
L 291.662125 -619.789341 
L 291.662125 -619.789341 
L 291.691944 -615.223067 
L 291.730777 -610.656793 
L 291.778964 -606.090519 
L 291.836012 -601.524245 
L 291.900676 -596.957971 
L 291.971381 -592.391697 
L 292.047024 -587.825423 
L 292.128057 -583.259149 
L 292.217635 -578.692875 
L 292.322531 -574.126601 
L 292.45349 -569.560327 
L 292.624792 -564.994053 
L 292.852998 -560.427779 
L 293.154999 -555.861505 
L 293.545749 -551.295231 
L 294.036075 -546.728957 
L 294.630942 -542.162683 
L 295.328397 -537.596409 
L 296.119212 -533.030135 
L 296.987112 -528.463861 
L 297.909436 -523.897587 
L 298.858177 -519.331313 
L 299.801487 -514.765039 
L 300.705866 -510.198765 
L 301.539145 -505.632491 
L 302.274135 -501.066217 
L 302.892359 -496.499943 
L 303.386978 -491.933669 
L 303.763886 -487.367395 
L 304.040341 -482.801121 
L 304.241191 -478.234847 
L 304.393657 -473.668573 
L 304.522264 -469.102299 
L 304.645623 -464.536025 
L 304.776187 -459.969751 
L 304.922994 -455.403477 
L 305.096237 -450.837203 
L 305.311676 -446.270929 
L 305.592851 -441.704655 
L 305.969807 -437.138381 
L 306.474291 -432.572107 
L 307.132678 -428.005832 
L 307.958744 -423.439558 
L 308.948488 -418.873284 
L 310.078617 -414.30701 
L 311.309212 -409.740736 
L 312.589979 -405.174462 
L 313.868605 -400.608188 
L 315.099343 -396.041914 
L 316.250053 -391.47564 
L 317.306456 -386.909366 
L 318.273081 -382.343092 
L 319.171264 -377.776818 
L 320.035154 -373.210544 
L 320.907053 -368.64427 
L 321.833227 -364.077996 
L 322.860855 -359.511722 
L 324.036075 -354.945448 
L 325.402572 -350.379174 
L 326.999955 -345.8129 
L 328.861471 -341.246626 
L 331.011065 -336.680352 
L 333.460266 -332.114078 
L 336.205461 -327.547804 
L 339.225881 -322.98153 
L 342.482198 -318.415256 
L 345.915298 -313.848982 
L 349.444947 -309.282708 
L 352.968551 -304.716434 
L 356.360954 -300.15016 
L 359.476659 -295.583886 
L 362.155816 -291.017612 
L 364.234517 -286.451338 
L 365.558739 -281.885064 
L 366 -277.31879 
L 365.469987 -272.752516 
L 363.931385 -268.186242 
L 361.402853 -263.619968 
L 357.957417 -259.053694 
L 353.714944 -254.48742 
L 348.830486 -249.921146 
L 343.480791 -245.354872 
L 337.851129 -240.788598 
L 332.123893 -236.222324 
L 326.469587 -231.65605 
L 321.040044 -227.089775 
L 315.96336 -222.523501 
L 311.340088 -217.957227 
L 307.240566 -213.390953 
L 303.703646 -208.824679 
L 300.737275 -204.258405 
L 298.321276 -199.692131 
L 296.41227 -195.125857 
L 294.950246 -190.559583 
L 293.865869 -185.993309 
L 293.087523 -181.427035 
L 292.547187 -176.860761 
L 292.18459 -172.294487 
L 291.94949 -167.728213 
z
" id="m1c2da4101b" style="stroke:#404040;stroke-width:1.75;"/>
    </defs>
    <g clip-path="url(#pe29d80d0f0)">
     <use style="fill:#9fceb8;stroke:#404040;stroke-width:1.75;" x="0.0" xlink:href="#m1c2da4101b" y="792.0"/>
    </g>
   </g>
   <g id="PolyCollection_2">
    <defs>
     <path d="M 440.517538 -144.993408 
L 440.282462 -144.993408 
L 440.207476 -150.345113 
L 440.093216 -155.696818 
L 439.923348 -161.048523 
L 439.676239 -166.400228 
L 439.323584 -171.751933 
L 438.828848 -177.103638 
L 438.145773 -182.455343 
L 437.217431 -187.807048 
L 435.976557 -193.158753 
L 434.348007 -198.510458 
L 432.254155 -203.862163 
L 429.623618 -209.213868 
L 426.402993 -214.565573 
L 422.570318 -219.917278 
L 418.148085 -225.268983 
L 413.212972 -230.620688 
L 407.899532 -235.972393 
L 402.395866 -241.324098 
L 396.930778 -246.675803 
L 391.753743 -252.027508 
L 387.110657 -257.379213 
L 383.219299 -262.730918 
L 380.248407 -268.082623 
L 378.303308 -273.434328 
L 377.419478 -278.786033 
L 377.563762 -284.137738 
L 378.641825 -289.489444 
L 380.50991 -294.841149 
L 382.989202 -300.192854 
L 385.881557 -305.544559 
L 388.985838 -310.896264 
L 392.11411 -316.247969 
L 395.106624 -321.599674 
L 397.844017 -326.951379 
L 400.254952 -332.303084 
L 402.317703 -337.654789 
L 404.055169 -343.006494 
L 405.524081 -348.358199 
L 406.800444 -353.709904 
L 407.964011 -359.061609 
L 409.084624 -364.413314 
L 410.212613 -369.765019 
L 411.374278 -375.116724 
L 412.572318 -380.468429 
L 413.790101 -385.820134 
L 414.998162 -391.171839 
L 416.161277 -396.523544 
L 417.244816 -401.875249 
L 418.21956 -407.226954 
L 419.064694 -412.578659 
L 419.769073 -417.930364 
L 420.331059 -423.282069 
L 420.757341 -428.633774 
L 421.061117 -433.985479 
L 421.260071 -439.337185 
L 421.374513 -444.68889 
L 421.426061 -450.040595 
L 421.437079 -455.3923 
L 421.430853 -460.744005 
L 421.432236 -466.09571 
L 421.468197 -471.447415 
L 421.567701 -476.79912 
L 421.7605 -482.150825 
L 422.074753 -487.50253 
L 422.533861 -492.854235 
L 423.153195 -498.20594 
L 423.937481 -503.557645 
L 424.879466 -508.90935 
L 425.960166 -514.261055 
L 427.150645 -519.61276 
L 428.414994 -524.964465 
L 429.714001 -530.31617 
L 431.008926 -535.667875 
L 432.264802 -541.01958 
L 433.452814 -546.371285 
L 434.551461 -551.72299 
L 435.546513 -557.074695 
L 436.430047 -562.4264 
L 437.199033 -567.778105 
L 437.854003 -573.12981 
L 438.398169 -578.481515 
L 438.837114 -583.83322 
L 439.178886 -589.184926 
L 439.434176 -594.536631 
L 439.616213 -599.888336 
L 439.740157 -605.240041 
L 439.821978 -610.591746 
L 439.877006 -615.943451 
L 439.918475 -621.295156 
L 439.956383 -626.646861 
L 439.996939 -631.998566 
L 440.042665 -637.350271 
L 440.093082 -642.701976 
L 440.145754 -648.053681 
L 440.197433 -653.405386 
L 440.245031 -658.757091 
L 440.286276 -664.108796 
L 440.319992 -669.460501 
L 440.346056 -674.812206 
L 440.453944 -674.812206 
L 440.453944 -674.812206 
L 440.480008 -669.460501 
L 440.513724 -664.108796 
L 440.554969 -658.757091 
L 440.602567 -653.405386 
L 440.654246 -648.053681 
L 440.706918 -642.701976 
L 440.757335 -637.350271 
L 440.803061 -631.998566 
L 440.843617 -626.646861 
L 440.881525 -621.295156 
L 440.922994 -615.943451 
L 440.978022 -610.591746 
L 441.059843 -605.240041 
L 441.183787 -599.888336 
L 441.365824 -594.536631 
L 441.621114 -589.184926 
L 441.962886 -583.83322 
L 442.401831 -578.481515 
L 442.945997 -573.12981 
L 443.600967 -567.778105 
L 444.369953 -562.4264 
L 445.253487 -557.074695 
L 446.248539 -551.72299 
L 447.347186 -546.371285 
L 448.535198 -541.01958 
L 449.791074 -535.667875 
L 451.085999 -530.31617 
L 452.385006 -524.964465 
L 453.649355 -519.61276 
L 454.839834 -514.261055 
L 455.920534 -508.90935 
L 456.862519 -503.557645 
L 457.646805 -498.20594 
L 458.266139 -492.854235 
L 458.725247 -487.50253 
L 459.0395 -482.150825 
L 459.232299 -476.79912 
L 459.331803 -471.447415 
L 459.367764 -466.09571 
L 459.369147 -460.744005 
L 459.362921 -455.3923 
L 459.373939 -450.040595 
L 459.425487 -444.68889 
L 459.539929 -439.337185 
L 459.738883 -433.985479 
L 460.042659 -428.633774 
L 460.468941 -423.282069 
L 461.030927 -417.930364 
L 461.735306 -412.578659 
L 462.58044 -407.226954 
L 463.555184 -401.875249 
L 464.638723 -396.523544 
L 465.801838 -391.171839 
L 467.009899 -385.820134 
L 468.227682 -380.468429 
L 469.425722 -375.116724 
L 470.587387 -369.765019 
L 471.715376 -364.413314 
L 472.835989 -359.061609 
L 473.999556 -353.709904 
L 475.275919 -348.358199 
L 476.744831 -343.006494 
L 478.482297 -337.654789 
L 480.545048 -332.303084 
L 482.955983 -326.951379 
L 485.693376 -321.599674 
L 488.68589 -316.247969 
L 491.814162 -310.896264 
L 494.918443 -305.544559 
L 497.810798 -300.192854 
L 500.29009 -294.841149 
L 502.158175 -289.489444 
L 503.236238 -284.137738 
L 503.380522 -278.786033 
L 502.496692 -273.434328 
L 500.551593 -268.082623 
L 497.580701 -262.730918 
L 493.689343 -257.379213 
L 489.046257 -252.027508 
L 483.869222 -246.675803 
L 478.404134 -241.324098 
L 472.900468 -235.972393 
L 467.587028 -230.620688 
L 462.651915 -225.268983 
L 458.229682 -219.917278 
L 454.397007 -214.565573 
L 451.176382 -209.213868 
L 448.545845 -203.862163 
L 446.451993 -198.510458 
L 444.823443 -193.158753 
L 443.582569 -187.807048 
L 442.654227 -182.455343 
L 441.971152 -177.103638 
L 441.476416 -171.751933 
L 441.123761 -166.400228 
L 440.876652 -161.048523 
L 440.706784 -155.696818 
L 440.592524 -150.345113 
L 440.517538 -144.993408 
z
" id="m8798c96e72" style="stroke:#404040;stroke-width:1.75;"/>
    </defs>
    <g clip-path="url(#pe29d80d0f0)">
     <use style="fill:#327ba5;stroke:#404040;stroke-width:1.75;" x="0.0" xlink:href="#m8798c96e72" y="792.0"/>
    </g>
   </g>
   <g id="PolyCollection_3">
    <defs>
     <path d="M 663.867775 -180.40786 
L 663.332225 -180.40786 
L 663.14525 -183.963373 
L 662.855 -187.518886 
L 662.421017 -191.0744 
L 661.795246 -194.629913 
L 660.924047 -198.185427 
L 659.751627 -201.74094 
L 658.224704 -205.296454 
L 656.297875 -208.851967 
L 653.938812 -212.407481 
L 651.132265 -215.962994 
L 647.88199 -219.518508 
L 644.210186 -223.074021 
L 640.154803 -226.629535 
L 635.765775 -230.185048 
L 631.101731 -233.740562 
L 626.228526 -237.296075 
L 621.220289 -240.851589 
L 616.162654 -244.407102 
L 611.156859 -247.962616 
L 606.322912 -251.518129 
L 601.799945 -255.073643 
L 597.742413 -258.629156 
L 594.311544 -262.18467 
L 591.662354 -265.740183 
L 589.927485 -269.295696 
L 589.2 -272.85121 
L 589.517977 -276.406723 
L 590.854153 -279.962237 
L 593.113591 -283.51775 
L 596.141337 -287.073264 
L 599.74012 -290.628777 
L 603.695763 -294.184291 
L 607.805648 -297.739804 
L 611.90417 -301.295318 
L 615.87935 -304.850831 
L 619.676753 -308.406345 
L 623.290262 -311.961858 
L 626.742934 -315.517372 
L 630.063891 -319.072885 
L 633.268079 -322.628399 
L 636.344338 -326.183912 
L 639.254357 -329.739426 
L 641.94151 -333.294939 
L 644.345813 -336.850453 
L 646.41983 -340.405966 
L 648.140823 -343.961479 
L 649.516192 -347.516993 
L 650.581659 -351.072506 
L 651.393813 -354.62802 
L 652.019891 -358.183533 
L 652.527776 -361.739047 
L 652.97833 -365.29456 
L 653.420811 -368.850074 
L 653.890946 -372.405587 
L 654.41064 -375.961101 
L 654.988427 -379.516614 
L 655.620407 -383.072128 
L 656.291974 -386.627641 
L 656.980788 -390.183155 
L 657.661006 -393.738668 
L 658.308056 -397.294182 
L 658.902675 -400.849695 
L 659.432934 -404.405209 
L 659.893682 -407.960722 
L 660.283888 -411.516236 
L 660.603265 -415.071749 
L 660.849844 -418.627262 
L 661.019719 -422.182776 
L 661.109168 -425.738289 
L 661.118302 -429.293803 
L 661.054685 -432.849316 
L 660.935323 -436.40483 
L 660.785931 -439.960343 
L 660.637343 -443.515857 
L 660.519866 -447.07137 
L 660.457128 -450.626884 
L 660.461232 -454.182397 
L 660.53071 -457.737911 
L 660.651962 -461.293424 
L 660.803796 -464.848938 
L 660.963674 -468.404451 
L 661.113739 -471.959965 
L 661.244853 -475.515478 
L 661.357628 -479.070992 
L 661.460495 -482.626505 
L 661.565839 -486.182019 
L 661.685635 -489.737532 
L 661.827971 -493.293046 
L 661.995214 -496.848559 
L 662.183963 -500.404072 
L 662.386354 -503.959586 
L 662.592074 -507.515099 
L 662.790466 -511.070613 
L 662.972276 -514.626126 
L 663.130817 -518.18164 
L 663.262478 -521.737153 
L 663.366639 -525.292667 
L 663.445143 -528.84818 
L 663.501492 -532.403694 
L 663.698508 -532.403694 
L 663.698508 -532.403694 
L 663.754857 -528.84818 
L 663.833361 -525.292667 
L 663.937522 -521.737153 
L 664.069183 -518.18164 
L 664.227724 -514.626126 
L 664.409534 -511.070613 
L 664.607926 -507.515099 
L 664.813646 -503.959586 
L 665.016037 -500.404072 
L 665.204786 -496.848559 
L 665.372029 -493.293046 
L 665.514365 -489.737532 
L 665.634161 -486.182019 
L 665.739505 -482.626505 
L 665.842372 -479.070992 
L 665.955147 -475.515478 
L 666.086261 -471.959965 
L 666.236326 -468.404451 
L 666.396204 -464.848938 
L 666.548038 -461.293424 
L 666.66929 -457.737911 
L 666.738768 -454.182397 
L 666.742872 -450.626884 
L 666.680134 -447.07137 
L 666.562657 -443.515857 
L 666.414069 -439.960343 
L 666.264677 -436.40483 
L 666.145315 -432.849316 
L 666.081698 -429.293803 
L 666.090832 -425.738289 
L 666.180281 -422.182776 
L 666.350156 -418.627262 
L 666.596735 -415.071749 
L 666.916112 -411.516236 
L 667.306318 -407.960722 
L 667.767066 -404.405209 
L 668.297325 -400.849695 
L 668.891944 -397.294182 
L 669.538994 -393.738668 
L 670.219212 -390.183155 
L 670.908026 -386.627641 
L 671.579593 -383.072128 
L 672.211573 -379.516614 
L 672.78936 -375.961101 
L 673.309054 -372.405587 
L 673.779189 -368.850074 
L 674.22167 -365.29456 
L 674.672224 -361.739047 
L 675.180109 -358.183533 
L 675.806187 -354.62802 
L 676.618341 -351.072506 
L 677.683808 -347.516993 
L 679.059177 -343.961479 
L 680.78017 -340.405966 
L 682.854187 -336.850453 
L 685.25849 -333.294939 
L 687.945643 -329.739426 
L 690.855662 -326.183912 
L 693.931921 -322.628399 
L 697.136109 -319.072885 
L 700.457066 -315.517372 
L 703.909738 -311.961858 
L 707.523247 -308.406345 
L 711.32065 -304.850831 
L 715.29583 -301.295318 
L 719.394352 -297.739804 
L 723.504237 -294.184291 
L 727.45988 -290.628777 
L 731.058663 -287.073264 
L 734.086409 -283.51775 
L 736.345847 -279.962237 
L 737.682023 -276.406723 
L 738 -272.85121 
L 737.272515 -269.295696 
L 735.537646 -265.740183 
L 732.888456 -262.18467 
L 729.457587 -258.629156 
L 725.400055 -255.073643 
L 720.877088 -251.518129 
L 716.043141 -247.962616 
L 711.037346 -244.407102 
L 705.979711 -240.851589 
L 700.971474 -237.296075 
L 696.098269 -233.740562 
L 691.434225 -230.185048 
L 687.045197 -226.629535 
L 682.989814 -223.074021 
L 679.31801 -219.518508 
L 676.067735 -215.962994 
L 673.261188 -212.407481 
L 670.902125 -208.851967 
L 668.975296 -205.296454 
L 667.448373 -201.74094 
L 666.275953 -198.185427 
L 665.404754 -194.629913 
L 664.778983 -191.0744 
L 664.345 -187.518886 
L 664.05475 -183.963373 
L 663.867775 -180.40786 
z
" id="m00fda0cccb" style="stroke:#404040;stroke-width:1.75;"/>
    </defs>
    <g clip-path="url(#pe29d80d0f0)">
     <use style="fill:#9fceb8;stroke:#404040;stroke-width:1.75;" x="0.0" xlink:href="#m00fda0cccb" y="792.0"/>
    </g>
   </g>
   <g id="PolyCollection_4">
    <defs>
     <path d="M 812.737121 -186.193738 
L 812.062879 -186.193738 
L 811.760066 -190.954205 
L 811.251191 -195.714672 
L 810.442639 -200.475139 
L 809.222687 -205.235606 
L 807.467158 -209.996073 
L 805.048443 -214.756539 
L 801.848961 -219.517006 
L 797.780854 -224.277473 
L 792.812592 -229.03794 
L 786.999355 -233.798407 
L 780.508516 -238.558874 
L 773.627796 -243.319341 
L 766.745594 -248.079807 
L 760.301595 -252.840274 
L 754.717787 -257.600741 
L 750.329097 -262.361208 
L 747.334012 -267.121675 
L 745.778211 -271.882142 
L 745.572398 -276.642609 
L 746.534955 -281.403075 
L 748.444206 -286.163542 
L 751.084438 -290.924009 
L 754.273234 -295.684476 
L 757.864249 -300.444943 
L 761.728972 -305.20541 
L 765.730798 -309.965877 
L 769.709928 -314.726343 
L 773.493023 -319.48681 
L 776.927492 -324.247277 
L 779.924263 -329.007744 
L 782.485388 -333.768211 
L 784.699572 -338.528678 
L 786.705797 -343.289145 
L 788.64187 -348.049612 
L 790.601074 -352.810078 
L 792.613563 -357.570545 
L 794.655042 -362.331012 
L 796.672246 -367.091479 
L 798.609342 -371.851946 
L 800.423009 -376.612413 
L 802.083131 -381.37288 
L 803.565203 -386.133346 
L 804.844581 -390.893813 
L 805.899716 -395.65428 
L 806.723829 -400.414747 
L 807.337327 -405.175214 
L 807.791489 -409.935681 
L 808.158746 -414.696148 
L 808.512789 -419.456614 
L 808.907406 -424.217081 
L 809.363144 -428.977548 
L 809.866222 -433.738015 
L 810.378105 -438.498482 
L 810.850341 -443.258949 
L 811.238739 -448.019416 
L 811.513088 -452.779882 
L 811.661322 -457.540349 
L 811.689114 -462.300816 
L 811.616498 -467.061283 
L 811.472838 -471.82175 
L 811.291035 -476.582217 
L 811.101829 -481.342684 
L 810.929511 -486.103151 
L 810.790342 -490.863617 
L 810.694112 -495.624084 
L 810.647524 -500.384551 
L 810.656844 -505.145018 
L 810.727632 -509.905485 
L 810.861376 -514.665952 
L 811.051332 -519.426419 
L 811.280732 -524.186885 
L 811.525252 -528.947352 
L 811.758965 -533.707819 
L 811.960955 -538.468286 
L 812.119636 -543.228753 
L 812.233344 -547.98922 
L 812.307828 -552.749687 
L 812.352395 -557.510153 
L 812.37645 -562.27062 
L 812.387318 -567.031087 
L 812.389349 -571.791554 
L 812.383865 -576.552021 
L 812.369519 -581.312488 
L 812.34296 -586.072955 
L 812.299971 -590.833421 
L 812.237277 -595.593888 
L 812.154879 -600.354355 
L 812.058187 -605.114822 
L 811.958785 -609.875289 
L 811.872816 -614.635756 
L 811.816925 -619.396223 
L 811.803054 -624.15669 
L 811.834289 -628.917156 
L 811.903746 -633.677623 
L 811.997039 -638.43809 
L 812.09712 -643.198557 
L 812.18927 -647.959024 
L 812.264283 -652.719491 
L 812.319093 -657.479958 
L 812.480907 -657.479958 
L 812.480907 -657.479958 
L 812.535717 -652.719491 
L 812.61073 -647.959024 
L 812.70288 -643.198557 
L 812.802961 -638.43809 
L 812.896254 -633.677623 
L 812.965711 -628.917156 
L 812.996946 -624.15669 
L 812.983075 -619.396223 
L 812.927184 -614.635756 
L 812.841215 -609.875289 
L 812.741813 -605.114822 
L 812.645121 -600.354355 
L 812.562723 -595.593888 
L 812.500029 -590.833421 
L 812.45704 -586.072955 
L 812.430481 -581.312488 
L 812.416135 -576.552021 
L 812.410651 -571.791554 
L 812.412682 -567.031087 
L 812.42355 -562.27062 
L 812.447605 -557.510153 
L 812.492172 -552.749687 
L 812.566656 -547.98922 
L 812.680364 -543.228753 
L 812.839045 -538.468286 
L 813.041035 -533.707819 
L 813.274748 -528.947352 
L 813.519268 -524.186885 
L 813.748668 -519.426419 
L 813.938624 -514.665952 
L 814.072368 -509.905485 
L 814.143156 -505.145018 
L 814.152476 -500.384551 
L 814.105888 -495.624084 
L 814.009658 -490.863617 
L 813.870489 -486.103151 
L 813.698171 -481.342684 
L 813.508965 -476.582217 
L 813.327162 -471.82175 
L 813.183502 -467.061283 
L 813.110886 -462.300816 
L 813.138678 -457.540349 
L 813.286912 -452.779882 
L 813.561261 -448.019416 
L 813.949659 -443.258949 
L 814.421895 -438.498482 
L 814.933778 -433.738015 
L 815.436856 -428.977548 
L 815.892594 -424.217081 
L 816.287211 -419.456614 
L 816.641254 -414.696148 
L 817.008511 -409.935681 
L 817.462673 -405.175214 
L 818.076171 -400.414747 
L 818.900284 -395.65428 
L 819.955419 -390.893813 
L 821.234797 -386.133346 
L 822.716869 -381.37288 
L 824.376991 -376.612413 
L 826.190658 -371.851946 
L 828.127754 -367.091479 
L 830.144958 -362.331012 
L 832.186437 -357.570545 
L 834.198926 -352.810078 
L 836.15813 -348.049612 
L 838.094203 -343.289145 
L 840.100428 -338.528678 
L 842.314612 -333.768211 
L 844.875737 -329.007744 
L 847.872508 -324.247277 
L 851.306977 -319.48681 
L 855.090072 -314.726343 
L 859.069202 -309.965877 
L 863.071028 -305.20541 
L 866.935751 -300.444943 
L 870.526766 -295.684476 
L 873.715562 -290.924009 
L 876.355794 -286.163542 
L 878.265045 -281.403075 
L 879.227602 -276.642609 
L 879.021789 -271.882142 
L 877.465988 -267.121675 
L 874.470903 -262.361208 
L 870.082213 -257.600741 
L 864.498405 -252.840274 
L 858.054406 -248.079807 
L 851.172204 -243.319341 
L 844.291484 -238.558874 
L 837.800645 -233.798407 
L 831.987408 -229.03794 
L 827.019146 -224.277473 
L 822.951039 -219.517006 
L 819.751557 -214.756539 
L 817.332842 -209.996073 
L 815.577313 -205.235606 
L 814.357361 -200.475139 
L 813.548809 -195.714672 
L 813.039934 -190.954205 
L 812.737121 -186.193738 
z
" id="mef044d0c6e" style="stroke:#404040;stroke-width:1.75;"/>
    </defs>
    <g clip-path="url(#pe29d80d0f0)">
     <use style="fill:#327ba5;stroke:#404040;stroke-width:1.75;" x="0.0" xlink:href="#mef044d0c6e" y="792.0"/>
    </g>
   </g>
   <g id="PolyCollection_5">
    <defs>
     <path d="M 1036.415934 -175.661999 
L 1034.784066 -175.661999 
L 1034.446271 -180.258223 
L 1034.00725 -184.854447 
L 1033.452083 -189.450672 
L 1032.768737 -194.046896 
L 1031.949552 -198.64312 
L 1030.992396 -203.239344 
L 1029.901201 -207.835569 
L 1028.685661 -212.431793 
L 1027.360007 -217.028017 
L 1025.940913 -221.624241 
L 1024.444784 -226.220466 
L 1022.884818 -230.81669 
L 1021.268341 -235.412914 
L 1019.594904 -240.009138 
L 1017.855559 -244.605362 
L 1016.033582 -249.201587 
L 1014.106623 -253.797811 
L 1012.050098 -258.394035 
L 1009.841303 -262.990259 
L 1007.463658 -267.586484 
L 1004.910353 -272.182708 
L 1002.186781 -276.778932 
L 999.311323 -281.375156 
L 996.31434 -285.971381 
L 993.2356 -290.567605 
L 990.120628 -295.163829 
L 987.016715 -299.760053 
L 983.969299 -304.356277 
L 981.019321 -308.952502 
L 978.201829 -313.548726 
L 975.545787 -318.14495 
L 973.074721 -322.741174 
L 970.807701 -327.337399 
L 968.760191 -331.933623 
L 966.94449 -336.529847 
L 965.369806 -341.126071 
L 964.042246 -345.722296 
L 962.965126 -350.31852 
L 962.139927 -354.914744 
L 961.567954 -359.510968 
L 961.252372 -364.107193 
L 961.2 -368.703417 
L 961.422072 -373.299641 
L 961.93333 -377.895865 
L 962.749158 -382.492089 
L 963.881041 -387.088314 
L 965.331144 -391.684538 
L 967.087209 -396.280762 
L 969.119013 -400.876986 
L 971.3774 -405.473211 
L 973.796343 -410.069435 
L 976.297828 -414.665659 
L 978.798743 -419.261883 
L 981.218537 -423.858108 
L 983.486336 -428.454332 
L 985.546445 -433.050556 
L 987.36162 -437.64678 
L 988.91407 -442.243004 
L 990.204601 -446.839229 
L 991.250623 -451.435453 
L 992.083696 -456.031677 
L 992.747134 -460.627901 
L 993.293798 -465.224126 
L 993.783936 -469.82035 
L 994.282695 -474.416574 
L 994.856983 -479.012798 
L 995.571521 -483.609023 
L 996.484245 -488.205247 
L 997.641509 -492.801471 
L 999.073747 -497.397695 
L 1000.792263 -501.993919 
L 1002.78772 -506.590144 
L 1005.030589 -511.186368 
L 1007.473558 -515.782592 
L 1010.055579 -520.378816 
L 1012.707067 -524.975041 
L 1015.355619 -529.571265 
L 1017.931665 -534.167489 
L 1020.373487 -538.763713 
L 1022.631166 -543.359938 
L 1024.669175 -547.956162 
L 1026.467434 -552.552386 
L 1028.020879 -557.14861 
L 1029.337674 -561.744834 
L 1030.436411 -566.341059 
L 1031.342705 -570.937283 
L 1032.085647 -575.533507 
L 1032.694571 -580.129731 
L 1033.196475 -584.725956 
L 1033.614324 -589.32218 
L 1033.966265 -593.918404 
L 1034.265665 -598.514628 
L 1034.521759 -603.110853 
L 1034.740641 -607.707077 
L 1034.926346 -612.303301 
L 1035.081814 -616.899525 
L 1035.209619 -621.495749 
L 1035.312402 -626.091974 
L 1035.393053 -630.688198 
L 1035.806947 -630.688198 
L 1035.806947 -630.688198 
L 1035.887598 -626.091974 
L 1035.990381 -621.495749 
L 1036.118186 -616.899525 
L 1036.273654 -612.303301 
L 1036.459359 -607.707077 
L 1036.678241 -603.110853 
L 1036.934335 -598.514628 
L 1037.233735 -593.918404 
L 1037.585676 -589.32218 
L 1038.003525 -584.725956 
L 1038.505429 -580.129731 
L 1039.114353 -575.533507 
L 1039.857295 -570.937283 
L 1040.763589 -566.341059 
L 1041.862326 -561.744834 
L 1043.179121 -557.14861 
L 1044.732566 -552.552386 
L 1046.530825 -547.956162 
L 1048.568834 -543.359938 
L 1050.826513 -538.763713 
L 1053.268335 -534.167489 
L 1055.844381 -529.571265 
L 1058.492933 -524.975041 
L 1061.144421 -520.378816 
L 1063.726442 -515.782592 
L 1066.169411 -511.186368 
L 1068.41228 -506.590144 
L 1070.407737 -501.993919 
L 1072.126253 -497.397695 
L 1073.558491 -492.801471 
L 1074.715755 -488.205247 
L 1075.628479 -483.609023 
L 1076.343017 -479.012798 
L 1076.917305 -474.416574 
L 1077.416064 -469.82035 
L 1077.906202 -465.224126 
L 1078.452866 -460.627901 
L 1079.116304 -456.031677 
L 1079.949377 -451.435453 
L 1080.995399 -446.839229 
L 1082.28593 -442.243004 
L 1083.83838 -437.64678 
L 1085.653555 -433.050556 
L 1087.713664 -428.454332 
L 1089.981463 -423.858108 
L 1092.401257 -419.261883 
L 1094.902172 -414.665659 
L 1097.403657 -410.069435 
L 1099.8226 -405.473211 
L 1102.080987 -400.876986 
L 1104.112791 -396.280762 
L 1105.868856 -391.684538 
L 1107.318959 -387.088314 
L 1108.450842 -382.492089 
L 1109.26667 -377.895865 
L 1109.777928 -373.299641 
L 1110 -368.703417 
L 1109.947628 -364.107193 
L 1109.632046 -359.510968 
L 1109.060073 -354.914744 
L 1108.234874 -350.31852 
L 1107.157754 -345.722296 
L 1105.830194 -341.126071 
L 1104.25551 -336.529847 
L 1102.439809 -331.933623 
L 1100.392299 -327.337399 
L 1098.125279 -322.741174 
L 1095.654213 -318.14495 
L 1092.998171 -313.548726 
L 1090.180679 -308.952502 
L 1087.230701 -304.356277 
L 1084.183285 -299.760053 
L 1081.079372 -295.163829 
L 1077.9644 -290.567605 
L 1074.88566 -285.971381 
L 1071.888677 -281.375156 
L 1069.013219 -276.778932 
L 1066.289647 -272.182708 
L 1063.736342 -267.586484 
L 1061.358697 -262.990259 
L 1059.149902 -258.394035 
L 1057.093377 -253.797811 
L 1055.166418 -249.201587 
L 1053.344441 -244.605362 
L 1051.605096 -240.009138 
L 1049.931659 -235.412914 
L 1048.315182 -230.81669 
L 1046.755216 -226.220466 
L 1045.259087 -221.624241 
L 1043.839993 -217.028017 
L 1042.514339 -212.431793 
L 1041.298799 -207.835569 
L 1040.207604 -203.239344 
L 1039.250448 -198.64312 
L 1038.431263 -194.046896 
L 1037.747917 -189.450672 
L 1037.19275 -184.854447 
L 1036.753729 -180.258223 
L 1036.415934 -175.661999 
z
" id="mdcd7d96f43" style="stroke:#404040;stroke-width:1.75;"/>
    </defs>
    <g clip-path="url(#pe29d80d0f0)">
     <use style="fill:#9fceb8;stroke:#404040;stroke-width:1.75;" x="0.0" xlink:href="#mdcd7d96f43" y="792.0"/>
    </g>
   </g>
   <g id="PolyCollection_6">
    <defs>
     <path d="M 1184.74545 -139.398926 
L 1184.05455 -139.398926 
L 1183.906077 -144.237747 
L 1183.712262 -149.076567 
L 1183.467236 -153.915387 
L 1183.167394 -158.754208 
L 1182.812452 -163.593028 
L 1182.406289 -168.431849 
L 1181.957345 -173.270669 
L 1181.478394 -178.109489 
L 1180.985572 -182.94831 
L 1180.496667 -187.78713 
L 1180.028849 -192.62595 
L 1179.596132 -197.464771 
L 1179.206966 -202.303591 
L 1178.862359 -207.142412 
L 1178.554905 -211.981232 
L 1178.268901 -216.820052 
L 1177.981626 -221.658873 
L 1177.665636 -226.497693 
L 1177.291817 -231.336514 
L 1176.832813 -236.175334 
L 1176.266454 -241.014154 
L 1175.578752 -245.852975 
L 1174.766129 -250.691795 
L 1173.83652 -255.530615 
L 1172.809108 -260.369436 
L 1171.712517 -265.208256 
L 1170.58144 -270.047077 
L 1169.451876 -274.885897 
L 1168.3554 -279.724717 
L 1167.31311 -284.563538 
L 1166.330126 -289.402358 
L 1165.391581 -294.241178 
L 1164.460976 -299.079999 
L 1163.481567 -303.918819 
L 1162.381007 -308.75764 
L 1161.079021 -313.59646 
L 1159.497308 -318.43528 
L 1157.570477 -323.274101 
L 1155.256465 -328.112921 
L 1152.544883 -332.951741 
L 1149.461906 -337.790562 
L 1146.070784 -342.629382 
L 1142.467716 -347.468203 
L 1138.773474 -352.307023 
L 1135.121886 -357.145843 
L 1131.64669 -361.984664 
L 1128.468511 -366.823484 
L 1125.683603 -371.662304 
L 1123.355661 -376.501125 
L 1121.51149 -381.339945 
L 1120.140769 -386.178766 
L 1119.199605 -391.017586 
L 1118.617223 -395.856406 
L 1118.304839 -400.695227 
L 1118.165679 -405.534047 
L 1118.105057 -410.372867 
L 1118.039513 -415.211688 
L 1117.904116 -420.050508 
L 1117.657296 -424.889329 
L 1117.282829 -429.728149 
L 1116.789002 -434.566969 
L 1116.20537 -439.40579 
L 1115.577816 -444.24461 
L 1114.962862 -449.08343 
L 1114.422124 -453.922251 
L 1114.017642 -458.761071 
L 1113.808462 -463.599892 
L 1113.848446 -468.438712 
L 1114.185008 -473.277532 
L 1114.858266 -478.116353 
L 1115.900172 -482.955173 
L 1117.333325 -487.793993 
L 1119.169467 -492.632814 
L 1121.407894 -497.471634 
L 1124.034183 -502.310455 
L 1127.019648 -507.149275 
L 1130.32184 -511.988095 
L 1133.88621 -516.826916 
L 1137.648827 -521.665736 
L 1141.539871 -526.504556 
L 1145.487491 -531.343377 
L 1149.421585 -536.182197 
L 1153.277095 -541.021018 
L 1156.996535 -545.859838 
L 1160.531597 -550.698658 
L 1163.843859 -555.537479 
L 1166.904712 -560.376299 
L 1169.69477 -565.215119 
L 1172.203003 -570.05394 
L 1174.425814 -574.89276 
L 1176.366202 -579.731581 
L 1178.033036 -584.570401 
L 1179.440393 -589.409221 
L 1180.606852 -594.248042 
L 1181.554658 -599.086862 
L 1182.308701 -603.925682 
L 1182.895349 -608.764503 
L 1183.341192 -613.603323 
L 1183.671856 -618.442144 
L 1185.128144 -618.442144 
L 1185.128144 -618.442144 
L 1185.458808 -613.603323 
L 1185.904651 -608.764503 
L 1186.491299 -603.925682 
L 1187.245342 -599.086862 
L 1188.193148 -594.248042 
L 1189.359607 -589.409221 
L 1190.766964 -584.570401 
L 1192.433798 -579.731581 
L 1194.374186 -574.89276 
L 1196.596997 -570.05394 
L 1199.10523 -565.215119 
L 1201.895288 -560.376299 
L 1204.956141 -555.537479 
L 1208.268403 -550.698658 
L 1211.803465 -545.859838 
L 1215.522905 -541.021018 
L 1219.378415 -536.182197 
L 1223.312509 -531.343377 
L 1227.260129 -526.504556 
L 1231.151173 -521.665736 
L 1234.91379 -516.826916 
L 1238.47816 -511.988095 
L 1241.780352 -507.149275 
L 1244.765817 -502.310455 
L 1247.392106 -497.471634 
L 1249.630533 -492.632814 
L 1251.466675 -487.793993 
L 1252.899828 -482.955173 
L 1253.941734 -478.116353 
L 1254.614992 -473.277532 
L 1254.951554 -468.438712 
L 1254.991538 -463.599892 
L 1254.782358 -458.761071 
L 1254.377876 -453.922251 
L 1253.837138 -449.08343 
L 1253.222184 -444.24461 
L 1252.59463 -439.40579 
L 1252.010998 -434.566969 
L 1251.517171 -429.728149 
L 1251.142704 -424.889329 
L 1250.895884 -420.050508 
L 1250.760487 -415.211688 
L 1250.694943 -410.372867 
L 1250.634321 -405.534047 
L 1250.495161 -400.695227 
L 1250.182777 -395.856406 
L 1249.600395 -391.017586 
L 1248.659231 -386.178766 
L 1247.28851 -381.339945 
L 1245.444339 -376.501125 
L 1243.116397 -371.662304 
L 1240.331489 -366.823484 
L 1237.15331 -361.984664 
L 1233.678114 -357.145843 
L 1230.026526 -352.307023 
L 1226.332284 -347.468203 
L 1222.729216 -342.629382 
L 1219.338094 -337.790562 
L 1216.255117 -332.951741 
L 1213.543535 -328.112921 
L 1211.229523 -323.274101 
L 1209.302692 -318.43528 
L 1207.720979 -313.59646 
L 1206.418993 -308.75764 
L 1205.318433 -303.918819 
L 1204.339024 -299.079999 
L 1203.408419 -294.241178 
L 1202.469874 -289.402358 
L 1201.48689 -284.563538 
L 1200.4446 -279.724717 
L 1199.348124 -274.885897 
L 1198.21856 -270.047077 
L 1197.087483 -265.208256 
L 1195.990892 -260.369436 
L 1194.96348 -255.530615 
L 1194.033871 -250.691795 
L 1193.221248 -245.852975 
L 1192.533546 -241.014154 
L 1191.967187 -236.175334 
L 1191.508183 -231.336514 
L 1191.134364 -226.497693 
L 1190.818374 -221.658873 
L 1190.531099 -216.820052 
L 1190.245095 -211.981232 
L 1189.937641 -207.142412 
L 1189.593034 -202.303591 
L 1189.203868 -197.464771 
L 1188.771151 -192.62595 
L 1188.303333 -187.78713 
L 1187.814428 -182.94831 
L 1187.321606 -178.109489 
L 1186.842655 -173.270669 
L 1186.393711 -168.431849 
L 1185.987548 -163.593028 
L 1185.632606 -158.754208 
L 1185.332764 -153.915387 
L 1185.087738 -149.076567 
L 1184.893923 -144.237747 
L 1184.74545 -139.398926 
z
" id="m594c50df22" style="stroke:#404040;stroke-width:1.75;"/>
    </defs>
    <g clip-path="url(#pe29d80d0f0)">
     <use style="fill:#327ba5;stroke:#404040;stroke-width:1.75;" x="0.0" xlink:href="#m594c50df22" y="792.0"/>
    </g>
   </g>
   <g id="patch_3">
    <path clip-path="url(#pe29d80d0f0)" d="M 366 605.314286 
L 366 605.314286 
L 366 605.314286 
L 366 605.314286 
z
" style="fill:#9fceb8;stroke:#404040;stroke-linejoin:miter;stroke-width:0.875;"/>
   </g>
   <g id="patch_4">
    <path clip-path="url(#pe29d80d0f0)" d="M 366 605.314286 
L 366 605.314286 
L 366 605.314286 
L 366 605.314286 
z
" style="fill:#327ba5;stroke:#404040;stroke-linejoin:miter;stroke-width:0.875;"/>
   </g>
   <g id="line2d_31">
    <path clip-path="url(#pe29d80d0f0)" d="M 291.6 579.595478 
L 291.6 287.877076 
" style="fill:none;stroke:#404040;stroke-linecap:round;stroke-width:1.75;"/>
   </g>
   <g id="line2d_32">
    <path clip-path="url(#pe29d80d0f0)" d="M 291.6 521.783583 
L 291.6 427.539913 
" style="fill:none;stroke:#404040;stroke-linecap:round;stroke-width:5.25;"/>
   </g>
   <g id="line2d_33">
    <path clip-path="url(#pe29d80d0f0)" d="M 440.4 595.419637 
L 440.4 230.739293 
" style="fill:none;stroke:#404040;stroke-linecap:round;stroke-width:1.75;"/>
   </g>
   <g id="line2d_34">
    <path clip-path="url(#pe29d80d0f0)" d="M 440.4 518.142388 
L 440.4 392.237135 
" style="fill:none;stroke:#404040;stroke-linecap:round;stroke-width:5.25;"/>
   </g>
   <g id="line2d_35">
    <path clip-path="url(#pe29d80d0f0)" d="M 663.6 579.595478 
L 663.6 410.347196 
" style="fill:none;stroke:#404040;stroke-linecap:round;stroke-width:1.75;"/>
   </g>
   <g id="line2d_36">
    <path clip-path="url(#pe29d80d0f0)" d="M 663.6 531.922167 
L 663.6 483.202286 
" style="fill:none;stroke:#404040;stroke-linecap:round;stroke-width:5.25;"/>
   </g>
   <g id="line2d_37">
    <path clip-path="url(#pe29d80d0f0)" d="M 812.4 571.551555 
L 812.4 402.041513 
" style="fill:none;stroke:#404040;stroke-linecap:round;stroke-width:1.75;"/>
   </g>
   <g id="line2d_38">
    <path clip-path="url(#pe29d80d0f0)" d="M 812.4 527.504879 
L 812.4 472.572904 
" style="fill:none;stroke:#404040;stroke-linecap:round;stroke-width:5.25;"/>
   </g>
   <g id="line2d_39">
    <path clip-path="url(#pe29d80d0f0)" d="M 1035.6 560.762836 
L 1035.6 216.886967 
" style="fill:none;stroke:#404040;stroke-linecap:round;stroke-width:1.75;"/>
   </g>
   <g id="line2d_40">
    <path clip-path="url(#pe29d80d0f0)" d="M 1035.6 460.225262 
L 1035.6 349.361164 
" style="fill:none;stroke:#404040;stroke-linecap:round;stroke-width:5.25;"/>
   </g>
   <g id="line2d_41">
    <path clip-path="url(#pe29d80d0f0)" d="M 1184.4 586.10741 
L 1184.4 230.739293 
" style="fill:none;stroke:#404040;stroke-linecap:round;stroke-width:1.75;"/>
   </g>
   <g id="line2d_42">
    <path clip-path="url(#pe29d80d0f0)" d="M 1184.4 419.23051 
L 1184.4 306.410955 
" style="fill:none;stroke:#404040;stroke-linecap:round;stroke-width:5.25;"/>
   </g>
   <g id="patch_5">
    <path d="M 180 693 
L 1296 693 
" style="fill:none;"/>
   </g>
   <g id="patch_6">
    <path d="M 1296 693 
L 1296 79.2 
" style="fill:none;"/>
   </g>
   <g id="patch_7">
    <path d="M 180 693 
L 180 79.2 
" style="fill:none;"/>
   </g>
   <g id="patch_8">
    <path d="M 180 79.2 
L 1296 79.2 
" style="fill:none;"/>
   </g>
   <g id="PathCollection_1">
    <defs>
     <path d="M 0 1.75 
C 0.464105 1.75 0.909265 1.565609 1.237437 1.237437 
C 1.565609 0.909265 1.75 0.464105 1.75 0 
C 1.75 -0.464105 1.565609 -0.909265 1.237437 -1.237437 
C 0.909265 -1.565609 0.464105 -1.75 0 -1.75 
C -0.464105 -1.75 -0.909265 -1.565609 -1.237437 -1.237437 
C -1.565609 -0.909265 -1.75 -0.464105 -1.75 0 
C -1.75 0.464105 -1.565609 0.909265 -1.237437 1.237437 
C -0.909265 1.565609 -0.464105 1.75 0 1.75 
z
" id="m4c165b9b46" style="stroke:#404040;stroke-width:0.3;"/>
    </defs>
    <g clip-path="url(#pe29d80d0f0)">
     <use style="fill:#ffffff;stroke:#404040;stroke-width:0.3;" x="291.6" xlink:href="#m4c165b9b46" y="491.43520008"/>
    </g>
   </g>
   <g id="PathCollection_2">
    <g clip-path="url(#pe29d80d0f0)">
     <use style="fill:#ffffff;stroke:#404040;stroke-width:0.3;" x="440.4" xlink:href="#m4c165b9b46" y="478.11512628"/>
    </g>
   </g>
   <g id="PathCollection_3">
    <g clip-path="url(#pe29d80d0f0)">
     <use style="fill:#ffffff;stroke:#404040;stroke-width:0.3;" x="663.6" xlink:href="#m4c165b9b46" y="511.379870406"/>
    </g>
   </g>
   <g id="PathCollection_4">
    <g clip-path="url(#pe29d80d0f0)">
     <use style="fill:#ffffff;stroke:#404040;stroke-width:0.3;" x="812.4" xlink:href="#m4c165b9b46" y="504.751054005"/>
    </g>
   </g>
   <g id="PathCollection_5">
    <g clip-path="url(#pe29d80d0f0)">
     <use style="fill:#ffffff;stroke:#404040;stroke-width:0.3;" x="1035.6" xlink:href="#m4c165b9b46" y="408.617125856"/>
    </g>
   </g>
   <g id="PathCollection_6">
    <g clip-path="url(#pe29d80d0f0)">
     <use style="fill:#ffffff;stroke:#404040;stroke-width:0.3;" x="1184.4" xlink:href="#m4c165b9b46" y="359.619455745"/>
    </g>
   </g>
   <g id="text_13">
    <!-- Phylogenetic Diversity -->
    <g style="fill:#262626;" transform="translate(569.94375 74.2)scale(0.3 -0.3)">
     <use xlink:href="#BitstreamVeraSans-Roman-50"/>
     <use x="60.302734375" xlink:href="#BitstreamVeraSans-Roman-68"/>
     <use x="123.681640625" xlink:href="#BitstreamVeraSans-Roman-79"/>
     <use x="182.861328125" xlink:href="#BitstreamVeraSans-Roman-6c"/>
     <use x="210.64453125" xlink:href="#BitstreamVeraSans-Roman-6f"/>
     <use x="271.826171875" xlink:href="#BitstreamVeraSans-Roman-67"/>
     <use x="335.302734375" xlink:href="#BitstreamVeraSans-Roman-65"/>
     <use x="396.826171875" xlink:href="#BitstreamVeraSans-Roman-6e"/>
     <use x="460.205078125" xlink:href="#BitstreamVeraSans-Roman-65"/>
     <use x="521.728515625" xlink:href="#BitstreamVeraSans-Roman-74"/>
     <use x="560.9375" xlink:href="#BitstreamVeraSans-Roman-69"/>
     <use x="588.720703125" xlink:href="#BitstreamVeraSans-Roman-63"/>
     <use x="643.701171875" xlink:href="#BitstreamVeraSans-Roman-20"/>
     <use x="675.48828125" xlink:href="#BitstreamVeraSans-Roman-44"/>
     <use x="752.490234375" xlink:href="#BitstreamVeraSans-Roman-69"/>
     <use x="780.2734375" xlink:href="#BitstreamVeraSans-Roman-76"/>
     <use x="839.453125" xlink:href="#BitstreamVeraSans-Roman-65"/>
     <use x="900.9765625" xlink:href="#BitstreamVeraSans-Roman-72"/>
     <use x="942.08984375" xlink:href="#BitstreamVeraSans-Roman-73"/>
     <use x="994.189453125" xlink:href="#BitstreamVeraSans-Roman-69"/>
     <use x="1021.97265625" xlink:href="#BitstreamVeraSans-Roman-74"/>
     <use x="1061.181640625" xlink:href="#BitstreamVeraSans-Roman-79"/>
    </g>
   </g>
   <g id="legend_1">
    <g id="text_14">
     <!-- Sampling Frequency -->
     <defs>
      <path d="M 52 44.1875 
Q 55.375 50.25 60.0625 53.125 
Q 64.75 56 71.09375 56 
Q 79.640625 56 84.28125 50.015625 
Q 88.921875 44.046875 88.921875 33.015625 
L 88.921875 0 
L 79.890625 0 
L 79.890625 32.71875 
Q 79.890625 40.578125 77.09375 44.375 
Q 74.3125 48.1875 68.609375 48.1875 
Q 61.625 48.1875 57.5625 43.546875 
Q 53.515625 38.921875 53.515625 30.90625 
L 53.515625 0 
L 44.484375 0 
L 44.484375 32.71875 
Q 44.484375 40.625 41.703125 44.40625 
Q 38.921875 48.1875 33.109375 48.1875 
Q 26.21875 48.1875 22.15625 43.53125 
Q 18.109375 38.875 18.109375 30.90625 
L 18.109375 0 
L 9.078125 0 
L 9.078125 54.6875 
L 18.109375 54.6875 
L 18.109375 46.1875 
Q 21.1875 51.21875 25.484375 53.609375 
Q 29.78125 56 35.6875 56 
Q 41.65625 56 45.828125 52.96875 
Q 50 49.953125 52 44.1875 
" id="BitstreamVeraSans-Roman-6d"/>
      <path d="M 14.796875 27.296875 
Q 14.796875 17.390625 18.875 11.75 
Q 22.953125 6.109375 30.078125 6.109375 
Q 37.203125 6.109375 41.296875 11.75 
Q 45.40625 17.390625 45.40625 27.296875 
Q 45.40625 37.203125 41.296875 42.84375 
Q 37.203125 48.484375 30.078125 48.484375 
Q 22.953125 48.484375 18.875 42.84375 
Q 14.796875 37.203125 14.796875 27.296875 
M 45.40625 8.203125 
Q 42.578125 3.328125 38.25 0.953125 
Q 33.9375 -1.421875 27.875 -1.421875 
Q 17.96875 -1.421875 11.734375 6.484375 
Q 5.515625 14.40625 5.515625 27.296875 
Q 5.515625 40.1875 11.734375 48.09375 
Q 17.96875 56 27.875 56 
Q 33.9375 56 38.25 53.625 
Q 42.578125 51.265625 45.40625 46.390625 
L 45.40625 54.6875 
L 54.390625 54.6875 
L 54.390625 -20.796875 
L 45.40625 -20.796875 
z
" id="BitstreamVeraSans-Roman-71"/>
      <path d="M 8.5 21.578125 
L 8.5 54.6875 
L 17.484375 54.6875 
L 17.484375 21.921875 
Q 17.484375 14.15625 20.5 10.265625 
Q 23.53125 6.390625 29.59375 6.390625 
Q 36.859375 6.390625 41.078125 11.03125 
Q 45.3125 15.671875 45.3125 23.6875 
L 45.3125 54.6875 
L 54.296875 54.6875 
L 54.296875 0 
L 45.3125 0 
L 45.3125 8.40625 
Q 42.046875 3.421875 37.71875 1 
Q 33.40625 -1.421875 27.6875 -1.421875 
Q 18.265625 -1.421875 13.375 4.4375 
Q 8.5 10.296875 8.5 21.578125 
" id="BitstreamVeraSans-Roman-75"/>
      <path d="M 18.109375 8.203125 
L 18.109375 -20.796875 
L 9.078125 -20.796875 
L 9.078125 54.6875 
L 18.109375 54.6875 
L 18.109375 46.390625 
Q 20.953125 51.265625 25.265625 53.625 
Q 29.59375 56 35.59375 56 
Q 45.5625 56 51.78125 48.09375 
Q 58.015625 40.1875 58.015625 27.296875 
Q 58.015625 14.40625 51.78125 6.484375 
Q 45.5625 -1.421875 35.59375 -1.421875 
Q 29.59375 -1.421875 25.265625 0.953125 
Q 20.953125 3.328125 18.109375 8.203125 
M 48.6875 27.296875 
Q 48.6875 37.203125 44.609375 42.84375 
Q 40.53125 48.484375 33.40625 48.484375 
Q 26.265625 48.484375 22.1875 42.84375 
Q 18.109375 37.203125 18.109375 27.296875 
Q 18.109375 17.390625 22.1875 11.75 
Q 26.265625 6.109375 33.40625 6.109375 
Q 40.53125 6.109375 44.609375 11.75 
Q 48.6875 17.390625 48.6875 27.296875 
" id="BitstreamVeraSans-Roman-70"/>
      <path d="M 53.515625 70.515625 
L 53.515625 60.890625 
Q 47.90625 63.578125 42.921875 64.890625 
Q 37.9375 66.21875 33.296875 66.21875 
Q 25.25 66.21875 20.875 63.09375 
Q 16.5 59.96875 16.5 54.203125 
Q 16.5 49.359375 19.40625 46.890625 
Q 22.3125 44.4375 30.421875 42.921875 
L 36.375 41.703125 
Q 47.40625 39.59375 52.65625 34.296875 
Q 57.90625 29 57.90625 20.125 
Q 57.90625 9.515625 50.796875 4.046875 
Q 43.703125 -1.421875 29.984375 -1.421875 
Q 24.8125 -1.421875 18.96875 -0.25 
Q 13.140625 0.921875 6.890625 3.21875 
L 6.890625 13.375 
Q 12.890625 10.015625 18.65625 8.296875 
Q 24.421875 6.59375 29.984375 6.59375 
Q 38.421875 6.59375 43.015625 9.90625 
Q 47.609375 13.234375 47.609375 19.390625 
Q 47.609375 24.75 44.3125 27.78125 
Q 41.015625 30.8125 33.5 32.328125 
L 27.484375 33.5 
Q 16.453125 35.6875 11.515625 40.375 
Q 6.59375 45.0625 6.59375 53.421875 
Q 6.59375 63.09375 13.40625 68.65625 
Q 20.21875 74.21875 32.171875 74.21875 
Q 37.3125 74.21875 42.625 73.28125 
Q 47.953125 72.359375 53.515625 70.515625 
" id="BitstreamVeraSans-Roman-53"/>
     </defs>
     <g style="fill:#262626;" transform="translate(1096.35703125 113.09765625)scale(0.15 -0.15)">
      <use xlink:href="#BitstreamVeraSans-Roman-53"/>
      <use x="63.4765625" xlink:href="#BitstreamVeraSans-Roman-61"/>
      <use x="124.755859375" xlink:href="#BitstreamVeraSans-Roman-6d"/>
      <use x="222.16796875" xlink:href="#BitstreamVeraSans-Roman-70"/>
      <use x="285.64453125" xlink:href="#BitstreamVeraSans-Roman-6c"/>
      <use x="313.427734375" xlink:href="#BitstreamVeraSans-Roman-69"/>
      <use x="341.2109375" xlink:href="#BitstreamVeraSans-Roman-6e"/>
      <use x="404.58984375" xlink:href="#BitstreamVeraSans-Roman-67"/>
      <use x="468.06640625" xlink:href="#BitstreamVeraSans-Roman-20"/>
      <use x="499.853515625" xlink:href="#BitstreamVeraSans-Roman-46"/>
      <use x="557.263671875" xlink:href="#BitstreamVeraSans-Roman-72"/>
      <use x="598.345703125" xlink:href="#BitstreamVeraSans-Roman-65"/>
      <use x="659.869140625" xlink:href="#BitstreamVeraSans-Roman-71"/>
      <use x="723.345703125" xlink:href="#BitstreamVeraSans-Roman-75"/>
      <use x="786.724609375" xlink:href="#BitstreamVeraSans-Roman-65"/>
      <use x="848.248046875" xlink:href="#BitstreamVeraSans-Roman-6e"/>
      <use x="911.626953125" xlink:href="#BitstreamVeraSans-Roman-63"/>
      <use x="966.607421875" xlink:href="#BitstreamVeraSans-Roman-79"/>
     </g>
    </g>
    <g id="patch_9">
     <path d="M 1073.085938 147.713281 
L 1123.085938 147.713281 
L 1123.085938 130.213281 
L 1073.085938 130.213281 
z
" style="fill:#9fceb8;stroke:#404040;stroke-linejoin:miter;stroke-width:0.875;"/>
    </g>
    <g id="text_15">
     <!-- Frequent -->
     <g style="fill:#262626;" transform="translate(1143.0859375 147.71328125)scale(0.25 -0.25)">
      <use xlink:href="#BitstreamVeraSans-Roman-46"/>
      <use x="57.41015625" xlink:href="#BitstreamVeraSans-Roman-72"/>
      <use x="98.4921875" xlink:href="#BitstreamVeraSans-Roman-65"/>
      <use x="160.015625" xlink:href="#BitstreamVeraSans-Roman-71"/>
      <use x="223.4921875" xlink:href="#BitstreamVeraSans-Roman-75"/>
      <use x="286.87109375" xlink:href="#BitstreamVeraSans-Roman-65"/>
      <use x="348.39453125" xlink:href="#BitstreamVeraSans-Roman-6e"/>
      <use x="411.7734375" xlink:href="#BitstreamVeraSans-Roman-74"/>
     </g>
    </g>
    <g id="patch_10">
     <path d="M 1073.085938 184.408594 
L 1123.085938 184.408594 
L 1123.085938 166.908594 
L 1073.085938 166.908594 
z
" style="fill:#327ba5;stroke:#404040;stroke-linejoin:miter;stroke-width:0.875;"/>
    </g>
    <g id="text_16">
     <!-- Infrequent -->
     <defs>
      <path d="M 37.109375 75.984375 
L 37.109375 68.5 
L 28.515625 68.5 
Q 23.6875 68.5 21.796875 66.546875 
Q 19.921875 64.59375 19.921875 59.515625 
L 19.921875 54.6875 
L 34.71875 54.6875 
L 34.71875 47.703125 
L 19.921875 47.703125 
L 19.921875 0 
L 10.890625 0 
L 10.890625 47.703125 
L 2.296875 47.703125 
L 2.296875 54.6875 
L 10.890625 54.6875 
L 10.890625 58.5 
Q 10.890625 67.625 15.140625 71.796875 
Q 19.390625 75.984375 28.609375 75.984375 
z
" id="BitstreamVeraSans-Roman-66"/>
      <path d="M 9.8125 72.90625 
L 19.671875 72.90625 
L 19.671875 0 
L 9.8125 0 
z
" id="BitstreamVeraSans-Roman-49"/>
     </defs>
     <g style="fill:#262626;" transform="translate(1143.0859375 184.40859375)scale(0.25 -0.25)">
      <use xlink:href="#BitstreamVeraSans-Roman-49"/>
      <use x="29.4921875" xlink:href="#BitstreamVeraSans-Roman-6e"/>
      <use x="92.87109375" xlink:href="#BitstreamVeraSans-Roman-66"/>
      <use x="128.076171875" xlink:href="#BitstreamVeraSans-Roman-72"/>
      <use x="169.158203125" xlink:href="#BitstreamVeraSans-Roman-65"/>
      <use x="230.681640625" xlink:href="#BitstreamVeraSans-Roman-71"/>
      <use x="294.158203125" xlink:href="#BitstreamVeraSans-Roman-75"/>
      <use x="357.537109375" xlink:href="#BitstreamVeraSans-Roman-65"/>
      <use x="419.060546875" xlink:href="#BitstreamVeraSans-Roman-6e"/>
      <use x="482.439453125" xlink:href="#BitstreamVeraSans-Roman-74"/>
     </g>
    </g>
   </g>
  </g>
 </g>
 <defs>
  <clipPath id="pe29d80d0f0">
   <rect height="613.8" width="1116.0" x="180.0" y="79.2"/>
  </clipPath>
 </defs>
</svg>
