<?xml version="1.0" encoding="utf-8" standalone="no"?>
<!DOCTYPE svg PUBLIC "-//W3C//DTD SVG 1.1//EN"
  "http://www.w3.org/Graphics/SVG/1.1/DTD/svg11.dtd">
<!-- Created with matplotlib (http://matplotlib.org/) -->
<svg height="792pt" version="1.1" viewBox="0 0 1440 792" width="1440pt" xmlns="http://www.w3.org/2000/svg" xmlns:xlink="http://www.w3.org/1999/xlink">
 <defs>
  <style type="text/css">
*{stroke-linecap:butt;stroke-linejoin:round;stroke-miterlimit:100000;}
  </style>
 </defs>
 <g id="figure_1">
  <g id="patch_1">
   <path d="M 0 792 
L 1440 792 
L 1440 0 
L 0 0 
z
" style="fill:#ffffff;"/>
  </g>
  <g id="axes_1">
   <g id="patch_2">
    <path d="M 180 693 
L 1296 693 
L 1296 79.2 
L 180 79.2 
z
" style="fill:#eaeaf2;"/>
   </g>
   <g id="matplotlib.axis_1">
    <g id="xtick_1">
     <g id="line2d_1">
      <defs>
       <path d="M 0 0 
L 0 0 
" id="m1ff60e06b1" style="stroke:#262626;"/>
      </defs>
      <g>
       <use style="fill:#262626;stroke:#262626;" x="319.5" xlink:href="#m1ff60e06b1" y="693.0"/>
      </g>
     </g>
     <g id="line2d_2">
      <g>
       <use style="fill:#262626;stroke:#262626;" x="319.5" xlink:href="#m1ff60e06b1" y="79.2"/>
      </g>
     </g>
     <g id="text_1">
      <!-- Material (n=198) -->
      <defs>
       <path d="M 18.3125 70.21875 
L 18.3125 54.6875 
L 36.8125 54.6875 
L 36.8125 47.703125 
L 18.3125 47.703125 
L 18.3125 18.015625 
Q 18.3125 11.328125 20.140625 9.421875 
Q 21.96875 7.515625 27.59375 7.515625 
L 36.8125 7.515625 
L 36.8125 0 
L 27.59375 0 
Q 17.1875 0 13.234375 3.875 
Q 9.28125 7.765625 9.28125 18.015625 
L 9.28125 47.703125 
L 2.6875 47.703125 
L 2.6875 54.6875 
L 9.28125 54.6875 
L 9.28125 70.21875 
z
" id="BitstreamVeraSans-Roman-74"/>
       <path d="M 31 75.875 
Q 24.46875 64.65625 21.28125 53.65625 
Q 18.109375 42.671875 18.109375 31.390625 
Q 18.109375 20.125 21.3125 9.0625 
Q 24.515625 -2 31 -13.1875 
L 23.1875 -13.1875 
Q 15.875 -1.703125 12.234375 9.375 
Q 8.59375 20.453125 8.59375 31.390625 
Q 8.59375 42.28125 12.203125 53.3125 
Q 15.828125 64.359375 23.1875 75.875 
z
" id="BitstreamVeraSans-Roman-28"/>
       <path d="M 8.015625 75.875 
L 15.828125 75.875 
Q 23.140625 64.359375 26.78125 53.3125 
Q 30.421875 42.28125 30.421875 31.390625 
Q 30.421875 20.453125 26.78125 9.375 
Q 23.140625 -1.703125 15.828125 -13.1875 
L 8.015625 -13.1875 
Q 14.5 -2 17.703125 9.0625 
Q 20.90625 20.125 20.90625 31.390625 
Q 20.90625 42.671875 17.703125 53.65625 
Q 14.5 64.65625 8.015625 75.875 
" id="BitstreamVeraSans-Roman-29"/>
       <path d="M 10.984375 1.515625 
L 10.984375 10.5 
Q 14.703125 8.734375 18.5 7.8125 
Q 22.3125 6.890625 25.984375 6.890625 
Q 35.75 6.890625 40.890625 13.453125 
Q 46.046875 20.015625 46.78125 33.40625 
Q 43.953125 29.203125 39.59375 26.953125 
Q 35.25 24.703125 29.984375 24.703125 
Q 19.046875 24.703125 12.671875 31.3125 
Q 6.296875 37.9375 6.296875 49.421875 
Q 6.296875 60.640625 12.9375 67.421875 
Q 19.578125 74.21875 30.609375 74.21875 
Q 43.265625 74.21875 49.921875 64.515625 
Q 56.59375 54.828125 56.59375 36.375 
Q 56.59375 19.140625 48.40625 8.859375 
Q 40.234375 -1.421875 26.421875 -1.421875 
Q 22.703125 -1.421875 18.890625 -0.6875 
Q 15.09375 0.046875 10.984375 1.515625 
M 30.609375 32.421875 
Q 37.25 32.421875 41.125 36.953125 
Q 45.015625 41.5 45.015625 49.421875 
Q 45.015625 57.28125 41.125 61.84375 
Q 37.25 66.40625 30.609375 66.40625 
Q 23.96875 66.40625 20.09375 61.84375 
Q 16.21875 57.28125 16.21875 49.421875 
Q 16.21875 41.5 20.09375 36.953125 
Q 23.96875 32.421875 30.609375 32.421875 
" id="BitstreamVeraSans-Roman-39"/>
       <path d="M 34.28125 27.484375 
Q 23.390625 27.484375 19.1875 25 
Q 14.984375 22.515625 14.984375 16.5 
Q 14.984375 11.71875 18.140625 8.90625 
Q 21.296875 6.109375 26.703125 6.109375 
Q 34.1875 6.109375 38.703125 11.40625 
Q 43.21875 16.703125 43.21875 25.484375 
L 43.21875 27.484375 
z
M 52.203125 31.203125 
L 52.203125 0 
L 43.21875 0 
L 43.21875 8.296875 
Q 40.140625 3.328125 35.546875 0.953125 
Q 30.953125 -1.421875 24.3125 -1.421875 
Q 15.921875 -1.421875 10.953125 3.296875 
Q 6 8.015625 6 15.921875 
Q 6 25.140625 12.171875 29.828125 
Q 18.359375 34.515625 30.609375 34.515625 
L 43.21875 34.515625 
L 43.21875 35.40625 
Q 43.21875 41.609375 39.140625 45 
Q 35.0625 48.390625 27.6875 48.390625 
Q 23 48.390625 18.546875 47.265625 
Q 14.109375 46.140625 10.015625 43.890625 
L 10.015625 52.203125 
Q 14.9375 54.109375 19.578125 55.046875 
Q 24.21875 56 28.609375 56 
Q 40.484375 56 46.34375 49.84375 
Q 52.203125 43.703125 52.203125 31.203125 
" id="BitstreamVeraSans-Roman-61"/>
       <path d="M 9.421875 75.984375 
L 18.40625 75.984375 
L 18.40625 0 
L 9.421875 0 
z
" id="BitstreamVeraSans-Roman-6c"/>
       <path d="M 56.203125 29.59375 
L 56.203125 25.203125 
L 14.890625 25.203125 
Q 15.484375 15.921875 20.484375 11.0625 
Q 25.484375 6.203125 34.421875 6.203125 
Q 39.59375 6.203125 44.453125 7.46875 
Q 49.3125 8.734375 54.109375 11.28125 
L 54.109375 2.78125 
Q 49.265625 0.734375 44.1875 -0.34375 
Q 39.109375 -1.421875 33.890625 -1.421875 
Q 20.796875 -1.421875 13.15625 6.1875 
Q 5.515625 13.8125 5.515625 26.8125 
Q 5.515625 40.234375 12.765625 48.109375 
Q 20.015625 56 32.328125 56 
Q 43.359375 56 49.78125 48.890625 
Q 56.203125 41.796875 56.203125 29.59375 
M 47.21875 32.234375 
Q 47.125 39.59375 43.09375 43.984375 
Q 39.0625 48.390625 32.421875 48.390625 
Q 24.90625 48.390625 20.390625 44.140625 
Q 15.875 39.890625 15.1875 32.171875 
z
" id="BitstreamVeraSans-Roman-65"/>
       <path d="M 9.421875 54.6875 
L 18.40625 54.6875 
L 18.40625 0 
L 9.421875 0 
z
M 9.421875 75.984375 
L 18.40625 75.984375 
L 18.40625 64.59375 
L 9.421875 64.59375 
z
" id="BitstreamVeraSans-Roman-69"/>
       <path d="M 10.59375 45.40625 
L 73.1875 45.40625 
L 73.1875 37.203125 
L 10.59375 37.203125 
z
M 10.59375 25.484375 
L 73.1875 25.484375 
L 73.1875 17.1875 
L 10.59375 17.1875 
z
" id="BitstreamVeraSans-Roman-3d"/>
       <path id="BitstreamVeraSans-Roman-20"/>
       <path d="M 54.890625 33.015625 
L 54.890625 0 
L 45.90625 0 
L 45.90625 32.71875 
Q 45.90625 40.484375 42.875 44.328125 
Q 39.84375 48.1875 33.796875 48.1875 
Q 26.515625 48.1875 22.3125 43.546875 
Q 18.109375 38.921875 18.109375 30.90625 
L 18.109375 0 
L 9.078125 0 
L 9.078125 54.6875 
L 18.109375 54.6875 
L 18.109375 46.1875 
Q 21.34375 51.125 25.703125 53.5625 
Q 30.078125 56 35.796875 56 
Q 45.21875 56 50.046875 50.171875 
Q 54.890625 44.34375 54.890625 33.015625 
" id="BitstreamVeraSans-Roman-6e"/>
       <path d="M 9.8125 72.90625 
L 24.515625 72.90625 
L 43.109375 23.296875 
L 61.8125 72.90625 
L 76.515625 72.90625 
L 76.515625 0 
L 66.890625 0 
L 66.890625 64.015625 
L 48.09375 14.015625 
L 38.1875 14.015625 
L 19.390625 64.015625 
L 19.390625 0 
L 9.8125 0 
z
" id="BitstreamVeraSans-Roman-4d"/>
       <path d="M 12.40625 8.296875 
L 28.515625 8.296875 
L 28.515625 63.921875 
L 10.984375 60.40625 
L 10.984375 69.390625 
L 28.421875 72.90625 
L 38.28125 72.90625 
L 38.28125 8.296875 
L 54.390625 8.296875 
L 54.390625 0 
L 12.40625 0 
z
" id="BitstreamVeraSans-Roman-31"/>
       <path d="M 41.109375 46.296875 
Q 39.59375 47.171875 37.8125 47.578125 
Q 36.03125 48 33.890625 48 
Q 26.265625 48 22.1875 43.046875 
Q 18.109375 38.09375 18.109375 28.8125 
L 18.109375 0 
L 9.078125 0 
L 9.078125 54.6875 
L 18.109375 54.6875 
L 18.109375 46.1875 
Q 20.953125 51.171875 25.484375 53.578125 
Q 30.03125 56 36.53125 56 
Q 37.453125 56 38.578125 55.875 
Q 39.703125 55.765625 41.0625 55.515625 
z
" id="BitstreamVeraSans-Roman-72"/>
       <path d="M 31.78125 34.625 
Q 24.75 34.625 20.71875 30.859375 
Q 16.703125 27.09375 16.703125 20.515625 
Q 16.703125 13.921875 20.71875 10.15625 
Q 24.75 6.390625 31.78125 6.390625 
Q 38.8125 6.390625 42.859375 10.171875 
Q 46.921875 13.96875 46.921875 20.515625 
Q 46.921875 27.09375 42.890625 30.859375 
Q 38.875 34.625 31.78125 34.625 
M 21.921875 38.8125 
Q 15.578125 40.375 12.03125 44.71875 
Q 8.5 49.078125 8.5 55.328125 
Q 8.5 64.0625 14.71875 69.140625 
Q 20.953125 74.21875 31.78125 74.21875 
Q 42.671875 74.21875 48.875 69.140625 
Q 55.078125 64.0625 55.078125 55.328125 
Q 55.078125 49.078125 51.53125 44.71875 
Q 48 40.375 41.703125 38.8125 
Q 48.828125 37.15625 52.796875 32.3125 
Q 56.78125 27.484375 56.78125 20.515625 
Q 56.78125 9.90625 50.3125 4.234375 
Q 43.84375 -1.421875 31.78125 -1.421875 
Q 19.734375 -1.421875 13.25 4.234375 
Q 6.78125 9.90625 6.78125 20.515625 
Q 6.78125 27.484375 10.78125 32.3125 
Q 14.796875 37.15625 21.921875 38.8125 
M 18.3125 54.390625 
Q 18.3125 48.734375 21.84375 45.5625 
Q 25.390625 42.390625 31.78125 42.390625 
Q 38.140625 42.390625 41.71875 45.5625 
Q 45.3125 48.734375 45.3125 54.390625 
Q 45.3125 60.0625 41.71875 63.234375 
Q 38.140625 66.40625 31.78125 66.40625 
Q 25.390625 66.40625 21.84375 63.234375 
Q 18.3125 60.0625 18.3125 54.390625 
" id="BitstreamVeraSans-Roman-38"/>
      </defs>
      <g style="fill:#262626;" transform="translate(212.736328125 718.99609375)scale(0.25 -0.25)">
       <use xlink:href="#BitstreamVeraSans-Roman-4d"/>
       <use x="86.279296875" xlink:href="#BitstreamVeraSans-Roman-61"/>
       <use x="147.55859375" xlink:href="#BitstreamVeraSans-Roman-74"/>
       <use x="186.767578125" xlink:href="#BitstreamVeraSans-Roman-65"/>
       <use x="248.291015625" xlink:href="#BitstreamVeraSans-Roman-72"/>
       <use x="289.404296875" xlink:href="#BitstreamVeraSans-Roman-69"/>
       <use x="317.1875" xlink:href="#BitstreamVeraSans-Roman-61"/>
       <use x="378.466796875" xlink:href="#BitstreamVeraSans-Roman-6c"/>
       <use x="406.25" xlink:href="#BitstreamVeraSans-Roman-20"/>
       <use x="438.037109375" xlink:href="#BitstreamVeraSans-Roman-28"/>
       <use x="477.05078125" xlink:href="#BitstreamVeraSans-Roman-6e"/>
       <use x="540.4296875" xlink:href="#BitstreamVeraSans-Roman-3d"/>
       <use x="624.21875" xlink:href="#BitstreamVeraSans-Roman-31"/>
       <use x="687.841796875" xlink:href="#BitstreamVeraSans-Roman-39"/>
       <use x="751.46484375" xlink:href="#BitstreamVeraSans-Roman-38"/>
       <use x="815.087890625" xlink:href="#BitstreamVeraSans-Roman-29"/>
      </g>
     </g>
    </g>
    <g id="xtick_2">
     <g id="line2d_3">
      <g>
       <use style="fill:#262626;stroke:#262626;" x="598.5" xlink:href="#m1ff60e06b1" y="693.0"/>
      </g>
     </g>
     <g id="line2d_4">
      <g>
       <use style="fill:#262626;stroke:#262626;" x="598.5" xlink:href="#m1ff60e06b1" y="79.2"/>
      </g>
     </g>
     <g id="text_2">
      <!-- Row (n=198) -->
      <defs>
       <path d="M 44.390625 34.1875 
Q 47.5625 33.109375 50.5625 29.59375 
Q 53.5625 26.078125 56.59375 19.921875 
L 66.609375 0 
L 56 0 
L 46.6875 18.703125 
Q 43.0625 26.03125 39.671875 28.421875 
Q 36.28125 30.8125 30.421875 30.8125 
L 19.671875 30.8125 
L 19.671875 0 
L 9.8125 0 
L 9.8125 72.90625 
L 32.078125 72.90625 
Q 44.578125 72.90625 50.734375 67.671875 
Q 56.890625 62.453125 56.890625 51.90625 
Q 56.890625 45.015625 53.6875 40.46875 
Q 50.484375 35.9375 44.390625 34.1875 
M 19.671875 64.796875 
L 19.671875 38.921875 
L 32.078125 38.921875 
Q 39.203125 38.921875 42.84375 42.21875 
Q 46.484375 45.515625 46.484375 51.90625 
Q 46.484375 58.296875 42.84375 61.546875 
Q 39.203125 64.796875 32.078125 64.796875 
z
" id="BitstreamVeraSans-Roman-52"/>
       <path d="M 30.609375 48.390625 
Q 23.390625 48.390625 19.1875 42.75 
Q 14.984375 37.109375 14.984375 27.296875 
Q 14.984375 17.484375 19.15625 11.84375 
Q 23.34375 6.203125 30.609375 6.203125 
Q 37.796875 6.203125 41.984375 11.859375 
Q 46.1875 17.53125 46.1875 27.296875 
Q 46.1875 37.015625 41.984375 42.703125 
Q 37.796875 48.390625 30.609375 48.390625 
M 30.609375 56 
Q 42.328125 56 49.015625 48.375 
Q 55.71875 40.765625 55.71875 27.296875 
Q 55.71875 13.875 49.015625 6.21875 
Q 42.328125 -1.421875 30.609375 -1.421875 
Q 18.84375 -1.421875 12.171875 6.21875 
Q 5.515625 13.875 5.515625 27.296875 
Q 5.515625 40.765625 12.171875 48.375 
Q 18.84375 56 30.609375 56 
" id="BitstreamVeraSans-Roman-6f"/>
       <path d="M 4.203125 54.6875 
L 13.1875 54.6875 
L 24.421875 12.015625 
L 35.59375 54.6875 
L 46.1875 54.6875 
L 57.421875 12.015625 
L 68.609375 54.6875 
L 77.59375 54.6875 
L 63.28125 0 
L 52.6875 0 
L 40.921875 44.828125 
L 29.109375 0 
L 18.5 0 
z
" id="BitstreamVeraSans-Roman-77"/>
      </defs>
      <g style="fill:#262626;" transform="translate(515.96875 718.99609375)scale(0.25 -0.25)">
       <use xlink:href="#BitstreamVeraSans-Roman-52"/>
       <use x="69.419921875" xlink:href="#BitstreamVeraSans-Roman-6f"/>
       <use x="130.6015625" xlink:href="#BitstreamVeraSans-Roman-77"/>
       <use x="212.388671875" xlink:href="#BitstreamVeraSans-Roman-20"/>
       <use x="244.17578125" xlink:href="#BitstreamVeraSans-Roman-28"/>
       <use x="283.189453125" xlink:href="#BitstreamVeraSans-Roman-6e"/>
       <use x="346.568359375" xlink:href="#BitstreamVeraSans-Roman-3d"/>
       <use x="430.357421875" xlink:href="#BitstreamVeraSans-Roman-31"/>
       <use x="493.98046875" xlink:href="#BitstreamVeraSans-Roman-39"/>
       <use x="557.603515625" xlink:href="#BitstreamVeraSans-Roman-38"/>
       <use x="621.2265625" xlink:href="#BitstreamVeraSans-Roman-29"/>
      </g>
     </g>
    </g>
    <g id="xtick_3">
     <g id="line2d_5">
      <g>
       <use style="fill:#262626;stroke:#262626;" x="877.5" xlink:href="#m1ff60e06b1" y="693.0"/>
      </g>
     </g>
     <g id="line2d_6">
      <g>
       <use style="fill:#262626;stroke:#262626;" x="877.5" xlink:href="#m1ff60e06b1" y="79.2"/>
      </g>
     </g>
     <g id="text_3">
      <!-- Plate Location (n=198) -->
      <defs>
       <path d="M 9.8125 72.90625 
L 19.671875 72.90625 
L 19.671875 8.296875 
L 55.171875 8.296875 
L 55.171875 0 
L 9.8125 0 
z
" id="BitstreamVeraSans-Roman-4c"/>
       <path d="M 48.78125 52.59375 
L 48.78125 44.1875 
Q 44.96875 46.296875 41.140625 47.34375 
Q 37.3125 48.390625 33.40625 48.390625 
Q 24.65625 48.390625 19.8125 42.84375 
Q 14.984375 37.3125 14.984375 27.296875 
Q 14.984375 17.28125 19.8125 11.734375 
Q 24.65625 6.203125 33.40625 6.203125 
Q 37.3125 6.203125 41.140625 7.25 
Q 44.96875 8.296875 48.78125 10.40625 
L 48.78125 2.09375 
Q 45.015625 0.34375 40.984375 -0.53125 
Q 36.96875 -1.421875 32.421875 -1.421875 
Q 20.0625 -1.421875 12.78125 6.34375 
Q 5.515625 14.109375 5.515625 27.296875 
Q 5.515625 40.671875 12.859375 48.328125 
Q 20.21875 56 33.015625 56 
Q 37.15625 56 41.109375 55.140625 
Q 45.0625 54.296875 48.78125 52.59375 
" id="BitstreamVeraSans-Roman-63"/>
       <path d="M 19.671875 64.796875 
L 19.671875 37.40625 
L 32.078125 37.40625 
Q 38.96875 37.40625 42.71875 40.96875 
Q 46.484375 44.53125 46.484375 51.125 
Q 46.484375 57.671875 42.71875 61.234375 
Q 38.96875 64.796875 32.078125 64.796875 
z
M 9.8125 72.90625 
L 32.078125 72.90625 
Q 44.34375 72.90625 50.609375 67.359375 
Q 56.890625 61.8125 56.890625 51.125 
Q 56.890625 40.328125 50.609375 34.8125 
Q 44.34375 29.296875 32.078125 29.296875 
L 19.671875 29.296875 
L 19.671875 0 
L 9.8125 0 
z
" id="BitstreamVeraSans-Roman-50"/>
      </defs>
      <g style="fill:#262626;" transform="translate(733.1953125 718.99609375)scale(0.25 -0.25)">
       <use xlink:href="#BitstreamVeraSans-Roman-50"/>
       <use x="60.302734375" xlink:href="#BitstreamVeraSans-Roman-6c"/>
       <use x="88.0859375" xlink:href="#BitstreamVeraSans-Roman-61"/>
       <use x="149.365234375" xlink:href="#BitstreamVeraSans-Roman-74"/>
       <use x="188.57421875" xlink:href="#BitstreamVeraSans-Roman-65"/>
       <use x="250.09765625" xlink:href="#BitstreamVeraSans-Roman-20"/>
       <use x="281.884765625" xlink:href="#BitstreamVeraSans-Roman-4c"/>
       <use x="337.58203125" xlink:href="#BitstreamVeraSans-Roman-6f"/>
       <use x="398.763671875" xlink:href="#BitstreamVeraSans-Roman-63"/>
       <use x="453.744140625" xlink:href="#BitstreamVeraSans-Roman-61"/>
       <use x="515.0234375" xlink:href="#BitstreamVeraSans-Roman-74"/>
       <use x="554.232421875" xlink:href="#BitstreamVeraSans-Roman-69"/>
       <use x="582.015625" xlink:href="#BitstreamVeraSans-Roman-6f"/>
       <use x="643.197265625" xlink:href="#BitstreamVeraSans-Roman-6e"/>
       <use x="706.576171875" xlink:href="#BitstreamVeraSans-Roman-20"/>
       <use x="738.36328125" xlink:href="#BitstreamVeraSans-Roman-28"/>
       <use x="777.376953125" xlink:href="#BitstreamVeraSans-Roman-6e"/>
       <use x="840.755859375" xlink:href="#BitstreamVeraSans-Roman-3d"/>
       <use x="924.544921875" xlink:href="#BitstreamVeraSans-Roman-31"/>
       <use x="988.16796875" xlink:href="#BitstreamVeraSans-Roman-39"/>
       <use x="1051.791015625" xlink:href="#BitstreamVeraSans-Roman-38"/>
       <use x="1115.4140625" xlink:href="#BitstreamVeraSans-Roman-29"/>
      </g>
     </g>
    </g>
    <g id="xtick_4">
     <g id="line2d_7">
      <g>
       <use style="fill:#262626;stroke:#262626;" x="1156.5" xlink:href="#m1ff60e06b1" y="693.0"/>
      </g>
     </g>
     <g id="line2d_8">
      <g>
       <use style="fill:#262626;stroke:#262626;" x="1156.5" xlink:href="#m1ff60e06b1" y="79.2"/>
      </g>
     </g>
     <g id="text_4">
      <!-- Run (n=357) -->
      <defs>
       <path d="M 10.796875 72.90625 
L 49.515625 72.90625 
L 49.515625 64.59375 
L 19.828125 64.59375 
L 19.828125 46.734375 
Q 21.96875 47.46875 24.109375 47.828125 
Q 26.265625 48.1875 28.421875 48.1875 
Q 40.625 48.1875 47.75 41.5 
Q 54.890625 34.8125 54.890625 23.390625 
Q 54.890625 11.625 47.5625 5.09375 
Q 40.234375 -1.421875 26.90625 -1.421875 
Q 22.3125 -1.421875 17.546875 -0.640625 
Q 12.796875 0.140625 7.71875 1.703125 
L 7.71875 11.625 
Q 12.109375 9.234375 16.796875 8.0625 
Q 21.484375 6.890625 26.703125 6.890625 
Q 35.15625 6.890625 40.078125 11.328125 
Q 45.015625 15.765625 45.015625 23.390625 
Q 45.015625 31 40.078125 35.4375 
Q 35.15625 39.890625 26.703125 39.890625 
Q 22.75 39.890625 18.8125 39.015625 
Q 14.890625 38.140625 10.796875 36.28125 
z
" id="BitstreamVeraSans-Roman-35"/>
       <path d="M 40.578125 39.3125 
Q 47.65625 37.796875 51.625 33 
Q 55.609375 28.21875 55.609375 21.1875 
Q 55.609375 10.40625 48.1875 4.484375 
Q 40.765625 -1.421875 27.09375 -1.421875 
Q 22.515625 -1.421875 17.65625 -0.515625 
Q 12.796875 0.390625 7.625 2.203125 
L 7.625 11.71875 
Q 11.71875 9.328125 16.59375 8.109375 
Q 21.484375 6.890625 26.8125 6.890625 
Q 36.078125 6.890625 40.9375 10.546875 
Q 45.796875 14.203125 45.796875 21.1875 
Q 45.796875 27.640625 41.28125 31.265625 
Q 36.765625 34.90625 28.71875 34.90625 
L 20.21875 34.90625 
L 20.21875 43.015625 
L 29.109375 43.015625 
Q 36.375 43.015625 40.234375 45.921875 
Q 44.09375 48.828125 44.09375 54.296875 
Q 44.09375 59.90625 40.109375 62.90625 
Q 36.140625 65.921875 28.71875 65.921875 
Q 24.65625 65.921875 20.015625 65.03125 
Q 15.375 64.15625 9.8125 62.3125 
L 9.8125 71.09375 
Q 15.4375 72.65625 20.34375 73.4375 
Q 25.25 74.21875 29.59375 74.21875 
Q 40.828125 74.21875 47.359375 69.109375 
Q 53.90625 64.015625 53.90625 55.328125 
Q 53.90625 49.265625 50.4375 45.09375 
Q 46.96875 40.921875 40.578125 39.3125 
" id="BitstreamVeraSans-Roman-33"/>
       <path d="M 8.5 21.578125 
L 8.5 54.6875 
L 17.484375 54.6875 
L 17.484375 21.921875 
Q 17.484375 14.15625 20.5 10.265625 
Q 23.53125 6.390625 29.59375 6.390625 
Q 36.859375 6.390625 41.078125 11.03125 
Q 45.3125 15.671875 45.3125 23.6875 
L 45.3125 54.6875 
L 54.296875 54.6875 
L 54.296875 0 
L 45.3125 0 
L 45.3125 8.40625 
Q 42.046875 3.421875 37.71875 1 
Q 33.40625 -1.421875 27.6875 -1.421875 
Q 18.265625 -1.421875 13.375 4.4375 
Q 8.5 10.296875 8.5 21.578125 
" id="BitstreamVeraSans-Roman-75"/>
       <path d="M 8.203125 72.90625 
L 55.078125 72.90625 
L 55.078125 68.703125 
L 28.609375 0 
L 18.3125 0 
L 43.21875 64.59375 
L 8.203125 64.59375 
z
" id="BitstreamVeraSans-Roman-37"/>
      </defs>
      <g style="fill:#262626;" transform="translate(1075.99609375 718.99609375)scale(0.25 -0.25)">
       <use xlink:href="#BitstreamVeraSans-Roman-52"/>
       <use x="69.419921875" xlink:href="#BitstreamVeraSans-Roman-75"/>
       <use x="132.798828125" xlink:href="#BitstreamVeraSans-Roman-6e"/>
       <use x="196.177734375" xlink:href="#BitstreamVeraSans-Roman-20"/>
       <use x="227.96484375" xlink:href="#BitstreamVeraSans-Roman-28"/>
       <use x="266.978515625" xlink:href="#BitstreamVeraSans-Roman-6e"/>
       <use x="330.357421875" xlink:href="#BitstreamVeraSans-Roman-3d"/>
       <use x="414.146484375" xlink:href="#BitstreamVeraSans-Roman-33"/>
       <use x="477.76953125" xlink:href="#BitstreamVeraSans-Roman-35"/>
       <use x="541.392578125" xlink:href="#BitstreamVeraSans-Roman-37"/>
       <use x="605.015625" xlink:href="#BitstreamVeraSans-Roman-29"/>
      </g>
     </g>
    </g>
   </g>
   <g id="matplotlib.axis_2">
    <g id="ytick_1">
     <g id="line2d_9">
      <path clip-path="url(#p9d353ab03e)" d="M 180 693 
L 1296 693 
" style="fill:none;stroke:#ffffff;stroke-linecap:round;"/>
     </g>
     <g id="line2d_10">
      <g>
       <use style="fill:#262626;stroke:#262626;" x="180.0" xlink:href="#m1ff60e06b1" y="693.0"/>
      </g>
     </g>
     <g id="line2d_11">
      <g>
       <use style="fill:#262626;stroke:#262626;" x="1296.0" xlink:href="#m1ff60e06b1" y="693.0"/>
      </g>
     </g>
     <g id="text_5">
      <!-- 0.5 -->
      <defs>
       <path d="M 10.6875 12.40625 
L 21 12.40625 
L 21 0 
L 10.6875 0 
z
" id="BitstreamVeraSans-Roman-2e"/>
       <path d="M 31.78125 66.40625 
Q 24.171875 66.40625 20.328125 58.90625 
Q 16.5 51.421875 16.5 36.375 
Q 16.5 21.390625 20.328125 13.890625 
Q 24.171875 6.390625 31.78125 6.390625 
Q 39.453125 6.390625 43.28125 13.890625 
Q 47.125 21.390625 47.125 36.375 
Q 47.125 51.421875 43.28125 58.90625 
Q 39.453125 66.40625 31.78125 66.40625 
M 31.78125 74.21875 
Q 44.046875 74.21875 50.515625 64.515625 
Q 56.984375 54.828125 56.984375 36.375 
Q 56.984375 17.96875 50.515625 8.265625 
Q 44.046875 -1.421875 31.78125 -1.421875 
Q 19.53125 -1.421875 13.0625 8.265625 
Q 6.59375 17.96875 6.59375 36.375 
Q 6.59375 54.828125 13.0625 64.515625 
Q 19.53125 74.21875 31.78125 74.21875 
" id="BitstreamVeraSans-Roman-30"/>
      </defs>
      <g style="fill:#262626;" transform="translate(133.2421875 699.8984375)scale(0.25 -0.25)">
       <use xlink:href="#BitstreamVeraSans-Roman-30"/>
       <use x="63.623046875" xlink:href="#BitstreamVeraSans-Roman-2e"/>
       <use x="95.41015625" xlink:href="#BitstreamVeraSans-Roman-35"/>
      </g>
     </g>
    </g>
    <g id="ytick_2">
     <g id="line2d_12">
      <path clip-path="url(#p9d353ab03e)" d="M 180 590.7 
L 1296 590.7 
" style="fill:none;stroke:#ffffff;stroke-linecap:round;"/>
     </g>
     <g id="line2d_13">
      <g>
       <use style="fill:#262626;stroke:#262626;" x="180.0" xlink:href="#m1ff60e06b1" y="590.7"/>
      </g>
     </g>
     <g id="line2d_14">
      <g>
       <use style="fill:#262626;stroke:#262626;" x="1296.0" xlink:href="#m1ff60e06b1" y="590.7"/>
      </g>
     </g>
     <g id="text_6">
      <!-- 0.6 -->
      <defs>
       <path d="M 33.015625 40.375 
Q 26.375 40.375 22.484375 35.828125 
Q 18.609375 31.296875 18.609375 23.390625 
Q 18.609375 15.53125 22.484375 10.953125 
Q 26.375 6.390625 33.015625 6.390625 
Q 39.65625 6.390625 43.53125 10.953125 
Q 47.40625 15.53125 47.40625 23.390625 
Q 47.40625 31.296875 43.53125 35.828125 
Q 39.65625 40.375 33.015625 40.375 
M 52.59375 71.296875 
L 52.59375 62.3125 
Q 48.875 64.0625 45.09375 64.984375 
Q 41.3125 65.921875 37.59375 65.921875 
Q 27.828125 65.921875 22.671875 59.328125 
Q 17.53125 52.734375 16.796875 39.40625 
Q 19.671875 43.65625 24.015625 45.921875 
Q 28.375 48.1875 33.59375 48.1875 
Q 44.578125 48.1875 50.953125 41.515625 
Q 57.328125 34.859375 57.328125 23.390625 
Q 57.328125 12.15625 50.6875 5.359375 
Q 44.046875 -1.421875 33.015625 -1.421875 
Q 20.359375 -1.421875 13.671875 8.265625 
Q 6.984375 17.96875 6.984375 36.375 
Q 6.984375 53.65625 15.1875 63.9375 
Q 23.390625 74.21875 37.203125 74.21875 
Q 40.921875 74.21875 44.703125 73.484375 
Q 48.484375 72.75 52.59375 71.296875 
" id="BitstreamVeraSans-Roman-36"/>
      </defs>
      <g style="fill:#262626;" transform="translate(133.2421875 597.5984375)scale(0.25 -0.25)">
       <use xlink:href="#BitstreamVeraSans-Roman-30"/>
       <use x="63.623046875" xlink:href="#BitstreamVeraSans-Roman-2e"/>
       <use x="95.41015625" xlink:href="#BitstreamVeraSans-Roman-36"/>
      </g>
     </g>
    </g>
    <g id="ytick_3">
     <g id="line2d_15">
      <path clip-path="url(#p9d353ab03e)" d="M 180 488.4 
L 1296 488.4 
" style="fill:none;stroke:#ffffff;stroke-linecap:round;"/>
     </g>
     <g id="line2d_16">
      <g>
       <use style="fill:#262626;stroke:#262626;" x="180.0" xlink:href="#m1ff60e06b1" y="488.4"/>
      </g>
     </g>
     <g id="line2d_17">
      <g>
       <use style="fill:#262626;stroke:#262626;" x="1296.0" xlink:href="#m1ff60e06b1" y="488.4"/>
      </g>
     </g>
     <g id="text_7">
      <!-- 0.7 -->
      <g style="fill:#262626;" transform="translate(133.2421875 495.2984375)scale(0.25 -0.25)">
       <use xlink:href="#BitstreamVeraSans-Roman-30"/>
       <use x="63.623046875" xlink:href="#BitstreamVeraSans-Roman-2e"/>
       <use x="95.41015625" xlink:href="#BitstreamVeraSans-Roman-37"/>
      </g>
     </g>
    </g>
    <g id="ytick_4">
     <g id="line2d_18">
      <path clip-path="url(#p9d353ab03e)" d="M 180 386.1 
L 1296 386.1 
" style="fill:none;stroke:#ffffff;stroke-linecap:round;"/>
     </g>
     <g id="line2d_19">
      <g>
       <use style="fill:#262626;stroke:#262626;" x="180.0" xlink:href="#m1ff60e06b1" y="386.1"/>
      </g>
     </g>
     <g id="line2d_20">
      <g>
       <use style="fill:#262626;stroke:#262626;" x="1296.0" xlink:href="#m1ff60e06b1" y="386.1"/>
      </g>
     </g>
     <g id="text_8">
      <!-- 0.8 -->
      <g style="fill:#262626;" transform="translate(133.2421875 392.9984375)scale(0.25 -0.25)">
       <use xlink:href="#BitstreamVeraSans-Roman-30"/>
       <use x="63.623046875" xlink:href="#BitstreamVeraSans-Roman-2e"/>
       <use x="95.41015625" xlink:href="#BitstreamVeraSans-Roman-38"/>
      </g>
     </g>
    </g>
    <g id="ytick_5">
     <g id="line2d_21">
      <path clip-path="url(#p9d353ab03e)" d="M 180 283.8 
L 1296 283.8 
" style="fill:none;stroke:#ffffff;stroke-linecap:round;"/>
     </g>
     <g id="line2d_22">
      <g>
       <use style="fill:#262626;stroke:#262626;" x="180.0" xlink:href="#m1ff60e06b1" y="283.8"/>
      </g>
     </g>
     <g id="line2d_23">
      <g>
       <use style="fill:#262626;stroke:#262626;" x="1296.0" xlink:href="#m1ff60e06b1" y="283.8"/>
      </g>
     </g>
     <g id="text_9">
      <!-- 0.9 -->
      <g style="fill:#262626;" transform="translate(133.2421875 290.6984375)scale(0.25 -0.25)">
       <use xlink:href="#BitstreamVeraSans-Roman-30"/>
       <use x="63.623046875" xlink:href="#BitstreamVeraSans-Roman-2e"/>
       <use x="95.41015625" xlink:href="#BitstreamVeraSans-Roman-39"/>
      </g>
     </g>
    </g>
    <g id="ytick_6">
     <g id="line2d_24">
      <path clip-path="url(#p9d353ab03e)" d="M 180 181.5 
L 1296 181.5 
" style="fill:none;stroke:#ffffff;stroke-linecap:round;"/>
     </g>
     <g id="line2d_25">
      <g>
       <use style="fill:#262626;stroke:#262626;" x="180.0" xlink:href="#m1ff60e06b1" y="181.5"/>
      </g>
     </g>
     <g id="line2d_26">
      <g>
       <use style="fill:#262626;stroke:#262626;" x="1296.0" xlink:href="#m1ff60e06b1" y="181.5"/>
      </g>
     </g>
     <g id="text_10">
      <!-- 1.0 -->
      <g style="fill:#262626;" transform="translate(133.2421875 188.3984375)scale(0.25 -0.25)">
       <use xlink:href="#BitstreamVeraSans-Roman-31"/>
       <use x="63.623046875" xlink:href="#BitstreamVeraSans-Roman-2e"/>
       <use x="95.41015625" xlink:href="#BitstreamVeraSans-Roman-30"/>
      </g>
     </g>
    </g>
    <g id="ytick_7">
     <g id="line2d_27">
      <path clip-path="url(#p9d353ab03e)" d="M 180 79.2 
L 1296 79.2 
" style="fill:none;stroke:#ffffff;stroke-linecap:round;"/>
     </g>
     <g id="line2d_28">
      <g>
       <use style="fill:#262626;stroke:#262626;" x="180.0" xlink:href="#m1ff60e06b1" y="79.2"/>
      </g>
     </g>
     <g id="line2d_29">
      <g>
       <use style="fill:#262626;stroke:#262626;" x="1296.0" xlink:href="#m1ff60e06b1" y="79.2"/>
      </g>
     </g>
     <g id="text_11">
      <!-- 1.1 -->
      <g style="fill:#262626;" transform="translate(133.2421875 86.0984375)scale(0.25 -0.25)">
       <use xlink:href="#BitstreamVeraSans-Roman-31"/>
       <use x="63.623046875" xlink:href="#BitstreamVeraSans-Roman-2e"/>
       <use x="95.41015625" xlink:href="#BitstreamVeraSans-Roman-31"/>
      </g>
     </g>
    </g>
    <g id="text_12">
     <!-- Distance -->
     <defs>
      <path d="M 19.671875 64.796875 
L 19.671875 8.109375 
L 31.59375 8.109375 
Q 46.6875 8.109375 53.6875 14.9375 
Q 60.6875 21.78125 60.6875 36.53125 
Q 60.6875 51.171875 53.6875 57.984375 
Q 46.6875 64.796875 31.59375 64.796875 
z
M 9.8125 72.90625 
L 30.078125 72.90625 
Q 51.265625 72.90625 61.171875 64.09375 
Q 71.09375 55.28125 71.09375 36.53125 
Q 71.09375 17.671875 61.125 8.828125 
Q 51.171875 0 30.078125 0 
L 9.8125 0 
z
" id="BitstreamVeraSans-Roman-44"/>
      <path d="M 44.28125 53.078125 
L 44.28125 44.578125 
Q 40.484375 46.53125 36.375 47.5 
Q 32.28125 48.484375 27.875 48.484375 
Q 21.1875 48.484375 17.84375 46.4375 
Q 14.5 44.390625 14.5 40.28125 
Q 14.5 37.15625 16.890625 35.375 
Q 19.28125 33.59375 26.515625 31.984375 
L 29.59375 31.296875 
Q 39.15625 29.25 43.1875 25.515625 
Q 47.21875 21.78125 47.21875 15.09375 
Q 47.21875 7.46875 41.1875 3.015625 
Q 35.15625 -1.421875 24.609375 -1.421875 
Q 20.21875 -1.421875 15.453125 -0.5625 
Q 10.6875 0.296875 5.421875 2 
L 5.421875 11.28125 
Q 10.40625 8.6875 15.234375 7.390625 
Q 20.0625 6.109375 24.8125 6.109375 
Q 31.15625 6.109375 34.5625 8.28125 
Q 37.984375 10.453125 37.984375 14.40625 
Q 37.984375 18.0625 35.515625 20.015625 
Q 33.0625 21.96875 24.703125 23.78125 
L 21.578125 24.515625 
Q 13.234375 26.265625 9.515625 29.90625 
Q 5.8125 33.546875 5.8125 39.890625 
Q 5.8125 47.609375 11.28125 51.796875 
Q 16.75 56 26.8125 56 
Q 31.78125 56 36.171875 55.265625 
Q 40.578125 54.546875 44.28125 53.078125 
" id="BitstreamVeraSans-Roman-73"/>
     </defs>
     <g style="fill:#262626;" transform="translate(122.523046875 446.221875)rotate(-90.0)scale(0.275 -0.275)">
      <use xlink:href="#BitstreamVeraSans-Roman-44"/>
      <use x="77.001953125" xlink:href="#BitstreamVeraSans-Roman-69"/>
      <use x="104.78515625" xlink:href="#BitstreamVeraSans-Roman-73"/>
      <use x="156.884765625" xlink:href="#BitstreamVeraSans-Roman-74"/>
      <use x="196.09375" xlink:href="#BitstreamVeraSans-Roman-61"/>
      <use x="257.373046875" xlink:href="#BitstreamVeraSans-Roman-6e"/>
      <use x="320.751953125" xlink:href="#BitstreamVeraSans-Roman-63"/>
      <use x="375.732421875" xlink:href="#BitstreamVeraSans-Roman-65"/>
     </g>
    </g>
   </g>
   <g id="PolyCollection_1">
    <defs>
     <path d="M 263.712951 -164.191527 
L 263.687049 -164.191527 
L 263.666592 -168.147359 
L 263.627612 -172.10319 
L 263.566207 -176.059022 
L 263.48479 -180.014853 
L 263.391096 -183.970685 
L 263.29203 -187.926517 
L 263.185644 -191.882348 
L 263.056018 -195.83818 
L 262.875167 -199.794011 
L 262.612447 -203.749843 
L 262.24545 -207.705674 
L 261.764706 -211.661506 
L 261.171689 -215.617338 
L 260.476709 -219.573169 
L 259.701525 -223.529001 
L 258.883568 -227.484832 
L 258.072438 -231.440664 
L 257.312086 -235.396496 
L 256.615598 -239.352327 
L 255.951496 -243.308159 
L 255.257327 -247.26399 
L 254.479364 -251.219822 
L 253.611668 -255.175653 
L 252.690244 -259.131485 
L 251.730491 -263.087317 
L 250.670816 -267.043148 
L 249.397133 -270.99898 
L 247.828489 -274.954811 
L 245.972061 -278.910643 
L 243.905468 -282.866475 
L 241.722489 -286.822306 
L 239.484063 -290.778138 
L 237.192971 -294.733969 
L 234.807936 -298.689801 
L 232.298936 -302.645632 
L 229.706322 -306.601464 
L 227.144968 -310.557296 
L 224.726414 -314.513127 
L 222.451836 -318.468959 
L 220.195568 -322.42479 
L 217.844343 -326.380622 
L 215.474775 -330.336454 
L 213.355577 -334.292285 
L 211.733757 -338.248117 
L 210.625695 -342.203948 
L 209.840585 -346.15978 
L 209.191834 -350.115611 
L 208.643369 -354.071443 
L 208.250453 -358.027275 
L 208.023745 -361.983106 
L 207.911155 -365.938938 
L 207.9 -369.894769 
L 208.086606 -373.850601 
L 208.630775 -377.806432 
L 209.656831 -381.762264 
L 211.184784 -385.718096 
L 213.117037 -389.673927 
L 215.280195 -393.629759 
L 217.5062 -397.58559 
L 219.707889 -401.541422 
L 221.905802 -405.497254 
L 224.189013 -409.453085 
L 226.621685 -413.408917 
L 229.156798 -417.364748 
L 231.639992 -421.32058 
L 233.912403 -425.276411 
L 235.924803 -429.232243 
L 237.769913 -433.188075 
L 239.611345 -437.143906 
L 241.562484 -441.099738 
L 243.606828 -445.055569 
L 245.617235 -449.011401 
L 247.442236 -452.967233 
L 248.98692 -456.923064 
L 250.255653 -460.878896 
L 251.351746 -464.834727 
L 252.422241 -468.790559 
L 253.568812 -472.74639 
L 254.797046 -476.702222 
L 256.046009 -480.658054 
L 257.251003 -484.613885 
L 258.37143 -488.569717 
L 259.380694 -492.525548 
L 260.256124 -496.48138 
L 260.981514 -500.437211 
L 261.551326 -504.393043 
L 261.973988 -508.348875 
L 262.275901 -512.304706 
L 262.499675 -516.260538 
L 262.691299 -520.216369 
L 262.882025 -524.172201 
L 263.077686 -528.128033 
L 263.263522 -532.083864 
L 263.419874 -536.039696 
L 263.535811 -539.995527 
L 263.612373 -543.951359 
L 263.657826 -547.90719 
L 263.682008 -551.863022 
L 263.693339 -555.818854 
L 263.706661 -555.818854 
L 263.706661 -555.818854 
L 263.717992 -551.863022 
L 263.742174 -547.90719 
L 263.787627 -543.951359 
L 263.864189 -539.995527 
L 263.980126 -536.039696 
L 264.136478 -532.083864 
L 264.322314 -528.128033 
L 264.517975 -524.172201 
L 264.708701 -520.216369 
L 264.900325 -516.260538 
L 265.124099 -512.304706 
L 265.426012 -508.348875 
L 265.848674 -504.393043 
L 266.418486 -500.437211 
L 267.143876 -496.48138 
L 268.019306 -492.525548 
L 269.02857 -488.569717 
L 270.148997 -484.613885 
L 271.353991 -480.658054 
L 272.602954 -476.702222 
L 273.831188 -472.74639 
L 274.977759 -468.790559 
L 276.048254 -464.834727 
L 277.144347 -460.878896 
L 278.41308 -456.923064 
L 279.957764 -452.967233 
L 281.782765 -449.011401 
L 283.793172 -445.055569 
L 285.837516 -441.099738 
L 287.788655 -437.143906 
L 289.630087 -433.188075 
L 291.475197 -429.232243 
L 293.487597 -425.276411 
L 295.760008 -421.32058 
L 298.243202 -417.364748 
L 300.778315 -413.408917 
L 303.210987 -409.453085 
L 305.494198 -405.497254 
L 307.692111 -401.541422 
L 309.8938 -397.58559 
L 312.119805 -393.629759 
L 314.282963 -389.673927 
L 316.215216 -385.718096 
L 317.743169 -381.762264 
L 318.769225 -377.806432 
L 319.313394 -373.850601 
L 319.5 -369.894769 
L 319.488845 -365.938938 
L 319.376255 -361.983106 
L 319.149547 -358.027275 
L 318.756631 -354.071443 
L 318.208166 -350.115611 
L 317.559415 -346.15978 
L 316.774305 -342.203948 
L 315.666243 -338.248117 
L 314.044423 -334.292285 
L 311.925225 -330.336454 
L 309.555657 -326.380622 
L 307.204432 -322.42479 
L 304.948164 -318.468959 
L 302.673586 -314.513127 
L 300.255032 -310.557296 
L 297.693678 -306.601464 
L 295.101064 -302.645632 
L 292.592064 -298.689801 
L 290.207029 -294.733969 
L 287.915937 -290.778138 
L 285.677511 -286.822306 
L 283.494532 -282.866475 
L 281.427939 -278.910643 
L 279.571511 -274.954811 
L 278.002867 -270.99898 
L 276.729184 -267.043148 
L 275.669509 -263.087317 
L 274.709756 -259.131485 
L 273.788332 -255.175653 
L 272.920636 -251.219822 
L 272.142673 -247.26399 
L 271.448504 -243.308159 
L 270.784402 -239.352327 
L 270.087914 -235.396496 
L 269.327562 -231.440664 
L 268.516432 -227.484832 
L 267.698475 -223.529001 
L 266.923291 -219.573169 
L 266.228311 -215.617338 
L 265.635294 -211.661506 
L 265.15455 -207.705674 
L 264.787553 -203.749843 
L 264.524833 -199.794011 
L 264.343982 -195.83818 
L 264.214356 -191.882348 
L 264.10797 -187.926517 
L 264.008904 -183.970685 
L 263.91521 -180.014853 
L 263.833793 -176.059022 
L 263.772388 -172.10319 
L 263.733408 -168.147359 
L 263.712951 -164.191527 
z
" id="mcbb04621a0" style="stroke:#3c3c3c;stroke-width:1.75;"/>
    </defs>
    <g clip-path="url(#p9d353ab03e)">
     <use style="fill:#ebf2c3;stroke:#3c3c3c;stroke-width:1.75;" x="0.0" xlink:href="#mcbb04621a0" y="792.0"/>
    </g>
   </g>
   <g id="PolyCollection_2">
    <defs>
     <path d="M 375.3068 -151.032446 
L 375.2932 -151.032446 
L 375.284874 -155.192334 
L 375.270417 -159.352222 
L 375.248164 -163.51211 
L 375.216862 -167.671998 
L 375.175501 -171.831887 
L 375.123232 -175.991775 
L 375.058541 -180.151663 
L 374.975559 -184.311551 
L 374.858033 -188.471439 
L 374.677138 -192.631327 
L 374.399635 -196.791216 
L 374.00347 -200.951104 
L 373.488817 -205.110992 
L 372.876444 -209.27088 
L 372.197968 -213.430768 
L 371.487778 -217.590656 
L 370.778977 -221.750545 
L 370.097903 -225.910433 
L 369.456031 -230.070321 
L 368.848509 -234.230209 
L 368.26609 -238.390097 
L 367.707627 -242.549985 
L 367.170456 -246.709873 
L 366.619324 -250.869762 
L 365.968106 -255.02965 
L 365.106378 -259.189538 
L 363.959429 -263.349426 
L 362.531821 -267.509314 
L 360.894945 -271.669202 
L 359.129896 -275.829091 
L 357.274849 -279.988979 
L 355.312196 -284.148867 
L 353.190101 -288.308755 
L 350.859268 -292.468643 
L 348.31739 -296.628531 
L 345.643221 -300.78842 
L 342.977304 -304.948308 
L 340.437002 -309.108196 
L 338.033953 -313.268084 
L 335.681775 -317.427972 
L 333.296257 -321.58786 
L 330.901639 -325.747749 
L 328.658615 -329.907637 
L 326.793291 -334.067525 
L 325.468366 -338.227413 
L 324.680177 -342.387301 
L 324.262805 -346.547189 
L 324.000879 -350.707078 
L 323.755 -354.866966 
L 323.506092 -359.026854 
L 323.323242 -363.186742 
L 323.315947 -367.34663 
L 323.592668 -371.506518 
L 324.215258 -375.666406 
L 325.170519 -379.826295 
L 326.392916 -383.986183 
L 327.816391 -388.146071 
L 329.394178 -392.305959 
L 331.074577 -396.465847 
L 332.788145 -400.625735 
L 334.48457 -404.785624 
L 336.176108 -408.945512 
L 337.917767 -413.1054 
L 339.730632 -417.265288 
L 341.55587 -421.425176 
L 343.300682 -425.585064 
L 344.933187 -429.744953 
L 346.528114 -433.904841 
L 348.21521 -438.064729 
L 350.073633 -442.224617 
L 352.061501 -446.384505 
L 354.038628 -450.544393 
L 355.861518 -454.704282 
L 357.470425 -458.86417 
L 358.904166 -463.024058 
L 360.250472 -467.183946 
L 361.589116 -471.343834 
L 362.967457 -475.503722 
L 364.401912 -479.663611 
L 365.882822 -483.823499 
L 367.376033 -487.983387 
L 368.825482 -492.143275 
L 370.158339 -496.303163 
L 371.296329 -500.463051 
L 372.180712 -504.62294 
L 372.804279 -508.782828 
L 373.223837 -512.942716 
L 373.534025 -517.102604 
L 373.817508 -521.262492 
L 374.108895 -525.42238 
L 374.395827 -529.582268 
L 374.647955 -533.742157 
L 374.845932 -537.902045 
L 374.990823 -542.061933 
L 375.095407 -546.221821 
L 375.171788 -550.381709 
L 375.226394 -554.541597 
L 375.262375 -558.701486 
L 375.283212 -562.861374 
L 375.316788 -562.861374 
L 375.316788 -562.861374 
L 375.337625 -558.701486 
L 375.373606 -554.541597 
L 375.428212 -550.381709 
L 375.504593 -546.221821 
L 375.609177 -542.061933 
L 375.754068 -537.902045 
L 375.952045 -533.742157 
L 376.204173 -529.582268 
L 376.491105 -525.42238 
L 376.782492 -521.262492 
L 377.065975 -517.102604 
L 377.376163 -512.942716 
L 377.795721 -508.782828 
L 378.419288 -504.62294 
L 379.303671 -500.463051 
L 380.441661 -496.303163 
L 381.774518 -492.143275 
L 383.223967 -487.983387 
L 384.717178 -483.823499 
L 386.198088 -479.663611 
L 387.632543 -475.503722 
L 389.010884 -471.343834 
L 390.349528 -467.183946 
L 391.695834 -463.024058 
L 393.129575 -458.86417 
L 394.738482 -454.704282 
L 396.561372 -450.544393 
L 398.538499 -446.384505 
L 400.526367 -442.224617 
L 402.38479 -438.064729 
L 404.071886 -433.904841 
L 405.666813 -429.744953 
L 407.299318 -425.585064 
L 409.04413 -421.425176 
L 410.869368 -417.265288 
L 412.682233 -413.1054 
L 414.423892 -408.945512 
L 416.11543 -404.785624 
L 417.811855 -400.625735 
L 419.525423 -396.465847 
L 421.205822 -392.305959 
L 422.783609 -388.146071 
L 424.207084 -383.986183 
L 425.429481 -379.826295 
L 426.384742 -375.666406 
L 427.007332 -371.506518 
L 427.284053 -367.34663 
L 427.276758 -363.186742 
L 427.093908 -359.026854 
L 426.845 -354.866966 
L 426.599121 -350.707078 
L 426.337195 -346.547189 
L 425.919823 -342.387301 
L 425.131634 -338.227413 
L 423.806709 -334.067525 
L 421.941385 -329.907637 
L 419.698361 -325.747749 
L 417.303743 -321.58786 
L 414.918225 -317.427972 
L 412.566047 -313.268084 
L 410.162998 -309.108196 
L 407.622696 -304.948308 
L 404.956779 -300.78842 
L 402.28261 -296.628531 
L 399.740732 -292.468643 
L 397.409899 -288.308755 
L 395.287804 -284.148867 
L 393.325151 -279.988979 
L 391.470104 -275.829091 
L 389.705055 -271.669202 
L 388.068179 -267.509314 
L 386.640571 -263.349426 
L 385.493622 -259.189538 
L 384.631894 -255.02965 
L 383.980676 -250.869762 
L 383.429544 -246.709873 
L 382.892373 -242.549985 
L 382.33391 -238.390097 
L 381.751491 -234.230209 
L 381.143969 -230.070321 
L 380.502097 -225.910433 
L 379.821023 -221.750545 
L 379.112222 -217.590656 
L 378.402032 -213.430768 
L 377.723556 -209.27088 
L 377.111183 -205.110992 
L 376.59653 -200.951104 
L 376.200365 -196.791216 
L 375.922862 -192.631327 
L 375.741967 -188.471439 
L 375.624441 -184.311551 
L 375.541459 -180.151663 
L 375.476768 -175.991775 
L 375.424499 -171.831887 
L 375.383138 -167.671998 
L 375.351836 -163.51211 
L 375.329583 -159.352222 
L 375.315126 -155.192334 
L 375.3068 -151.032446 
z
" id="m9110c887eb" style="stroke:#3c3c3c;stroke-width:1.75;"/>
    </defs>
    <g clip-path="url(#p9d353ab03e)">
     <use style="fill:#325c96;stroke:#3c3c3c;stroke-width:1.75;" x="0.0" xlink:href="#m9110c887eb" y="792.0"/>
    </g>
   </g>
   <g id="PolyCollection_3">
    <defs>
     <path d="M 542.70576 -152.968797 
L 542.69424 -152.968797 
L 542.685742 -157.086523 
L 542.6692 -161.204248 
L 542.640557 -165.321974 
L 542.595513 -169.439699 
L 542.531186 -173.557425 
L 542.44916 -177.675151 
L 542.356814 -181.792876 
L 542.262044 -185.910602 
L 542.161886 -190.028327 
L 542.034064 -194.146053 
L 541.841664 -198.263779 
L 541.550527 -202.381504 
L 541.146217 -206.49923 
L 540.637649 -210.616955 
L 540.048183 -214.734681 
L 539.403956 -218.852406 
L 538.724691 -222.970132 
L 538.018119 -227.087858 
L 537.282197 -231.205583 
L 536.517611 -235.323309 
L 535.742318 -239.441034 
L 534.991556 -243.55876 
L 534.292794 -247.676486 
L 533.626653 -251.794211 
L 532.905997 -255.911937 
L 532.001442 -260.029662 
L 530.806208 -264.147388 
L 529.294022 -268.265113 
L 527.522559 -272.382839 
L 525.582619 -276.500565 
L 523.542033 -280.61829 
L 521.423434 -284.736016 
L 519.205465 -288.853741 
L 516.83128 -292.971467 
L 514.246998 -297.089193 
L 511.476193 -301.206918 
L 508.660419 -305.324644 
L 505.994756 -309.442369 
L 503.598132 -313.560095 
L 501.434963 -317.67782 
L 499.355632 -321.795546 
L 497.228498 -325.913272 
L 495.076064 -330.030997 
L 493.103708 -334.148723 
L 491.561145 -338.266448 
L 490.536281 -342.384174 
L 489.887478 -346.5019 
L 489.381055 -350.619625 
L 488.862442 -354.737351 
L 488.291379 -358.855076 
L 487.693978 -362.972802 
L 487.164993 -367.090527 
L 486.9 -371.208253 
L 487.145915 -375.325979 
L 488.071084 -379.443704 
L 489.670395 -383.56143 
L 491.781656 -387.679155 
L 494.181174 -391.796881 
L 496.672003 -395.914607 
L 499.113246 -400.032332 
L 501.419602 -404.150058 
L 503.578044 -408.267783 
L 505.649625 -412.385509 
L 507.694679 -416.503234 
L 509.672449 -420.62096 
L 511.455842 -424.738686 
L 512.988702 -428.856411 
L 514.41469 -432.974137 
L 516.00299 -437.091862 
L 517.925918 -441.209588 
L 520.120082 -445.327314 
L 522.358601 -449.445039 
L 524.427956 -453.562765 
L 526.236174 -457.68049 
L 527.805665 -461.798216 
L 529.215024 -465.915941 
L 530.547623 -470.033667 
L 531.861217 -474.151393 
L 533.176733 -478.269118 
L 534.481239 -482.386844 
L 535.73985 -486.504569 
L 536.914727 -490.622295 
L 537.98104 -494.740021 
L 538.922782 -498.857746 
L 539.716035 -502.975472 
L 540.333652 -507.093197 
L 540.778614 -511.210923 
L 541.104239 -515.328648 
L 541.386543 -519.446374 
L 541.672477 -523.5641 
L 541.956604 -527.681825 
L 542.203802 -531.799551 
L 542.387641 -535.917276 
L 542.508221 -540.035002 
L 542.583297 -544.152728 
L 542.631228 -548.270453 
L 542.662614 -552.388179 
L 542.682089 -556.505904 
L 542.692666 -560.62363 
L 542.707334 -560.62363 
L 542.707334 -560.62363 
L 542.717911 -556.505904 
L 542.737386 -552.388179 
L 542.768772 -548.270453 
L 542.816703 -544.152728 
L 542.891779 -540.035002 
L 543.012359 -535.917276 
L 543.196198 -531.799551 
L 543.443396 -527.681825 
L 543.727523 -523.5641 
L 544.013457 -519.446374 
L 544.295761 -515.328648 
L 544.621386 -511.210923 
L 545.066348 -507.093197 
L 545.683965 -502.975472 
L 546.477218 -498.857746 
L 547.41896 -494.740021 
L 548.485273 -490.622295 
L 549.66015 -486.504569 
L 550.918761 -482.386844 
L 552.223267 -478.269118 
L 553.538783 -474.151393 
L 554.852377 -470.033667 
L 556.184976 -465.915941 
L 557.594335 -461.798216 
L 559.163826 -457.68049 
L 560.972044 -453.562765 
L 563.041399 -449.445039 
L 565.279918 -445.327314 
L 567.474082 -441.209588 
L 569.39701 -437.091862 
L 570.98531 -432.974137 
L 572.411298 -428.856411 
L 573.944158 -424.738686 
L 575.727551 -420.62096 
L 577.705321 -416.503234 
L 579.750375 -412.385509 
L 581.821956 -408.267783 
L 583.980398 -404.150058 
L 586.286754 -400.032332 
L 588.727997 -395.914607 
L 591.218826 -391.796881 
L 593.618344 -387.679155 
L 595.729605 -383.56143 
L 597.328916 -379.443704 
L 598.254085 -375.325979 
L 598.5 -371.208253 
L 598.235007 -367.090527 
L 597.706022 -362.972802 
L 597.108621 -358.855076 
L 596.537558 -354.737351 
L 596.018945 -350.619625 
L 595.512522 -346.5019 
L 594.863719 -342.384174 
L 593.838855 -338.266448 
L 592.296292 -334.148723 
L 590.323936 -330.030997 
L 588.171502 -325.913272 
L 586.044368 -321.795546 
L 583.965037 -317.67782 
L 581.801868 -313.560095 
L 579.405244 -309.442369 
L 576.739581 -305.324644 
L 573.923807 -301.206918 
L 571.153002 -297.089193 
L 568.56872 -292.971467 
L 566.194535 -288.853741 
L 563.976566 -284.736016 
L 561.857967 -280.61829 
L 559.817381 -276.500565 
L 557.877441 -272.382839 
L 556.105978 -268.265113 
L 554.593792 -264.147388 
L 553.398558 -260.029662 
L 552.494003 -255.911937 
L 551.773347 -251.794211 
L 551.107206 -247.676486 
L 550.408444 -243.55876 
L 549.657682 -239.441034 
L 548.882389 -235.323309 
L 548.117803 -231.205583 
L 547.381881 -227.087858 
L 546.675309 -222.970132 
L 545.996044 -218.852406 
L 545.351817 -214.734681 
L 544.762351 -210.616955 
L 544.253783 -206.49923 
L 543.849473 -202.381504 
L 543.558336 -198.263779 
L 543.365936 -194.146053 
L 543.238114 -190.028327 
L 543.137956 -185.910602 
L 543.043186 -181.792876 
L 542.95084 -177.675151 
L 542.868814 -173.557425 
L 542.804487 -169.439699 
L 542.759443 -165.321974 
L 542.7308 -161.204248 
L 542.714258 -157.086523 
L 542.70576 -152.968797 
z
" id="mf65dba78a7" style="stroke:#3c3c3c;stroke-width:1.75;"/>
    </defs>
    <g clip-path="url(#p9d353ab03e)">
     <use style="fill:#ebf2c3;stroke:#3c3c3c;stroke-width:1.75;" x="0.0" xlink:href="#mf65dba78a7" y="792.0"/>
    </g>
   </g>
   <g id="PolyCollection_4">
    <defs>
     <path d="M 654.308451 -163.931339 
L 654.291549 -163.931339 
L 654.278608 -167.941092 
L 654.253404 -171.950844 
L 654.211558 -175.960596 
L 654.15089 -179.970348 
L 654.070243 -183.9801 
L 653.964446 -187.989852 
L 653.81943 -191.999604 
L 653.613646 -196.009357 
L 653.325883 -200.019109 
L 652.941877 -204.028861 
L 652.454176 -208.038613 
L 651.858921 -212.048365 
L 651.157369 -216.058117 
L 650.365326 -220.067869 
L 649.524036 -224.077622 
L 648.697528 -228.087374 
L 647.947452 -232.097126 
L 647.299368 -236.106878 
L 646.726632 -240.11663 
L 646.161544 -244.126382 
L 645.525069 -248.136134 
L 644.764943 -252.145887 
L 643.883535 -256.155639 
L 642.923818 -260.165391 
L 641.911035 -264.175143 
L 640.804899 -268.184895 
L 639.515994 -272.194647 
L 637.968948 -276.204399 
L 636.149479 -280.214152 
L 634.102577 -284.223904 
L 631.896734 -288.233656 
L 629.584781 -292.243408 
L 627.188623 -296.25316 
L 624.718445 -300.262912 
L 622.200973 -304.272664 
L 619.67621 -308.282417 
L 617.160052 -312.292169 
L 614.616058 -316.301921 
L 611.981345 -320.311673 
L 609.251186 -324.321425 
L 606.562502 -328.331177 
L 604.177492 -332.340929 
L 602.336595 -336.350682 
L 601.094029 -340.360434 
L 600.29691 -344.370186 
L 599.733688 -348.379938 
L 599.302591 -352.38969 
L 599.040166 -356.399442 
L 599.015322 -360.409194 
L 599.233227 -364.418947 
L 599.642987 -368.428699 
L 600.196931 -372.438451 
L 600.8768 -376.448203 
L 601.690495 -380.457955 
L 602.675904 -384.467707 
L 603.889417 -388.477459 
L 605.352508 -392.487212 
L 607.011454 -396.496964 
L 608.783732 -400.506716 
L 610.657016 -404.516468 
L 612.716449 -408.52622 
L 615.046614 -412.535972 
L 617.612626 -416.545724 
L 620.258362 -420.555477 
L 622.8153 -424.565229 
L 625.19318 -428.574981 
L 627.384699 -432.584733 
L 629.433571 -436.594485 
L 631.407109 -440.604237 
L 633.350824 -444.613989 
L 635.232187 -448.623742 
L 636.942393 -452.633494 
L 638.382495 -456.643246 
L 639.558423 -460.652998 
L 640.591715 -464.66275 
L 641.639546 -468.672502 
L 642.801316 -472.682255 
L 644.085879 -476.692007 
L 645.444353 -480.701759 
L 646.818253 -484.711511 
L 648.158406 -488.721263 
L 649.413787 -492.731015 
L 650.520453 -496.740767 
L 651.415008 -500.75052 
L 652.066505 -504.760272 
L 652.497104 -508.770024 
L 652.771327 -512.779776 
L 652.964802 -516.789528 
L 653.13726 -520.79928 
L 653.320754 -524.809032 
L 653.519522 -528.818785 
L 653.717922 -532.828537 
L 653.894438 -536.838289 
L 654.034941 -540.848041 
L 654.13725 -544.857793 
L 654.206941 -548.867545 
L 654.251438 -552.877297 
L 654.277445 -556.88705 
L 654.290887 -560.896802 
L 654.309113 -560.896802 
L 654.309113 -560.896802 
L 654.322555 -556.88705 
L 654.348562 -552.877297 
L 654.393059 -548.867545 
L 654.46275 -544.857793 
L 654.565059 -540.848041 
L 654.705562 -536.838289 
L 654.882078 -532.828537 
L 655.080478 -528.818785 
L 655.279246 -524.809032 
L 655.46274 -520.79928 
L 655.635198 -516.789528 
L 655.828673 -512.779776 
L 656.102896 -508.770024 
L 656.533495 -504.760272 
L 657.184992 -500.75052 
L 658.079547 -496.740767 
L 659.186213 -492.731015 
L 660.441594 -488.721263 
L 661.781747 -484.711511 
L 663.155647 -480.701759 
L 664.514121 -476.692007 
L 665.798684 -472.682255 
L 666.960454 -468.672502 
L 668.008285 -464.66275 
L 669.041577 -460.652998 
L 670.217505 -456.643246 
L 671.657607 -452.633494 
L 673.367813 -448.623742 
L 675.249176 -444.613989 
L 677.192891 -440.604237 
L 679.166429 -436.594485 
L 681.215301 -432.584733 
L 683.40682 -428.574981 
L 685.7847 -424.565229 
L 688.341638 -420.555477 
L 690.987374 -416.545724 
L 693.553386 -412.535972 
L 695.883551 -408.52622 
L 697.942984 -404.516468 
L 699.816268 -400.506716 
L 701.588546 -396.496964 
L 703.247492 -392.487212 
L 704.710583 -388.477459 
L 705.924096 -384.467707 
L 706.909505 -380.457955 
L 707.7232 -376.448203 
L 708.403069 -372.438451 
L 708.957013 -368.428699 
L 709.366773 -364.418947 
L 709.584678 -360.409194 
L 709.559834 -356.399442 
L 709.297409 -352.38969 
L 708.866312 -348.379938 
L 708.30309 -344.370186 
L 707.505971 -340.360434 
L 706.263405 -336.350682 
L 704.422508 -332.340929 
L 702.037498 -328.331177 
L 699.348814 -324.321425 
L 696.618655 -320.311673 
L 693.983942 -316.301921 
L 691.439948 -312.292169 
L 688.92379 -308.282417 
L 686.399027 -304.272664 
L 683.881555 -300.262912 
L 681.411377 -296.25316 
L 679.015219 -292.243408 
L 676.703266 -288.233656 
L 674.497423 -284.223904 
L 672.450521 -280.214152 
L 670.631052 -276.204399 
L 669.084006 -272.194647 
L 667.795101 -268.184895 
L 666.688965 -264.175143 
L 665.676182 -260.165391 
L 664.716465 -256.155639 
L 663.835057 -252.145887 
L 663.074931 -248.136134 
L 662.438456 -244.126382 
L 661.873368 -240.11663 
L 661.300632 -236.106878 
L 660.652548 -232.097126 
L 659.902472 -228.087374 
L 659.075964 -224.077622 
L 658.234674 -220.067869 
L 657.442631 -216.058117 
L 656.741079 -212.048365 
L 656.145824 -208.038613 
L 655.658123 -204.028861 
L 655.274117 -200.019109 
L 654.986354 -196.009357 
L 654.78057 -191.999604 
L 654.635554 -187.989852 
L 654.529757 -183.9801 
L 654.44911 -179.970348 
L 654.388442 -175.960596 
L 654.346596 -171.950844 
L 654.321392 -167.941092 
L 654.308451 -163.931339 
z
" id="m7ed075999b" style="stroke:#3c3c3c;stroke-width:1.75;"/>
    </defs>
    <g clip-path="url(#p9d353ab03e)">
     <use style="fill:#325c96;stroke:#3c3c3c;stroke-width:1.75;" x="0.0" xlink:href="#m7ed075999b" y="792.0"/>
    </g>
   </g>
   <g id="PolyCollection_5">
    <defs>
     <path d="M 821.70382 -155.313166 
L 821.69618 -155.313166 
L 821.69063 -159.386575 
L 821.681926 -163.459984 
L 821.671776 -167.533393 
L 821.661783 -171.606802 
L 821.649586 -175.680211 
L 821.629248 -179.75362 
L 821.598073 -183.827029 
L 821.561579 -187.900438 
L 821.528772 -191.973847 
L 821.503943 -196.047256 
L 821.485997 -200.120665 
L 821.471823 -204.194074 
L 821.453635 -208.267483 
L 821.415703 -212.340892 
L 821.341123 -216.414301 
L 821.222316 -220.48771 
L 821.063623 -224.561119 
L 820.876319 -228.634528 
L 820.670921 -232.707937 
L 820.448215 -236.781346 
L 820.190098 -240.854755 
L 819.856787 -244.928163 
L 819.403299 -249.001572 
L 818.809615 -253.074981 
L 818.084963 -257.14839 
L 817.229516 -261.221799 
L 816.205509 -265.295208 
L 814.968335 -269.368617 
L 813.526107 -273.442026 
L 811.957288 -277.515435 
L 810.368683 -281.588844 
L 808.826922 -285.662253 
L 807.291332 -289.735662 
L 805.59467 -293.809071 
L 803.54912 -297.88248 
L 801.137732 -301.955889 
L 798.574415 -306.029298 
L 796.11808 -310.102707 
L 793.842191 -314.176116 
L 791.605389 -318.249525 
L 789.204752 -322.322934 
L 786.553966 -326.396343 
L 783.786516 -330.469752 
L 781.222879 -334.543161 
L 779.184438 -338.616569 
L 777.760218 -342.689978 
L 776.725992 -346.763387 
L 775.722234 -350.836796 
L 774.533476 -354.910205 
L 773.185537 -358.983614 
L 771.813519 -363.057023 
L 770.533645 -367.130432 
L 769.45855 -371.203841 
L 768.73781 -375.27725 
L 768.515373 -379.350659 
L 768.855248 -383.424068 
L 769.708307 -387.497477 
L 770.93949 -391.570886 
L 772.38325 -395.644295 
L 773.877098 -399.717704 
L 775.313039 -403.791113 
L 776.743632 -407.864522 
L 778.384393 -411.937931 
L 780.388215 -416.01134 
L 782.62286 -420.084749 
L 784.758692 -424.158158 
L 786.585971 -428.231566 
L 788.214196 -432.304975 
L 789.971016 -436.378384 
L 792.112484 -440.451793 
L 794.603284 -444.525202 
L 797.152957 -448.598611 
L 799.44535 -452.67202 
L 801.334588 -456.745429 
L 802.883067 -460.818838 
L 804.281378 -464.892247 
L 805.723974 -468.965656 
L 807.308103 -473.039065 
L 809.017757 -477.112474 
L 810.780891 -481.185883 
L 812.523681 -485.259292 
L 814.185128 -489.332701 
L 815.712417 -493.40611 
L 817.049496 -497.479519 
L 818.128506 -501.552928 
L 818.896472 -505.626337 
L 819.371246 -509.699746 
L 819.659995 -513.773155 
L 819.905034 -517.846564 
L 820.201728 -521.919972 
L 820.556196 -525.993381 
L 820.909435 -530.06679 
L 821.197653 -534.140199 
L 821.395938 -538.213608 
L 821.519228 -542.287017 
L 821.595785 -546.360426 
L 821.645024 -550.433835 
L 821.675118 -554.507244 
L 821.690767 -558.580653 
L 821.709233 -558.580653 
L 821.709233 -558.580653 
L 821.724882 -554.507244 
L 821.754976 -550.433835 
L 821.804215 -546.360426 
L 821.880772 -542.287017 
L 822.004062 -538.213608 
L 822.202347 -534.140199 
L 822.490565 -530.06679 
L 822.843804 -525.993381 
L 823.198272 -521.919972 
L 823.494966 -517.846564 
L 823.740005 -513.773155 
L 824.028754 -509.699746 
L 824.503528 -505.626337 
L 825.271494 -501.552928 
L 826.350504 -497.479519 
L 827.687583 -493.40611 
L 829.214872 -489.332701 
L 830.876319 -485.259292 
L 832.619109 -481.185883 
L 834.382243 -477.112474 
L 836.091897 -473.039065 
L 837.676026 -468.965656 
L 839.118622 -464.892247 
L 840.516933 -460.818838 
L 842.065412 -456.745429 
L 843.95465 -452.67202 
L 846.247043 -448.598611 
L 848.796716 -444.525202 
L 851.287516 -440.451793 
L 853.428984 -436.378384 
L 855.185804 -432.304975 
L 856.814029 -428.231566 
L 858.641308 -424.158158 
L 860.77714 -420.084749 
L 863.011785 -416.01134 
L 865.015607 -411.937931 
L 866.656368 -407.864522 
L 868.086961 -403.791113 
L 869.522902 -399.717704 
L 871.01675 -395.644295 
L 872.46051 -391.570886 
L 873.691693 -387.497477 
L 874.544752 -383.424068 
L 874.884627 -379.350659 
L 874.66219 -375.27725 
L 873.94145 -371.203841 
L 872.866355 -367.130432 
L 871.586481 -363.057023 
L 870.214463 -358.983614 
L 868.866524 -354.910205 
L 867.677766 -350.836796 
L 866.674008 -346.763387 
L 865.639782 -342.689978 
L 864.215562 -338.616569 
L 862.177121 -334.543161 
L 859.613484 -330.469752 
L 856.846034 -326.396343 
L 854.195248 -322.322934 
L 851.794611 -318.249525 
L 849.557809 -314.176116 
L 847.28192 -310.102707 
L 844.825585 -306.029298 
L 842.262268 -301.955889 
L 839.85088 -297.88248 
L 837.80533 -293.809071 
L 836.108668 -289.735662 
L 834.573078 -285.662253 
L 833.031317 -281.588844 
L 831.442712 -277.515435 
L 829.873893 -273.442026 
L 828.431665 -269.368617 
L 827.194491 -265.295208 
L 826.170484 -261.221799 
L 825.315037 -257.14839 
L 824.590385 -253.074981 
L 823.996701 -249.001572 
L 823.543213 -244.928163 
L 823.209902 -240.854755 
L 822.951785 -236.781346 
L 822.729079 -232.707937 
L 822.523681 -228.634528 
L 822.336377 -224.561119 
L 822.177684 -220.48771 
L 822.058877 -216.414301 
L 821.984297 -212.340892 
L 821.946365 -208.267483 
L 821.928177 -204.194074 
L 821.914003 -200.120665 
L 821.896057 -196.047256 
L 821.871228 -191.973847 
L 821.838421 -187.900438 
L 821.801927 -183.827029 
L 821.770752 -179.75362 
L 821.750414 -175.680211 
L 821.738217 -171.606802 
L 821.728224 -167.533393 
L 821.718074 -163.459984 
L 821.70937 -159.386575 
L 821.70382 -155.313166 
z
" id="m3a5a0d9aab" style="stroke:#3c3c3c;stroke-width:1.75;"/>
    </defs>
    <g clip-path="url(#p9d353ab03e)">
     <use style="fill:#ebf2c3;stroke:#3c3c3c;stroke-width:1.75;" x="0.0" xlink:href="#m3a5a0d9aab" y="792.0"/>
    </g>
   </g>
   <g id="PolyCollection_6">
    <defs>
     <path d="M 933.328774 -162.929378 
L 933.271226 -162.929378 
L 933.22981 -166.925893 
L 933.154229 -170.922408 
L 933.039298 -174.918922 
L 932.891159 -178.915437 
L 932.721231 -182.911952 
L 932.527582 -186.908466 
L 932.276129 -190.904981 
L 931.899522 -194.901496 
L 931.31978 -198.898011 
L 930.481296 -202.894525 
L 929.371951 -206.89104 
L 928.020649 -210.887555 
L 926.479817 -214.884069 
L 924.811596 -218.880584 
L 923.085947 -222.877099 
L 921.379911 -226.873614 
L 919.765121 -230.870128 
L 918.291344 -234.866643 
L 916.985592 -238.863158 
L 915.862423 -242.859672 
L 914.917768 -246.856187 
L 914.106064 -250.852702 
L 913.339437 -254.849216 
L 912.52369 -258.845731 
L 911.591508 -262.842246 
L 910.497892 -266.838761 
L 909.193351 -270.835275 
L 907.609322 -274.83179 
L 905.673693 -278.828305 
L 903.356733 -282.824819 
L 900.720805 -286.821334 
L 897.921555 -290.817849 
L 895.140461 -294.814364 
L 892.503431 -298.810878 
L 890.056924 -302.807393 
L 887.806115 -306.803908 
L 885.757189 -310.800422 
L 883.915296 -314.796937 
L 882.252992 -318.793452 
L 880.717535 -322.789967 
L 879.313815 -326.786481 
L 878.183001 -330.782996 
L 877.543173 -334.779511 
L 877.5 -338.776025 
L 877.934688 -342.77254 
L 878.632224 -346.769055 
L 879.514879 -350.765569 
L 880.689814 -354.762084 
L 882.261981 -358.758599 
L 884.177834 -362.755114 
L 886.29512 -366.751628 
L 888.542611 -370.748143 
L 890.943137 -374.744658 
L 893.5117 -378.741172 
L 896.202892 -382.737687 
L 898.957387 -386.734202 
L 901.742959 -390.730717 
L 904.533208 -394.727231 
L 907.283506 -398.723746 
L 909.951104 -402.720261 
L 912.520647 -406.716775 
L 914.9894 -410.71329 
L 917.33261 -414.709805 
L 919.49745 -418.706319 
L 921.430778 -422.702834 
L 923.103801 -426.699349 
L 924.514187 -430.695864 
L 925.684839 -434.692378 
L 926.670624 -438.688893 
L 927.548841 -442.685408 
L 928.378419 -446.681922 
L 929.161453 -450.678437 
L 929.850697 -454.674952 
L 930.397963 -458.671467 
L 930.796315 -462.667981 
L 931.081882 -466.664496 
L 931.304251 -470.661011 
L 931.498836 -474.657525 
L 931.681683 -478.65404 
L 931.859141 -482.650555 
L 932.035462 -486.647069 
L 932.214152 -490.643584 
L 932.397665 -494.640099 
L 932.585597 -498.636614 
L 932.770542 -502.633128 
L 932.936807 -506.629643 
L 933.066461 -510.626158 
L 933.148833 -514.622672 
L 933.186134 -518.619187 
L 933.191955 -522.615702 
L 933.18453 -526.612217 
L 933.179127 -530.608731 
L 933.183708 -534.605246 
L 933.19912 -538.601761 
L 933.22178 -542.598275 
L 933.246367 -546.59479 
L 933.26792 -550.591305 
L 933.283491 -554.587819 
L 933.292775 -558.584334 
L 933.307225 -558.584334 
L 933.307225 -558.584334 
L 933.316509 -554.587819 
L 933.33208 -550.591305 
L 933.353633 -546.59479 
L 933.37822 -542.598275 
L 933.40088 -538.601761 
L 933.416292 -534.605246 
L 933.420873 -530.608731 
L 933.41547 -526.612217 
L 933.408045 -522.615702 
L 933.413866 -518.619187 
L 933.451167 -514.622672 
L 933.533539 -510.626158 
L 933.663193 -506.629643 
L 933.829458 -502.633128 
L 934.014403 -498.636614 
L 934.202335 -494.640099 
L 934.385848 -490.643584 
L 934.564538 -486.647069 
L 934.740859 -482.650555 
L 934.918317 -478.65404 
L 935.101164 -474.657525 
L 935.295749 -470.661011 
L 935.518118 -466.664496 
L 935.803685 -462.667981 
L 936.202037 -458.671467 
L 936.749303 -454.674952 
L 937.438547 -450.678437 
L 938.221581 -446.681922 
L 939.051159 -442.685408 
L 939.929376 -438.688893 
L 940.915161 -434.692378 
L 942.085813 -430.695864 
L 943.496199 -426.699349 
L 945.169222 -422.702834 
L 947.10255 -418.706319 
L 949.26739 -414.709805 
L 951.6106 -410.71329 
L 954.079353 -406.716775 
L 956.648896 -402.720261 
L 959.316494 -398.723746 
L 962.066792 -394.727231 
L 964.857041 -390.730717 
L 967.642613 -386.734202 
L 970.397108 -382.737687 
L 973.0883 -378.741172 
L 975.656863 -374.744658 
L 978.057389 -370.748143 
L 980.30488 -366.751628 
L 982.422166 -362.755114 
L 984.338019 -358.758599 
L 985.910186 -354.762084 
L 987.085121 -350.765569 
L 987.967776 -346.769055 
L 988.665312 -342.77254 
L 989.1 -338.776025 
L 989.056827 -334.779511 
L 988.416999 -330.782996 
L 987.286185 -326.786481 
L 985.882465 -322.789967 
L 984.347008 -318.793452 
L 982.684704 -314.796937 
L 980.842811 -310.800422 
L 978.793885 -306.803908 
L 976.543076 -302.807393 
L 974.096569 -298.810878 
L 971.459539 -294.814364 
L 968.678445 -290.817849 
L 965.879195 -286.821334 
L 963.243267 -282.824819 
L 960.926307 -278.828305 
L 958.990678 -274.83179 
L 957.406649 -270.835275 
L 956.102108 -266.838761 
L 955.008492 -262.842246 
L 954.07631 -258.845731 
L 953.260563 -254.849216 
L 952.493936 -250.852702 
L 951.682232 -246.856187 
L 950.737577 -242.859672 
L 949.614408 -238.863158 
L 948.308656 -234.866643 
L 946.834879 -230.870128 
L 945.220089 -226.873614 
L 943.514053 -222.877099 
L 941.788404 -218.880584 
L 940.120183 -214.884069 
L 938.579351 -210.887555 
L 937.228049 -206.89104 
L 936.118704 -202.894525 
L 935.28022 -198.898011 
L 934.700478 -194.901496 
L 934.323871 -190.904981 
L 934.072418 -186.908466 
L 933.878769 -182.911952 
L 933.708841 -178.915437 
L 933.560702 -174.918922 
L 933.445771 -170.922408 
L 933.37019 -166.925893 
L 933.328774 -162.929378 
z
" id="mcc14f16cd3" style="stroke:#3c3c3c;stroke-width:1.75;"/>
    </defs>
    <g clip-path="url(#p9d353ab03e)">
     <use style="fill:#325c96;stroke:#3c3c3c;stroke-width:1.75;" x="0.0" xlink:href="#mcc14f16cd3" y="792.0"/>
    </g>
   </g>
   <g id="PolyCollection_7">
    <defs>
     <path d="M 1100.701684 -173.237064 
L 1100.698316 -173.237064 
L 1100.694789 -177.463812 
L 1100.687967 -181.690561 
L 1100.677755 -185.917309 
L 1100.662885 -190.144058 
L 1100.63776 -194.370806 
L 1100.59436 -198.597555 
L 1100.525017 -202.824303 
L 1100.419659 -207.051052 
L 1100.269062 -211.2778 
L 1100.074829 -215.504548 
L 1099.842383 -219.731297 
L 1099.56466 -223.958045 
L 1099.227905 -228.184794 
L 1098.829327 -232.411542 
L 1098.381886 -236.638291 
L 1097.907872 -240.865039 
L 1097.428493 -245.091788 
L 1096.966715 -249.318536 
L 1096.56311 -253.545285 
L 1096.25434 -257.772033 
L 1096.027143 -261.998782 
L 1095.841681 -266.22553 
L 1095.701595 -270.452278 
L 1095.642319 -274.679027 
L 1095.649733 -278.905775 
L 1095.655423 -283.132524 
L 1095.621929 -287.359272 
L 1095.56865 -291.586021 
L 1095.500849 -295.812769 
L 1095.367752 -300.039518 
L 1095.103978 -304.266266 
L 1094.698767 -308.493015 
L 1094.218872 -312.719763 
L 1093.730592 -316.946512 
L 1093.218586 -321.17326 
L 1092.635339 -325.400009 
L 1091.976313 -329.626757 
L 1091.272047 -333.853505 
L 1090.559338 -338.080254 
L 1089.829054 -342.307002 
L 1088.974158 -346.533751 
L 1087.8607 -350.760499 
L 1086.440073 -354.987248 
L 1084.720633 -359.213996 
L 1082.692416 -363.440745 
L 1080.370757 -367.667493 
L 1077.844817 -371.894242 
L 1075.190357 -376.12099 
L 1072.39256 -380.347739 
L 1069.419587 -384.574487 
L 1066.295214 -388.801235 
L 1063.071714 -393.027984 
L 1059.826974 -397.254732 
L 1056.67327 -401.481481 
L 1053.719967 -405.708229 
L 1051.068191 -409.934978 
L 1048.796978 -414.161726 
L 1046.937206 -418.388475 
L 1045.572978 -422.615223 
L 1044.9 -426.841972 
L 1045.020774 -431.06872 
L 1045.776986 -435.295469 
L 1046.911724 -439.522217 
L 1048.32473 -443.748966 
L 1050.078951 -447.975714 
L 1052.194934 -452.202462 
L 1054.579555 -456.429211 
L 1057.151858 -460.655959 
L 1059.854163 -464.882708 
L 1062.556061 -469.109456 
L 1065.146862 -473.336205 
L 1067.694011 -477.562953 
L 1070.331693 -481.789702 
L 1073.058337 -486.01645 
L 1075.787848 -490.243199 
L 1078.489332 -494.469947 
L 1081.167499 -498.696696 
L 1083.800896 -502.923444 
L 1086.3399 -507.150192 
L 1088.72482 -511.376941 
L 1090.910767 -515.603689 
L 1092.863956 -519.830438 
L 1094.539556 -524.057186 
L 1095.910395 -528.283935 
L 1096.999078 -532.510683 
L 1097.852671 -536.737432 
L 1098.510822 -540.96418 
L 1098.995189 -545.190929 
L 1099.319866 -549.417677 
L 1099.515639 -553.644426 
L 1099.633817 -557.871174 
L 1099.736323 -562.097923 
L 1099.879364 -566.324671 
L 1100.078749 -570.551419 
L 1100.297779 -574.778168 
L 1100.483192 -579.004916 
L 1100.605261 -583.231665 
L 1100.667407 -587.458413 
L 1100.691416 -591.685162 
L 1100.708584 -591.685162 
L 1100.708584 -591.685162 
L 1100.732593 -587.458413 
L 1100.794739 -583.231665 
L 1100.916808 -579.004916 
L 1101.102221 -574.778168 
L 1101.321251 -570.551419 
L 1101.520636 -566.324671 
L 1101.663677 -562.097923 
L 1101.766183 -557.871174 
L 1101.884361 -553.644426 
L 1102.080134 -549.417677 
L 1102.404811 -545.190929 
L 1102.889178 -540.96418 
L 1103.547329 -536.737432 
L 1104.400922 -532.510683 
L 1105.489605 -528.283935 
L 1106.860444 -524.057186 
L 1108.536044 -519.830438 
L 1110.489233 -515.603689 
L 1112.67518 -511.376941 
L 1115.0601 -507.150192 
L 1117.599104 -502.923444 
L 1120.232501 -498.696696 
L 1122.910668 -494.469947 
L 1125.612152 -490.243199 
L 1128.341663 -486.01645 
L 1131.068307 -481.789702 
L 1133.705989 -477.562953 
L 1136.253138 -473.336205 
L 1138.843939 -469.109456 
L 1141.545837 -464.882708 
L 1144.248142 -460.655959 
L 1146.820445 -456.429211 
L 1149.205066 -452.202462 
L 1151.321049 -447.975714 
L 1153.07527 -443.748966 
L 1154.488276 -439.522217 
L 1155.623014 -435.295469 
L 1156.379226 -431.06872 
L 1156.5 -426.841972 
L 1155.827022 -422.615223 
L 1154.462794 -418.388475 
L 1152.603022 -414.161726 
L 1150.331809 -409.934978 
L 1147.680033 -405.708229 
L 1144.72673 -401.481481 
L 1141.573026 -397.254732 
L 1138.328286 -393.027984 
L 1135.104786 -388.801235 
L 1131.980413 -384.574487 
L 1129.00744 -380.347739 
L 1126.209643 -376.12099 
L 1123.555183 -371.894242 
L 1121.029243 -367.667493 
L 1118.707584 -363.440745 
L 1116.679367 -359.213996 
L 1114.959927 -354.987248 
L 1113.5393 -350.760499 
L 1112.425842 -346.533751 
L 1111.570946 -342.307002 
L 1110.840662 -338.080254 
L 1110.127953 -333.853505 
L 1109.423687 -329.626757 
L 1108.764661 -325.400009 
L 1108.181414 -321.17326 
L 1107.669408 -316.946512 
L 1107.181128 -312.719763 
L 1106.701233 -308.493015 
L 1106.296022 -304.266266 
L 1106.032248 -300.039518 
L 1105.899151 -295.812769 
L 1105.83135 -291.586021 
L 1105.778071 -287.359272 
L 1105.744577 -283.132524 
L 1105.750267 -278.905775 
L 1105.757681 -274.679027 
L 1105.698405 -270.452278 
L 1105.558319 -266.22553 
L 1105.372857 -261.998782 
L 1105.14566 -257.772033 
L 1104.83689 -253.545285 
L 1104.433285 -249.318536 
L 1103.971507 -245.091788 
L 1103.492128 -240.865039 
L 1103.018114 -236.638291 
L 1102.570673 -232.411542 
L 1102.172095 -228.184794 
L 1101.83534 -223.958045 
L 1101.557617 -219.731297 
L 1101.325171 -215.504548 
L 1101.130938 -211.2778 
L 1100.980341 -207.051052 
L 1100.874983 -202.824303 
L 1100.80564 -198.597555 
L 1100.76224 -194.370806 
L 1100.737115 -190.144058 
L 1100.722245 -185.917309 
L 1100.712033 -181.690561 
L 1100.705211 -177.463812 
L 1100.701684 -173.237064 
z
" id="m4bd0ba8753" style="stroke:#3c3c3c;stroke-width:1.75;"/>
    </defs>
    <g clip-path="url(#p9d353ab03e)">
     <use style="fill:#ebf2c3;stroke:#3c3c3c;stroke-width:1.75;" x="0.0" xlink:href="#m4bd0ba8753" y="792.0"/>
    </g>
   </g>
   <g id="PolyCollection_8">
    <defs>
     <path d="M 1212.301756 -133.694017 
L 1212.298244 -133.694017 
L 1212.29533 -138.270349 
L 1212.291003 -142.84668 
L 1212.287319 -147.423011 
L 1212.286312 -151.999342 
L 1212.286419 -156.575673 
L 1212.282065 -161.152004 
L 1212.266678 -165.728335 
L 1212.233406 -170.304667 
L 1212.172995 -174.880998 
L 1212.076891 -179.457329 
L 1211.945923 -184.03366 
L 1211.789281 -188.609991 
L 1211.605395 -193.186322 
L 1211.364136 -197.762653 
L 1211.020409 -202.338985 
L 1210.550418 -206.915316 
L 1209.963629 -211.491647 
L 1209.28303 -216.067978 
L 1208.536009 -220.644309 
L 1207.763639 -225.22064 
L 1207.005809 -229.796971 
L 1206.264453 -234.373302 
L 1205.521292 -238.949634 
L 1204.799252 -243.525965 
L 1204.136226 -248.102296 
L 1203.491456 -252.678627 
L 1202.756901 -257.254958 
L 1201.851184 -261.831289 
L 1200.735487 -266.40762 
L 1199.382954 -270.983952 
L 1197.810497 -275.560283 
L 1196.105721 -280.136614 
L 1194.365014 -284.712945 
L 1192.615595 -289.289276 
L 1190.800757 -293.865607 
L 1188.836454 -298.441938 
L 1186.722344 -303.01827 
L 1184.589207 -307.594601 
L 1182.580861 -312.170932 
L 1180.693821 -316.747263 
L 1178.759173 -321.323594 
L 1176.623703 -325.899925 
L 1174.406803 -330.476256 
L 1172.518163 -335.052587 
L 1171.292249 -339.628919 
L 1170.626763 -344.20525 
L 1170.126634 -348.781581 
L 1169.589007 -353.357912 
L 1169.144342 -357.934243 
L 1168.923095 -362.510574 
L 1168.865617 -367.086905 
L 1168.925994 -371.663237 
L 1169.20844 -376.239568 
L 1169.841845 -380.815899 
L 1170.888265 -385.39223 
L 1172.337622 -389.968561 
L 1174.062053 -394.544892 
L 1175.835427 -399.121223 
L 1177.494362 -403.697554 
L 1179.082162 -408.273886 
L 1180.787508 -412.850217 
L 1182.702913 -417.426548 
L 1184.685101 -422.002879 
L 1186.514622 -426.57921 
L 1188.153925 -431.155541 
L 1189.781533 -435.731872 
L 1191.571553 -440.308204 
L 1193.47472 -444.884535 
L 1195.262501 -449.460866 
L 1196.770245 -454.037197 
L 1198.01995 -458.613528 
L 1199.133719 -463.189859 
L 1200.220039 -467.76619 
L 1201.328232 -472.342522 
L 1202.456944 -476.918853 
L 1203.595351 -481.495184 
L 1204.741743 -486.071515 
L 1205.883338 -490.647846 
L 1206.984132 -495.224177 
L 1207.984716 -499.800508 
L 1208.81433 -504.376839 
L 1209.439473 -508.953171 
L 1209.900313 -513.529502 
L 1210.282015 -518.105833 
L 1210.655791 -522.682164 
L 1211.039326 -527.258495 
L 1211.400489 -531.834826 
L 1211.698901 -536.411157 
L 1211.920626 -540.987489 
L 1212.075272 -545.56382 
L 1212.176451 -550.140151 
L 1212.235308 -554.716482 
L 1212.264235 -559.292813 
L 1212.276198 -563.869144 
L 1212.281238 -568.445475 
L 1212.285377 -573.021807 
L 1212.290456 -577.598138 
L 1212.295218 -582.174469 
L 1212.298227 -586.7508 
L 1212.301773 -586.7508 
L 1212.301773 -586.7508 
L 1212.304782 -582.174469 
L 1212.309544 -577.598138 
L 1212.314623 -573.021807 
L 1212.318762 -568.445475 
L 1212.323802 -563.869144 
L 1212.335765 -559.292813 
L 1212.364692 -554.716482 
L 1212.423549 -550.140151 
L 1212.524728 -545.56382 
L 1212.679374 -540.987489 
L 1212.901099 -536.411157 
L 1213.199511 -531.834826 
L 1213.560674 -527.258495 
L 1213.944209 -522.682164 
L 1214.317985 -518.105833 
L 1214.699687 -513.529502 
L 1215.160527 -508.953171 
L 1215.78567 -504.376839 
L 1216.615284 -499.800508 
L 1217.615868 -495.224177 
L 1218.716662 -490.647846 
L 1219.858257 -486.071515 
L 1221.004649 -481.495184 
L 1222.143056 -476.918853 
L 1223.271768 -472.342522 
L 1224.379961 -467.76619 
L 1225.466281 -463.189859 
L 1226.58005 -458.613528 
L 1227.829755 -454.037197 
L 1229.337499 -449.460866 
L 1231.12528 -444.884535 
L 1233.028447 -440.308204 
L 1234.818467 -435.731872 
L 1236.446075 -431.155541 
L 1238.085378 -426.57921 
L 1239.914899 -422.002879 
L 1241.897087 -417.426548 
L 1243.812492 -412.850217 
L 1245.517838 -408.273886 
L 1247.105638 -403.697554 
L 1248.764573 -399.121223 
L 1250.537947 -394.544892 
L 1252.262378 -389.968561 
L 1253.711735 -385.39223 
L 1254.758155 -380.815899 
L 1255.39156 -376.239568 
L 1255.674006 -371.663237 
L 1255.734383 -367.086905 
L 1255.676905 -362.510574 
L 1255.455658 -357.934243 
L 1255.010993 -353.357912 
L 1254.473366 -348.781581 
L 1253.973237 -344.20525 
L 1253.307751 -339.628919 
L 1252.081837 -335.052587 
L 1250.193197 -330.476256 
L 1247.976297 -325.899925 
L 1245.840827 -321.323594 
L 1243.906179 -316.747263 
L 1242.019139 -312.170932 
L 1240.010793 -307.594601 
L 1237.877656 -303.01827 
L 1235.763546 -298.441938 
L 1233.799243 -293.865607 
L 1231.984405 -289.289276 
L 1230.234986 -284.712945 
L 1228.494279 -280.136614 
L 1226.789503 -275.560283 
L 1225.217046 -270.983952 
L 1223.864513 -266.40762 
L 1222.748816 -261.831289 
L 1221.843099 -257.254958 
L 1221.108544 -252.678627 
L 1220.463774 -248.102296 
L 1219.800748 -243.525965 
L 1219.078708 -238.949634 
L 1218.335547 -234.373302 
L 1217.594191 -229.796971 
L 1216.836361 -225.22064 
L 1216.063991 -220.644309 
L 1215.31697 -216.067978 
L 1214.636371 -211.491647 
L 1214.049582 -206.915316 
L 1213.579591 -202.338985 
L 1213.235864 -197.762653 
L 1212.994605 -193.186322 
L 1212.810719 -188.609991 
L 1212.654077 -184.03366 
L 1212.523109 -179.457329 
L 1212.427005 -174.880998 
L 1212.366594 -170.304667 
L 1212.333322 -165.728335 
L 1212.317935 -161.152004 
L 1212.313581 -156.575673 
L 1212.313688 -151.999342 
L 1212.312681 -147.423011 
L 1212.308997 -142.84668 
L 1212.30467 -138.270349 
L 1212.301756 -133.694017 
z
" id="mf924a90475" style="stroke:#3c3c3c;stroke-width:1.75;"/>
    </defs>
    <g clip-path="url(#p9d353ab03e)">
     <use style="fill:#325c96;stroke:#3c3c3c;stroke-width:1.75;" x="0.0" xlink:href="#mf924a90475" y="792.0"/>
    </g>
   </g>
   <g id="patch_3">
    <path clip-path="url(#p9d353ab03e)" d="M 319.5 1204.5 
L 319.5 1204.5 
L 319.5 1204.5 
L 319.5 1204.5 
z
" style="fill:#ebf2c3;stroke:#3c3c3c;stroke-linejoin:miter;stroke-width:0.875;"/>
   </g>
   <g id="patch_4">
    <path clip-path="url(#p9d353ab03e)" d="M 319.5 1204.5 
L 319.5 1204.5 
L 319.5 1204.5 
L 319.5 1204.5 
z
" style="fill:#325c96;stroke:#3c3c3c;stroke-linejoin:miter;stroke-width:0.875;"/>
   </g>
   <g id="line2d_30">
    <path clip-path="url(#p9d353ab03e)" d="M 263.7 579.603099 
L 263.7 279.789418 
" style="fill:none;stroke:#3c3c3c;stroke-linecap:round;stroke-width:1.75;"/>
   </g>
   <g id="line2d_31">
    <path clip-path="url(#p9d353ab03e)" d="M 263.7 467.133217 
L 263.7 391.58625 
" style="fill:none;stroke:#3c3c3c;stroke-linecap:round;stroke-width:5.25;"/>
   </g>
   <g id="line2d_32">
    <path clip-path="url(#p9d353ab03e)" d="M 375.3 587.925914 
L 375.3 263.757326 
" style="fill:none;stroke:#3c3c3c;stroke-linecap:round;stroke-width:1.75;"/>
   </g>
   <g id="line2d_33">
    <path clip-path="url(#p9d353ab03e)" d="M 375.3 466.219543 
L 375.3 384.849089 
" style="fill:none;stroke:#3c3c3c;stroke-linecap:round;stroke-width:5.25;"/>
   </g>
   <g id="line2d_34">
    <path clip-path="url(#p9d353ab03e)" d="M 542.7 584.57054 
L 542.7 271.913762 
" style="fill:none;stroke:#3c3c3c;stroke-linecap:round;stroke-width:1.75;"/>
   </g>
   <g id="line2d_35">
    <path clip-path="url(#p9d353ab03e)" d="M 542.7 467.306831 
L 542.7 389.09706 
" style="fill:none;stroke:#3c3c3c;stroke-linecap:round;stroke-width:5.25;"/>
   </g>
   <g id="line2d_36">
    <path clip-path="url(#p9d353ab03e)" d="M 654.3 582.094741 
L 654.3 274.247504 
" style="fill:none;stroke:#3c3c3c;stroke-linecap:round;stroke-width:1.75;"/>
   </g>
   <g id="line2d_37">
    <path clip-path="url(#p9d353ab03e)" d="M 654.3 466.455871 
L 654.3 389.279575 
" style="fill:none;stroke:#3c3c3c;stroke-linecap:round;stroke-width:5.25;"/>
   </g>
   <g id="line2d_38">
    <path clip-path="url(#p9d353ab03e)" d="M 821.7 562.391716 
L 821.7 264.368688 
" style="fill:none;stroke:#3c3c3c;stroke-linecap:round;stroke-width:1.75;"/>
   </g>
   <g id="line2d_39">
    <path clip-path="url(#p9d353ab03e)" d="M 821.7 450.575162 
L 821.7 375.950028 
" style="fill:none;stroke:#3c3c3c;stroke-linecap:round;stroke-width:5.25;"/>
   </g>
   <g id="line2d_40">
    <path clip-path="url(#p9d353ab03e)" d="M 933.3 600.887693 
L 933.3 316.723927 
" style="fill:none;stroke:#3c3c3c;stroke-linecap:round;stroke-width:1.75;"/>
   </g>
   <g id="line2d_41">
    <path clip-path="url(#p9d353ab03e)" d="M 933.3 494.182862 
L 933.3 422.92505 
" style="fill:none;stroke:#3c3c3c;stroke-linecap:round;stroke-width:5.25;"/>
   </g>
   <g id="line2d_42">
    <path clip-path="url(#p9d353ab03e)" d="M 1100.7 499.986325 
L 1100.7 233.214668 
" style="fill:none;stroke:#3c3c3c;stroke-linecap:round;stroke-width:1.75;"/>
   </g>
   <g id="line2d_43">
    <path clip-path="url(#p9d353ab03e)" d="M 1100.7 399.932056 
L 1100.7 333.2123 
" style="fill:none;stroke:#3c3c3c;stroke-linecap:round;stroke-width:5.25;"/>
   </g>
   <g id="line2d_44">
    <path clip-path="url(#p9d353ab03e)" d="M 1212.3 591.482745 
L 1212.3 261.823674 
" style="fill:none;stroke:#3c3c3c;stroke-linecap:round;stroke-width:1.75;"/>
   </g>
   <g id="line2d_45">
    <path clip-path="url(#p9d353ab03e)" d="M 1212.3 467.879321 
L 1212.3 385.378392 
" style="fill:none;stroke:#3c3c3c;stroke-linecap:round;stroke-width:5.25;"/>
   </g>
   <g id="patch_5">
    <path d="M 180 693 
L 1296 693 
" style="fill:none;"/>
   </g>
   <g id="patch_6">
    <path d="M 180 693 
L 180 79.2 
" style="fill:none;"/>
   </g>
   <g id="patch_7">
    <path d="M 180 79.2 
L 1296 79.2 
" style="fill:none;"/>
   </g>
   <g id="patch_8">
    <path d="M 1296 693 
L 1296 79.2 
" style="fill:none;"/>
   </g>
   <g id="PathCollection_1">
    <defs>
     <path d="M 0 1.75 
C 0.464105 1.75 0.909265 1.565609 1.237437 1.237437 
C 1.565609 0.909265 1.75 0.464105 1.75 0 
C 1.75 -0.464105 1.565609 -0.909265 1.237437 -1.237437 
C 0.909265 -1.565609 0.464105 -1.75 0 -1.75 
C -0.464105 -1.75 -0.909265 -1.565609 -1.237437 -1.237437 
C -1.565609 -0.909265 -1.75 -0.464105 -1.75 0 
C -1.75 0.464105 -1.565609 0.909265 -1.237437 1.237437 
C -0.909265 1.565609 -0.464105 1.75 0 1.75 
z
" id="mcfe06ab161" style="stroke:#3c3c3c;stroke-width:0.3;"/>
    </defs>
    <g clip-path="url(#p9d353ab03e)">
     <use style="fill:#ffffff;stroke:#3c3c3c;stroke-width:0.3;" x="263.7" xlink:href="#mcfe06ab161" y="429.224468061"/>
    </g>
   </g>
   <g id="PathCollection_2">
    <g clip-path="url(#p9d353ab03e)">
     <use style="fill:#ffffff;stroke:#3c3c3c;stroke-width:0.3;" x="375.3" xlink:href="#mcfe06ab161" y="426.738636677"/>
    </g>
   </g>
   <g id="PathCollection_3">
    <g clip-path="url(#p9d353ab03e)">
     <use style="fill:#ffffff;stroke:#3c3c3c;stroke-width:0.3;" x="542.7" xlink:href="#mcfe06ab161" y="427.978973824"/>
    </g>
   </g>
   <g id="PathCollection_4">
    <g clip-path="url(#p9d353ab03e)">
     <use style="fill:#ffffff;stroke:#3c3c3c;stroke-width:0.3;" x="654.3" xlink:href="#mcfe06ab161" y="429.117761439"/>
    </g>
   </g>
   <g id="PathCollection_5">
    <g clip-path="url(#p9d353ab03e)">
     <use style="fill:#ffffff;stroke:#3c3c3c;stroke-width:0.3;" x="821.7" xlink:href="#mcfe06ab161" y="413.195160023"/>
    </g>
   </g>
   <g id="PathCollection_6">
    <g clip-path="url(#p9d353ab03e)">
     <use style="fill:#ffffff;stroke:#3c3c3c;stroke-width:0.3;" x="933.3" xlink:href="#mcfe06ab161" y="457.662212911"/>
    </g>
   </g>
   <g id="PathCollection_7">
    <g clip-path="url(#p9d353ab03e)">
     <use style="fill:#ffffff;stroke:#3c3c3c;stroke-width:0.3;" x="1100.7" xlink:href="#mcfe06ab161" y="365.38264616"/>
    </g>
   </g>
   <g id="PathCollection_8">
    <g clip-path="url(#p9d353ab03e)">
     <use style="fill:#ffffff;stroke:#3c3c3c;stroke-width:0.3;" x="1212.3" xlink:href="#mcfe06ab161" y="427.150394778"/>
    </g>
   </g>
   <g id="text_13">
    <!-- Unweighted UniFrac -->
    <defs>
     <path d="M 9.8125 72.90625 
L 51.703125 72.90625 
L 51.703125 64.59375 
L 19.671875 64.59375 
L 19.671875 43.109375 
L 48.578125 43.109375 
L 48.578125 34.8125 
L 19.671875 34.8125 
L 19.671875 0 
L 9.8125 0 
z
" id="BitstreamVeraSans-Roman-46"/>
     <path d="M 54.890625 33.015625 
L 54.890625 0 
L 45.90625 0 
L 45.90625 32.71875 
Q 45.90625 40.484375 42.875 44.328125 
Q 39.84375 48.1875 33.796875 48.1875 
Q 26.515625 48.1875 22.3125 43.546875 
Q 18.109375 38.921875 18.109375 30.90625 
L 18.109375 0 
L 9.078125 0 
L 9.078125 75.984375 
L 18.109375 75.984375 
L 18.109375 46.1875 
Q 21.34375 51.125 25.703125 53.5625 
Q 30.078125 56 35.796875 56 
Q 45.21875 56 50.046875 50.171875 
Q 54.890625 44.34375 54.890625 33.015625 
" id="BitstreamVeraSans-Roman-68"/>
     <path d="M 8.6875 72.90625 
L 18.609375 72.90625 
L 18.609375 28.609375 
Q 18.609375 16.890625 22.84375 11.734375 
Q 27.09375 6.59375 36.625 6.59375 
Q 46.09375 6.59375 50.34375 11.734375 
Q 54.59375 16.890625 54.59375 28.609375 
L 54.59375 72.90625 
L 64.5 72.90625 
L 64.5 27.390625 
Q 64.5 13.140625 57.4375 5.859375 
Q 50.390625 -1.421875 36.625 -1.421875 
Q 22.796875 -1.421875 15.734375 5.859375 
Q 8.6875 13.140625 8.6875 27.390625 
z
" id="BitstreamVeraSans-Roman-55"/>
     <path d="M 45.40625 27.984375 
Q 45.40625 37.75 41.375 43.109375 
Q 37.359375 48.484375 30.078125 48.484375 
Q 22.859375 48.484375 18.828125 43.109375 
Q 14.796875 37.75 14.796875 27.984375 
Q 14.796875 18.265625 18.828125 12.890625 
Q 22.859375 7.515625 30.078125 7.515625 
Q 37.359375 7.515625 41.375 12.890625 
Q 45.40625 18.265625 45.40625 27.984375 
M 54.390625 6.78125 
Q 54.390625 -7.171875 48.1875 -13.984375 
Q 42 -20.796875 29.203125 -20.796875 
Q 24.46875 -20.796875 20.265625 -20.09375 
Q 16.0625 -19.390625 12.109375 -17.921875 
L 12.109375 -9.1875 
Q 16.0625 -11.328125 19.921875 -12.34375 
Q 23.78125 -13.375 27.78125 -13.375 
Q 36.625 -13.375 41.015625 -8.765625 
Q 45.40625 -4.15625 45.40625 5.171875 
L 45.40625 9.625 
Q 42.625 4.78125 38.28125 2.390625 
Q 33.9375 0 27.875 0 
Q 17.828125 0 11.671875 7.65625 
Q 5.515625 15.328125 5.515625 27.984375 
Q 5.515625 40.671875 11.671875 48.328125 
Q 17.828125 56 27.875 56 
Q 33.9375 56 38.28125 53.609375 
Q 42.625 51.21875 45.40625 46.390625 
L 45.40625 54.6875 
L 54.390625 54.6875 
z
" id="BitstreamVeraSans-Roman-67"/>
     <path d="M 45.40625 46.390625 
L 45.40625 75.984375 
L 54.390625 75.984375 
L 54.390625 0 
L 45.40625 0 
L 45.40625 8.203125 
Q 42.578125 3.328125 38.25 0.953125 
Q 33.9375 -1.421875 27.875 -1.421875 
Q 17.96875 -1.421875 11.734375 6.484375 
Q 5.515625 14.40625 5.515625 27.296875 
Q 5.515625 40.1875 11.734375 48.09375 
Q 17.96875 56 27.875 56 
Q 33.9375 56 38.25 53.625 
Q 42.578125 51.265625 45.40625 46.390625 
M 14.796875 27.296875 
Q 14.796875 17.390625 18.875 11.75 
Q 22.953125 6.109375 30.078125 6.109375 
Q 37.203125 6.109375 41.296875 11.75 
Q 45.40625 17.390625 45.40625 27.296875 
Q 45.40625 37.203125 41.296875 42.84375 
Q 37.203125 48.484375 30.078125 48.484375 
Q 22.953125 48.484375 18.875 42.84375 
Q 14.796875 37.203125 14.796875 27.296875 
" id="BitstreamVeraSans-Roman-64"/>
    </defs>
    <g style="fill:#262626;" transform="translate(586.55390625 74.2)scale(0.3 -0.3)">
     <use xlink:href="#BitstreamVeraSans-Roman-55"/>
     <use x="73.193359375" xlink:href="#BitstreamVeraSans-Roman-6e"/>
     <use x="136.572265625" xlink:href="#BitstreamVeraSans-Roman-77"/>
     <use x="218.359375" xlink:href="#BitstreamVeraSans-Roman-65"/>
     <use x="279.8828125" xlink:href="#BitstreamVeraSans-Roman-69"/>
     <use x="307.666015625" xlink:href="#BitstreamVeraSans-Roman-67"/>
     <use x="371.142578125" xlink:href="#BitstreamVeraSans-Roman-68"/>
     <use x="434.521484375" xlink:href="#BitstreamVeraSans-Roman-74"/>
     <use x="473.73046875" xlink:href="#BitstreamVeraSans-Roman-65"/>
     <use x="535.25390625" xlink:href="#BitstreamVeraSans-Roman-64"/>
     <use x="598.73046875" xlink:href="#BitstreamVeraSans-Roman-20"/>
     <use x="630.517578125" xlink:href="#BitstreamVeraSans-Roman-55"/>
     <use x="703.7109375" xlink:href="#BitstreamVeraSans-Roman-6e"/>
     <use x="767.08984375" xlink:href="#BitstreamVeraSans-Roman-69"/>
     <use x="794.873046875" xlink:href="#BitstreamVeraSans-Roman-46"/>
     <use x="852.283203125" xlink:href="#BitstreamVeraSans-Roman-72"/>
     <use x="893.396484375" xlink:href="#BitstreamVeraSans-Roman-61"/>
     <use x="954.67578125" xlink:href="#BitstreamVeraSans-Roman-63"/>
    </g>
   </g>
   <g id="legend_1">
    <g id="patch_9">
     <path d="M 1094.109375 120.696094 
L 1144.109375 120.696094 
L 1144.109375 103.196094 
L 1094.109375 103.196094 
z
" style="fill:#ebf2c3;stroke:#3c3c3c;stroke-linejoin:miter;stroke-width:0.875;"/>
    </g>
    <g id="text_14">
     <!-- Between -->
     <defs>
      <path d="M 19.671875 34.8125 
L 19.671875 8.109375 
L 35.5 8.109375 
Q 43.453125 8.109375 47.28125 11.40625 
Q 51.125 14.703125 51.125 21.484375 
Q 51.125 28.328125 47.28125 31.5625 
Q 43.453125 34.8125 35.5 34.8125 
z
M 19.671875 64.796875 
L 19.671875 42.828125 
L 34.28125 42.828125 
Q 41.5 42.828125 45.03125 45.53125 
Q 48.578125 48.25 48.578125 53.8125 
Q 48.578125 59.328125 45.03125 62.0625 
Q 41.5 64.796875 34.28125 64.796875 
z
M 9.8125 72.90625 
L 35.015625 72.90625 
Q 46.296875 72.90625 52.390625 68.21875 
Q 58.5 63.53125 58.5 54.890625 
Q 58.5 48.1875 55.375 44.234375 
Q 52.25 40.28125 46.1875 39.3125 
Q 53.46875 37.75 57.5 32.78125 
Q 61.53125 27.828125 61.53125 20.40625 
Q 61.53125 10.640625 54.890625 5.3125 
Q 48.25 0 35.984375 0 
L 9.8125 0 
z
" id="BitstreamVeraSans-Roman-42"/>
     </defs>
     <g style="fill:#262626;" transform="translate(1164.109375 120.69609375)scale(0.25 -0.25)">
      <use xlink:href="#BitstreamVeraSans-Roman-42"/>
      <use x="68.603515625" xlink:href="#BitstreamVeraSans-Roman-65"/>
      <use x="130.126953125" xlink:href="#BitstreamVeraSans-Roman-74"/>
      <use x="169.3359375" xlink:href="#BitstreamVeraSans-Roman-77"/>
      <use x="251.123046875" xlink:href="#BitstreamVeraSans-Roman-65"/>
      <use x="312.646484375" xlink:href="#BitstreamVeraSans-Roman-65"/>
      <use x="374.169921875" xlink:href="#BitstreamVeraSans-Roman-6e"/>
     </g>
    </g>
    <g id="patch_10">
     <path d="M 1094.109375 157.391406 
L 1144.109375 157.391406 
L 1144.109375 139.891406 
L 1094.109375 139.891406 
z
" style="fill:#325c96;stroke:#3c3c3c;stroke-linejoin:miter;stroke-width:0.875;"/>
    </g>
    <g id="text_15">
     <!-- Within -->
     <defs>
      <path d="M 3.328125 72.90625 
L 13.28125 72.90625 
L 28.609375 11.28125 
L 43.890625 72.90625 
L 54.984375 72.90625 
L 70.3125 11.28125 
L 85.59375 72.90625 
L 95.609375 72.90625 
L 77.296875 0 
L 64.890625 0 
L 49.515625 63.28125 
L 33.984375 0 
L 21.578125 0 
z
" id="BitstreamVeraSans-Roman-57"/>
     </defs>
     <g style="fill:#262626;" transform="translate(1164.109375 157.39140625)scale(0.25 -0.25)">
      <use xlink:href="#BitstreamVeraSans-Roman-57"/>
      <use x="98.845703125" xlink:href="#BitstreamVeraSans-Roman-69"/>
      <use x="126.62890625" xlink:href="#BitstreamVeraSans-Roman-74"/>
      <use x="165.837890625" xlink:href="#BitstreamVeraSans-Roman-68"/>
      <use x="229.216796875" xlink:href="#BitstreamVeraSans-Roman-69"/>
      <use x="257.0" xlink:href="#BitstreamVeraSans-Roman-6e"/>
     </g>
    </g>
   </g>
  </g>
 </g>
 <defs>
  <clipPath id="p9d353ab03e">
   <rect height="613.8" width="1116.0" x="180.0" y="79.2"/>
  </clipPath>
 </defs>
</svg>
