<?xml version="1.0" encoding="utf-8" standalone="no"?>
<!DOCTYPE svg PUBLIC "-//W3C//DTD SVG 1.1//EN"
  "http://www.w3.org/Graphics/SVG/1.1/DTD/svg11.dtd">
<!-- Created with matplotlib (http://matplotlib.org/) -->
<svg height="792pt" version="1.1" viewBox="0 0 1440 792" width="1440pt" xmlns="http://www.w3.org/2000/svg" xmlns:xlink="http://www.w3.org/1999/xlink">
 <defs>
  <style type="text/css">
*{stroke-linecap:butt;stroke-linejoin:round;stroke-miterlimit:100000;}
  </style>
 </defs>
 <g id="figure_1">
  <g id="patch_1">
   <path d="M 0 792 
L 1440 792 
L 1440 0 
L 0 0 
z
" style="fill:#ffffff;"/>
  </g>
  <g id="axes_1">
   <g id="patch_2">
    <path d="M 180 693 
L 1296 693 
L 1296 79.2 
L 180 79.2 
z
" style="fill:#eaeaf2;"/>
   </g>
   <g id="matplotlib.axis_1">
    <g id="xtick_1">
     <g id="line2d_1">
      <defs>
       <path d="M 0 0 
L 0 0 
" id="m703b6b31b7" style="stroke:#262626;"/>
      </defs>
      <g>
       <use style="fill:#262626;stroke:#262626;" x="319.5" xlink:href="#m703b6b31b7" y="693.0"/>
      </g>
     </g>
     <g id="line2d_2">
      <g>
       <use style="fill:#262626;stroke:#262626;" x="319.5" xlink:href="#m703b6b31b7" y="79.2"/>
      </g>
     </g>
     <g id="text_1">
      <!-- Material (n=198) -->
      <defs>
       <path d="M 31.78125 34.625 
Q 24.75 34.625 20.71875 30.859375 
Q 16.703125 27.09375 16.703125 20.515625 
Q 16.703125 13.921875 20.71875 10.15625 
Q 24.75 6.390625 31.78125 6.390625 
Q 38.8125 6.390625 42.859375 10.171875 
Q 46.921875 13.96875 46.921875 20.515625 
Q 46.921875 27.09375 42.890625 30.859375 
Q 38.875 34.625 31.78125 34.625 
M 21.921875 38.8125 
Q 15.578125 40.375 12.03125 44.71875 
Q 8.5 49.078125 8.5 55.328125 
Q 8.5 64.0625 14.71875 69.140625 
Q 20.953125 74.21875 31.78125 74.21875 
Q 42.671875 74.21875 48.875 69.140625 
Q 55.078125 64.0625 55.078125 55.328125 
Q 55.078125 49.078125 51.53125 44.71875 
Q 48 40.375 41.703125 38.8125 
Q 48.828125 37.15625 52.796875 32.3125 
Q 56.78125 27.484375 56.78125 20.515625 
Q 56.78125 9.90625 50.3125 4.234375 
Q 43.84375 -1.421875 31.78125 -1.421875 
Q 19.734375 -1.421875 13.25 4.234375 
Q 6.78125 9.90625 6.78125 20.515625 
Q 6.78125 27.484375 10.78125 32.3125 
Q 14.796875 37.15625 21.921875 38.8125 
M 18.3125 54.390625 
Q 18.3125 48.734375 21.84375 45.5625 
Q 25.390625 42.390625 31.78125 42.390625 
Q 38.140625 42.390625 41.71875 45.5625 
Q 45.3125 48.734375 45.3125 54.390625 
Q 45.3125 60.0625 41.71875 63.234375 
Q 38.140625 66.40625 31.78125 66.40625 
Q 25.390625 66.40625 21.84375 63.234375 
Q 18.3125 60.0625 18.3125 54.390625 
" id="BitstreamVeraSans-Roman-38"/>
       <path d="M 56.203125 29.59375 
L 56.203125 25.203125 
L 14.890625 25.203125 
Q 15.484375 15.921875 20.484375 11.0625 
Q 25.484375 6.203125 34.421875 6.203125 
Q 39.59375 6.203125 44.453125 7.46875 
Q 49.3125 8.734375 54.109375 11.28125 
L 54.109375 2.78125 
Q 49.265625 0.734375 44.1875 -0.34375 
Q 39.109375 -1.421875 33.890625 -1.421875 
Q 20.796875 -1.421875 13.15625 6.1875 
Q 5.515625 13.8125 5.515625 26.8125 
Q 5.515625 40.234375 12.765625 48.109375 
Q 20.015625 56 32.328125 56 
Q 43.359375 56 49.78125 48.890625 
Q 56.203125 41.796875 56.203125 29.59375 
M 47.21875 32.234375 
Q 47.125 39.59375 43.09375 43.984375 
Q 39.0625 48.390625 32.421875 48.390625 
Q 24.90625 48.390625 20.390625 44.140625 
Q 15.875 39.890625 15.1875 32.171875 
z
" id="BitstreamVeraSans-Roman-65"/>
       <path d="M 54.890625 33.015625 
L 54.890625 0 
L 45.90625 0 
L 45.90625 32.71875 
Q 45.90625 40.484375 42.875 44.328125 
Q 39.84375 48.1875 33.796875 48.1875 
Q 26.515625 48.1875 22.3125 43.546875 
Q 18.109375 38.921875 18.109375 30.90625 
L 18.109375 0 
L 9.078125 0 
L 9.078125 54.6875 
L 18.109375 54.6875 
L 18.109375 46.1875 
Q 21.34375 51.125 25.703125 53.5625 
Q 30.078125 56 35.796875 56 
Q 45.21875 56 50.046875 50.171875 
Q 54.890625 44.34375 54.890625 33.015625 
" id="BitstreamVeraSans-Roman-6e"/>
       <path d="M 31 75.875 
Q 24.46875 64.65625 21.28125 53.65625 
Q 18.109375 42.671875 18.109375 31.390625 
Q 18.109375 20.125 21.3125 9.0625 
Q 24.515625 -2 31 -13.1875 
L 23.1875 -13.1875 
Q 15.875 -1.703125 12.234375 9.375 
Q 8.59375 20.453125 8.59375 31.390625 
Q 8.59375 42.28125 12.203125 53.3125 
Q 15.828125 64.359375 23.1875 75.875 
z
" id="BitstreamVeraSans-Roman-28"/>
       <path d="M 9.421875 75.984375 
L 18.40625 75.984375 
L 18.40625 0 
L 9.421875 0 
z
" id="BitstreamVeraSans-Roman-6c"/>
       <path d="M 10.984375 1.515625 
L 10.984375 10.5 
Q 14.703125 8.734375 18.5 7.8125 
Q 22.3125 6.890625 25.984375 6.890625 
Q 35.75 6.890625 40.890625 13.453125 
Q 46.046875 20.015625 46.78125 33.40625 
Q 43.953125 29.203125 39.59375 26.953125 
Q 35.25 24.703125 29.984375 24.703125 
Q 19.046875 24.703125 12.671875 31.3125 
Q 6.296875 37.9375 6.296875 49.421875 
Q 6.296875 60.640625 12.9375 67.421875 
Q 19.578125 74.21875 30.609375 74.21875 
Q 43.265625 74.21875 49.921875 64.515625 
Q 56.59375 54.828125 56.59375 36.375 
Q 56.59375 19.140625 48.40625 8.859375 
Q 40.234375 -1.421875 26.421875 -1.421875 
Q 22.703125 -1.421875 18.890625 -0.6875 
Q 15.09375 0.046875 10.984375 1.515625 
M 30.609375 32.421875 
Q 37.25 32.421875 41.125 36.953125 
Q 45.015625 41.5 45.015625 49.421875 
Q 45.015625 57.28125 41.125 61.84375 
Q 37.25 66.40625 30.609375 66.40625 
Q 23.96875 66.40625 20.09375 61.84375 
Q 16.21875 57.28125 16.21875 49.421875 
Q 16.21875 41.5 20.09375 36.953125 
Q 23.96875 32.421875 30.609375 32.421875 
" id="BitstreamVeraSans-Roman-39"/>
       <path id="BitstreamVeraSans-Roman-20"/>
       <path d="M 9.421875 54.6875 
L 18.40625 54.6875 
L 18.40625 0 
L 9.421875 0 
z
M 9.421875 75.984375 
L 18.40625 75.984375 
L 18.40625 64.59375 
L 9.421875 64.59375 
z
" id="BitstreamVeraSans-Roman-69"/>
       <path d="M 34.28125 27.484375 
Q 23.390625 27.484375 19.1875 25 
Q 14.984375 22.515625 14.984375 16.5 
Q 14.984375 11.71875 18.140625 8.90625 
Q 21.296875 6.109375 26.703125 6.109375 
Q 34.1875 6.109375 38.703125 11.40625 
Q 43.21875 16.703125 43.21875 25.484375 
L 43.21875 27.484375 
z
M 52.203125 31.203125 
L 52.203125 0 
L 43.21875 0 
L 43.21875 8.296875 
Q 40.140625 3.328125 35.546875 0.953125 
Q 30.953125 -1.421875 24.3125 -1.421875 
Q 15.921875 -1.421875 10.953125 3.296875 
Q 6 8.015625 6 15.921875 
Q 6 25.140625 12.171875 29.828125 
Q 18.359375 34.515625 30.609375 34.515625 
L 43.21875 34.515625 
L 43.21875 35.40625 
Q 43.21875 41.609375 39.140625 45 
Q 35.0625 48.390625 27.6875 48.390625 
Q 23 48.390625 18.546875 47.265625 
Q 14.109375 46.140625 10.015625 43.890625 
L 10.015625 52.203125 
Q 14.9375 54.109375 19.578125 55.046875 
Q 24.21875 56 28.609375 56 
Q 40.484375 56 46.34375 49.84375 
Q 52.203125 43.703125 52.203125 31.203125 
" id="BitstreamVeraSans-Roman-61"/>
       <path d="M 41.109375 46.296875 
Q 39.59375 47.171875 37.8125 47.578125 
Q 36.03125 48 33.890625 48 
Q 26.265625 48 22.1875 43.046875 
Q 18.109375 38.09375 18.109375 28.8125 
L 18.109375 0 
L 9.078125 0 
L 9.078125 54.6875 
L 18.109375 54.6875 
L 18.109375 46.1875 
Q 20.953125 51.171875 25.484375 53.578125 
Q 30.03125 56 36.53125 56 
Q 37.453125 56 38.578125 55.875 
Q 39.703125 55.765625 41.0625 55.515625 
z
" id="BitstreamVeraSans-Roman-72"/>
       <path d="M 12.40625 8.296875 
L 28.515625 8.296875 
L 28.515625 63.921875 
L 10.984375 60.40625 
L 10.984375 69.390625 
L 28.421875 72.90625 
L 38.28125 72.90625 
L 38.28125 8.296875 
L 54.390625 8.296875 
L 54.390625 0 
L 12.40625 0 
z
" id="BitstreamVeraSans-Roman-31"/>
       <path d="M 9.8125 72.90625 
L 24.515625 72.90625 
L 43.109375 23.296875 
L 61.8125 72.90625 
L 76.515625 72.90625 
L 76.515625 0 
L 66.890625 0 
L 66.890625 64.015625 
L 48.09375 14.015625 
L 38.1875 14.015625 
L 19.390625 64.015625 
L 19.390625 0 
L 9.8125 0 
z
" id="BitstreamVeraSans-Roman-4d"/>
       <path d="M 10.59375 45.40625 
L 73.1875 45.40625 
L 73.1875 37.203125 
L 10.59375 37.203125 
z
M 10.59375 25.484375 
L 73.1875 25.484375 
L 73.1875 17.1875 
L 10.59375 17.1875 
z
" id="BitstreamVeraSans-Roman-3d"/>
       <path d="M 18.3125 70.21875 
L 18.3125 54.6875 
L 36.8125 54.6875 
L 36.8125 47.703125 
L 18.3125 47.703125 
L 18.3125 18.015625 
Q 18.3125 11.328125 20.140625 9.421875 
Q 21.96875 7.515625 27.59375 7.515625 
L 36.8125 7.515625 
L 36.8125 0 
L 27.59375 0 
Q 17.1875 0 13.234375 3.875 
Q 9.28125 7.765625 9.28125 18.015625 
L 9.28125 47.703125 
L 2.6875 47.703125 
L 2.6875 54.6875 
L 9.28125 54.6875 
L 9.28125 70.21875 
z
" id="BitstreamVeraSans-Roman-74"/>
       <path d="M 8.015625 75.875 
L 15.828125 75.875 
Q 23.140625 64.359375 26.78125 53.3125 
Q 30.421875 42.28125 30.421875 31.390625 
Q 30.421875 20.453125 26.78125 9.375 
Q 23.140625 -1.703125 15.828125 -13.1875 
L 8.015625 -13.1875 
Q 14.5 -2 17.703125 9.0625 
Q 20.90625 20.125 20.90625 31.390625 
Q 20.90625 42.671875 17.703125 53.65625 
Q 14.5 64.65625 8.015625 75.875 
" id="BitstreamVeraSans-Roman-29"/>
      </defs>
      <g style="fill:#262626;" transform="translate(242.63015625 713.6771875)scale(0.18 -0.18)">
       <use xlink:href="#BitstreamVeraSans-Roman-4d"/>
       <use x="86.279296875" xlink:href="#BitstreamVeraSans-Roman-61"/>
       <use x="147.55859375" xlink:href="#BitstreamVeraSans-Roman-74"/>
       <use x="186.767578125" xlink:href="#BitstreamVeraSans-Roman-65"/>
       <use x="248.291015625" xlink:href="#BitstreamVeraSans-Roman-72"/>
       <use x="289.404296875" xlink:href="#BitstreamVeraSans-Roman-69"/>
       <use x="317.1875" xlink:href="#BitstreamVeraSans-Roman-61"/>
       <use x="378.466796875" xlink:href="#BitstreamVeraSans-Roman-6c"/>
       <use x="406.25" xlink:href="#BitstreamVeraSans-Roman-20"/>
       <use x="438.037109375" xlink:href="#BitstreamVeraSans-Roman-28"/>
       <use x="477.05078125" xlink:href="#BitstreamVeraSans-Roman-6e"/>
       <use x="540.4296875" xlink:href="#BitstreamVeraSans-Roman-3d"/>
       <use x="624.21875" xlink:href="#BitstreamVeraSans-Roman-31"/>
       <use x="687.841796875" xlink:href="#BitstreamVeraSans-Roman-39"/>
       <use x="751.46484375" xlink:href="#BitstreamVeraSans-Roman-38"/>
       <use x="815.087890625" xlink:href="#BitstreamVeraSans-Roman-29"/>
      </g>
     </g>
    </g>
    <g id="xtick_2">
     <g id="line2d_3">
      <g>
       <use style="fill:#262626;stroke:#262626;" x="598.5" xlink:href="#m703b6b31b7" y="693.0"/>
      </g>
     </g>
     <g id="line2d_4">
      <g>
       <use style="fill:#262626;stroke:#262626;" x="598.5" xlink:href="#m703b6b31b7" y="79.2"/>
      </g>
     </g>
     <g id="text_2">
      <!-- Row (n=198) -->
      <defs>
       <path d="M 4.203125 54.6875 
L 13.1875 54.6875 
L 24.421875 12.015625 
L 35.59375 54.6875 
L 46.1875 54.6875 
L 57.421875 12.015625 
L 68.609375 54.6875 
L 77.59375 54.6875 
L 63.28125 0 
L 52.6875 0 
L 40.921875 44.828125 
L 29.109375 0 
L 18.5 0 
z
" id="BitstreamVeraSans-Roman-77"/>
       <path d="M 30.609375 48.390625 
Q 23.390625 48.390625 19.1875 42.75 
Q 14.984375 37.109375 14.984375 27.296875 
Q 14.984375 17.484375 19.15625 11.84375 
Q 23.34375 6.203125 30.609375 6.203125 
Q 37.796875 6.203125 41.984375 11.859375 
Q 46.1875 17.53125 46.1875 27.296875 
Q 46.1875 37.015625 41.984375 42.703125 
Q 37.796875 48.390625 30.609375 48.390625 
M 30.609375 56 
Q 42.328125 56 49.015625 48.375 
Q 55.71875 40.765625 55.71875 27.296875 
Q 55.71875 13.875 49.015625 6.21875 
Q 42.328125 -1.421875 30.609375 -1.421875 
Q 18.84375 -1.421875 12.171875 6.21875 
Q 5.515625 13.875 5.515625 27.296875 
Q 5.515625 40.765625 12.171875 48.375 
Q 18.84375 56 30.609375 56 
" id="BitstreamVeraSans-Roman-6f"/>
       <path d="M 44.390625 34.1875 
Q 47.5625 33.109375 50.5625 29.59375 
Q 53.5625 26.078125 56.59375 19.921875 
L 66.609375 0 
L 56 0 
L 46.6875 18.703125 
Q 43.0625 26.03125 39.671875 28.421875 
Q 36.28125 30.8125 30.421875 30.8125 
L 19.671875 30.8125 
L 19.671875 0 
L 9.8125 0 
L 9.8125 72.90625 
L 32.078125 72.90625 
Q 44.578125 72.90625 50.734375 67.671875 
Q 56.890625 62.453125 56.890625 51.90625 
Q 56.890625 45.015625 53.6875 40.46875 
Q 50.484375 35.9375 44.390625 34.1875 
M 19.671875 64.796875 
L 19.671875 38.921875 
L 32.078125 38.921875 
Q 39.203125 38.921875 42.84375 42.21875 
Q 46.484375 45.515625 46.484375 51.90625 
Q 46.484375 58.296875 42.84375 61.546875 
Q 39.203125 64.796875 32.078125 64.796875 
z
" id="BitstreamVeraSans-Roman-52"/>
      </defs>
      <g style="fill:#262626;" transform="translate(539.0775 713.6771875)scale(0.18 -0.18)">
       <use xlink:href="#BitstreamVeraSans-Roman-52"/>
       <use x="69.419921875" xlink:href="#BitstreamVeraSans-Roman-6f"/>
       <use x="130.6015625" xlink:href="#BitstreamVeraSans-Roman-77"/>
       <use x="212.388671875" xlink:href="#BitstreamVeraSans-Roman-20"/>
       <use x="244.17578125" xlink:href="#BitstreamVeraSans-Roman-28"/>
       <use x="283.189453125" xlink:href="#BitstreamVeraSans-Roman-6e"/>
       <use x="346.568359375" xlink:href="#BitstreamVeraSans-Roman-3d"/>
       <use x="430.357421875" xlink:href="#BitstreamVeraSans-Roman-31"/>
       <use x="493.98046875" xlink:href="#BitstreamVeraSans-Roman-39"/>
       <use x="557.603515625" xlink:href="#BitstreamVeraSans-Roman-38"/>
       <use x="621.2265625" xlink:href="#BitstreamVeraSans-Roman-29"/>
      </g>
     </g>
    </g>
    <g id="xtick_3">
     <g id="line2d_5">
      <g>
       <use style="fill:#262626;stroke:#262626;" x="877.5" xlink:href="#m703b6b31b7" y="693.0"/>
      </g>
     </g>
     <g id="line2d_6">
      <g>
       <use style="fill:#262626;stroke:#262626;" x="877.5" xlink:href="#m703b6b31b7" y="79.2"/>
      </g>
     </g>
     <g id="text_3">
      <!-- Plate Location (n=198) -->
      <defs>
       <path d="M 48.78125 52.59375 
L 48.78125 44.1875 
Q 44.96875 46.296875 41.140625 47.34375 
Q 37.3125 48.390625 33.40625 48.390625 
Q 24.65625 48.390625 19.8125 42.84375 
Q 14.984375 37.3125 14.984375 27.296875 
Q 14.984375 17.28125 19.8125 11.734375 
Q 24.65625 6.203125 33.40625 6.203125 
Q 37.3125 6.203125 41.140625 7.25 
Q 44.96875 8.296875 48.78125 10.40625 
L 48.78125 2.09375 
Q 45.015625 0.34375 40.984375 -0.53125 
Q 36.96875 -1.421875 32.421875 -1.421875 
Q 20.0625 -1.421875 12.78125 6.34375 
Q 5.515625 14.109375 5.515625 27.296875 
Q 5.515625 40.671875 12.859375 48.328125 
Q 20.21875 56 33.015625 56 
Q 37.15625 56 41.109375 55.140625 
Q 45.0625 54.296875 48.78125 52.59375 
" id="BitstreamVeraSans-Roman-63"/>
       <path d="M 9.8125 72.90625 
L 19.671875 72.90625 
L 19.671875 8.296875 
L 55.171875 8.296875 
L 55.171875 0 
L 9.8125 0 
z
" id="BitstreamVeraSans-Roman-4c"/>
       <path d="M 19.671875 64.796875 
L 19.671875 37.40625 
L 32.078125 37.40625 
Q 38.96875 37.40625 42.71875 40.96875 
Q 46.484375 44.53125 46.484375 51.125 
Q 46.484375 57.671875 42.71875 61.234375 
Q 38.96875 64.796875 32.078125 64.796875 
z
M 9.8125 72.90625 
L 32.078125 72.90625 
Q 44.34375 72.90625 50.609375 67.359375 
Q 56.890625 61.8125 56.890625 51.125 
Q 56.890625 40.328125 50.609375 34.8125 
Q 44.34375 29.296875 32.078125 29.296875 
L 19.671875 29.296875 
L 19.671875 0 
L 9.8125 0 
z
" id="BitstreamVeraSans-Roman-50"/>
      </defs>
      <g style="fill:#262626;" transform="translate(773.600625 713.6771875)scale(0.18 -0.18)">
       <use xlink:href="#BitstreamVeraSans-Roman-50"/>
       <use x="60.302734375" xlink:href="#BitstreamVeraSans-Roman-6c"/>
       <use x="88.0859375" xlink:href="#BitstreamVeraSans-Roman-61"/>
       <use x="149.365234375" xlink:href="#BitstreamVeraSans-Roman-74"/>
       <use x="188.57421875" xlink:href="#BitstreamVeraSans-Roman-65"/>
       <use x="250.09765625" xlink:href="#BitstreamVeraSans-Roman-20"/>
       <use x="281.884765625" xlink:href="#BitstreamVeraSans-Roman-4c"/>
       <use x="337.58203125" xlink:href="#BitstreamVeraSans-Roman-6f"/>
       <use x="398.763671875" xlink:href="#BitstreamVeraSans-Roman-63"/>
       <use x="453.744140625" xlink:href="#BitstreamVeraSans-Roman-61"/>
       <use x="515.0234375" xlink:href="#BitstreamVeraSans-Roman-74"/>
       <use x="554.232421875" xlink:href="#BitstreamVeraSans-Roman-69"/>
       <use x="582.015625" xlink:href="#BitstreamVeraSans-Roman-6f"/>
       <use x="643.197265625" xlink:href="#BitstreamVeraSans-Roman-6e"/>
       <use x="706.576171875" xlink:href="#BitstreamVeraSans-Roman-20"/>
       <use x="738.36328125" xlink:href="#BitstreamVeraSans-Roman-28"/>
       <use x="777.376953125" xlink:href="#BitstreamVeraSans-Roman-6e"/>
       <use x="840.755859375" xlink:href="#BitstreamVeraSans-Roman-3d"/>
       <use x="924.544921875" xlink:href="#BitstreamVeraSans-Roman-31"/>
       <use x="988.16796875" xlink:href="#BitstreamVeraSans-Roman-39"/>
       <use x="1051.791015625" xlink:href="#BitstreamVeraSans-Roman-38"/>
       <use x="1115.4140625" xlink:href="#BitstreamVeraSans-Roman-29"/>
      </g>
     </g>
    </g>
    <g id="xtick_4">
     <g id="line2d_7">
      <g>
       <use style="fill:#262626;stroke:#262626;" x="1156.5" xlink:href="#m703b6b31b7" y="693.0"/>
      </g>
     </g>
     <g id="line2d_8">
      <g>
       <use style="fill:#262626;stroke:#262626;" x="1156.5" xlink:href="#m703b6b31b7" y="79.2"/>
      </g>
     </g>
     <g id="text_4">
      <!-- Run (n=357) -->
      <defs>
       <path d="M 40.578125 39.3125 
Q 47.65625 37.796875 51.625 33 
Q 55.609375 28.21875 55.609375 21.1875 
Q 55.609375 10.40625 48.1875 4.484375 
Q 40.765625 -1.421875 27.09375 -1.421875 
Q 22.515625 -1.421875 17.65625 -0.515625 
Q 12.796875 0.390625 7.625 2.203125 
L 7.625 11.71875 
Q 11.71875 9.328125 16.59375 8.109375 
Q 21.484375 6.890625 26.8125 6.890625 
Q 36.078125 6.890625 40.9375 10.546875 
Q 45.796875 14.203125 45.796875 21.1875 
Q 45.796875 27.640625 41.28125 31.265625 
Q 36.765625 34.90625 28.71875 34.90625 
L 20.21875 34.90625 
L 20.21875 43.015625 
L 29.109375 43.015625 
Q 36.375 43.015625 40.234375 45.921875 
Q 44.09375 48.828125 44.09375 54.296875 
Q 44.09375 59.90625 40.109375 62.90625 
Q 36.140625 65.921875 28.71875 65.921875 
Q 24.65625 65.921875 20.015625 65.03125 
Q 15.375 64.15625 9.8125 62.3125 
L 9.8125 71.09375 
Q 15.4375 72.65625 20.34375 73.4375 
Q 25.25 74.21875 29.59375 74.21875 
Q 40.828125 74.21875 47.359375 69.109375 
Q 53.90625 64.015625 53.90625 55.328125 
Q 53.90625 49.265625 50.4375 45.09375 
Q 46.96875 40.921875 40.578125 39.3125 
" id="BitstreamVeraSans-Roman-33"/>
       <path d="M 10.796875 72.90625 
L 49.515625 72.90625 
L 49.515625 64.59375 
L 19.828125 64.59375 
L 19.828125 46.734375 
Q 21.96875 47.46875 24.109375 47.828125 
Q 26.265625 48.1875 28.421875 48.1875 
Q 40.625 48.1875 47.75 41.5 
Q 54.890625 34.8125 54.890625 23.390625 
Q 54.890625 11.625 47.5625 5.09375 
Q 40.234375 -1.421875 26.90625 -1.421875 
Q 22.3125 -1.421875 17.546875 -0.640625 
Q 12.796875 0.140625 7.71875 1.703125 
L 7.71875 11.625 
Q 12.109375 9.234375 16.796875 8.0625 
Q 21.484375 6.890625 26.703125 6.890625 
Q 35.15625 6.890625 40.078125 11.328125 
Q 45.015625 15.765625 45.015625 23.390625 
Q 45.015625 31 40.078125 35.4375 
Q 35.15625 39.890625 26.703125 39.890625 
Q 22.75 39.890625 18.8125 39.015625 
Q 14.890625 38.140625 10.796875 36.28125 
z
" id="BitstreamVeraSans-Roman-35"/>
       <path d="M 8.5 21.578125 
L 8.5 54.6875 
L 17.484375 54.6875 
L 17.484375 21.921875 
Q 17.484375 14.15625 20.5 10.265625 
Q 23.53125 6.390625 29.59375 6.390625 
Q 36.859375 6.390625 41.078125 11.03125 
Q 45.3125 15.671875 45.3125 23.6875 
L 45.3125 54.6875 
L 54.296875 54.6875 
L 54.296875 0 
L 45.3125 0 
L 45.3125 8.40625 
Q 42.046875 3.421875 37.71875 1 
Q 33.40625 -1.421875 27.6875 -1.421875 
Q 18.265625 -1.421875 13.375 4.4375 
Q 8.5 10.296875 8.5 21.578125 
" id="BitstreamVeraSans-Roman-75"/>
       <path d="M 8.203125 72.90625 
L 55.078125 72.90625 
L 55.078125 68.703125 
L 28.609375 0 
L 18.3125 0 
L 43.21875 64.59375 
L 8.203125 64.59375 
z
" id="BitstreamVeraSans-Roman-37"/>
      </defs>
      <g style="fill:#262626;" transform="translate(1098.5371875 713.6771875)scale(0.18 -0.18)">
       <use xlink:href="#BitstreamVeraSans-Roman-52"/>
       <use x="69.419921875" xlink:href="#BitstreamVeraSans-Roman-75"/>
       <use x="132.798828125" xlink:href="#BitstreamVeraSans-Roman-6e"/>
       <use x="196.177734375" xlink:href="#BitstreamVeraSans-Roman-20"/>
       <use x="227.96484375" xlink:href="#BitstreamVeraSans-Roman-28"/>
       <use x="266.978515625" xlink:href="#BitstreamVeraSans-Roman-6e"/>
       <use x="330.357421875" xlink:href="#BitstreamVeraSans-Roman-3d"/>
       <use x="414.146484375" xlink:href="#BitstreamVeraSans-Roman-33"/>
       <use x="477.76953125" xlink:href="#BitstreamVeraSans-Roman-35"/>
       <use x="541.392578125" xlink:href="#BitstreamVeraSans-Roman-37"/>
       <use x="605.015625" xlink:href="#BitstreamVeraSans-Roman-29"/>
      </g>
     </g>
    </g>
    <g id="text_5">
     <!-- Category -->
     <defs>
      <path d="M 32.171875 -5.078125 
Q 28.375 -14.84375 24.75 -17.8125 
Q 21.140625 -20.796875 15.09375 -20.796875 
L 7.90625 -20.796875 
L 7.90625 -13.28125 
L 13.1875 -13.28125 
Q 16.890625 -13.28125 18.9375 -11.515625 
Q 21 -9.765625 23.484375 -3.21875 
L 25.09375 0.875 
L 2.984375 54.6875 
L 12.5 54.6875 
L 29.59375 11.921875 
L 46.6875 54.6875 
L 56.203125 54.6875 
z
" id="BitstreamVeraSans-Roman-79"/>
      <path d="M 45.40625 27.984375 
Q 45.40625 37.75 41.375 43.109375 
Q 37.359375 48.484375 30.078125 48.484375 
Q 22.859375 48.484375 18.828125 43.109375 
Q 14.796875 37.75 14.796875 27.984375 
Q 14.796875 18.265625 18.828125 12.890625 
Q 22.859375 7.515625 30.078125 7.515625 
Q 37.359375 7.515625 41.375 12.890625 
Q 45.40625 18.265625 45.40625 27.984375 
M 54.390625 6.78125 
Q 54.390625 -7.171875 48.1875 -13.984375 
Q 42 -20.796875 29.203125 -20.796875 
Q 24.46875 -20.796875 20.265625 -20.09375 
Q 16.0625 -19.390625 12.109375 -17.921875 
L 12.109375 -9.1875 
Q 16.0625 -11.328125 19.921875 -12.34375 
Q 23.78125 -13.375 27.78125 -13.375 
Q 36.625 -13.375 41.015625 -8.765625 
Q 45.40625 -4.15625 45.40625 5.171875 
L 45.40625 9.625 
Q 42.625 4.78125 38.28125 2.390625 
Q 33.9375 0 27.875 0 
Q 17.828125 0 11.671875 7.65625 
Q 5.515625 15.328125 5.515625 27.984375 
Q 5.515625 40.671875 11.671875 48.328125 
Q 17.828125 56 27.875 56 
Q 33.9375 56 38.28125 53.609375 
Q 42.625 51.21875 45.40625 46.390625 
L 45.40625 54.6875 
L 54.390625 54.6875 
z
" id="BitstreamVeraSans-Roman-67"/>
      <path d="M 64.40625 67.28125 
L 64.40625 56.890625 
Q 59.421875 61.53125 53.78125 63.8125 
Q 48.140625 66.109375 41.796875 66.109375 
Q 29.296875 66.109375 22.65625 58.46875 
Q 16.015625 50.828125 16.015625 36.375 
Q 16.015625 21.96875 22.65625 14.328125 
Q 29.296875 6.6875 41.796875 6.6875 
Q 48.140625 6.6875 53.78125 8.984375 
Q 59.421875 11.28125 64.40625 15.921875 
L 64.40625 5.609375 
Q 59.234375 2.09375 53.4375 0.328125 
Q 47.65625 -1.421875 41.21875 -1.421875 
Q 24.65625 -1.421875 15.125 8.703125 
Q 5.609375 18.84375 5.609375 36.375 
Q 5.609375 53.953125 15.125 64.078125 
Q 24.65625 74.21875 41.21875 74.21875 
Q 47.75 74.21875 53.53125 72.484375 
Q 59.328125 70.75 64.40625 67.28125 
" id="BitstreamVeraSans-Roman-43"/>
     </defs>
     <g style="fill:#262626;" transform="translate(692.7755625 737.46553125)scale(0.198 -0.198)">
      <use xlink:href="#BitstreamVeraSans-Roman-43"/>
      <use x="69.82421875" xlink:href="#BitstreamVeraSans-Roman-61"/>
      <use x="131.103515625" xlink:href="#BitstreamVeraSans-Roman-74"/>
      <use x="170.3125" xlink:href="#BitstreamVeraSans-Roman-65"/>
      <use x="231.8359375" xlink:href="#BitstreamVeraSans-Roman-67"/>
      <use x="295.3125" xlink:href="#BitstreamVeraSans-Roman-6f"/>
      <use x="356.494140625" xlink:href="#BitstreamVeraSans-Roman-72"/>
      <use x="397.607421875" xlink:href="#BitstreamVeraSans-Roman-79"/>
     </g>
    </g>
   </g>
   <g id="matplotlib.axis_2">
    <g id="ytick_1">
     <g id="line2d_9">
      <path clip-path="url(#pd908ed2ec4)" d="M 180 693 
L 1296 693 
" style="fill:none;stroke:#ffffff;stroke-linecap:round;"/>
     </g>
     <g id="line2d_10">
      <g>
       <use style="fill:#262626;stroke:#262626;" x="180.0" xlink:href="#m703b6b31b7" y="693.0"/>
      </g>
     </g>
     <g id="line2d_11">
      <g>
       <use style="fill:#262626;stroke:#262626;" x="1296.0" xlink:href="#m703b6b31b7" y="693.0"/>
      </g>
     </g>
     <g id="text_6">
      <!-- 0.5 -->
      <defs>
       <path d="M 31.78125 66.40625 
Q 24.171875 66.40625 20.328125 58.90625 
Q 16.5 51.421875 16.5 36.375 
Q 16.5 21.390625 20.328125 13.890625 
Q 24.171875 6.390625 31.78125 6.390625 
Q 39.453125 6.390625 43.28125 13.890625 
Q 47.125 21.390625 47.125 36.375 
Q 47.125 51.421875 43.28125 58.90625 
Q 39.453125 66.40625 31.78125 66.40625 
M 31.78125 74.21875 
Q 44.046875 74.21875 50.515625 64.515625 
Q 56.984375 54.828125 56.984375 36.375 
Q 56.984375 17.96875 50.515625 8.265625 
Q 44.046875 -1.421875 31.78125 -1.421875 
Q 19.53125 -1.421875 13.0625 8.265625 
Q 6.59375 17.96875 6.59375 36.375 
Q 6.59375 54.828125 13.0625 64.515625 
Q 19.53125 74.21875 31.78125 74.21875 
" id="BitstreamVeraSans-Roman-30"/>
       <path d="M 10.6875 12.40625 
L 21 12.40625 
L 21 0 
L 10.6875 0 
z
" id="BitstreamVeraSans-Roman-2e"/>
      </defs>
      <g style="fill:#262626;" transform="translate(144.374375 697.966875)scale(0.18 -0.18)">
       <use xlink:href="#BitstreamVeraSans-Roman-30"/>
       <use x="63.623046875" xlink:href="#BitstreamVeraSans-Roman-2e"/>
       <use x="95.41015625" xlink:href="#BitstreamVeraSans-Roman-35"/>
      </g>
     </g>
    </g>
    <g id="ytick_2">
     <g id="line2d_12">
      <path clip-path="url(#pd908ed2ec4)" d="M 180 590.7 
L 1296 590.7 
" style="fill:none;stroke:#ffffff;stroke-linecap:round;"/>
     </g>
     <g id="line2d_13">
      <g>
       <use style="fill:#262626;stroke:#262626;" x="180.0" xlink:href="#m703b6b31b7" y="590.7"/>
      </g>
     </g>
     <g id="line2d_14">
      <g>
       <use style="fill:#262626;stroke:#262626;" x="1296.0" xlink:href="#m703b6b31b7" y="590.7"/>
      </g>
     </g>
     <g id="text_7">
      <!-- 0.6 -->
      <defs>
       <path d="M 33.015625 40.375 
Q 26.375 40.375 22.484375 35.828125 
Q 18.609375 31.296875 18.609375 23.390625 
Q 18.609375 15.53125 22.484375 10.953125 
Q 26.375 6.390625 33.015625 6.390625 
Q 39.65625 6.390625 43.53125 10.953125 
Q 47.40625 15.53125 47.40625 23.390625 
Q 47.40625 31.296875 43.53125 35.828125 
Q 39.65625 40.375 33.015625 40.375 
M 52.59375 71.296875 
L 52.59375 62.3125 
Q 48.875 64.0625 45.09375 64.984375 
Q 41.3125 65.921875 37.59375 65.921875 
Q 27.828125 65.921875 22.671875 59.328125 
Q 17.53125 52.734375 16.796875 39.40625 
Q 19.671875 43.65625 24.015625 45.921875 
Q 28.375 48.1875 33.59375 48.1875 
Q 44.578125 48.1875 50.953125 41.515625 
Q 57.328125 34.859375 57.328125 23.390625 
Q 57.328125 12.15625 50.6875 5.359375 
Q 44.046875 -1.421875 33.015625 -1.421875 
Q 20.359375 -1.421875 13.671875 8.265625 
Q 6.984375 17.96875 6.984375 36.375 
Q 6.984375 53.65625 15.1875 63.9375 
Q 23.390625 74.21875 37.203125 74.21875 
Q 40.921875 74.21875 44.703125 73.484375 
Q 48.484375 72.75 52.59375 71.296875 
" id="BitstreamVeraSans-Roman-36"/>
      </defs>
      <g style="fill:#262626;" transform="translate(144.374375 595.666875)scale(0.18 -0.18)">
       <use xlink:href="#BitstreamVeraSans-Roman-30"/>
       <use x="63.623046875" xlink:href="#BitstreamVeraSans-Roman-2e"/>
       <use x="95.41015625" xlink:href="#BitstreamVeraSans-Roman-36"/>
      </g>
     </g>
    </g>
    <g id="ytick_3">
     <g id="line2d_15">
      <path clip-path="url(#pd908ed2ec4)" d="M 180 488.4 
L 1296 488.4 
" style="fill:none;stroke:#ffffff;stroke-linecap:round;"/>
     </g>
     <g id="line2d_16">
      <g>
       <use style="fill:#262626;stroke:#262626;" x="180.0" xlink:href="#m703b6b31b7" y="488.4"/>
      </g>
     </g>
     <g id="line2d_17">
      <g>
       <use style="fill:#262626;stroke:#262626;" x="1296.0" xlink:href="#m703b6b31b7" y="488.4"/>
      </g>
     </g>
     <g id="text_8">
      <!-- 0.7 -->
      <g style="fill:#262626;" transform="translate(144.374375 493.366875)scale(0.18 -0.18)">
       <use xlink:href="#BitstreamVeraSans-Roman-30"/>
       <use x="63.623046875" xlink:href="#BitstreamVeraSans-Roman-2e"/>
       <use x="95.41015625" xlink:href="#BitstreamVeraSans-Roman-37"/>
      </g>
     </g>
    </g>
    <g id="ytick_4">
     <g id="line2d_18">
      <path clip-path="url(#pd908ed2ec4)" d="M 180 386.1 
L 1296 386.1 
" style="fill:none;stroke:#ffffff;stroke-linecap:round;"/>
     </g>
     <g id="line2d_19">
      <g>
       <use style="fill:#262626;stroke:#262626;" x="180.0" xlink:href="#m703b6b31b7" y="386.1"/>
      </g>
     </g>
     <g id="line2d_20">
      <g>
       <use style="fill:#262626;stroke:#262626;" x="1296.0" xlink:href="#m703b6b31b7" y="386.1"/>
      </g>
     </g>
     <g id="text_9">
      <!-- 0.8 -->
      <g style="fill:#262626;" transform="translate(144.374375 391.066875)scale(0.18 -0.18)">
       <use xlink:href="#BitstreamVeraSans-Roman-30"/>
       <use x="63.623046875" xlink:href="#BitstreamVeraSans-Roman-2e"/>
       <use x="95.41015625" xlink:href="#BitstreamVeraSans-Roman-38"/>
      </g>
     </g>
    </g>
    <g id="ytick_5">
     <g id="line2d_21">
      <path clip-path="url(#pd908ed2ec4)" d="M 180 283.8 
L 1296 283.8 
" style="fill:none;stroke:#ffffff;stroke-linecap:round;"/>
     </g>
     <g id="line2d_22">
      <g>
       <use style="fill:#262626;stroke:#262626;" x="180.0" xlink:href="#m703b6b31b7" y="283.8"/>
      </g>
     </g>
     <g id="line2d_23">
      <g>
       <use style="fill:#262626;stroke:#262626;" x="1296.0" xlink:href="#m703b6b31b7" y="283.8"/>
      </g>
     </g>
     <g id="text_10">
      <!-- 0.9 -->
      <g style="fill:#262626;" transform="translate(144.374375 288.766875)scale(0.18 -0.18)">
       <use xlink:href="#BitstreamVeraSans-Roman-30"/>
       <use x="63.623046875" xlink:href="#BitstreamVeraSans-Roman-2e"/>
       <use x="95.41015625" xlink:href="#BitstreamVeraSans-Roman-39"/>
      </g>
     </g>
    </g>
    <g id="ytick_6">
     <g id="line2d_24">
      <path clip-path="url(#pd908ed2ec4)" d="M 180 181.5 
L 1296 181.5 
" style="fill:none;stroke:#ffffff;stroke-linecap:round;"/>
     </g>
     <g id="line2d_25">
      <g>
       <use style="fill:#262626;stroke:#262626;" x="180.0" xlink:href="#m703b6b31b7" y="181.5"/>
      </g>
     </g>
     <g id="line2d_26">
      <g>
       <use style="fill:#262626;stroke:#262626;" x="1296.0" xlink:href="#m703b6b31b7" y="181.5"/>
      </g>
     </g>
     <g id="text_11">
      <!-- 1.0 -->
      <g style="fill:#262626;" transform="translate(144.374375 186.466875)scale(0.18 -0.18)">
       <use xlink:href="#BitstreamVeraSans-Roman-31"/>
       <use x="63.623046875" xlink:href="#BitstreamVeraSans-Roman-2e"/>
       <use x="95.41015625" xlink:href="#BitstreamVeraSans-Roman-30"/>
      </g>
     </g>
    </g>
    <g id="ytick_7">
     <g id="line2d_27">
      <path clip-path="url(#pd908ed2ec4)" d="M 180 79.2 
L 1296 79.2 
" style="fill:none;stroke:#ffffff;stroke-linecap:round;"/>
     </g>
     <g id="line2d_28">
      <g>
       <use style="fill:#262626;stroke:#262626;" x="180.0" xlink:href="#m703b6b31b7" y="79.2"/>
      </g>
     </g>
     <g id="line2d_29">
      <g>
       <use style="fill:#262626;stroke:#262626;" x="1296.0" xlink:href="#m703b6b31b7" y="79.2"/>
      </g>
     </g>
     <g id="text_12">
      <!-- 1.1 -->
      <g style="fill:#262626;" transform="translate(144.374375 84.166875)scale(0.18 -0.18)">
       <use xlink:href="#BitstreamVeraSans-Roman-31"/>
       <use x="63.623046875" xlink:href="#BitstreamVeraSans-Roman-2e"/>
       <use x="95.41015625" xlink:href="#BitstreamVeraSans-Roman-31"/>
      </g>
     </g>
    </g>
    <g id="text_13">
     <!-- Distance -->
     <defs>
      <path d="M 44.28125 53.078125 
L 44.28125 44.578125 
Q 40.484375 46.53125 36.375 47.5 
Q 32.28125 48.484375 27.875 48.484375 
Q 21.1875 48.484375 17.84375 46.4375 
Q 14.5 44.390625 14.5 40.28125 
Q 14.5 37.15625 16.890625 35.375 
Q 19.28125 33.59375 26.515625 31.984375 
L 29.59375 31.296875 
Q 39.15625 29.25 43.1875 25.515625 
Q 47.21875 21.78125 47.21875 15.09375 
Q 47.21875 7.46875 41.1875 3.015625 
Q 35.15625 -1.421875 24.609375 -1.421875 
Q 20.21875 -1.421875 15.453125 -0.5625 
Q 10.6875 0.296875 5.421875 2 
L 5.421875 11.28125 
Q 10.40625 8.6875 15.234375 7.390625 
Q 20.0625 6.109375 24.8125 6.109375 
Q 31.15625 6.109375 34.5625 8.28125 
Q 37.984375 10.453125 37.984375 14.40625 
Q 37.984375 18.0625 35.515625 20.015625 
Q 33.0625 21.96875 24.703125 23.78125 
L 21.578125 24.515625 
Q 13.234375 26.265625 9.515625 29.90625 
Q 5.8125 33.546875 5.8125 39.890625 
Q 5.8125 47.609375 11.28125 51.796875 
Q 16.75 56 26.8125 56 
Q 31.78125 56 36.171875 55.265625 
Q 40.578125 54.546875 44.28125 53.078125 
" id="BitstreamVeraSans-Roman-73"/>
      <path d="M 19.671875 64.796875 
L 19.671875 8.109375 
L 31.59375 8.109375 
Q 46.6875 8.109375 53.6875 14.9375 
Q 60.6875 21.78125 60.6875 36.53125 
Q 60.6875 51.171875 53.6875 57.984375 
Q 46.6875 64.796875 31.59375 64.796875 
z
M 9.8125 72.90625 
L 30.078125 72.90625 
Q 51.265625 72.90625 61.171875 64.09375 
Q 71.09375 55.28125 71.09375 36.53125 
Q 71.09375 17.671875 61.125 8.828125 
Q 51.171875 0 30.078125 0 
L 9.8125 0 
z
" id="BitstreamVeraSans-Roman-44"/>
     </defs>
     <g style="fill:#262626;" transform="translate(135.25659375 429.38775)rotate(-90.0)scale(0.198 -0.198)">
      <use xlink:href="#BitstreamVeraSans-Roman-44"/>
      <use x="77.001953125" xlink:href="#BitstreamVeraSans-Roman-69"/>
      <use x="104.78515625" xlink:href="#BitstreamVeraSans-Roman-73"/>
      <use x="156.884765625" xlink:href="#BitstreamVeraSans-Roman-74"/>
      <use x="196.09375" xlink:href="#BitstreamVeraSans-Roman-61"/>
      <use x="257.373046875" xlink:href="#BitstreamVeraSans-Roman-6e"/>
      <use x="320.751953125" xlink:href="#BitstreamVeraSans-Roman-63"/>
      <use x="375.732421875" xlink:href="#BitstreamVeraSans-Roman-65"/>
     </g>
    </g>
   </g>
   <g id="PolyCollection_1">
    <defs>
     <path d="M 263.7068 -151.032446 
L 263.6932 -151.032446 
L 263.684874 -155.192334 
L 263.670417 -159.352222 
L 263.648164 -163.51211 
L 263.616862 -167.671998 
L 263.575501 -171.831887 
L 263.523232 -175.991775 
L 263.458541 -180.151663 
L 263.375559 -184.311551 
L 263.258033 -188.471439 
L 263.077138 -192.631327 
L 262.799635 -196.791216 
L 262.40347 -200.951104 
L 261.888817 -205.110992 
L 261.276444 -209.27088 
L 260.597968 -213.430768 
L 259.887778 -217.590656 
L 259.178977 -221.750545 
L 258.497903 -225.910433 
L 257.856031 -230.070321 
L 257.248509 -234.230209 
L 256.66609 -238.390097 
L 256.107627 -242.549985 
L 255.570456 -246.709873 
L 255.019324 -250.869762 
L 254.368106 -255.02965 
L 253.506378 -259.189538 
L 252.359429 -263.349426 
L 250.931821 -267.509314 
L 249.294945 -271.669202 
L 247.529896 -275.829091 
L 245.674849 -279.988979 
L 243.712196 -284.148867 
L 241.590101 -288.308755 
L 239.259268 -292.468643 
L 236.71739 -296.628531 
L 234.043221 -300.78842 
L 231.377304 -304.948308 
L 228.837002 -309.108196 
L 226.433953 -313.268084 
L 224.081775 -317.427972 
L 221.696257 -321.58786 
L 219.301639 -325.747749 
L 217.058615 -329.907637 
L 215.193291 -334.067525 
L 213.868366 -338.227413 
L 213.080177 -342.387301 
L 212.662805 -346.547189 
L 212.400879 -350.707078 
L 212.155 -354.866966 
L 211.906092 -359.026854 
L 211.723242 -363.186742 
L 211.715947 -367.34663 
L 211.992668 -371.506518 
L 212.615258 -375.666406 
L 213.570519 -379.826295 
L 214.792916 -383.986183 
L 216.216391 -388.146071 
L 217.794178 -392.305959 
L 219.474577 -396.465847 
L 221.188145 -400.625735 
L 222.88457 -404.785624 
L 224.576108 -408.945512 
L 226.317767 -413.1054 
L 228.130632 -417.265288 
L 229.95587 -421.425176 
L 231.700682 -425.585064 
L 233.333187 -429.744953 
L 234.928114 -433.904841 
L 236.61521 -438.064729 
L 238.473633 -442.224617 
L 240.461501 -446.384505 
L 242.438628 -450.544393 
L 244.261518 -454.704282 
L 245.870425 -458.86417 
L 247.304166 -463.024058 
L 248.650472 -467.183946 
L 249.989116 -471.343834 
L 251.367457 -475.503722 
L 252.801912 -479.663611 
L 254.282822 -483.823499 
L 255.776033 -487.983387 
L 257.225482 -492.143275 
L 258.558339 -496.303163 
L 259.696329 -500.463051 
L 260.580712 -504.62294 
L 261.204279 -508.782828 
L 261.623837 -512.942716 
L 261.934025 -517.102604 
L 262.217508 -521.262492 
L 262.508895 -525.42238 
L 262.795827 -529.582268 
L 263.047955 -533.742157 
L 263.245932 -537.902045 
L 263.390823 -542.061933 
L 263.495407 -546.221821 
L 263.571788 -550.381709 
L 263.626394 -554.541597 
L 263.662375 -558.701486 
L 263.683212 -562.861374 
L 263.716788 -562.861374 
L 263.716788 -562.861374 
L 263.737625 -558.701486 
L 263.773606 -554.541597 
L 263.828212 -550.381709 
L 263.904593 -546.221821 
L 264.009177 -542.061933 
L 264.154068 -537.902045 
L 264.352045 -533.742157 
L 264.604173 -529.582268 
L 264.891105 -525.42238 
L 265.182492 -521.262492 
L 265.465975 -517.102604 
L 265.776163 -512.942716 
L 266.195721 -508.782828 
L 266.819288 -504.62294 
L 267.703671 -500.463051 
L 268.841661 -496.303163 
L 270.174518 -492.143275 
L 271.623967 -487.983387 
L 273.117178 -483.823499 
L 274.598088 -479.663611 
L 276.032543 -475.503722 
L 277.410884 -471.343834 
L 278.749528 -467.183946 
L 280.095834 -463.024058 
L 281.529575 -458.86417 
L 283.138482 -454.704282 
L 284.961372 -450.544393 
L 286.938499 -446.384505 
L 288.926367 -442.224617 
L 290.78479 -438.064729 
L 292.471886 -433.904841 
L 294.066813 -429.744953 
L 295.699318 -425.585064 
L 297.44413 -421.425176 
L 299.269368 -417.265288 
L 301.082233 -413.1054 
L 302.823892 -408.945512 
L 304.51543 -404.785624 
L 306.211855 -400.625735 
L 307.925423 -396.465847 
L 309.605822 -392.305959 
L 311.183609 -388.146071 
L 312.607084 -383.986183 
L 313.829481 -379.826295 
L 314.784742 -375.666406 
L 315.407332 -371.506518 
L 315.684053 -367.34663 
L 315.676758 -363.186742 
L 315.493908 -359.026854 
L 315.245 -354.866966 
L 314.999121 -350.707078 
L 314.737195 -346.547189 
L 314.319823 -342.387301 
L 313.531634 -338.227413 
L 312.206709 -334.067525 
L 310.341385 -329.907637 
L 308.098361 -325.747749 
L 305.703743 -321.58786 
L 303.318225 -317.427972 
L 300.966047 -313.268084 
L 298.562998 -309.108196 
L 296.022696 -304.948308 
L 293.356779 -300.78842 
L 290.68261 -296.628531 
L 288.140732 -292.468643 
L 285.809899 -288.308755 
L 283.687804 -284.148867 
L 281.725151 -279.988979 
L 279.870104 -275.829091 
L 278.105055 -271.669202 
L 276.468179 -267.509314 
L 275.040571 -263.349426 
L 273.893622 -259.189538 
L 273.031894 -255.02965 
L 272.380676 -250.869762 
L 271.829544 -246.709873 
L 271.292373 -242.549985 
L 270.73391 -238.390097 
L 270.151491 -234.230209 
L 269.543969 -230.070321 
L 268.902097 -225.910433 
L 268.221023 -221.750545 
L 267.512222 -217.590656 
L 266.802032 -213.430768 
L 266.123556 -209.27088 
L 265.511183 -205.110992 
L 264.99653 -200.951104 
L 264.600365 -196.791216 
L 264.322862 -192.631327 
L 264.141967 -188.471439 
L 264.024441 -184.311551 
L 263.941459 -180.151663 
L 263.876768 -175.991775 
L 263.824499 -171.831887 
L 263.783138 -167.671998 
L 263.751836 -163.51211 
L 263.729583 -159.352222 
L 263.715126 -155.192334 
L 263.7068 -151.032446 
z
" id="mc946b1e4c7" style="stroke:#ebf2c3;stroke-width:1.75;"/>
    </defs>
    <g clip-path="url(#pd908ed2ec4)">
     <use style="fill:#ebf2c3;stroke:#ebf2c3;stroke-width:1.75;" x="0.0" xlink:href="#mc946b1e4c7" y="792.0"/>
    </g>
   </g>
   <g id="PolyCollection_2">
    <defs>
     <path d="M 375.312951 -164.191527 
L 375.287049 -164.191527 
L 375.266592 -168.147359 
L 375.227612 -172.10319 
L 375.166207 -176.059022 
L 375.08479 -180.014853 
L 374.991096 -183.970685 
L 374.89203 -187.926517 
L 374.785644 -191.882348 
L 374.656018 -195.83818 
L 374.475167 -199.794011 
L 374.212447 -203.749843 
L 373.84545 -207.705674 
L 373.364706 -211.661506 
L 372.771689 -215.617338 
L 372.076709 -219.573169 
L 371.301525 -223.529001 
L 370.483568 -227.484832 
L 369.672438 -231.440664 
L 368.912086 -235.396496 
L 368.215598 -239.352327 
L 367.551496 -243.308159 
L 366.857327 -247.26399 
L 366.079364 -251.219822 
L 365.211668 -255.175653 
L 364.290244 -259.131485 
L 363.330491 -263.087317 
L 362.270816 -267.043148 
L 360.997133 -270.99898 
L 359.428489 -274.954811 
L 357.572061 -278.910643 
L 355.505468 -282.866475 
L 353.322489 -286.822306 
L 351.084063 -290.778138 
L 348.792971 -294.733969 
L 346.407936 -298.689801 
L 343.898936 -302.645632 
L 341.306322 -306.601464 
L 338.744968 -310.557296 
L 336.326414 -314.513127 
L 334.051836 -318.468959 
L 331.795568 -322.42479 
L 329.444343 -326.380622 
L 327.074775 -330.336454 
L 324.955577 -334.292285 
L 323.333757 -338.248117 
L 322.225695 -342.203948 
L 321.440585 -346.15978 
L 320.791834 -350.115611 
L 320.243369 -354.071443 
L 319.850453 -358.027275 
L 319.623745 -361.983106 
L 319.511155 -365.938938 
L 319.5 -369.894769 
L 319.686606 -373.850601 
L 320.230775 -377.806432 
L 321.256831 -381.762264 
L 322.784784 -385.718096 
L 324.717037 -389.673927 
L 326.880195 -393.629759 
L 329.1062 -397.58559 
L 331.307889 -401.541422 
L 333.505802 -405.497254 
L 335.789013 -409.453085 
L 338.221685 -413.408917 
L 340.756798 -417.364748 
L 343.239992 -421.32058 
L 345.512403 -425.276411 
L 347.524803 -429.232243 
L 349.369913 -433.188075 
L 351.211345 -437.143906 
L 353.162484 -441.099738 
L 355.206828 -445.055569 
L 357.217235 -449.011401 
L 359.042236 -452.967233 
L 360.58692 -456.923064 
L 361.855653 -460.878896 
L 362.951746 -464.834727 
L 364.022241 -468.790559 
L 365.168812 -472.74639 
L 366.397046 -476.702222 
L 367.646009 -480.658054 
L 368.851003 -484.613885 
L 369.97143 -488.569717 
L 370.980694 -492.525548 
L 371.856124 -496.48138 
L 372.581514 -500.437211 
L 373.151326 -504.393043 
L 373.573988 -508.348875 
L 373.875901 -512.304706 
L 374.099675 -516.260538 
L 374.291299 -520.216369 
L 374.482025 -524.172201 
L 374.677686 -528.128033 
L 374.863522 -532.083864 
L 375.019874 -536.039696 
L 375.135811 -539.995527 
L 375.212373 -543.951359 
L 375.257826 -547.90719 
L 375.282008 -551.863022 
L 375.293339 -555.818854 
L 375.306661 -555.818854 
L 375.306661 -555.818854 
L 375.317992 -551.863022 
L 375.342174 -547.90719 
L 375.387627 -543.951359 
L 375.464189 -539.995527 
L 375.580126 -536.039696 
L 375.736478 -532.083864 
L 375.922314 -528.128033 
L 376.117975 -524.172201 
L 376.308701 -520.216369 
L 376.500325 -516.260538 
L 376.724099 -512.304706 
L 377.026012 -508.348875 
L 377.448674 -504.393043 
L 378.018486 -500.437211 
L 378.743876 -496.48138 
L 379.619306 -492.525548 
L 380.62857 -488.569717 
L 381.748997 -484.613885 
L 382.953991 -480.658054 
L 384.202954 -476.702222 
L 385.431188 -472.74639 
L 386.577759 -468.790559 
L 387.648254 -464.834727 
L 388.744347 -460.878896 
L 390.01308 -456.923064 
L 391.557764 -452.967233 
L 393.382765 -449.011401 
L 395.393172 -445.055569 
L 397.437516 -441.099738 
L 399.388655 -437.143906 
L 401.230087 -433.188075 
L 403.075197 -429.232243 
L 405.087597 -425.276411 
L 407.360008 -421.32058 
L 409.843202 -417.364748 
L 412.378315 -413.408917 
L 414.810987 -409.453085 
L 417.094198 -405.497254 
L 419.292111 -401.541422 
L 421.4938 -397.58559 
L 423.719805 -393.629759 
L 425.882963 -389.673927 
L 427.815216 -385.718096 
L 429.343169 -381.762264 
L 430.369225 -377.806432 
L 430.913394 -373.850601 
L 431.1 -369.894769 
L 431.088845 -365.938938 
L 430.976255 -361.983106 
L 430.749547 -358.027275 
L 430.356631 -354.071443 
L 429.808166 -350.115611 
L 429.159415 -346.15978 
L 428.374305 -342.203948 
L 427.266243 -338.248117 
L 425.644423 -334.292285 
L 423.525225 -330.336454 
L 421.155657 -326.380622 
L 418.804432 -322.42479 
L 416.548164 -318.468959 
L 414.273586 -314.513127 
L 411.855032 -310.557296 
L 409.293678 -306.601464 
L 406.701064 -302.645632 
L 404.192064 -298.689801 
L 401.807029 -294.733969 
L 399.515937 -290.778138 
L 397.277511 -286.822306 
L 395.094532 -282.866475 
L 393.027939 -278.910643 
L 391.171511 -274.954811 
L 389.602867 -270.99898 
L 388.329184 -267.043148 
L 387.269509 -263.087317 
L 386.309756 -259.131485 
L 385.388332 -255.175653 
L 384.520636 -251.219822 
L 383.742673 -247.26399 
L 383.048504 -243.308159 
L 382.384402 -239.352327 
L 381.687914 -235.396496 
L 380.927562 -231.440664 
L 380.116432 -227.484832 
L 379.298475 -223.529001 
L 378.523291 -219.573169 
L 377.828311 -215.617338 
L 377.235294 -211.661506 
L 376.75455 -207.705674 
L 376.387553 -203.749843 
L 376.124833 -199.794011 
L 375.943982 -195.83818 
L 375.814356 -191.882348 
L 375.70797 -187.926517 
L 375.608904 -183.970685 
L 375.51521 -180.014853 
L 375.433793 -176.059022 
L 375.372388 -172.10319 
L 375.333408 -168.147359 
L 375.312951 -164.191527 
z
" id="m8a9dff0cb8" style="stroke:#325c96;stroke-width:1.75;"/>
    </defs>
    <g clip-path="url(#pd908ed2ec4)">
     <use style="fill:#325c96;stroke:#325c96;stroke-width:1.75;" x="0.0" xlink:href="#m8a9dff0cb8" y="792.0"/>
    </g>
   </g>
   <g id="PolyCollection_3">
    <defs>
     <path d="M 542.708451 -163.931339 
L 542.691549 -163.931339 
L 542.678608 -167.941092 
L 542.653404 -171.950844 
L 542.611558 -175.960596 
L 542.55089 -179.970348 
L 542.470243 -183.9801 
L 542.364446 -187.989852 
L 542.21943 -191.999604 
L 542.013646 -196.009357 
L 541.725883 -200.019109 
L 541.341877 -204.028861 
L 540.854176 -208.038613 
L 540.258921 -212.048365 
L 539.557369 -216.058117 
L 538.765326 -220.067869 
L 537.924036 -224.077622 
L 537.097528 -228.087374 
L 536.347452 -232.097126 
L 535.699368 -236.106878 
L 535.126632 -240.11663 
L 534.561544 -244.126382 
L 533.925069 -248.136134 
L 533.164943 -252.145887 
L 532.283535 -256.155639 
L 531.323818 -260.165391 
L 530.311035 -264.175143 
L 529.204899 -268.184895 
L 527.915994 -272.194647 
L 526.368948 -276.204399 
L 524.549479 -280.214152 
L 522.502577 -284.223904 
L 520.296734 -288.233656 
L 517.984781 -292.243408 
L 515.588623 -296.25316 
L 513.118445 -300.262912 
L 510.600973 -304.272664 
L 508.07621 -308.282417 
L 505.560052 -312.292169 
L 503.016058 -316.301921 
L 500.381345 -320.311673 
L 497.651186 -324.321425 
L 494.962502 -328.331177 
L 492.577492 -332.340929 
L 490.736595 -336.350682 
L 489.494029 -340.360434 
L 488.69691 -344.370186 
L 488.133688 -348.379938 
L 487.702591 -352.38969 
L 487.440166 -356.399442 
L 487.415322 -360.409194 
L 487.633227 -364.418947 
L 488.042987 -368.428699 
L 488.596931 -372.438451 
L 489.2768 -376.448203 
L 490.090495 -380.457955 
L 491.075904 -384.467707 
L 492.289417 -388.477459 
L 493.752508 -392.487212 
L 495.411454 -396.496964 
L 497.183732 -400.506716 
L 499.057016 -404.516468 
L 501.116449 -408.52622 
L 503.446614 -412.535972 
L 506.012626 -416.545724 
L 508.658362 -420.555477 
L 511.2153 -424.565229 
L 513.59318 -428.574981 
L 515.784699 -432.584733 
L 517.833571 -436.594485 
L 519.807109 -440.604237 
L 521.750824 -444.613989 
L 523.632187 -448.623742 
L 525.342393 -452.633494 
L 526.782495 -456.643246 
L 527.958423 -460.652998 
L 528.991715 -464.66275 
L 530.039546 -468.672502 
L 531.201316 -472.682255 
L 532.485879 -476.692007 
L 533.844353 -480.701759 
L 535.218253 -484.711511 
L 536.558406 -488.721263 
L 537.813787 -492.731015 
L 538.920453 -496.740767 
L 539.815008 -500.75052 
L 540.466505 -504.760272 
L 540.897104 -508.770024 
L 541.171327 -512.779776 
L 541.364802 -516.789528 
L 541.53726 -520.79928 
L 541.720754 -524.809032 
L 541.919522 -528.818785 
L 542.117922 -532.828537 
L 542.294438 -536.838289 
L 542.434941 -540.848041 
L 542.53725 -544.857793 
L 542.606941 -548.867545 
L 542.651438 -552.877297 
L 542.677445 -556.88705 
L 542.690887 -560.896802 
L 542.709113 -560.896802 
L 542.709113 -560.896802 
L 542.722555 -556.88705 
L 542.748562 -552.877297 
L 542.793059 -548.867545 
L 542.86275 -544.857793 
L 542.965059 -540.848041 
L 543.105562 -536.838289 
L 543.282078 -532.828537 
L 543.480478 -528.818785 
L 543.679246 -524.809032 
L 543.86274 -520.79928 
L 544.035198 -516.789528 
L 544.228673 -512.779776 
L 544.502896 -508.770024 
L 544.933495 -504.760272 
L 545.584992 -500.75052 
L 546.479547 -496.740767 
L 547.586213 -492.731015 
L 548.841594 -488.721263 
L 550.181747 -484.711511 
L 551.555647 -480.701759 
L 552.914121 -476.692007 
L 554.198684 -472.682255 
L 555.360454 -468.672502 
L 556.408285 -464.66275 
L 557.441577 -460.652998 
L 558.617505 -456.643246 
L 560.057607 -452.633494 
L 561.767813 -448.623742 
L 563.649176 -444.613989 
L 565.592891 -440.604237 
L 567.566429 -436.594485 
L 569.615301 -432.584733 
L 571.80682 -428.574981 
L 574.1847 -424.565229 
L 576.741638 -420.555477 
L 579.387374 -416.545724 
L 581.953386 -412.535972 
L 584.283551 -408.52622 
L 586.342984 -404.516468 
L 588.216268 -400.506716 
L 589.988546 -396.496964 
L 591.647492 -392.487212 
L 593.110583 -388.477459 
L 594.324096 -384.467707 
L 595.309505 -380.457955 
L 596.1232 -376.448203 
L 596.803069 -372.438451 
L 597.357013 -368.428699 
L 597.766773 -364.418947 
L 597.984678 -360.409194 
L 597.959834 -356.399442 
L 597.697409 -352.38969 
L 597.266312 -348.379938 
L 596.70309 -344.370186 
L 595.905971 -340.360434 
L 594.663405 -336.350682 
L 592.822508 -332.340929 
L 590.437498 -328.331177 
L 587.748814 -324.321425 
L 585.018655 -320.311673 
L 582.383942 -316.301921 
L 579.839948 -312.292169 
L 577.32379 -308.282417 
L 574.799027 -304.272664 
L 572.281555 -300.262912 
L 569.811377 -296.25316 
L 567.415219 -292.243408 
L 565.103266 -288.233656 
L 562.897423 -284.223904 
L 560.850521 -280.214152 
L 559.031052 -276.204399 
L 557.484006 -272.194647 
L 556.195101 -268.184895 
L 555.088965 -264.175143 
L 554.076182 -260.165391 
L 553.116465 -256.155639 
L 552.235057 -252.145887 
L 551.474931 -248.136134 
L 550.838456 -244.126382 
L 550.273368 -240.11663 
L 549.700632 -236.106878 
L 549.052548 -232.097126 
L 548.302472 -228.087374 
L 547.475964 -224.077622 
L 546.634674 -220.067869 
L 545.842631 -216.058117 
L 545.141079 -212.048365 
L 544.545824 -208.038613 
L 544.058123 -204.028861 
L 543.674117 -200.019109 
L 543.386354 -196.009357 
L 543.18057 -191.999604 
L 543.035554 -187.989852 
L 542.929757 -183.9801 
L 542.84911 -179.970348 
L 542.788442 -175.960596 
L 542.746596 -171.950844 
L 542.721392 -167.941092 
L 542.708451 -163.931339 
z
" id="m097b6439e9" style="stroke:#ebf2c3;stroke-width:1.75;"/>
    </defs>
    <g clip-path="url(#pd908ed2ec4)">
     <use style="fill:#ebf2c3;stroke:#ebf2c3;stroke-width:1.75;" x="0.0" xlink:href="#m097b6439e9" y="792.0"/>
    </g>
   </g>
   <g id="PolyCollection_4">
    <defs>
     <path d="M 654.30576 -152.968797 
L 654.29424 -152.968797 
L 654.285742 -157.086523 
L 654.2692 -161.204248 
L 654.240557 -165.321974 
L 654.195513 -169.439699 
L 654.131186 -173.557425 
L 654.04916 -177.675151 
L 653.956814 -181.792876 
L 653.862044 -185.910602 
L 653.761886 -190.028327 
L 653.634064 -194.146053 
L 653.441664 -198.263779 
L 653.150527 -202.381504 
L 652.746217 -206.49923 
L 652.237649 -210.616955 
L 651.648183 -214.734681 
L 651.003956 -218.852406 
L 650.324691 -222.970132 
L 649.618119 -227.087858 
L 648.882197 -231.205583 
L 648.117611 -235.323309 
L 647.342318 -239.441034 
L 646.591556 -243.55876 
L 645.892794 -247.676486 
L 645.226653 -251.794211 
L 644.505997 -255.911937 
L 643.601442 -260.029662 
L 642.406208 -264.147388 
L 640.894022 -268.265113 
L 639.122559 -272.382839 
L 637.182619 -276.500565 
L 635.142033 -280.61829 
L 633.023434 -284.736016 
L 630.805465 -288.853741 
L 628.43128 -292.971467 
L 625.846998 -297.089193 
L 623.076193 -301.206918 
L 620.260419 -305.324644 
L 617.594756 -309.442369 
L 615.198132 -313.560095 
L 613.034963 -317.67782 
L 610.955632 -321.795546 
L 608.828498 -325.913272 
L 606.676064 -330.030997 
L 604.703708 -334.148723 
L 603.161145 -338.266448 
L 602.136281 -342.384174 
L 601.487478 -346.5019 
L 600.981055 -350.619625 
L 600.462442 -354.737351 
L 599.891379 -358.855076 
L 599.293978 -362.972802 
L 598.764993 -367.090527 
L 598.5 -371.208253 
L 598.745915 -375.325979 
L 599.671084 -379.443704 
L 601.270395 -383.56143 
L 603.381656 -387.679155 
L 605.781174 -391.796881 
L 608.272003 -395.914607 
L 610.713246 -400.032332 
L 613.019602 -404.150058 
L 615.178044 -408.267783 
L 617.249625 -412.385509 
L 619.294679 -416.503234 
L 621.272449 -420.62096 
L 623.055842 -424.738686 
L 624.588702 -428.856411 
L 626.01469 -432.974137 
L 627.60299 -437.091862 
L 629.525918 -441.209588 
L 631.720082 -445.327314 
L 633.958601 -449.445039 
L 636.027956 -453.562765 
L 637.836174 -457.68049 
L 639.405665 -461.798216 
L 640.815024 -465.915941 
L 642.147623 -470.033667 
L 643.461217 -474.151393 
L 644.776733 -478.269118 
L 646.081239 -482.386844 
L 647.33985 -486.504569 
L 648.514727 -490.622295 
L 649.58104 -494.740021 
L 650.522782 -498.857746 
L 651.316035 -502.975472 
L 651.933652 -507.093197 
L 652.378614 -511.210923 
L 652.704239 -515.328648 
L 652.986543 -519.446374 
L 653.272477 -523.5641 
L 653.556604 -527.681825 
L 653.803802 -531.799551 
L 653.987641 -535.917276 
L 654.108221 -540.035002 
L 654.183297 -544.152728 
L 654.231228 -548.270453 
L 654.262614 -552.388179 
L 654.282089 -556.505904 
L 654.292666 -560.62363 
L 654.307334 -560.62363 
L 654.307334 -560.62363 
L 654.317911 -556.505904 
L 654.337386 -552.388179 
L 654.368772 -548.270453 
L 654.416703 -544.152728 
L 654.491779 -540.035002 
L 654.612359 -535.917276 
L 654.796198 -531.799551 
L 655.043396 -527.681825 
L 655.327523 -523.5641 
L 655.613457 -519.446374 
L 655.895761 -515.328648 
L 656.221386 -511.210923 
L 656.666348 -507.093197 
L 657.283965 -502.975472 
L 658.077218 -498.857746 
L 659.01896 -494.740021 
L 660.085273 -490.622295 
L 661.26015 -486.504569 
L 662.518761 -482.386844 
L 663.823267 -478.269118 
L 665.138783 -474.151393 
L 666.452377 -470.033667 
L 667.784976 -465.915941 
L 669.194335 -461.798216 
L 670.763826 -457.68049 
L 672.572044 -453.562765 
L 674.641399 -449.445039 
L 676.879918 -445.327314 
L 679.074082 -441.209588 
L 680.99701 -437.091862 
L 682.58531 -432.974137 
L 684.011298 -428.856411 
L 685.544158 -424.738686 
L 687.327551 -420.62096 
L 689.305321 -416.503234 
L 691.350375 -412.385509 
L 693.421956 -408.267783 
L 695.580398 -404.150058 
L 697.886754 -400.032332 
L 700.327997 -395.914607 
L 702.818826 -391.796881 
L 705.218344 -387.679155 
L 707.329605 -383.56143 
L 708.928916 -379.443704 
L 709.854085 -375.325979 
L 710.1 -371.208253 
L 709.835007 -367.090527 
L 709.306022 -362.972802 
L 708.708621 -358.855076 
L 708.137558 -354.737351 
L 707.618945 -350.619625 
L 707.112522 -346.5019 
L 706.463719 -342.384174 
L 705.438855 -338.266448 
L 703.896292 -334.148723 
L 701.923936 -330.030997 
L 699.771502 -325.913272 
L 697.644368 -321.795546 
L 695.565037 -317.67782 
L 693.401868 -313.560095 
L 691.005244 -309.442369 
L 688.339581 -305.324644 
L 685.523807 -301.206918 
L 682.753002 -297.089193 
L 680.16872 -292.971467 
L 677.794535 -288.853741 
L 675.576566 -284.736016 
L 673.457967 -280.61829 
L 671.417381 -276.500565 
L 669.477441 -272.382839 
L 667.705978 -268.265113 
L 666.193792 -264.147388 
L 664.998558 -260.029662 
L 664.094003 -255.911937 
L 663.373347 -251.794211 
L 662.707206 -247.676486 
L 662.008444 -243.55876 
L 661.257682 -239.441034 
L 660.482389 -235.323309 
L 659.717803 -231.205583 
L 658.981881 -227.087858 
L 658.275309 -222.970132 
L 657.596044 -218.852406 
L 656.951817 -214.734681 
L 656.362351 -210.616955 
L 655.853783 -206.49923 
L 655.449473 -202.381504 
L 655.158336 -198.263779 
L 654.965936 -194.146053 
L 654.838114 -190.028327 
L 654.737956 -185.910602 
L 654.643186 -181.792876 
L 654.55084 -177.675151 
L 654.468814 -173.557425 
L 654.404487 -169.439699 
L 654.359443 -165.321974 
L 654.3308 -161.204248 
L 654.314258 -157.086523 
L 654.30576 -152.968797 
z
" id="mfa1f522f7c" style="stroke:#325c96;stroke-width:1.75;"/>
    </defs>
    <g clip-path="url(#pd908ed2ec4)">
     <use style="fill:#325c96;stroke:#325c96;stroke-width:1.75;" x="0.0" xlink:href="#mfa1f522f7c" y="792.0"/>
    </g>
   </g>
   <g id="PolyCollection_5">
    <defs>
     <path d="M 821.728774 -162.929378 
L 821.671226 -162.929378 
L 821.62981 -166.925893 
L 821.554229 -170.922408 
L 821.439298 -174.918922 
L 821.291159 -178.915437 
L 821.121231 -182.911952 
L 820.927582 -186.908466 
L 820.676129 -190.904981 
L 820.299522 -194.901496 
L 819.71978 -198.898011 
L 818.881296 -202.894525 
L 817.771951 -206.89104 
L 816.420649 -210.887555 
L 814.879817 -214.884069 
L 813.211596 -218.880584 
L 811.485947 -222.877099 
L 809.779911 -226.873614 
L 808.165121 -230.870128 
L 806.691344 -234.866643 
L 805.385592 -238.863158 
L 804.262423 -242.859672 
L 803.317768 -246.856187 
L 802.506064 -250.852702 
L 801.739437 -254.849216 
L 800.92369 -258.845731 
L 799.991508 -262.842246 
L 798.897892 -266.838761 
L 797.593351 -270.835275 
L 796.009322 -274.83179 
L 794.073693 -278.828305 
L 791.756733 -282.824819 
L 789.120805 -286.821334 
L 786.321555 -290.817849 
L 783.540461 -294.814364 
L 780.903431 -298.810878 
L 778.456924 -302.807393 
L 776.206115 -306.803908 
L 774.157189 -310.800422 
L 772.315296 -314.796937 
L 770.652992 -318.793452 
L 769.117535 -322.789967 
L 767.713815 -326.786481 
L 766.583001 -330.782996 
L 765.943173 -334.779511 
L 765.9 -338.776025 
L 766.334688 -342.77254 
L 767.032224 -346.769055 
L 767.914879 -350.765569 
L 769.089814 -354.762084 
L 770.661981 -358.758599 
L 772.577834 -362.755114 
L 774.69512 -366.751628 
L 776.942611 -370.748143 
L 779.343137 -374.744658 
L 781.9117 -378.741172 
L 784.602892 -382.737687 
L 787.357387 -386.734202 
L 790.142959 -390.730717 
L 792.933208 -394.727231 
L 795.683506 -398.723746 
L 798.351104 -402.720261 
L 800.920647 -406.716775 
L 803.3894 -410.71329 
L 805.73261 -414.709805 
L 807.89745 -418.706319 
L 809.830778 -422.702834 
L 811.503801 -426.699349 
L 812.914187 -430.695864 
L 814.084839 -434.692378 
L 815.070624 -438.688893 
L 815.948841 -442.685408 
L 816.778419 -446.681922 
L 817.561453 -450.678437 
L 818.250697 -454.674952 
L 818.797963 -458.671467 
L 819.196315 -462.667981 
L 819.481882 -466.664496 
L 819.704251 -470.661011 
L 819.898836 -474.657525 
L 820.081683 -478.65404 
L 820.259141 -482.650555 
L 820.435462 -486.647069 
L 820.614152 -490.643584 
L 820.797665 -494.640099 
L 820.985597 -498.636614 
L 821.170542 -502.633128 
L 821.336807 -506.629643 
L 821.466461 -510.626158 
L 821.548833 -514.622672 
L 821.586134 -518.619187 
L 821.591955 -522.615702 
L 821.58453 -526.612217 
L 821.579127 -530.608731 
L 821.583708 -534.605246 
L 821.59912 -538.601761 
L 821.62178 -542.598275 
L 821.646367 -546.59479 
L 821.66792 -550.591305 
L 821.683491 -554.587819 
L 821.692775 -558.584334 
L 821.707225 -558.584334 
L 821.707225 -558.584334 
L 821.716509 -554.587819 
L 821.73208 -550.591305 
L 821.753633 -546.59479 
L 821.77822 -542.598275 
L 821.80088 -538.601761 
L 821.816292 -534.605246 
L 821.820873 -530.608731 
L 821.81547 -526.612217 
L 821.808045 -522.615702 
L 821.813866 -518.619187 
L 821.851167 -514.622672 
L 821.933539 -510.626158 
L 822.063193 -506.629643 
L 822.229458 -502.633128 
L 822.414403 -498.636614 
L 822.602335 -494.640099 
L 822.785848 -490.643584 
L 822.964538 -486.647069 
L 823.140859 -482.650555 
L 823.318317 -478.65404 
L 823.501164 -474.657525 
L 823.695749 -470.661011 
L 823.918118 -466.664496 
L 824.203685 -462.667981 
L 824.602037 -458.671467 
L 825.149303 -454.674952 
L 825.838547 -450.678437 
L 826.621581 -446.681922 
L 827.451159 -442.685408 
L 828.329376 -438.688893 
L 829.315161 -434.692378 
L 830.485813 -430.695864 
L 831.896199 -426.699349 
L 833.569222 -422.702834 
L 835.50255 -418.706319 
L 837.66739 -414.709805 
L 840.0106 -410.71329 
L 842.479353 -406.716775 
L 845.048896 -402.720261 
L 847.716494 -398.723746 
L 850.466792 -394.727231 
L 853.257041 -390.730717 
L 856.042613 -386.734202 
L 858.797108 -382.737687 
L 861.4883 -378.741172 
L 864.056863 -374.744658 
L 866.457389 -370.748143 
L 868.70488 -366.751628 
L 870.822166 -362.755114 
L 872.738019 -358.758599 
L 874.310186 -354.762084 
L 875.485121 -350.765569 
L 876.367776 -346.769055 
L 877.065312 -342.77254 
L 877.5 -338.776025 
L 877.456827 -334.779511 
L 876.816999 -330.782996 
L 875.686185 -326.786481 
L 874.282465 -322.789967 
L 872.747008 -318.793452 
L 871.084704 -314.796937 
L 869.242811 -310.800422 
L 867.193885 -306.803908 
L 864.943076 -302.807393 
L 862.496569 -298.810878 
L 859.859539 -294.814364 
L 857.078445 -290.817849 
L 854.279195 -286.821334 
L 851.643267 -282.824819 
L 849.326307 -278.828305 
L 847.390678 -274.83179 
L 845.806649 -270.835275 
L 844.502108 -266.838761 
L 843.408492 -262.842246 
L 842.47631 -258.845731 
L 841.660563 -254.849216 
L 840.893936 -250.852702 
L 840.082232 -246.856187 
L 839.137577 -242.859672 
L 838.014408 -238.863158 
L 836.708656 -234.866643 
L 835.234879 -230.870128 
L 833.620089 -226.873614 
L 831.914053 -222.877099 
L 830.188404 -218.880584 
L 828.520183 -214.884069 
L 826.979351 -210.887555 
L 825.628049 -206.89104 
L 824.518704 -202.894525 
L 823.68022 -198.898011 
L 823.100478 -194.901496 
L 822.723871 -190.904981 
L 822.472418 -186.908466 
L 822.278769 -182.911952 
L 822.108841 -178.915437 
L 821.960702 -174.918922 
L 821.845771 -170.922408 
L 821.77019 -166.925893 
L 821.728774 -162.929378 
z
" id="m403e08d49c" style="stroke:#ebf2c3;stroke-width:1.75;"/>
    </defs>
    <g clip-path="url(#pd908ed2ec4)">
     <use style="fill:#ebf2c3;stroke:#ebf2c3;stroke-width:1.75;" x="0.0" xlink:href="#m403e08d49c" y="792.0"/>
    </g>
   </g>
   <g id="PolyCollection_6">
    <defs>
     <path d="M 933.30382 -155.313166 
L 933.29618 -155.313166 
L 933.29063 -159.386575 
L 933.281926 -163.459984 
L 933.271776 -167.533393 
L 933.261783 -171.606802 
L 933.249586 -175.680211 
L 933.229248 -179.75362 
L 933.198073 -183.827029 
L 933.161579 -187.900438 
L 933.128772 -191.973847 
L 933.103943 -196.047256 
L 933.085997 -200.120665 
L 933.071823 -204.194074 
L 933.053635 -208.267483 
L 933.015703 -212.340892 
L 932.941123 -216.414301 
L 932.822316 -220.48771 
L 932.663623 -224.561119 
L 932.476319 -228.634528 
L 932.270921 -232.707937 
L 932.048215 -236.781346 
L 931.790098 -240.854755 
L 931.456787 -244.928163 
L 931.003299 -249.001572 
L 930.409615 -253.074981 
L 929.684963 -257.14839 
L 928.829516 -261.221799 
L 927.805509 -265.295208 
L 926.568335 -269.368617 
L 925.126107 -273.442026 
L 923.557288 -277.515435 
L 921.968683 -281.588844 
L 920.426922 -285.662253 
L 918.891332 -289.735662 
L 917.19467 -293.809071 
L 915.14912 -297.88248 
L 912.737732 -301.955889 
L 910.174415 -306.029298 
L 907.71808 -310.102707 
L 905.442191 -314.176116 
L 903.205389 -318.249525 
L 900.804752 -322.322934 
L 898.153966 -326.396343 
L 895.386516 -330.469752 
L 892.822879 -334.543161 
L 890.784438 -338.616569 
L 889.360218 -342.689978 
L 888.325992 -346.763387 
L 887.322234 -350.836796 
L 886.133476 -354.910205 
L 884.785537 -358.983614 
L 883.413519 -363.057023 
L 882.133645 -367.130432 
L 881.05855 -371.203841 
L 880.33781 -375.27725 
L 880.115373 -379.350659 
L 880.455248 -383.424068 
L 881.308307 -387.497477 
L 882.53949 -391.570886 
L 883.98325 -395.644295 
L 885.477098 -399.717704 
L 886.913039 -403.791113 
L 888.343632 -407.864522 
L 889.984393 -411.937931 
L 891.988215 -416.01134 
L 894.22286 -420.084749 
L 896.358692 -424.158158 
L 898.185971 -428.231566 
L 899.814196 -432.304975 
L 901.571016 -436.378384 
L 903.712484 -440.451793 
L 906.203284 -444.525202 
L 908.752957 -448.598611 
L 911.04535 -452.67202 
L 912.934588 -456.745429 
L 914.483067 -460.818838 
L 915.881378 -464.892247 
L 917.323974 -468.965656 
L 918.908103 -473.039065 
L 920.617757 -477.112474 
L 922.380891 -481.185883 
L 924.123681 -485.259292 
L 925.785128 -489.332701 
L 927.312417 -493.40611 
L 928.649496 -497.479519 
L 929.728506 -501.552928 
L 930.496472 -505.626337 
L 930.971246 -509.699746 
L 931.259995 -513.773155 
L 931.505034 -517.846564 
L 931.801728 -521.919972 
L 932.156196 -525.993381 
L 932.509435 -530.06679 
L 932.797653 -534.140199 
L 932.995938 -538.213608 
L 933.119228 -542.287017 
L 933.195785 -546.360426 
L 933.245024 -550.433835 
L 933.275118 -554.507244 
L 933.290767 -558.580653 
L 933.309233 -558.580653 
L 933.309233 -558.580653 
L 933.324882 -554.507244 
L 933.354976 -550.433835 
L 933.404215 -546.360426 
L 933.480772 -542.287017 
L 933.604062 -538.213608 
L 933.802347 -534.140199 
L 934.090565 -530.06679 
L 934.443804 -525.993381 
L 934.798272 -521.919972 
L 935.094966 -517.846564 
L 935.340005 -513.773155 
L 935.628754 -509.699746 
L 936.103528 -505.626337 
L 936.871494 -501.552928 
L 937.950504 -497.479519 
L 939.287583 -493.40611 
L 940.814872 -489.332701 
L 942.476319 -485.259292 
L 944.219109 -481.185883 
L 945.982243 -477.112474 
L 947.691897 -473.039065 
L 949.276026 -468.965656 
L 950.718622 -464.892247 
L 952.116933 -460.818838 
L 953.665412 -456.745429 
L 955.55465 -452.67202 
L 957.847043 -448.598611 
L 960.396716 -444.525202 
L 962.887516 -440.451793 
L 965.028984 -436.378384 
L 966.785804 -432.304975 
L 968.414029 -428.231566 
L 970.241308 -424.158158 
L 972.37714 -420.084749 
L 974.611785 -416.01134 
L 976.615607 -411.937931 
L 978.256368 -407.864522 
L 979.686961 -403.791113 
L 981.122902 -399.717704 
L 982.61675 -395.644295 
L 984.06051 -391.570886 
L 985.291693 -387.497477 
L 986.144752 -383.424068 
L 986.484627 -379.350659 
L 986.26219 -375.27725 
L 985.54145 -371.203841 
L 984.466355 -367.130432 
L 983.186481 -363.057023 
L 981.814463 -358.983614 
L 980.466524 -354.910205 
L 979.277766 -350.836796 
L 978.274008 -346.763387 
L 977.239782 -342.689978 
L 975.815562 -338.616569 
L 973.777121 -334.543161 
L 971.213484 -330.469752 
L 968.446034 -326.396343 
L 965.795248 -322.322934 
L 963.394611 -318.249525 
L 961.157809 -314.176116 
L 958.88192 -310.102707 
L 956.425585 -306.029298 
L 953.862268 -301.955889 
L 951.45088 -297.88248 
L 949.40533 -293.809071 
L 947.708668 -289.735662 
L 946.173078 -285.662253 
L 944.631317 -281.588844 
L 943.042712 -277.515435 
L 941.473893 -273.442026 
L 940.031665 -269.368617 
L 938.794491 -265.295208 
L 937.770484 -261.221799 
L 936.915037 -257.14839 
L 936.190385 -253.074981 
L 935.596701 -249.001572 
L 935.143213 -244.928163 
L 934.809902 -240.854755 
L 934.551785 -236.781346 
L 934.329079 -232.707937 
L 934.123681 -228.634528 
L 933.936377 -224.561119 
L 933.777684 -220.48771 
L 933.658877 -216.414301 
L 933.584297 -212.340892 
L 933.546365 -208.267483 
L 933.528177 -204.194074 
L 933.514003 -200.120665 
L 933.496057 -196.047256 
L 933.471228 -191.973847 
L 933.438421 -187.900438 
L 933.401927 -183.827029 
L 933.370752 -179.75362 
L 933.350414 -175.680211 
L 933.338217 -171.606802 
L 933.328224 -167.533393 
L 933.318074 -163.459984 
L 933.30937 -159.386575 
L 933.30382 -155.313166 
z
" id="m5cd0cbd1d1" style="stroke:#325c96;stroke-width:1.75;"/>
    </defs>
    <g clip-path="url(#pd908ed2ec4)">
     <use style="fill:#325c96;stroke:#325c96;stroke-width:1.75;" x="0.0" xlink:href="#m5cd0cbd1d1" y="792.0"/>
    </g>
   </g>
   <g id="PolyCollection_7">
    <defs>
     <path d="M 1100.701756 -133.694017 
L 1100.698244 -133.694017 
L 1100.69533 -138.270349 
L 1100.691003 -142.84668 
L 1100.687319 -147.423011 
L 1100.686312 -151.999342 
L 1100.686419 -156.575673 
L 1100.682065 -161.152004 
L 1100.666678 -165.728335 
L 1100.633406 -170.304667 
L 1100.572995 -174.880998 
L 1100.476891 -179.457329 
L 1100.345923 -184.03366 
L 1100.189281 -188.609991 
L 1100.005395 -193.186322 
L 1099.764136 -197.762653 
L 1099.420409 -202.338985 
L 1098.950418 -206.915316 
L 1098.363629 -211.491647 
L 1097.68303 -216.067978 
L 1096.936009 -220.644309 
L 1096.163639 -225.22064 
L 1095.405809 -229.796971 
L 1094.664453 -234.373302 
L 1093.921292 -238.949634 
L 1093.199252 -243.525965 
L 1092.536226 -248.102296 
L 1091.891456 -252.678627 
L 1091.156901 -257.254958 
L 1090.251184 -261.831289 
L 1089.135487 -266.40762 
L 1087.782954 -270.983952 
L 1086.210497 -275.560283 
L 1084.505721 -280.136614 
L 1082.765014 -284.712945 
L 1081.015595 -289.289276 
L 1079.200757 -293.865607 
L 1077.236454 -298.441938 
L 1075.122344 -303.01827 
L 1072.989207 -307.594601 
L 1070.980861 -312.170932 
L 1069.093821 -316.747263 
L 1067.159173 -321.323594 
L 1065.023703 -325.899925 
L 1062.806803 -330.476256 
L 1060.918163 -335.052587 
L 1059.692249 -339.628919 
L 1059.026763 -344.20525 
L 1058.526634 -348.781581 
L 1057.989007 -353.357912 
L 1057.544342 -357.934243 
L 1057.323095 -362.510574 
L 1057.265617 -367.086905 
L 1057.325994 -371.663237 
L 1057.60844 -376.239568 
L 1058.241845 -380.815899 
L 1059.288265 -385.39223 
L 1060.737622 -389.968561 
L 1062.462053 -394.544892 
L 1064.235427 -399.121223 
L 1065.894362 -403.697554 
L 1067.482162 -408.273886 
L 1069.187508 -412.850217 
L 1071.102913 -417.426548 
L 1073.085101 -422.002879 
L 1074.914622 -426.57921 
L 1076.553925 -431.155541 
L 1078.181533 -435.731872 
L 1079.971553 -440.308204 
L 1081.87472 -444.884535 
L 1083.662501 -449.460866 
L 1085.170245 -454.037197 
L 1086.41995 -458.613528 
L 1087.533719 -463.189859 
L 1088.620039 -467.76619 
L 1089.728232 -472.342522 
L 1090.856944 -476.918853 
L 1091.995351 -481.495184 
L 1093.141743 -486.071515 
L 1094.283338 -490.647846 
L 1095.384132 -495.224177 
L 1096.384716 -499.800508 
L 1097.21433 -504.376839 
L 1097.839473 -508.953171 
L 1098.300313 -513.529502 
L 1098.682015 -518.105833 
L 1099.055791 -522.682164 
L 1099.439326 -527.258495 
L 1099.800489 -531.834826 
L 1100.098901 -536.411157 
L 1100.320626 -540.987489 
L 1100.475272 -545.56382 
L 1100.576451 -550.140151 
L 1100.635308 -554.716482 
L 1100.664235 -559.292813 
L 1100.676198 -563.869144 
L 1100.681238 -568.445475 
L 1100.685377 -573.021807 
L 1100.690456 -577.598138 
L 1100.695218 -582.174469 
L 1100.698227 -586.7508 
L 1100.701773 -586.7508 
L 1100.701773 -586.7508 
L 1100.704782 -582.174469 
L 1100.709544 -577.598138 
L 1100.714623 -573.021807 
L 1100.718762 -568.445475 
L 1100.723802 -563.869144 
L 1100.735765 -559.292813 
L 1100.764692 -554.716482 
L 1100.823549 -550.140151 
L 1100.924728 -545.56382 
L 1101.079374 -540.987489 
L 1101.301099 -536.411157 
L 1101.599511 -531.834826 
L 1101.960674 -527.258495 
L 1102.344209 -522.682164 
L 1102.717985 -518.105833 
L 1103.099687 -513.529502 
L 1103.560527 -508.953171 
L 1104.18567 -504.376839 
L 1105.015284 -499.800508 
L 1106.015868 -495.224177 
L 1107.116662 -490.647846 
L 1108.258257 -486.071515 
L 1109.404649 -481.495184 
L 1110.543056 -476.918853 
L 1111.671768 -472.342522 
L 1112.779961 -467.76619 
L 1113.866281 -463.189859 
L 1114.98005 -458.613528 
L 1116.229755 -454.037197 
L 1117.737499 -449.460866 
L 1119.52528 -444.884535 
L 1121.428447 -440.308204 
L 1123.218467 -435.731872 
L 1124.846075 -431.155541 
L 1126.485378 -426.57921 
L 1128.314899 -422.002879 
L 1130.297087 -417.426548 
L 1132.212492 -412.850217 
L 1133.917838 -408.273886 
L 1135.505638 -403.697554 
L 1137.164573 -399.121223 
L 1138.937947 -394.544892 
L 1140.662378 -389.968561 
L 1142.111735 -385.39223 
L 1143.158155 -380.815899 
L 1143.79156 -376.239568 
L 1144.074006 -371.663237 
L 1144.134383 -367.086905 
L 1144.076905 -362.510574 
L 1143.855658 -357.934243 
L 1143.410993 -353.357912 
L 1142.873366 -348.781581 
L 1142.373237 -344.20525 
L 1141.707751 -339.628919 
L 1140.481837 -335.052587 
L 1138.593197 -330.476256 
L 1136.376297 -325.899925 
L 1134.240827 -321.323594 
L 1132.306179 -316.747263 
L 1130.419139 -312.170932 
L 1128.410793 -307.594601 
L 1126.277656 -303.01827 
L 1124.163546 -298.441938 
L 1122.199243 -293.865607 
L 1120.384405 -289.289276 
L 1118.634986 -284.712945 
L 1116.894279 -280.136614 
L 1115.189503 -275.560283 
L 1113.617046 -270.983952 
L 1112.264513 -266.40762 
L 1111.148816 -261.831289 
L 1110.243099 -257.254958 
L 1109.508544 -252.678627 
L 1108.863774 -248.102296 
L 1108.200748 -243.525965 
L 1107.478708 -238.949634 
L 1106.735547 -234.373302 
L 1105.994191 -229.796971 
L 1105.236361 -225.22064 
L 1104.463991 -220.644309 
L 1103.71697 -216.067978 
L 1103.036371 -211.491647 
L 1102.449582 -206.915316 
L 1101.979591 -202.338985 
L 1101.635864 -197.762653 
L 1101.394605 -193.186322 
L 1101.210719 -188.609991 
L 1101.054077 -184.03366 
L 1100.923109 -179.457329 
L 1100.827005 -174.880998 
L 1100.766594 -170.304667 
L 1100.733322 -165.728335 
L 1100.717935 -161.152004 
L 1100.713581 -156.575673 
L 1100.713688 -151.999342 
L 1100.712681 -147.423011 
L 1100.708997 -142.84668 
L 1100.70467 -138.270349 
L 1100.701756 -133.694017 
z
" id="m7279878d3e" style="stroke:#ebf2c3;stroke-width:1.75;"/>
    </defs>
    <g clip-path="url(#pd908ed2ec4)">
     <use style="fill:#ebf2c3;stroke:#ebf2c3;stroke-width:1.75;" x="0.0" xlink:href="#m7279878d3e" y="792.0"/>
    </g>
   </g>
   <g id="PolyCollection_8">
    <defs>
     <path d="M 1212.301684 -173.237064 
L 1212.298316 -173.237064 
L 1212.294789 -177.463812 
L 1212.287967 -181.690561 
L 1212.277755 -185.917309 
L 1212.262885 -190.144058 
L 1212.23776 -194.370806 
L 1212.19436 -198.597555 
L 1212.125017 -202.824303 
L 1212.019659 -207.051052 
L 1211.869062 -211.2778 
L 1211.674829 -215.504548 
L 1211.442383 -219.731297 
L 1211.16466 -223.958045 
L 1210.827905 -228.184794 
L 1210.429327 -232.411542 
L 1209.981886 -236.638291 
L 1209.507872 -240.865039 
L 1209.028493 -245.091788 
L 1208.566715 -249.318536 
L 1208.16311 -253.545285 
L 1207.85434 -257.772033 
L 1207.627143 -261.998782 
L 1207.441681 -266.22553 
L 1207.301595 -270.452278 
L 1207.242319 -274.679027 
L 1207.249733 -278.905775 
L 1207.255423 -283.132524 
L 1207.221929 -287.359272 
L 1207.16865 -291.586021 
L 1207.100849 -295.812769 
L 1206.967752 -300.039518 
L 1206.703978 -304.266266 
L 1206.298767 -308.493015 
L 1205.818872 -312.719763 
L 1205.330592 -316.946512 
L 1204.818586 -321.17326 
L 1204.235339 -325.400009 
L 1203.576313 -329.626757 
L 1202.872047 -333.853505 
L 1202.159338 -338.080254 
L 1201.429054 -342.307002 
L 1200.574158 -346.533751 
L 1199.4607 -350.760499 
L 1198.040073 -354.987248 
L 1196.320633 -359.213996 
L 1194.292416 -363.440745 
L 1191.970757 -367.667493 
L 1189.444817 -371.894242 
L 1186.790357 -376.12099 
L 1183.99256 -380.347739 
L 1181.019587 -384.574487 
L 1177.895214 -388.801235 
L 1174.671714 -393.027984 
L 1171.426974 -397.254732 
L 1168.27327 -401.481481 
L 1165.319967 -405.708229 
L 1162.668191 -409.934978 
L 1160.396978 -414.161726 
L 1158.537206 -418.388475 
L 1157.172978 -422.615223 
L 1156.5 -426.841972 
L 1156.620774 -431.06872 
L 1157.376986 -435.295469 
L 1158.511724 -439.522217 
L 1159.92473 -443.748966 
L 1161.678951 -447.975714 
L 1163.794934 -452.202462 
L 1166.179555 -456.429211 
L 1168.751858 -460.655959 
L 1171.454163 -464.882708 
L 1174.156061 -469.109456 
L 1176.746862 -473.336205 
L 1179.294011 -477.562953 
L 1181.931693 -481.789702 
L 1184.658337 -486.01645 
L 1187.387848 -490.243199 
L 1190.089332 -494.469947 
L 1192.767499 -498.696696 
L 1195.400896 -502.923444 
L 1197.9399 -507.150192 
L 1200.32482 -511.376941 
L 1202.510767 -515.603689 
L 1204.463956 -519.830438 
L 1206.139556 -524.057186 
L 1207.510395 -528.283935 
L 1208.599078 -532.510683 
L 1209.452671 -536.737432 
L 1210.110822 -540.96418 
L 1210.595189 -545.190929 
L 1210.919866 -549.417677 
L 1211.115639 -553.644426 
L 1211.233817 -557.871174 
L 1211.336323 -562.097923 
L 1211.479364 -566.324671 
L 1211.678749 -570.551419 
L 1211.897779 -574.778168 
L 1212.083192 -579.004916 
L 1212.205261 -583.231665 
L 1212.267407 -587.458413 
L 1212.291416 -591.685162 
L 1212.308584 -591.685162 
L 1212.308584 -591.685162 
L 1212.332593 -587.458413 
L 1212.394739 -583.231665 
L 1212.516808 -579.004916 
L 1212.702221 -574.778168 
L 1212.921251 -570.551419 
L 1213.120636 -566.324671 
L 1213.263677 -562.097923 
L 1213.366183 -557.871174 
L 1213.484361 -553.644426 
L 1213.680134 -549.417677 
L 1214.004811 -545.190929 
L 1214.489178 -540.96418 
L 1215.147329 -536.737432 
L 1216.000922 -532.510683 
L 1217.089605 -528.283935 
L 1218.460444 -524.057186 
L 1220.136044 -519.830438 
L 1222.089233 -515.603689 
L 1224.27518 -511.376941 
L 1226.6601 -507.150192 
L 1229.199104 -502.923444 
L 1231.832501 -498.696696 
L 1234.510668 -494.469947 
L 1237.212152 -490.243199 
L 1239.941663 -486.01645 
L 1242.668307 -481.789702 
L 1245.305989 -477.562953 
L 1247.853138 -473.336205 
L 1250.443939 -469.109456 
L 1253.145837 -464.882708 
L 1255.848142 -460.655959 
L 1258.420445 -456.429211 
L 1260.805066 -452.202462 
L 1262.921049 -447.975714 
L 1264.67527 -443.748966 
L 1266.088276 -439.522217 
L 1267.223014 -435.295469 
L 1267.979226 -431.06872 
L 1268.1 -426.841972 
L 1267.427022 -422.615223 
L 1266.062794 -418.388475 
L 1264.203022 -414.161726 
L 1261.931809 -409.934978 
L 1259.280033 -405.708229 
L 1256.32673 -401.481481 
L 1253.173026 -397.254732 
L 1249.928286 -393.027984 
L 1246.704786 -388.801235 
L 1243.580413 -384.574487 
L 1240.60744 -380.347739 
L 1237.809643 -376.12099 
L 1235.155183 -371.894242 
L 1232.629243 -367.667493 
L 1230.307584 -363.440745 
L 1228.279367 -359.213996 
L 1226.559927 -354.987248 
L 1225.1393 -350.760499 
L 1224.025842 -346.533751 
L 1223.170946 -342.307002 
L 1222.440662 -338.080254 
L 1221.727953 -333.853505 
L 1221.023687 -329.626757 
L 1220.364661 -325.400009 
L 1219.781414 -321.17326 
L 1219.269408 -316.946512 
L 1218.781128 -312.719763 
L 1218.301233 -308.493015 
L 1217.896022 -304.266266 
L 1217.632248 -300.039518 
L 1217.499151 -295.812769 
L 1217.43135 -291.586021 
L 1217.378071 -287.359272 
L 1217.344577 -283.132524 
L 1217.350267 -278.905775 
L 1217.357681 -274.679027 
L 1217.298405 -270.452278 
L 1217.158319 -266.22553 
L 1216.972857 -261.998782 
L 1216.74566 -257.772033 
L 1216.43689 -253.545285 
L 1216.033285 -249.318536 
L 1215.571507 -245.091788 
L 1215.092128 -240.865039 
L 1214.618114 -236.638291 
L 1214.170673 -232.411542 
L 1213.772095 -228.184794 
L 1213.43534 -223.958045 
L 1213.157617 -219.731297 
L 1212.925171 -215.504548 
L 1212.730938 -211.2778 
L 1212.580341 -207.051052 
L 1212.474983 -202.824303 
L 1212.40564 -198.597555 
L 1212.36224 -194.370806 
L 1212.337115 -190.144058 
L 1212.322245 -185.917309 
L 1212.312033 -181.690561 
L 1212.305211 -177.463812 
L 1212.301684 -173.237064 
z
" id="mc070c69b74" style="stroke:#325c96;stroke-width:1.75;"/>
    </defs>
    <g clip-path="url(#pd908ed2ec4)">
     <use style="fill:#325c96;stroke:#325c96;stroke-width:1.75;" x="0.0" xlink:href="#mc070c69b74" y="792.0"/>
    </g>
   </g>
   <g id="patch_3">
    <path clip-path="url(#pd908ed2ec4)" d="M 319.5 1204.5 
L 319.5 1204.5 
L 319.5 1204.5 
L 319.5 1204.5 
z
" style="fill:#ebf2c3;stroke:#3c3c3c;stroke-linejoin:miter;stroke-width:0.875;"/>
   </g>
   <g id="patch_4">
    <path clip-path="url(#pd908ed2ec4)" d="M 319.5 1204.5 
L 319.5 1204.5 
L 319.5 1204.5 
L 319.5 1204.5 
z
" style="fill:#325c96;stroke:#3c3c3c;stroke-linejoin:miter;stroke-width:0.875;"/>
   </g>
   <g id="line2d_30">
    <path clip-path="url(#pd908ed2ec4)" d="M 263.7 587.925914 
L 263.7 263.757326 
" style="fill:none;stroke:#3c3c3c;stroke-linecap:round;stroke-width:1.75;"/>
   </g>
   <g id="line2d_31">
    <path clip-path="url(#pd908ed2ec4)" d="M 263.7 466.219543 
L 263.7 384.849089 
" style="fill:none;stroke:#3c3c3c;stroke-linecap:round;stroke-width:5.25;"/>
   </g>
   <g id="line2d_32">
    <path clip-path="url(#pd908ed2ec4)" d="M 375.3 579.603099 
L 375.3 279.789418 
" style="fill:none;stroke:#3c3c3c;stroke-linecap:round;stroke-width:1.75;"/>
   </g>
   <g id="line2d_33">
    <path clip-path="url(#pd908ed2ec4)" d="M 375.3 467.133217 
L 375.3 391.58625 
" style="fill:none;stroke:#3c3c3c;stroke-linecap:round;stroke-width:5.25;"/>
   </g>
   <g id="line2d_34">
    <path clip-path="url(#pd908ed2ec4)" d="M 542.7 582.094741 
L 542.7 274.247504 
" style="fill:none;stroke:#3c3c3c;stroke-linecap:round;stroke-width:1.75;"/>
   </g>
   <g id="line2d_35">
    <path clip-path="url(#pd908ed2ec4)" d="M 542.7 466.455871 
L 542.7 389.279575 
" style="fill:none;stroke:#3c3c3c;stroke-linecap:round;stroke-width:5.25;"/>
   </g>
   <g id="line2d_36">
    <path clip-path="url(#pd908ed2ec4)" d="M 654.3 584.57054 
L 654.3 271.913762 
" style="fill:none;stroke:#3c3c3c;stroke-linecap:round;stroke-width:1.75;"/>
   </g>
   <g id="line2d_37">
    <path clip-path="url(#pd908ed2ec4)" d="M 654.3 467.306831 
L 654.3 389.09706 
" style="fill:none;stroke:#3c3c3c;stroke-linecap:round;stroke-width:5.25;"/>
   </g>
   <g id="line2d_38">
    <path clip-path="url(#pd908ed2ec4)" d="M 821.7 600.887693 
L 821.7 316.723927 
" style="fill:none;stroke:#3c3c3c;stroke-linecap:round;stroke-width:1.75;"/>
   </g>
   <g id="line2d_39">
    <path clip-path="url(#pd908ed2ec4)" d="M 821.7 494.182862 
L 821.7 422.92505 
" style="fill:none;stroke:#3c3c3c;stroke-linecap:round;stroke-width:5.25;"/>
   </g>
   <g id="line2d_40">
    <path clip-path="url(#pd908ed2ec4)" d="M 933.3 562.391716 
L 933.3 264.368688 
" style="fill:none;stroke:#3c3c3c;stroke-linecap:round;stroke-width:1.75;"/>
   </g>
   <g id="line2d_41">
    <path clip-path="url(#pd908ed2ec4)" d="M 933.3 450.575162 
L 933.3 375.950028 
" style="fill:none;stroke:#3c3c3c;stroke-linecap:round;stroke-width:5.25;"/>
   </g>
   <g id="line2d_42">
    <path clip-path="url(#pd908ed2ec4)" d="M 1100.7 591.482745 
L 1100.7 261.823674 
" style="fill:none;stroke:#3c3c3c;stroke-linecap:round;stroke-width:1.75;"/>
   </g>
   <g id="line2d_43">
    <path clip-path="url(#pd908ed2ec4)" d="M 1100.7 467.879321 
L 1100.7 385.378392 
" style="fill:none;stroke:#3c3c3c;stroke-linecap:round;stroke-width:5.25;"/>
   </g>
   <g id="line2d_44">
    <path clip-path="url(#pd908ed2ec4)" d="M 1212.3 499.986325 
L 1212.3 233.214668 
" style="fill:none;stroke:#3c3c3c;stroke-linecap:round;stroke-width:1.75;"/>
   </g>
   <g id="line2d_45">
    <path clip-path="url(#pd908ed2ec4)" d="M 1212.3 399.932056 
L 1212.3 333.2123 
" style="fill:none;stroke:#3c3c3c;stroke-linecap:round;stroke-width:5.25;"/>
   </g>
   <g id="patch_5">
    <path d="M 180 79.2 
L 1296 79.2 
" style="fill:none;"/>
   </g>
   <g id="patch_6">
    <path d="M 180 693 
L 1296 693 
" style="fill:none;"/>
   </g>
   <g id="patch_7">
    <path d="M 1296 693 
L 1296 79.2 
" style="fill:none;"/>
   </g>
   <g id="patch_8">
    <path d="M 180 693 
L 180 79.2 
" style="fill:none;"/>
   </g>
   <g id="PathCollection_1">
    <defs>
     <path d="M 0 1.75 
C 0.464105 1.75 0.909265 1.565609 1.237437 1.237437 
C 1.565609 0.909265 1.75 0.464105 1.75 0 
C 1.75 -0.464105 1.565609 -0.909265 1.237437 -1.237437 
C 0.909265 -1.565609 0.464105 -1.75 0 -1.75 
C -0.464105 -1.75 -0.909265 -1.565609 -1.237437 -1.237437 
C -1.565609 -0.909265 -1.75 -0.464105 -1.75 0 
C -1.75 0.464105 -1.565609 0.909265 -1.237437 1.237437 
C -0.909265 1.565609 -0.464105 1.75 0 1.75 
z
" id="m933a0787f7" style="stroke:#3c3c3c;stroke-width:0.3;"/>
    </defs>
    <g clip-path="url(#pd908ed2ec4)">
     <use style="fill:#ffffff;stroke:#3c3c3c;stroke-width:0.3;" x="263.7" xlink:href="#m933a0787f7" y="426.738636677"/>
    </g>
   </g>
   <g id="PathCollection_2">
    <g clip-path="url(#pd908ed2ec4)">
     <use style="fill:#ffffff;stroke:#3c3c3c;stroke-width:0.3;" x="375.3" xlink:href="#m933a0787f7" y="429.224468061"/>
    </g>
   </g>
   <g id="PathCollection_3">
    <g clip-path="url(#pd908ed2ec4)">
     <use style="fill:#ffffff;stroke:#3c3c3c;stroke-width:0.3;" x="542.7" xlink:href="#m933a0787f7" y="429.117761439"/>
    </g>
   </g>
   <g id="PathCollection_4">
    <g clip-path="url(#pd908ed2ec4)">
     <use style="fill:#ffffff;stroke:#3c3c3c;stroke-width:0.3;" x="654.3" xlink:href="#m933a0787f7" y="427.978973824"/>
    </g>
   </g>
   <g id="PathCollection_5">
    <g clip-path="url(#pd908ed2ec4)">
     <use style="fill:#ffffff;stroke:#3c3c3c;stroke-width:0.3;" x="821.7" xlink:href="#m933a0787f7" y="457.662212911"/>
    </g>
   </g>
   <g id="PathCollection_6">
    <g clip-path="url(#pd908ed2ec4)">
     <use style="fill:#ffffff;stroke:#3c3c3c;stroke-width:0.3;" x="933.3" xlink:href="#m933a0787f7" y="413.195160023"/>
    </g>
   </g>
   <g id="PathCollection_7">
    <g clip-path="url(#pd908ed2ec4)">
     <use style="fill:#ffffff;stroke:#3c3c3c;stroke-width:0.3;" x="1100.7" xlink:href="#m933a0787f7" y="427.150394778"/>
    </g>
   </g>
   <g id="PathCollection_8">
    <g clip-path="url(#pd908ed2ec4)">
     <use style="fill:#ffffff;stroke:#3c3c3c;stroke-width:0.3;" x="1212.3" xlink:href="#m933a0787f7" y="365.38264616"/>
    </g>
   </g>
   <g id="text_14">
    <!-- Unweighted UniFrac -->
    <defs>
     <path d="M 54.890625 33.015625 
L 54.890625 0 
L 45.90625 0 
L 45.90625 32.71875 
Q 45.90625 40.484375 42.875 44.328125 
Q 39.84375 48.1875 33.796875 48.1875 
Q 26.515625 48.1875 22.3125 43.546875 
Q 18.109375 38.921875 18.109375 30.90625 
L 18.109375 0 
L 9.078125 0 
L 9.078125 75.984375 
L 18.109375 75.984375 
L 18.109375 46.1875 
Q 21.34375 51.125 25.703125 53.5625 
Q 30.078125 56 35.796875 56 
Q 45.21875 56 50.046875 50.171875 
Q 54.890625 44.34375 54.890625 33.015625 
" id="BitstreamVeraSans-Roman-68"/>
     <path d="M 9.8125 72.90625 
L 51.703125 72.90625 
L 51.703125 64.59375 
L 19.671875 64.59375 
L 19.671875 43.109375 
L 48.578125 43.109375 
L 48.578125 34.8125 
L 19.671875 34.8125 
L 19.671875 0 
L 9.8125 0 
z
" id="BitstreamVeraSans-Roman-46"/>
     <path d="M 45.40625 46.390625 
L 45.40625 75.984375 
L 54.390625 75.984375 
L 54.390625 0 
L 45.40625 0 
L 45.40625 8.203125 
Q 42.578125 3.328125 38.25 0.953125 
Q 33.9375 -1.421875 27.875 -1.421875 
Q 17.96875 -1.421875 11.734375 6.484375 
Q 5.515625 14.40625 5.515625 27.296875 
Q 5.515625 40.1875 11.734375 48.09375 
Q 17.96875 56 27.875 56 
Q 33.9375 56 38.25 53.625 
Q 42.578125 51.265625 45.40625 46.390625 
M 14.796875 27.296875 
Q 14.796875 17.390625 18.875 11.75 
Q 22.953125 6.109375 30.078125 6.109375 
Q 37.203125 6.109375 41.296875 11.75 
Q 45.40625 17.390625 45.40625 27.296875 
Q 45.40625 37.203125 41.296875 42.84375 
Q 37.203125 48.484375 30.078125 48.484375 
Q 22.953125 48.484375 18.875 42.84375 
Q 14.796875 37.203125 14.796875 27.296875 
" id="BitstreamVeraSans-Roman-64"/>
     <path d="M 8.6875 72.90625 
L 18.609375 72.90625 
L 18.609375 28.609375 
Q 18.609375 16.890625 22.84375 11.734375 
Q 27.09375 6.59375 36.625 6.59375 
Q 46.09375 6.59375 50.34375 11.734375 
Q 54.59375 16.890625 54.59375 28.609375 
L 54.59375 72.90625 
L 64.5 72.90625 
L 64.5 27.390625 
Q 64.5 13.140625 57.4375 5.859375 
Q 50.390625 -1.421875 36.625 -1.421875 
Q 22.796875 -1.421875 15.734375 5.859375 
Q 8.6875 13.140625 8.6875 27.390625 
z
" id="BitstreamVeraSans-Roman-55"/>
    </defs>
    <g style="fill:#262626;" transform="translate(628.9588125 74.2)scale(0.21600000000000003 -0.21600000000000003)">
     <use xlink:href="#BitstreamVeraSans-Roman-55"/>
     <use x="73.193359375" xlink:href="#BitstreamVeraSans-Roman-6e"/>
     <use x="136.572265625" xlink:href="#BitstreamVeraSans-Roman-77"/>
     <use x="218.359375" xlink:href="#BitstreamVeraSans-Roman-65"/>
     <use x="279.8828125" xlink:href="#BitstreamVeraSans-Roman-69"/>
     <use x="307.666015625" xlink:href="#BitstreamVeraSans-Roman-67"/>
     <use x="371.142578125" xlink:href="#BitstreamVeraSans-Roman-68"/>
     <use x="434.521484375" xlink:href="#BitstreamVeraSans-Roman-74"/>
     <use x="473.73046875" xlink:href="#BitstreamVeraSans-Roman-65"/>
     <use x="535.25390625" xlink:href="#BitstreamVeraSans-Roman-64"/>
     <use x="598.73046875" xlink:href="#BitstreamVeraSans-Roman-20"/>
     <use x="630.517578125" xlink:href="#BitstreamVeraSans-Roman-55"/>
     <use x="703.7109375" xlink:href="#BitstreamVeraSans-Roman-6e"/>
     <use x="767.08984375" xlink:href="#BitstreamVeraSans-Roman-69"/>
     <use x="794.873046875" xlink:href="#BitstreamVeraSans-Roman-46"/>
     <use x="852.283203125" xlink:href="#BitstreamVeraSans-Roman-72"/>
     <use x="893.396484375" xlink:href="#BitstreamVeraSans-Roman-61"/>
     <use x="954.67578125" xlink:href="#BitstreamVeraSans-Roman-63"/>
    </g>
   </g>
   <g id="legend_1">
    <g id="patch_9">
     <path d="M 1150.63875 109.077187 
L 1186.63875 109.077187 
L 1186.63875 96.477187 
L 1150.63875 96.477187 
z
" style="fill:#ebf2c3;stroke:#3c3c3c;stroke-linejoin:miter;stroke-width:0.875;"/>
    </g>
    <g id="text_15">
     <!-- Within -->
     <defs>
      <path d="M 3.328125 72.90625 
L 13.28125 72.90625 
L 28.609375 11.28125 
L 43.890625 72.90625 
L 54.984375 72.90625 
L 70.3125 11.28125 
L 85.59375 72.90625 
L 95.609375 72.90625 
L 77.296875 0 
L 64.890625 0 
L 49.515625 63.28125 
L 33.984375 0 
L 21.578125 0 
z
" id="BitstreamVeraSans-Roman-57"/>
     </defs>
     <g style="fill:#262626;" transform="translate(1201.03875 109.0771875)scale(0.18 -0.18)">
      <use xlink:href="#BitstreamVeraSans-Roman-57"/>
      <use x="98.845703125" xlink:href="#BitstreamVeraSans-Roman-69"/>
      <use x="126.62890625" xlink:href="#BitstreamVeraSans-Roman-74"/>
      <use x="165.837890625" xlink:href="#BitstreamVeraSans-Roman-68"/>
      <use x="229.216796875" xlink:href="#BitstreamVeraSans-Roman-69"/>
      <use x="257.0" xlink:href="#BitstreamVeraSans-Roman-6e"/>
     </g>
    </g>
    <g id="patch_10">
     <path d="M 1150.63875 135.497812 
L 1186.63875 135.497812 
L 1186.63875 122.897812 
L 1150.63875 122.897812 
z
" style="fill:#325c96;stroke:#3c3c3c;stroke-linejoin:miter;stroke-width:0.875;"/>
    </g>
    <g id="text_16">
     <!-- Between -->
     <defs>
      <path d="M 19.671875 34.8125 
L 19.671875 8.109375 
L 35.5 8.109375 
Q 43.453125 8.109375 47.28125 11.40625 
Q 51.125 14.703125 51.125 21.484375 
Q 51.125 28.328125 47.28125 31.5625 
Q 43.453125 34.8125 35.5 34.8125 
z
M 19.671875 64.796875 
L 19.671875 42.828125 
L 34.28125 42.828125 
Q 41.5 42.828125 45.03125 45.53125 
Q 48.578125 48.25 48.578125 53.8125 
Q 48.578125 59.328125 45.03125 62.0625 
Q 41.5 64.796875 34.28125 64.796875 
z
M 9.8125 72.90625 
L 35.015625 72.90625 
Q 46.296875 72.90625 52.390625 68.21875 
Q 58.5 63.53125 58.5 54.890625 
Q 58.5 48.1875 55.375 44.234375 
Q 52.25 40.28125 46.1875 39.3125 
Q 53.46875 37.75 57.5 32.78125 
Q 61.53125 27.828125 61.53125 20.40625 
Q 61.53125 10.640625 54.890625 5.3125 
Q 48.25 0 35.984375 0 
L 9.8125 0 
z
" id="BitstreamVeraSans-Roman-42"/>
     </defs>
     <g style="fill:#262626;" transform="translate(1201.03875 135.4978125)scale(0.18 -0.18)">
      <use xlink:href="#BitstreamVeraSans-Roman-42"/>
      <use x="68.603515625" xlink:href="#BitstreamVeraSans-Roman-65"/>
      <use x="130.126953125" xlink:href="#BitstreamVeraSans-Roman-74"/>
      <use x="169.3359375" xlink:href="#BitstreamVeraSans-Roman-77"/>
      <use x="251.123046875" xlink:href="#BitstreamVeraSans-Roman-65"/>
      <use x="312.646484375" xlink:href="#BitstreamVeraSans-Roman-65"/>
      <use x="374.169921875" xlink:href="#BitstreamVeraSans-Roman-6e"/>
     </g>
    </g>
   </g>
  </g>
 </g>
 <defs>
  <clipPath id="pd908ed2ec4">
   <rect height="613.8" width="1116.0" x="180.0" y="79.2"/>
  </clipPath>
 </defs>
</svg>
