<?xml version="1.0" encoding="utf-8" standalone="no"?>
<!DOCTYPE svg PUBLIC "-//W3C//DTD SVG 1.1//EN"
  "http://www.w3.org/Graphics/SVG/1.1/DTD/svg11.dtd">
<!-- Created with matplotlib (http://matplotlib.org/) -->
<svg height="792pt" version="1.1" viewBox="0 0 1440 792" width="1440pt" xmlns="http://www.w3.org/2000/svg" xmlns:xlink="http://www.w3.org/1999/xlink">
 <defs>
  <style type="text/css">
*{stroke-linecap:butt;stroke-linejoin:round;stroke-miterlimit:100000;}
  </style>
 </defs>
 <g id="figure_1">
  <g id="patch_1">
   <path d="M 0 792 
L 1440 792 
L 1440 0 
L 0 0 
z
" style="fill:#ffffff;"/>
  </g>
  <g id="axes_1">
   <g id="patch_2">
    <path d="M 180 693 
L 1296 693 
L 1296 79.2 
L 180 79.2 
z
" style="fill:#eaeaf2;"/>
   </g>
   <g id="matplotlib.axis_1">
    <g id="xtick_1">
     <g id="line2d_1">
      <defs>
       <path d="M 0 0 
L 0 0 
" id="ma75c9a2e3e" style="stroke:#262626;"/>
      </defs>
      <g>
       <use style="fill:#262626;stroke:#262626;" x="319.5" xlink:href="#ma75c9a2e3e" y="693.0"/>
      </g>
     </g>
     <g id="line2d_2">
      <g>
       <use style="fill:#262626;stroke:#262626;" x="319.5" xlink:href="#ma75c9a2e3e" y="79.2"/>
      </g>
     </g>
     <g id="text_1">
      <!-- Material (n=198) -->
      <defs>
       <path d="M 31.78125 34.625 
Q 24.75 34.625 20.71875 30.859375 
Q 16.703125 27.09375 16.703125 20.515625 
Q 16.703125 13.921875 20.71875 10.15625 
Q 24.75 6.390625 31.78125 6.390625 
Q 38.8125 6.390625 42.859375 10.171875 
Q 46.921875 13.96875 46.921875 20.515625 
Q 46.921875 27.09375 42.890625 30.859375 
Q 38.875 34.625 31.78125 34.625 
M 21.921875 38.8125 
Q 15.578125 40.375 12.03125 44.71875 
Q 8.5 49.078125 8.5 55.328125 
Q 8.5 64.0625 14.71875 69.140625 
Q 20.953125 74.21875 31.78125 74.21875 
Q 42.671875 74.21875 48.875 69.140625 
Q 55.078125 64.0625 55.078125 55.328125 
Q 55.078125 49.078125 51.53125 44.71875 
Q 48 40.375 41.703125 38.8125 
Q 48.828125 37.15625 52.796875 32.3125 
Q 56.78125 27.484375 56.78125 20.515625 
Q 56.78125 9.90625 50.3125 4.234375 
Q 43.84375 -1.421875 31.78125 -1.421875 
Q 19.734375 -1.421875 13.25 4.234375 
Q 6.78125 9.90625 6.78125 20.515625 
Q 6.78125 27.484375 10.78125 32.3125 
Q 14.796875 37.15625 21.921875 38.8125 
M 18.3125 54.390625 
Q 18.3125 48.734375 21.84375 45.5625 
Q 25.390625 42.390625 31.78125 42.390625 
Q 38.140625 42.390625 41.71875 45.5625 
Q 45.3125 48.734375 45.3125 54.390625 
Q 45.3125 60.0625 41.71875 63.234375 
Q 38.140625 66.40625 31.78125 66.40625 
Q 25.390625 66.40625 21.84375 63.234375 
Q 18.3125 60.0625 18.3125 54.390625 
" id="BitstreamVeraSans-Roman-38"/>
       <path d="M 56.203125 29.59375 
L 56.203125 25.203125 
L 14.890625 25.203125 
Q 15.484375 15.921875 20.484375 11.0625 
Q 25.484375 6.203125 34.421875 6.203125 
Q 39.59375 6.203125 44.453125 7.46875 
Q 49.3125 8.734375 54.109375 11.28125 
L 54.109375 2.78125 
Q 49.265625 0.734375 44.1875 -0.34375 
Q 39.109375 -1.421875 33.890625 -1.421875 
Q 20.796875 -1.421875 13.15625 6.1875 
Q 5.515625 13.8125 5.515625 26.8125 
Q 5.515625 40.234375 12.765625 48.109375 
Q 20.015625 56 32.328125 56 
Q 43.359375 56 49.78125 48.890625 
Q 56.203125 41.796875 56.203125 29.59375 
M 47.21875 32.234375 
Q 47.125 39.59375 43.09375 43.984375 
Q 39.0625 48.390625 32.421875 48.390625 
Q 24.90625 48.390625 20.390625 44.140625 
Q 15.875 39.890625 15.1875 32.171875 
z
" id="BitstreamVeraSans-Roman-65"/>
       <path d="M 54.890625 33.015625 
L 54.890625 0 
L 45.90625 0 
L 45.90625 32.71875 
Q 45.90625 40.484375 42.875 44.328125 
Q 39.84375 48.1875 33.796875 48.1875 
Q 26.515625 48.1875 22.3125 43.546875 
Q 18.109375 38.921875 18.109375 30.90625 
L 18.109375 0 
L 9.078125 0 
L 9.078125 54.6875 
L 18.109375 54.6875 
L 18.109375 46.1875 
Q 21.34375 51.125 25.703125 53.5625 
Q 30.078125 56 35.796875 56 
Q 45.21875 56 50.046875 50.171875 
Q 54.890625 44.34375 54.890625 33.015625 
" id="BitstreamVeraSans-Roman-6e"/>
       <path d="M 31 75.875 
Q 24.46875 64.65625 21.28125 53.65625 
Q 18.109375 42.671875 18.109375 31.390625 
Q 18.109375 20.125 21.3125 9.0625 
Q 24.515625 -2 31 -13.1875 
L 23.1875 -13.1875 
Q 15.875 -1.703125 12.234375 9.375 
Q 8.59375 20.453125 8.59375 31.390625 
Q 8.59375 42.28125 12.203125 53.3125 
Q 15.828125 64.359375 23.1875 75.875 
z
" id="BitstreamVeraSans-Roman-28"/>
       <path d="M 9.421875 75.984375 
L 18.40625 75.984375 
L 18.40625 0 
L 9.421875 0 
z
" id="BitstreamVeraSans-Roman-6c"/>
       <path d="M 10.984375 1.515625 
L 10.984375 10.5 
Q 14.703125 8.734375 18.5 7.8125 
Q 22.3125 6.890625 25.984375 6.890625 
Q 35.75 6.890625 40.890625 13.453125 
Q 46.046875 20.015625 46.78125 33.40625 
Q 43.953125 29.203125 39.59375 26.953125 
Q 35.25 24.703125 29.984375 24.703125 
Q 19.046875 24.703125 12.671875 31.3125 
Q 6.296875 37.9375 6.296875 49.421875 
Q 6.296875 60.640625 12.9375 67.421875 
Q 19.578125 74.21875 30.609375 74.21875 
Q 43.265625 74.21875 49.921875 64.515625 
Q 56.59375 54.828125 56.59375 36.375 
Q 56.59375 19.140625 48.40625 8.859375 
Q 40.234375 -1.421875 26.421875 -1.421875 
Q 22.703125 -1.421875 18.890625 -0.6875 
Q 15.09375 0.046875 10.984375 1.515625 
M 30.609375 32.421875 
Q 37.25 32.421875 41.125 36.953125 
Q 45.015625 41.5 45.015625 49.421875 
Q 45.015625 57.28125 41.125 61.84375 
Q 37.25 66.40625 30.609375 66.40625 
Q 23.96875 66.40625 20.09375 61.84375 
Q 16.21875 57.28125 16.21875 49.421875 
Q 16.21875 41.5 20.09375 36.953125 
Q 23.96875 32.421875 30.609375 32.421875 
" id="BitstreamVeraSans-Roman-39"/>
       <path id="BitstreamVeraSans-Roman-20"/>
       <path d="M 9.421875 54.6875 
L 18.40625 54.6875 
L 18.40625 0 
L 9.421875 0 
z
M 9.421875 75.984375 
L 18.40625 75.984375 
L 18.40625 64.59375 
L 9.421875 64.59375 
z
" id="BitstreamVeraSans-Roman-69"/>
       <path d="M 34.28125 27.484375 
Q 23.390625 27.484375 19.1875 25 
Q 14.984375 22.515625 14.984375 16.5 
Q 14.984375 11.71875 18.140625 8.90625 
Q 21.296875 6.109375 26.703125 6.109375 
Q 34.1875 6.109375 38.703125 11.40625 
Q 43.21875 16.703125 43.21875 25.484375 
L 43.21875 27.484375 
z
M 52.203125 31.203125 
L 52.203125 0 
L 43.21875 0 
L 43.21875 8.296875 
Q 40.140625 3.328125 35.546875 0.953125 
Q 30.953125 -1.421875 24.3125 -1.421875 
Q 15.921875 -1.421875 10.953125 3.296875 
Q 6 8.015625 6 15.921875 
Q 6 25.140625 12.171875 29.828125 
Q 18.359375 34.515625 30.609375 34.515625 
L 43.21875 34.515625 
L 43.21875 35.40625 
Q 43.21875 41.609375 39.140625 45 
Q 35.0625 48.390625 27.6875 48.390625 
Q 23 48.390625 18.546875 47.265625 
Q 14.109375 46.140625 10.015625 43.890625 
L 10.015625 52.203125 
Q 14.9375 54.109375 19.578125 55.046875 
Q 24.21875 56 28.609375 56 
Q 40.484375 56 46.34375 49.84375 
Q 52.203125 43.703125 52.203125 31.203125 
" id="BitstreamVeraSans-Roman-61"/>
       <path d="M 41.109375 46.296875 
Q 39.59375 47.171875 37.8125 47.578125 
Q 36.03125 48 33.890625 48 
Q 26.265625 48 22.1875 43.046875 
Q 18.109375 38.09375 18.109375 28.8125 
L 18.109375 0 
L 9.078125 0 
L 9.078125 54.6875 
L 18.109375 54.6875 
L 18.109375 46.1875 
Q 20.953125 51.171875 25.484375 53.578125 
Q 30.03125 56 36.53125 56 
Q 37.453125 56 38.578125 55.875 
Q 39.703125 55.765625 41.0625 55.515625 
z
" id="BitstreamVeraSans-Roman-72"/>
       <path d="M 12.40625 8.296875 
L 28.515625 8.296875 
L 28.515625 63.921875 
L 10.984375 60.40625 
L 10.984375 69.390625 
L 28.421875 72.90625 
L 38.28125 72.90625 
L 38.28125 8.296875 
L 54.390625 8.296875 
L 54.390625 0 
L 12.40625 0 
z
" id="BitstreamVeraSans-Roman-31"/>
       <path d="M 9.8125 72.90625 
L 24.515625 72.90625 
L 43.109375 23.296875 
L 61.8125 72.90625 
L 76.515625 72.90625 
L 76.515625 0 
L 66.890625 0 
L 66.890625 64.015625 
L 48.09375 14.015625 
L 38.1875 14.015625 
L 19.390625 64.015625 
L 19.390625 0 
L 9.8125 0 
z
" id="BitstreamVeraSans-Roman-4d"/>
       <path d="M 10.59375 45.40625 
L 73.1875 45.40625 
L 73.1875 37.203125 
L 10.59375 37.203125 
z
M 10.59375 25.484375 
L 73.1875 25.484375 
L 73.1875 17.1875 
L 10.59375 17.1875 
z
" id="BitstreamVeraSans-Roman-3d"/>
       <path d="M 18.3125 70.21875 
L 18.3125 54.6875 
L 36.8125 54.6875 
L 36.8125 47.703125 
L 18.3125 47.703125 
L 18.3125 18.015625 
Q 18.3125 11.328125 20.140625 9.421875 
Q 21.96875 7.515625 27.59375 7.515625 
L 36.8125 7.515625 
L 36.8125 0 
L 27.59375 0 
Q 17.1875 0 13.234375 3.875 
Q 9.28125 7.765625 9.28125 18.015625 
L 9.28125 47.703125 
L 2.6875 47.703125 
L 2.6875 54.6875 
L 9.28125 54.6875 
L 9.28125 70.21875 
z
" id="BitstreamVeraSans-Roman-74"/>
       <path d="M 8.015625 75.875 
L 15.828125 75.875 
Q 23.140625 64.359375 26.78125 53.3125 
Q 30.421875 42.28125 30.421875 31.390625 
Q 30.421875 20.453125 26.78125 9.375 
Q 23.140625 -1.703125 15.828125 -13.1875 
L 8.015625 -13.1875 
Q 14.5 -2 17.703125 9.0625 
Q 20.90625 20.125 20.90625 31.390625 
Q 20.90625 42.671875 17.703125 53.65625 
Q 14.5 64.65625 8.015625 75.875 
" id="BitstreamVeraSans-Roman-29"/>
      </defs>
      <g style="fill:#262626;" transform="translate(242.63015625 713.6771875)scale(0.18 -0.18)">
       <use xlink:href="#BitstreamVeraSans-Roman-4d"/>
       <use x="86.279296875" xlink:href="#BitstreamVeraSans-Roman-61"/>
       <use x="147.55859375" xlink:href="#BitstreamVeraSans-Roman-74"/>
       <use x="186.767578125" xlink:href="#BitstreamVeraSans-Roman-65"/>
       <use x="248.291015625" xlink:href="#BitstreamVeraSans-Roman-72"/>
       <use x="289.404296875" xlink:href="#BitstreamVeraSans-Roman-69"/>
       <use x="317.1875" xlink:href="#BitstreamVeraSans-Roman-61"/>
       <use x="378.466796875" xlink:href="#BitstreamVeraSans-Roman-6c"/>
       <use x="406.25" xlink:href="#BitstreamVeraSans-Roman-20"/>
       <use x="438.037109375" xlink:href="#BitstreamVeraSans-Roman-28"/>
       <use x="477.05078125" xlink:href="#BitstreamVeraSans-Roman-6e"/>
       <use x="540.4296875" xlink:href="#BitstreamVeraSans-Roman-3d"/>
       <use x="624.21875" xlink:href="#BitstreamVeraSans-Roman-31"/>
       <use x="687.841796875" xlink:href="#BitstreamVeraSans-Roman-39"/>
       <use x="751.46484375" xlink:href="#BitstreamVeraSans-Roman-38"/>
       <use x="815.087890625" xlink:href="#BitstreamVeraSans-Roman-29"/>
      </g>
     </g>
    </g>
    <g id="xtick_2">
     <g id="line2d_3">
      <g>
       <use style="fill:#262626;stroke:#262626;" x="598.5" xlink:href="#ma75c9a2e3e" y="693.0"/>
      </g>
     </g>
     <g id="line2d_4">
      <g>
       <use style="fill:#262626;stroke:#262626;" x="598.5" xlink:href="#ma75c9a2e3e" y="79.2"/>
      </g>
     </g>
     <g id="text_2">
      <!-- Row (n=198) -->
      <defs>
       <path d="M 4.203125 54.6875 
L 13.1875 54.6875 
L 24.421875 12.015625 
L 35.59375 54.6875 
L 46.1875 54.6875 
L 57.421875 12.015625 
L 68.609375 54.6875 
L 77.59375 54.6875 
L 63.28125 0 
L 52.6875 0 
L 40.921875 44.828125 
L 29.109375 0 
L 18.5 0 
z
" id="BitstreamVeraSans-Roman-77"/>
       <path d="M 30.609375 48.390625 
Q 23.390625 48.390625 19.1875 42.75 
Q 14.984375 37.109375 14.984375 27.296875 
Q 14.984375 17.484375 19.15625 11.84375 
Q 23.34375 6.203125 30.609375 6.203125 
Q 37.796875 6.203125 41.984375 11.859375 
Q 46.1875 17.53125 46.1875 27.296875 
Q 46.1875 37.015625 41.984375 42.703125 
Q 37.796875 48.390625 30.609375 48.390625 
M 30.609375 56 
Q 42.328125 56 49.015625 48.375 
Q 55.71875 40.765625 55.71875 27.296875 
Q 55.71875 13.875 49.015625 6.21875 
Q 42.328125 -1.421875 30.609375 -1.421875 
Q 18.84375 -1.421875 12.171875 6.21875 
Q 5.515625 13.875 5.515625 27.296875 
Q 5.515625 40.765625 12.171875 48.375 
Q 18.84375 56 30.609375 56 
" id="BitstreamVeraSans-Roman-6f"/>
       <path d="M 44.390625 34.1875 
Q 47.5625 33.109375 50.5625 29.59375 
Q 53.5625 26.078125 56.59375 19.921875 
L 66.609375 0 
L 56 0 
L 46.6875 18.703125 
Q 43.0625 26.03125 39.671875 28.421875 
Q 36.28125 30.8125 30.421875 30.8125 
L 19.671875 30.8125 
L 19.671875 0 
L 9.8125 0 
L 9.8125 72.90625 
L 32.078125 72.90625 
Q 44.578125 72.90625 50.734375 67.671875 
Q 56.890625 62.453125 56.890625 51.90625 
Q 56.890625 45.015625 53.6875 40.46875 
Q 50.484375 35.9375 44.390625 34.1875 
M 19.671875 64.796875 
L 19.671875 38.921875 
L 32.078125 38.921875 
Q 39.203125 38.921875 42.84375 42.21875 
Q 46.484375 45.515625 46.484375 51.90625 
Q 46.484375 58.296875 42.84375 61.546875 
Q 39.203125 64.796875 32.078125 64.796875 
z
" id="BitstreamVeraSans-Roman-52"/>
      </defs>
      <g style="fill:#262626;" transform="translate(539.0775 713.6771875)scale(0.18 -0.18)">
       <use xlink:href="#BitstreamVeraSans-Roman-52"/>
       <use x="69.419921875" xlink:href="#BitstreamVeraSans-Roman-6f"/>
       <use x="130.6015625" xlink:href="#BitstreamVeraSans-Roman-77"/>
       <use x="212.388671875" xlink:href="#BitstreamVeraSans-Roman-20"/>
       <use x="244.17578125" xlink:href="#BitstreamVeraSans-Roman-28"/>
       <use x="283.189453125" xlink:href="#BitstreamVeraSans-Roman-6e"/>
       <use x="346.568359375" xlink:href="#BitstreamVeraSans-Roman-3d"/>
       <use x="430.357421875" xlink:href="#BitstreamVeraSans-Roman-31"/>
       <use x="493.98046875" xlink:href="#BitstreamVeraSans-Roman-39"/>
       <use x="557.603515625" xlink:href="#BitstreamVeraSans-Roman-38"/>
       <use x="621.2265625" xlink:href="#BitstreamVeraSans-Roman-29"/>
      </g>
     </g>
    </g>
    <g id="xtick_3">
     <g id="line2d_5">
      <g>
       <use style="fill:#262626;stroke:#262626;" x="877.5" xlink:href="#ma75c9a2e3e" y="693.0"/>
      </g>
     </g>
     <g id="line2d_6">
      <g>
       <use style="fill:#262626;stroke:#262626;" x="877.5" xlink:href="#ma75c9a2e3e" y="79.2"/>
      </g>
     </g>
     <g id="text_3">
      <!-- Plate Location (n=198) -->
      <defs>
       <path d="M 48.78125 52.59375 
L 48.78125 44.1875 
Q 44.96875 46.296875 41.140625 47.34375 
Q 37.3125 48.390625 33.40625 48.390625 
Q 24.65625 48.390625 19.8125 42.84375 
Q 14.984375 37.3125 14.984375 27.296875 
Q 14.984375 17.28125 19.8125 11.734375 
Q 24.65625 6.203125 33.40625 6.203125 
Q 37.3125 6.203125 41.140625 7.25 
Q 44.96875 8.296875 48.78125 10.40625 
L 48.78125 2.09375 
Q 45.015625 0.34375 40.984375 -0.53125 
Q 36.96875 -1.421875 32.421875 -1.421875 
Q 20.0625 -1.421875 12.78125 6.34375 
Q 5.515625 14.109375 5.515625 27.296875 
Q 5.515625 40.671875 12.859375 48.328125 
Q 20.21875 56 33.015625 56 
Q 37.15625 56 41.109375 55.140625 
Q 45.0625 54.296875 48.78125 52.59375 
" id="BitstreamVeraSans-Roman-63"/>
       <path d="M 9.8125 72.90625 
L 19.671875 72.90625 
L 19.671875 8.296875 
L 55.171875 8.296875 
L 55.171875 0 
L 9.8125 0 
z
" id="BitstreamVeraSans-Roman-4c"/>
       <path d="M 19.671875 64.796875 
L 19.671875 37.40625 
L 32.078125 37.40625 
Q 38.96875 37.40625 42.71875 40.96875 
Q 46.484375 44.53125 46.484375 51.125 
Q 46.484375 57.671875 42.71875 61.234375 
Q 38.96875 64.796875 32.078125 64.796875 
z
M 9.8125 72.90625 
L 32.078125 72.90625 
Q 44.34375 72.90625 50.609375 67.359375 
Q 56.890625 61.8125 56.890625 51.125 
Q 56.890625 40.328125 50.609375 34.8125 
Q 44.34375 29.296875 32.078125 29.296875 
L 19.671875 29.296875 
L 19.671875 0 
L 9.8125 0 
z
" id="BitstreamVeraSans-Roman-50"/>
      </defs>
      <g style="fill:#262626;" transform="translate(773.600625 713.6771875)scale(0.18 -0.18)">
       <use xlink:href="#BitstreamVeraSans-Roman-50"/>
       <use x="60.302734375" xlink:href="#BitstreamVeraSans-Roman-6c"/>
       <use x="88.0859375" xlink:href="#BitstreamVeraSans-Roman-61"/>
       <use x="149.365234375" xlink:href="#BitstreamVeraSans-Roman-74"/>
       <use x="188.57421875" xlink:href="#BitstreamVeraSans-Roman-65"/>
       <use x="250.09765625" xlink:href="#BitstreamVeraSans-Roman-20"/>
       <use x="281.884765625" xlink:href="#BitstreamVeraSans-Roman-4c"/>
       <use x="337.58203125" xlink:href="#BitstreamVeraSans-Roman-6f"/>
       <use x="398.763671875" xlink:href="#BitstreamVeraSans-Roman-63"/>
       <use x="453.744140625" xlink:href="#BitstreamVeraSans-Roman-61"/>
       <use x="515.0234375" xlink:href="#BitstreamVeraSans-Roman-74"/>
       <use x="554.232421875" xlink:href="#BitstreamVeraSans-Roman-69"/>
       <use x="582.015625" xlink:href="#BitstreamVeraSans-Roman-6f"/>
       <use x="643.197265625" xlink:href="#BitstreamVeraSans-Roman-6e"/>
       <use x="706.576171875" xlink:href="#BitstreamVeraSans-Roman-20"/>
       <use x="738.36328125" xlink:href="#BitstreamVeraSans-Roman-28"/>
       <use x="777.376953125" xlink:href="#BitstreamVeraSans-Roman-6e"/>
       <use x="840.755859375" xlink:href="#BitstreamVeraSans-Roman-3d"/>
       <use x="924.544921875" xlink:href="#BitstreamVeraSans-Roman-31"/>
       <use x="988.16796875" xlink:href="#BitstreamVeraSans-Roman-39"/>
       <use x="1051.791015625" xlink:href="#BitstreamVeraSans-Roman-38"/>
       <use x="1115.4140625" xlink:href="#BitstreamVeraSans-Roman-29"/>
      </g>
     </g>
    </g>
    <g id="xtick_4">
     <g id="line2d_7">
      <g>
       <use style="fill:#262626;stroke:#262626;" x="1156.5" xlink:href="#ma75c9a2e3e" y="693.0"/>
      </g>
     </g>
     <g id="line2d_8">
      <g>
       <use style="fill:#262626;stroke:#262626;" x="1156.5" xlink:href="#ma75c9a2e3e" y="79.2"/>
      </g>
     </g>
     <g id="text_4">
      <!-- Run (n=357) -->
      <defs>
       <path d="M 40.578125 39.3125 
Q 47.65625 37.796875 51.625 33 
Q 55.609375 28.21875 55.609375 21.1875 
Q 55.609375 10.40625 48.1875 4.484375 
Q 40.765625 -1.421875 27.09375 -1.421875 
Q 22.515625 -1.421875 17.65625 -0.515625 
Q 12.796875 0.390625 7.625 2.203125 
L 7.625 11.71875 
Q 11.71875 9.328125 16.59375 8.109375 
Q 21.484375 6.890625 26.8125 6.890625 
Q 36.078125 6.890625 40.9375 10.546875 
Q 45.796875 14.203125 45.796875 21.1875 
Q 45.796875 27.640625 41.28125 31.265625 
Q 36.765625 34.90625 28.71875 34.90625 
L 20.21875 34.90625 
L 20.21875 43.015625 
L 29.109375 43.015625 
Q 36.375 43.015625 40.234375 45.921875 
Q 44.09375 48.828125 44.09375 54.296875 
Q 44.09375 59.90625 40.109375 62.90625 
Q 36.140625 65.921875 28.71875 65.921875 
Q 24.65625 65.921875 20.015625 65.03125 
Q 15.375 64.15625 9.8125 62.3125 
L 9.8125 71.09375 
Q 15.4375 72.65625 20.34375 73.4375 
Q 25.25 74.21875 29.59375 74.21875 
Q 40.828125 74.21875 47.359375 69.109375 
Q 53.90625 64.015625 53.90625 55.328125 
Q 53.90625 49.265625 50.4375 45.09375 
Q 46.96875 40.921875 40.578125 39.3125 
" id="BitstreamVeraSans-Roman-33"/>
       <path d="M 10.796875 72.90625 
L 49.515625 72.90625 
L 49.515625 64.59375 
L 19.828125 64.59375 
L 19.828125 46.734375 
Q 21.96875 47.46875 24.109375 47.828125 
Q 26.265625 48.1875 28.421875 48.1875 
Q 40.625 48.1875 47.75 41.5 
Q 54.890625 34.8125 54.890625 23.390625 
Q 54.890625 11.625 47.5625 5.09375 
Q 40.234375 -1.421875 26.90625 -1.421875 
Q 22.3125 -1.421875 17.546875 -0.640625 
Q 12.796875 0.140625 7.71875 1.703125 
L 7.71875 11.625 
Q 12.109375 9.234375 16.796875 8.0625 
Q 21.484375 6.890625 26.703125 6.890625 
Q 35.15625 6.890625 40.078125 11.328125 
Q 45.015625 15.765625 45.015625 23.390625 
Q 45.015625 31 40.078125 35.4375 
Q 35.15625 39.890625 26.703125 39.890625 
Q 22.75 39.890625 18.8125 39.015625 
Q 14.890625 38.140625 10.796875 36.28125 
z
" id="BitstreamVeraSans-Roman-35"/>
       <path d="M 8.5 21.578125 
L 8.5 54.6875 
L 17.484375 54.6875 
L 17.484375 21.921875 
Q 17.484375 14.15625 20.5 10.265625 
Q 23.53125 6.390625 29.59375 6.390625 
Q 36.859375 6.390625 41.078125 11.03125 
Q 45.3125 15.671875 45.3125 23.6875 
L 45.3125 54.6875 
L 54.296875 54.6875 
L 54.296875 0 
L 45.3125 0 
L 45.3125 8.40625 
Q 42.046875 3.421875 37.71875 1 
Q 33.40625 -1.421875 27.6875 -1.421875 
Q 18.265625 -1.421875 13.375 4.4375 
Q 8.5 10.296875 8.5 21.578125 
" id="BitstreamVeraSans-Roman-75"/>
       <path d="M 8.203125 72.90625 
L 55.078125 72.90625 
L 55.078125 68.703125 
L 28.609375 0 
L 18.3125 0 
L 43.21875 64.59375 
L 8.203125 64.59375 
z
" id="BitstreamVeraSans-Roman-37"/>
      </defs>
      <g style="fill:#262626;" transform="translate(1098.5371875 713.6771875)scale(0.18 -0.18)">
       <use xlink:href="#BitstreamVeraSans-Roman-52"/>
       <use x="69.419921875" xlink:href="#BitstreamVeraSans-Roman-75"/>
       <use x="132.798828125" xlink:href="#BitstreamVeraSans-Roman-6e"/>
       <use x="196.177734375" xlink:href="#BitstreamVeraSans-Roman-20"/>
       <use x="227.96484375" xlink:href="#BitstreamVeraSans-Roman-28"/>
       <use x="266.978515625" xlink:href="#BitstreamVeraSans-Roman-6e"/>
       <use x="330.357421875" xlink:href="#BitstreamVeraSans-Roman-3d"/>
       <use x="414.146484375" xlink:href="#BitstreamVeraSans-Roman-33"/>
       <use x="477.76953125" xlink:href="#BitstreamVeraSans-Roman-35"/>
       <use x="541.392578125" xlink:href="#BitstreamVeraSans-Roman-37"/>
       <use x="605.015625" xlink:href="#BitstreamVeraSans-Roman-29"/>
      </g>
     </g>
    </g>
    <g id="text_5">
     <!-- Category -->
     <defs>
      <path d="M 32.171875 -5.078125 
Q 28.375 -14.84375 24.75 -17.8125 
Q 21.140625 -20.796875 15.09375 -20.796875 
L 7.90625 -20.796875 
L 7.90625 -13.28125 
L 13.1875 -13.28125 
Q 16.890625 -13.28125 18.9375 -11.515625 
Q 21 -9.765625 23.484375 -3.21875 
L 25.09375 0.875 
L 2.984375 54.6875 
L 12.5 54.6875 
L 29.59375 11.921875 
L 46.6875 54.6875 
L 56.203125 54.6875 
z
" id="BitstreamVeraSans-Roman-79"/>
      <path d="M 45.40625 27.984375 
Q 45.40625 37.75 41.375 43.109375 
Q 37.359375 48.484375 30.078125 48.484375 
Q 22.859375 48.484375 18.828125 43.109375 
Q 14.796875 37.75 14.796875 27.984375 
Q 14.796875 18.265625 18.828125 12.890625 
Q 22.859375 7.515625 30.078125 7.515625 
Q 37.359375 7.515625 41.375 12.890625 
Q 45.40625 18.265625 45.40625 27.984375 
M 54.390625 6.78125 
Q 54.390625 -7.171875 48.1875 -13.984375 
Q 42 -20.796875 29.203125 -20.796875 
Q 24.46875 -20.796875 20.265625 -20.09375 
Q 16.0625 -19.390625 12.109375 -17.921875 
L 12.109375 -9.1875 
Q 16.0625 -11.328125 19.921875 -12.34375 
Q 23.78125 -13.375 27.78125 -13.375 
Q 36.625 -13.375 41.015625 -8.765625 
Q 45.40625 -4.15625 45.40625 5.171875 
L 45.40625 9.625 
Q 42.625 4.78125 38.28125 2.390625 
Q 33.9375 0 27.875 0 
Q 17.828125 0 11.671875 7.65625 
Q 5.515625 15.328125 5.515625 27.984375 
Q 5.515625 40.671875 11.671875 48.328125 
Q 17.828125 56 27.875 56 
Q 33.9375 56 38.28125 53.609375 
Q 42.625 51.21875 45.40625 46.390625 
L 45.40625 54.6875 
L 54.390625 54.6875 
z
" id="BitstreamVeraSans-Roman-67"/>
      <path d="M 64.40625 67.28125 
L 64.40625 56.890625 
Q 59.421875 61.53125 53.78125 63.8125 
Q 48.140625 66.109375 41.796875 66.109375 
Q 29.296875 66.109375 22.65625 58.46875 
Q 16.015625 50.828125 16.015625 36.375 
Q 16.015625 21.96875 22.65625 14.328125 
Q 29.296875 6.6875 41.796875 6.6875 
Q 48.140625 6.6875 53.78125 8.984375 
Q 59.421875 11.28125 64.40625 15.921875 
L 64.40625 5.609375 
Q 59.234375 2.09375 53.4375 0.328125 
Q 47.65625 -1.421875 41.21875 -1.421875 
Q 24.65625 -1.421875 15.125 8.703125 
Q 5.609375 18.84375 5.609375 36.375 
Q 5.609375 53.953125 15.125 64.078125 
Q 24.65625 74.21875 41.21875 74.21875 
Q 47.75 74.21875 53.53125 72.484375 
Q 59.328125 70.75 64.40625 67.28125 
" id="BitstreamVeraSans-Roman-43"/>
     </defs>
     <g style="fill:#262626;" transform="translate(692.7755625 737.46553125)scale(0.198 -0.198)">
      <use xlink:href="#BitstreamVeraSans-Roman-43"/>
      <use x="69.82421875" xlink:href="#BitstreamVeraSans-Roman-61"/>
      <use x="131.103515625" xlink:href="#BitstreamVeraSans-Roman-74"/>
      <use x="170.3125" xlink:href="#BitstreamVeraSans-Roman-65"/>
      <use x="231.8359375" xlink:href="#BitstreamVeraSans-Roman-67"/>
      <use x="295.3125" xlink:href="#BitstreamVeraSans-Roman-6f"/>
      <use x="356.494140625" xlink:href="#BitstreamVeraSans-Roman-72"/>
      <use x="397.607421875" xlink:href="#BitstreamVeraSans-Roman-79"/>
     </g>
    </g>
   </g>
   <g id="matplotlib.axis_2">
    <g id="ytick_1">
     <g id="line2d_9">
      <path clip-path="url(#p2cf47c95eb)" d="M 180 693 
L 1296 693 
" style="fill:none;stroke:#ffffff;stroke-linecap:round;"/>
     </g>
     <g id="line2d_10">
      <g>
       <use style="fill:#262626;stroke:#262626;" x="180.0" xlink:href="#ma75c9a2e3e" y="693.0"/>
      </g>
     </g>
     <g id="line2d_11">
      <g>
       <use style="fill:#262626;stroke:#262626;" x="1296.0" xlink:href="#ma75c9a2e3e" y="693.0"/>
      </g>
     </g>
     <g id="text_6">
      <!-- −0.2 -->
      <defs>
       <path d="M 10.59375 35.5 
L 73.1875 35.5 
L 73.1875 27.203125 
L 10.59375 27.203125 
z
" id="BitstreamVeraSans-Roman-2212"/>
       <path d="M 31.78125 66.40625 
Q 24.171875 66.40625 20.328125 58.90625 
Q 16.5 51.421875 16.5 36.375 
Q 16.5 21.390625 20.328125 13.890625 
Q 24.171875 6.390625 31.78125 6.390625 
Q 39.453125 6.390625 43.28125 13.890625 
Q 47.125 21.390625 47.125 36.375 
Q 47.125 51.421875 43.28125 58.90625 
Q 39.453125 66.40625 31.78125 66.40625 
M 31.78125 74.21875 
Q 44.046875 74.21875 50.515625 64.515625 
Q 56.984375 54.828125 56.984375 36.375 
Q 56.984375 17.96875 50.515625 8.265625 
Q 44.046875 -1.421875 31.78125 -1.421875 
Q 19.53125 -1.421875 13.0625 8.265625 
Q 6.59375 17.96875 6.59375 36.375 
Q 6.59375 54.828125 13.0625 64.515625 
Q 19.53125 74.21875 31.78125 74.21875 
" id="BitstreamVeraSans-Roman-30"/>
       <path d="M 10.6875 12.40625 
L 21 12.40625 
L 21 0 
L 10.6875 0 
z
" id="BitstreamVeraSans-Roman-2e"/>
       <path d="M 19.1875 8.296875 
L 53.609375 8.296875 
L 53.609375 0 
L 7.328125 0 
L 7.328125 8.296875 
Q 12.9375 14.109375 22.625 23.890625 
Q 32.328125 33.6875 34.8125 36.53125 
Q 39.546875 41.84375 41.421875 45.53125 
Q 43.3125 49.21875 43.3125 52.78125 
Q 43.3125 58.59375 39.234375 62.25 
Q 35.15625 65.921875 28.609375 65.921875 
Q 23.96875 65.921875 18.8125 64.3125 
Q 13.671875 62.703125 7.8125 59.421875 
L 7.8125 69.390625 
Q 13.765625 71.78125 18.9375 73 
Q 24.125 74.21875 28.421875 74.21875 
Q 39.75 74.21875 46.484375 68.546875 
Q 53.21875 62.890625 53.21875 53.421875 
Q 53.21875 48.921875 51.53125 44.890625 
Q 49.859375 40.875 45.40625 35.40625 
Q 44.1875 33.984375 37.640625 27.21875 
Q 31.109375 20.453125 19.1875 8.296875 
" id="BitstreamVeraSans-Roman-32"/>
      </defs>
      <g style="fill:#262626;" transform="translate(129.2909375 697.966875)scale(0.18 -0.18)">
       <use xlink:href="#BitstreamVeraSans-Roman-2212"/>
       <use x="83.7890625" xlink:href="#BitstreamVeraSans-Roman-30"/>
       <use x="147.412109375" xlink:href="#BitstreamVeraSans-Roman-2e"/>
       <use x="179.19921875" xlink:href="#BitstreamVeraSans-Roman-32"/>
      </g>
     </g>
    </g>
    <g id="ytick_2">
     <g id="line2d_12">
      <path clip-path="url(#p2cf47c95eb)" d="M 180 616.275 
L 1296 616.275 
" style="fill:none;stroke:#ffffff;stroke-linecap:round;"/>
     </g>
     <g id="line2d_13">
      <g>
       <use style="fill:#262626;stroke:#262626;" x="180.0" xlink:href="#ma75c9a2e3e" y="616.275"/>
      </g>
     </g>
     <g id="line2d_14">
      <g>
       <use style="fill:#262626;stroke:#262626;" x="1296.0" xlink:href="#ma75c9a2e3e" y="616.275"/>
      </g>
     </g>
     <g id="text_7">
      <!-- 0.0 -->
      <g style="fill:#262626;" transform="translate(144.374375 621.241875)scale(0.18 -0.18)">
       <use xlink:href="#BitstreamVeraSans-Roman-30"/>
       <use x="63.623046875" xlink:href="#BitstreamVeraSans-Roman-2e"/>
       <use x="95.41015625" xlink:href="#BitstreamVeraSans-Roman-30"/>
      </g>
     </g>
    </g>
    <g id="ytick_3">
     <g id="line2d_15">
      <path clip-path="url(#p2cf47c95eb)" d="M 180 539.55 
L 1296 539.55 
" style="fill:none;stroke:#ffffff;stroke-linecap:round;"/>
     </g>
     <g id="line2d_16">
      <g>
       <use style="fill:#262626;stroke:#262626;" x="180.0" xlink:href="#ma75c9a2e3e" y="539.55"/>
      </g>
     </g>
     <g id="line2d_17">
      <g>
       <use style="fill:#262626;stroke:#262626;" x="1296.0" xlink:href="#ma75c9a2e3e" y="539.55"/>
      </g>
     </g>
     <g id="text_8">
      <!-- 0.2 -->
      <g style="fill:#262626;" transform="translate(144.374375 544.516875)scale(0.18 -0.18)">
       <use xlink:href="#BitstreamVeraSans-Roman-30"/>
       <use x="63.623046875" xlink:href="#BitstreamVeraSans-Roman-2e"/>
       <use x="95.41015625" xlink:href="#BitstreamVeraSans-Roman-32"/>
      </g>
     </g>
    </g>
    <g id="ytick_4">
     <g id="line2d_18">
      <path clip-path="url(#p2cf47c95eb)" d="M 180 462.825 
L 1296 462.825 
" style="fill:none;stroke:#ffffff;stroke-linecap:round;"/>
     </g>
     <g id="line2d_19">
      <g>
       <use style="fill:#262626;stroke:#262626;" x="180.0" xlink:href="#ma75c9a2e3e" y="462.825"/>
      </g>
     </g>
     <g id="line2d_20">
      <g>
       <use style="fill:#262626;stroke:#262626;" x="1296.0" xlink:href="#ma75c9a2e3e" y="462.825"/>
      </g>
     </g>
     <g id="text_9">
      <!-- 0.4 -->
      <defs>
       <path d="M 37.796875 64.3125 
L 12.890625 25.390625 
L 37.796875 25.390625 
z
M 35.203125 72.90625 
L 47.609375 72.90625 
L 47.609375 25.390625 
L 58.015625 25.390625 
L 58.015625 17.1875 
L 47.609375 17.1875 
L 47.609375 0 
L 37.796875 0 
L 37.796875 17.1875 
L 4.890625 17.1875 
L 4.890625 26.703125 
z
" id="BitstreamVeraSans-Roman-34"/>
      </defs>
      <g style="fill:#262626;" transform="translate(144.374375 467.791875)scale(0.18 -0.18)">
       <use xlink:href="#BitstreamVeraSans-Roman-30"/>
       <use x="63.623046875" xlink:href="#BitstreamVeraSans-Roman-2e"/>
       <use x="95.41015625" xlink:href="#BitstreamVeraSans-Roman-34"/>
      </g>
     </g>
    </g>
    <g id="ytick_5">
     <g id="line2d_21">
      <path clip-path="url(#p2cf47c95eb)" d="M 180 386.1 
L 1296 386.1 
" style="fill:none;stroke:#ffffff;stroke-linecap:round;"/>
     </g>
     <g id="line2d_22">
      <g>
       <use style="fill:#262626;stroke:#262626;" x="180.0" xlink:href="#ma75c9a2e3e" y="386.1"/>
      </g>
     </g>
     <g id="line2d_23">
      <g>
       <use style="fill:#262626;stroke:#262626;" x="1296.0" xlink:href="#ma75c9a2e3e" y="386.1"/>
      </g>
     </g>
     <g id="text_10">
      <!-- 0.6 -->
      <defs>
       <path d="M 33.015625 40.375 
Q 26.375 40.375 22.484375 35.828125 
Q 18.609375 31.296875 18.609375 23.390625 
Q 18.609375 15.53125 22.484375 10.953125 
Q 26.375 6.390625 33.015625 6.390625 
Q 39.65625 6.390625 43.53125 10.953125 
Q 47.40625 15.53125 47.40625 23.390625 
Q 47.40625 31.296875 43.53125 35.828125 
Q 39.65625 40.375 33.015625 40.375 
M 52.59375 71.296875 
L 52.59375 62.3125 
Q 48.875 64.0625 45.09375 64.984375 
Q 41.3125 65.921875 37.59375 65.921875 
Q 27.828125 65.921875 22.671875 59.328125 
Q 17.53125 52.734375 16.796875 39.40625 
Q 19.671875 43.65625 24.015625 45.921875 
Q 28.375 48.1875 33.59375 48.1875 
Q 44.578125 48.1875 50.953125 41.515625 
Q 57.328125 34.859375 57.328125 23.390625 
Q 57.328125 12.15625 50.6875 5.359375 
Q 44.046875 -1.421875 33.015625 -1.421875 
Q 20.359375 -1.421875 13.671875 8.265625 
Q 6.984375 17.96875 6.984375 36.375 
Q 6.984375 53.65625 15.1875 63.9375 
Q 23.390625 74.21875 37.203125 74.21875 
Q 40.921875 74.21875 44.703125 73.484375 
Q 48.484375 72.75 52.59375 71.296875 
" id="BitstreamVeraSans-Roman-36"/>
      </defs>
      <g style="fill:#262626;" transform="translate(144.374375 391.066875)scale(0.18 -0.18)">
       <use xlink:href="#BitstreamVeraSans-Roman-30"/>
       <use x="63.623046875" xlink:href="#BitstreamVeraSans-Roman-2e"/>
       <use x="95.41015625" xlink:href="#BitstreamVeraSans-Roman-36"/>
      </g>
     </g>
    </g>
    <g id="ytick_6">
     <g id="line2d_24">
      <path clip-path="url(#p2cf47c95eb)" d="M 180 309.375 
L 1296 309.375 
" style="fill:none;stroke:#ffffff;stroke-linecap:round;"/>
     </g>
     <g id="line2d_25">
      <g>
       <use style="fill:#262626;stroke:#262626;" x="180.0" xlink:href="#ma75c9a2e3e" y="309.375"/>
      </g>
     </g>
     <g id="line2d_26">
      <g>
       <use style="fill:#262626;stroke:#262626;" x="1296.0" xlink:href="#ma75c9a2e3e" y="309.375"/>
      </g>
     </g>
     <g id="text_11">
      <!-- 0.8 -->
      <g style="fill:#262626;" transform="translate(144.374375 314.341875)scale(0.18 -0.18)">
       <use xlink:href="#BitstreamVeraSans-Roman-30"/>
       <use x="63.623046875" xlink:href="#BitstreamVeraSans-Roman-2e"/>
       <use x="95.41015625" xlink:href="#BitstreamVeraSans-Roman-38"/>
      </g>
     </g>
    </g>
    <g id="ytick_7">
     <g id="line2d_27">
      <path clip-path="url(#p2cf47c95eb)" d="M 180 232.65 
L 1296 232.65 
" style="fill:none;stroke:#ffffff;stroke-linecap:round;"/>
     </g>
     <g id="line2d_28">
      <g>
       <use style="fill:#262626;stroke:#262626;" x="180.0" xlink:href="#ma75c9a2e3e" y="232.65"/>
      </g>
     </g>
     <g id="line2d_29">
      <g>
       <use style="fill:#262626;stroke:#262626;" x="1296.0" xlink:href="#ma75c9a2e3e" y="232.65"/>
      </g>
     </g>
     <g id="text_12">
      <!-- 1.0 -->
      <g style="fill:#262626;" transform="translate(144.374375 237.616875)scale(0.18 -0.18)">
       <use xlink:href="#BitstreamVeraSans-Roman-31"/>
       <use x="63.623046875" xlink:href="#BitstreamVeraSans-Roman-2e"/>
       <use x="95.41015625" xlink:href="#BitstreamVeraSans-Roman-30"/>
      </g>
     </g>
    </g>
    <g id="ytick_8">
     <g id="line2d_30">
      <path clip-path="url(#p2cf47c95eb)" d="M 180 155.925 
L 1296 155.925 
" style="fill:none;stroke:#ffffff;stroke-linecap:round;"/>
     </g>
     <g id="line2d_31">
      <g>
       <use style="fill:#262626;stroke:#262626;" x="180.0" xlink:href="#ma75c9a2e3e" y="155.925"/>
      </g>
     </g>
     <g id="line2d_32">
      <g>
       <use style="fill:#262626;stroke:#262626;" x="1296.0" xlink:href="#ma75c9a2e3e" y="155.925"/>
      </g>
     </g>
     <g id="text_13">
      <!-- 1.2 -->
      <g style="fill:#262626;" transform="translate(144.374375 160.891875)scale(0.18 -0.18)">
       <use xlink:href="#BitstreamVeraSans-Roman-31"/>
       <use x="63.623046875" xlink:href="#BitstreamVeraSans-Roman-2e"/>
       <use x="95.41015625" xlink:href="#BitstreamVeraSans-Roman-32"/>
      </g>
     </g>
    </g>
    <g id="ytick_9">
     <g id="line2d_33">
      <path clip-path="url(#p2cf47c95eb)" d="M 180 79.2 
L 1296 79.2 
" style="fill:none;stroke:#ffffff;stroke-linecap:round;"/>
     </g>
     <g id="line2d_34">
      <g>
       <use style="fill:#262626;stroke:#262626;" x="180.0" xlink:href="#ma75c9a2e3e" y="79.2"/>
      </g>
     </g>
     <g id="line2d_35">
      <g>
       <use style="fill:#262626;stroke:#262626;" x="1296.0" xlink:href="#ma75c9a2e3e" y="79.2"/>
      </g>
     </g>
     <g id="text_14">
      <!-- 1.4 -->
      <g style="fill:#262626;" transform="translate(144.374375 84.166875)scale(0.18 -0.18)">
       <use xlink:href="#BitstreamVeraSans-Roman-31"/>
       <use x="63.623046875" xlink:href="#BitstreamVeraSans-Roman-2e"/>
       <use x="95.41015625" xlink:href="#BitstreamVeraSans-Roman-34"/>
      </g>
     </g>
    </g>
    <g id="text_15">
     <!-- Distance -->
     <defs>
      <path d="M 44.28125 53.078125 
L 44.28125 44.578125 
Q 40.484375 46.53125 36.375 47.5 
Q 32.28125 48.484375 27.875 48.484375 
Q 21.1875 48.484375 17.84375 46.4375 
Q 14.5 44.390625 14.5 40.28125 
Q 14.5 37.15625 16.890625 35.375 
Q 19.28125 33.59375 26.515625 31.984375 
L 29.59375 31.296875 
Q 39.15625 29.25 43.1875 25.515625 
Q 47.21875 21.78125 47.21875 15.09375 
Q 47.21875 7.46875 41.1875 3.015625 
Q 35.15625 -1.421875 24.609375 -1.421875 
Q 20.21875 -1.421875 15.453125 -0.5625 
Q 10.6875 0.296875 5.421875 2 
L 5.421875 11.28125 
Q 10.40625 8.6875 15.234375 7.390625 
Q 20.0625 6.109375 24.8125 6.109375 
Q 31.15625 6.109375 34.5625 8.28125 
Q 37.984375 10.453125 37.984375 14.40625 
Q 37.984375 18.0625 35.515625 20.015625 
Q 33.0625 21.96875 24.703125 23.78125 
L 21.578125 24.515625 
Q 13.234375 26.265625 9.515625 29.90625 
Q 5.8125 33.546875 5.8125 39.890625 
Q 5.8125 47.609375 11.28125 51.796875 
Q 16.75 56 26.8125 56 
Q 31.78125 56 36.171875 55.265625 
Q 40.578125 54.546875 44.28125 53.078125 
" id="BitstreamVeraSans-Roman-73"/>
      <path d="M 19.671875 64.796875 
L 19.671875 8.109375 
L 31.59375 8.109375 
Q 46.6875 8.109375 53.6875 14.9375 
Q 60.6875 21.78125 60.6875 36.53125 
Q 60.6875 51.171875 53.6875 57.984375 
Q 46.6875 64.796875 31.59375 64.796875 
z
M 9.8125 72.90625 
L 30.078125 72.90625 
Q 51.265625 72.90625 61.171875 64.09375 
Q 71.09375 55.28125 71.09375 36.53125 
Q 71.09375 17.671875 61.125 8.828125 
Q 51.171875 0 30.078125 0 
L 9.8125 0 
z
" id="BitstreamVeraSans-Roman-44"/>
     </defs>
     <g style="fill:#262626;" transform="translate(120.17315625 429.38775)rotate(-90.0)scale(0.198 -0.198)">
      <use xlink:href="#BitstreamVeraSans-Roman-44"/>
      <use x="77.001953125" xlink:href="#BitstreamVeraSans-Roman-69"/>
      <use x="104.78515625" xlink:href="#BitstreamVeraSans-Roman-73"/>
      <use x="156.884765625" xlink:href="#BitstreamVeraSans-Roman-74"/>
      <use x="196.09375" xlink:href="#BitstreamVeraSans-Roman-61"/>
      <use x="257.373046875" xlink:href="#BitstreamVeraSans-Roman-6e"/>
      <use x="320.751953125" xlink:href="#BitstreamVeraSans-Roman-63"/>
      <use x="375.732421875" xlink:href="#BitstreamVeraSans-Roman-65"/>
     </g>
    </g>
   </g>
   <g id="PolyCollection_1">
    <defs>
     <path d="M 263.716853 -186.039234 
L 263.683147 -186.039234 
L 263.653847 -189.738829 
L 263.591639 -193.438423 
L 263.480602 -197.138017 
L 263.31449 -200.837611 
L 263.107553 -204.537205 
L 262.894969 -208.236799 
L 262.716546 -211.936393 
L 262.592211 -215.635987 
L 262.508851 -219.335582 
L 262.429636 -223.035176 
L 262.315752 -226.73477 
L 262.141627 -230.434364 
L 261.896602 -234.133958 
L 261.576317 -237.833552 
L 261.163369 -241.533146 
L 260.599812 -245.23274 
L 259.773741 -248.932335 
L 258.545995 -252.631929 
L 256.807218 -256.331523 
L 254.519736 -260.031117 
L 251.719256 -263.730711 
L 248.503446 -267.430305 
L 245.034894 -271.129899 
L 241.533514 -274.829493 
L 238.221255 -278.529087 
L 235.243075 -282.228682 
L 232.636463 -285.928276 
L 230.376709 -289.62787 
L 228.435091 -293.327464 
L 226.782124 -297.027058 
L 225.362855 -300.726652 
L 224.114641 -304.426246 
L 223.013527 -308.12584 
L 222.066863 -311.825435 
L 221.248299 -315.525029 
L 220.48037 -319.224623 
L 219.713521 -322.924217 
L 218.993871 -326.623811 
L 218.40861 -330.323405 
L 217.963147 -334.022999 
L 217.527918 -337.722593 
L 216.906514 -341.422188 
L 215.971713 -345.121782 
L 214.773827 -348.821376 
L 213.52758 -352.52097 
L 212.461111 -356.220564 
L 211.648119 -359.920158 
L 210.989694 -363.619752 
L 210.369528 -367.319346 
L 209.813591 -371.018941 
L 209.482898 -374.718535 
L 209.531144 -378.418129 
L 210.002146 -382.117723 
L 210.85768 -385.817317 
L 212.069953 -389.516911 
L 213.678902 -393.216505 
L 215.785337 -396.916099 
L 218.507032 -400.615693 
L 221.913816 -404.315288 
L 225.941659 -408.014882 
L 230.334551 -411.714476 
L 234.696692 -415.41407 
L 238.645637 -419.113664 
L 241.94457 -422.813258 
L 244.531948 -426.512852 
L 246.489448 -430.212446 
L 248.006814 -433.912041 
L 249.330202 -437.611635 
L 250.67241 -441.311229 
L 252.129995 -445.010823 
L 253.673272 -448.710417 
L 255.211309 -452.410011 
L 256.666457 -456.109605 
L 257.997154 -459.809199 
L 259.174418 -463.508794 
L 260.16669 -467.208388 
L 260.95964 -470.907982 
L 261.577452 -474.607576 
L 262.06958 -478.30717 
L 262.477741 -482.006764 
L 262.819717 -485.706358 
L 263.097034 -489.405952 
L 263.308094 -493.105546 
L 263.455125 -496.805141 
L 263.546765 -500.504735 
L 263.598215 -504.204329 
L 263.627254 -507.903923 
L 263.647348 -511.603517 
L 263.663482 -515.303111 
L 263.674028 -519.002705 
L 263.676023 -522.702299 
L 263.66946 -526.401894 
L 263.658664 -530.101488 
L 263.650572 -533.801082 
L 263.650691 -537.500676 
L 263.659517 -541.20027 
L 263.672728 -544.899864 
L 263.684935 -548.599458 
L 263.693177 -552.299052 
L 263.706823 -552.299052 
L 263.706823 -552.299052 
L 263.715065 -548.599458 
L 263.727272 -544.899864 
L 263.740483 -541.20027 
L 263.749309 -537.500676 
L 263.749428 -533.801082 
L 263.741336 -530.101488 
L 263.73054 -526.401894 
L 263.723977 -522.702299 
L 263.725972 -519.002705 
L 263.736518 -515.303111 
L 263.752652 -511.603517 
L 263.772746 -507.903923 
L 263.801785 -504.204329 
L 263.853235 -500.504735 
L 263.944875 -496.805141 
L 264.091906 -493.105546 
L 264.302966 -489.405952 
L 264.580283 -485.706358 
L 264.922259 -482.006764 
L 265.33042 -478.30717 
L 265.822548 -474.607576 
L 266.44036 -470.907982 
L 267.23331 -467.208388 
L 268.225582 -463.508794 
L 269.402846 -459.809199 
L 270.733543 -456.109605 
L 272.188691 -452.410011 
L 273.726728 -448.710417 
L 275.270005 -445.010823 
L 276.72759 -441.311229 
L 278.069798 -437.611635 
L 279.393186 -433.912041 
L 280.910552 -430.212446 
L 282.868052 -426.512852 
L 285.45543 -422.813258 
L 288.754363 -419.113664 
L 292.703308 -415.41407 
L 297.065449 -411.714476 
L 301.458341 -408.014882 
L 305.486184 -404.315288 
L 308.892968 -400.615693 
L 311.614663 -396.916099 
L 313.721098 -393.216505 
L 315.330047 -389.516911 
L 316.54232 -385.817317 
L 317.397854 -382.117723 
L 317.868856 -378.418129 
L 317.917102 -374.718535 
L 317.586409 -371.018941 
L 317.030472 -367.319346 
L 316.410306 -363.619752 
L 315.751881 -359.920158 
L 314.938889 -356.220564 
L 313.87242 -352.52097 
L 312.626173 -348.821376 
L 311.428287 -345.121782 
L 310.493486 -341.422188 
L 309.872082 -337.722593 
L 309.436853 -334.022999 
L 308.99139 -330.323405 
L 308.406129 -326.623811 
L 307.686479 -322.924217 
L 306.91963 -319.224623 
L 306.151701 -315.525029 
L 305.333137 -311.825435 
L 304.386473 -308.12584 
L 303.285359 -304.426246 
L 302.037145 -300.726652 
L 300.617876 -297.027058 
L 298.964909 -293.327464 
L 297.023291 -289.62787 
L 294.763537 -285.928276 
L 292.156925 -282.228682 
L 289.178745 -278.529087 
L 285.866486 -274.829493 
L 282.365106 -271.129899 
L 278.896554 -267.430305 
L 275.680744 -263.730711 
L 272.880264 -260.031117 
L 270.592782 -256.331523 
L 268.854005 -252.631929 
L 267.626259 -248.932335 
L 266.800188 -245.23274 
L 266.236631 -241.533146 
L 265.823683 -237.833552 
L 265.503398 -234.133958 
L 265.258373 -230.434364 
L 265.084248 -226.73477 
L 264.970364 -223.035176 
L 264.891149 -219.335582 
L 264.807789 -215.635987 
L 264.683454 -211.936393 
L 264.505031 -208.236799 
L 264.292447 -204.537205 
L 264.08551 -200.837611 
L 263.919398 -197.138017 
L 263.808361 -193.438423 
L 263.746153 -189.738829 
L 263.716853 -186.039234 
z
" id="mcdc88ad2d9" style="stroke:#ebf2c3;stroke-width:1.75;"/>
    </defs>
    <g clip-path="url(#p2cf47c95eb)">
     <use style="fill:#ebf2c3;stroke:#ebf2c3;stroke-width:1.75;" x="0.0" xlink:href="#mcdc88ad2d9" y="792.0"/>
    </g>
   </g>
   <g id="PolyCollection_2">
    <defs>
     <path d="M 375.312831 -187.924481 
L 375.287169 -187.924481 
L 375.264304 -191.607341 
L 375.219147 -195.290202 
L 375.146695 -198.973062 
L 375.046002 -202.655922 
L 374.913406 -206.338783 
L 374.741154 -210.021643 
L 374.532689 -213.704504 
L 374.315995 -217.387364 
L 374.128694 -221.070224 
L 373.988952 -224.753085 
L 373.887264 -228.435945 
L 373.795735 -232.118806 
L 373.663951 -235.801666 
L 373.403334 -239.484526 
L 372.894345 -243.167387 
L 372.028967 -246.850247 
L 370.760035 -250.533108 
L 369.118851 -254.215968 
L 367.183787 -257.898828 
L 365.009061 -261.581689 
L 362.552418 -265.264549 
L 359.685983 -268.94741 
L 356.348242 -272.63027 
L 352.712556 -276.31313 
L 349.141143 -279.995991 
L 345.933985 -283.678851 
L 343.164307 -287.361712 
L 340.754651 -291.044572 
L 338.63112 -294.727432 
L 336.784737 -298.410293 
L 335.244473 -302.093153 
L 334.015357 -305.776014 
L 333.034824 -309.458874 
L 332.208643 -313.141734 
L 331.478615 -316.824595 
L 330.802219 -320.507455 
L 330.092967 -324.190316 
L 329.277665 -327.873176 
L 328.40968 -331.556036 
L 327.627524 -335.238897 
L 326.971809 -338.921757 
L 326.291231 -342.604618 
L 325.354046 -346.287478 
L 324.051592 -349.970338 
L 322.511333 -353.653199 
L 321.042582 -357.336059 
L 319.974634 -361.01892 
L 319.5 -364.70178 
L 319.618299 -368.38464 
L 320.199409 -372.067501 
L 321.079531 -375.750361 
L 322.132216 -379.433222 
L 323.350222 -383.116082 
L 324.88667 -386.798942 
L 326.936633 -390.481803 
L 329.547515 -394.164663 
L 332.583496 -397.847524 
L 335.860808 -401.530384 
L 339.252727 -405.213244 
L 342.659515 -408.896105 
L 345.953958 -412.578965 
L 349.000784 -416.261826 
L 351.699233 -419.944686 
L 354.01262 -423.627546 
L 356.011096 -427.310407 
L 357.868853 -430.993267 
L 359.745503 -434.676128 
L 361.652719 -438.358988 
L 363.462803 -442.041848 
L 365.043464 -445.724709 
L 366.369872 -449.407569 
L 367.521614 -453.09043 
L 368.591868 -456.77329 
L 369.602244 -460.45615 
L 370.50633 -464.139011 
L 371.272173 -467.821871 
L 371.936735 -471.504732 
L 372.561217 -475.187592 
L 373.154219 -478.870452 
L 373.666045 -482.553313 
L 374.048155 -486.236173 
L 374.299006 -489.919034 
L 374.460374 -493.601894 
L 374.585633 -497.284754 
L 374.70998 -500.967615 
L 374.838682 -504.650475 
L 374.956993 -508.333336 
L 375.051206 -512.016196 
L 375.120442 -515.699056 
L 375.170777 -519.381917 
L 375.205367 -523.064777 
L 375.224639 -526.747638 
L 375.232493 -530.430498 
L 375.237281 -534.113358 
L 375.246197 -537.796219 
L 375.260413 -541.479079 
L 375.275913 -545.16194 
L 375.288114 -548.8448 
L 375.295301 -552.52766 
L 375.304699 -552.52766 
L 375.304699 -552.52766 
L 375.311886 -548.8448 
L 375.324087 -545.16194 
L 375.339587 -541.479079 
L 375.353803 -537.796219 
L 375.362719 -534.113358 
L 375.367507 -530.430498 
L 375.375361 -526.747638 
L 375.394633 -523.064777 
L 375.429223 -519.381917 
L 375.479558 -515.699056 
L 375.548794 -512.016196 
L 375.643007 -508.333336 
L 375.761318 -504.650475 
L 375.89002 -500.967615 
L 376.014367 -497.284754 
L 376.139626 -493.601894 
L 376.300994 -489.919034 
L 376.551845 -486.236173 
L 376.933955 -482.553313 
L 377.445781 -478.870452 
L 378.038783 -475.187592 
L 378.663265 -471.504732 
L 379.327827 -467.821871 
L 380.09367 -464.139011 
L 380.997756 -460.45615 
L 382.008132 -456.77329 
L 383.078386 -453.09043 
L 384.230128 -449.407569 
L 385.556536 -445.724709 
L 387.137197 -442.041848 
L 388.947281 -438.358988 
L 390.854497 -434.676128 
L 392.731147 -430.993267 
L 394.588904 -427.310407 
L 396.58738 -423.627546 
L 398.900767 -419.944686 
L 401.599216 -416.261826 
L 404.646042 -412.578965 
L 407.940485 -408.896105 
L 411.347273 -405.213244 
L 414.739192 -401.530384 
L 418.016504 -397.847524 
L 421.052485 -394.164663 
L 423.663367 -390.481803 
L 425.71333 -386.798942 
L 427.249778 -383.116082 
L 428.467784 -379.433222 
L 429.520469 -375.750361 
L 430.400591 -372.067501 
L 430.981701 -368.38464 
L 431.1 -364.70178 
L 430.625366 -361.01892 
L 429.557418 -357.336059 
L 428.088667 -353.653199 
L 426.548408 -349.970338 
L 425.245954 -346.287478 
L 424.308769 -342.604618 
L 423.628191 -338.921757 
L 422.972476 -335.238897 
L 422.19032 -331.556036 
L 421.322335 -327.873176 
L 420.507033 -324.190316 
L 419.797781 -320.507455 
L 419.121385 -316.824595 
L 418.391357 -313.141734 
L 417.565176 -309.458874 
L 416.584643 -305.776014 
L 415.355527 -302.093153 
L 413.815263 -298.410293 
L 411.96888 -294.727432 
L 409.845349 -291.044572 
L 407.435693 -287.361712 
L 404.666015 -283.678851 
L 401.458857 -279.995991 
L 397.887444 -276.31313 
L 394.251758 -272.63027 
L 390.914017 -268.94741 
L 388.047582 -265.264549 
L 385.590939 -261.581689 
L 383.416213 -257.898828 
L 381.481149 -254.215968 
L 379.839965 -250.533108 
L 378.571033 -246.850247 
L 377.705655 -243.167387 
L 377.196666 -239.484526 
L 376.936049 -235.801666 
L 376.804265 -232.118806 
L 376.712736 -228.435945 
L 376.611048 -224.753085 
L 376.471306 -221.070224 
L 376.284005 -217.387364 
L 376.067311 -213.704504 
L 375.858846 -210.021643 
L 375.686594 -206.338783 
L 375.553998 -202.655922 
L 375.453305 -198.973062 
L 375.380853 -195.290202 
L 375.335696 -191.607341 
L 375.312831 -187.924481 
z
" id="m99da754e01" style="stroke:#325c96;stroke-width:1.75;"/>
    </defs>
    <g clip-path="url(#p2cf47c95eb)">
     <use style="fill:#325c96;stroke:#325c96;stroke-width:1.75;" x="0.0" xlink:href="#m99da754e01" y="792.0"/>
    </g>
   </g>
   <g id="PolyCollection_3">
    <defs>
     <path d="M 542.713408 -187.071288 
L 542.686592 -187.071288 
L 542.66522 -190.750033 
L 542.623425 -194.428778 
L 542.553099 -198.107522 
L 542.447226 -201.786267 
L 542.300699 -205.465011 
L 542.115454 -209.143756 
L 541.90907 -212.8225 
L 541.713644 -216.501245 
L 541.55589 -220.179989 
L 541.43498 -223.858734 
L 541.323956 -227.537478 
L 541.190703 -231.216223 
L 541.006449 -234.894968 
L 540.726379 -238.573712 
L 540.266412 -242.252457 
L 539.512619 -245.931201 
L 538.36997 -249.609946 
L 536.812584 -253.28869 
L 534.883734 -256.967435 
L 532.63305 -260.646179 
L 530.04499 -264.324924 
L 527.045841 -268.003668 
L 523.618898 -271.682413 
L 519.926176 -275.361158 
L 516.278487 -279.039902 
L 512.949594 -282.718647 
L 510.04022 -286.397391 
L 507.539386 -290.076136 
L 505.452473 -293.75488 
L 503.796045 -297.433625 
L 502.499375 -301.112369 
L 501.400956 -304.791114 
L 500.370891 -308.469858 
L 499.404822 -312.148603 
L 498.5835 -315.827348 
L 497.95905 -319.506092 
L 497.489326 -323.184837 
L 497.068492 -326.863581 
L 496.605176 -330.542326 
L 496.061973 -334.22107 
L 495.414087 -337.899815 
L 494.584603 -341.578559 
L 493.468222 -345.257304 
L 492.056187 -348.936048 
L 490.516635 -352.614793 
L 489.111025 -356.293538 
L 488.028131 -359.972282 
L 487.309679 -363.651027 
L 486.926201 -367.329771 
L 486.9 -371.008516 
L 487.322011 -374.68726 
L 488.238433 -378.366005 
L 489.5685 -382.044749 
L 491.184517 -385.723494 
L 493.055053 -389.402238 
L 495.265197 -393.080983 
L 497.899339 -396.759728 
L 500.937431 -400.438472 
L 504.26355 -404.117217 
L 507.729431 -407.795961 
L 511.182186 -411.474706 
L 514.460771 -415.15345 
L 517.420168 -418.832195 
L 519.995329 -422.510939 
L 522.246516 -426.189684 
L 524.318298 -429.868428 
L 526.328103 -433.547173 
L 528.288456 -437.225918 
L 530.129562 -440.904662 
L 531.776549 -444.583407 
L 533.205198 -448.262151 
L 534.451042 -451.940896 
L 535.579096 -455.61964 
L 536.633031 -459.298385 
L 537.606303 -462.977129 
L 538.468932 -466.655874 
L 539.218687 -470.334618 
L 539.888869 -474.013363 
L 540.503089 -477.692108 
L 541.041081 -481.370852 
L 541.460322 -485.049597 
L 541.743431 -488.728341 
L 541.918513 -492.407086 
L 542.039983 -496.08583 
L 542.155146 -499.764575 
L 542.283252 -503.443319 
L 542.415703 -507.122064 
L 542.531311 -510.800808 
L 542.613901 -514.479553 
L 542.660711 -518.158298 
L 542.679191 -521.837042 
L 542.679675 -525.515787 
L 542.671593 -529.194531 
L 542.663314 -532.873276 
L 542.661212 -536.55202 
L 542.667083 -540.230765 
L 542.677645 -543.909509 
L 542.687855 -547.588254 
L 542.694723 -551.266998 
L 542.705277 -551.266998 
L 542.705277 -551.266998 
L 542.712145 -547.588254 
L 542.722355 -543.909509 
L 542.732917 -540.230765 
L 542.738788 -536.55202 
L 542.736686 -532.873276 
L 542.728407 -529.194531 
L 542.720325 -525.515787 
L 542.720809 -521.837042 
L 542.739289 -518.158298 
L 542.786099 -514.479553 
L 542.868689 -510.800808 
L 542.984297 -507.122064 
L 543.116748 -503.443319 
L 543.244854 -499.764575 
L 543.360017 -496.08583 
L 543.481487 -492.407086 
L 543.656569 -488.728341 
L 543.939678 -485.049597 
L 544.358919 -481.370852 
L 544.896911 -477.692108 
L 545.511131 -474.013363 
L 546.181313 -470.334618 
L 546.931068 -466.655874 
L 547.793697 -462.977129 
L 548.766969 -459.298385 
L 549.820904 -455.61964 
L 550.948958 -451.940896 
L 552.194802 -448.262151 
L 553.623451 -444.583407 
L 555.270438 -440.904662 
L 557.111544 -437.225918 
L 559.071897 -433.547173 
L 561.081702 -429.868428 
L 563.153484 -426.189684 
L 565.404671 -422.510939 
L 567.979832 -418.832195 
L 570.939229 -415.15345 
L 574.217814 -411.474706 
L 577.670569 -407.795961 
L 581.13645 -404.117217 
L 584.462569 -400.438472 
L 587.500661 -396.759728 
L 590.134803 -393.080983 
L 592.344947 -389.402238 
L 594.215483 -385.723494 
L 595.8315 -382.044749 
L 597.161567 -378.366005 
L 598.077989 -374.68726 
L 598.5 -371.008516 
L 598.473799 -367.329771 
L 598.090321 -363.651027 
L 597.371869 -359.972282 
L 596.288975 -356.293538 
L 594.883365 -352.614793 
L 593.343813 -348.936048 
L 591.931778 -345.257304 
L 590.815397 -341.578559 
L 589.985913 -337.899815 
L 589.338027 -334.22107 
L 588.794824 -330.542326 
L 588.331508 -326.863581 
L 587.910674 -323.184837 
L 587.44095 -319.506092 
L 586.8165 -315.827348 
L 585.995178 -312.148603 
L 585.029109 -308.469858 
L 583.999044 -304.791114 
L 582.900625 -301.112369 
L 581.603955 -297.433625 
L 579.947527 -293.75488 
L 577.860614 -290.076136 
L 575.35978 -286.397391 
L 572.450406 -282.718647 
L 569.121513 -279.039902 
L 565.473824 -275.361158 
L 561.781102 -271.682413 
L 558.354159 -268.003668 
L 555.35501 -264.324924 
L 552.76695 -260.646179 
L 550.516266 -256.967435 
L 548.587416 -253.28869 
L 547.03003 -249.609946 
L 545.887381 -245.931201 
L 545.133588 -242.252457 
L 544.673621 -238.573712 
L 544.393551 -234.894968 
L 544.209297 -231.216223 
L 544.076044 -227.537478 
L 543.96502 -223.858734 
L 543.84411 -220.179989 
L 543.686356 -216.501245 
L 543.49093 -212.8225 
L 543.284546 -209.143756 
L 543.099301 -205.465011 
L 542.952774 -201.786267 
L 542.846901 -198.107522 
L 542.776575 -194.428778 
L 542.73478 -190.750033 
L 542.713408 -187.071288 
z
" id="m39e28cd409" style="stroke:#ebf2c3;stroke-width:1.75;"/>
    </defs>
    <g clip-path="url(#p2cf47c95eb)">
     <use style="fill:#ebf2c3;stroke:#ebf2c3;stroke-width:1.75;" x="0.0" xlink:href="#m39e28cd409" y="792.0"/>
    </g>
   </g>
   <g id="PolyCollection_4">
    <defs>
     <path d="M 654.321651 -188.398416 
L 654.278349 -188.398416 
L 654.240663 -192.083682 
L 654.165237 -195.768948 
L 654.042629 -199.454215 
L 653.87851 -203.139481 
L 653.693463 -206.824748 
L 653.51128 -210.510014 
L 653.346114 -214.19528 
L 653.199061 -217.880547 
L 653.064692 -221.565813 
L 652.938703 -225.25108 
L 652.815264 -228.936346 
L 652.673336 -232.621613 
L 652.467812 -236.306879 
L 652.13745 -239.992145 
L 651.617009 -243.677412 
L 650.835865 -247.362678 
L 649.713827 -251.047945 
L 648.180438 -254.733211 
L 646.208783 -258.418477 
L 643.818149 -262.103744 
L 641.039392 -265.78901 
L 637.907986 -269.474277 
L 634.519939 -273.159543 
L 631.074232 -276.844809 
L 627.813635 -280.530076 
L 624.902777 -284.215342 
L 622.361917 -287.900609 
L 620.103438 -291.585875 
L 618.024912 -295.271142 
L 616.099668 -298.956408 
L 614.406772 -302.641674 
L 613.056294 -306.326941 
L 612.064689 -310.012207 
L 611.303259 -313.697474 
L 610.559422 -317.38274 
L 609.655843 -321.068006 
L 608.563669 -324.753273 
L 607.434641 -328.438539 
L 606.49082 -332.123806 
L 605.835357 -335.809072 
L 605.35143 -339.494339 
L 604.780966 -343.179605 
L 603.910408 -346.864871 
L 602.719425 -350.550138 
L 601.398396 -354.235404 
L 600.233029 -357.920671 
L 599.44018 -361.605937 
L 599.07715 -365.291203 
L 599.07315 -368.97647 
L 599.307601 -372.661736 
L 599.669316 -376.347003 
L 600.130235 -380.032269 
L 600.818105 -383.717536 
L 601.963834 -387.402802 
L 603.720812 -391.088068 
L 606.059078 -394.773335 
L 608.863019 -398.458601 
L 612.088218 -402.143868 
L 615.753112 -405.829134 
L 619.774753 -409.5144 
L 623.884071 -413.199667 
L 627.739641 -416.884933 
L 631.086035 -420.5702 
L 633.80355 -424.255466 
L 635.901887 -427.940732 
L 637.531134 -431.625999 
L 638.944491 -435.311265 
L 640.367207 -438.996532 
L 641.880996 -442.681798 
L 643.435733 -446.367065 
L 644.946981 -450.052331 
L 646.366862 -453.737597 
L 647.681921 -457.422864 
L 648.873529 -461.10813 
L 649.902984 -464.793397 
L 650.744312 -468.478663 
L 651.418766 -472.163929 
L 651.979301 -475.849196 
L 652.465531 -479.534462 
L 652.885832 -483.219729 
L 653.234519 -486.904995 
L 653.509783 -490.590262 
L 653.71609 -494.275528 
L 653.861051 -497.960794 
L 653.954839 -501.646061 
L 654.010953 -505.331327 
L 654.045874 -509.016594 
L 654.075867 -512.70186 
L 654.1107 -516.387126 
L 654.149101 -520.072393 
L 654.182125 -523.757659 
L 654.202873 -527.442926 
L 654.21324 -531.128192 
L 654.221514 -534.813458 
L 654.234539 -538.498725 
L 654.252678 -542.183991 
L 654.27128 -545.869258 
L 654.285614 -549.554524 
L 654.294114 -553.239791 
L 654.305886 -553.239791 
L 654.305886 -553.239791 
L 654.314386 -549.554524 
L 654.32872 -545.869258 
L 654.347322 -542.183991 
L 654.365461 -538.498725 
L 654.378486 -534.813458 
L 654.38676 -531.128192 
L 654.397127 -527.442926 
L 654.417875 -523.757659 
L 654.450899 -520.072393 
L 654.4893 -516.387126 
L 654.524133 -512.70186 
L 654.554126 -509.016594 
L 654.589047 -505.331327 
L 654.645161 -501.646061 
L 654.738949 -497.960794 
L 654.88391 -494.275528 
L 655.090217 -490.590262 
L 655.365481 -486.904995 
L 655.714168 -483.219729 
L 656.134469 -479.534462 
L 656.620699 -475.849196 
L 657.181234 -472.163929 
L 657.855688 -468.478663 
L 658.697016 -464.793397 
L 659.726471 -461.10813 
L 660.918079 -457.422864 
L 662.233138 -453.737597 
L 663.653019 -450.052331 
L 665.164267 -446.367065 
L 666.719004 -442.681798 
L 668.232793 -438.996532 
L 669.655509 -435.311265 
L 671.068866 -431.625999 
L 672.698113 -427.940732 
L 674.79645 -424.255466 
L 677.513965 -420.5702 
L 680.860359 -416.884933 
L 684.715929 -413.199667 
L 688.825247 -409.5144 
L 692.846888 -405.829134 
L 696.511782 -402.143868 
L 699.736981 -398.458601 
L 702.540922 -394.773335 
L 704.879188 -391.088068 
L 706.636166 -387.402802 
L 707.781895 -383.717536 
L 708.469765 -380.032269 
L 708.930684 -376.347003 
L 709.292399 -372.661736 
L 709.52685 -368.97647 
L 709.52285 -365.291203 
L 709.15982 -361.605937 
L 708.366971 -357.920671 
L 707.201604 -354.235404 
L 705.880575 -350.550138 
L 704.689592 -346.864871 
L 703.819034 -343.179605 
L 703.24857 -339.494339 
L 702.764643 -335.809072 
L 702.10918 -332.123806 
L 701.165359 -328.438539 
L 700.036331 -324.753273 
L 698.944157 -321.068006 
L 698.040578 -317.38274 
L 697.296741 -313.697474 
L 696.535311 -310.012207 
L 695.543706 -306.326941 
L 694.193228 -302.641674 
L 692.500332 -298.956408 
L 690.575088 -295.271142 
L 688.496562 -291.585875 
L 686.238083 -287.900609 
L 683.697223 -284.215342 
L 680.786365 -280.530076 
L 677.525768 -276.844809 
L 674.080061 -273.159543 
L 670.692014 -269.474277 
L 667.560608 -265.78901 
L 664.781851 -262.103744 
L 662.391217 -258.418477 
L 660.419562 -254.733211 
L 658.886173 -251.047945 
L 657.764135 -247.362678 
L 656.982991 -243.677412 
L 656.46255 -239.992145 
L 656.132188 -236.306879 
L 655.926664 -232.621613 
L 655.784736 -228.936346 
L 655.661297 -225.25108 
L 655.535308 -221.565813 
L 655.400939 -217.880547 
L 655.253886 -214.19528 
L 655.08872 -210.510014 
L 654.906537 -206.824748 
L 654.72149 -203.139481 
L 654.557371 -199.454215 
L 654.434763 -195.768948 
L 654.359337 -192.083682 
L 654.321651 -188.398416 
z
" id="me9529e9293" style="stroke:#325c96;stroke-width:1.75;"/>
    </defs>
    <g clip-path="url(#p2cf47c95eb)">
     <use style="fill:#325c96;stroke:#325c96;stroke-width:1.75;" x="0.0" xlink:href="#me9529e9293" y="792.0"/>
    </g>
   </g>
   <g id="PolyCollection_5">
    <defs>
     <path d="M 821.714643 -188.372954 
L 821.685357 -188.372954 
L 821.662569 -191.645032 
L 821.616167 -194.91711 
L 821.534187 -198.189188 
L 821.408125 -201.461266 
L 821.239142 -204.733344 
L 821.041301 -208.005422 
L 820.837629 -211.277499 
L 820.64952 -214.549577 
L 820.485936 -217.821655 
L 820.339422 -221.093733 
L 820.190877 -224.365811 
L 820.020432 -227.637889 
L 819.818516 -230.909967 
L 819.586569 -234.182045 
L 819.319045 -237.454123 
L 818.975681 -240.726201 
L 818.469797 -243.998279 
L 817.68909 -247.270357 
L 816.535989 -250.542435 
L 814.958067 -253.814512 
L 812.948992 -257.08659 
L 810.519463 -260.358668 
L 807.654329 -263.630746 
L 804.291425 -266.902824 
L 800.362963 -270.174902 
L 795.897018 -273.44698 
L 791.101836 -276.719058 
L 786.338156 -279.991136 
L 781.976553 -283.263214 
L 778.250026 -286.535292 
L 775.207749 -289.80737 
L 772.764032 -293.079448 
L 770.771529 -296.351525 
L 769.09083 -299.623603 
L 767.66549 -302.895681 
L 766.567496 -306.167759 
L 765.947786 -309.439837 
L 765.9 -312.711915 
L 766.347801 -315.983993 
L 767.065987 -319.256071 
L 767.829515 -322.528149 
L 768.562786 -325.800227 
L 769.354757 -329.072305 
L 770.330463 -332.344383 
L 771.504258 -335.616461 
L 772.741861 -338.888538 
L 773.840083 -342.160616 
L 774.644887 -345.432694 
L 775.141108 -348.704772 
L 775.483828 -351.97685 
L 775.950086 -355.248928 
L 776.817345 -358.521006 
L 778.232675 -361.793084 
L 780.15292 -365.065162 
L 782.381969 -368.33724 
L 784.666355 -371.609318 
L 786.792593 -374.881396 
L 788.652354 -378.153474 
L 790.26322 -381.425551 
L 791.738844 -384.697629 
L 793.21791 -387.969707 
L 794.791284 -391.241785 
L 796.472978 -394.513863 
L 798.225175 -397.785941 
L 800.005121 -401.058019 
L 801.790746 -404.330097 
L 803.569319 -407.602175 
L 805.313189 -410.874253 
L 806.975481 -414.146331 
L 808.508708 -417.418409 
L 809.886069 -420.690487 
L 811.114189 -423.962564 
L 812.234602 -427.234642 
L 813.305081 -430.50672 
L 814.362478 -433.778798 
L 815.396714 -437.050876 
L 816.363495 -440.322954 
L 817.221898 -443.595032 
L 817.957246 -446.86711 
L 818.574076 -450.139188 
L 819.080128 -453.411266 
L 819.482099 -456.683344 
L 819.789834 -459.955422 
L 820.018424 -463.2275 
L 820.188928 -466.499577 
L 820.33042 -469.771655 
L 820.476632 -473.043733 
L 820.652007 -476.315811 
L 820.856498 -479.587889 
L 821.064572 -482.859967 
L 821.242203 -486.132045 
L 821.369359 -489.404123 
L 821.450432 -492.676201 
L 821.505674 -495.948279 
L 821.553476 -499.220357 
L 821.599642 -502.492435 
L 821.640009 -505.764513 
L 821.669324 -509.03659 
L 821.686703 -512.308668 
L 821.713297 -512.308668 
L 821.713297 -512.308668 
L 821.730676 -509.03659 
L 821.759991 -505.764513 
L 821.800358 -502.492435 
L 821.846524 -499.220357 
L 821.894326 -495.948279 
L 821.949568 -492.676201 
L 822.030641 -489.404123 
L 822.157797 -486.132045 
L 822.335428 -482.859967 
L 822.543502 -479.587889 
L 822.747993 -476.315811 
L 822.923368 -473.043733 
L 823.06958 -469.771655 
L 823.211072 -466.499577 
L 823.381576 -463.2275 
L 823.610166 -459.955422 
L 823.917901 -456.683344 
L 824.319872 -453.411266 
L 824.825924 -450.139188 
L 825.442754 -446.86711 
L 826.178102 -443.595032 
L 827.036505 -440.322954 
L 828.003286 -437.050876 
L 829.037522 -433.778798 
L 830.094919 -430.50672 
L 831.165398 -427.234642 
L 832.285811 -423.962564 
L 833.513931 -420.690487 
L 834.891292 -417.418409 
L 836.424519 -414.146331 
L 838.086811 -410.874253 
L 839.830681 -407.602175 
L 841.609254 -404.330097 
L 843.394879 -401.058019 
L 845.174825 -397.785941 
L 846.927022 -394.513863 
L 848.608716 -391.241785 
L 850.18209 -387.969707 
L 851.661156 -384.697629 
L 853.13678 -381.425551 
L 854.747646 -378.153474 
L 856.607407 -374.881396 
L 858.733645 -371.609318 
L 861.018031 -368.33724 
L 863.24708 -365.065162 
L 865.167325 -361.793084 
L 866.582655 -358.521006 
L 867.449914 -355.248928 
L 867.916172 -351.97685 
L 868.258892 -348.704772 
L 868.755113 -345.432694 
L 869.559917 -342.160616 
L 870.658139 -338.888538 
L 871.895742 -335.616461 
L 873.069537 -332.344383 
L 874.045243 -329.072305 
L 874.837214 -325.800227 
L 875.570485 -322.528149 
L 876.334013 -319.256071 
L 877.052199 -315.983993 
L 877.5 -312.711915 
L 877.452214 -309.439837 
L 876.832504 -306.167759 
L 875.73451 -302.895681 
L 874.30917 -299.623603 
L 872.628471 -296.351525 
L 870.635968 -293.079448 
L 868.192251 -289.80737 
L 865.149974 -286.535292 
L 861.423447 -283.263214 
L 857.061844 -279.991136 
L 852.298164 -276.719058 
L 847.502982 -273.44698 
L 843.037037 -270.174902 
L 839.108575 -266.902824 
L 835.745671 -263.630746 
L 832.880537 -260.358668 
L 830.451008 -257.08659 
L 828.441933 -253.814512 
L 826.864011 -250.542435 
L 825.71091 -247.270357 
L 824.930203 -243.998279 
L 824.424319 -240.726201 
L 824.080955 -237.454123 
L 823.813431 -234.182045 
L 823.581484 -230.909967 
L 823.379568 -227.637889 
L 823.209123 -224.365811 
L 823.060578 -221.093733 
L 822.914064 -217.821655 
L 822.75048 -214.549577 
L 822.562371 -211.277499 
L 822.358699 -208.005422 
L 822.160858 -204.733344 
L 821.991875 -201.461266 
L 821.865813 -198.189188 
L 821.783833 -194.91711 
L 821.737431 -191.645032 
L 821.714643 -188.372954 
z
" id="m570e313c80" style="stroke:#ebf2c3;stroke-width:1.75;"/>
    </defs>
    <g clip-path="url(#p2cf47c95eb)">
     <use style="fill:#ebf2c3;stroke:#ebf2c3;stroke-width:1.75;" x="0.0" xlink:href="#m570e313c80" y="792.0"/>
    </g>
   </g>
   <g id="PolyCollection_6">
    <defs>
     <path d="M 933.313956 -188.124237 
L 933.286044 -188.124237 
L 933.260548 -191.802625 
L 933.209688 -195.481013 
L 933.12897 -199.159401 
L 933.023044 -202.837789 
L 932.899752 -206.516177 
L 932.763423 -210.194565 
L 932.620828 -213.872953 
L 932.488846 -217.551342 
L 932.384982 -221.22973 
L 932.31338 -224.908118 
L 932.264096 -228.586506 
L 932.211026 -232.264894 
L 932.102881 -235.943282 
L 931.872053 -239.62167 
L 931.459213 -243.300058 
L 930.820356 -246.978446 
L 929.919368 -250.656834 
L 928.739929 -254.335223 
L 927.305264 -258.013611 
L 925.656991 -261.691999 
L 923.808211 -265.370387 
L 921.759645 -269.048775 
L 919.591673 -272.727163 
L 917.494881 -276.405551 
L 915.641012 -280.083939 
L 914.030705 -283.762327 
L 912.524578 -287.440715 
L 911.020392 -291.119103 
L 909.555059 -294.797492 
L 908.245223 -298.47588 
L 907.159395 -302.154268 
L 906.227967 -305.832656 
L 905.269134 -309.511044 
L 904.133393 -313.189432 
L 902.818191 -316.86782 
L 901.418139 -320.546208 
L 899.993509 -324.224596 
L 898.532727 -327.902984 
L 897.030827 -331.581373 
L 895.53881 -335.259761 
L 894.081606 -338.938149 
L 892.558137 -342.616537 
L 890.80934 -346.294925 
L 888.797011 -349.973313 
L 886.655321 -353.651701 
L 884.567053 -357.330089 
L 882.635884 -361.008477 
L 880.883307 -364.686865 
L 879.357818 -368.365254 
L 878.215807 -372.043642 
L 877.629713 -375.72203 
L 877.630625 -379.400418 
L 878.131787 -383.078806 
L 879.096416 -386.757194 
L 880.591333 -390.435582 
L 882.678205 -394.11397 
L 885.333876 -397.792358 
L 888.499849 -401.470746 
L 892.133483 -405.149134 
L 896.133495 -408.827523 
L 900.248575 -412.505911 
L 904.141111 -416.184299 
L 907.54453 -419.862687 
L 910.34527 -423.541075 
L 912.576441 -427.219463 
L 914.393565 -430.897851 
L 916.021625 -434.576239 
L 917.646216 -438.254627 
L 919.318787 -441.933015 
L 920.970757 -445.611404 
L 922.520954 -449.289792 
L 923.962867 -452.96818 
L 925.345827 -456.646568 
L 926.684235 -460.324956 
L 927.9147 -464.003344 
L 928.960154 -467.681732 
L 929.814141 -471.36012 
L 930.531076 -475.038508 
L 931.148814 -478.716896 
L 931.659253 -482.395285 
L 932.048082 -486.073673 
L 932.327072 -489.752061 
L 932.525057 -493.430449 
L 932.670612 -497.108837 
L 932.787167 -500.787225 
L 932.890257 -504.465613 
L 932.983838 -508.144001 
L 933.064409 -511.822389 
L 933.129329 -515.500777 
L 933.178164 -519.179166 
L 933.209307 -522.857554 
L 933.221697 -526.535942 
L 933.220692 -530.21433 
L 933.218454 -533.892718 
L 933.225854 -537.571106 
L 933.244263 -541.249494 
L 933.266296 -544.927882 
L 933.283808 -548.60627 
L 933.293863 -552.284658 
L 933.306137 -552.284658 
L 933.306137 -552.284658 
L 933.316192 -548.60627 
L 933.333704 -544.927882 
L 933.355737 -541.249494 
L 933.374146 -537.571106 
L 933.381546 -533.892718 
L 933.379308 -530.21433 
L 933.378303 -526.535942 
L 933.390693 -522.857554 
L 933.421836 -519.179166 
L 933.470671 -515.500777 
L 933.535591 -511.822389 
L 933.616162 -508.144001 
L 933.709743 -504.465613 
L 933.812833 -500.787225 
L 933.929388 -497.108837 
L 934.074943 -493.430449 
L 934.272928 -489.752061 
L 934.551918 -486.073673 
L 934.940747 -482.395285 
L 935.451186 -478.716896 
L 936.068924 -475.038508 
L 936.785859 -471.36012 
L 937.639846 -467.681732 
L 938.6853 -464.003344 
L 939.915765 -460.324956 
L 941.254173 -456.646568 
L 942.637133 -452.96818 
L 944.079046 -449.289792 
L 945.629243 -445.611404 
L 947.281213 -441.933015 
L 948.953784 -438.254627 
L 950.578375 -434.576239 
L 952.206435 -430.897851 
L 954.023559 -427.219463 
L 956.25473 -423.541075 
L 959.05547 -419.862687 
L 962.458889 -416.184299 
L 966.351425 -412.505911 
L 970.466505 -408.827523 
L 974.466517 -405.149134 
L 978.100151 -401.470746 
L 981.266124 -397.792358 
L 983.921795 -394.11397 
L 986.008667 -390.435582 
L 987.503584 -386.757194 
L 988.468213 -383.078806 
L 988.969375 -379.400418 
L 988.970287 -375.72203 
L 988.384193 -372.043642 
L 987.242182 -368.365254 
L 985.716693 -364.686865 
L 983.964116 -361.008477 
L 982.032947 -357.330089 
L 979.944679 -353.651701 
L 977.802989 -349.973313 
L 975.79066 -346.294925 
L 974.041863 -342.616537 
L 972.518394 -338.938149 
L 971.06119 -335.259761 
L 969.569173 -331.581373 
L 968.067273 -327.902984 
L 966.606491 -324.224596 
L 965.181861 -320.546208 
L 963.781809 -316.86782 
L 962.466607 -313.189432 
L 961.330866 -309.511044 
L 960.372033 -305.832656 
L 959.440605 -302.154268 
L 958.354777 -298.47588 
L 957.044941 -294.797492 
L 955.579608 -291.119103 
L 954.075422 -287.440715 
L 952.569295 -283.762327 
L 950.958988 -280.083939 
L 949.105119 -276.405551 
L 947.008327 -272.727163 
L 944.840355 -269.048775 
L 942.791789 -265.370387 
L 940.943009 -261.691999 
L 939.294736 -258.013611 
L 937.860071 -254.335223 
L 936.680632 -250.656834 
L 935.779644 -246.978446 
L 935.140787 -243.300058 
L 934.727947 -239.62167 
L 934.497119 -235.943282 
L 934.388974 -232.264894 
L 934.335904 -228.586506 
L 934.28662 -224.908118 
L 934.215018 -221.22973 
L 934.111154 -217.551342 
L 933.979172 -213.872953 
L 933.836577 -210.194565 
L 933.700248 -206.516177 
L 933.576956 -202.837789 
L 933.47103 -199.159401 
L 933.390312 -195.481013 
L 933.339452 -191.802625 
L 933.313956 -188.124237 
z
" id="m265ec5c554" style="stroke:#325c96;stroke-width:1.75;"/>
    </defs>
    <g clip-path="url(#p2cf47c95eb)">
     <use style="fill:#325c96;stroke:#325c96;stroke-width:1.75;" x="0.0" xlink:href="#m265ec5c554" y="792.0"/>
    </g>
   </g>
   <g id="PolyCollection_7">
    <defs>
     <path d="M 1100.707041 -188.848378 
L 1100.692959 -188.848378 
L 1100.673742 -193.267432 
L 1100.628581 -197.686486 
L 1100.551243 -202.10554 
L 1100.447345 -206.524595 
L 1100.329356 -210.943649 
L 1100.214678 -215.362703 
L 1100.120376 -219.781757 
L 1100.046102 -224.200811 
L 1099.975441 -228.619865 
L 1099.888986 -233.03892 
L 1099.753467 -237.457974 
L 1099.503911 -241.877028 
L 1099.045426 -246.296082 
L 1098.282022 -250.715136 
L 1097.164854 -255.134191 
L 1095.711695 -259.553245 
L 1093.93926 -263.972299 
L 1091.780653 -268.391353 
L 1089.197869 -272.810407 
L 1086.417081 -277.229461 
L 1083.840999 -281.648516 
L 1081.652718 -286.06757 
L 1079.750533 -290.486624 
L 1078.054149 -294.905678 
L 1076.590499 -299.324732 
L 1075.375457 -303.743787 
L 1074.414019 -308.162841 
L 1073.717358 -312.581895 
L 1073.216354 -317.000949 
L 1072.733127 -321.420003 
L 1072.172393 -325.839058 
L 1071.66361 -330.258112 
L 1071.361909 -334.677166 
L 1071.19549 -339.09622 
L 1070.893626 -343.515274 
L 1070.223178 -347.934328 
L 1069.209695 -352.353383 
L 1068.122613 -356.772437 
L 1067.229174 -361.191491 
L 1066.616657 -365.610545 
L 1066.283432 -370.029599 
L 1066.250696 -374.448654 
L 1066.472849 -378.867708 
L 1066.896033 -383.286762 
L 1067.634978 -387.705816 
L 1068.818733 -392.12487 
L 1070.376567 -396.543924 
L 1072.174551 -400.962979 
L 1074.25135 -405.382033 
L 1076.694291 -409.801087 
L 1079.334847 -414.220141 
L 1081.800778 -418.639195 
L 1083.825259 -423.05825 
L 1085.419531 -427.477304 
L 1086.792401 -431.896358 
L 1088.13636 -436.315412 
L 1089.509279 -440.734466 
L 1090.871667 -445.15352 
L 1092.167877 -449.572575 
L 1093.383612 -453.991629 
L 1094.546398 -458.410683 
L 1095.635145 -462.829737 
L 1096.540425 -467.248791 
L 1097.205599 -471.667846 
L 1097.71495 -476.0869 
L 1098.155416 -480.505954 
L 1098.511679 -484.925008 
L 1098.758265 -489.344062 
L 1098.942551 -493.763117 
L 1099.127026 -498.182171 
L 1099.327059 -502.601225 
L 1099.53065 -507.020279 
L 1099.726176 -511.439333 
L 1099.907302 -515.858387 
L 1100.074254 -520.277442 
L 1100.217956 -524.696496 
L 1100.319711 -529.11555 
L 1100.387032 -533.534604 
L 1100.447712 -537.953658 
L 1100.502741 -542.372713 
L 1100.534139 -546.791767 
L 1100.547102 -551.210821 
L 1100.562994 -555.629875 
L 1100.590226 -560.048929 
L 1100.623058 -564.467983 
L 1100.65125 -568.887038 
L 1100.666769 -573.306092 
L 1100.670066 -577.725146 
L 1100.667944 -582.1442 
L 1100.664786 -586.563254 
L 1100.662981 -590.982309 
L 1100.667058 -595.401363 
L 1100.676917 -599.820417 
L 1100.685199 -604.239471 
L 1100.687828 -608.658525 
L 1100.688607 -613.077579 
L 1100.69156 -617.496634 
L 1100.695698 -621.915688 
L 1100.698536 -626.334742 
L 1100.701464 -626.334742 
L 1100.701464 -626.334742 
L 1100.704302 -621.915688 
L 1100.70844 -617.496634 
L 1100.711393 -613.077579 
L 1100.712172 -608.658525 
L 1100.714801 -604.239471 
L 1100.723083 -599.820417 
L 1100.732942 -595.401363 
L 1100.737019 -590.982309 
L 1100.735214 -586.563254 
L 1100.732056 -582.1442 
L 1100.729934 -577.725146 
L 1100.733231 -573.306092 
L 1100.74875 -568.887038 
L 1100.776942 -564.467983 
L 1100.809774 -560.048929 
L 1100.837006 -555.629875 
L 1100.852898 -551.210821 
L 1100.865861 -546.791767 
L 1100.897259 -542.372713 
L 1100.952288 -537.953658 
L 1101.012968 -533.534604 
L 1101.080289 -529.11555 
L 1101.182044 -524.696496 
L 1101.325746 -520.277442 
L 1101.492698 -515.858387 
L 1101.673824 -511.439333 
L 1101.86935 -507.020279 
L 1102.072941 -502.601225 
L 1102.272974 -498.182171 
L 1102.457449 -493.763117 
L 1102.641735 -489.344062 
L 1102.888321 -484.925008 
L 1103.244584 -480.505954 
L 1103.68505 -476.0869 
L 1104.194401 -471.667846 
L 1104.859575 -467.248791 
L 1105.764855 -462.829737 
L 1106.853602 -458.410683 
L 1108.016388 -453.991629 
L 1109.232123 -449.572575 
L 1110.528333 -445.15352 
L 1111.890721 -440.734466 
L 1113.26364 -436.315412 
L 1114.607599 -431.896358 
L 1115.980469 -427.477304 
L 1117.574741 -423.05825 
L 1119.599222 -418.639195 
L 1122.065153 -414.220141 
L 1124.705709 -409.801087 
L 1127.14865 -405.382033 
L 1129.225449 -400.962979 
L 1131.023433 -396.543924 
L 1132.581267 -392.12487 
L 1133.765022 -387.705816 
L 1134.503967 -383.286762 
L 1134.927151 -378.867708 
L 1135.149304 -374.448654 
L 1135.116568 -370.029599 
L 1134.783343 -365.610545 
L 1134.170826 -361.191491 
L 1133.277387 -356.772437 
L 1132.190305 -352.353383 
L 1131.176822 -347.934328 
L 1130.506374 -343.515274 
L 1130.20451 -339.09622 
L 1130.038091 -334.677166 
L 1129.73639 -330.258112 
L 1129.227607 -325.839058 
L 1128.666873 -321.420003 
L 1128.183646 -317.000949 
L 1127.682642 -312.581895 
L 1126.985981 -308.162841 
L 1126.024543 -303.743787 
L 1124.809501 -299.324732 
L 1123.345851 -294.905678 
L 1121.649467 -290.486624 
L 1119.747282 -286.06757 
L 1117.559001 -281.648516 
L 1114.982919 -277.229461 
L 1112.202131 -272.810407 
L 1109.619347 -268.391353 
L 1107.46074 -263.972299 
L 1105.688305 -259.553245 
L 1104.235146 -255.134191 
L 1103.117978 -250.715136 
L 1102.354574 -246.296082 
L 1101.896089 -241.877028 
L 1101.646533 -237.457974 
L 1101.511014 -233.03892 
L 1101.424559 -228.619865 
L 1101.353898 -224.200811 
L 1101.279624 -219.781757 
L 1101.185322 -215.362703 
L 1101.070644 -210.943649 
L 1100.952655 -206.524595 
L 1100.848757 -202.10554 
L 1100.771419 -197.686486 
L 1100.726258 -193.267432 
L 1100.707041 -188.848378 
z
" id="me0690322c0" style="stroke:#ebf2c3;stroke-width:1.75;"/>
    </defs>
    <g clip-path="url(#p2cf47c95eb)">
     <use style="fill:#ebf2c3;stroke:#ebf2c3;stroke-width:1.75;" x="0.0" xlink:href="#me0690322c0" y="792.0"/>
    </g>
   </g>
   <g id="PolyCollection_8">
    <defs>
     <path d="M 1212.302427 -250.894414 
L 1212.297573 -250.894414 
L 1212.28829 -254.473168 
L 1212.258501 -258.051923 
L 1212.18831 -261.630677 
L 1212.064535 -265.209431 
L 1211.895683 -268.788186 
L 1211.708637 -272.36694 
L 1211.522309 -275.945695 
L 1211.310486 -279.524449 
L 1211.003283 -283.103203 
L 1210.572872 -286.681958 
L 1210.117421 -290.260712 
L 1209.754232 -293.839466 
L 1209.458079 -297.418221 
L 1209.140622 -300.996975 
L 1208.785234 -304.575729 
L 1208.455705 -308.154484 
L 1208.210228 -311.733238 
L 1207.987601 -315.311992 
L 1207.691267 -318.890747 
L 1207.337418 -322.469501 
L 1206.972635 -326.048255 
L 1206.594278 -329.62701 
L 1206.230042 -333.205764 
L 1205.927843 -336.784518 
L 1205.635927 -340.363273 
L 1205.139966 -343.942027 
L 1204.169579 -347.520782 
L 1202.652118 -351.099536 
L 1200.824579 -354.67829 
L 1198.941052 -358.257045 
L 1196.923945 -361.835799 
L 1194.446597 -365.414553 
L 1191.338359 -368.993308 
L 1187.741685 -372.572062 
L 1183.894008 -376.150816 
L 1180.0137 -379.729571 
L 1176.267063 -383.308325 
L 1172.681681 -386.887079 
L 1169.14162 -390.465834 
L 1165.544123 -394.044588 
L 1162.037655 -397.623342 
L 1159.097879 -401.202097 
L 1157.238215 -404.780851 
L 1156.5 -408.359606 
L 1156.606929 -411.93836 
L 1157.464877 -415.517114 
L 1159.022065 -419.095869 
L 1161.185945 -422.674623 
L 1163.823385 -426.253377 
L 1166.712548 -429.832132 
L 1169.872746 -433.410886 
L 1173.433585 -436.98964 
L 1177.19199 -440.568395 
L 1180.838418 -444.147149 
L 1184.2348 -447.725903 
L 1187.249226 -451.304658 
L 1189.766952 -454.883412 
L 1191.885908 -458.462166 
L 1193.860024 -462.040921 
L 1195.843663 -465.619675 
L 1197.73419 -469.198429 
L 1199.339336 -472.777184 
L 1200.6731 -476.355938 
L 1201.886619 -479.934693 
L 1203.00651 -483.513447 
L 1203.930807 -487.092201 
L 1204.600539 -490.670956 
L 1205.136986 -494.24971 
L 1205.743155 -497.828464 
L 1206.452129 -501.407219 
L 1207.14115 -504.985973 
L 1207.765578 -508.564727 
L 1208.401933 -512.143482 
L 1209.121415 -515.722236 
L 1209.91255 -519.30099 
L 1210.644971 -522.879745 
L 1211.161969 -526.458499 
L 1211.464833 -530.037253 
L 1211.665742 -533.616008 
L 1211.831272 -537.194762 
L 1211.971512 -540.773516 
L 1212.076976 -544.352271 
L 1212.14281 -547.931025 
L 1212.177251 -551.50978 
L 1212.193511 -555.088534 
L 1212.203559 -558.667288 
L 1212.212835 -562.246043 
L 1212.222239 -565.824797 
L 1212.23501 -569.403551 
L 1212.252325 -572.982306 
L 1212.268318 -576.56106 
L 1212.278718 -580.139814 
L 1212.283929 -583.718569 
L 1212.284061 -587.297323 
L 1212.281551 -590.876077 
L 1212.28228 -594.454832 
L 1212.28807 -598.033586 
L 1212.294692 -601.61234 
L 1212.298489 -605.191095 
L 1212.301511 -605.191095 
L 1212.301511 -605.191095 
L 1212.305308 -601.61234 
L 1212.31193 -598.033586 
L 1212.31772 -594.454832 
L 1212.318449 -590.876077 
L 1212.315939 -587.297323 
L 1212.316071 -583.718569 
L 1212.321282 -580.139814 
L 1212.331682 -576.56106 
L 1212.347675 -572.982306 
L 1212.36499 -569.403551 
L 1212.377761 -565.824797 
L 1212.387165 -562.246043 
L 1212.396441 -558.667288 
L 1212.406489 -555.088534 
L 1212.422749 -551.50978 
L 1212.45719 -547.931025 
L 1212.523024 -544.352271 
L 1212.628488 -540.773516 
L 1212.768728 -537.194762 
L 1212.934258 -533.616008 
L 1213.135167 -530.037253 
L 1213.438031 -526.458499 
L 1213.955029 -522.879745 
L 1214.68745 -519.30099 
L 1215.478585 -515.722236 
L 1216.198067 -512.143482 
L 1216.834422 -508.564727 
L 1217.45885 -504.985973 
L 1218.147871 -501.407219 
L 1218.856845 -497.828464 
L 1219.463014 -494.24971 
L 1219.999461 -490.670956 
L 1220.669193 -487.092201 
L 1221.59349 -483.513447 
L 1222.713381 -479.934693 
L 1223.9269 -476.355938 
L 1225.260664 -472.777184 
L 1226.86581 -469.198429 
L 1228.756337 -465.619675 
L 1230.739976 -462.040921 
L 1232.714092 -458.462166 
L 1234.833048 -454.883412 
L 1237.350774 -451.304658 
L 1240.3652 -447.725903 
L 1243.761582 -444.147149 
L 1247.40801 -440.568395 
L 1251.166415 -436.98964 
L 1254.727254 -433.410886 
L 1257.887452 -429.832132 
L 1260.776615 -426.253377 
L 1263.414055 -422.674623 
L 1265.577935 -419.095869 
L 1267.135123 -415.517114 
L 1267.993071 -411.93836 
L 1268.1 -408.359606 
L 1267.361785 -404.780851 
L 1265.502121 -401.202097 
L 1262.562345 -397.623342 
L 1259.055877 -394.044588 
L 1255.45838 -390.465834 
L 1251.918319 -386.887079 
L 1248.332937 -383.308325 
L 1244.5863 -379.729571 
L 1240.705992 -376.150816 
L 1236.858315 -372.572062 
L 1233.261641 -368.993308 
L 1230.153403 -365.414553 
L 1227.676055 -361.835799 
L 1225.658948 -358.257045 
L 1223.775421 -354.67829 
L 1221.947882 -351.099536 
L 1220.430421 -347.520782 
L 1219.460034 -343.942027 
L 1218.964073 -340.363273 
L 1218.672157 -336.784518 
L 1218.369958 -333.205764 
L 1218.005722 -329.62701 
L 1217.627365 -326.048255 
L 1217.262582 -322.469501 
L 1216.908733 -318.890747 
L 1216.612399 -315.311992 
L 1216.389772 -311.733238 
L 1216.144295 -308.154484 
L 1215.814766 -304.575729 
L 1215.459378 -300.996975 
L 1215.141921 -297.418221 
L 1214.845768 -293.839466 
L 1214.482579 -290.260712 
L 1214.027128 -286.681958 
L 1213.596717 -283.103203 
L 1213.289514 -279.524449 
L 1213.077691 -275.945695 
L 1212.891363 -272.36694 
L 1212.704317 -268.788186 
L 1212.535465 -265.209431 
L 1212.41169 -261.630677 
L 1212.341499 -258.051923 
L 1212.31171 -254.473168 
L 1212.302427 -250.894414 
z
" id="m91f01eb54f" style="stroke:#325c96;stroke-width:1.75;"/>
    </defs>
    <g clip-path="url(#p2cf47c95eb)">
     <use style="fill:#325c96;stroke:#325c96;stroke-width:1.75;" x="0.0" xlink:href="#m91f01eb54f" y="792.0"/>
    </g>
   </g>
   <g id="patch_3">
    <path clip-path="url(#p2cf47c95eb)" d="M 319.5 616.275 
L 319.5 616.275 
L 319.5 616.275 
L 319.5 616.275 
z
" style="fill:#ebf2c3;stroke:#3c3c3c;stroke-linejoin:miter;stroke-width:0.875;"/>
   </g>
   <g id="patch_4">
    <path clip-path="url(#p2cf47c95eb)" d="M 319.5 616.275 
L 319.5 616.275 
L 319.5 616.275 
L 319.5 616.275 
z
" style="fill:#325c96;stroke:#3c3c3c;stroke-linejoin:miter;stroke-width:0.875;"/>
   </g>
   <g id="line2d_36">
    <path clip-path="url(#p2cf47c95eb)" d="M 263.7 586.253908 
L 263.7 299.038021 
" style="fill:none;stroke:#3c3c3c;stroke-linecap:round;stroke-width:1.75;"/>
   </g>
   <g id="line2d_37">
    <path clip-path="url(#p2cf47c95eb)" d="M 263.7 476.047934 
L 263.7 402.382462 
" style="fill:none;stroke:#3c3c3c;stroke-linecap:round;stroke-width:5.25;"/>
   </g>
   <g id="line2d_38">
    <path clip-path="url(#p2cf47c95eb)" d="M 375.3 581.397311 
L 375.3 297.645056 
" style="fill:none;stroke:#3c3c3c;stroke-linecap:round;stroke-width:1.75;"/>
   </g>
   <g id="line2d_39">
    <path clip-path="url(#p2cf47c95eb)" d="M 375.3 475.569017 
L 375.3 404.354681 
" style="fill:none;stroke:#3c3c3c;stroke-linecap:round;stroke-width:5.25;"/>
   </g>
   <g id="line2d_40">
    <path clip-path="url(#p2cf47c95eb)" d="M 542.7 584.336339 
L 542.7 297.006086 
" style="fill:none;stroke:#3c3c3c;stroke-linecap:round;stroke-width:1.75;"/>
   </g>
   <g id="line2d_41">
    <path clip-path="url(#p2cf47c95eb)" d="M 542.7 476.290501 
L 542.7 403.963838 
" style="fill:none;stroke:#3c3c3c;stroke-linecap:round;stroke-width:5.25;"/>
   </g>
   <g id="line2d_42">
    <path clip-path="url(#p2cf47c95eb)" d="M 654.3 582.361879 
L 654.3 299.038021 
" style="fill:none;stroke:#3c3c3c;stroke-linecap:round;stroke-width:1.75;"/>
   </g>
   <g id="line2d_43">
    <path clip-path="url(#p2cf47c95eb)" d="M 654.3 475.084113 
L 654.3 403.148237 
" style="fill:none;stroke:#3c3c3c;stroke-linecap:round;stroke-width:5.25;"/>
   </g>
   <g id="line2d_44">
    <path clip-path="url(#p2cf47c95eb)" d="M 821.7 582.361879 
L 821.7 330.531351 
" style="fill:none;stroke:#3c3c3c;stroke-linecap:round;stroke-width:1.75;"/>
   </g>
   <g id="line2d_45">
    <path clip-path="url(#p2cf47c95eb)" d="M 821.7 489.506823 
L 821.7 425.741832 
" style="fill:none;stroke:#3c3c3c;stroke-linecap:round;stroke-width:5.25;"/>
   </g>
   <g id="line2d_46">
    <path clip-path="url(#p2cf47c95eb)" d="M 933.3 563.36409 
L 933.3 297.006086 
" style="fill:none;stroke:#3c3c3c;stroke-linecap:round;stroke-width:1.75;"/>
   </g>
   <g id="line2d_47">
    <path clip-path="url(#p2cf47c95eb)" d="M 933.3 463.422048 
L 933.3 396.529911 
" style="fill:none;stroke:#3c3c3c;stroke-linecap:round;stroke-width:5.25;"/>
   </g>
   <g id="line2d_48">
    <path clip-path="url(#p2cf47c95eb)" d="M 1100.7 585.665389 
L 1100.7 282.412074 
" style="fill:none;stroke:#3c3c3c;stroke-linecap:round;stroke-width:1.75;"/>
   </g>
   <g id="line2d_49">
    <path clip-path="url(#p2cf47c95eb)" d="M 1100.7 472.217786 
L 1100.7 396.294777 
" style="fill:none;stroke:#3c3c3c;stroke-linecap:round;stroke-width:5.25;"/>
   </g>
   <g id="line2d_50">
    <path clip-path="url(#p2cf47c95eb)" d="M 1212.3 474.24135 
L 1212.3 284.148449 
" style="fill:none;stroke:#3c3c3c;stroke-linecap:round;stroke-width:1.75;"/>
   </g>
   <g id="line2d_51">
    <path clip-path="url(#p2cf47c95eb)" d="M 1212.3 403.017464 
L 1212.3 355.468523 
" style="fill:none;stroke:#3c3c3c;stroke-linecap:round;stroke-width:5.25;"/>
   </g>
   <g id="patch_5">
    <path d="M 180 79.2 
L 1296 79.2 
" style="fill:none;"/>
   </g>
   <g id="patch_6">
    <path d="M 180 693 
L 1296 693 
" style="fill:none;"/>
   </g>
   <g id="patch_7">
    <path d="M 1296 693 
L 1296 79.2 
" style="fill:none;"/>
   </g>
   <g id="patch_8">
    <path d="M 180 693 
L 180 79.2 
" style="fill:none;"/>
   </g>
   <g id="PathCollection_1">
    <defs>
     <path d="M 0 1.75 
C 0.464105 1.75 0.909265 1.565609 1.237437 1.237437 
C 1.565609 0.909265 1.75 0.464105 1.75 0 
C 1.75 -0.464105 1.565609 -0.909265 1.237437 -1.237437 
C 0.909265 -1.565609 0.464105 -1.75 0 -1.75 
C -0.464105 -1.75 -0.909265 -1.565609 -1.237437 -1.237437 
C -1.565609 -0.909265 -1.75 -0.464105 -1.75 0 
C -1.75 0.464105 -1.565609 0.909265 -1.237437 1.237437 
C -0.909265 1.565609 -0.464105 1.75 0 1.75 
z
" id="mbe79c9b5fd" style="stroke:#3c3c3c;stroke-width:0.3;"/>
    </defs>
    <g clip-path="url(#p2cf47c95eb)">
     <use style="fill:#ffffff;stroke:#3c3c3c;stroke-width:0.3;" x="263.7" xlink:href="#mbe79c9b5fd" y="436.269165502"/>
    </g>
   </g>
   <g id="PathCollection_2">
    <g clip-path="url(#p2cf47c95eb)">
     <use style="fill:#ffffff;stroke:#3c3c3c;stroke-width:0.3;" x="375.3" xlink:href="#mbe79c9b5fd" y="437.289074764"/>
    </g>
   </g>
   <g id="PathCollection_3">
    <g clip-path="url(#p2cf47c95eb)">
     <use style="fill:#ffffff;stroke:#3c3c3c;stroke-width:0.3;" x="542.7" xlink:href="#mbe79c9b5fd" y="437.308969556"/>
    </g>
   </g>
   <g id="PathCollection_4">
    <g clip-path="url(#p2cf47c95eb)">
     <use style="fill:#ffffff;stroke:#3c3c3c;stroke-width:0.3;" x="654.3" xlink:href="#mbe79c9b5fd" y="436.561798489"/>
    </g>
   </g>
   <g id="PathCollection_5">
    <g clip-path="url(#p2cf47c95eb)">
     <use style="fill:#ffffff;stroke:#3c3c3c;stroke-width:0.3;" x="821.7" xlink:href="#mbe79c9b5fd" y="460.238178262"/>
    </g>
   </g>
   <g id="PathCollection_6">
    <g clip-path="url(#p2cf47c95eb)">
     <use style="fill:#ffffff;stroke:#3c3c3c;stroke-width:0.3;" x="933.3" xlink:href="#mbe79c9b5fd" y="426.193930057"/>
    </g>
   </g>
   <g id="PathCollection_7">
    <g clip-path="url(#p2cf47c95eb)">
     <use style="fill:#ffffff;stroke:#3c3c3c;stroke-width:0.3;" x="1100.7" xlink:href="#mbe79c9b5fd" y="431.826250927"/>
    </g>
   </g>
   <g id="PathCollection_8">
    <g clip-path="url(#p2cf47c95eb)">
     <use style="fill:#ffffff;stroke:#3c3c3c;stroke-width:0.3;" x="1212.3" xlink:href="#mbe79c9b5fd" y="379.716224889"/>
    </g>
   </g>
   <g id="text_16">
    <!-- Weighted UniFrac -->
    <defs>
     <path d="M 3.328125 72.90625 
L 13.28125 72.90625 
L 28.609375 11.28125 
L 43.890625 72.90625 
L 54.984375 72.90625 
L 70.3125 11.28125 
L 85.59375 72.90625 
L 95.609375 72.90625 
L 77.296875 0 
L 64.890625 0 
L 49.515625 63.28125 
L 33.984375 0 
L 21.578125 0 
z
" id="BitstreamVeraSans-Roman-57"/>
     <path d="M 54.890625 33.015625 
L 54.890625 0 
L 45.90625 0 
L 45.90625 32.71875 
Q 45.90625 40.484375 42.875 44.328125 
Q 39.84375 48.1875 33.796875 48.1875 
Q 26.515625 48.1875 22.3125 43.546875 
Q 18.109375 38.921875 18.109375 30.90625 
L 18.109375 0 
L 9.078125 0 
L 9.078125 75.984375 
L 18.109375 75.984375 
L 18.109375 46.1875 
Q 21.34375 51.125 25.703125 53.5625 
Q 30.078125 56 35.796875 56 
Q 45.21875 56 50.046875 50.171875 
Q 54.890625 44.34375 54.890625 33.015625 
" id="BitstreamVeraSans-Roman-68"/>
     <path d="M 9.8125 72.90625 
L 51.703125 72.90625 
L 51.703125 64.59375 
L 19.671875 64.59375 
L 19.671875 43.109375 
L 48.578125 43.109375 
L 48.578125 34.8125 
L 19.671875 34.8125 
L 19.671875 0 
L 9.8125 0 
z
" id="BitstreamVeraSans-Roman-46"/>
     <path d="M 8.6875 72.90625 
L 18.609375 72.90625 
L 18.609375 28.609375 
Q 18.609375 16.890625 22.84375 11.734375 
Q 27.09375 6.59375 36.625 6.59375 
Q 46.09375 6.59375 50.34375 11.734375 
Q 54.59375 16.890625 54.59375 28.609375 
L 54.59375 72.90625 
L 64.5 72.90625 
L 64.5 27.390625 
Q 64.5 13.140625 57.4375 5.859375 
Q 50.390625 -1.421875 36.625 -1.421875 
Q 22.796875 -1.421875 15.734375 5.859375 
Q 8.6875 13.140625 8.6875 27.390625 
z
" id="BitstreamVeraSans-Roman-55"/>
     <path d="M 45.40625 46.390625 
L 45.40625 75.984375 
L 54.390625 75.984375 
L 54.390625 0 
L 45.40625 0 
L 45.40625 8.203125 
Q 42.578125 3.328125 38.25 0.953125 
Q 33.9375 -1.421875 27.875 -1.421875 
Q 17.96875 -1.421875 11.734375 6.484375 
Q 5.515625 14.40625 5.515625 27.296875 
Q 5.515625 40.1875 11.734375 48.09375 
Q 17.96875 56 27.875 56 
Q 33.9375 56 38.25 53.625 
Q 42.578125 51.265625 45.40625 46.390625 
M 14.796875 27.296875 
Q 14.796875 17.390625 18.875 11.75 
Q 22.953125 6.109375 30.078125 6.109375 
Q 37.203125 6.109375 41.296875 11.75 
Q 45.40625 17.390625 45.40625 27.296875 
Q 45.40625 37.203125 41.296875 42.84375 
Q 37.203125 48.484375 30.078125 48.484375 
Q 22.953125 48.484375 18.875 42.84375 
Q 14.796875 37.203125 14.796875 27.296875 
" id="BitstreamVeraSans-Roman-64"/>
    </defs>
    <g style="fill:#262626;" transform="translate(641.869875 74.2)scale(0.21600000000000003 -0.21600000000000003)">
     <use xlink:href="#BitstreamVeraSans-Roman-57"/>
     <use x="98.798828125" xlink:href="#BitstreamVeraSans-Roman-65"/>
     <use x="160.322265625" xlink:href="#BitstreamVeraSans-Roman-69"/>
     <use x="188.10546875" xlink:href="#BitstreamVeraSans-Roman-67"/>
     <use x="251.58203125" xlink:href="#BitstreamVeraSans-Roman-68"/>
     <use x="314.9609375" xlink:href="#BitstreamVeraSans-Roman-74"/>
     <use x="354.169921875" xlink:href="#BitstreamVeraSans-Roman-65"/>
     <use x="415.693359375" xlink:href="#BitstreamVeraSans-Roman-64"/>
     <use x="479.169921875" xlink:href="#BitstreamVeraSans-Roman-20"/>
     <use x="510.95703125" xlink:href="#BitstreamVeraSans-Roman-55"/>
     <use x="584.150390625" xlink:href="#BitstreamVeraSans-Roman-6e"/>
     <use x="647.529296875" xlink:href="#BitstreamVeraSans-Roman-69"/>
     <use x="675.3125" xlink:href="#BitstreamVeraSans-Roman-46"/>
     <use x="732.72265625" xlink:href="#BitstreamVeraSans-Roman-72"/>
     <use x="773.8359375" xlink:href="#BitstreamVeraSans-Roman-61"/>
     <use x="835.115234375" xlink:href="#BitstreamVeraSans-Roman-63"/>
    </g>
   </g>
   <g id="legend_1">
    <g id="patch_9">
     <path d="M 1150.63875 109.077187 
L 1186.63875 109.077187 
L 1186.63875 96.477187 
L 1150.63875 96.477187 
z
" style="fill:#ebf2c3;stroke:#3c3c3c;stroke-linejoin:miter;stroke-width:0.875;"/>
    </g>
    <g id="text_17">
     <!-- Within -->
     <g style="fill:#262626;" transform="translate(1201.03875 109.0771875)scale(0.18 -0.18)">
      <use xlink:href="#BitstreamVeraSans-Roman-57"/>
      <use x="98.845703125" xlink:href="#BitstreamVeraSans-Roman-69"/>
      <use x="126.62890625" xlink:href="#BitstreamVeraSans-Roman-74"/>
      <use x="165.837890625" xlink:href="#BitstreamVeraSans-Roman-68"/>
      <use x="229.216796875" xlink:href="#BitstreamVeraSans-Roman-69"/>
      <use x="257.0" xlink:href="#BitstreamVeraSans-Roman-6e"/>
     </g>
    </g>
    <g id="patch_10">
     <path d="M 1150.63875 135.497812 
L 1186.63875 135.497812 
L 1186.63875 122.897812 
L 1150.63875 122.897812 
z
" style="fill:#325c96;stroke:#3c3c3c;stroke-linejoin:miter;stroke-width:0.875;"/>
    </g>
    <g id="text_18">
     <!-- Between -->
     <defs>
      <path d="M 19.671875 34.8125 
L 19.671875 8.109375 
L 35.5 8.109375 
Q 43.453125 8.109375 47.28125 11.40625 
Q 51.125 14.703125 51.125 21.484375 
Q 51.125 28.328125 47.28125 31.5625 
Q 43.453125 34.8125 35.5 34.8125 
z
M 19.671875 64.796875 
L 19.671875 42.828125 
L 34.28125 42.828125 
Q 41.5 42.828125 45.03125 45.53125 
Q 48.578125 48.25 48.578125 53.8125 
Q 48.578125 59.328125 45.03125 62.0625 
Q 41.5 64.796875 34.28125 64.796875 
z
M 9.8125 72.90625 
L 35.015625 72.90625 
Q 46.296875 72.90625 52.390625 68.21875 
Q 58.5 63.53125 58.5 54.890625 
Q 58.5 48.1875 55.375 44.234375 
Q 52.25 40.28125 46.1875 39.3125 
Q 53.46875 37.75 57.5 32.78125 
Q 61.53125 27.828125 61.53125 20.40625 
Q 61.53125 10.640625 54.890625 5.3125 
Q 48.25 0 35.984375 0 
L 9.8125 0 
z
" id="BitstreamVeraSans-Roman-42"/>
     </defs>
     <g style="fill:#262626;" transform="translate(1201.03875 135.4978125)scale(0.18 -0.18)">
      <use xlink:href="#BitstreamVeraSans-Roman-42"/>
      <use x="68.603515625" xlink:href="#BitstreamVeraSans-Roman-65"/>
      <use x="130.126953125" xlink:href="#BitstreamVeraSans-Roman-74"/>
      <use x="169.3359375" xlink:href="#BitstreamVeraSans-Roman-77"/>
      <use x="251.123046875" xlink:href="#BitstreamVeraSans-Roman-65"/>
      <use x="312.646484375" xlink:href="#BitstreamVeraSans-Roman-65"/>
      <use x="374.169921875" xlink:href="#BitstreamVeraSans-Roman-6e"/>
     </g>
    </g>
   </g>
  </g>
 </g>
 <defs>
  <clipPath id="p2cf47c95eb">
   <rect height="613.8" width="1116.0" x="180.0" y="79.2"/>
  </clipPath>
 </defs>
</svg>
