<?xml version="1.0" encoding="utf-8" standalone="no"?>
<!DOCTYPE svg PUBLIC "-//W3C//DTD SVG 1.1//EN"
  "http://www.w3.org/Graphics/SVG/1.1/DTD/svg11.dtd">
<!-- Created with matplotlib (http://matplotlib.org/) -->
<svg height="576pt" version="1.1" viewBox="0 0 864 576" width="864pt" xmlns="http://www.w3.org/2000/svg" xmlns:xlink="http://www.w3.org/1999/xlink">
 <defs>
  <style type="text/css">
*{stroke-linecap:butt;stroke-linejoin:round;stroke-miterlimit:100000;}
  </style>
 </defs>
 <g id="figure_1">
  <g id="patch_1">
   <path d="M 0 576 
L 864 576 
L 864 0 
L 0 0 
z
" style="fill:#ffffff;"/>
  </g>
  <g id="axes_1">
   <g id="patch_2">
    <path d="M 108 504 
L 777.6 504 
L 777.6 57.6 
L 108 57.6 
z
" style="fill:#eaeaf2;"/>
   </g>
   <g id="matplotlib.axis_1">
    <g id="xtick_1">
     <g id="line2d_1">
      <defs>
       <path d="M 0 0 
L 0 0 
" id="m67c5c937f1" style="stroke:#262626;"/>
      </defs>
      <g>
       <use style="fill:#262626;stroke:#262626;" x="191.7" xlink:href="#m67c5c937f1" y="504.0"/>
      </g>
     </g>
     <g id="line2d_2">
      <g>
       <use style="fill:#262626;stroke:#262626;" x="191.7" xlink:href="#m67c5c937f1" y="57.6"/>
      </g>
     </g>
     <g id="text_1">
      <!-- Summer -->
      <defs>
       <path d="M 53.515625 70.515625 
L 53.515625 60.890625 
Q 47.90625 63.578125 42.921875 64.890625 
Q 37.9375 66.21875 33.296875 66.21875 
Q 25.25 66.21875 20.875 63.09375 
Q 16.5 59.96875 16.5 54.203125 
Q 16.5 49.359375 19.40625 46.890625 
Q 22.3125 44.4375 30.421875 42.921875 
L 36.375 41.703125 
Q 47.40625 39.59375 52.65625 34.296875 
Q 57.90625 29 57.90625 20.125 
Q 57.90625 9.515625 50.796875 4.046875 
Q 43.703125 -1.421875 29.984375 -1.421875 
Q 24.8125 -1.421875 18.96875 -0.25 
Q 13.140625 0.921875 6.890625 3.21875 
L 6.890625 13.375 
Q 12.890625 10.015625 18.65625 8.296875 
Q 24.421875 6.59375 29.984375 6.59375 
Q 38.421875 6.59375 43.015625 9.90625 
Q 47.609375 13.234375 47.609375 19.390625 
Q 47.609375 24.75 44.3125 27.78125 
Q 41.015625 30.8125 33.5 32.328125 
L 27.484375 33.5 
Q 16.453125 35.6875 11.515625 40.375 
Q 6.59375 45.0625 6.59375 53.421875 
Q 6.59375 63.09375 13.40625 68.65625 
Q 20.21875 74.21875 32.171875 74.21875 
Q 37.3125 74.21875 42.625 73.28125 
Q 47.953125 72.359375 53.515625 70.515625 
" id="BitstreamVeraSans-Roman-53"/>
       <path d="M 56.203125 29.59375 
L 56.203125 25.203125 
L 14.890625 25.203125 
Q 15.484375 15.921875 20.484375 11.0625 
Q 25.484375 6.203125 34.421875 6.203125 
Q 39.59375 6.203125 44.453125 7.46875 
Q 49.3125 8.734375 54.109375 11.28125 
L 54.109375 2.78125 
Q 49.265625 0.734375 44.1875 -0.34375 
Q 39.109375 -1.421875 33.890625 -1.421875 
Q 20.796875 -1.421875 13.15625 6.1875 
Q 5.515625 13.8125 5.515625 26.8125 
Q 5.515625 40.234375 12.765625 48.109375 
Q 20.015625 56 32.328125 56 
Q 43.359375 56 49.78125 48.890625 
Q 56.203125 41.796875 56.203125 29.59375 
M 47.21875 32.234375 
Q 47.125 39.59375 43.09375 43.984375 
Q 39.0625 48.390625 32.421875 48.390625 
Q 24.90625 48.390625 20.390625 44.140625 
Q 15.875 39.890625 15.1875 32.171875 
z
" id="BitstreamVeraSans-Roman-65"/>
       <path d="M 8.5 21.578125 
L 8.5 54.6875 
L 17.484375 54.6875 
L 17.484375 21.921875 
Q 17.484375 14.15625 20.5 10.265625 
Q 23.53125 6.390625 29.59375 6.390625 
Q 36.859375 6.390625 41.078125 11.03125 
Q 45.3125 15.671875 45.3125 23.6875 
L 45.3125 54.6875 
L 54.296875 54.6875 
L 54.296875 0 
L 45.3125 0 
L 45.3125 8.40625 
Q 42.046875 3.421875 37.71875 1 
Q 33.40625 -1.421875 27.6875 -1.421875 
Q 18.265625 -1.421875 13.375 4.4375 
Q 8.5 10.296875 8.5 21.578125 
" id="BitstreamVeraSans-Roman-75"/>
       <path d="M 52 44.1875 
Q 55.375 50.25 60.0625 53.125 
Q 64.75 56 71.09375 56 
Q 79.640625 56 84.28125 50.015625 
Q 88.921875 44.046875 88.921875 33.015625 
L 88.921875 0 
L 79.890625 0 
L 79.890625 32.71875 
Q 79.890625 40.578125 77.09375 44.375 
Q 74.3125 48.1875 68.609375 48.1875 
Q 61.625 48.1875 57.5625 43.546875 
Q 53.515625 38.921875 53.515625 30.90625 
L 53.515625 0 
L 44.484375 0 
L 44.484375 32.71875 
Q 44.484375 40.625 41.703125 44.40625 
Q 38.921875 48.1875 33.109375 48.1875 
Q 26.21875 48.1875 22.15625 43.53125 
Q 18.109375 38.875 18.109375 30.90625 
L 18.109375 0 
L 9.078125 0 
L 9.078125 54.6875 
L 18.109375 54.6875 
L 18.109375 46.1875 
Q 21.1875 51.21875 25.484375 53.609375 
Q 29.78125 56 35.6875 56 
Q 41.65625 56 45.828125 52.96875 
Q 50 49.953125 52 44.1875 
" id="BitstreamVeraSans-Roman-6d"/>
       <path d="M 41.109375 46.296875 
Q 39.59375 47.171875 37.8125 47.578125 
Q 36.03125 48 33.890625 48 
Q 26.265625 48 22.1875 43.046875 
Q 18.109375 38.09375 18.109375 28.8125 
L 18.109375 0 
L 9.078125 0 
L 9.078125 54.6875 
L 18.109375 54.6875 
L 18.109375 46.1875 
Q 20.953125 51.171875 25.484375 53.578125 
Q 30.03125 56 36.53125 56 
Q 37.453125 56 38.578125 55.875 
Q 39.703125 55.765625 41.0625 55.515625 
z
" id="BitstreamVeraSans-Roman-72"/>
      </defs>
      <g style="fill:#262626;" transform="translate(138.6609375 529.99609375)scale(0.25 -0.25)">
       <use xlink:href="#BitstreamVeraSans-Roman-53"/>
       <use x="63.4765625" xlink:href="#BitstreamVeraSans-Roman-75"/>
       <use x="126.85546875" xlink:href="#BitstreamVeraSans-Roman-6d"/>
       <use x="224.267578125" xlink:href="#BitstreamVeraSans-Roman-6d"/>
       <use x="321.6796875" xlink:href="#BitstreamVeraSans-Roman-65"/>
       <use x="383.203125" xlink:href="#BitstreamVeraSans-Roman-72"/>
      </g>
     </g>
    </g>
    <g id="xtick_2">
     <g id="line2d_3">
      <g>
       <use style="fill:#262626;stroke:#262626;" x="359.1" xlink:href="#m67c5c937f1" y="504.0"/>
      </g>
     </g>
     <g id="line2d_4">
      <g>
       <use style="fill:#262626;stroke:#262626;" x="359.1" xlink:href="#m67c5c937f1" y="57.6"/>
      </g>
     </g>
     <g id="text_2">
      <!-- Fall -->
      <defs>
       <path d="M 9.8125 72.90625 
L 51.703125 72.90625 
L 51.703125 64.59375 
L 19.671875 64.59375 
L 19.671875 43.109375 
L 48.578125 43.109375 
L 48.578125 34.8125 
L 19.671875 34.8125 
L 19.671875 0 
L 9.8125 0 
z
" id="BitstreamVeraSans-Roman-46"/>
       <path d="M 34.28125 27.484375 
Q 23.390625 27.484375 19.1875 25 
Q 14.984375 22.515625 14.984375 16.5 
Q 14.984375 11.71875 18.140625 8.90625 
Q 21.296875 6.109375 26.703125 6.109375 
Q 34.1875 6.109375 38.703125 11.40625 
Q 43.21875 16.703125 43.21875 25.484375 
L 43.21875 27.484375 
z
M 52.203125 31.203125 
L 52.203125 0 
L 43.21875 0 
L 43.21875 8.296875 
Q 40.140625 3.328125 35.546875 0.953125 
Q 30.953125 -1.421875 24.3125 -1.421875 
Q 15.921875 -1.421875 10.953125 3.296875 
Q 6 8.015625 6 15.921875 
Q 6 25.140625 12.171875 29.828125 
Q 18.359375 34.515625 30.609375 34.515625 
L 43.21875 34.515625 
L 43.21875 35.40625 
Q 43.21875 41.609375 39.140625 45 
Q 35.0625 48.390625 27.6875 48.390625 
Q 23 48.390625 18.546875 47.265625 
Q 14.109375 46.140625 10.015625 43.890625 
L 10.015625 52.203125 
Q 14.9375 54.109375 19.578125 55.046875 
Q 24.21875 56 28.609375 56 
Q 40.484375 56 46.34375 49.84375 
Q 52.203125 43.703125 52.203125 31.203125 
" id="BitstreamVeraSans-Roman-61"/>
       <path d="M 9.421875 75.984375 
L 18.40625 75.984375 
L 18.40625 0 
L 9.421875 0 
z
" id="BitstreamVeraSans-Roman-6c"/>
      </defs>
      <g style="fill:#262626;" transform="translate(337.32265625 529.99609375)scale(0.25 -0.25)">
       <use xlink:href="#BitstreamVeraSans-Roman-46"/>
       <use x="57.37890625" xlink:href="#BitstreamVeraSans-Roman-61"/>
       <use x="118.658203125" xlink:href="#BitstreamVeraSans-Roman-6c"/>
       <use x="146.44140625" xlink:href="#BitstreamVeraSans-Roman-6c"/>
      </g>
     </g>
    </g>
    <g id="xtick_3">
     <g id="line2d_5">
      <g>
       <use style="fill:#262626;stroke:#262626;" x="526.5" xlink:href="#m67c5c937f1" y="504.0"/>
      </g>
     </g>
     <g id="line2d_6">
      <g>
       <use style="fill:#262626;stroke:#262626;" x="526.5" xlink:href="#m67c5c937f1" y="57.6"/>
      </g>
     </g>
     <g id="text_3">
      <!-- Winter -->
      <defs>
       <path d="M 3.328125 72.90625 
L 13.28125 72.90625 
L 28.609375 11.28125 
L 43.890625 72.90625 
L 54.984375 72.90625 
L 70.3125 11.28125 
L 85.59375 72.90625 
L 95.609375 72.90625 
L 77.296875 0 
L 64.890625 0 
L 49.515625 63.28125 
L 33.984375 0 
L 21.578125 0 
z
" id="BitstreamVeraSans-Roman-57"/>
       <path d="M 18.3125 70.21875 
L 18.3125 54.6875 
L 36.8125 54.6875 
L 36.8125 47.703125 
L 18.3125 47.703125 
L 18.3125 18.015625 
Q 18.3125 11.328125 20.140625 9.421875 
Q 21.96875 7.515625 27.59375 7.515625 
L 36.8125 7.515625 
L 36.8125 0 
L 27.59375 0 
Q 17.1875 0 13.234375 3.875 
Q 9.28125 7.765625 9.28125 18.015625 
L 9.28125 47.703125 
L 2.6875 47.703125 
L 2.6875 54.6875 
L 9.28125 54.6875 
L 9.28125 70.21875 
z
" id="BitstreamVeraSans-Roman-74"/>
       <path d="M 54.890625 33.015625 
L 54.890625 0 
L 45.90625 0 
L 45.90625 32.71875 
Q 45.90625 40.484375 42.875 44.328125 
Q 39.84375 48.1875 33.796875 48.1875 
Q 26.515625 48.1875 22.3125 43.546875 
Q 18.109375 38.921875 18.109375 30.90625 
L 18.109375 0 
L 9.078125 0 
L 9.078125 54.6875 
L 18.109375 54.6875 
L 18.109375 46.1875 
Q 21.34375 51.125 25.703125 53.5625 
Q 30.078125 56 35.796875 56 
Q 45.21875 56 50.046875 50.171875 
Q 54.890625 44.34375 54.890625 33.015625 
" id="BitstreamVeraSans-Roman-6e"/>
       <path d="M 9.421875 54.6875 
L 18.40625 54.6875 
L 18.40625 0 
L 9.421875 0 
z
M 9.421875 75.984375 
L 18.40625 75.984375 
L 18.40625 64.59375 
L 9.421875 64.59375 
z
" id="BitstreamVeraSans-Roman-69"/>
      </defs>
      <g style="fill:#262626;" transform="translate(485.01953125 529.99609375)scale(0.25 -0.25)">
       <use xlink:href="#BitstreamVeraSans-Roman-57"/>
       <use x="98.845703125" xlink:href="#BitstreamVeraSans-Roman-69"/>
       <use x="126.62890625" xlink:href="#BitstreamVeraSans-Roman-6e"/>
       <use x="190.0078125" xlink:href="#BitstreamVeraSans-Roman-74"/>
       <use x="229.216796875" xlink:href="#BitstreamVeraSans-Roman-65"/>
       <use x="290.740234375" xlink:href="#BitstreamVeraSans-Roman-72"/>
      </g>
     </g>
    </g>
    <g id="xtick_4">
     <g id="line2d_7">
      <g>
       <use style="fill:#262626;stroke:#262626;" x="693.9" xlink:href="#m67c5c937f1" y="504.0"/>
      </g>
     </g>
     <g id="line2d_8">
      <g>
       <use style="fill:#262626;stroke:#262626;" x="693.9" xlink:href="#m67c5c937f1" y="57.6"/>
      </g>
     </g>
     <g id="text_4">
      <!-- Spring -->
      <defs>
       <path d="M 45.40625 27.984375 
Q 45.40625 37.75 41.375 43.109375 
Q 37.359375 48.484375 30.078125 48.484375 
Q 22.859375 48.484375 18.828125 43.109375 
Q 14.796875 37.75 14.796875 27.984375 
Q 14.796875 18.265625 18.828125 12.890625 
Q 22.859375 7.515625 30.078125 7.515625 
Q 37.359375 7.515625 41.375 12.890625 
Q 45.40625 18.265625 45.40625 27.984375 
M 54.390625 6.78125 
Q 54.390625 -7.171875 48.1875 -13.984375 
Q 42 -20.796875 29.203125 -20.796875 
Q 24.46875 -20.796875 20.265625 -20.09375 
Q 16.0625 -19.390625 12.109375 -17.921875 
L 12.109375 -9.1875 
Q 16.0625 -11.328125 19.921875 -12.34375 
Q 23.78125 -13.375 27.78125 -13.375 
Q 36.625 -13.375 41.015625 -8.765625 
Q 45.40625 -4.15625 45.40625 5.171875 
L 45.40625 9.625 
Q 42.625 4.78125 38.28125 2.390625 
Q 33.9375 0 27.875 0 
Q 17.828125 0 11.671875 7.65625 
Q 5.515625 15.328125 5.515625 27.984375 
Q 5.515625 40.671875 11.671875 48.328125 
Q 17.828125 56 27.875 56 
Q 33.9375 56 38.28125 53.609375 
Q 42.625 51.21875 45.40625 46.390625 
L 45.40625 54.6875 
L 54.390625 54.6875 
z
" id="BitstreamVeraSans-Roman-67"/>
       <path d="M 18.109375 8.203125 
L 18.109375 -20.796875 
L 9.078125 -20.796875 
L 9.078125 54.6875 
L 18.109375 54.6875 
L 18.109375 46.390625 
Q 20.953125 51.265625 25.265625 53.625 
Q 29.59375 56 35.59375 56 
Q 45.5625 56 51.78125 48.09375 
Q 58.015625 40.1875 58.015625 27.296875 
Q 58.015625 14.40625 51.78125 6.484375 
Q 45.5625 -1.421875 35.59375 -1.421875 
Q 29.59375 -1.421875 25.265625 0.953125 
Q 20.953125 3.328125 18.109375 8.203125 
M 48.6875 27.296875 
Q 48.6875 37.203125 44.609375 42.84375 
Q 40.53125 48.484375 33.40625 48.484375 
Q 26.265625 48.484375 22.1875 42.84375 
Q 18.109375 37.203125 18.109375 27.296875 
Q 18.109375 17.390625 22.1875 11.75 
Q 26.265625 6.109375 33.40625 6.109375 
Q 40.53125 6.109375 44.609375 11.75 
Q 48.6875 17.390625 48.6875 27.296875 
" id="BitstreamVeraSans-Roman-70"/>
      </defs>
      <g style="fill:#262626;" transform="translate(653.56015625 529.99609375)scale(0.25 -0.25)">
       <use xlink:href="#BitstreamVeraSans-Roman-53"/>
       <use x="63.4765625" xlink:href="#BitstreamVeraSans-Roman-70"/>
       <use x="126.953125" xlink:href="#BitstreamVeraSans-Roman-72"/>
       <use x="168.06640625" xlink:href="#BitstreamVeraSans-Roman-69"/>
       <use x="195.849609375" xlink:href="#BitstreamVeraSans-Roman-6e"/>
       <use x="259.228515625" xlink:href="#BitstreamVeraSans-Roman-67"/>
      </g>
     </g>
    </g>
    <g id="text_5">
     <!-- Season -->
     <defs>
      <path d="M 30.609375 48.390625 
Q 23.390625 48.390625 19.1875 42.75 
Q 14.984375 37.109375 14.984375 27.296875 
Q 14.984375 17.484375 19.15625 11.84375 
Q 23.34375 6.203125 30.609375 6.203125 
Q 37.796875 6.203125 41.984375 11.859375 
Q 46.1875 17.53125 46.1875 27.296875 
Q 46.1875 37.015625 41.984375 42.703125 
Q 37.796875 48.390625 30.609375 48.390625 
M 30.609375 56 
Q 42.328125 56 49.015625 48.375 
Q 55.71875 40.765625 55.71875 27.296875 
Q 55.71875 13.875 49.015625 6.21875 
Q 42.328125 -1.421875 30.609375 -1.421875 
Q 18.84375 -1.421875 12.171875 6.21875 
Q 5.515625 13.875 5.515625 27.296875 
Q 5.515625 40.765625 12.171875 48.375 
Q 18.84375 56 30.609375 56 
" id="BitstreamVeraSans-Roman-6f"/>
      <path d="M 44.28125 53.078125 
L 44.28125 44.578125 
Q 40.484375 46.53125 36.375 47.5 
Q 32.28125 48.484375 27.875 48.484375 
Q 21.1875 48.484375 17.84375 46.4375 
Q 14.5 44.390625 14.5 40.28125 
Q 14.5 37.15625 16.890625 35.375 
Q 19.28125 33.59375 26.515625 31.984375 
L 29.59375 31.296875 
Q 39.15625 29.25 43.1875 25.515625 
Q 47.21875 21.78125 47.21875 15.09375 
Q 47.21875 7.46875 41.1875 3.015625 
Q 35.15625 -1.421875 24.609375 -1.421875 
Q 20.21875 -1.421875 15.453125 -0.5625 
Q 10.6875 0.296875 5.421875 2 
L 5.421875 11.28125 
Q 10.40625 8.6875 15.234375 7.390625 
Q 20.0625 6.109375 24.8125 6.109375 
Q 31.15625 6.109375 34.5625 8.28125 
Q 37.984375 10.453125 37.984375 14.40625 
Q 37.984375 18.0625 35.515625 20.015625 
Q 33.0625 21.96875 24.703125 23.78125 
L 21.578125 24.515625 
Q 13.234375 26.265625 9.515625 29.90625 
Q 5.8125 33.546875 5.8125 39.890625 
Q 5.8125 47.609375 11.28125 51.796875 
Q 16.75 56 26.8125 56 
Q 31.78125 56 36.171875 55.265625 
Q 40.578125 54.546875 44.28125 53.078125 
" id="BitstreamVeraSans-Roman-73"/>
     </defs>
     <g style="fill:#262626;" transform="translate(392.893945313 561.091015625)scale(0.275 -0.275)">
      <use xlink:href="#BitstreamVeraSans-Roman-53"/>
      <use x="63.4765625" xlink:href="#BitstreamVeraSans-Roman-65"/>
      <use x="125.0" xlink:href="#BitstreamVeraSans-Roman-61"/>
      <use x="186.279296875" xlink:href="#BitstreamVeraSans-Roman-73"/>
      <use x="238.37890625" xlink:href="#BitstreamVeraSans-Roman-6f"/>
      <use x="299.560546875" xlink:href="#BitstreamVeraSans-Roman-6e"/>
     </g>
    </g>
   </g>
   <g id="matplotlib.axis_2">
    <g id="ytick_1">
     <g id="line2d_9">
      <path clip-path="url(#p1e870af6b9)" d="M 108 504 
L 777.6 504 
" style="fill:none;stroke:#ffffff;stroke-linecap:round;"/>
     </g>
     <g id="line2d_10">
      <g>
       <use style="fill:#262626;stroke:#262626;" x="108.0" xlink:href="#m67c5c937f1" y="504.0"/>
      </g>
     </g>
     <g id="line2d_11">
      <g>
       <use style="fill:#262626;stroke:#262626;" x="777.6" xlink:href="#m67c5c937f1" y="504.0"/>
      </g>
     </g>
     <g id="text_6">
      <!-- −20 -->
      <defs>
       <path d="M 19.1875 8.296875 
L 53.609375 8.296875 
L 53.609375 0 
L 7.328125 0 
L 7.328125 8.296875 
Q 12.9375 14.109375 22.625 23.890625 
Q 32.328125 33.6875 34.8125 36.53125 
Q 39.546875 41.84375 41.421875 45.53125 
Q 43.3125 49.21875 43.3125 52.78125 
Q 43.3125 58.59375 39.234375 62.25 
Q 35.15625 65.921875 28.609375 65.921875 
Q 23.96875 65.921875 18.8125 64.3125 
Q 13.671875 62.703125 7.8125 59.421875 
L 7.8125 69.390625 
Q 13.765625 71.78125 18.9375 73 
Q 24.125 74.21875 28.421875 74.21875 
Q 39.75 74.21875 46.484375 68.546875 
Q 53.21875 62.890625 53.21875 53.421875 
Q 53.21875 48.921875 51.53125 44.890625 
Q 49.859375 40.875 45.40625 35.40625 
Q 44.1875 33.984375 37.640625 27.21875 
Q 31.109375 20.453125 19.1875 8.296875 
" id="BitstreamVeraSans-Roman-32"/>
       <path d="M 31.78125 66.40625 
Q 24.171875 66.40625 20.328125 58.90625 
Q 16.5 51.421875 16.5 36.375 
Q 16.5 21.390625 20.328125 13.890625 
Q 24.171875 6.390625 31.78125 6.390625 
Q 39.453125 6.390625 43.28125 13.890625 
Q 47.125 21.390625 47.125 36.375 
Q 47.125 51.421875 43.28125 58.90625 
Q 39.453125 66.40625 31.78125 66.40625 
M 31.78125 74.21875 
Q 44.046875 74.21875 50.515625 64.515625 
Q 56.984375 54.828125 56.984375 36.375 
Q 56.984375 17.96875 50.515625 8.265625 
Q 44.046875 -1.421875 31.78125 -1.421875 
Q 19.53125 -1.421875 13.0625 8.265625 
Q 6.59375 17.96875 6.59375 36.375 
Q 6.59375 54.828125 13.0625 64.515625 
Q 19.53125 74.21875 31.78125 74.21875 
" id="BitstreamVeraSans-Roman-30"/>
       <path d="M 10.59375 35.5 
L 73.1875 35.5 
L 73.1875 27.203125 
L 10.59375 27.203125 
z
" id="BitstreamVeraSans-Roman-2212"/>
      </defs>
      <g style="fill:#262626;" transform="translate(48.23828125 510.8984375)scale(0.25 -0.25)">
       <use xlink:href="#BitstreamVeraSans-Roman-2212"/>
       <use x="83.7890625" xlink:href="#BitstreamVeraSans-Roman-32"/>
       <use x="147.412109375" xlink:href="#BitstreamVeraSans-Roman-30"/>
      </g>
     </g>
    </g>
    <g id="ytick_2">
     <g id="line2d_12">
      <path clip-path="url(#p1e870af6b9)" d="M 108 440.228571 
L 777.6 440.228571 
" style="fill:none;stroke:#ffffff;stroke-linecap:round;"/>
     </g>
     <g id="line2d_13">
      <g>
       <use style="fill:#262626;stroke:#262626;" x="108.0" xlink:href="#m67c5c937f1" y="440.228571429"/>
      </g>
     </g>
     <g id="line2d_14">
      <g>
       <use style="fill:#262626;stroke:#262626;" x="777.6" xlink:href="#m67c5c937f1" y="440.228571429"/>
      </g>
     </g>
     <g id="text_7">
      <!-- 0 -->
      <g style="fill:#262626;" transform="translate(85.09375 447.127008929)scale(0.25 -0.25)">
       <use xlink:href="#BitstreamVeraSans-Roman-30"/>
      </g>
     </g>
    </g>
    <g id="ytick_3">
     <g id="line2d_15">
      <path clip-path="url(#p1e870af6b9)" d="M 108 376.457143 
L 777.6 376.457143 
" style="fill:none;stroke:#ffffff;stroke-linecap:round;"/>
     </g>
     <g id="line2d_16">
      <g>
       <use style="fill:#262626;stroke:#262626;" x="108.0" xlink:href="#m67c5c937f1" y="376.457142857"/>
      </g>
     </g>
     <g id="line2d_17">
      <g>
       <use style="fill:#262626;stroke:#262626;" x="777.6" xlink:href="#m67c5c937f1" y="376.457142857"/>
      </g>
     </g>
     <g id="text_8">
      <!-- 20 -->
      <g style="fill:#262626;" transform="translate(69.1875 383.355580357)scale(0.25 -0.25)">
       <use xlink:href="#BitstreamVeraSans-Roman-32"/>
       <use x="63.623046875" xlink:href="#BitstreamVeraSans-Roman-30"/>
      </g>
     </g>
    </g>
    <g id="ytick_4">
     <g id="line2d_18">
      <path clip-path="url(#p1e870af6b9)" d="M 108 312.685714 
L 777.6 312.685714 
" style="fill:none;stroke:#ffffff;stroke-linecap:round;"/>
     </g>
     <g id="line2d_19">
      <g>
       <use style="fill:#262626;stroke:#262626;" x="108.0" xlink:href="#m67c5c937f1" y="312.685714286"/>
      </g>
     </g>
     <g id="line2d_20">
      <g>
       <use style="fill:#262626;stroke:#262626;" x="777.6" xlink:href="#m67c5c937f1" y="312.685714286"/>
      </g>
     </g>
     <g id="text_9">
      <!-- 40 -->
      <defs>
       <path d="M 37.796875 64.3125 
L 12.890625 25.390625 
L 37.796875 25.390625 
z
M 35.203125 72.90625 
L 47.609375 72.90625 
L 47.609375 25.390625 
L 58.015625 25.390625 
L 58.015625 17.1875 
L 47.609375 17.1875 
L 47.609375 0 
L 37.796875 0 
L 37.796875 17.1875 
L 4.890625 17.1875 
L 4.890625 26.703125 
z
" id="BitstreamVeraSans-Roman-34"/>
      </defs>
      <g style="fill:#262626;" transform="translate(69.1875 319.584151786)scale(0.25 -0.25)">
       <use xlink:href="#BitstreamVeraSans-Roman-34"/>
       <use x="63.623046875" xlink:href="#BitstreamVeraSans-Roman-30"/>
      </g>
     </g>
    </g>
    <g id="ytick_5">
     <g id="line2d_21">
      <path clip-path="url(#p1e870af6b9)" d="M 108 248.914286 
L 777.6 248.914286 
" style="fill:none;stroke:#ffffff;stroke-linecap:round;"/>
     </g>
     <g id="line2d_22">
      <g>
       <use style="fill:#262626;stroke:#262626;" x="108.0" xlink:href="#m67c5c937f1" y="248.914285714"/>
      </g>
     </g>
     <g id="line2d_23">
      <g>
       <use style="fill:#262626;stroke:#262626;" x="777.6" xlink:href="#m67c5c937f1" y="248.914285714"/>
      </g>
     </g>
     <g id="text_10">
      <!-- 60 -->
      <defs>
       <path d="M 33.015625 40.375 
Q 26.375 40.375 22.484375 35.828125 
Q 18.609375 31.296875 18.609375 23.390625 
Q 18.609375 15.53125 22.484375 10.953125 
Q 26.375 6.390625 33.015625 6.390625 
Q 39.65625 6.390625 43.53125 10.953125 
Q 47.40625 15.53125 47.40625 23.390625 
Q 47.40625 31.296875 43.53125 35.828125 
Q 39.65625 40.375 33.015625 40.375 
M 52.59375 71.296875 
L 52.59375 62.3125 
Q 48.875 64.0625 45.09375 64.984375 
Q 41.3125 65.921875 37.59375 65.921875 
Q 27.828125 65.921875 22.671875 59.328125 
Q 17.53125 52.734375 16.796875 39.40625 
Q 19.671875 43.65625 24.015625 45.921875 
Q 28.375 48.1875 33.59375 48.1875 
Q 44.578125 48.1875 50.953125 41.515625 
Q 57.328125 34.859375 57.328125 23.390625 
Q 57.328125 12.15625 50.6875 5.359375 
Q 44.046875 -1.421875 33.015625 -1.421875 
Q 20.359375 -1.421875 13.671875 8.265625 
Q 6.984375 17.96875 6.984375 36.375 
Q 6.984375 53.65625 15.1875 63.9375 
Q 23.390625 74.21875 37.203125 74.21875 
Q 40.921875 74.21875 44.703125 73.484375 
Q 48.484375 72.75 52.59375 71.296875 
" id="BitstreamVeraSans-Roman-36"/>
      </defs>
      <g style="fill:#262626;" transform="translate(69.1875 255.812723214)scale(0.25 -0.25)">
       <use xlink:href="#BitstreamVeraSans-Roman-36"/>
       <use x="63.623046875" xlink:href="#BitstreamVeraSans-Roman-30"/>
      </g>
     </g>
    </g>
    <g id="ytick_6">
     <g id="line2d_24">
      <path clip-path="url(#p1e870af6b9)" d="M 108 185.142857 
L 777.6 185.142857 
" style="fill:none;stroke:#ffffff;stroke-linecap:round;"/>
     </g>
     <g id="line2d_25">
      <g>
       <use style="fill:#262626;stroke:#262626;" x="108.0" xlink:href="#m67c5c937f1" y="185.142857143"/>
      </g>
     </g>
     <g id="line2d_26">
      <g>
       <use style="fill:#262626;stroke:#262626;" x="777.6" xlink:href="#m67c5c937f1" y="185.142857143"/>
      </g>
     </g>
     <g id="text_11">
      <!-- 80 -->
      <defs>
       <path d="M 31.78125 34.625 
Q 24.75 34.625 20.71875 30.859375 
Q 16.703125 27.09375 16.703125 20.515625 
Q 16.703125 13.921875 20.71875 10.15625 
Q 24.75 6.390625 31.78125 6.390625 
Q 38.8125 6.390625 42.859375 10.171875 
Q 46.921875 13.96875 46.921875 20.515625 
Q 46.921875 27.09375 42.890625 30.859375 
Q 38.875 34.625 31.78125 34.625 
M 21.921875 38.8125 
Q 15.578125 40.375 12.03125 44.71875 
Q 8.5 49.078125 8.5 55.328125 
Q 8.5 64.0625 14.71875 69.140625 
Q 20.953125 74.21875 31.78125 74.21875 
Q 42.671875 74.21875 48.875 69.140625 
Q 55.078125 64.0625 55.078125 55.328125 
Q 55.078125 49.078125 51.53125 44.71875 
Q 48 40.375 41.703125 38.8125 
Q 48.828125 37.15625 52.796875 32.3125 
Q 56.78125 27.484375 56.78125 20.515625 
Q 56.78125 9.90625 50.3125 4.234375 
Q 43.84375 -1.421875 31.78125 -1.421875 
Q 19.734375 -1.421875 13.25 4.234375 
Q 6.78125 9.90625 6.78125 20.515625 
Q 6.78125 27.484375 10.78125 32.3125 
Q 14.796875 37.15625 21.921875 38.8125 
M 18.3125 54.390625 
Q 18.3125 48.734375 21.84375 45.5625 
Q 25.390625 42.390625 31.78125 42.390625 
Q 38.140625 42.390625 41.71875 45.5625 
Q 45.3125 48.734375 45.3125 54.390625 
Q 45.3125 60.0625 41.71875 63.234375 
Q 38.140625 66.40625 31.78125 66.40625 
Q 25.390625 66.40625 21.84375 63.234375 
Q 18.3125 60.0625 18.3125 54.390625 
" id="BitstreamVeraSans-Roman-38"/>
      </defs>
      <g style="fill:#262626;" transform="translate(69.1875 192.041294643)scale(0.25 -0.25)">
       <use xlink:href="#BitstreamVeraSans-Roman-38"/>
       <use x="63.623046875" xlink:href="#BitstreamVeraSans-Roman-30"/>
      </g>
     </g>
    </g>
    <g id="ytick_7">
     <g id="line2d_27">
      <path clip-path="url(#p1e870af6b9)" d="M 108 121.371429 
L 777.6 121.371429 
" style="fill:none;stroke:#ffffff;stroke-linecap:round;"/>
     </g>
     <g id="line2d_28">
      <g>
       <use style="fill:#262626;stroke:#262626;" x="108.0" xlink:href="#m67c5c937f1" y="121.371428571"/>
      </g>
     </g>
     <g id="line2d_29">
      <g>
       <use style="fill:#262626;stroke:#262626;" x="777.6" xlink:href="#m67c5c937f1" y="121.371428571"/>
      </g>
     </g>
     <g id="text_12">
      <!-- 100 -->
      <defs>
       <path d="M 12.40625 8.296875 
L 28.515625 8.296875 
L 28.515625 63.921875 
L 10.984375 60.40625 
L 10.984375 69.390625 
L 28.421875 72.90625 
L 38.28125 72.90625 
L 38.28125 8.296875 
L 54.390625 8.296875 
L 54.390625 0 
L 12.40625 0 
z
" id="BitstreamVeraSans-Roman-31"/>
      </defs>
      <g style="fill:#262626;" transform="translate(53.28125 128.269866071)scale(0.25 -0.25)">
       <use xlink:href="#BitstreamVeraSans-Roman-31"/>
       <use x="63.623046875" xlink:href="#BitstreamVeraSans-Roman-30"/>
       <use x="127.24609375" xlink:href="#BitstreamVeraSans-Roman-30"/>
      </g>
     </g>
    </g>
    <g id="ytick_8">
     <g id="line2d_30">
      <path clip-path="url(#p1e870af6b9)" d="M 108 57.6 
L 777.6 57.6 
" style="fill:none;stroke:#ffffff;stroke-linecap:round;"/>
     </g>
     <g id="line2d_31">
      <g>
       <use style="fill:#262626;stroke:#262626;" x="108.0" xlink:href="#m67c5c937f1" y="57.6"/>
      </g>
     </g>
     <g id="line2d_32">
      <g>
       <use style="fill:#262626;stroke:#262626;" x="777.6" xlink:href="#m67c5c937f1" y="57.6"/>
      </g>
     </g>
     <g id="text_13">
      <!-- 120 -->
      <g style="fill:#262626;" transform="translate(53.28125 64.4984375)scale(0.25 -0.25)">
       <use xlink:href="#BitstreamVeraSans-Roman-31"/>
       <use x="63.623046875" xlink:href="#BitstreamVeraSans-Roman-32"/>
       <use x="127.24609375" xlink:href="#BitstreamVeraSans-Roman-30"/>
      </g>
     </g>
    </g>
    <g id="text_14">
     <!-- Phylogentic Diversity -->
     <defs>
      <path d="M 54.890625 33.015625 
L 54.890625 0 
L 45.90625 0 
L 45.90625 32.71875 
Q 45.90625 40.484375 42.875 44.328125 
Q 39.84375 48.1875 33.796875 48.1875 
Q 26.515625 48.1875 22.3125 43.546875 
Q 18.109375 38.921875 18.109375 30.90625 
L 18.109375 0 
L 9.078125 0 
L 9.078125 75.984375 
L 18.109375 75.984375 
L 18.109375 46.1875 
Q 21.34375 51.125 25.703125 53.5625 
Q 30.078125 56 35.796875 56 
Q 45.21875 56 50.046875 50.171875 
Q 54.890625 44.34375 54.890625 33.015625 
" id="BitstreamVeraSans-Roman-68"/>
      <path d="M 19.671875 64.796875 
L 19.671875 8.109375 
L 31.59375 8.109375 
Q 46.6875 8.109375 53.6875 14.9375 
Q 60.6875 21.78125 60.6875 36.53125 
Q 60.6875 51.171875 53.6875 57.984375 
Q 46.6875 64.796875 31.59375 64.796875 
z
M 9.8125 72.90625 
L 30.078125 72.90625 
Q 51.265625 72.90625 61.171875 64.09375 
Q 71.09375 55.28125 71.09375 36.53125 
Q 71.09375 17.671875 61.125 8.828125 
Q 51.171875 0 30.078125 0 
L 9.8125 0 
z
" id="BitstreamVeraSans-Roman-44"/>
      <path d="M 2.984375 54.6875 
L 12.5 54.6875 
L 29.59375 8.796875 
L 46.6875 54.6875 
L 56.203125 54.6875 
L 35.6875 0 
L 23.484375 0 
z
" id="BitstreamVeraSans-Roman-76"/>
      <path d="M 32.171875 -5.078125 
Q 28.375 -14.84375 24.75 -17.8125 
Q 21.140625 -20.796875 15.09375 -20.796875 
L 7.90625 -20.796875 
L 7.90625 -13.28125 
L 13.1875 -13.28125 
Q 16.890625 -13.28125 18.9375 -11.515625 
Q 21 -9.765625 23.484375 -3.21875 
L 25.09375 0.875 
L 2.984375 54.6875 
L 12.5 54.6875 
L 29.59375 11.921875 
L 46.6875 54.6875 
L 56.203125 54.6875 
z
" id="BitstreamVeraSans-Roman-79"/>
      <path id="BitstreamVeraSans-Roman-20"/>
      <path d="M 19.671875 64.796875 
L 19.671875 37.40625 
L 32.078125 37.40625 
Q 38.96875 37.40625 42.71875 40.96875 
Q 46.484375 44.53125 46.484375 51.125 
Q 46.484375 57.671875 42.71875 61.234375 
Q 38.96875 64.796875 32.078125 64.796875 
z
M 9.8125 72.90625 
L 32.078125 72.90625 
Q 44.34375 72.90625 50.609375 67.359375 
Q 56.890625 61.8125 56.890625 51.125 
Q 56.890625 40.328125 50.609375 34.8125 
Q 44.34375 29.296875 32.078125 29.296875 
L 19.671875 29.296875 
L 19.671875 0 
L 9.8125 0 
z
" id="BitstreamVeraSans-Roman-50"/>
      <path d="M 48.78125 52.59375 
L 48.78125 44.1875 
Q 44.96875 46.296875 41.140625 47.34375 
Q 37.3125 48.390625 33.40625 48.390625 
Q 24.65625 48.390625 19.8125 42.84375 
Q 14.984375 37.3125 14.984375 27.296875 
Q 14.984375 17.28125 19.8125 11.734375 
Q 24.65625 6.203125 33.40625 6.203125 
Q 37.3125 6.203125 41.140625 7.25 
Q 44.96875 8.296875 48.78125 10.40625 
L 48.78125 2.09375 
Q 45.015625 0.34375 40.984375 -0.53125 
Q 36.96875 -1.421875 32.421875 -1.421875 
Q 20.0625 -1.421875 12.78125 6.34375 
Q 5.515625 14.109375 5.515625 27.296875 
Q 5.515625 40.671875 12.859375 48.328125 
Q 20.21875 56 33.015625 56 
Q 37.15625 56 41.109375 55.140625 
Q 45.0625 54.296875 48.78125 52.59375 
" id="BitstreamVeraSans-Roman-63"/>
     </defs>
     <g style="fill:#262626;" transform="translate(37.519140625 426.391015625)rotate(-90.0)scale(0.275 -0.275)">
      <use xlink:href="#BitstreamVeraSans-Roman-50"/>
      <use x="60.302734375" xlink:href="#BitstreamVeraSans-Roman-68"/>
      <use x="123.681640625" xlink:href="#BitstreamVeraSans-Roman-79"/>
      <use x="182.861328125" xlink:href="#BitstreamVeraSans-Roman-6c"/>
      <use x="210.64453125" xlink:href="#BitstreamVeraSans-Roman-6f"/>
      <use x="271.826171875" xlink:href="#BitstreamVeraSans-Roman-67"/>
      <use x="335.302734375" xlink:href="#BitstreamVeraSans-Roman-65"/>
      <use x="396.826171875" xlink:href="#BitstreamVeraSans-Roman-6e"/>
      <use x="460.205078125" xlink:href="#BitstreamVeraSans-Roman-74"/>
      <use x="499.4140625" xlink:href="#BitstreamVeraSans-Roman-69"/>
      <use x="527.197265625" xlink:href="#BitstreamVeraSans-Roman-63"/>
      <use x="582.177734375" xlink:href="#BitstreamVeraSans-Roman-20"/>
      <use x="613.96484375" xlink:href="#BitstreamVeraSans-Roman-44"/>
      <use x="690.966796875" xlink:href="#BitstreamVeraSans-Roman-69"/>
      <use x="718.75" xlink:href="#BitstreamVeraSans-Roman-76"/>
      <use x="777.9296875" xlink:href="#BitstreamVeraSans-Roman-65"/>
      <use x="839.453125" xlink:href="#BitstreamVeraSans-Roman-72"/>
      <use x="880.56640625" xlink:href="#BitstreamVeraSans-Roman-73"/>
      <use x="932.666015625" xlink:href="#BitstreamVeraSans-Roman-69"/>
      <use x="960.44921875" xlink:href="#BitstreamVeraSans-Roman-74"/>
      <use x="999.658203125" xlink:href="#BitstreamVeraSans-Roman-79"/>
     </g>
    </g>
   </g>
   <g id="PolyCollection_1">
    <defs>
     <path d="M 191.933405 -142.771912 
L 191.466595 -142.771912 
L 191.187728 -146.003365 
L 190.642092 -149.234818 
L 189.643032 -152.466271 
L 187.933358 -155.697724 
L 185.204244 -158.929177 
L 181.151023 -162.16063 
L 175.567972 -165.392083 
L 168.462977 -168.623536 
L 160.149081 -171.854989 
L 151.259529 -175.086442 
L 142.651028 -178.317896 
L 135.206972 -181.549349 
L 129.606586 -184.780802 
L 126.153923 -188.012255 
L 124.74 -191.243708 
L 124.949582 -194.475161 
L 126.255792 -197.706614 
L 128.209806 -200.938067 
L 130.54727 -204.16952 
L 133.185118 -207.400973 
L 136.139411 -210.632426 
L 139.4256 -213.863879 
L 142.995311 -217.095332 
L 146.730389 -220.326785 
L 150.479517 -223.558238 
L 154.105005 -226.789691 
L 157.511628 -230.021144 
L 160.647342 -233.252597 
L 163.484342 -236.48405 
L 165.998767 -239.715503 
L 168.164837 -242.946956 
L 169.967114 -246.178409 
L 171.421076 -249.409862 
L 172.585946 -252.641315 
L 173.558799 -255.872768 
L 174.451289 -259.104221 
L 175.360854 -262.335674 
L 176.350107 -265.567127 
L 177.441129 -268.79858 
L 178.621987 -272.030033 
L 179.857661 -275.261487 
L 181.099243 -278.49294 
L 182.29067 -281.724393 
L 183.376209 -284.955846 
L 184.311307 -288.187299 
L 185.07516 -291.418752 
L 185.679262 -294.650205 
L 186.165718 -297.881658 
L 186.593288 -301.113111 
L 187.015695 -304.344564 
L 187.461766 -307.576017 
L 187.926908 -310.80747 
L 188.379916 -314.038923 
L 188.78094 -317.270376 
L 189.100596 -320.501829 
L 189.330288 -323.733282 
L 189.479838 -326.964735 
L 189.566522 -330.196188 
L 189.604385 -333.427641 
L 189.601171 -336.659094 
L 189.563829 -339.890547 
L 189.507011 -343.122 
L 189.456854 -346.353453 
L 189.445945 -349.584906 
L 189.501791 -352.816359 
L 189.635732 -356.047812 
L 189.838888 -359.279265 
L 190.087065 -362.510718 
L 190.35107 -365.742171 
L 190.606456 -368.973625 
L 190.838301 -372.205078 
L 191.040474 -375.436531 
L 191.211966 -378.667984 
L 191.353474 -381.899437 
L 191.465953 -385.13089 
L 191.550882 -388.362343 
L 191.610989 -391.593796 
L 191.650407 -394.825249 
L 191.674021 -398.056702 
L 191.686392 -401.288155 
L 191.690757 -404.519608 
L 191.688347 -407.751061 
L 191.678077 -410.982514 
L 191.656645 -414.213967 
L 191.619306 -417.44542 
L 191.561609 -420.676873 
L 191.482092 -423.908326 
L 191.385159 -427.139779 
L 191.282627 -430.371232 
L 191.192337 -433.602685 
L 191.133438 -436.834138 
L 191.119845 -440.065591 
L 191.154912 -443.297044 
L 191.230092 -446.528497 
L 191.328312 -449.75995 
L 191.430254 -452.991403 
L 191.520388 -456.222856 
L 191.590275 -459.454309 
L 191.638503 -462.685763 
L 191.761497 -462.685763 
L 191.761497 -462.685763 
L 191.809725 -459.454309 
L 191.879612 -456.222856 
L 191.969746 -452.991403 
L 192.071688 -449.75995 
L 192.169908 -446.528497 
L 192.245088 -443.297044 
L 192.280155 -440.065591 
L 192.266562 -436.834138 
L 192.207663 -433.602685 
L 192.117373 -430.371232 
L 192.014841 -427.139779 
L 191.917908 -423.908326 
L 191.838391 -420.676873 
L 191.780694 -417.44542 
L 191.743355 -414.213967 
L 191.721923 -410.982514 
L 191.711653 -407.751061 
L 191.709243 -404.519608 
L 191.713608 -401.288155 
L 191.725979 -398.056702 
L 191.749593 -394.825249 
L 191.789011 -391.593796 
L 191.849118 -388.362343 
L 191.934047 -385.13089 
L 192.046526 -381.899437 
L 192.188034 -378.667984 
L 192.359526 -375.436531 
L 192.561699 -372.205078 
L 192.793544 -368.973625 
L 193.04893 -365.742171 
L 193.312935 -362.510718 
L 193.561112 -359.279265 
L 193.764268 -356.047812 
L 193.898209 -352.816359 
L 193.954055 -349.584906 
L 193.943146 -346.353453 
L 193.892989 -343.122 
L 193.836171 -339.890547 
L 193.798829 -336.659094 
L 193.795615 -333.427641 
L 193.833478 -330.196188 
L 193.920162 -326.964735 
L 194.069712 -323.733282 
L 194.299404 -320.501829 
L 194.61906 -317.270376 
L 195.020084 -314.038923 
L 195.473092 -310.80747 
L 195.938234 -307.576017 
L 196.384305 -304.344564 
L 196.806712 -301.113111 
L 197.234282 -297.881658 
L 197.720738 -294.650205 
L 198.32484 -291.418752 
L 199.088693 -288.187299 
L 200.023791 -284.955846 
L 201.10933 -281.724393 
L 202.300757 -278.49294 
L 203.542339 -275.261487 
L 204.778013 -272.030033 
L 205.958871 -268.79858 
L 207.049893 -265.567127 
L 208.039146 -262.335674 
L 208.948711 -259.104221 
L 209.841201 -255.872768 
L 210.814054 -252.641315 
L 211.978924 -249.409862 
L 213.432886 -246.178409 
L 215.235163 -242.946956 
L 217.401233 -239.715503 
L 219.915658 -236.48405 
L 222.752658 -233.252597 
L 225.888372 -230.021144 
L 229.294995 -226.789691 
L 232.920483 -223.558238 
L 236.669611 -220.326785 
L 240.404689 -217.095332 
L 243.9744 -213.863879 
L 247.260589 -210.632426 
L 250.214882 -207.400973 
L 252.85273 -204.16952 
L 255.190194 -200.938067 
L 257.144208 -197.706614 
L 258.450418 -194.475161 
L 258.66 -191.243708 
L 257.246077 -188.012255 
L 253.793414 -184.780802 
L 248.193028 -181.549349 
L 240.748972 -178.317896 
L 232.140471 -175.086442 
L 223.250919 -171.854989 
L 214.937023 -168.623536 
L 207.832028 -165.392083 
L 202.248977 -162.16063 
L 198.195756 -158.929177 
L 195.466642 -155.697724 
L 193.756968 -152.466271 
L 192.757908 -149.234818 
L 192.212272 -146.003365 
L 191.933405 -142.771912 
z
" id="m78df57668c" style="stroke:#142452;stroke-width:1.75;"/>
    </defs>
    <g clip-path="url(#p1e870af6b9)">
     <use style="fill:#142452;stroke:#142452;stroke-width:1.75;" x="0.0" xlink:href="#m78df57668c" y="576.0"/>
    </g>
   </g>
   <g id="PolyCollection_2">
    <defs>
     <path d="M 359.40344 -139.516061 
L 358.79656 -139.516061 
L 358.613864 -142.667308 
L 358.34207 -145.818554 
L 357.94934 -148.969801 
L 357.397944 -152.121048 
L 356.645447 -155.272295 
L 355.64695 -158.423541 
L 354.358436 -161.574788 
L 352.741123 -164.726035 
L 350.76653 -167.877282 
L 348.421768 -171.028529 
L 345.714382 -174.179775 
L 342.67603 -177.331022 
L 339.364252 -180.482269 
L 335.861783 -183.633516 
L 332.273114 -186.784762 
L 328.718378 -189.936009 
L 325.32501 -193.087256 
L 322.218017 -196.238503 
L 319.509924 -199.389749 
L 317.291577 -202.540996 
L 315.624932 -205.692243 
L 314.538742 -208.84349 
L 314.027672 -211.994736 
L 314.054954 -215.145983 
L 314.558176 -218.29723 
L 315.457333 -221.448477 
L 316.663957 -224.599723 
L 318.089963 -227.75097 
L 319.654991 -230.902217 
L 321.291368 -234.053464 
L 322.946369 -237.20471 
L 324.582024 -240.355957 
L 326.173204 -243.507204 
L 327.704891 -246.658451 
L 329.169513 -249.809698 
L 330.564846 -252.960944 
L 331.892633 -256.112191 
L 333.157694 -259.263438 
L 334.36713 -262.414685 
L 335.529285 -265.565931 
L 336.652331 -268.717178 
L 337.742623 -271.868425 
L 338.803182 -275.019672 
L 339.832739 -278.170918 
L 340.8257 -281.322165 
L 341.773134 -284.473412 
L 342.664609 -287.624659 
L 343.490425 -290.775905 
L 344.243645 -293.927152 
L 344.92141 -297.078399 
L 345.525228 -300.229646 
L 346.060273 -303.380892 
L 346.534075 -306.532139 
L 346.955089 -309.683386 
L 347.331648 -312.834633 
L 347.671501 -315.98588 
L 347.981863 -319.137126 
L 348.269639 -322.288373 
L 348.54145 -325.43962 
L 348.803261 -328.590867 
L 349.059711 -331.742113 
L 349.313491 -334.89336 
L 349.565244 -338.044607 
L 349.814277 -341.195854 
L 350.060063 -344.3471 
L 350.304114 -347.498347 
L 350.551568 -350.649594 
L 350.811811 -353.800841 
L 351.097715 -356.952087 
L 351.423488 -360.103334 
L 351.801611 -363.254581 
L 352.239617 -366.405828 
L 352.737566 -369.557074 
L 353.286903 -372.708321 
L 353.871029 -375.859568 
L 354.467474 -379.010815 
L 355.051219 -382.162062 
L 355.598427 -385.313308 
L 356.089833 -388.464555 
L 356.513157 -391.615802 
L 356.864151 -394.767049 
L 357.146227 -397.918295 
L 357.368884 -401.069542 
L 357.545387 -404.220789 
L 357.690201 -407.372036 
L 357.816692 -410.523282 
L 357.935434 -413.674529 
L 358.053318 -416.825776 
L 358.173446 -419.977023 
L 358.29567 -423.128269 
L 358.417533 -426.279516 
L 358.535359 -429.430763 
L 358.645276 -432.58201 
L 358.743999 -435.733256 
L 358.829318 -438.884503 
L 358.900269 -442.03575 
L 358.957066 -445.186997 
L 359.000848 -448.338244 
L 359.033359 -451.48949 
L 359.166641 -451.48949 
L 359.166641 -451.48949 
L 359.199152 -448.338244 
L 359.242934 -445.186997 
L 359.299731 -442.03575 
L 359.370682 -438.884503 
L 359.456001 -435.733256 
L 359.554724 -432.58201 
L 359.664641 -429.430763 
L 359.782467 -426.279516 
L 359.90433 -423.128269 
L 360.026554 -419.977023 
L 360.146682 -416.825776 
L 360.264566 -413.674529 
L 360.383308 -410.523282 
L 360.509799 -407.372036 
L 360.654613 -404.220789 
L 360.831116 -401.069542 
L 361.053773 -397.918295 
L 361.335849 -394.767049 
L 361.686843 -391.615802 
L 362.110167 -388.464555 
L 362.601573 -385.313308 
L 363.148781 -382.162062 
L 363.732526 -379.010815 
L 364.328971 -375.859568 
L 364.913097 -372.708321 
L 365.462434 -369.557074 
L 365.960383 -366.405828 
L 366.398389 -363.254581 
L 366.776512 -360.103334 
L 367.102285 -356.952087 
L 367.388189 -353.800841 
L 367.648432 -350.649594 
L 367.895886 -347.498347 
L 368.139937 -344.3471 
L 368.385723 -341.195854 
L 368.634756 -338.044607 
L 368.886509 -334.89336 
L 369.140289 -331.742113 
L 369.396739 -328.590867 
L 369.65855 -325.43962 
L 369.930361 -322.288373 
L 370.218137 -319.137126 
L 370.528499 -315.98588 
L 370.868352 -312.834633 
L 371.244911 -309.683386 
L 371.665925 -306.532139 
L 372.139727 -303.380892 
L 372.674772 -300.229646 
L 373.27859 -297.078399 
L 373.956355 -293.927152 
L 374.709575 -290.775905 
L 375.535391 -287.624659 
L 376.426866 -284.473412 
L 377.3743 -281.322165 
L 378.367261 -278.170918 
L 379.396818 -275.019672 
L 380.457377 -271.868425 
L 381.547669 -268.717178 
L 382.670715 -265.565931 
L 383.83287 -262.414685 
L 385.042306 -259.263438 
L 386.307367 -256.112191 
L 387.635154 -252.960944 
L 389.030487 -249.809698 
L 390.495109 -246.658451 
L 392.026796 -243.507204 
L 393.617976 -240.355957 
L 395.253631 -237.20471 
L 396.908632 -234.053464 
L 398.545009 -230.902217 
L 400.110037 -227.75097 
L 401.536043 -224.599723 
L 402.742667 -221.448477 
L 403.641824 -218.29723 
L 404.145046 -215.145983 
L 404.172328 -211.994736 
L 403.661258 -208.84349 
L 402.575068 -205.692243 
L 400.908423 -202.540996 
L 398.690076 -199.389749 
L 395.981983 -196.238503 
L 392.87499 -193.087256 
L 389.481622 -189.936009 
L 385.926886 -186.784762 
L 382.338217 -183.633516 
L 378.835748 -180.482269 
L 375.52397 -177.331022 
L 372.485618 -174.179775 
L 369.778232 -171.028529 
L 367.43347 -167.877282 
L 365.458877 -164.726035 
L 363.841564 -161.574788 
L 362.55305 -158.423541 
L 361.554553 -155.272295 
L 360.802056 -152.121048 
L 360.25066 -148.969801 
L 359.85793 -145.818554 
L 359.586136 -142.667308 
L 359.40344 -139.516061 
z
" id="m87c20d8712" style="stroke:#327ca5;stroke-width:1.75;"/>
    </defs>
    <g clip-path="url(#p1e870af6b9)">
     <use style="fill:#327ca5;stroke:#327ca5;stroke-width:1.75;" x="0.0" xlink:href="#m87c20d8712" y="576.0"/>
    </g>
   </g>
   <g id="PolyCollection_3">
    <defs>
     <path d="M 526.547282 -107.448685 
L 526.452718 -107.448685 
L 526.428296 -110.845249 
L 526.393733 -114.241812 
L 526.345641 -117.638375 
L 526.279546 -121.034939 
L 526.189426 -124.431502 
L 526.067082 -127.828065 
L 525.901337 -131.224629 
L 525.67713 -134.621192 
L 525.374596 -138.017755 
L 524.968285 -141.414319 
L 524.426752 -144.810882 
L 523.712761 -148.207446 
L 522.78442 -151.604009 
L 521.597545 -155.000572 
L 520.109448 -158.397136 
L 518.284189 -161.793699 
L 516.098993 -165.190262 
L 513.551118 -168.586826 
L 510.664075 -171.983389 
L 507.491842 -175.379952 
L 504.119712 -178.776516 
L 500.660854 -182.173079 
L 497.248362 -185.569642 
L 494.023567 -188.966206 
L 491.12224 -192.362769 
L 488.660944 -195.759332 
L 486.725848 -199.155896 
L 485.365866 -202.552459 
L 484.591048 -205.949022 
L 484.376054 -209.345586 
L 484.667554 -212.742149 
L 485.39373 -216.138712 
L 486.47396 -219.535276 
L 487.827064 -222.931839 
L 489.377133 -226.328402 
L 491.056726 -229.724966 
L 492.807828 -233.121529 
L 494.581335 -236.518092 
L 496.335936 -239.914656 
L 498.03712 -243.311219 
L 499.656748 -246.707782 
L 501.173295 -250.104346 
L 502.572605 -253.500909 
L 503.848754 -256.897473 
L 505.004531 -260.294036 
L 506.051084 -263.690599 
L 507.006412 -267.087163 
L 507.892667 -270.483726 
L 508.732592 -273.880289 
L 509.545661 -277.276853 
L 510.344735 -280.673416 
L 511.133942 -284.069979 
L 511.908294 -287.466543 
L 512.655104 -290.863106 
L 513.356871 -294.259669 
L 513.994914 -297.656233 
L 514.552931 -301.052796 
L 515.019685 -304.449359 
L 515.390345 -307.845923 
L 515.666312 -311.242486 
L 515.853813 -314.639049 
L 515.961806 -318.035613 
L 515.999921 -321.432176 
L 515.977094 -324.828739 
L 515.901364 -328.225303 
L 515.780892 -331.621866 
L 515.625854 -335.018429 
L 515.450525 -338.414993 
L 515.274691 -341.811556 
L 515.123671 -345.208119 
L 515.026609 -348.604683 
L 515.013211 -352.001246 
L 515.109624 -355.397809 
L 515.334443 -358.794373 
L 515.695835 -362.190936 
L 516.19045 -365.5875 
L 516.804268 -368.984063 
L 517.515036 -372.380626 
L 518.295565 -375.77719 
L 519.117097 -379.173753 
L 519.952072 -382.570316 
L 520.776 -385.96688 
L 521.568397 -389.363443 
L 522.313063 -392.760006 
L 522.997957 -396.15657 
L 523.614957 -399.553133 
L 524.159582 -402.949696 
L 524.6307 -406.34626 
L 525.030151 -409.742823 
L 525.362235 -413.139386 
L 525.633077 -416.53595 
L 525.849921 -419.932513 
L 526.020459 -423.329076 
L 526.152257 -426.72564 
L 526.252353 -430.122203 
L 526.327021 -433.518766 
L 526.381672 -436.91533 
L 526.420859 -440.311893 
L 526.448335 -443.708456 
L 526.551665 -443.708456 
L 526.551665 -443.708456 
L 526.579141 -440.311893 
L 526.618328 -436.91533 
L 526.672979 -433.518766 
L 526.747647 -430.122203 
L 526.847743 -426.72564 
L 526.979541 -423.329076 
L 527.150079 -419.932513 
L 527.366923 -416.53595 
L 527.637765 -413.139386 
L 527.969849 -409.742823 
L 528.3693 -406.34626 
L 528.840418 -402.949696 
L 529.385043 -399.553133 
L 530.002043 -396.15657 
L 530.686937 -392.760006 
L 531.431603 -389.363443 
L 532.224 -385.96688 
L 533.047928 -382.570316 
L 533.882903 -379.173753 
L 534.704435 -375.77719 
L 535.484964 -372.380626 
L 536.195732 -368.984063 
L 536.80955 -365.5875 
L 537.304165 -362.190936 
L 537.665557 -358.794373 
L 537.890376 -355.397809 
L 537.986789 -352.001246 
L 537.973391 -348.604683 
L 537.876329 -345.208119 
L 537.725309 -341.811556 
L 537.549475 -338.414993 
L 537.374146 -335.018429 
L 537.219108 -331.621866 
L 537.098636 -328.225303 
L 537.022906 -324.828739 
L 537.000079 -321.432176 
L 537.038194 -318.035613 
L 537.146187 -314.639049 
L 537.333688 -311.242486 
L 537.609655 -307.845923 
L 537.980315 -304.449359 
L 538.447069 -301.052796 
L 539.005086 -297.656233 
L 539.643129 -294.259669 
L 540.344896 -290.863106 
L 541.091706 -287.466543 
L 541.866058 -284.069979 
L 542.655265 -280.673416 
L 543.454339 -277.276853 
L 544.267408 -273.880289 
L 545.107333 -270.483726 
L 545.993588 -267.087163 
L 546.948916 -263.690599 
L 547.995469 -260.294036 
L 549.151246 -256.897473 
L 550.427395 -253.500909 
L 551.826705 -250.104346 
L 553.343252 -246.707782 
L 554.96288 -243.311219 
L 556.664064 -239.914656 
L 558.418665 -236.518092 
L 560.192172 -233.121529 
L 561.943274 -229.724966 
L 563.622867 -226.328402 
L 565.172936 -222.931839 
L 566.52604 -219.535276 
L 567.60627 -216.138712 
L 568.332446 -212.742149 
L 568.623946 -209.345586 
L 568.408952 -205.949022 
L 567.634134 -202.552459 
L 566.274152 -199.155896 
L 564.339056 -195.759332 
L 561.87776 -192.362769 
L 558.976433 -188.966206 
L 555.751638 -185.569642 
L 552.339146 -182.173079 
L 548.880288 -178.776516 
L 545.508158 -175.379952 
L 542.335925 -171.983389 
L 539.448882 -168.586826 
L 536.901007 -165.190262 
L 534.715811 -161.793699 
L 532.890552 -158.397136 
L 531.402455 -155.000572 
L 530.21558 -151.604009 
L 529.287239 -148.207446 
L 528.573248 -144.810882 
L 528.031715 -141.414319 
L 527.625404 -138.017755 
L 527.32287 -134.621192 
L 527.098663 -131.224629 
L 526.932918 -127.828065 
L 526.810574 -124.431502 
L 526.720454 -121.034939 
L 526.654359 -117.638375 
L 526.606267 -114.241812 
L 526.571704 -110.845249 
L 526.547282 -107.448685 
z
" id="me371260416" style="stroke:#f9fadb;stroke-width:1.75;"/>
    </defs>
    <g clip-path="url(#p1e870af6b9)">
     <use style="fill:#f9fadb;stroke:#f9fadb;stroke-width:1.75;" x="0.0" xlink:href="#me371260416" y="576.0"/>
    </g>
   </g>
   <g id="PolyCollection_4">
    <defs>
     <path d="M 694.12262 -119.206693 
L 693.67738 -119.206693 
L 693.486836 -122.889334 
L 693.166437 -126.571974 
L 692.65275 -130.254615 
L 691.867029 -133.937255 
L 690.71986 -137.619896 
L 689.120377 -141.302536 
L 686.989805 -144.985177 
L 684.27766 -148.667817 
L 680.977633 -152.350458 
L 677.139366 -156.033098 
L 672.872618 -159.715739 
L 668.341718 -163.398379 
L 663.750485 -167.081019 
L 659.320213 -170.76366 
L 655.265029 -174.4463 
L 651.769431 -178.128941 
L 648.971908 -181.811581 
L 646.956821 -185.494222 
L 645.75473 -189.176862 
L 645.349682 -192.859503 
L 645.690895 -196.542143 
L 646.705658 -200.224784 
L 648.310303 -203.907424 
L 650.416742 -207.590065 
L 652.933576 -211.272705 
L 655.76282 -214.955346 
L 658.795287 -218.637986 
L 661.90857 -222.320627 
L 664.970841 -226.003267 
L 667.851405 -229.685908 
L 670.436013 -233.368548 
L 672.642605 -237.051188 
L 674.43245 -240.733829 
L 675.812854 -244.416469 
L 676.83034 -248.09911 
L 677.556348 -251.78175 
L 678.069918 -255.464391 
L 678.44247 -259.147031 
L 678.728583 -262.829672 
L 678.964128 -266.512312 
L 679.170354 -270.194953 
L 679.360769 -273.877593 
L 679.547348 -277.560234 
L 679.743711 -281.242874 
L 679.964705 -284.925515 
L 680.223573 -288.608155 
L 680.528811 -292.290796 
L 680.882734 -295.973436 
L 681.282679 -299.656076 
L 681.72424 -303.338717 
L 682.204743 -307.021357 
L 682.724975 -310.703998 
L 683.288141 -314.386638 
L 683.896604 -318.069279 
L 684.548257 -321.751919 
L 685.2345 -325.43456 
L 685.940842 -329.1172 
L 686.649634 -332.799841 
L 687.34338 -336.482481 
L 688.007006 -340.165122 
L 688.628356 -343.847762 
L 689.197347 -347.530403 
L 689.704942 -351.213043 
L 690.143105 -354.895684 
L 690.506202 -358.578324 
L 690.793373 -362.260964 
L 691.010747 -365.943605 
L 691.172241 -369.626245 
L 691.298137 -373.308886 
L 691.411562 -376.991526 
L 691.533864 -380.674167 
L 691.680381 -384.356807 
L 691.857975 -388.039448 
L 692.064951 -391.722088 
L 692.293045 -395.404729 
L 692.530485 -399.087369 
L 692.764945 -402.77001 
L 692.985602 -406.45265 
L 693.184093 -410.135291 
L 693.354658 -413.817931 
L 693.493891 -417.500572 
L 693.60047 -421.183212 
L 693.674975 -424.865852 
L 693.719796 -428.548493 
L 693.739024 -432.231133 
L 693.73826 -435.913774 
L 693.724252 -439.596414 
L 693.704305 -443.279055 
L 693.685472 -446.961695 
L 693.673608 -450.644336 
L 693.672521 -454.326976 
L 693.683466 -458.009617 
L 693.705182 -461.692257 
L 693.734494 -465.374898 
L 693.767296 -469.057538 
L 693.799595 -472.740179 
L 693.828322 -476.422819 
L 693.851721 -480.10546 
L 693.869319 -483.7881 
L 693.930681 -483.7881 
L 693.930681 -483.7881 
L 693.948279 -480.10546 
L 693.971678 -476.422819 
L 694.000405 -472.740179 
L 694.032704 -469.057538 
L 694.065506 -465.374898 
L 694.094818 -461.692257 
L 694.116534 -458.009617 
L 694.127479 -454.326976 
L 694.126392 -450.644336 
L 694.114528 -446.961695 
L 694.095695 -443.279055 
L 694.075748 -439.596414 
L 694.06174 -435.913774 
L 694.060976 -432.231133 
L 694.080204 -428.548493 
L 694.125025 -424.865852 
L 694.19953 -421.183212 
L 694.306109 -417.500572 
L 694.445342 -413.817931 
L 694.615907 -410.135291 
L 694.814398 -406.45265 
L 695.035055 -402.77001 
L 695.269515 -399.087369 
L 695.506955 -395.404729 
L 695.735049 -391.722088 
L 695.942025 -388.039448 
L 696.119619 -384.356807 
L 696.266136 -380.674167 
L 696.388438 -376.991526 
L 696.501863 -373.308886 
L 696.627759 -369.626245 
L 696.789253 -365.943605 
L 697.006627 -362.260964 
L 697.293798 -358.578324 
L 697.656895 -354.895684 
L 698.095058 -351.213043 
L 698.602653 -347.530403 
L 699.171644 -343.847762 
L 699.792994 -340.165122 
L 700.45662 -336.482481 
L 701.150366 -332.799841 
L 701.859158 -329.1172 
L 702.5655 -325.43456 
L 703.251743 -321.751919 
L 703.903396 -318.069279 
L 704.511859 -314.386638 
L 705.075025 -310.703998 
L 705.595257 -307.021357 
L 706.07576 -303.338717 
L 706.517321 -299.656076 
L 706.917266 -295.973436 
L 707.271189 -292.290796 
L 707.576427 -288.608155 
L 707.835295 -284.925515 
L 708.056289 -281.242874 
L 708.252652 -277.560234 
L 708.439231 -273.877593 
L 708.629646 -270.194953 
L 708.835872 -266.512312 
L 709.071417 -262.829672 
L 709.35753 -259.147031 
L 709.730082 -255.464391 
L 710.243652 -251.78175 
L 710.96966 -248.09911 
L 711.987146 -244.416469 
L 713.36755 -240.733829 
L 715.157395 -237.051188 
L 717.363987 -233.368548 
L 719.948595 -229.685908 
L 722.829159 -226.003267 
L 725.89143 -222.320627 
L 729.004713 -218.637986 
L 732.03718 -214.955346 
L 734.866424 -211.272705 
L 737.383258 -207.590065 
L 739.489697 -203.907424 
L 741.094342 -200.224784 
L 742.109105 -196.542143 
L 742.450318 -192.859503 
L 742.04527 -189.176862 
L 740.843179 -185.494222 
L 738.828092 -181.811581 
L 736.030569 -178.128941 
L 732.534971 -174.4463 
L 728.479787 -170.76366 
L 724.049515 -167.081019 
L 719.458282 -163.398379 
L 714.927382 -159.715739 
L 710.660634 -156.033098 
L 706.822367 -152.350458 
L 703.52234 -148.667817 
L 700.810195 -144.985177 
L 698.679623 -141.302536 
L 697.08014 -137.619896 
L 695.932971 -133.937255 
L 695.14725 -130.254615 
L 694.633563 -126.571974 
L 694.313164 -122.889334 
L 694.12262 -119.206693 
z
" id="m331da0c5a4" style="stroke:#9dcdb8;stroke-width:1.75;"/>
    </defs>
    <g clip-path="url(#p1e870af6b9)">
     <use style="fill:#9dcdb8;stroke:#9dcdb8;stroke-width:1.75;" x="0.0" xlink:href="#m331da0c5a4" y="576.0"/>
    </g>
   </g>
   <g id="line2d_33">
    <path clip-path="url(#p1e870af6b9)" d="M 191.7 411.415983 
L 191.7 276.905855 
" style="fill:none;stroke:#1e1e1e;stroke-linecap:round;stroke-width:1.75;"/>
   </g>
   <g id="line2d_34">
    <path clip-path="url(#p1e870af6b9)" d="M 191.7 387.248592 
L 191.7 343.008814 
" style="fill:none;stroke:#1e1e1e;stroke-linecap:round;stroke-width:5.25;"/>
   </g>
   <g id="line2d_35">
    <path clip-path="url(#p1e870af6b9)" d="M 359.1 403.258473 
L 359.1 195.807066 
" style="fill:none;stroke:#1e1e1e;stroke-linecap:round;stroke-width:1.75;"/>
   </g>
   <g id="line2d_36">
    <path clip-path="url(#p1e870af6b9)" d="M 359.1 367.339257 
L 359.1 298.002813 
" style="fill:none;stroke:#1e1e1e;stroke-linecap:round;stroke-width:5.25;"/>
   </g>
   <g id="line2d_37">
    <path clip-path="url(#p1e870af6b9)" d="M 526.5 433.032463 
L 526.5 185.364138 
" style="fill:none;stroke:#1e1e1e;stroke-linecap:round;stroke-width:1.75;"/>
   </g>
   <g id="line2d_38">
    <path clip-path="url(#p1e870af6b9)" d="M 526.5 371.799284 
L 526.5 296.107316 
" style="fill:none;stroke:#1e1e1e;stroke-linecap:round;stroke-width:5.25;"/>
   </g>
   <g id="line2d_39">
    <path clip-path="url(#p1e870af6b9)" d="M 693.9 426.259934 
L 693.9 217.659475 
" style="fill:none;stroke:#1e1e1e;stroke-linecap:round;stroke-width:1.75;"/>
   </g>
   <g id="line2d_40">
    <path clip-path="url(#p1e870af6b9)" d="M 693.9 389.7956 
L 693.9 319.093423 
" style="fill:none;stroke:#1e1e1e;stroke-linecap:round;stroke-width:5.25;"/>
   </g>
   <g id="patch_3">
    <path d="M 108 504 
L 108 57.6 
" style="fill:none;"/>
   </g>
   <g id="patch_4">
    <path d="M 777.6 504 
L 777.6 57.6 
" style="fill:none;"/>
   </g>
   <g id="patch_5">
    <path d="M 108 504 
L 777.6 504 
" style="fill:none;"/>
   </g>
   <g id="patch_6">
    <path d="M 108 57.6 
L 777.6 57.6 
" style="fill:none;"/>
   </g>
   <g id="PathCollection_1">
    <defs>
     <path d="M 0 1.75 
C 0.464105 1.75 0.909265 1.565609 1.237437 1.237437 
C 1.565609 0.909265 1.75 0.464105 1.75 0 
C 1.75 -0.464105 1.565609 -0.909265 1.237437 -1.237437 
C 0.909265 -1.565609 0.464105 -1.75 0 -1.75 
C -0.464105 -1.75 -0.909265 -1.565609 -1.237437 -1.237437 
C -1.565609 -0.909265 -1.75 -0.464105 -1.75 0 
C -1.75 0.464105 -1.565609 0.909265 -1.237437 1.237437 
C -0.909265 1.565609 -0.464105 1.75 0 1.75 
z
" id="m4e5f80af9c" style="stroke:#1e1e1e;stroke-width:0.3;"/>
    </defs>
    <g clip-path="url(#p1e870af6b9)">
     <use style="fill:#ffffff;stroke:#1e1e1e;stroke-width:0.3;" x="191.7" xlink:href="#m4e5f80af9c" y="368.75689272"/>
    </g>
   </g>
   <g id="PathCollection_2">
    <g clip-path="url(#p1e870af6b9)">
     <use style="fill:#ffffff;stroke:#1e1e1e;stroke-width:0.3;" x="359.1" xlink:href="#m4e5f80af9c" y="342.381935417"/>
    </g>
   </g>
   <g id="PathCollection_3">
    <g clip-path="url(#p1e870af6b9)">
     <use style="fill:#ffffff;stroke:#1e1e1e;stroke-width:0.3;" x="526.5" xlink:href="#m4e5f80af9c" y="345.360281143"/>
    </g>
   </g>
   <g id="PathCollection_4">
    <g clip-path="url(#p1e870af6b9)">
     <use style="fill:#ffffff;stroke:#1e1e1e;stroke-width:0.3;" x="693.9" xlink:href="#m4e5f80af9c" y="366.613203394"/>
    </g>
   </g>
  </g>
 </g>
 <defs>
  <clipPath id="p1e870af6b9">
   <rect height="446.4" width="669.6" x="108.0" y="57.6"/>
  </clipPath>
 </defs>
</svg>
