<?xml version="1.0" encoding="utf-8" standalone="no"?>
<!DOCTYPE svg PUBLIC "-//W3C//DTD SVG 1.1//EN"
  "http://www.w3.org/Graphics/SVG/1.1/DTD/svg11.dtd">
<!-- Created with matplotlib (http://matplotlib.org/) -->
<svg height="576pt" version="1.1" viewBox="0 0 864 576" width="864pt" xmlns="http://www.w3.org/2000/svg" xmlns:xlink="http://www.w3.org/1999/xlink">
 <defs>
  <style type="text/css">
*{stroke-linecap:butt;stroke-linejoin:round;stroke-miterlimit:100000;}
  </style>
 </defs>
 <g id="figure_1">
  <g id="patch_1">
   <path d="M 0 576 
L 864 576 
L 864 0 
L 0 0 
z
" style="fill:#ffffff;"/>
  </g>
  <g id="axes_1">
   <g id="patch_2">
    <path d="M 108 504 
L 777.6 504 
L 777.6 57.6 
L 108 57.6 
z
" style="fill:#eaeaf2;"/>
   </g>
   <g id="matplotlib.axis_1">
    <g id="xtick_1">
     <g id="line2d_1">
      <defs>
       <path d="M 0 0 
L 0 0 
" id="m4617c1fd14" style="stroke:#262626;"/>
      </defs>
      <g>
       <use style="fill:#262626;stroke:#262626;" x="219.6" xlink:href="#m4617c1fd14" y="504.0"/>
      </g>
     </g>
     <g id="line2d_2">
      <g>
       <use style="fill:#262626;stroke:#262626;" x="219.6" xlink:href="#m4617c1fd14" y="57.6"/>
      </g>
     </g>
     <g id="text_1">
      <!-- Run 1 -->
      <defs>
       <path id="BitstreamVeraSans-Roman-20"/>
       <path d="M 44.390625 34.1875 
Q 47.5625 33.109375 50.5625 29.59375 
Q 53.5625 26.078125 56.59375 19.921875 
L 66.609375 0 
L 56 0 
L 46.6875 18.703125 
Q 43.0625 26.03125 39.671875 28.421875 
Q 36.28125 30.8125 30.421875 30.8125 
L 19.671875 30.8125 
L 19.671875 0 
L 9.8125 0 
L 9.8125 72.90625 
L 32.078125 72.90625 
Q 44.578125 72.90625 50.734375 67.671875 
Q 56.890625 62.453125 56.890625 51.90625 
Q 56.890625 45.015625 53.6875 40.46875 
Q 50.484375 35.9375 44.390625 34.1875 
M 19.671875 64.796875 
L 19.671875 38.921875 
L 32.078125 38.921875 
Q 39.203125 38.921875 42.84375 42.21875 
Q 46.484375 45.515625 46.484375 51.90625 
Q 46.484375 58.296875 42.84375 61.546875 
Q 39.203125 64.796875 32.078125 64.796875 
z
" id="BitstreamVeraSans-Roman-52"/>
       <path d="M 8.5 21.578125 
L 8.5 54.6875 
L 17.484375 54.6875 
L 17.484375 21.921875 
Q 17.484375 14.15625 20.5 10.265625 
Q 23.53125 6.390625 29.59375 6.390625 
Q 36.859375 6.390625 41.078125 11.03125 
Q 45.3125 15.671875 45.3125 23.6875 
L 45.3125 54.6875 
L 54.296875 54.6875 
L 54.296875 0 
L 45.3125 0 
L 45.3125 8.40625 
Q 42.046875 3.421875 37.71875 1 
Q 33.40625 -1.421875 27.6875 -1.421875 
Q 18.265625 -1.421875 13.375 4.4375 
Q 8.5 10.296875 8.5 21.578125 
" id="BitstreamVeraSans-Roman-75"/>
       <path d="M 12.40625 8.296875 
L 28.515625 8.296875 
L 28.515625 63.921875 
L 10.984375 60.40625 
L 10.984375 69.390625 
L 28.421875 72.90625 
L 38.28125 72.90625 
L 38.28125 8.296875 
L 54.390625 8.296875 
L 54.390625 0 
L 12.40625 0 
z
" id="BitstreamVeraSans-Roman-31"/>
       <path d="M 54.890625 33.015625 
L 54.890625 0 
L 45.90625 0 
L 45.90625 32.71875 
Q 45.90625 40.484375 42.875 44.328125 
Q 39.84375 48.1875 33.796875 48.1875 
Q 26.515625 48.1875 22.3125 43.546875 
Q 18.109375 38.921875 18.109375 30.90625 
L 18.109375 0 
L 9.078125 0 
L 9.078125 54.6875 
L 18.109375 54.6875 
L 18.109375 46.1875 
Q 21.34375 51.125 25.703125 53.5625 
Q 30.078125 56 35.796875 56 
Q 45.21875 56 50.046875 50.171875 
Q 54.890625 44.34375 54.890625 33.015625 
" id="BitstreamVeraSans-Roman-6e"/>
      </defs>
      <g style="fill:#262626;" transform="translate(183.152734375 529.99609375)scale(0.25 -0.25)">
       <use xlink:href="#BitstreamVeraSans-Roman-52"/>
       <use x="69.419921875" xlink:href="#BitstreamVeraSans-Roman-75"/>
       <use x="132.798828125" xlink:href="#BitstreamVeraSans-Roman-6e"/>
       <use x="196.177734375" xlink:href="#BitstreamVeraSans-Roman-20"/>
       <use x="227.96484375" xlink:href="#BitstreamVeraSans-Roman-31"/>
      </g>
     </g>
    </g>
    <g id="xtick_2">
     <g id="line2d_3">
      <g>
       <use style="fill:#262626;stroke:#262626;" x="442.8" xlink:href="#m4617c1fd14" y="504.0"/>
      </g>
     </g>
     <g id="line2d_4">
      <g>
       <use style="fill:#262626;stroke:#262626;" x="442.8" xlink:href="#m4617c1fd14" y="57.6"/>
      </g>
     </g>
     <g id="text_2">
      <!-- Run 2 -->
      <defs>
       <path d="M 19.1875 8.296875 
L 53.609375 8.296875 
L 53.609375 0 
L 7.328125 0 
L 7.328125 8.296875 
Q 12.9375 14.109375 22.625 23.890625 
Q 32.328125 33.6875 34.8125 36.53125 
Q 39.546875 41.84375 41.421875 45.53125 
Q 43.3125 49.21875 43.3125 52.78125 
Q 43.3125 58.59375 39.234375 62.25 
Q 35.15625 65.921875 28.609375 65.921875 
Q 23.96875 65.921875 18.8125 64.3125 
Q 13.671875 62.703125 7.8125 59.421875 
L 7.8125 69.390625 
Q 13.765625 71.78125 18.9375 73 
Q 24.125 74.21875 28.421875 74.21875 
Q 39.75 74.21875 46.484375 68.546875 
Q 53.21875 62.890625 53.21875 53.421875 
Q 53.21875 48.921875 51.53125 44.890625 
Q 49.859375 40.875 45.40625 35.40625 
Q 44.1875 33.984375 37.640625 27.21875 
Q 31.109375 20.453125 19.1875 8.296875 
" id="BitstreamVeraSans-Roman-32"/>
      </defs>
      <g style="fill:#262626;" transform="translate(406.352734375 529.99609375)scale(0.25 -0.25)">
       <use xlink:href="#BitstreamVeraSans-Roman-52"/>
       <use x="69.419921875" xlink:href="#BitstreamVeraSans-Roman-75"/>
       <use x="132.798828125" xlink:href="#BitstreamVeraSans-Roman-6e"/>
       <use x="196.177734375" xlink:href="#BitstreamVeraSans-Roman-20"/>
       <use x="227.96484375" xlink:href="#BitstreamVeraSans-Roman-32"/>
      </g>
     </g>
    </g>
    <g id="xtick_3">
     <g id="line2d_5">
      <g>
       <use style="fill:#262626;stroke:#262626;" x="666.0" xlink:href="#m4617c1fd14" y="504.0"/>
      </g>
     </g>
     <g id="line2d_6">
      <g>
       <use style="fill:#262626;stroke:#262626;" x="666.0" xlink:href="#m4617c1fd14" y="57.6"/>
      </g>
     </g>
     <g id="text_3">
      <!-- Run 3 -->
      <defs>
       <path d="M 40.578125 39.3125 
Q 47.65625 37.796875 51.625 33 
Q 55.609375 28.21875 55.609375 21.1875 
Q 55.609375 10.40625 48.1875 4.484375 
Q 40.765625 -1.421875 27.09375 -1.421875 
Q 22.515625 -1.421875 17.65625 -0.515625 
Q 12.796875 0.390625 7.625 2.203125 
L 7.625 11.71875 
Q 11.71875 9.328125 16.59375 8.109375 
Q 21.484375 6.890625 26.8125 6.890625 
Q 36.078125 6.890625 40.9375 10.546875 
Q 45.796875 14.203125 45.796875 21.1875 
Q 45.796875 27.640625 41.28125 31.265625 
Q 36.765625 34.90625 28.71875 34.90625 
L 20.21875 34.90625 
L 20.21875 43.015625 
L 29.109375 43.015625 
Q 36.375 43.015625 40.234375 45.921875 
Q 44.09375 48.828125 44.09375 54.296875 
Q 44.09375 59.90625 40.109375 62.90625 
Q 36.140625 65.921875 28.71875 65.921875 
Q 24.65625 65.921875 20.015625 65.03125 
Q 15.375 64.15625 9.8125 62.3125 
L 9.8125 71.09375 
Q 15.4375 72.65625 20.34375 73.4375 
Q 25.25 74.21875 29.59375 74.21875 
Q 40.828125 74.21875 47.359375 69.109375 
Q 53.90625 64.015625 53.90625 55.328125 
Q 53.90625 49.265625 50.4375 45.09375 
Q 46.96875 40.921875 40.578125 39.3125 
" id="BitstreamVeraSans-Roman-33"/>
      </defs>
      <g style="fill:#262626;" transform="translate(629.552734375 529.99609375)scale(0.25 -0.25)">
       <use xlink:href="#BitstreamVeraSans-Roman-52"/>
       <use x="69.419921875" xlink:href="#BitstreamVeraSans-Roman-75"/>
       <use x="132.798828125" xlink:href="#BitstreamVeraSans-Roman-6e"/>
       <use x="196.177734375" xlink:href="#BitstreamVeraSans-Roman-20"/>
       <use x="227.96484375" xlink:href="#BitstreamVeraSans-Roman-33"/>
      </g>
     </g>
    </g>
    <g id="text_4">
     <!-- Run -->
     <g style="fill:#262626;" transform="translate(415.826367188 561.091015625)scale(0.275 -0.275)">
      <use xlink:href="#BitstreamVeraSans-Roman-52"/>
      <use x="69.419921875" xlink:href="#BitstreamVeraSans-Roman-75"/>
      <use x="132.798828125" xlink:href="#BitstreamVeraSans-Roman-6e"/>
     </g>
    </g>
   </g>
   <g id="matplotlib.axis_2">
    <g id="ytick_1">
     <g id="line2d_7">
      <path clip-path="url(#p6480b03773)" d="M 108 504 
L 777.6 504 
" style="fill:none;stroke:#ffffff;stroke-linecap:round;"/>
     </g>
     <g id="line2d_8">
      <g>
       <use style="fill:#262626;stroke:#262626;" x="108.0" xlink:href="#m4617c1fd14" y="504.0"/>
      </g>
     </g>
     <g id="line2d_9">
      <g>
       <use style="fill:#262626;stroke:#262626;" x="777.6" xlink:href="#m4617c1fd14" y="504.0"/>
      </g>
     </g>
     <g id="text_5">
      <!-- −20 -->
      <defs>
       <path d="M 31.78125 66.40625 
Q 24.171875 66.40625 20.328125 58.90625 
Q 16.5 51.421875 16.5 36.375 
Q 16.5 21.390625 20.328125 13.890625 
Q 24.171875 6.390625 31.78125 6.390625 
Q 39.453125 6.390625 43.28125 13.890625 
Q 47.125 21.390625 47.125 36.375 
Q 47.125 51.421875 43.28125 58.90625 
Q 39.453125 66.40625 31.78125 66.40625 
M 31.78125 74.21875 
Q 44.046875 74.21875 50.515625 64.515625 
Q 56.984375 54.828125 56.984375 36.375 
Q 56.984375 17.96875 50.515625 8.265625 
Q 44.046875 -1.421875 31.78125 -1.421875 
Q 19.53125 -1.421875 13.0625 8.265625 
Q 6.59375 17.96875 6.59375 36.375 
Q 6.59375 54.828125 13.0625 64.515625 
Q 19.53125 74.21875 31.78125 74.21875 
" id="BitstreamVeraSans-Roman-30"/>
       <path d="M 10.59375 35.5 
L 73.1875 35.5 
L 73.1875 27.203125 
L 10.59375 27.203125 
z
" id="BitstreamVeraSans-Roman-2212"/>
      </defs>
      <g style="fill:#262626;" transform="translate(48.23828125 510.8984375)scale(0.25 -0.25)">
       <use xlink:href="#BitstreamVeraSans-Roman-2212"/>
       <use x="83.7890625" xlink:href="#BitstreamVeraSans-Roman-32"/>
       <use x="147.412109375" xlink:href="#BitstreamVeraSans-Roman-30"/>
      </g>
     </g>
    </g>
    <g id="ytick_2">
     <g id="line2d_10">
      <path clip-path="url(#p6480b03773)" d="M 108 440.228571 
L 777.6 440.228571 
" style="fill:none;stroke:#ffffff;stroke-linecap:round;"/>
     </g>
     <g id="line2d_11">
      <g>
       <use style="fill:#262626;stroke:#262626;" x="108.0" xlink:href="#m4617c1fd14" y="440.228571429"/>
      </g>
     </g>
     <g id="line2d_12">
      <g>
       <use style="fill:#262626;stroke:#262626;" x="777.6" xlink:href="#m4617c1fd14" y="440.228571429"/>
      </g>
     </g>
     <g id="text_6">
      <!-- 0 -->
      <g style="fill:#262626;" transform="translate(85.09375 447.127008929)scale(0.25 -0.25)">
       <use xlink:href="#BitstreamVeraSans-Roman-30"/>
      </g>
     </g>
    </g>
    <g id="ytick_3">
     <g id="line2d_13">
      <path clip-path="url(#p6480b03773)" d="M 108 376.457143 
L 777.6 376.457143 
" style="fill:none;stroke:#ffffff;stroke-linecap:round;"/>
     </g>
     <g id="line2d_14">
      <g>
       <use style="fill:#262626;stroke:#262626;" x="108.0" xlink:href="#m4617c1fd14" y="376.457142857"/>
      </g>
     </g>
     <g id="line2d_15">
      <g>
       <use style="fill:#262626;stroke:#262626;" x="777.6" xlink:href="#m4617c1fd14" y="376.457142857"/>
      </g>
     </g>
     <g id="text_7">
      <!-- 20 -->
      <g style="fill:#262626;" transform="translate(69.1875 383.355580357)scale(0.25 -0.25)">
       <use xlink:href="#BitstreamVeraSans-Roman-32"/>
       <use x="63.623046875" xlink:href="#BitstreamVeraSans-Roman-30"/>
      </g>
     </g>
    </g>
    <g id="ytick_4">
     <g id="line2d_16">
      <path clip-path="url(#p6480b03773)" d="M 108 312.685714 
L 777.6 312.685714 
" style="fill:none;stroke:#ffffff;stroke-linecap:round;"/>
     </g>
     <g id="line2d_17">
      <g>
       <use style="fill:#262626;stroke:#262626;" x="108.0" xlink:href="#m4617c1fd14" y="312.685714286"/>
      </g>
     </g>
     <g id="line2d_18">
      <g>
       <use style="fill:#262626;stroke:#262626;" x="777.6" xlink:href="#m4617c1fd14" y="312.685714286"/>
      </g>
     </g>
     <g id="text_8">
      <!-- 40 -->
      <defs>
       <path d="M 37.796875 64.3125 
L 12.890625 25.390625 
L 37.796875 25.390625 
z
M 35.203125 72.90625 
L 47.609375 72.90625 
L 47.609375 25.390625 
L 58.015625 25.390625 
L 58.015625 17.1875 
L 47.609375 17.1875 
L 47.609375 0 
L 37.796875 0 
L 37.796875 17.1875 
L 4.890625 17.1875 
L 4.890625 26.703125 
z
" id="BitstreamVeraSans-Roman-34"/>
      </defs>
      <g style="fill:#262626;" transform="translate(69.1875 319.584151786)scale(0.25 -0.25)">
       <use xlink:href="#BitstreamVeraSans-Roman-34"/>
       <use x="63.623046875" xlink:href="#BitstreamVeraSans-Roman-30"/>
      </g>
     </g>
    </g>
    <g id="ytick_5">
     <g id="line2d_19">
      <path clip-path="url(#p6480b03773)" d="M 108 248.914286 
L 777.6 248.914286 
" style="fill:none;stroke:#ffffff;stroke-linecap:round;"/>
     </g>
     <g id="line2d_20">
      <g>
       <use style="fill:#262626;stroke:#262626;" x="108.0" xlink:href="#m4617c1fd14" y="248.914285714"/>
      </g>
     </g>
     <g id="line2d_21">
      <g>
       <use style="fill:#262626;stroke:#262626;" x="777.6" xlink:href="#m4617c1fd14" y="248.914285714"/>
      </g>
     </g>
     <g id="text_9">
      <!-- 60 -->
      <defs>
       <path d="M 33.015625 40.375 
Q 26.375 40.375 22.484375 35.828125 
Q 18.609375 31.296875 18.609375 23.390625 
Q 18.609375 15.53125 22.484375 10.953125 
Q 26.375 6.390625 33.015625 6.390625 
Q 39.65625 6.390625 43.53125 10.953125 
Q 47.40625 15.53125 47.40625 23.390625 
Q 47.40625 31.296875 43.53125 35.828125 
Q 39.65625 40.375 33.015625 40.375 
M 52.59375 71.296875 
L 52.59375 62.3125 
Q 48.875 64.0625 45.09375 64.984375 
Q 41.3125 65.921875 37.59375 65.921875 
Q 27.828125 65.921875 22.671875 59.328125 
Q 17.53125 52.734375 16.796875 39.40625 
Q 19.671875 43.65625 24.015625 45.921875 
Q 28.375 48.1875 33.59375 48.1875 
Q 44.578125 48.1875 50.953125 41.515625 
Q 57.328125 34.859375 57.328125 23.390625 
Q 57.328125 12.15625 50.6875 5.359375 
Q 44.046875 -1.421875 33.015625 -1.421875 
Q 20.359375 -1.421875 13.671875 8.265625 
Q 6.984375 17.96875 6.984375 36.375 
Q 6.984375 53.65625 15.1875 63.9375 
Q 23.390625 74.21875 37.203125 74.21875 
Q 40.921875 74.21875 44.703125 73.484375 
Q 48.484375 72.75 52.59375 71.296875 
" id="BitstreamVeraSans-Roman-36"/>
      </defs>
      <g style="fill:#262626;" transform="translate(69.1875 255.812723214)scale(0.25 -0.25)">
       <use xlink:href="#BitstreamVeraSans-Roman-36"/>
       <use x="63.623046875" xlink:href="#BitstreamVeraSans-Roman-30"/>
      </g>
     </g>
    </g>
    <g id="ytick_6">
     <g id="line2d_22">
      <path clip-path="url(#p6480b03773)" d="M 108 185.142857 
L 777.6 185.142857 
" style="fill:none;stroke:#ffffff;stroke-linecap:round;"/>
     </g>
     <g id="line2d_23">
      <g>
       <use style="fill:#262626;stroke:#262626;" x="108.0" xlink:href="#m4617c1fd14" y="185.142857143"/>
      </g>
     </g>
     <g id="line2d_24">
      <g>
       <use style="fill:#262626;stroke:#262626;" x="777.6" xlink:href="#m4617c1fd14" y="185.142857143"/>
      </g>
     </g>
     <g id="text_10">
      <!-- 80 -->
      <defs>
       <path d="M 31.78125 34.625 
Q 24.75 34.625 20.71875 30.859375 
Q 16.703125 27.09375 16.703125 20.515625 
Q 16.703125 13.921875 20.71875 10.15625 
Q 24.75 6.390625 31.78125 6.390625 
Q 38.8125 6.390625 42.859375 10.171875 
Q 46.921875 13.96875 46.921875 20.515625 
Q 46.921875 27.09375 42.890625 30.859375 
Q 38.875 34.625 31.78125 34.625 
M 21.921875 38.8125 
Q 15.578125 40.375 12.03125 44.71875 
Q 8.5 49.078125 8.5 55.328125 
Q 8.5 64.0625 14.71875 69.140625 
Q 20.953125 74.21875 31.78125 74.21875 
Q 42.671875 74.21875 48.875 69.140625 
Q 55.078125 64.0625 55.078125 55.328125 
Q 55.078125 49.078125 51.53125 44.71875 
Q 48 40.375 41.703125 38.8125 
Q 48.828125 37.15625 52.796875 32.3125 
Q 56.78125 27.484375 56.78125 20.515625 
Q 56.78125 9.90625 50.3125 4.234375 
Q 43.84375 -1.421875 31.78125 -1.421875 
Q 19.734375 -1.421875 13.25 4.234375 
Q 6.78125 9.90625 6.78125 20.515625 
Q 6.78125 27.484375 10.78125 32.3125 
Q 14.796875 37.15625 21.921875 38.8125 
M 18.3125 54.390625 
Q 18.3125 48.734375 21.84375 45.5625 
Q 25.390625 42.390625 31.78125 42.390625 
Q 38.140625 42.390625 41.71875 45.5625 
Q 45.3125 48.734375 45.3125 54.390625 
Q 45.3125 60.0625 41.71875 63.234375 
Q 38.140625 66.40625 31.78125 66.40625 
Q 25.390625 66.40625 21.84375 63.234375 
Q 18.3125 60.0625 18.3125 54.390625 
" id="BitstreamVeraSans-Roman-38"/>
      </defs>
      <g style="fill:#262626;" transform="translate(69.1875 192.041294643)scale(0.25 -0.25)">
       <use xlink:href="#BitstreamVeraSans-Roman-38"/>
       <use x="63.623046875" xlink:href="#BitstreamVeraSans-Roman-30"/>
      </g>
     </g>
    </g>
    <g id="ytick_7">
     <g id="line2d_25">
      <path clip-path="url(#p6480b03773)" d="M 108 121.371429 
L 777.6 121.371429 
" style="fill:none;stroke:#ffffff;stroke-linecap:round;"/>
     </g>
     <g id="line2d_26">
      <g>
       <use style="fill:#262626;stroke:#262626;" x="108.0" xlink:href="#m4617c1fd14" y="121.371428571"/>
      </g>
     </g>
     <g id="line2d_27">
      <g>
       <use style="fill:#262626;stroke:#262626;" x="777.6" xlink:href="#m4617c1fd14" y="121.371428571"/>
      </g>
     </g>
     <g id="text_11">
      <!-- 100 -->
      <g style="fill:#262626;" transform="translate(53.28125 128.269866071)scale(0.25 -0.25)">
       <use xlink:href="#BitstreamVeraSans-Roman-31"/>
       <use x="63.623046875" xlink:href="#BitstreamVeraSans-Roman-30"/>
       <use x="127.24609375" xlink:href="#BitstreamVeraSans-Roman-30"/>
      </g>
     </g>
    </g>
    <g id="ytick_8">
     <g id="line2d_28">
      <path clip-path="url(#p6480b03773)" d="M 108 57.6 
L 777.6 57.6 
" style="fill:none;stroke:#ffffff;stroke-linecap:round;"/>
     </g>
     <g id="line2d_29">
      <g>
       <use style="fill:#262626;stroke:#262626;" x="108.0" xlink:href="#m4617c1fd14" y="57.6"/>
      </g>
     </g>
     <g id="line2d_30">
      <g>
       <use style="fill:#262626;stroke:#262626;" x="777.6" xlink:href="#m4617c1fd14" y="57.6"/>
      </g>
     </g>
     <g id="text_12">
      <!-- 120 -->
      <g style="fill:#262626;" transform="translate(53.28125 64.4984375)scale(0.25 -0.25)">
       <use xlink:href="#BitstreamVeraSans-Roman-31"/>
       <use x="63.623046875" xlink:href="#BitstreamVeraSans-Roman-32"/>
       <use x="127.24609375" xlink:href="#BitstreamVeraSans-Roman-30"/>
      </g>
     </g>
    </g>
    <g id="text_13">
     <!-- Phylogentic Diversity -->
     <defs>
      <path d="M 45.40625 27.984375 
Q 45.40625 37.75 41.375 43.109375 
Q 37.359375 48.484375 30.078125 48.484375 
Q 22.859375 48.484375 18.828125 43.109375 
Q 14.796875 37.75 14.796875 27.984375 
Q 14.796875 18.265625 18.828125 12.890625 
Q 22.859375 7.515625 30.078125 7.515625 
Q 37.359375 7.515625 41.375 12.890625 
Q 45.40625 18.265625 45.40625 27.984375 
M 54.390625 6.78125 
Q 54.390625 -7.171875 48.1875 -13.984375 
Q 42 -20.796875 29.203125 -20.796875 
Q 24.46875 -20.796875 20.265625 -20.09375 
Q 16.0625 -19.390625 12.109375 -17.921875 
L 12.109375 -9.1875 
Q 16.0625 -11.328125 19.921875 -12.34375 
Q 23.78125 -13.375 27.78125 -13.375 
Q 36.625 -13.375 41.015625 -8.765625 
Q 45.40625 -4.15625 45.40625 5.171875 
L 45.40625 9.625 
Q 42.625 4.78125 38.28125 2.390625 
Q 33.9375 0 27.875 0 
Q 17.828125 0 11.671875 7.65625 
Q 5.515625 15.328125 5.515625 27.984375 
Q 5.515625 40.671875 11.671875 48.328125 
Q 17.828125 56 27.875 56 
Q 33.9375 56 38.28125 53.609375 
Q 42.625 51.21875 45.40625 46.390625 
L 45.40625 54.6875 
L 54.390625 54.6875 
z
" id="BitstreamVeraSans-Roman-67"/>
      <path d="M 44.28125 53.078125 
L 44.28125 44.578125 
Q 40.484375 46.53125 36.375 47.5 
Q 32.28125 48.484375 27.875 48.484375 
Q 21.1875 48.484375 17.84375 46.4375 
Q 14.5 44.390625 14.5 40.28125 
Q 14.5 37.15625 16.890625 35.375 
Q 19.28125 33.59375 26.515625 31.984375 
L 29.59375 31.296875 
Q 39.15625 29.25 43.1875 25.515625 
Q 47.21875 21.78125 47.21875 15.09375 
Q 47.21875 7.46875 41.1875 3.015625 
Q 35.15625 -1.421875 24.609375 -1.421875 
Q 20.21875 -1.421875 15.453125 -0.5625 
Q 10.6875 0.296875 5.421875 2 
L 5.421875 11.28125 
Q 10.40625 8.6875 15.234375 7.390625 
Q 20.0625 6.109375 24.8125 6.109375 
Q 31.15625 6.109375 34.5625 8.28125 
Q 37.984375 10.453125 37.984375 14.40625 
Q 37.984375 18.0625 35.515625 20.015625 
Q 33.0625 21.96875 24.703125 23.78125 
L 21.578125 24.515625 
Q 13.234375 26.265625 9.515625 29.90625 
Q 5.8125 33.546875 5.8125 39.890625 
Q 5.8125 47.609375 11.28125 51.796875 
Q 16.75 56 26.8125 56 
Q 31.78125 56 36.171875 55.265625 
Q 40.578125 54.546875 44.28125 53.078125 
" id="BitstreamVeraSans-Roman-73"/>
      <path d="M 56.203125 29.59375 
L 56.203125 25.203125 
L 14.890625 25.203125 
Q 15.484375 15.921875 20.484375 11.0625 
Q 25.484375 6.203125 34.421875 6.203125 
Q 39.59375 6.203125 44.453125 7.46875 
Q 49.3125 8.734375 54.109375 11.28125 
L 54.109375 2.78125 
Q 49.265625 0.734375 44.1875 -0.34375 
Q 39.109375 -1.421875 33.890625 -1.421875 
Q 20.796875 -1.421875 13.15625 6.1875 
Q 5.515625 13.8125 5.515625 26.8125 
Q 5.515625 40.234375 12.765625 48.109375 
Q 20.015625 56 32.328125 56 
Q 43.359375 56 49.78125 48.890625 
Q 56.203125 41.796875 56.203125 29.59375 
M 47.21875 32.234375 
Q 47.125 39.59375 43.09375 43.984375 
Q 39.0625 48.390625 32.421875 48.390625 
Q 24.90625 48.390625 20.390625 44.140625 
Q 15.875 39.890625 15.1875 32.171875 
z
" id="BitstreamVeraSans-Roman-65"/>
      <path d="M 19.671875 64.796875 
L 19.671875 8.109375 
L 31.59375 8.109375 
Q 46.6875 8.109375 53.6875 14.9375 
Q 60.6875 21.78125 60.6875 36.53125 
Q 60.6875 51.171875 53.6875 57.984375 
Q 46.6875 64.796875 31.59375 64.796875 
z
M 9.8125 72.90625 
L 30.078125 72.90625 
Q 51.265625 72.90625 61.171875 64.09375 
Q 71.09375 55.28125 71.09375 36.53125 
Q 71.09375 17.671875 61.125 8.828125 
Q 51.171875 0 30.078125 0 
L 9.8125 0 
z
" id="BitstreamVeraSans-Roman-44"/>
      <path d="M 2.984375 54.6875 
L 12.5 54.6875 
L 29.59375 8.796875 
L 46.6875 54.6875 
L 56.203125 54.6875 
L 35.6875 0 
L 23.484375 0 
z
" id="BitstreamVeraSans-Roman-76"/>
      <path d="M 32.171875 -5.078125 
Q 28.375 -14.84375 24.75 -17.8125 
Q 21.140625 -20.796875 15.09375 -20.796875 
L 7.90625 -20.796875 
L 7.90625 -13.28125 
L 13.1875 -13.28125 
Q 16.890625 -13.28125 18.9375 -11.515625 
Q 21 -9.765625 23.484375 -3.21875 
L 25.09375 0.875 
L 2.984375 54.6875 
L 12.5 54.6875 
L 29.59375 11.921875 
L 46.6875 54.6875 
L 56.203125 54.6875 
z
" id="BitstreamVeraSans-Roman-79"/>
      <path d="M 9.421875 75.984375 
L 18.40625 75.984375 
L 18.40625 0 
L 9.421875 0 
z
" id="BitstreamVeraSans-Roman-6c"/>
      <path d="M 48.78125 52.59375 
L 48.78125 44.1875 
Q 44.96875 46.296875 41.140625 47.34375 
Q 37.3125 48.390625 33.40625 48.390625 
Q 24.65625 48.390625 19.8125 42.84375 
Q 14.984375 37.3125 14.984375 27.296875 
Q 14.984375 17.28125 19.8125 11.734375 
Q 24.65625 6.203125 33.40625 6.203125 
Q 37.3125 6.203125 41.140625 7.25 
Q 44.96875 8.296875 48.78125 10.40625 
L 48.78125 2.09375 
Q 45.015625 0.34375 40.984375 -0.53125 
Q 36.96875 -1.421875 32.421875 -1.421875 
Q 20.0625 -1.421875 12.78125 6.34375 
Q 5.515625 14.109375 5.515625 27.296875 
Q 5.515625 40.671875 12.859375 48.328125 
Q 20.21875 56 33.015625 56 
Q 37.15625 56 41.109375 55.140625 
Q 45.0625 54.296875 48.78125 52.59375 
" id="BitstreamVeraSans-Roman-63"/>
      <path d="M 54.890625 33.015625 
L 54.890625 0 
L 45.90625 0 
L 45.90625 32.71875 
Q 45.90625 40.484375 42.875 44.328125 
Q 39.84375 48.1875 33.796875 48.1875 
Q 26.515625 48.1875 22.3125 43.546875 
Q 18.109375 38.921875 18.109375 30.90625 
L 18.109375 0 
L 9.078125 0 
L 9.078125 75.984375 
L 18.109375 75.984375 
L 18.109375 46.1875 
Q 21.34375 51.125 25.703125 53.5625 
Q 30.078125 56 35.796875 56 
Q 45.21875 56 50.046875 50.171875 
Q 54.890625 44.34375 54.890625 33.015625 
" id="BitstreamVeraSans-Roman-68"/>
      <path d="M 9.421875 54.6875 
L 18.40625 54.6875 
L 18.40625 0 
L 9.421875 0 
z
M 9.421875 75.984375 
L 18.40625 75.984375 
L 18.40625 64.59375 
L 9.421875 64.59375 
z
" id="BitstreamVeraSans-Roman-69"/>
      <path d="M 30.609375 48.390625 
Q 23.390625 48.390625 19.1875 42.75 
Q 14.984375 37.109375 14.984375 27.296875 
Q 14.984375 17.484375 19.15625 11.84375 
Q 23.34375 6.203125 30.609375 6.203125 
Q 37.796875 6.203125 41.984375 11.859375 
Q 46.1875 17.53125 46.1875 27.296875 
Q 46.1875 37.015625 41.984375 42.703125 
Q 37.796875 48.390625 30.609375 48.390625 
M 30.609375 56 
Q 42.328125 56 49.015625 48.375 
Q 55.71875 40.765625 55.71875 27.296875 
Q 55.71875 13.875 49.015625 6.21875 
Q 42.328125 -1.421875 30.609375 -1.421875 
Q 18.84375 -1.421875 12.171875 6.21875 
Q 5.515625 13.875 5.515625 27.296875 
Q 5.515625 40.765625 12.171875 48.375 
Q 18.84375 56 30.609375 56 
" id="BitstreamVeraSans-Roman-6f"/>
      <path d="M 41.109375 46.296875 
Q 39.59375 47.171875 37.8125 47.578125 
Q 36.03125 48 33.890625 48 
Q 26.265625 48 22.1875 43.046875 
Q 18.109375 38.09375 18.109375 28.8125 
L 18.109375 0 
L 9.078125 0 
L 9.078125 54.6875 
L 18.109375 54.6875 
L 18.109375 46.1875 
Q 20.953125 51.171875 25.484375 53.578125 
Q 30.03125 56 36.53125 56 
Q 37.453125 56 38.578125 55.875 
Q 39.703125 55.765625 41.0625 55.515625 
z
" id="BitstreamVeraSans-Roman-72"/>
      <path d="M 18.3125 70.21875 
L 18.3125 54.6875 
L 36.8125 54.6875 
L 36.8125 47.703125 
L 18.3125 47.703125 
L 18.3125 18.015625 
Q 18.3125 11.328125 20.140625 9.421875 
Q 21.96875 7.515625 27.59375 7.515625 
L 36.8125 7.515625 
L 36.8125 0 
L 27.59375 0 
Q 17.1875 0 13.234375 3.875 
Q 9.28125 7.765625 9.28125 18.015625 
L 9.28125 47.703125 
L 2.6875 47.703125 
L 2.6875 54.6875 
L 9.28125 54.6875 
L 9.28125 70.21875 
z
" id="BitstreamVeraSans-Roman-74"/>
      <path d="M 19.671875 64.796875 
L 19.671875 37.40625 
L 32.078125 37.40625 
Q 38.96875 37.40625 42.71875 40.96875 
Q 46.484375 44.53125 46.484375 51.125 
Q 46.484375 57.671875 42.71875 61.234375 
Q 38.96875 64.796875 32.078125 64.796875 
z
M 9.8125 72.90625 
L 32.078125 72.90625 
Q 44.34375 72.90625 50.609375 67.359375 
Q 56.890625 61.8125 56.890625 51.125 
Q 56.890625 40.328125 50.609375 34.8125 
Q 44.34375 29.296875 32.078125 29.296875 
L 19.671875 29.296875 
L 19.671875 0 
L 9.8125 0 
z
" id="BitstreamVeraSans-Roman-50"/>
     </defs>
     <g style="fill:#262626;" transform="translate(37.519140625 426.391015625)rotate(-90.0)scale(0.275 -0.275)">
      <use xlink:href="#BitstreamVeraSans-Roman-50"/>
      <use x="60.302734375" xlink:href="#BitstreamVeraSans-Roman-68"/>
      <use x="123.681640625" xlink:href="#BitstreamVeraSans-Roman-79"/>
      <use x="182.861328125" xlink:href="#BitstreamVeraSans-Roman-6c"/>
      <use x="210.64453125" xlink:href="#BitstreamVeraSans-Roman-6f"/>
      <use x="271.826171875" xlink:href="#BitstreamVeraSans-Roman-67"/>
      <use x="335.302734375" xlink:href="#BitstreamVeraSans-Roman-65"/>
      <use x="396.826171875" xlink:href="#BitstreamVeraSans-Roman-6e"/>
      <use x="460.205078125" xlink:href="#BitstreamVeraSans-Roman-74"/>
      <use x="499.4140625" xlink:href="#BitstreamVeraSans-Roman-69"/>
      <use x="527.197265625" xlink:href="#BitstreamVeraSans-Roman-63"/>
      <use x="582.177734375" xlink:href="#BitstreamVeraSans-Roman-20"/>
      <use x="613.96484375" xlink:href="#BitstreamVeraSans-Roman-44"/>
      <use x="690.966796875" xlink:href="#BitstreamVeraSans-Roman-69"/>
      <use x="718.75" xlink:href="#BitstreamVeraSans-Roman-76"/>
      <use x="777.9296875" xlink:href="#BitstreamVeraSans-Roman-65"/>
      <use x="839.453125" xlink:href="#BitstreamVeraSans-Roman-72"/>
      <use x="880.56640625" xlink:href="#BitstreamVeraSans-Roman-73"/>
      <use x="932.666015625" xlink:href="#BitstreamVeraSans-Roman-69"/>
      <use x="960.44921875" xlink:href="#BitstreamVeraSans-Roman-74"/>
      <use x="999.658203125" xlink:href="#BitstreamVeraSans-Roman-79"/>
     </g>
    </g>
   </g>
   <g id="PolyCollection_1">
    <defs>
     <path d="M 219.911207 -142.771912 
L 219.288793 -142.771912 
L 218.916971 -146.003365 
L 218.189457 -149.234818 
L 216.857376 -152.466271 
L 214.57781 -155.697724 
L 210.938992 -158.929177 
L 205.534697 -162.16063 
L 198.090629 -165.392083 
L 188.617302 -168.623536 
L 177.532108 -171.854989 
L 165.679372 -175.086442 
L 154.201371 -178.317896 
L 144.275963 -181.549349 
L 136.808782 -184.780802 
L 132.205231 -188.012255 
L 130.32 -191.243708 
L 130.599443 -194.475161 
L 132.341056 -197.706614 
L 134.946408 -200.938067 
L 138.063027 -204.16952 
L 141.580157 -207.400973 
L 145.519215 -210.632426 
L 149.9008 -213.863879 
L 154.660415 -217.095332 
L 159.640519 -220.326785 
L 164.639356 -223.558238 
L 169.47334 -226.789691 
L 174.015504 -230.021144 
L 178.196457 -233.252597 
L 181.979122 -236.48405 
L 185.331689 -239.715503 
L 188.219782 -242.946956 
L 190.622818 -246.178409 
L 192.561434 -249.409862 
L 194.114594 -252.641315 
L 195.411733 -255.872768 
L 196.601718 -259.104221 
L 197.814472 -262.335674 
L 199.133476 -265.567127 
L 200.588172 -268.79858 
L 202.162649 -272.030033 
L 203.810214 -275.261487 
L 205.465658 -278.49294 
L 207.054226 -281.724393 
L 208.501612 -284.955846 
L 209.748409 -288.187299 
L 210.76688 -291.418752 
L 211.572349 -294.650205 
L 212.220958 -297.881658 
L 212.79105 -301.113111 
L 213.35426 -304.344564 
L 213.949021 -307.576017 
L 214.56921 -310.80747 
L 215.173221 -314.038923 
L 215.70792 -317.270376 
L 216.134128 -320.501829 
L 216.440384 -323.733282 
L 216.639784 -326.964735 
L 216.755363 -330.196188 
L 216.805847 -333.427641 
L 216.801561 -336.659094 
L 216.751772 -339.890547 
L 216.676015 -343.122 
L 216.609138 -346.353453 
L 216.594593 -349.584906 
L 216.669055 -352.816359 
L 216.847642 -356.047812 
L 217.118518 -359.279265 
L 217.44942 -362.510718 
L 217.801426 -365.742171 
L 218.141941 -368.973625 
L 218.451068 -372.205078 
L 218.720632 -375.436531 
L 218.949287 -378.667984 
L 219.137965 -381.899437 
L 219.287937 -385.13089 
L 219.401176 -388.362343 
L 219.481318 -391.593796 
L 219.533877 -394.825249 
L 219.565362 -398.056702 
L 219.581856 -401.288155 
L 219.587676 -404.519608 
L 219.584463 -407.751061 
L 219.570769 -410.982514 
L 219.542193 -414.213967 
L 219.492408 -417.44542 
L 219.415479 -420.676873 
L 219.309455 -423.908326 
L 219.180212 -427.139779 
L 219.043502 -430.371232 
L 218.923117 -433.602685 
L 218.844584 -436.834138 
L 218.826459 -440.065591 
L 218.873216 -443.297044 
L 218.973456 -446.528497 
L 219.104417 -449.75995 
L 219.240338 -452.991403 
L 219.360517 -456.222856 
L 219.4537 -459.454309 
L 219.518004 -462.685763 
L 219.681996 -462.685763 
L 219.681996 -462.685763 
L 219.7463 -459.454309 
L 219.839483 -456.222856 
L 219.959662 -452.991403 
L 220.095583 -449.75995 
L 220.226544 -446.528497 
L 220.326784 -443.297044 
L 220.373541 -440.065591 
L 220.355416 -436.834138 
L 220.276883 -433.602685 
L 220.156498 -430.371232 
L 220.019788 -427.139779 
L 219.890545 -423.908326 
L 219.784521 -420.676873 
L 219.707592 -417.44542 
L 219.657807 -414.213967 
L 219.629231 -410.982514 
L 219.615537 -407.751061 
L 219.612324 -404.519608 
L 219.618144 -401.288155 
L 219.634638 -398.056702 
L 219.666123 -394.825249 
L 219.718682 -391.593796 
L 219.798824 -388.362343 
L 219.912063 -385.13089 
L 220.062035 -381.899437 
L 220.250713 -378.667984 
L 220.479368 -375.436531 
L 220.748932 -372.205078 
L 221.058059 -368.973625 
L 221.398574 -365.742171 
L 221.75058 -362.510718 
L 222.081482 -359.279265 
L 222.352358 -356.047812 
L 222.530945 -352.816359 
L 222.605407 -349.584906 
L 222.590862 -346.353453 
L 222.523985 -343.122 
L 222.448228 -339.890547 
L 222.398439 -336.659094 
L 222.394153 -333.427641 
L 222.444637 -330.196188 
L 222.560216 -326.964735 
L 222.759616 -323.733282 
L 223.065872 -320.501829 
L 223.49208 -317.270376 
L 224.026779 -314.038923 
L 224.63079 -310.80747 
L 225.250979 -307.576017 
L 225.84574 -304.344564 
L 226.40895 -301.113111 
L 226.979042 -297.881658 
L 227.627651 -294.650205 
L 228.43312 -291.418752 
L 229.451591 -288.187299 
L 230.698388 -284.955846 
L 232.145774 -281.724393 
L 233.734342 -278.49294 
L 235.389786 -275.261487 
L 237.037351 -272.030033 
L 238.611828 -268.79858 
L 240.066524 -265.567127 
L 241.385528 -262.335674 
L 242.598282 -259.104221 
L 243.788267 -255.872768 
L 245.085406 -252.641315 
L 246.638566 -249.409862 
L 248.577182 -246.178409 
L 250.980218 -242.946956 
L 253.868311 -239.715503 
L 257.220878 -236.48405 
L 261.003543 -233.252597 
L 265.184496 -230.021144 
L 269.72666 -226.789691 
L 274.560644 -223.558238 
L 279.559481 -220.326785 
L 284.539585 -217.095332 
L 289.2992 -213.863879 
L 293.680785 -210.632426 
L 297.619843 -207.400973 
L 301.136973 -204.16952 
L 304.253592 -200.938067 
L 306.858944 -197.706614 
L 308.600557 -194.475161 
L 308.88 -191.243708 
L 306.994769 -188.012255 
L 302.391218 -184.780802 
L 294.924037 -181.549349 
L 284.998629 -178.317896 
L 273.520628 -175.086442 
L 261.667892 -171.854989 
L 250.582698 -168.623536 
L 241.109371 -165.392083 
L 233.665303 -162.16063 
L 228.261008 -158.929177 
L 224.62219 -155.697724 
L 222.342624 -152.466271 
L 221.010543 -149.234818 
L 220.283029 -146.003365 
L 219.911207 -142.771912 
z
" id="m964b24b209" style="stroke:#142452;stroke-width:1.75;"/>
    </defs>
    <g clip-path="url(#p6480b03773)">
     <use style="fill:#142452;stroke:#142452;stroke-width:1.75;" x="0.0" xlink:href="#m964b24b209" y="576.0"/>
    </g>
   </g>
   <g id="PolyCollection_2">
    <defs>
     <path d="M 442.836967 -112.874934 
L 442.763033 -112.874934 
L 442.741302 -116.263638 
L 442.710064 -119.652342 
L 442.666302 -123.041046 
L 442.605863 -126.42975 
L 442.522532 -129.818454 
L 442.406616 -133.207158 
L 442.243058 -136.595862 
L 442.009228 -139.984566 
L 441.672674 -143.37327 
L 441.189148 -146.761974 
L 440.501327 -150.150678 
L 439.538729 -153.539382 
L 438.21955 -156.928086 
L 436.455316 -160.31679 
L 434.159232 -163.705494 
L 431.258595 -167.094198 
L 427.710537 -170.482902 
L 423.518841 -173.871606 
L 418.748107 -177.26031 
L 413.530964 -180.649014 
L 408.064738 -184.037718 
L 402.596159 -187.426422 
L 397.395692 -190.815125 
L 392.72594 -194.203829 
L 388.810295 -197.592533 
L 385.807994 -200.981237 
L 383.80004 -204.369941 
L 382.787687 -207.758645 
L 382.702321 -211.147349 
L 383.423349 -214.536053 
L 384.799735 -217.924757 
L 386.671008 -221.313461 
L 388.884568 -224.702165 
L 391.307531 -228.090869 
L 393.832598 -231.479573 
L 396.378496 -234.868277 
L 398.88635 -238.256981 
L 401.313865 -241.645685 
L 403.629424 -245.034389 
L 405.807976 -248.423093 
L 407.829835 -251.811797 
L 409.682343 -255.200501 
L 411.363262 -258.589205 
L 412.883931 -261.977909 
L 414.270141 -265.366613 
L 415.559338 -268.755317 
L 416.793978 -272.14402 
L 418.012359 -275.532724 
L 419.239452 -278.921428 
L 420.480623 -282.310132 
L 421.720481 -285.698836 
L 422.927387 -289.08754 
L 424.062173 -292.476244 
L 425.088147 -295.864948 
L 425.979218 -299.253652 
L 426.723973 -302.642356 
L 427.325371 -306.03106 
L 427.797275 -309.419764 
L 428.15976 -312.808468 
L 428.434786 -316.197172 
L 428.642879 -319.585876 
L 428.800726 -322.97458 
L 428.919444 -326.363284 
L 429.003778 -329.751988 
L 429.052993 -333.140692 
L 429.064201 -336.529396 
L 429.037944 -339.9181 
L 428.984554 -343.306804 
L 428.928761 -346.695508 
L 428.910094 -350.084212 
L 428.977935 -353.472916 
L 429.182131 -356.861619 
L 429.561976 -360.250323 
L 430.137042 -363.639027 
L 430.902664 -367.027731 
L 431.831084 -370.416435 
L 432.877323 -373.805139 
L 433.987524 -377.193843 
L 435.107332 -380.582547 
L 436.188519 -383.971251 
L 437.193144 -387.359955 
L 438.095417 -390.748659 
L 438.881816 -394.137363 
L 439.550013 -397.526067 
L 440.106918 -400.914771 
L 440.566055 -404.303475 
L 440.944493 -407.692179 
L 441.259771 -411.080883 
L 441.527298 -414.469587 
L 441.758704 -417.858291 
L 441.961343 -421.246995 
L 442.138849 -424.635699 
L 442.292366 -428.024403 
L 442.421971 -431.413107 
L 442.527875 -434.801811 
L 442.611146 -438.190514 
L 442.673907 -441.579218 
L 442.71914 -444.967922 
L 442.750265 -448.356626 
L 442.849735 -448.356626 
L 442.849735 -448.356626 
L 442.88086 -444.967922 
L 442.926093 -441.579218 
L 442.988854 -438.190514 
L 443.072125 -434.801811 
L 443.178029 -431.413107 
L 443.307634 -428.024403 
L 443.461151 -424.635699 
L 443.638657 -421.246995 
L 443.841296 -417.858291 
L 444.072702 -414.469587 
L 444.340229 -411.080883 
L 444.655507 -407.692179 
L 445.033945 -404.303475 
L 445.493082 -400.914771 
L 446.049987 -397.526067 
L 446.718184 -394.137363 
L 447.504583 -390.748659 
L 448.406856 -387.359955 
L 449.411481 -383.971251 
L 450.492668 -380.582547 
L 451.612476 -377.193843 
L 452.722677 -373.805139 
L 453.768916 -370.416435 
L 454.697336 -367.027731 
L 455.462958 -363.639027 
L 456.038024 -360.250323 
L 456.417869 -356.861619 
L 456.622065 -353.472916 
L 456.689906 -350.084212 
L 456.671239 -346.695508 
L 456.615446 -343.306804 
L 456.562056 -339.9181 
L 456.535799 -336.529396 
L 456.547007 -333.140692 
L 456.596222 -329.751988 
L 456.680556 -326.363284 
L 456.799274 -322.97458 
L 456.957121 -319.585876 
L 457.165214 -316.197172 
L 457.44024 -312.808468 
L 457.802725 -309.419764 
L 458.274629 -306.03106 
L 458.876027 -302.642356 
L 459.620782 -299.253652 
L 460.511853 -295.864948 
L 461.537827 -292.476244 
L 462.672613 -289.08754 
L 463.879519 -285.698836 
L 465.119377 -282.310132 
L 466.360548 -278.921428 
L 467.587641 -275.532724 
L 468.806022 -272.14402 
L 470.040662 -268.755317 
L 471.329859 -265.366613 
L 472.716069 -261.977909 
L 474.236738 -258.589205 
L 475.917657 -255.200501 
L 477.770165 -251.811797 
L 479.792024 -248.423093 
L 481.970576 -245.034389 
L 484.286135 -241.645685 
L 486.71365 -238.256981 
L 489.221504 -234.868277 
L 491.767402 -231.479573 
L 494.292469 -228.090869 
L 496.715432 -224.702165 
L 498.928992 -221.313461 
L 500.800265 -217.924757 
L 502.176651 -214.536053 
L 502.897679 -211.147349 
L 502.812313 -207.758645 
L 501.79996 -204.369941 
L 499.792006 -200.981237 
L 496.789705 -197.592533 
L 492.87406 -194.203829 
L 488.204308 -190.815125 
L 483.003841 -187.426422 
L 477.535262 -184.037718 
L 472.069036 -180.649014 
L 466.851893 -177.26031 
L 462.081159 -173.871606 
L 457.889463 -170.482902 
L 454.341405 -167.094198 
L 451.440768 -163.705494 
L 449.144684 -160.31679 
L 447.38045 -156.928086 
L 446.061271 -153.539382 
L 445.098673 -150.150678 
L 444.410852 -146.761974 
L 443.927326 -143.37327 
L 443.590772 -139.984566 
L 443.356942 -136.595862 
L 443.193384 -133.207158 
L 443.077468 -129.818454 
L 442.994137 -126.42975 
L 442.933698 -123.041046 
L 442.889936 -119.652342 
L 442.858698 -116.263638 
L 442.836967 -112.874934 
z
" id="m5dbb9f8b3d" style="stroke:#f9fadb;stroke-width:1.75;"/>
    </defs>
    <g clip-path="url(#p6480b03773)">
     <use style="fill:#f9fadb;stroke:#f9fadb;stroke-width:1.75;" x="0.0" xlink:href="#m5dbb9f8b3d" y="576.0"/>
    </g>
   </g>
   <g id="PolyCollection_3">
    <defs>
     <path d="M 666.296827 -119.206693 
L 665.703173 -119.206693 
L 665.449115 -122.889334 
L 665.021916 -126.571974 
L 664.337 -130.254615 
L 663.289372 -133.937255 
L 661.759813 -137.619896 
L 659.62717 -141.302536 
L 656.786407 -144.985177 
L 653.170214 -148.667817 
L 648.770178 -152.350458 
L 643.652488 -156.033098 
L 637.963491 -159.715739 
L 631.92229 -163.398379 
L 625.800647 -167.081019 
L 619.893617 -170.76366 
L 614.486705 -174.4463 
L 609.825908 -178.128941 
L 606.095877 -181.811581 
L 603.409095 -185.494222 
L 601.806306 -189.176862 
L 601.266242 -192.859503 
L 601.721193 -196.542143 
L 603.07421 -200.224784 
L 605.213737 -203.907424 
L 608.022323 -207.590065 
L 611.378102 -211.272705 
L 615.150427 -214.955346 
L 619.193717 -218.637986 
L 623.34476 -222.320627 
L 627.427788 -226.003267 
L 631.26854 -229.685908 
L 634.714684 -233.368548 
L 637.656807 -237.051188 
L 640.043267 -240.733829 
L 641.883806 -244.416469 
L 643.240453 -248.09911 
L 644.208464 -251.78175 
L 644.893225 -255.464391 
L 645.389959 -259.147031 
L 645.771444 -262.829672 
L 646.085504 -266.512312 
L 646.360472 -270.194953 
L 646.614359 -273.877593 
L 646.863131 -277.560234 
L 647.124948 -281.242874 
L 647.419607 -284.925515 
L 647.764764 -288.608155 
L 648.171748 -292.290796 
L 648.643646 -295.973436 
L 649.176906 -299.656076 
L 649.765653 -303.338717 
L 650.406324 -307.021357 
L 651.099967 -310.703998 
L 651.850854 -314.386638 
L 652.662138 -318.069279 
L 653.53101 -321.751919 
L 654.446001 -325.43456 
L 655.387789 -329.1172 
L 656.332845 -332.799841 
L 657.25784 -336.482481 
L 658.142674 -340.165122 
L 658.971142 -343.847762 
L 659.729797 -347.530403 
L 660.406589 -351.213043 
L 660.990807 -354.895684 
L 661.474936 -358.578324 
L 661.85783 -362.260964 
L 662.147663 -365.943605 
L 662.362988 -369.626245 
L 662.530849 -373.308886 
L 662.682082 -376.991526 
L 662.845151 -380.674167 
L 663.040508 -384.356807 
L 663.277301 -388.039448 
L 663.553268 -391.722088 
L 663.857393 -395.404729 
L 664.17398 -399.087369 
L 664.486594 -402.77001 
L 664.780802 -406.45265 
L 665.045458 -410.135291 
L 665.272877 -413.817931 
L 665.458521 -417.500572 
L 665.600626 -421.183212 
L 665.699967 -424.865852 
L 665.759728 -428.548493 
L 665.785365 -432.231133 
L 665.784347 -435.913774 
L 665.765669 -439.596414 
L 665.739074 -443.279055 
L 665.713962 -446.961695 
L 665.698144 -450.644336 
L 665.696695 -454.326976 
L 665.711288 -458.009617 
L 665.740242 -461.692257 
L 665.779325 -465.374898 
L 665.823061 -469.057538 
L 665.866127 -472.740179 
L 665.90443 -476.422819 
L 665.935628 -480.10546 
L 665.959092 -483.7881 
L 666.040908 -483.7881 
L 666.040908 -483.7881 
L 666.064372 -480.10546 
L 666.09557 -476.422819 
L 666.133873 -472.740179 
L 666.176939 -469.057538 
L 666.220675 -465.374898 
L 666.259758 -461.692257 
L 666.288712 -458.009617 
L 666.303305 -454.326976 
L 666.301856 -450.644336 
L 666.286038 -446.961695 
L 666.260926 -443.279055 
L 666.234331 -439.596414 
L 666.215653 -435.913774 
L 666.214635 -432.231133 
L 666.240272 -428.548493 
L 666.300033 -424.865852 
L 666.399374 -421.183212 
L 666.541479 -417.500572 
L 666.727123 -413.817931 
L 666.954542 -410.135291 
L 667.219198 -406.45265 
L 667.513406 -402.77001 
L 667.82602 -399.087369 
L 668.142607 -395.404729 
L 668.446732 -391.722088 
L 668.722699 -388.039448 
L 668.959492 -384.356807 
L 669.154849 -380.674167 
L 669.317918 -376.991526 
L 669.469151 -373.308886 
L 669.637012 -369.626245 
L 669.852337 -365.943605 
L 670.14217 -362.260964 
L 670.525064 -358.578324 
L 671.009193 -354.895684 
L 671.593411 -351.213043 
L 672.270203 -347.530403 
L 673.028858 -343.847762 
L 673.857326 -340.165122 
L 674.74216 -336.482481 
L 675.667155 -332.799841 
L 676.612211 -329.1172 
L 677.553999 -325.43456 
L 678.46899 -321.751919 
L 679.337862 -318.069279 
L 680.149146 -314.386638 
L 680.900033 -310.703998 
L 681.593676 -307.021357 
L 682.234347 -303.338717 
L 682.823094 -299.656076 
L 683.356354 -295.973436 
L 683.828252 -292.290796 
L 684.235236 -288.608155 
L 684.580393 -284.925515 
L 684.875052 -281.242874 
L 685.136869 -277.560234 
L 685.385641 -273.877593 
L 685.639528 -270.194953 
L 685.914496 -266.512312 
L 686.228556 -262.829672 
L 686.610041 -259.147031 
L 687.106775 -255.464391 
L 687.791536 -251.78175 
L 688.759547 -248.09911 
L 690.116194 -244.416469 
L 691.956733 -240.733829 
L 694.343193 -237.051188 
L 697.285316 -233.368548 
L 700.73146 -229.685908 
L 704.572212 -226.003267 
L 708.65524 -222.320627 
L 712.806283 -218.637986 
L 716.849573 -214.955346 
L 720.621898 -211.272705 
L 723.977677 -207.590065 
L 726.786263 -203.907424 
L 728.92579 -200.224784 
L 730.278807 -196.542143 
L 730.733758 -192.859503 
L 730.193694 -189.176862 
L 728.590905 -185.494222 
L 725.904123 -181.811581 
L 722.174092 -178.128941 
L 717.513295 -174.4463 
L 712.106383 -170.76366 
L 706.199353 -167.081019 
L 700.07771 -163.398379 
L 694.036509 -159.715739 
L 688.347512 -156.033098 
L 683.229822 -152.350458 
L 678.829786 -148.667817 
L 675.213593 -144.985177 
L 672.37283 -141.302536 
L 670.240187 -137.619896 
L 668.710628 -133.937255 
L 667.663 -130.254615 
L 666.978084 -126.571974 
L 666.550885 -122.889334 
L 666.296827 -119.206693 
z
" id="me38923361d" style="stroke:#327ca5;stroke-width:1.75;"/>
    </defs>
    <g clip-path="url(#p6480b03773)">
     <use style="fill:#327ca5;stroke:#327ca5;stroke-width:1.75;" x="0.0" xlink:href="#me38923361d" y="576.0"/>
    </g>
   </g>
   <g id="line2d_31">
    <path clip-path="url(#p6480b03773)" d="M 219.6 411.415983 
L 219.6 276.905855 
" style="fill:none;stroke:#1e1e1e;stroke-linecap:round;stroke-width:1.75;"/>
   </g>
   <g id="line2d_32">
    <path clip-path="url(#p6480b03773)" d="M 219.6 387.248592 
L 219.6 343.008814 
" style="fill:none;stroke:#1e1e1e;stroke-linecap:round;stroke-width:5.25;"/>
   </g>
   <g id="line2d_33">
    <path clip-path="url(#p6480b03773)" d="M 442.8 433.032463 
L 442.8 185.968755 
" style="fill:none;stroke:#1e1e1e;stroke-linecap:round;stroke-width:1.75;"/>
   </g>
   <g id="line2d_34">
    <path clip-path="url(#p6480b03773)" d="M 442.8 369.973859 
L 442.8 296.205446 
" style="fill:none;stroke:#1e1e1e;stroke-linecap:round;stroke-width:5.25;"/>
   </g>
   <g id="line2d_35">
    <path clip-path="url(#p6480b03773)" d="M 666 426.259934 
L 666 217.659475 
" style="fill:none;stroke:#1e1e1e;stroke-linecap:round;stroke-width:1.75;"/>
   </g>
   <g id="line2d_36">
    <path clip-path="url(#p6480b03773)" d="M 666 389.7956 
L 666 319.093423 
" style="fill:none;stroke:#1e1e1e;stroke-linecap:round;stroke-width:5.25;"/>
   </g>
   <g id="patch_3">
    <path d="M 108 504 
L 108 57.6 
" style="fill:none;"/>
   </g>
   <g id="patch_4">
    <path d="M 777.6 504 
L 777.6 57.6 
" style="fill:none;"/>
   </g>
   <g id="patch_5">
    <path d="M 108 504 
L 777.6 504 
" style="fill:none;"/>
   </g>
   <g id="patch_6">
    <path d="M 108 57.6 
L 777.6 57.6 
" style="fill:none;"/>
   </g>
   <g id="PathCollection_1">
    <defs>
     <path d="M 0 1.75 
C 0.464105 1.75 0.909265 1.565609 1.237437 1.237437 
C 1.565609 0.909265 1.75 0.464105 1.75 0 
C 1.75 -0.464105 1.565609 -0.909265 1.237437 -1.237437 
C 0.909265 -1.565609 0.464105 -1.75 0 -1.75 
C -0.464105 -1.75 -0.909265 -1.565609 -1.237437 -1.237437 
C -1.565609 -0.909265 -1.75 -0.464105 -1.75 0 
C -1.75 0.464105 -1.565609 0.909265 -1.237437 1.237437 
C -0.909265 1.565609 -0.464105 1.75 0 1.75 
z
" id="m3375a6ccbb" style="stroke:#1e1e1e;stroke-width:0.3;"/>
    </defs>
    <g clip-path="url(#p6480b03773)">
     <use style="fill:#ffffff;stroke:#1e1e1e;stroke-width:0.3;" x="219.6" xlink:href="#m3375a6ccbb" y="368.75689272"/>
    </g>
   </g>
   <g id="PathCollection_2">
    <g clip-path="url(#p6480b03773)">
     <use style="fill:#ffffff;stroke:#1e1e1e;stroke-width:0.3;" x="442.8" xlink:href="#m3375a6ccbb" y="343.763814446"/>
    </g>
   </g>
   <g id="PathCollection_3">
    <g clip-path="url(#p6480b03773)">
     <use style="fill:#ffffff;stroke:#1e1e1e;stroke-width:0.3;" x="666.0" xlink:href="#m3375a6ccbb" y="366.613203394"/>
    </g>
   </g>
  </g>
 </g>
 <defs>
  <clipPath id="p6480b03773">
   <rect height="446.4" width="669.6" x="108.0" y="57.6"/>
  </clipPath>
 </defs>
</svg>
