<?xml version="1.0" encoding="utf-8" standalone="no"?>
<!DOCTYPE svg PUBLIC "-//W3C//DTD SVG 1.1//EN"
  "http://www.w3.org/Graphics/SVG/1.1/DTD/svg11.dtd">
<!-- Created with matplotlib (http://matplotlib.org/) -->
<svg height="720pt" version="1.1" viewBox="0 0 864 720" width="864pt" xmlns="http://www.w3.org/2000/svg" xmlns:xlink="http://www.w3.org/1999/xlink">
 <defs>
  <style type="text/css">
*{stroke-linecap:butt;stroke-linejoin:round;stroke-miterlimit:100000;}
  </style>
 </defs>
 <g id="figure_1">
  <g id="patch_1">
   <path d="M 0 720 
L 864 720 
L 864 0 
L 0 0 
z
" style="fill:#ffffff;"/>
  </g>
  <g id="axes_1">
   <g id="patch_2">
    <path d="M 108 630 
L 777.6 630 
L 777.6 72 
L 108 72 
z
" style="fill:#eaeaf2;"/>
   </g>
   <g id="matplotlib.axis_1">
    <g id="xtick_1">
     <g id="line2d_1">
      <path clip-path="url(#p577129629d)" d="M 108 630 
L 108 72 
" style="fill:none;stroke:#ffffff;stroke-linecap:round;"/>
     </g>
     <g id="line2d_2">
      <defs>
       <path d="M 0 0 
L 0 0 
" id="m81d5f9fdde" style="stroke:#262626;"/>
      </defs>
      <g>
       <use style="fill:#262626;stroke:#262626;" x="108.0" xlink:href="#m81d5f9fdde" y="630.0"/>
      </g>
     </g>
     <g id="line2d_3">
      <g>
       <use style="fill:#262626;stroke:#262626;" x="108.0" xlink:href="#m81d5f9fdde" y="72.0"/>
      </g>
     </g>
    </g>
    <g id="xtick_2">
     <g id="line2d_4">
      <path clip-path="url(#p577129629d)" d="M 203.657143 630 
L 203.657143 72 
" style="fill:none;stroke:#ffffff;stroke-linecap:round;"/>
     </g>
     <g id="line2d_5">
      <g>
       <use style="fill:#262626;stroke:#262626;" x="203.657142857" xlink:href="#m81d5f9fdde" y="630.0"/>
      </g>
     </g>
     <g id="line2d_6">
      <g>
       <use style="fill:#262626;stroke:#262626;" x="203.657142857" xlink:href="#m81d5f9fdde" y="72.0"/>
      </g>
     </g>
    </g>
    <g id="xtick_3">
     <g id="line2d_7">
      <path clip-path="url(#p577129629d)" d="M 299.314286 630 
L 299.314286 72 
" style="fill:none;stroke:#ffffff;stroke-linecap:round;"/>
     </g>
     <g id="line2d_8">
      <g>
       <use style="fill:#262626;stroke:#262626;" x="299.314285714" xlink:href="#m81d5f9fdde" y="630.0"/>
      </g>
     </g>
     <g id="line2d_9">
      <g>
       <use style="fill:#262626;stroke:#262626;" x="299.314285714" xlink:href="#m81d5f9fdde" y="72.0"/>
      </g>
     </g>
    </g>
    <g id="xtick_4">
     <g id="line2d_10">
      <path clip-path="url(#p577129629d)" d="M 394.971429 630 
L 394.971429 72 
" style="fill:none;stroke:#ffffff;stroke-linecap:round;"/>
     </g>
     <g id="line2d_11">
      <g>
       <use style="fill:#262626;stroke:#262626;" x="394.971428571" xlink:href="#m81d5f9fdde" y="630.0"/>
      </g>
     </g>
     <g id="line2d_12">
      <g>
       <use style="fill:#262626;stroke:#262626;" x="394.971428571" xlink:href="#m81d5f9fdde" y="72.0"/>
      </g>
     </g>
    </g>
    <g id="xtick_5">
     <g id="line2d_13">
      <path clip-path="url(#p577129629d)" d="M 490.628571 630 
L 490.628571 72 
" style="fill:none;stroke:#ffffff;stroke-linecap:round;"/>
     </g>
     <g id="line2d_14">
      <g>
       <use style="fill:#262626;stroke:#262626;" x="490.628571429" xlink:href="#m81d5f9fdde" y="630.0"/>
      </g>
     </g>
     <g id="line2d_15">
      <g>
       <use style="fill:#262626;stroke:#262626;" x="490.628571429" xlink:href="#m81d5f9fdde" y="72.0"/>
      </g>
     </g>
    </g>
    <g id="xtick_6">
     <g id="line2d_16">
      <path clip-path="url(#p577129629d)" d="M 586.285714 630 
L 586.285714 72 
" style="fill:none;stroke:#ffffff;stroke-linecap:round;"/>
     </g>
     <g id="line2d_17">
      <g>
       <use style="fill:#262626;stroke:#262626;" x="586.285714286" xlink:href="#m81d5f9fdde" y="630.0"/>
      </g>
     </g>
     <g id="line2d_18">
      <g>
       <use style="fill:#262626;stroke:#262626;" x="586.285714286" xlink:href="#m81d5f9fdde" y="72.0"/>
      </g>
     </g>
    </g>
    <g id="xtick_7">
     <g id="line2d_19">
      <path clip-path="url(#p577129629d)" d="M 681.942857 630 
L 681.942857 72 
" style="fill:none;stroke:#ffffff;stroke-linecap:round;"/>
     </g>
     <g id="line2d_20">
      <g>
       <use style="fill:#262626;stroke:#262626;" x="681.942857143" xlink:href="#m81d5f9fdde" y="630.0"/>
      </g>
     </g>
     <g id="line2d_21">
      <g>
       <use style="fill:#262626;stroke:#262626;" x="681.942857143" xlink:href="#m81d5f9fdde" y="72.0"/>
      </g>
     </g>
    </g>
    <g id="xtick_8">
     <g id="line2d_22">
      <path clip-path="url(#p577129629d)" d="M 777.6 630 
L 777.6 72 
" style="fill:none;stroke:#ffffff;stroke-linecap:round;"/>
     </g>
     <g id="line2d_23">
      <g>
       <use style="fill:#262626;stroke:#262626;" x="777.6" xlink:href="#m81d5f9fdde" y="630.0"/>
      </g>
     </g>
     <g id="line2d_24">
      <g>
       <use style="fill:#262626;stroke:#262626;" x="777.6" xlink:href="#m81d5f9fdde" y="72.0"/>
      </g>
     </g>
    </g>
    <g id="text_1">
     <!-- PC1 (7.363%) -->
     <defs>
      <path d="M 10.6875 12.40625 
L 21 12.40625 
L 21 0 
L 10.6875 0 
z
" id="BitstreamVeraSans-Roman-2e"/>
      <path d="M 64.40625 67.28125 
L 64.40625 56.890625 
Q 59.421875 61.53125 53.78125 63.8125 
Q 48.140625 66.109375 41.796875 66.109375 
Q 29.296875 66.109375 22.65625 58.46875 
Q 16.015625 50.828125 16.015625 36.375 
Q 16.015625 21.96875 22.65625 14.328125 
Q 29.296875 6.6875 41.796875 6.6875 
Q 48.140625 6.6875 53.78125 8.984375 
Q 59.421875 11.28125 64.40625 15.921875 
L 64.40625 5.609375 
Q 59.234375 2.09375 53.4375 0.328125 
Q 47.65625 -1.421875 41.21875 -1.421875 
Q 24.65625 -1.421875 15.125 8.703125 
Q 5.609375 18.84375 5.609375 36.375 
Q 5.609375 53.953125 15.125 64.078125 
Q 24.65625 74.21875 41.21875 74.21875 
Q 47.75 74.21875 53.53125 72.484375 
Q 59.328125 70.75 64.40625 67.28125 
" id="BitstreamVeraSans-Roman-43"/>
      <path d="M 72.703125 32.078125 
Q 68.453125 32.078125 66.03125 28.46875 
Q 63.625 24.859375 63.625 18.40625 
Q 63.625 12.0625 66.03125 8.421875 
Q 68.453125 4.78125 72.703125 4.78125 
Q 76.859375 4.78125 79.265625 8.421875 
Q 81.6875 12.0625 81.6875 18.40625 
Q 81.6875 24.8125 79.265625 28.4375 
Q 76.859375 32.078125 72.703125 32.078125 
M 72.703125 38.28125 
Q 80.421875 38.28125 84.953125 32.90625 
Q 89.5 27.546875 89.5 18.40625 
Q 89.5 9.28125 84.9375 3.921875 
Q 80.375 -1.421875 72.703125 -1.421875 
Q 64.890625 -1.421875 60.34375 3.921875 
Q 55.8125 9.28125 55.8125 18.40625 
Q 55.8125 27.59375 60.375 32.9375 
Q 64.9375 38.28125 72.703125 38.28125 
M 22.3125 68.015625 
Q 18.109375 68.015625 15.6875 64.375 
Q 13.28125 60.75 13.28125 54.390625 
Q 13.28125 47.953125 15.671875 44.328125 
Q 18.0625 40.71875 22.3125 40.71875 
Q 26.5625 40.71875 28.96875 44.328125 
Q 31.390625 47.953125 31.390625 54.390625 
Q 31.390625 60.6875 28.953125 64.34375 
Q 26.515625 68.015625 22.3125 68.015625 
M 66.40625 74.21875 
L 74.21875 74.21875 
L 28.609375 -1.421875 
L 20.796875 -1.421875 
z
M 22.3125 74.21875 
Q 30.03125 74.21875 34.609375 68.875 
Q 39.203125 63.53125 39.203125 54.390625 
Q 39.203125 45.171875 34.640625 39.84375 
Q 30.078125 34.515625 22.3125 34.515625 
Q 14.546875 34.515625 10.03125 39.859375 
Q 5.515625 45.21875 5.515625 54.390625 
Q 5.515625 63.484375 10.046875 68.84375 
Q 14.59375 74.21875 22.3125 74.21875 
" id="BitstreamVeraSans-Roman-25"/>
      <path d="M 33.015625 40.375 
Q 26.375 40.375 22.484375 35.828125 
Q 18.609375 31.296875 18.609375 23.390625 
Q 18.609375 15.53125 22.484375 10.953125 
Q 26.375 6.390625 33.015625 6.390625 
Q 39.65625 6.390625 43.53125 10.953125 
Q 47.40625 15.53125 47.40625 23.390625 
Q 47.40625 31.296875 43.53125 35.828125 
Q 39.65625 40.375 33.015625 40.375 
M 52.59375 71.296875 
L 52.59375 62.3125 
Q 48.875 64.0625 45.09375 64.984375 
Q 41.3125 65.921875 37.59375 65.921875 
Q 27.828125 65.921875 22.671875 59.328125 
Q 17.53125 52.734375 16.796875 39.40625 
Q 19.671875 43.65625 24.015625 45.921875 
Q 28.375 48.1875 33.59375 48.1875 
Q 44.578125 48.1875 50.953125 41.515625 
Q 57.328125 34.859375 57.328125 23.390625 
Q 57.328125 12.15625 50.6875 5.359375 
Q 44.046875 -1.421875 33.015625 -1.421875 
Q 20.359375 -1.421875 13.671875 8.265625 
Q 6.984375 17.96875 6.984375 36.375 
Q 6.984375 53.65625 15.1875 63.9375 
Q 23.390625 74.21875 37.203125 74.21875 
Q 40.921875 74.21875 44.703125 73.484375 
Q 48.484375 72.75 52.59375 71.296875 
" id="BitstreamVeraSans-Roman-36"/>
      <path id="BitstreamVeraSans-Roman-20"/>
      <path d="M 8.015625 75.875 
L 15.828125 75.875 
Q 23.140625 64.359375 26.78125 53.3125 
Q 30.421875 42.28125 30.421875 31.390625 
Q 30.421875 20.453125 26.78125 9.375 
Q 23.140625 -1.703125 15.828125 -13.1875 
L 8.015625 -13.1875 
Q 14.5 -2 17.703125 9.0625 
Q 20.90625 20.125 20.90625 31.390625 
Q 20.90625 42.671875 17.703125 53.65625 
Q 14.5 64.65625 8.015625 75.875 
" id="BitstreamVeraSans-Roman-29"/>
      <path d="M 12.40625 8.296875 
L 28.515625 8.296875 
L 28.515625 63.921875 
L 10.984375 60.40625 
L 10.984375 69.390625 
L 28.421875 72.90625 
L 38.28125 72.90625 
L 38.28125 8.296875 
L 54.390625 8.296875 
L 54.390625 0 
L 12.40625 0 
z
" id="BitstreamVeraSans-Roman-31"/>
      <path d="M 31 75.875 
Q 24.46875 64.65625 21.28125 53.65625 
Q 18.109375 42.671875 18.109375 31.390625 
Q 18.109375 20.125 21.3125 9.0625 
Q 24.515625 -2 31 -13.1875 
L 23.1875 -13.1875 
Q 15.875 -1.703125 12.234375 9.375 
Q 8.59375 20.453125 8.59375 31.390625 
Q 8.59375 42.28125 12.203125 53.3125 
Q 15.828125 64.359375 23.1875 75.875 
z
" id="BitstreamVeraSans-Roman-28"/>
      <path d="M 19.671875 64.796875 
L 19.671875 37.40625 
L 32.078125 37.40625 
Q 38.96875 37.40625 42.71875 40.96875 
Q 46.484375 44.53125 46.484375 51.125 
Q 46.484375 57.671875 42.71875 61.234375 
Q 38.96875 64.796875 32.078125 64.796875 
z
M 9.8125 72.90625 
L 32.078125 72.90625 
Q 44.34375 72.90625 50.609375 67.359375 
Q 56.890625 61.8125 56.890625 51.125 
Q 56.890625 40.328125 50.609375 34.8125 
Q 44.34375 29.296875 32.078125 29.296875 
L 19.671875 29.296875 
L 19.671875 0 
L 9.8125 0 
z
" id="BitstreamVeraSans-Roman-50"/>
      <path d="M 40.578125 39.3125 
Q 47.65625 37.796875 51.625 33 
Q 55.609375 28.21875 55.609375 21.1875 
Q 55.609375 10.40625 48.1875 4.484375 
Q 40.765625 -1.421875 27.09375 -1.421875 
Q 22.515625 -1.421875 17.65625 -0.515625 
Q 12.796875 0.390625 7.625 2.203125 
L 7.625 11.71875 
Q 11.71875 9.328125 16.59375 8.109375 
Q 21.484375 6.890625 26.8125 6.890625 
Q 36.078125 6.890625 40.9375 10.546875 
Q 45.796875 14.203125 45.796875 21.1875 
Q 45.796875 27.640625 41.28125 31.265625 
Q 36.765625 34.90625 28.71875 34.90625 
L 20.21875 34.90625 
L 20.21875 43.015625 
L 29.109375 43.015625 
Q 36.375 43.015625 40.234375 45.921875 
Q 44.09375 48.828125 44.09375 54.296875 
Q 44.09375 59.90625 40.109375 62.90625 
Q 36.140625 65.921875 28.71875 65.921875 
Q 24.65625 65.921875 20.015625 65.03125 
Q 15.375 64.15625 9.8125 62.3125 
L 9.8125 71.09375 
Q 15.4375 72.65625 20.34375 73.4375 
Q 25.25 74.21875 29.59375 74.21875 
Q 40.828125 74.21875 47.359375 69.109375 
Q 53.90625 64.015625 53.90625 55.328125 
Q 53.90625 49.265625 50.4375 45.09375 
Q 46.96875 40.921875 40.578125 39.3125 
" id="BitstreamVeraSans-Roman-33"/>
      <path d="M 8.203125 72.90625 
L 55.078125 72.90625 
L 55.078125 68.703125 
L 28.609375 0 
L 18.3125 0 
L 43.21875 64.59375 
L 8.203125 64.59375 
z
" id="BitstreamVeraSans-Roman-37"/>
     </defs>
     <g style="fill:#262626;" transform="translate(348.631835938 655.895703125)scale(0.275 -0.275)">
      <use xlink:href="#BitstreamVeraSans-Roman-50"/>
      <use x="60.302734375" xlink:href="#BitstreamVeraSans-Roman-43"/>
      <use x="130.126953125" xlink:href="#BitstreamVeraSans-Roman-31"/>
      <use x="193.75" xlink:href="#BitstreamVeraSans-Roman-20"/>
      <use x="225.537109375" xlink:href="#BitstreamVeraSans-Roman-28"/>
      <use x="264.55078125" xlink:href="#BitstreamVeraSans-Roman-37"/>
      <use x="328.173828125" xlink:href="#BitstreamVeraSans-Roman-2e"/>
      <use x="359.9609375" xlink:href="#BitstreamVeraSans-Roman-33"/>
      <use x="423.583984375" xlink:href="#BitstreamVeraSans-Roman-36"/>
      <use x="487.20703125" xlink:href="#BitstreamVeraSans-Roman-33"/>
      <use x="550.830078125" xlink:href="#BitstreamVeraSans-Roman-25"/>
      <use x="645.849609375" xlink:href="#BitstreamVeraSans-Roman-29"/>
     </g>
    </g>
   </g>
   <g id="matplotlib.axis_2">
    <g id="ytick_1">
     <g id="line2d_25">
      <path clip-path="url(#p577129629d)" d="M 108 630 
L 777.6 630 
" style="fill:none;stroke:#ffffff;stroke-linecap:round;"/>
     </g>
     <g id="line2d_26">
      <g>
       <use style="fill:#262626;stroke:#262626;" x="108.0" xlink:href="#m81d5f9fdde" y="630.0"/>
      </g>
     </g>
     <g id="line2d_27">
      <g>
       <use style="fill:#262626;stroke:#262626;" x="777.6" xlink:href="#m81d5f9fdde" y="630.0"/>
      </g>
     </g>
    </g>
    <g id="ytick_2">
     <g id="line2d_28">
      <path clip-path="url(#p577129629d)" d="M 108 568 
L 777.6 568 
" style="fill:none;stroke:#ffffff;stroke-linecap:round;"/>
     </g>
     <g id="line2d_29">
      <g>
       <use style="fill:#262626;stroke:#262626;" x="108.0" xlink:href="#m81d5f9fdde" y="568.0"/>
      </g>
     </g>
     <g id="line2d_30">
      <g>
       <use style="fill:#262626;stroke:#262626;" x="777.6" xlink:href="#m81d5f9fdde" y="568.0"/>
      </g>
     </g>
    </g>
    <g id="ytick_3">
     <g id="line2d_31">
      <path clip-path="url(#p577129629d)" d="M 108 506 
L 777.6 506 
" style="fill:none;stroke:#ffffff;stroke-linecap:round;"/>
     </g>
     <g id="line2d_32">
      <g>
       <use style="fill:#262626;stroke:#262626;" x="108.0" xlink:href="#m81d5f9fdde" y="506.0"/>
      </g>
     </g>
     <g id="line2d_33">
      <g>
       <use style="fill:#262626;stroke:#262626;" x="777.6" xlink:href="#m81d5f9fdde" y="506.0"/>
      </g>
     </g>
    </g>
    <g id="ytick_4">
     <g id="line2d_34">
      <path clip-path="url(#p577129629d)" d="M 108 444 
L 777.6 444 
" style="fill:none;stroke:#ffffff;stroke-linecap:round;"/>
     </g>
     <g id="line2d_35">
      <g>
       <use style="fill:#262626;stroke:#262626;" x="108.0" xlink:href="#m81d5f9fdde" y="444.0"/>
      </g>
     </g>
     <g id="line2d_36">
      <g>
       <use style="fill:#262626;stroke:#262626;" x="777.6" xlink:href="#m81d5f9fdde" y="444.0"/>
      </g>
     </g>
    </g>
    <g id="ytick_5">
     <g id="line2d_37">
      <path clip-path="url(#p577129629d)" d="M 108 382 
L 777.6 382 
" style="fill:none;stroke:#ffffff;stroke-linecap:round;"/>
     </g>
     <g id="line2d_38">
      <g>
       <use style="fill:#262626;stroke:#262626;" x="108.0" xlink:href="#m81d5f9fdde" y="382.0"/>
      </g>
     </g>
     <g id="line2d_39">
      <g>
       <use style="fill:#262626;stroke:#262626;" x="777.6" xlink:href="#m81d5f9fdde" y="382.0"/>
      </g>
     </g>
    </g>
    <g id="ytick_6">
     <g id="line2d_40">
      <path clip-path="url(#p577129629d)" d="M 108 320 
L 777.6 320 
" style="fill:none;stroke:#ffffff;stroke-linecap:round;"/>
     </g>
     <g id="line2d_41">
      <g>
       <use style="fill:#262626;stroke:#262626;" x="108.0" xlink:href="#m81d5f9fdde" y="320.0"/>
      </g>
     </g>
     <g id="line2d_42">
      <g>
       <use style="fill:#262626;stroke:#262626;" x="777.6" xlink:href="#m81d5f9fdde" y="320.0"/>
      </g>
     </g>
    </g>
    <g id="ytick_7">
     <g id="line2d_43">
      <path clip-path="url(#p577129629d)" d="M 108 258 
L 777.6 258 
" style="fill:none;stroke:#ffffff;stroke-linecap:round;"/>
     </g>
     <g id="line2d_44">
      <g>
       <use style="fill:#262626;stroke:#262626;" x="108.0" xlink:href="#m81d5f9fdde" y="258.0"/>
      </g>
     </g>
     <g id="line2d_45">
      <g>
       <use style="fill:#262626;stroke:#262626;" x="777.6" xlink:href="#m81d5f9fdde" y="258.0"/>
      </g>
     </g>
    </g>
    <g id="ytick_8">
     <g id="line2d_46">
      <path clip-path="url(#p577129629d)" d="M 108 196 
L 777.6 196 
" style="fill:none;stroke:#ffffff;stroke-linecap:round;"/>
     </g>
     <g id="line2d_47">
      <g>
       <use style="fill:#262626;stroke:#262626;" x="108.0" xlink:href="#m81d5f9fdde" y="196.0"/>
      </g>
     </g>
     <g id="line2d_48">
      <g>
       <use style="fill:#262626;stroke:#262626;" x="777.6" xlink:href="#m81d5f9fdde" y="196.0"/>
      </g>
     </g>
    </g>
    <g id="ytick_9">
     <g id="line2d_49">
      <path clip-path="url(#p577129629d)" d="M 108 134 
L 777.6 134 
" style="fill:none;stroke:#ffffff;stroke-linecap:round;"/>
     </g>
     <g id="line2d_50">
      <g>
       <use style="fill:#262626;stroke:#262626;" x="108.0" xlink:href="#m81d5f9fdde" y="134.0"/>
      </g>
     </g>
     <g id="line2d_51">
      <g>
       <use style="fill:#262626;stroke:#262626;" x="777.6" xlink:href="#m81d5f9fdde" y="134.0"/>
      </g>
     </g>
    </g>
    <g id="ytick_10">
     <g id="line2d_52">
      <path clip-path="url(#p577129629d)" d="M 108 72 
L 777.6 72 
" style="fill:none;stroke:#ffffff;stroke-linecap:round;"/>
     </g>
     <g id="line2d_53">
      <g>
       <use style="fill:#262626;stroke:#262626;" x="108.0" xlink:href="#m81d5f9fdde" y="72.0"/>
      </g>
     </g>
     <g id="line2d_54">
      <g>
       <use style="fill:#262626;stroke:#262626;" x="777.6" xlink:href="#m81d5f9fdde" y="72.0"/>
      </g>
     </g>
    </g>
    <g id="text_2">
     <!-- PC2 (6.544%) -->
     <defs>
      <path d="M 19.1875 8.296875 
L 53.609375 8.296875 
L 53.609375 0 
L 7.328125 0 
L 7.328125 8.296875 
Q 12.9375 14.109375 22.625 23.890625 
Q 32.328125 33.6875 34.8125 36.53125 
Q 39.546875 41.84375 41.421875 45.53125 
Q 43.3125 49.21875 43.3125 52.78125 
Q 43.3125 58.59375 39.234375 62.25 
Q 35.15625 65.921875 28.609375 65.921875 
Q 23.96875 65.921875 18.8125 64.3125 
Q 13.671875 62.703125 7.8125 59.421875 
L 7.8125 69.390625 
Q 13.765625 71.78125 18.9375 73 
Q 24.125 74.21875 28.421875 74.21875 
Q 39.75 74.21875 46.484375 68.546875 
Q 53.21875 62.890625 53.21875 53.421875 
Q 53.21875 48.921875 51.53125 44.890625 
Q 49.859375 40.875 45.40625 35.40625 
Q 44.1875 33.984375 37.640625 27.21875 
Q 31.109375 20.453125 19.1875 8.296875 
" id="BitstreamVeraSans-Roman-32"/>
      <path d="M 37.796875 64.3125 
L 12.890625 25.390625 
L 37.796875 25.390625 
z
M 35.203125 72.90625 
L 47.609375 72.90625 
L 47.609375 25.390625 
L 58.015625 25.390625 
L 58.015625 17.1875 
L 47.609375 17.1875 
L 47.609375 0 
L 37.796875 0 
L 37.796875 17.1875 
L 4.890625 17.1875 
L 4.890625 26.703125 
z
" id="BitstreamVeraSans-Roman-34"/>
      <path d="M 10.796875 72.90625 
L 49.515625 72.90625 
L 49.515625 64.59375 
L 19.828125 64.59375 
L 19.828125 46.734375 
Q 21.96875 47.46875 24.109375 47.828125 
Q 26.265625 48.1875 28.421875 48.1875 
Q 40.625 48.1875 47.75 41.5 
Q 54.890625 34.8125 54.890625 23.390625 
Q 54.890625 11.625 47.5625 5.09375 
Q 40.234375 -1.421875 26.90625 -1.421875 
Q 22.3125 -1.421875 17.546875 -0.640625 
Q 12.796875 0.140625 7.71875 1.703125 
L 7.71875 11.625 
Q 12.109375 9.234375 16.796875 8.0625 
Q 21.484375 6.890625 26.703125 6.890625 
Q 35.15625 6.890625 40.078125 11.328125 
Q 45.015625 15.765625 45.015625 23.390625 
Q 45.015625 31 40.078125 35.4375 
Q 35.15625 39.890625 26.703125 39.890625 
Q 22.75 39.890625 18.8125 39.015625 
Q 14.890625 38.140625 10.796875 36.28125 
z
" id="BitstreamVeraSans-Roman-35"/>
     </defs>
     <g style="fill:#262626;" transform="translate(97.280859375 445.168164063)rotate(-90.0)scale(0.275 -0.275)">
      <use xlink:href="#BitstreamVeraSans-Roman-50"/>
      <use x="60.302734375" xlink:href="#BitstreamVeraSans-Roman-43"/>
      <use x="130.126953125" xlink:href="#BitstreamVeraSans-Roman-32"/>
      <use x="193.75" xlink:href="#BitstreamVeraSans-Roman-20"/>
      <use x="225.537109375" xlink:href="#BitstreamVeraSans-Roman-28"/>
      <use x="264.55078125" xlink:href="#BitstreamVeraSans-Roman-36"/>
      <use x="328.173828125" xlink:href="#BitstreamVeraSans-Roman-2e"/>
      <use x="359.9609375" xlink:href="#BitstreamVeraSans-Roman-35"/>
      <use x="423.583984375" xlink:href="#BitstreamVeraSans-Roman-34"/>
      <use x="487.20703125" xlink:href="#BitstreamVeraSans-Roman-34"/>
      <use x="550.830078125" xlink:href="#BitstreamVeraSans-Roman-25"/>
      <use x="645.849609375" xlink:href="#BitstreamVeraSans-Roman-29"/>
     </g>
    </g>
   </g>
   <g id="PathCollection_1">
    <defs>
     <path d="M 0 7.071068 
C 1.875269 7.071068 3.673985 6.326016 5 5 
C 6.326016 3.673985 7.071068 1.875269 7.071068 0 
C 7.071068 -1.875269 6.326016 -3.673985 5 -5 
C 3.673985 -6.326016 1.875269 -7.071068 0 -7.071068 
C -1.875269 -7.071068 -3.673985 -6.326016 -5 -5 
C -6.326016 -3.673985 -7.071068 -1.875269 -7.071068 0 
C -7.071068 1.875269 -6.326016 3.673985 -5 5 
C -3.673985 6.326016 -1.875269 7.071068 0 7.071068 
z
" id="ma107657315" style="stroke:#000000;stroke-width:0.3;"/>
    </defs>
    <g clip-path="url(#p577129629d)">
     <use style="fill:#0a1e5c;stroke:#000000;stroke-width:0.3;" x="682.799892169" xlink:href="#ma107657315" y="146.359073408"/>
     <use style="fill:#0a1e5c;stroke:#000000;stroke-width:0.3;" x="204.330823358" xlink:href="#ma107657315" y="302.457453378"/>
     <use style="fill:#0a1e5c;stroke:#000000;stroke-width:0.3;" x="670.078507894" xlink:href="#ma107657315" y="412.714823599"/>
     <use style="fill:#0a1e5c;stroke:#000000;stroke-width:0.3;" x="271.217445649" xlink:href="#ma107657315" y="325.440486712"/>
     <use style="fill:#0a1e5c;stroke:#000000;stroke-width:0.3;" x="321.926941866" xlink:href="#ma107657315" y="316.888168344"/>
     <use style="fill:#0a1e5c;stroke:#000000;stroke-width:0.3;" x="307.148826898" xlink:href="#ma107657315" y="314.477153295"/>
     <use style="fill:#0a1e5c;stroke:#000000;stroke-width:0.3;" x="488.391914698" xlink:href="#ma107657315" y="145.353287306"/>
     <use style="fill:#0a1e5c;stroke:#000000;stroke-width:0.3;" x="320.994087862" xlink:href="#ma107657315" y="372.5130464"/>
     <use style="fill:#0a1e5c;stroke:#000000;stroke-width:0.3;" x="569.685270088" xlink:href="#ma107657315" y="527.213701245"/>
     <use style="fill:#0a1e5c;stroke:#000000;stroke-width:0.3;" x="266.483147242" xlink:href="#ma107657315" y="322.20030646"/>
     <use style="fill:#0a1e5c;stroke:#000000;stroke-width:0.3;" x="288.041078573" xlink:href="#ma107657315" y="305.113406413"/>
    </g>
   </g>
   <g id="PathCollection_2">
    <defs>
     <path d="M 0 7.071068 
C 1.875269 7.071068 3.673985 6.326016 5 5 
C 6.326016 3.673985 7.071068 1.875269 7.071068 0 
C 7.071068 -1.875269 6.326016 -3.673985 5 -5 
C 3.673985 -6.326016 1.875269 -7.071068 0 -7.071068 
C -1.875269 -7.071068 -3.673985 -6.326016 -5 -5 
C -6.326016 -3.673985 -7.071068 -1.875269 -7.071068 0 
C -7.071068 1.875269 -6.326016 3.673985 -5 5 
C -3.673985 6.326016 -1.875269 7.071068 0 7.071068 
z
" id="m972ece88bb" style="stroke:#000000;stroke-width:0.3;"/>
    </defs>
    <g clip-path="url(#p577129629d)">
     <use style="fill:#feffd6;stroke:#000000;stroke-width:0.3;" x="501.004425674" xlink:href="#m972ece88bb" y="119.736230006"/>
     <use style="fill:#feffd6;stroke:#000000;stroke-width:0.3;" x="309.288572452" xlink:href="#m972ece88bb" y="383.499200525"/>
     <use style="fill:#feffd6;stroke:#000000;stroke-width:0.3;" x="191.294295563" xlink:href="#m972ece88bb" y="304.235772367"/>
     <use style="fill:#feffd6;stroke:#000000;stroke-width:0.3;" x="686.707074745" xlink:href="#m972ece88bb" y="430.618500741"/>
     <use style="fill:#feffd6;stroke:#000000;stroke-width:0.3;" x="242.225852654" xlink:href="#m972ece88bb" y="322.760703851"/>
     <use style="fill:#feffd6;stroke:#000000;stroke-width:0.3;" x="278.388623595" xlink:href="#m972ece88bb" y="311.266608317"/>
     <use style="fill:#feffd6;stroke:#000000;stroke-width:0.3;" x="603.131717537" xlink:href="#m972ece88bb" y="545.090314867"/>
     <use style="fill:#feffd6;stroke:#000000;stroke-width:0.3;" x="262.185380028" xlink:href="#m972ece88bb" y="323.031047221"/>
     <use style="fill:#feffd6;stroke:#000000;stroke-width:0.3;" x="698.209963808" xlink:href="#m972ece88bb" y="142.137791456"/>
     <use style="fill:#feffd6;stroke:#000000;stroke-width:0.3;" x="300.690996174" xlink:href="#m972ece88bb" y="315.601314117"/>
     <use style="fill:#feffd6;stroke:#000000;stroke-width:0.3;" x="243.41283726" xlink:href="#m972ece88bb" y="324.457124974"/>
    </g>
   </g>
   <g id="PathCollection_3">
    <defs>
     <path d="M 0 7.071068 
C 1.875269 7.071068 3.673985 6.326016 5 5 
C 6.326016 3.673985 7.071068 1.875269 7.071068 0 
C 7.071068 -1.875269 6.326016 -3.673985 5 -5 
C 3.673985 -6.326016 1.875269 -7.071068 0 -7.071068 
C -1.875269 -7.071068 -3.673985 -6.326016 -5 -5 
C -6.326016 -3.673985 -7.071068 -1.875269 -7.071068 0 
C -7.071068 1.875269 -6.326016 3.673985 -5 5 
C -3.673985 6.326016 -1.875269 7.071068 0 7.071068 
z
" id="mab6da51c81" style="stroke:#000000;stroke-width:0.3;"/>
    </defs>
    <g clip-path="url(#p577129629d)">
     <use style="fill:#3fb4c4;stroke:#000000;stroke-width:0.3;" x="242.27945054" xlink:href="#mab6da51c81" y="326.227872404"/>
     <use style="fill:#3fb4c4;stroke:#000000;stroke-width:0.3;" x="711.725088171" xlink:href="#mab6da51c81" y="159.199319031"/>
     <use style="fill:#3fb4c4;stroke:#000000;stroke-width:0.3;" x="311.226656835" xlink:href="#mab6da51c81" y="378.274461493"/>
     <use style="fill:#3fb4c4;stroke:#000000;stroke-width:0.3;" x="671.908514037" xlink:href="#mab6da51c81" y="430.638544408"/>
     <use style="fill:#3fb4c4;stroke:#000000;stroke-width:0.3;" x="193.804897958" xlink:href="#mab6da51c81" y="307.03314075"/>
     <use style="fill:#3fb4c4;stroke:#000000;stroke-width:0.3;" x="613.402919792" xlink:href="#mab6da51c81" y="543.137211836"/>
     <use style="fill:#3fb4c4;stroke:#000000;stroke-width:0.3;" x="272.387690813" xlink:href="#mab6da51c81" y="324.882074954"/>
     <use style="fill:#3fb4c4;stroke:#000000;stroke-width:0.3;" x="275.845477781" xlink:href="#mab6da51c81" y="315.513709713"/>
     <use style="fill:#3fb4c4;stroke:#000000;stroke-width:0.3;" x="267.374745345" xlink:href="#mab6da51c81" y="322.765034582"/>
     <use style="fill:#3fb4c4;stroke:#000000;stroke-width:0.3;" x="507.967887072" xlink:href="#mab6da51c81" y="119.180310962"/>
     <use style="fill:#3fb4c4;stroke:#000000;stroke-width:0.3;" x="258.496138723" xlink:href="#mab6da51c81" y="319.982804864"/>
    </g>
   </g>
   <g id="line2d_55">
    <path clip-path="url(#p577129629d)" d="M 698.209964 142.137791 
L 690.504928 144.248432 
" style="fill:none;stroke:#feffd6;stroke-linecap:round;stroke-width:3.0;"/>
   </g>
   <g id="line2d_56">
    <path clip-path="url(#p577129629d)" d="M 690.504928 144.248432 
L 682.799892 146.359073 
" style="fill:none;stroke:#0a1e5c;stroke-linecap:round;stroke-width:3.0;"/>
   </g>
   <g id="line2d_57">
    <path clip-path="url(#p577129629d)" d="M 191.294296 304.235772 
L 197.812559 303.346613 
" style="fill:none;stroke:#feffd6;stroke-linecap:round;stroke-width:3.0;"/>
   </g>
   <g id="line2d_58">
    <path clip-path="url(#p577129629d)" d="M 197.812559 303.346613 
L 204.330823 302.457453 
" style="fill:none;stroke:#0a1e5c;stroke-linecap:round;stroke-width:3.0;"/>
   </g>
   <g id="line2d_59">
    <path clip-path="url(#p577129629d)" d="M 501.004426 119.73623 
L 494.69817 132.544759 
" style="fill:none;stroke:#feffd6;stroke-linecap:round;stroke-width:3.0;"/>
   </g>
   <g id="line2d_60">
    <path clip-path="url(#p577129629d)" d="M 494.69817 132.544759 
L 488.391915 145.353287 
" style="fill:none;stroke:#0a1e5c;stroke-linecap:round;stroke-width:3.0;"/>
   </g>
   <g id="line2d_61">
    <path clip-path="url(#p577129629d)" d="M 309.288572 383.499201 
L 315.14133 378.006123 
" style="fill:none;stroke:#feffd6;stroke-linecap:round;stroke-width:3.0;"/>
   </g>
   <g id="line2d_62">
    <path clip-path="url(#p577129629d)" d="M 315.14133 378.006123 
L 320.994088 372.513046 
" style="fill:none;stroke:#0a1e5c;stroke-linecap:round;stroke-width:3.0;"/>
   </g>
   <g id="line2d_63">
    <path clip-path="url(#p577129629d)" d="M 242.225853 322.760704 
L 282.076397 319.824436 
" style="fill:none;stroke:#feffd6;stroke-linecap:round;stroke-width:3.0;"/>
   </g>
   <g id="line2d_64">
    <path clip-path="url(#p577129629d)" d="M 282.076397 319.824436 
L 321.926942 316.888168 
" style="fill:none;stroke:#0a1e5c;stroke-linecap:round;stroke-width:3.0;"/>
   </g>
   <g id="line2d_65">
    <path clip-path="url(#p577129629d)" d="M 686.707075 430.618501 
L 678.392791 421.666662 
" style="fill:none;stroke:#feffd6;stroke-linecap:round;stroke-width:3.0;"/>
   </g>
   <g id="line2d_66">
    <path clip-path="url(#p577129629d)" d="M 678.392791 421.666662 
L 670.078508 412.714824 
" style="fill:none;stroke:#0a1e5c;stroke-linecap:round;stroke-width:3.0;"/>
   </g>
   <g id="line2d_67">
    <path clip-path="url(#p577129629d)" d="M 300.690996 315.601314 
L 285.954221 320.5209 
" style="fill:none;stroke:#feffd6;stroke-linecap:round;stroke-width:3.0;"/>
   </g>
   <g id="line2d_68">
    <path clip-path="url(#p577129629d)" d="M 285.954221 320.5209 
L 271.217446 325.440487 
" style="fill:none;stroke:#0a1e5c;stroke-linecap:round;stroke-width:3.0;"/>
   </g>
   <g id="line2d_69">
    <path clip-path="url(#p577129629d)" d="M 278.388624 311.266608 
L 292.768725 312.871881 
" style="fill:none;stroke:#feffd6;stroke-linecap:round;stroke-width:3.0;"/>
   </g>
   <g id="line2d_70">
    <path clip-path="url(#p577129629d)" d="M 292.768725 312.871881 
L 307.148827 314.477153 
" style="fill:none;stroke:#0a1e5c;stroke-linecap:round;stroke-width:3.0;"/>
   </g>
   <g id="line2d_71">
    <path clip-path="url(#p577129629d)" d="M 603.131718 545.090315 
L 586.408494 536.152008 
" style="fill:none;stroke:#feffd6;stroke-linecap:round;stroke-width:3.0;"/>
   </g>
   <g id="line2d_72">
    <path clip-path="url(#p577129629d)" d="M 586.408494 536.152008 
L 569.68527 527.213701 
" style="fill:none;stroke:#0a1e5c;stroke-linecap:round;stroke-width:3.0;"/>
   </g>
   <g id="line2d_73">
    <path clip-path="url(#p577129629d)" d="M 262.18538 323.031047 
L 275.113229 314.072227 
" style="fill:none;stroke:#feffd6;stroke-linecap:round;stroke-width:3.0;"/>
   </g>
   <g id="line2d_74">
    <path clip-path="url(#p577129629d)" d="M 275.113229 314.072227 
L 288.041079 305.113406 
" style="fill:none;stroke:#0a1e5c;stroke-linecap:round;stroke-width:3.0;"/>
   </g>
   <g id="line2d_75">
    <path clip-path="url(#p577129629d)" d="M 243.412837 324.457125 
L 254.947992 323.328716 
" style="fill:none;stroke:#feffd6;stroke-linecap:round;stroke-width:3.0;"/>
   </g>
   <g id="line2d_76">
    <path clip-path="url(#p577129629d)" d="M 254.947992 323.328716 
L 266.483147 322.200306 
" style="fill:none;stroke:#0a1e5c;stroke-linecap:round;stroke-width:3.0;"/>
   </g>
   <g id="line2d_77">
    <path clip-path="url(#p577129629d)" d="M 711.725088 159.199319 
L 697.26249 152.779196 
" style="fill:none;stroke:#3fb4c4;stroke-linecap:round;stroke-width:3.0;"/>
   </g>
   <g id="line2d_78">
    <path clip-path="url(#p577129629d)" d="M 697.26249 152.779196 
L 682.799892 146.359073 
" style="fill:none;stroke:#0a1e5c;stroke-linecap:round;stroke-width:3.0;"/>
   </g>
   <g id="line2d_79">
    <path clip-path="url(#p577129629d)" d="M 193.804898 307.033141 
L 199.067861 304.745297 
" style="fill:none;stroke:#3fb4c4;stroke-linecap:round;stroke-width:3.0;"/>
   </g>
   <g id="line2d_80">
    <path clip-path="url(#p577129629d)" d="M 199.067861 304.745297 
L 204.330823 302.457453 
" style="fill:none;stroke:#0a1e5c;stroke-linecap:round;stroke-width:3.0;"/>
   </g>
   <g id="line2d_81">
    <path clip-path="url(#p577129629d)" d="M 507.967887 119.180311 
L 498.179901 132.266799 
" style="fill:none;stroke:#3fb4c4;stroke-linecap:round;stroke-width:3.0;"/>
   </g>
   <g id="line2d_82">
    <path clip-path="url(#p577129629d)" d="M 498.179901 132.266799 
L 488.391915 145.353287 
" style="fill:none;stroke:#0a1e5c;stroke-linecap:round;stroke-width:3.0;"/>
   </g>
   <g id="line2d_83">
    <path clip-path="url(#p577129629d)" d="M 311.226657 378.274461 
L 316.110372 375.393754 
" style="fill:none;stroke:#3fb4c4;stroke-linecap:round;stroke-width:3.0;"/>
   </g>
   <g id="line2d_84">
    <path clip-path="url(#p577129629d)" d="M 316.110372 375.393754 
L 320.994088 372.513046 
" style="fill:none;stroke:#0a1e5c;stroke-linecap:round;stroke-width:3.0;"/>
   </g>
   <g id="line2d_85">
    <path clip-path="url(#p577129629d)" d="M 242.279451 326.227872 
L 282.103196 321.55802 
" style="fill:none;stroke:#3fb4c4;stroke-linecap:round;stroke-width:3.0;"/>
   </g>
   <g id="line2d_86">
    <path clip-path="url(#p577129629d)" d="M 282.103196 321.55802 
L 321.926942 316.888168 
" style="fill:none;stroke:#0a1e5c;stroke-linecap:round;stroke-width:3.0;"/>
   </g>
   <g id="line2d_87">
    <path clip-path="url(#p577129629d)" d="M 671.908514 430.638544 
L 670.993511 421.676684 
" style="fill:none;stroke:#3fb4c4;stroke-linecap:round;stroke-width:3.0;"/>
   </g>
   <g id="line2d_88">
    <path clip-path="url(#p577129629d)" d="M 670.993511 421.676684 
L 670.078508 412.714824 
" style="fill:none;stroke:#0a1e5c;stroke-linecap:round;stroke-width:3.0;"/>
   </g>
   <g id="line2d_89">
    <path clip-path="url(#p577129629d)" d="M 272.387691 324.882075 
L 271.802568 325.161281 
" style="fill:none;stroke:#3fb4c4;stroke-linecap:round;stroke-width:3.0;"/>
   </g>
   <g id="line2d_90">
    <path clip-path="url(#p577129629d)" d="M 271.802568 325.161281 
L 271.217446 325.440487 
" style="fill:none;stroke:#0a1e5c;stroke-linecap:round;stroke-width:3.0;"/>
   </g>
   <g id="line2d_91">
    <path clip-path="url(#p577129629d)" d="M 275.845478 315.51371 
L 291.497152 314.995432 
" style="fill:none;stroke:#3fb4c4;stroke-linecap:round;stroke-width:3.0;"/>
   </g>
   <g id="line2d_92">
    <path clip-path="url(#p577129629d)" d="M 291.497152 314.995432 
L 307.148827 314.477153 
" style="fill:none;stroke:#0a1e5c;stroke-linecap:round;stroke-width:3.0;"/>
   </g>
   <g id="line2d_93">
    <path clip-path="url(#p577129629d)" d="M 613.40292 543.137212 
L 591.544095 535.175457 
" style="fill:none;stroke:#3fb4c4;stroke-linecap:round;stroke-width:3.0;"/>
   </g>
   <g id="line2d_94">
    <path clip-path="url(#p577129629d)" d="M 591.544095 535.175457 
L 569.68527 527.213701 
" style="fill:none;stroke:#0a1e5c;stroke-linecap:round;stroke-width:3.0;"/>
   </g>
   <g id="line2d_95">
    <path clip-path="url(#p577129629d)" d="M 267.374745 322.765035 
L 277.707912 313.93922 
" style="fill:none;stroke:#3fb4c4;stroke-linecap:round;stroke-width:3.0;"/>
   </g>
   <g id="line2d_96">
    <path clip-path="url(#p577129629d)" d="M 277.707912 313.93922 
L 288.041079 305.113406 
" style="fill:none;stroke:#0a1e5c;stroke-linecap:round;stroke-width:3.0;"/>
   </g>
   <g id="line2d_97">
    <path clip-path="url(#p577129629d)" d="M 258.496139 319.982805 
L 262.489643 321.091556 
" style="fill:none;stroke:#3fb4c4;stroke-linecap:round;stroke-width:3.0;"/>
   </g>
   <g id="line2d_98">
    <path clip-path="url(#p577129629d)" d="M 262.489643 321.091556 
L 266.483147 322.200306 
" style="fill:none;stroke:#0a1e5c;stroke-linecap:round;stroke-width:3.0;"/>
   </g>
   <g id="line2d_99">
    <path clip-path="url(#p577129629d)" d="M 711.725088 159.199319 
L 704.967526 150.668555 
" style="fill:none;stroke:#3fb4c4;stroke-linecap:round;stroke-width:3.0;"/>
   </g>
   <g id="line2d_100">
    <path clip-path="url(#p577129629d)" d="M 704.967526 150.668555 
L 698.209964 142.137791 
" style="fill:none;stroke:#feffd6;stroke-linecap:round;stroke-width:3.0;"/>
   </g>
   <g id="line2d_101">
    <path clip-path="url(#p577129629d)" d="M 193.804898 307.033141 
L 192.549597 305.634457 
" style="fill:none;stroke:#3fb4c4;stroke-linecap:round;stroke-width:3.0;"/>
   </g>
   <g id="line2d_102">
    <path clip-path="url(#p577129629d)" d="M 192.549597 305.634457 
L 191.294296 304.235772 
" style="fill:none;stroke:#feffd6;stroke-linecap:round;stroke-width:3.0;"/>
   </g>
   <g id="line2d_103">
    <path clip-path="url(#p577129629d)" d="M 507.967887 119.180311 
L 504.486156 119.45827 
" style="fill:none;stroke:#3fb4c4;stroke-linecap:round;stroke-width:3.0;"/>
   </g>
   <g id="line2d_104">
    <path clip-path="url(#p577129629d)" d="M 504.486156 119.45827 
L 501.004426 119.73623 
" style="fill:none;stroke:#feffd6;stroke-linecap:round;stroke-width:3.0;"/>
   </g>
   <g id="line2d_105">
    <path clip-path="url(#p577129629d)" d="M 311.226657 378.274461 
L 310.257615 380.886831 
" style="fill:none;stroke:#3fb4c4;stroke-linecap:round;stroke-width:3.0;"/>
   </g>
   <g id="line2d_106">
    <path clip-path="url(#p577129629d)" d="M 310.257615 380.886831 
L 309.288572 383.499201 
" style="fill:none;stroke:#feffd6;stroke-linecap:round;stroke-width:3.0;"/>
   </g>
   <g id="line2d_107">
    <path clip-path="url(#p577129629d)" d="M 242.279451 326.227872 
L 242.252652 324.494288 
" style="fill:none;stroke:#3fb4c4;stroke-linecap:round;stroke-width:3.0;"/>
   </g>
   <g id="line2d_108">
    <path clip-path="url(#p577129629d)" d="M 242.252652 324.494288 
L 242.225853 322.760704 
" style="fill:none;stroke:#feffd6;stroke-linecap:round;stroke-width:3.0;"/>
   </g>
   <g id="line2d_109">
    <path clip-path="url(#p577129629d)" d="M 671.908514 430.638544 
L 679.307794 430.628523 
" style="fill:none;stroke:#3fb4c4;stroke-linecap:round;stroke-width:3.0;"/>
   </g>
   <g id="line2d_110">
    <path clip-path="url(#p577129629d)" d="M 679.307794 430.628523 
L 686.707075 430.618501 
" style="fill:none;stroke:#feffd6;stroke-linecap:round;stroke-width:3.0;"/>
   </g>
   <g id="line2d_111">
    <path clip-path="url(#p577129629d)" d="M 272.387691 324.882075 
L 286.539343 320.241695 
" style="fill:none;stroke:#3fb4c4;stroke-linecap:round;stroke-width:3.0;"/>
   </g>
   <g id="line2d_112">
    <path clip-path="url(#p577129629d)" d="M 286.539343 320.241695 
L 300.690996 315.601314 
" style="fill:none;stroke:#feffd6;stroke-linecap:round;stroke-width:3.0;"/>
   </g>
   <g id="line2d_113">
    <path clip-path="url(#p577129629d)" d="M 275.845478 315.51371 
L 277.117051 313.390159 
" style="fill:none;stroke:#3fb4c4;stroke-linecap:round;stroke-width:3.0;"/>
   </g>
   <g id="line2d_114">
    <path clip-path="url(#p577129629d)" d="M 277.117051 313.390159 
L 278.388624 311.266608 
" style="fill:none;stroke:#feffd6;stroke-linecap:round;stroke-width:3.0;"/>
   </g>
   <g id="line2d_115">
    <path clip-path="url(#p577129629d)" d="M 613.40292 543.137212 
L 608.267319 544.113763 
" style="fill:none;stroke:#3fb4c4;stroke-linecap:round;stroke-width:3.0;"/>
   </g>
   <g id="line2d_116">
    <path clip-path="url(#p577129629d)" d="M 608.267319 544.113763 
L 603.131718 545.090315 
" style="fill:none;stroke:#feffd6;stroke-linecap:round;stroke-width:3.0;"/>
   </g>
   <g id="line2d_117">
    <path clip-path="url(#p577129629d)" d="M 267.374745 322.765035 
L 264.780063 322.898041 
" style="fill:none;stroke:#3fb4c4;stroke-linecap:round;stroke-width:3.0;"/>
   </g>
   <g id="line2d_118">
    <path clip-path="url(#p577129629d)" d="M 264.780063 322.898041 
L 262.18538 323.031047 
" style="fill:none;stroke:#feffd6;stroke-linecap:round;stroke-width:3.0;"/>
   </g>
   <g id="line2d_119">
    <path clip-path="url(#p577129629d)" d="M 258.496139 319.982805 
L 250.954488 322.219965 
" style="fill:none;stroke:#3fb4c4;stroke-linecap:round;stroke-width:3.0;"/>
   </g>
   <g id="line2d_120">
    <path clip-path="url(#p577129629d)" d="M 250.954488 322.219965 
L 243.412837 324.457125 
" style="fill:none;stroke:#feffd6;stroke-linecap:round;stroke-width:3.0;"/>
   </g>
   <g id="patch_3">
    <path d="M 777.6 630 
L 777.6 72 
" style="fill:none;"/>
   </g>
   <g id="patch_4">
    <path d="M 108 630 
L 777.6 630 
" style="fill:none;"/>
   </g>
   <g id="patch_5">
    <path d="M 108 630 
L 108 72 
" style="fill:none;"/>
   </g>
   <g id="patch_6">
    <path d="M 108 72 
L 777.6 72 
" style="fill:none;"/>
   </g>
   <g id="legend_1">
    <g id="PathCollection_4">
     <path d="M 155.5 114.004662 
C 157.375269 114.004662 159.173984 113.259609 160.5 111.933594 
C 161.826016 110.607578 162.571068 108.808863 162.571068 106.933594 
C 162.571068 105.058325 161.826016 103.259609 160.5 101.933594 
C 159.173984 100.607578 157.375269 99.862526 155.5 99.862526 
C 153.624731 99.862526 151.826016 100.607578 150.5 101.933594 
C 149.173984 103.259609 148.428932 105.058325 148.428932 106.933594 
C 148.428932 108.808863 149.173984 110.607578 150.5 111.933594 
C 151.826016 113.259609 153.624731 114.004662 155.5 114.004662 
z
" style="fill:#0a1e5c;stroke:#000000;stroke-width:0.3;"/>
     <path d="M 155.5 114.004662 
C 157.375269 114.004662 159.173984 113.259609 160.5 111.933594 
C 161.826016 110.607578 162.571068 108.808863 162.571068 106.933594 
C 162.571068 105.058325 161.826016 103.259609 160.5 101.933594 
C 159.173984 100.607578 157.375269 99.862526 155.5 99.862526 
C 153.624731 99.862526 151.826016 100.607578 150.5 101.933594 
C 149.173984 103.259609 148.428932 105.058325 148.428932 106.933594 
C 148.428932 108.808863 149.173984 110.607578 150.5 111.933594 
C 151.826016 113.259609 153.624731 114.004662 155.5 114.004662 
z
" style="fill:#0a1e5c;stroke:#000000;stroke-width:0.3;"/>
     <path d="M 155.5 114.004662 
C 157.375269 114.004662 159.173984 113.259609 160.5 111.933594 
C 161.826016 110.607578 162.571068 108.808863 162.571068 106.933594 
C 162.571068 105.058325 161.826016 103.259609 160.5 101.933594 
C 159.173984 100.607578 157.375269 99.862526 155.5 99.862526 
C 153.624731 99.862526 151.826016 100.607578 150.5 101.933594 
C 149.173984 103.259609 148.428932 105.058325 148.428932 106.933594 
C 148.428932 108.808863 149.173984 110.607578 150.5 111.933594 
C 151.826016 113.259609 153.624731 114.004662 155.5 114.004662 
z
" style="fill:#0a1e5c;stroke:#000000;stroke-width:0.3;"/>
    </g>
    <g id="text_3">
     <!-- Run 1 -->
     <defs>
      <path d="M 44.390625 34.1875 
Q 47.5625 33.109375 50.5625 29.59375 
Q 53.5625 26.078125 56.59375 19.921875 
L 66.609375 0 
L 56 0 
L 46.6875 18.703125 
Q 43.0625 26.03125 39.671875 28.421875 
Q 36.28125 30.8125 30.421875 30.8125 
L 19.671875 30.8125 
L 19.671875 0 
L 9.8125 0 
L 9.8125 72.90625 
L 32.078125 72.90625 
Q 44.578125 72.90625 50.734375 67.671875 
Q 56.890625 62.453125 56.890625 51.90625 
Q 56.890625 45.015625 53.6875 40.46875 
Q 50.484375 35.9375 44.390625 34.1875 
M 19.671875 64.796875 
L 19.671875 38.921875 
L 32.078125 38.921875 
Q 39.203125 38.921875 42.84375 42.21875 
Q 46.484375 45.515625 46.484375 51.90625 
Q 46.484375 58.296875 42.84375 61.546875 
Q 39.203125 64.796875 32.078125 64.796875 
z
" id="BitstreamVeraSans-Roman-52"/>
      <path d="M 8.5 21.578125 
L 8.5 54.6875 
L 17.484375 54.6875 
L 17.484375 21.921875 
Q 17.484375 14.15625 20.5 10.265625 
Q 23.53125 6.390625 29.59375 6.390625 
Q 36.859375 6.390625 41.078125 11.03125 
Q 45.3125 15.671875 45.3125 23.6875 
L 45.3125 54.6875 
L 54.296875 54.6875 
L 54.296875 0 
L 45.3125 0 
L 45.3125 8.40625 
Q 42.046875 3.421875 37.71875 1 
Q 33.40625 -1.421875 27.6875 -1.421875 
Q 18.265625 -1.421875 13.375 4.4375 
Q 8.5 10.296875 8.5 21.578125 
" id="BitstreamVeraSans-Roman-75"/>
      <path d="M 54.890625 33.015625 
L 54.890625 0 
L 45.90625 0 
L 45.90625 32.71875 
Q 45.90625 40.484375 42.875 44.328125 
Q 39.84375 48.1875 33.796875 48.1875 
Q 26.515625 48.1875 22.3125 43.546875 
Q 18.109375 38.921875 18.109375 30.90625 
L 18.109375 0 
L 9.078125 0 
L 9.078125 54.6875 
L 18.109375 54.6875 
L 18.109375 46.1875 
Q 21.34375 51.125 25.703125 53.5625 
Q 30.078125 56 35.796875 56 
Q 45.21875 56 50.046875 50.171875 
Q 54.890625 44.34375 54.890625 33.015625 
" id="BitstreamVeraSans-Roman-6e"/>
     </defs>
     <g style="fill:#262626;" transform="translate(200.5 113.49609375)scale(0.25 -0.25)">
      <use xlink:href="#BitstreamVeraSans-Roman-52"/>
      <use x="69.419921875" xlink:href="#BitstreamVeraSans-Roman-75"/>
      <use x="132.798828125" xlink:href="#BitstreamVeraSans-Roman-6e"/>
      <use x="196.177734375" xlink:href="#BitstreamVeraSans-Roman-20"/>
      <use x="227.96484375" xlink:href="#BitstreamVeraSans-Roman-31"/>
     </g>
    </g>
    <g id="PathCollection_5">
     <path d="M 155.5 150.699974 
C 157.375269 150.699974 159.173984 149.954922 160.5 148.628906 
C 161.826016 147.302891 162.571068 145.504175 162.571068 143.628906 
C 162.571068 141.753637 161.826016 139.954922 160.5 138.628906 
C 159.173984 137.302891 157.375269 136.557838 155.5 136.557838 
C 153.624731 136.557838 151.826016 137.302891 150.5 138.628906 
C 149.173984 139.954922 148.428932 141.753637 148.428932 143.628906 
C 148.428932 145.504175 149.173984 147.302891 150.5 148.628906 
C 151.826016 149.954922 153.624731 150.699974 155.5 150.699974 
z
" style="fill:#feffd6;stroke:#000000;stroke-width:0.3;"/>
     <path d="M 155.5 150.699974 
C 157.375269 150.699974 159.173984 149.954922 160.5 148.628906 
C 161.826016 147.302891 162.571068 145.504175 162.571068 143.628906 
C 162.571068 141.753637 161.826016 139.954922 160.5 138.628906 
C 159.173984 137.302891 157.375269 136.557838 155.5 136.557838 
C 153.624731 136.557838 151.826016 137.302891 150.5 138.628906 
C 149.173984 139.954922 148.428932 141.753637 148.428932 143.628906 
C 148.428932 145.504175 149.173984 147.302891 150.5 148.628906 
C 151.826016 149.954922 153.624731 150.699974 155.5 150.699974 
z
" style="fill:#feffd6;stroke:#000000;stroke-width:0.3;"/>
     <path d="M 155.5 150.699974 
C 157.375269 150.699974 159.173984 149.954922 160.5 148.628906 
C 161.826016 147.302891 162.571068 145.504175 162.571068 143.628906 
C 162.571068 141.753637 161.826016 139.954922 160.5 138.628906 
C 159.173984 137.302891 157.375269 136.557838 155.5 136.557838 
C 153.624731 136.557838 151.826016 137.302891 150.5 138.628906 
C 149.173984 139.954922 148.428932 141.753637 148.428932 143.628906 
C 148.428932 145.504175 149.173984 147.302891 150.5 148.628906 
C 151.826016 149.954922 153.624731 150.699974 155.5 150.699974 
z
" style="fill:#feffd6;stroke:#000000;stroke-width:0.3;"/>
    </g>
    <g id="text_4">
     <!-- Run 2 -->
     <g style="fill:#262626;" transform="translate(200.5 150.19140625)scale(0.25 -0.25)">
      <use xlink:href="#BitstreamVeraSans-Roman-52"/>
      <use x="69.419921875" xlink:href="#BitstreamVeraSans-Roman-75"/>
      <use x="132.798828125" xlink:href="#BitstreamVeraSans-Roman-6e"/>
      <use x="196.177734375" xlink:href="#BitstreamVeraSans-Roman-20"/>
      <use x="227.96484375" xlink:href="#BitstreamVeraSans-Roman-32"/>
     </g>
    </g>
    <g id="PathCollection_6">
     <path d="M 155.5 187.395287 
C 157.375269 187.395287 159.173984 186.650234 160.5 185.324219 
C 161.826016 183.998203 162.571068 182.199488 162.571068 180.324219 
C 162.571068 178.44895 161.826016 176.650234 160.5 175.324219 
C 159.173984 173.998203 157.375269 173.253151 155.5 173.253151 
C 153.624731 173.253151 151.826016 173.998203 150.5 175.324219 
C 149.173984 176.650234 148.428932 178.44895 148.428932 180.324219 
C 148.428932 182.199488 149.173984 183.998203 150.5 185.324219 
C 151.826016 186.650234 153.624731 187.395287 155.5 187.395287 
z
" style="fill:#3fb4c4;stroke:#000000;stroke-width:0.3;"/>
     <path d="M 155.5 187.395287 
C 157.375269 187.395287 159.173984 186.650234 160.5 185.324219 
C 161.826016 183.998203 162.571068 182.199488 162.571068 180.324219 
C 162.571068 178.44895 161.826016 176.650234 160.5 175.324219 
C 159.173984 173.998203 157.375269 173.253151 155.5 173.253151 
C 153.624731 173.253151 151.826016 173.998203 150.5 175.324219 
C 149.173984 176.650234 148.428932 178.44895 148.428932 180.324219 
C 148.428932 182.199488 149.173984 183.998203 150.5 185.324219 
C 151.826016 186.650234 153.624731 187.395287 155.5 187.395287 
z
" style="fill:#3fb4c4;stroke:#000000;stroke-width:0.3;"/>
     <path d="M 155.5 187.395287 
C 157.375269 187.395287 159.173984 186.650234 160.5 185.324219 
C 161.826016 183.998203 162.571068 182.199488 162.571068 180.324219 
C 162.571068 178.44895 161.826016 176.650234 160.5 175.324219 
C 159.173984 173.998203 157.375269 173.253151 155.5 173.253151 
C 153.624731 173.253151 151.826016 173.998203 150.5 175.324219 
C 149.173984 176.650234 148.428932 178.44895 148.428932 180.324219 
C 148.428932 182.199488 149.173984 183.998203 150.5 185.324219 
C 151.826016 186.650234 153.624731 187.395287 155.5 187.395287 
z
" style="fill:#3fb4c4;stroke:#000000;stroke-width:0.3;"/>
    </g>
    <g id="text_5">
     <!-- Run 3 -->
     <g style="fill:#262626;" transform="translate(200.5 186.88671875)scale(0.25 -0.25)">
      <use xlink:href="#BitstreamVeraSans-Roman-52"/>
      <use x="69.419921875" xlink:href="#BitstreamVeraSans-Roman-75"/>
      <use x="132.798828125" xlink:href="#BitstreamVeraSans-Roman-6e"/>
      <use x="196.177734375" xlink:href="#BitstreamVeraSans-Roman-20"/>
      <use x="227.96484375" xlink:href="#BitstreamVeraSans-Roman-33"/>
     </g>
    </g>
   </g>
  </g>
 </g>
 <defs>
  <clipPath id="p577129629d">
   <rect height="558.0" width="669.6" x="108.0" y="72.0"/>
  </clipPath>
 </defs>
</svg>
