<?xml version="1.0" encoding="utf-8" standalone="no"?>
<!DOCTYPE svg PUBLIC "-//W3C//DTD SVG 1.1//EN"
  "http://www.w3.org/Graphics/SVG/1.1/DTD/svg11.dtd">
<!-- Created with matplotlib (http://matplotlib.org/) -->
<svg height="576pt" version="1.1" viewBox="0 0 864 576" width="864pt" xmlns="http://www.w3.org/2000/svg" xmlns:xlink="http://www.w3.org/1999/xlink">
 <defs>
  <style type="text/css">
*{stroke-linecap:butt;stroke-linejoin:round;stroke-miterlimit:100000;}
  </style>
 </defs>
 <g id="figure_1">
  <g id="patch_1">
   <path d="M 0 576 
L 864 576 
L 864 0 
L 0 0 
z
" style="fill:#ffffff;"/>
  </g>
  <g id="axes_1">
   <g id="patch_2">
    <path d="M 108 504 
L 777.6 504 
L 777.6 57.6 
L 108 57.6 
z
" style="fill:#eaeaf2;"/>
   </g>
   <g id="matplotlib.axis_1">
    <g id="xtick_1">
     <g id="line2d_1">
      <defs>
       <path d="M 0 0 
L 0 0 
" id="mc873dc9022" style="stroke:#262626;"/>
      </defs>
      <g>
       <use style="fill:#262626;stroke:#262626;" x="191.7" xlink:href="#mc873dc9022" y="504.0"/>
      </g>
     </g>
     <g id="line2d_2">
      <g>
       <use style="fill:#262626;stroke:#262626;" x="191.7" xlink:href="#mc873dc9022" y="57.6"/>
      </g>
     </g>
     <g id="text_1">
      <!-- Summer -->
      <defs>
       <path d="M 8.5 21.578125 
L 8.5 54.6875 
L 17.484375 54.6875 
L 17.484375 21.921875 
Q 17.484375 14.15625 20.5 10.265625 
Q 23.53125 6.390625 29.59375 6.390625 
Q 36.859375 6.390625 41.078125 11.03125 
Q 45.3125 15.671875 45.3125 23.6875 
L 45.3125 54.6875 
L 54.296875 54.6875 
L 54.296875 0 
L 45.3125 0 
L 45.3125 8.40625 
Q 42.046875 3.421875 37.71875 1 
Q 33.40625 -1.421875 27.6875 -1.421875 
Q 18.265625 -1.421875 13.375 4.4375 
Q 8.5 10.296875 8.5 21.578125 
" id="BitstreamVeraSans-Roman-75"/>
       <path d="M 56.203125 29.59375 
L 56.203125 25.203125 
L 14.890625 25.203125 
Q 15.484375 15.921875 20.484375 11.0625 
Q 25.484375 6.203125 34.421875 6.203125 
Q 39.59375 6.203125 44.453125 7.46875 
Q 49.3125 8.734375 54.109375 11.28125 
L 54.109375 2.78125 
Q 49.265625 0.734375 44.1875 -0.34375 
Q 39.109375 -1.421875 33.890625 -1.421875 
Q 20.796875 -1.421875 13.15625 6.1875 
Q 5.515625 13.8125 5.515625 26.8125 
Q 5.515625 40.234375 12.765625 48.109375 
Q 20.015625 56 32.328125 56 
Q 43.359375 56 49.78125 48.890625 
Q 56.203125 41.796875 56.203125 29.59375 
M 47.21875 32.234375 
Q 47.125 39.59375 43.09375 43.984375 
Q 39.0625 48.390625 32.421875 48.390625 
Q 24.90625 48.390625 20.390625 44.140625 
Q 15.875 39.890625 15.1875 32.171875 
z
" id="BitstreamVeraSans-Roman-65"/>
       <path d="M 41.109375 46.296875 
Q 39.59375 47.171875 37.8125 47.578125 
Q 36.03125 48 33.890625 48 
Q 26.265625 48 22.1875 43.046875 
Q 18.109375 38.09375 18.109375 28.8125 
L 18.109375 0 
L 9.078125 0 
L 9.078125 54.6875 
L 18.109375 54.6875 
L 18.109375 46.1875 
Q 20.953125 51.171875 25.484375 53.578125 
Q 30.03125 56 36.53125 56 
Q 37.453125 56 38.578125 55.875 
Q 39.703125 55.765625 41.0625 55.515625 
z
" id="BitstreamVeraSans-Roman-72"/>
       <path d="M 52 44.1875 
Q 55.375 50.25 60.0625 53.125 
Q 64.75 56 71.09375 56 
Q 79.640625 56 84.28125 50.015625 
Q 88.921875 44.046875 88.921875 33.015625 
L 88.921875 0 
L 79.890625 0 
L 79.890625 32.71875 
Q 79.890625 40.578125 77.09375 44.375 
Q 74.3125 48.1875 68.609375 48.1875 
Q 61.625 48.1875 57.5625 43.546875 
Q 53.515625 38.921875 53.515625 30.90625 
L 53.515625 0 
L 44.484375 0 
L 44.484375 32.71875 
Q 44.484375 40.625 41.703125 44.40625 
Q 38.921875 48.1875 33.109375 48.1875 
Q 26.21875 48.1875 22.15625 43.53125 
Q 18.109375 38.875 18.109375 30.90625 
L 18.109375 0 
L 9.078125 0 
L 9.078125 54.6875 
L 18.109375 54.6875 
L 18.109375 46.1875 
Q 21.1875 51.21875 25.484375 53.609375 
Q 29.78125 56 35.6875 56 
Q 41.65625 56 45.828125 52.96875 
Q 50 49.953125 52 44.1875 
" id="BitstreamVeraSans-Roman-6d"/>
       <path d="M 53.515625 70.515625 
L 53.515625 60.890625 
Q 47.90625 63.578125 42.921875 64.890625 
Q 37.9375 66.21875 33.296875 66.21875 
Q 25.25 66.21875 20.875 63.09375 
Q 16.5 59.96875 16.5 54.203125 
Q 16.5 49.359375 19.40625 46.890625 
Q 22.3125 44.4375 30.421875 42.921875 
L 36.375 41.703125 
Q 47.40625 39.59375 52.65625 34.296875 
Q 57.90625 29 57.90625 20.125 
Q 57.90625 9.515625 50.796875 4.046875 
Q 43.703125 -1.421875 29.984375 -1.421875 
Q 24.8125 -1.421875 18.96875 -0.25 
Q 13.140625 0.921875 6.890625 3.21875 
L 6.890625 13.375 
Q 12.890625 10.015625 18.65625 8.296875 
Q 24.421875 6.59375 29.984375 6.59375 
Q 38.421875 6.59375 43.015625 9.90625 
Q 47.609375 13.234375 47.609375 19.390625 
Q 47.609375 24.75 44.3125 27.78125 
Q 41.015625 30.8125 33.5 32.328125 
L 27.484375 33.5 
Q 16.453125 35.6875 11.515625 40.375 
Q 6.59375 45.0625 6.59375 53.421875 
Q 6.59375 63.09375 13.40625 68.65625 
Q 20.21875 74.21875 32.171875 74.21875 
Q 37.3125 74.21875 42.625 73.28125 
Q 47.953125 72.359375 53.515625 70.515625 
" id="BitstreamVeraSans-Roman-53"/>
      </defs>
      <g style="fill:#262626;" transform="translate(159.8765625 522.39765625)scale(0.15 -0.15)">
       <use xlink:href="#BitstreamVeraSans-Roman-53"/>
       <use x="63.4765625" xlink:href="#BitstreamVeraSans-Roman-75"/>
       <use x="126.85546875" xlink:href="#BitstreamVeraSans-Roman-6d"/>
       <use x="224.267578125" xlink:href="#BitstreamVeraSans-Roman-6d"/>
       <use x="321.6796875" xlink:href="#BitstreamVeraSans-Roman-65"/>
       <use x="383.203125" xlink:href="#BitstreamVeraSans-Roman-72"/>
      </g>
     </g>
    </g>
    <g id="xtick_2">
     <g id="line2d_3">
      <g>
       <use style="fill:#262626;stroke:#262626;" x="359.1" xlink:href="#mc873dc9022" y="504.0"/>
      </g>
     </g>
     <g id="line2d_4">
      <g>
       <use style="fill:#262626;stroke:#262626;" x="359.1" xlink:href="#mc873dc9022" y="57.6"/>
      </g>
     </g>
     <g id="text_2">
      <!-- Fall -->
      <defs>
       <path d="M 9.421875 75.984375 
L 18.40625 75.984375 
L 18.40625 0 
L 9.421875 0 
z
" id="BitstreamVeraSans-Roman-6c"/>
       <path d="M 9.8125 72.90625 
L 51.703125 72.90625 
L 51.703125 64.59375 
L 19.671875 64.59375 
L 19.671875 43.109375 
L 48.578125 43.109375 
L 48.578125 34.8125 
L 19.671875 34.8125 
L 19.671875 0 
L 9.8125 0 
z
" id="BitstreamVeraSans-Roman-46"/>
       <path d="M 34.28125 27.484375 
Q 23.390625 27.484375 19.1875 25 
Q 14.984375 22.515625 14.984375 16.5 
Q 14.984375 11.71875 18.140625 8.90625 
Q 21.296875 6.109375 26.703125 6.109375 
Q 34.1875 6.109375 38.703125 11.40625 
Q 43.21875 16.703125 43.21875 25.484375 
L 43.21875 27.484375 
z
M 52.203125 31.203125 
L 52.203125 0 
L 43.21875 0 
L 43.21875 8.296875 
Q 40.140625 3.328125 35.546875 0.953125 
Q 30.953125 -1.421875 24.3125 -1.421875 
Q 15.921875 -1.421875 10.953125 3.296875 
Q 6 8.015625 6 15.921875 
Q 6 25.140625 12.171875 29.828125 
Q 18.359375 34.515625 30.609375 34.515625 
L 43.21875 34.515625 
L 43.21875 35.40625 
Q 43.21875 41.609375 39.140625 45 
Q 35.0625 48.390625 27.6875 48.390625 
Q 23 48.390625 18.546875 47.265625 
Q 14.109375 46.140625 10.015625 43.890625 
L 10.015625 52.203125 
Q 14.9375 54.109375 19.578125 55.046875 
Q 24.21875 56 28.609375 56 
Q 40.484375 56 46.34375 49.84375 
Q 52.203125 43.703125 52.203125 31.203125 
" id="BitstreamVeraSans-Roman-61"/>
      </defs>
      <g style="fill:#262626;" transform="translate(346.03359375 522.39765625)scale(0.15 -0.15)">
       <use xlink:href="#BitstreamVeraSans-Roman-46"/>
       <use x="57.37890625" xlink:href="#BitstreamVeraSans-Roman-61"/>
       <use x="118.658203125" xlink:href="#BitstreamVeraSans-Roman-6c"/>
       <use x="146.44140625" xlink:href="#BitstreamVeraSans-Roman-6c"/>
      </g>
     </g>
    </g>
    <g id="xtick_3">
     <g id="line2d_5">
      <g>
       <use style="fill:#262626;stroke:#262626;" x="526.5" xlink:href="#mc873dc9022" y="504.0"/>
      </g>
     </g>
     <g id="line2d_6">
      <g>
       <use style="fill:#262626;stroke:#262626;" x="526.5" xlink:href="#mc873dc9022" y="57.6"/>
      </g>
     </g>
     <g id="text_3">
      <!-- Winter -->
      <defs>
       <path d="M 54.890625 33.015625 
L 54.890625 0 
L 45.90625 0 
L 45.90625 32.71875 
Q 45.90625 40.484375 42.875 44.328125 
Q 39.84375 48.1875 33.796875 48.1875 
Q 26.515625 48.1875 22.3125 43.546875 
Q 18.109375 38.921875 18.109375 30.90625 
L 18.109375 0 
L 9.078125 0 
L 9.078125 54.6875 
L 18.109375 54.6875 
L 18.109375 46.1875 
Q 21.34375 51.125 25.703125 53.5625 
Q 30.078125 56 35.796875 56 
Q 45.21875 56 50.046875 50.171875 
Q 54.890625 44.34375 54.890625 33.015625 
" id="BitstreamVeraSans-Roman-6e"/>
       <path d="M 18.3125 70.21875 
L 18.3125 54.6875 
L 36.8125 54.6875 
L 36.8125 47.703125 
L 18.3125 47.703125 
L 18.3125 18.015625 
Q 18.3125 11.328125 20.140625 9.421875 
Q 21.96875 7.515625 27.59375 7.515625 
L 36.8125 7.515625 
L 36.8125 0 
L 27.59375 0 
Q 17.1875 0 13.234375 3.875 
Q 9.28125 7.765625 9.28125 18.015625 
L 9.28125 47.703125 
L 2.6875 47.703125 
L 2.6875 54.6875 
L 9.28125 54.6875 
L 9.28125 70.21875 
z
" id="BitstreamVeraSans-Roman-74"/>
       <path d="M 3.328125 72.90625 
L 13.28125 72.90625 
L 28.609375 11.28125 
L 43.890625 72.90625 
L 54.984375 72.90625 
L 70.3125 11.28125 
L 85.59375 72.90625 
L 95.609375 72.90625 
L 77.296875 0 
L 64.890625 0 
L 49.515625 63.28125 
L 33.984375 0 
L 21.578125 0 
z
" id="BitstreamVeraSans-Roman-57"/>
       <path d="M 9.421875 54.6875 
L 18.40625 54.6875 
L 18.40625 0 
L 9.421875 0 
z
M 9.421875 75.984375 
L 18.40625 75.984375 
L 18.40625 64.59375 
L 9.421875 64.59375 
z
" id="BitstreamVeraSans-Roman-69"/>
      </defs>
      <g style="fill:#262626;" transform="translate(501.61171875 522.39765625)scale(0.15 -0.15)">
       <use xlink:href="#BitstreamVeraSans-Roman-57"/>
       <use x="98.845703125" xlink:href="#BitstreamVeraSans-Roman-69"/>
       <use x="126.62890625" xlink:href="#BitstreamVeraSans-Roman-6e"/>
       <use x="190.0078125" xlink:href="#BitstreamVeraSans-Roman-74"/>
       <use x="229.216796875" xlink:href="#BitstreamVeraSans-Roman-65"/>
       <use x="290.740234375" xlink:href="#BitstreamVeraSans-Roman-72"/>
      </g>
     </g>
    </g>
    <g id="xtick_4">
     <g id="line2d_7">
      <g>
       <use style="fill:#262626;stroke:#262626;" x="693.9" xlink:href="#mc873dc9022" y="504.0"/>
      </g>
     </g>
     <g id="line2d_8">
      <g>
       <use style="fill:#262626;stroke:#262626;" x="693.9" xlink:href="#mc873dc9022" y="57.6"/>
      </g>
     </g>
     <g id="text_4">
      <!-- Spring -->
      <defs>
       <path d="M 45.40625 27.984375 
Q 45.40625 37.75 41.375 43.109375 
Q 37.359375 48.484375 30.078125 48.484375 
Q 22.859375 48.484375 18.828125 43.109375 
Q 14.796875 37.75 14.796875 27.984375 
Q 14.796875 18.265625 18.828125 12.890625 
Q 22.859375 7.515625 30.078125 7.515625 
Q 37.359375 7.515625 41.375 12.890625 
Q 45.40625 18.265625 45.40625 27.984375 
M 54.390625 6.78125 
Q 54.390625 -7.171875 48.1875 -13.984375 
Q 42 -20.796875 29.203125 -20.796875 
Q 24.46875 -20.796875 20.265625 -20.09375 
Q 16.0625 -19.390625 12.109375 -17.921875 
L 12.109375 -9.1875 
Q 16.0625 -11.328125 19.921875 -12.34375 
Q 23.78125 -13.375 27.78125 -13.375 
Q 36.625 -13.375 41.015625 -8.765625 
Q 45.40625 -4.15625 45.40625 5.171875 
L 45.40625 9.625 
Q 42.625 4.78125 38.28125 2.390625 
Q 33.9375 0 27.875 0 
Q 17.828125 0 11.671875 7.65625 
Q 5.515625 15.328125 5.515625 27.984375 
Q 5.515625 40.671875 11.671875 48.328125 
Q 17.828125 56 27.875 56 
Q 33.9375 56 38.28125 53.609375 
Q 42.625 51.21875 45.40625 46.390625 
L 45.40625 54.6875 
L 54.390625 54.6875 
z
" id="BitstreamVeraSans-Roman-67"/>
       <path d="M 18.109375 8.203125 
L 18.109375 -20.796875 
L 9.078125 -20.796875 
L 9.078125 54.6875 
L 18.109375 54.6875 
L 18.109375 46.390625 
Q 20.953125 51.265625 25.265625 53.625 
Q 29.59375 56 35.59375 56 
Q 45.5625 56 51.78125 48.09375 
Q 58.015625 40.1875 58.015625 27.296875 
Q 58.015625 14.40625 51.78125 6.484375 
Q 45.5625 -1.421875 35.59375 -1.421875 
Q 29.59375 -1.421875 25.265625 0.953125 
Q 20.953125 3.328125 18.109375 8.203125 
M 48.6875 27.296875 
Q 48.6875 37.203125 44.609375 42.84375 
Q 40.53125 48.484375 33.40625 48.484375 
Q 26.265625 48.484375 22.1875 42.84375 
Q 18.109375 37.203125 18.109375 27.296875 
Q 18.109375 17.390625 22.1875 11.75 
Q 26.265625 6.109375 33.40625 6.109375 
Q 40.53125 6.109375 44.609375 11.75 
Q 48.6875 17.390625 48.6875 27.296875 
" id="BitstreamVeraSans-Roman-70"/>
      </defs>
      <g style="fill:#262626;" transform="translate(669.69609375 522.39765625)scale(0.15 -0.15)">
       <use xlink:href="#BitstreamVeraSans-Roman-53"/>
       <use x="63.4765625" xlink:href="#BitstreamVeraSans-Roman-70"/>
       <use x="126.953125" xlink:href="#BitstreamVeraSans-Roman-72"/>
       <use x="168.06640625" xlink:href="#BitstreamVeraSans-Roman-69"/>
       <use x="195.849609375" xlink:href="#BitstreamVeraSans-Roman-6e"/>
       <use x="259.228515625" xlink:href="#BitstreamVeraSans-Roman-67"/>
      </g>
     </g>
    </g>
    <g id="text_5">
     <!-- Season -->
     <defs>
      <path d="M 44.28125 53.078125 
L 44.28125 44.578125 
Q 40.484375 46.53125 36.375 47.5 
Q 32.28125 48.484375 27.875 48.484375 
Q 21.1875 48.484375 17.84375 46.4375 
Q 14.5 44.390625 14.5 40.28125 
Q 14.5 37.15625 16.890625 35.375 
Q 19.28125 33.59375 26.515625 31.984375 
L 29.59375 31.296875 
Q 39.15625 29.25 43.1875 25.515625 
Q 47.21875 21.78125 47.21875 15.09375 
Q 47.21875 7.46875 41.1875 3.015625 
Q 35.15625 -1.421875 24.609375 -1.421875 
Q 20.21875 -1.421875 15.453125 -0.5625 
Q 10.6875 0.296875 5.421875 2 
L 5.421875 11.28125 
Q 10.40625 8.6875 15.234375 7.390625 
Q 20.0625 6.109375 24.8125 6.109375 
Q 31.15625 6.109375 34.5625 8.28125 
Q 37.984375 10.453125 37.984375 14.40625 
Q 37.984375 18.0625 35.515625 20.015625 
Q 33.0625 21.96875 24.703125 23.78125 
L 21.578125 24.515625 
Q 13.234375 26.265625 9.515625 29.90625 
Q 5.8125 33.546875 5.8125 39.890625 
Q 5.8125 47.609375 11.28125 51.796875 
Q 16.75 56 26.8125 56 
Q 31.78125 56 36.171875 55.265625 
Q 40.578125 54.546875 44.28125 53.078125 
" id="BitstreamVeraSans-Roman-73"/>
      <path d="M 30.609375 48.390625 
Q 23.390625 48.390625 19.1875 42.75 
Q 14.984375 37.109375 14.984375 27.296875 
Q 14.984375 17.484375 19.15625 11.84375 
Q 23.34375 6.203125 30.609375 6.203125 
Q 37.796875 6.203125 41.984375 11.859375 
Q 46.1875 17.53125 46.1875 27.296875 
Q 46.1875 37.015625 41.984375 42.703125 
Q 37.796875 48.390625 30.609375 48.390625 
M 30.609375 56 
Q 42.328125 56 49.015625 48.375 
Q 55.71875 40.765625 55.71875 27.296875 
Q 55.71875 13.875 49.015625 6.21875 
Q 42.328125 -1.421875 30.609375 -1.421875 
Q 18.84375 -1.421875 12.171875 6.21875 
Q 5.515625 13.875 5.515625 27.296875 
Q 5.515625 40.765625 12.171875 48.375 
Q 18.84375 56 30.609375 56 
" id="BitstreamVeraSans-Roman-6f"/>
     </defs>
     <g style="fill:#262626;" transform="translate(412.856367187 543.054609375)scale(0.165 -0.165)">
      <use xlink:href="#BitstreamVeraSans-Roman-53"/>
      <use x="63.4765625" xlink:href="#BitstreamVeraSans-Roman-65"/>
      <use x="125.0" xlink:href="#BitstreamVeraSans-Roman-61"/>
      <use x="186.279296875" xlink:href="#BitstreamVeraSans-Roman-73"/>
      <use x="238.37890625" xlink:href="#BitstreamVeraSans-Roman-6f"/>
      <use x="299.560546875" xlink:href="#BitstreamVeraSans-Roman-6e"/>
     </g>
    </g>
   </g>
   <g id="matplotlib.axis_2">
    <g id="ytick_1">
     <g id="line2d_9">
      <path clip-path="url(#p29b7f21ff3)" d="M 108 504 
L 777.6 504 
" style="fill:none;stroke:#ffffff;stroke-linecap:round;"/>
     </g>
     <g id="line2d_10">
      <g>
       <use style="fill:#262626;stroke:#262626;" x="108.0" xlink:href="#mc873dc9022" y="504.0"/>
      </g>
     </g>
     <g id="line2d_11">
      <g>
       <use style="fill:#262626;stroke:#262626;" x="777.6" xlink:href="#mc873dc9022" y="504.0"/>
      </g>
     </g>
     <g id="text_6">
      <!-- −100 -->
      <defs>
       <path d="M 12.40625 8.296875 
L 28.515625 8.296875 
L 28.515625 63.921875 
L 10.984375 60.40625 
L 10.984375 69.390625 
L 28.421875 72.90625 
L 38.28125 72.90625 
L 38.28125 8.296875 
L 54.390625 8.296875 
L 54.390625 0 
L 12.40625 0 
z
" id="BitstreamVeraSans-Roman-31"/>
       <path d="M 31.78125 66.40625 
Q 24.171875 66.40625 20.328125 58.90625 
Q 16.5 51.421875 16.5 36.375 
Q 16.5 21.390625 20.328125 13.890625 
Q 24.171875 6.390625 31.78125 6.390625 
Q 39.453125 6.390625 43.28125 13.890625 
Q 47.125 21.390625 47.125 36.375 
Q 47.125 51.421875 43.28125 58.90625 
Q 39.453125 66.40625 31.78125 66.40625 
M 31.78125 74.21875 
Q 44.046875 74.21875 50.515625 64.515625 
Q 56.984375 54.828125 56.984375 36.375 
Q 56.984375 17.96875 50.515625 8.265625 
Q 44.046875 -1.421875 31.78125 -1.421875 
Q 19.53125 -1.421875 13.0625 8.265625 
Q 6.59375 17.96875 6.59375 36.375 
Q 6.59375 54.828125 13.0625 64.515625 
Q 19.53125 74.21875 31.78125 74.21875 
" id="BitstreamVeraSans-Roman-30"/>
       <path d="M 10.59375 35.5 
L 73.1875 35.5 
L 73.1875 27.203125 
L 10.59375 27.203125 
z
" id="BitstreamVeraSans-Roman-2212"/>
      </defs>
      <g style="fill:#262626;" transform="translate(59.79921875 508.1390625)scale(0.15 -0.15)">
       <use xlink:href="#BitstreamVeraSans-Roman-2212"/>
       <use x="83.7890625" xlink:href="#BitstreamVeraSans-Roman-31"/>
       <use x="147.412109375" xlink:href="#BitstreamVeraSans-Roman-30"/>
       <use x="211.03515625" xlink:href="#BitstreamVeraSans-Roman-30"/>
      </g>
     </g>
    </g>
    <g id="ytick_2">
     <g id="line2d_12">
      <path clip-path="url(#p29b7f21ff3)" d="M 108 429.6 
L 777.6 429.6 
" style="fill:none;stroke:#ffffff;stroke-linecap:round;"/>
     </g>
     <g id="line2d_13">
      <g>
       <use style="fill:#262626;stroke:#262626;" x="108.0" xlink:href="#mc873dc9022" y="429.6"/>
      </g>
     </g>
     <g id="line2d_14">
      <g>
       <use style="fill:#262626;stroke:#262626;" x="777.6" xlink:href="#mc873dc9022" y="429.6"/>
      </g>
     </g>
     <g id="text_7">
      <!-- 0 -->
      <g style="fill:#262626;" transform="translate(91.45625 433.7390625)scale(0.15 -0.15)">
       <use xlink:href="#BitstreamVeraSans-Roman-30"/>
      </g>
     </g>
    </g>
    <g id="ytick_3">
     <g id="line2d_15">
      <path clip-path="url(#p29b7f21ff3)" d="M 108 355.2 
L 777.6 355.2 
" style="fill:none;stroke:#ffffff;stroke-linecap:round;"/>
     </g>
     <g id="line2d_16">
      <g>
       <use style="fill:#262626;stroke:#262626;" x="108.0" xlink:href="#mc873dc9022" y="355.2"/>
      </g>
     </g>
     <g id="line2d_17">
      <g>
       <use style="fill:#262626;stroke:#262626;" x="777.6" xlink:href="#mc873dc9022" y="355.2"/>
      </g>
     </g>
     <g id="text_8">
      <!-- 100 -->
      <g style="fill:#262626;" transform="translate(72.36875 359.3390625)scale(0.15 -0.15)">
       <use xlink:href="#BitstreamVeraSans-Roman-31"/>
       <use x="63.623046875" xlink:href="#BitstreamVeraSans-Roman-30"/>
       <use x="127.24609375" xlink:href="#BitstreamVeraSans-Roman-30"/>
      </g>
     </g>
    </g>
    <g id="ytick_4">
     <g id="line2d_18">
      <path clip-path="url(#p29b7f21ff3)" d="M 108 280.8 
L 777.6 280.8 
" style="fill:none;stroke:#ffffff;stroke-linecap:round;"/>
     </g>
     <g id="line2d_19">
      <g>
       <use style="fill:#262626;stroke:#262626;" x="108.0" xlink:href="#mc873dc9022" y="280.8"/>
      </g>
     </g>
     <g id="line2d_20">
      <g>
       <use style="fill:#262626;stroke:#262626;" x="777.6" xlink:href="#mc873dc9022" y="280.8"/>
      </g>
     </g>
     <g id="text_9">
      <!-- 200 -->
      <defs>
       <path d="M 19.1875 8.296875 
L 53.609375 8.296875 
L 53.609375 0 
L 7.328125 0 
L 7.328125 8.296875 
Q 12.9375 14.109375 22.625 23.890625 
Q 32.328125 33.6875 34.8125 36.53125 
Q 39.546875 41.84375 41.421875 45.53125 
Q 43.3125 49.21875 43.3125 52.78125 
Q 43.3125 58.59375 39.234375 62.25 
Q 35.15625 65.921875 28.609375 65.921875 
Q 23.96875 65.921875 18.8125 64.3125 
Q 13.671875 62.703125 7.8125 59.421875 
L 7.8125 69.390625 
Q 13.765625 71.78125 18.9375 73 
Q 24.125 74.21875 28.421875 74.21875 
Q 39.75 74.21875 46.484375 68.546875 
Q 53.21875 62.890625 53.21875 53.421875 
Q 53.21875 48.921875 51.53125 44.890625 
Q 49.859375 40.875 45.40625 35.40625 
Q 44.1875 33.984375 37.640625 27.21875 
Q 31.109375 20.453125 19.1875 8.296875 
" id="BitstreamVeraSans-Roman-32"/>
      </defs>
      <g style="fill:#262626;" transform="translate(72.36875 284.9390625)scale(0.15 -0.15)">
       <use xlink:href="#BitstreamVeraSans-Roman-32"/>
       <use x="63.623046875" xlink:href="#BitstreamVeraSans-Roman-30"/>
       <use x="127.24609375" xlink:href="#BitstreamVeraSans-Roman-30"/>
      </g>
     </g>
    </g>
    <g id="ytick_5">
     <g id="line2d_21">
      <path clip-path="url(#p29b7f21ff3)" d="M 108 206.4 
L 777.6 206.4 
" style="fill:none;stroke:#ffffff;stroke-linecap:round;"/>
     </g>
     <g id="line2d_22">
      <g>
       <use style="fill:#262626;stroke:#262626;" x="108.0" xlink:href="#mc873dc9022" y="206.4"/>
      </g>
     </g>
     <g id="line2d_23">
      <g>
       <use style="fill:#262626;stroke:#262626;" x="777.6" xlink:href="#mc873dc9022" y="206.4"/>
      </g>
     </g>
     <g id="text_10">
      <!-- 300 -->
      <defs>
       <path d="M 40.578125 39.3125 
Q 47.65625 37.796875 51.625 33 
Q 55.609375 28.21875 55.609375 21.1875 
Q 55.609375 10.40625 48.1875 4.484375 
Q 40.765625 -1.421875 27.09375 -1.421875 
Q 22.515625 -1.421875 17.65625 -0.515625 
Q 12.796875 0.390625 7.625 2.203125 
L 7.625 11.71875 
Q 11.71875 9.328125 16.59375 8.109375 
Q 21.484375 6.890625 26.8125 6.890625 
Q 36.078125 6.890625 40.9375 10.546875 
Q 45.796875 14.203125 45.796875 21.1875 
Q 45.796875 27.640625 41.28125 31.265625 
Q 36.765625 34.90625 28.71875 34.90625 
L 20.21875 34.90625 
L 20.21875 43.015625 
L 29.109375 43.015625 
Q 36.375 43.015625 40.234375 45.921875 
Q 44.09375 48.828125 44.09375 54.296875 
Q 44.09375 59.90625 40.109375 62.90625 
Q 36.140625 65.921875 28.71875 65.921875 
Q 24.65625 65.921875 20.015625 65.03125 
Q 15.375 64.15625 9.8125 62.3125 
L 9.8125 71.09375 
Q 15.4375 72.65625 20.34375 73.4375 
Q 25.25 74.21875 29.59375 74.21875 
Q 40.828125 74.21875 47.359375 69.109375 
Q 53.90625 64.015625 53.90625 55.328125 
Q 53.90625 49.265625 50.4375 45.09375 
Q 46.96875 40.921875 40.578125 39.3125 
" id="BitstreamVeraSans-Roman-33"/>
      </defs>
      <g style="fill:#262626;" transform="translate(72.36875 210.5390625)scale(0.15 -0.15)">
       <use xlink:href="#BitstreamVeraSans-Roman-33"/>
       <use x="63.623046875" xlink:href="#BitstreamVeraSans-Roman-30"/>
       <use x="127.24609375" xlink:href="#BitstreamVeraSans-Roman-30"/>
      </g>
     </g>
    </g>
    <g id="ytick_6">
     <g id="line2d_24">
      <path clip-path="url(#p29b7f21ff3)" d="M 108 132 
L 777.6 132 
" style="fill:none;stroke:#ffffff;stroke-linecap:round;"/>
     </g>
     <g id="line2d_25">
      <g>
       <use style="fill:#262626;stroke:#262626;" x="108.0" xlink:href="#mc873dc9022" y="132.0"/>
      </g>
     </g>
     <g id="line2d_26">
      <g>
       <use style="fill:#262626;stroke:#262626;" x="777.6" xlink:href="#mc873dc9022" y="132.0"/>
      </g>
     </g>
     <g id="text_11">
      <!-- 400 -->
      <defs>
       <path d="M 37.796875 64.3125 
L 12.890625 25.390625 
L 37.796875 25.390625 
z
M 35.203125 72.90625 
L 47.609375 72.90625 
L 47.609375 25.390625 
L 58.015625 25.390625 
L 58.015625 17.1875 
L 47.609375 17.1875 
L 47.609375 0 
L 37.796875 0 
L 37.796875 17.1875 
L 4.890625 17.1875 
L 4.890625 26.703125 
z
" id="BitstreamVeraSans-Roman-34"/>
      </defs>
      <g style="fill:#262626;" transform="translate(72.36875 136.1390625)scale(0.15 -0.15)">
       <use xlink:href="#BitstreamVeraSans-Roman-34"/>
       <use x="63.623046875" xlink:href="#BitstreamVeraSans-Roman-30"/>
       <use x="127.24609375" xlink:href="#BitstreamVeraSans-Roman-30"/>
      </g>
     </g>
    </g>
    <g id="ytick_7">
     <g id="line2d_27">
      <path clip-path="url(#p29b7f21ff3)" d="M 108 57.6 
L 777.6 57.6 
" style="fill:none;stroke:#ffffff;stroke-linecap:round;"/>
     </g>
     <g id="line2d_28">
      <g>
       <use style="fill:#262626;stroke:#262626;" x="108.0" xlink:href="#mc873dc9022" y="57.6"/>
      </g>
     </g>
     <g id="line2d_29">
      <g>
       <use style="fill:#262626;stroke:#262626;" x="777.6" xlink:href="#mc873dc9022" y="57.6"/>
      </g>
     </g>
     <g id="text_12">
      <!-- 500 -->
      <defs>
       <path d="M 10.796875 72.90625 
L 49.515625 72.90625 
L 49.515625 64.59375 
L 19.828125 64.59375 
L 19.828125 46.734375 
Q 21.96875 47.46875 24.109375 47.828125 
Q 26.265625 48.1875 28.421875 48.1875 
Q 40.625 48.1875 47.75 41.5 
Q 54.890625 34.8125 54.890625 23.390625 
Q 54.890625 11.625 47.5625 5.09375 
Q 40.234375 -1.421875 26.90625 -1.421875 
Q 22.3125 -1.421875 17.546875 -0.640625 
Q 12.796875 0.140625 7.71875 1.703125 
L 7.71875 11.625 
Q 12.109375 9.234375 16.796875 8.0625 
Q 21.484375 6.890625 26.703125 6.890625 
Q 35.15625 6.890625 40.078125 11.328125 
Q 45.015625 15.765625 45.015625 23.390625 
Q 45.015625 31 40.078125 35.4375 
Q 35.15625 39.890625 26.703125 39.890625 
Q 22.75 39.890625 18.8125 39.015625 
Q 14.890625 38.140625 10.796875 36.28125 
z
" id="BitstreamVeraSans-Roman-35"/>
      </defs>
      <g style="fill:#262626;" transform="translate(72.36875 61.7390625)scale(0.15 -0.15)">
       <use xlink:href="#BitstreamVeraSans-Roman-35"/>
       <use x="63.623046875" xlink:href="#BitstreamVeraSans-Roman-30"/>
       <use x="127.24609375" xlink:href="#BitstreamVeraSans-Roman-30"/>
      </g>
     </g>
    </g>
    <g id="text_13">
     <!-- OTU Counts -->
     <defs>
      <path d="M 8.6875 72.90625 
L 18.609375 72.90625 
L 18.609375 28.609375 
Q 18.609375 16.890625 22.84375 11.734375 
Q 27.09375 6.59375 36.625 6.59375 
Q 46.09375 6.59375 50.34375 11.734375 
Q 54.59375 16.890625 54.59375 28.609375 
L 54.59375 72.90625 
L 64.5 72.90625 
L 64.5 27.390625 
Q 64.5 13.140625 57.4375 5.859375 
Q 50.390625 -1.421875 36.625 -1.421875 
Q 22.796875 -1.421875 15.734375 5.859375 
Q 8.6875 13.140625 8.6875 27.390625 
z
" id="BitstreamVeraSans-Roman-55"/>
      <path d="M -0.296875 72.90625 
L 61.375 72.90625 
L 61.375 64.59375 
L 35.5 64.59375 
L 35.5 0 
L 25.59375 0 
L 25.59375 64.59375 
L -0.296875 64.59375 
z
" id="BitstreamVeraSans-Roman-54"/>
      <path d="M 39.40625 66.21875 
Q 28.65625 66.21875 22.328125 58.203125 
Q 16.015625 50.203125 16.015625 36.375 
Q 16.015625 22.609375 22.328125 14.59375 
Q 28.65625 6.59375 39.40625 6.59375 
Q 50.140625 6.59375 56.421875 14.59375 
Q 62.703125 22.609375 62.703125 36.375 
Q 62.703125 50.203125 56.421875 58.203125 
Q 50.140625 66.21875 39.40625 66.21875 
M 39.40625 74.21875 
Q 54.734375 74.21875 63.90625 63.9375 
Q 73.09375 53.65625 73.09375 36.375 
Q 73.09375 19.140625 63.90625 8.859375 
Q 54.734375 -1.421875 39.40625 -1.421875 
Q 24.03125 -1.421875 14.8125 8.828125 
Q 5.609375 19.09375 5.609375 36.375 
Q 5.609375 53.65625 14.8125 63.9375 
Q 24.03125 74.21875 39.40625 74.21875 
" id="BitstreamVeraSans-Roman-4f"/>
      <path id="BitstreamVeraSans-Roman-20"/>
      <path d="M 64.40625 67.28125 
L 64.40625 56.890625 
Q 59.421875 61.53125 53.78125 63.8125 
Q 48.140625 66.109375 41.796875 66.109375 
Q 29.296875 66.109375 22.65625 58.46875 
Q 16.015625 50.828125 16.015625 36.375 
Q 16.015625 21.96875 22.65625 14.328125 
Q 29.296875 6.6875 41.796875 6.6875 
Q 48.140625 6.6875 53.78125 8.984375 
Q 59.421875 11.28125 64.40625 15.921875 
L 64.40625 5.609375 
Q 59.234375 2.09375 53.4375 0.328125 
Q 47.65625 -1.421875 41.21875 -1.421875 
Q 24.65625 -1.421875 15.125 8.703125 
Q 5.609375 18.84375 5.609375 36.375 
Q 5.609375 53.953125 15.125 64.078125 
Q 24.65625 74.21875 41.21875 74.21875 
Q 47.75 74.21875 53.53125 72.484375 
Q 59.328125 70.75 64.40625 67.28125 
" id="BitstreamVeraSans-Roman-43"/>
     </defs>
     <g style="fill:#262626;" transform="translate(51.367734375 329.790820313)rotate(-90.0)scale(0.165 -0.165)">
      <use xlink:href="#BitstreamVeraSans-Roman-4f"/>
      <use x="78.7109375" xlink:href="#BitstreamVeraSans-Roman-54"/>
      <use x="139.794921875" xlink:href="#BitstreamVeraSans-Roman-55"/>
      <use x="212.98828125" xlink:href="#BitstreamVeraSans-Roman-20"/>
      <use x="244.775390625" xlink:href="#BitstreamVeraSans-Roman-43"/>
      <use x="314.599609375" xlink:href="#BitstreamVeraSans-Roman-6f"/>
      <use x="375.78125" xlink:href="#BitstreamVeraSans-Roman-75"/>
      <use x="439.16015625" xlink:href="#BitstreamVeraSans-Roman-6e"/>
      <use x="502.5390625" xlink:href="#BitstreamVeraSans-Roman-74"/>
      <use x="541.748046875" xlink:href="#BitstreamVeraSans-Roman-73"/>
     </g>
    </g>
   </g>
   <g id="PolyCollection_1">
    <defs>
     <path d="M 191.797302 -135.596968 
L 191.602698 -135.596968 
L 191.522919 -138.738605 
L 191.390065 -141.880242 
L 191.176818 -145.021879 
L 190.846105 -148.163516 
L 190.349753 -151.305153 
L 189.628207 -154.44679 
L 188.612101 -157.588427 
L 187.226334 -160.730064 
L 185.397034 -163.871701 
L 183.061139 -167.013338 
L 180.177804 -170.154975 
L 176.740229 -173.296612 
L 172.786061 -176.438249 
L 168.403996 -179.579886 
L 163.733912 -182.721523 
L 158.958161 -185.86316 
L 154.283233 -189.004797 
L 149.913896 -192.146434 
L 146.025387 -195.288071 
L 142.741388 -198.429708 
L 140.124829 -201.571345 
L 138.184255 -204.712982 
L 136.892298 -207.854619 
L 136.207531 -210.996256 
L 136.089886 -214.137893 
L 136.503689 -217.27953 
L 137.409491 -220.421167 
L 138.752131 -223.562804 
L 140.454264 -226.704441 
L 142.420894 -229.846078 
L 144.553661 -232.987715 
L 146.767782 -236.129352 
L 149.003125 -239.270989 
L 151.224296 -242.412626 
L 153.410509 -245.554263 
L 155.541065 -248.6959 
L 157.583888 -251.837537 
L 159.492677 -254.979174 
L 161.214189 -258.120811 
L 162.70298 -261.262448 
L 163.938194 -264.404085 
L 164.936097 -267.545722 
L 165.753201 -270.687359 
L 166.477504 -273.828996 
L 167.20917 -276.970633 
L 168.035767 -280.11227 
L 169.009702 -283.253907 
L 170.135473 -286.395544 
L 171.371393 -289.537181 
L 172.645401 -292.678819 
L 173.879508 -295.820456 
L 175.014382 -298.962093 
L 176.025893 -302.10373 
L 176.92882 -305.245367 
L 177.76778 -308.387004 
L 178.599895 -311.528641 
L 179.475925 -314.670278 
L 180.426175 -317.811915 
L 181.454738 -320.953552 
L 182.541984 -324.095189 
L 183.652354 -327.236826 
L 184.743421 -330.378463 
L 185.773274 -333.5201 
L 186.705309 -336.661737 
L 187.511284 -339.803374 
L 188.173894 -342.945011 
L 188.689254 -346.086648 
L 189.068392 -349.228285 
L 189.336337 -352.369922 
L 189.527969 -355.511559 
L 189.681195 -358.653196 
L 189.829356 -361.794833 
L 189.995172 -364.93647 
L 190.187965 -368.078107 
L 190.404566 -371.219744 
L 190.633052 -374.361381 
L 190.857688 -377.503018 
L 191.063451 -380.644655 
L 191.239066 -383.786292 
L 191.378196 -386.927929 
L 191.479065 -390.069566 
L 191.543187 -393.211203 
L 191.573908 -396.35284 
L 191.575383 -399.494477 
L 191.552283 -402.636114 
L 191.510138 -405.777751 
L 191.455905 -408.919388 
L 191.39819 -412.061025 
L 191.34665 -415.202662 
L 191.310515 -418.344299 
L 191.29663 -421.485936 
L 191.307785 -424.627573 
L 191.342036 -427.76921 
L 191.393372 -430.910847 
L 191.453496 -434.052484 
L 191.514018 -437.194121 
L 191.56831 -440.335758 
L 191.612488 -443.477395 
L 191.645423 -446.619032 
L 191.754577 -446.619032 
L 191.754577 -446.619032 
L 191.787512 -443.477395 
L 191.83169 -440.335758 
L 191.885982 -437.194121 
L 191.946504 -434.052484 
L 192.006628 -430.910847 
L 192.057964 -427.76921 
L 192.092215 -424.627573 
L 192.10337 -421.485936 
L 192.089485 -418.344299 
L 192.05335 -415.202662 
L 192.00181 -412.061025 
L 191.944095 -408.919388 
L 191.889862 -405.777751 
L 191.847717 -402.636114 
L 191.824617 -399.494477 
L 191.826092 -396.35284 
L 191.856813 -393.211203 
L 191.920935 -390.069566 
L 192.021804 -386.927929 
L 192.160934 -383.786292 
L 192.336549 -380.644655 
L 192.542312 -377.503018 
L 192.766948 -374.361381 
L 192.995434 -371.219744 
L 193.212035 -368.078107 
L 193.404828 -364.93647 
L 193.570644 -361.794833 
L 193.718805 -358.653196 
L 193.872031 -355.511559 
L 194.063663 -352.369922 
L 194.331608 -349.228285 
L 194.710746 -346.086648 
L 195.226106 -342.945011 
L 195.888716 -339.803374 
L 196.694691 -336.661737 
L 197.626726 -333.5201 
L 198.656579 -330.378463 
L 199.747646 -327.236826 
L 200.858016 -324.095189 
L 201.945262 -320.953552 
L 202.973825 -317.811915 
L 203.924075 -314.670278 
L 204.800105 -311.528641 
L 205.63222 -308.387004 
L 206.47118 -305.245367 
L 207.374107 -302.10373 
L 208.385618 -298.962093 
L 209.520492 -295.820456 
L 210.754599 -292.678819 
L 212.028607 -289.537181 
L 213.264527 -286.395544 
L 214.390298 -283.253907 
L 215.364233 -280.11227 
L 216.19083 -276.970633 
L 216.922496 -273.828996 
L 217.646799 -270.687359 
L 218.463903 -267.545722 
L 219.461806 -264.404085 
L 220.69702 -261.262448 
L 222.185811 -258.120811 
L 223.907323 -254.979174 
L 225.816112 -251.837537 
L 227.858935 -248.6959 
L 229.989491 -245.554263 
L 232.175704 -242.412626 
L 234.396875 -239.270989 
L 236.632218 -236.129352 
L 238.846339 -232.987715 
L 240.979106 -229.846078 
L 242.945736 -226.704441 
L 244.647869 -223.562804 
L 245.990509 -220.421167 
L 246.896311 -217.27953 
L 247.310114 -214.137893 
L 247.192469 -210.996256 
L 246.507702 -207.854619 
L 245.215745 -204.712982 
L 243.275171 -201.571345 
L 240.658612 -198.429708 
L 237.374613 -195.288071 
L 233.486104 -192.146434 
L 229.116767 -189.004797 
L 224.441839 -185.86316 
L 219.666088 -182.721523 
L 214.996004 -179.579886 
L 210.613939 -176.438249 
L 206.659771 -173.296612 
L 203.222196 -170.154975 
L 200.338861 -167.013338 
L 198.002966 -163.871701 
L 196.173666 -160.730064 
L 194.787899 -157.588427 
L 193.771793 -154.44679 
L 193.050247 -151.305153 
L 192.553895 -148.163516 
L 192.223182 -145.021879 
L 192.009935 -141.880242 
L 191.877081 -138.738605 
L 191.797302 -135.596968 
z
" id="m32305725aa" style="stroke:#1e1e1e;stroke-width:1.75;"/>
    </defs>
    <g clip-path="url(#p29b7f21ff3)">
     <use style="fill:#142452;stroke:#1e1e1e;stroke-width:1.75;" x="0.0" xlink:href="#m32305725aa" y="576.0"/>
    </g>
   </g>
   <g id="PolyCollection_2">
    <defs>
     <path d="M 359.815866 -118.22488 
L 358.384134 -118.22488 
L 358.013557 -121.660353 
L 357.492947 -125.095826 
L 356.782258 -128.531299 
L 355.839425 -131.966772 
L 354.623682 -135.402246 
L 353.099733 -138.837719 
L 351.242358 -142.273192 
L 349.040893 -145.708665 
L 346.50291 -149.144138 
L 343.656482 -152.579611 
L 340.550573 -156.015084 
L 337.25339 -159.450557 
L 333.848849 -162.886031 
L 330.431579 -166.321504 
L 327.101086 -169.756977 
L 323.95572 -173.19245 
L 321.087001 -176.627923 
L 318.574707 -180.063396 
L 316.482953 -183.498869 
L 314.857397 -186.934343 
L 313.723673 -190.369816 
L 313.087131 -193.805289 
L 312.933984 -197.240762 
L 313.233808 -200.676235 
L 313.943191 -204.111708 
L 315.010055 -207.547181 
L 316.37799 -210.982654 
L 317.989886 -214.418128 
L 319.790298 -217.853601 
L 321.726308 -221.289074 
L 323.747085 -224.724547 
L 325.802729 -228.16002 
L 327.843173 -231.595493 
L 329.817872 -235.030966 
L 331.676754 -238.46644 
L 333.372451 -241.901913 
L 334.863503 -245.337386 
L 336.117909 -248.772859 
L 337.11638 -252.208332 
L 337.854738 -255.643805 
L 338.345123 -259.079278 
L 338.615879 -262.514751 
L 338.710134 -265.950225 
L 338.683168 -269.385698 
L 338.598692 -272.821171 
L 338.524184 -276.256644 
L 338.52557 -279.692117 
L 338.661653 -283.12759 
L 338.978894 -286.563063 
L 339.507201 -289.998537 
L 340.25736 -293.43401 
L 341.220515 -296.869483 
L 342.369777 -300.304956 
L 343.66369 -303.740429 
L 345.050961 -307.175902 
L 346.475744 -310.611375 
L 347.882742 -314.046849 
L 349.221597 -317.482322 
L 350.450239 -320.917795 
L 351.537095 -324.353268 
L 352.462227 -327.788741 
L 353.217526 -331.224214 
L 353.806116 -334.659687 
L 354.241057 -338.09516 
L 354.543469 -341.530634 
L 354.740194 -344.966107 
L 354.861139 -348.40158 
L 354.936552 -351.837053 
L 354.994459 -355.272526 
L 355.058542 -358.707999 
L 355.146627 -362.143472 
L 355.269929 -365.578946 
L 355.433023 -369.014419 
L 355.634486 -372.449892 
L 355.86803 -375.885365 
L 356.123942 -379.320838 
L 356.390665 -382.756311 
L 356.656319 -386.191784 
L 356.910067 -389.627257 
L 357.143206 -393.062731 
L 357.349908 -396.498204 
L 357.527579 -399.933677 
L 357.676799 -403.36915 
L 357.800884 -406.804623 
L 357.905121 -410.240096 
L 357.995803 -413.675569 
L 358.079208 -417.111043 
L 358.160681 -420.546516 
L 358.24397 -423.981989 
L 358.330886 -427.417462 
L 358.421339 -430.852935 
L 358.513669 -434.288408 
L 358.605203 -437.723881 
L 358.692877 -441.159354 
L 358.773821 -444.594828 
L 358.84579 -448.030301 
L 358.907415 -451.465774 
L 358.958252 -454.901247 
L 358.998677 -458.33672 
L 359.201323 -458.33672 
L 359.201323 -458.33672 
L 359.241748 -454.901247 
L 359.292585 -451.465774 
L 359.35421 -448.030301 
L 359.426179 -444.594828 
L 359.507123 -441.159354 
L 359.594797 -437.723881 
L 359.686331 -434.288408 
L 359.778661 -430.852935 
L 359.869114 -427.417462 
L 359.95603 -423.981989 
L 360.039319 -420.546516 
L 360.120792 -417.111043 
L 360.204197 -413.675569 
L 360.294879 -410.240096 
L 360.399116 -406.804623 
L 360.523201 -403.36915 
L 360.672421 -399.933677 
L 360.850092 -396.498204 
L 361.056794 -393.062731 
L 361.289933 -389.627257 
L 361.543681 -386.191784 
L 361.809335 -382.756311 
L 362.076058 -379.320838 
L 362.33197 -375.885365 
L 362.565514 -372.449892 
L 362.766977 -369.014419 
L 362.930071 -365.578946 
L 363.053373 -362.143472 
L 363.141458 -358.707999 
L 363.205541 -355.272526 
L 363.263448 -351.837053 
L 363.338861 -348.40158 
L 363.459806 -344.966107 
L 363.656531 -341.530634 
L 363.958943 -338.09516 
L 364.393884 -334.659687 
L 364.982474 -331.224214 
L 365.737773 -327.788741 
L 366.662905 -324.353268 
L 367.749761 -320.917795 
L 368.978403 -317.482322 
L 370.317258 -314.046849 
L 371.724256 -310.611375 
L 373.149039 -307.175902 
L 374.53631 -303.740429 
L 375.830223 -300.304956 
L 376.979485 -296.869483 
L 377.94264 -293.43401 
L 378.692799 -289.998537 
L 379.221106 -286.563063 
L 379.538347 -283.12759 
L 379.67443 -279.692117 
L 379.675816 -276.256644 
L 379.601308 -272.821171 
L 379.516832 -269.385698 
L 379.489866 -265.950225 
L 379.584121 -262.514751 
L 379.854877 -259.079278 
L 380.345262 -255.643805 
L 381.08362 -252.208332 
L 382.082091 -248.772859 
L 383.336497 -245.337386 
L 384.827549 -241.901913 
L 386.523246 -238.46644 
L 388.382128 -235.030966 
L 390.356827 -231.595493 
L 392.397271 -228.16002 
L 394.452915 -224.724547 
L 396.473692 -221.289074 
L 398.409702 -217.853601 
L 400.210114 -214.418128 
L 401.82201 -210.982654 
L 403.189945 -207.547181 
L 404.256809 -204.111708 
L 404.966192 -200.676235 
L 405.266016 -197.240762 
L 405.112869 -193.805289 
L 404.476327 -190.369816 
L 403.342603 -186.934343 
L 401.717047 -183.498869 
L 399.625293 -180.063396 
L 397.112999 -176.627923 
L 394.24428 -173.19245 
L 391.098914 -169.756977 
L 387.768421 -166.321504 
L 384.351151 -162.886031 
L 380.94661 -159.450557 
L 377.649427 -156.015084 
L 374.543518 -152.579611 
L 371.69709 -149.144138 
L 369.159107 -145.708665 
L 366.957642 -142.273192 
L 365.100267 -138.837719 
L 363.576318 -135.402246 
L 362.360575 -131.966772 
L 361.417742 -128.531299 
L 360.707053 -125.095826 
L 360.186443 -121.660353 
L 359.815866 -118.22488 
z
" id="m3a54bb395e" style="stroke:#1e1e1e;stroke-width:1.75;"/>
    </defs>
    <g clip-path="url(#p29b7f21ff3)">
     <use style="fill:#327ca5;stroke:#1e1e1e;stroke-width:1.75;" x="0.0" xlink:href="#m3a54bb395e" y="576.0"/>
    </g>
   </g>
   <g id="PolyCollection_3">
    <defs>
     <path d="M 527.261571 -122.799547 
L 525.738429 -122.799547 
L 525.349936 -125.563936 
L 524.80243 -128.328325 
L 524.050337 -131.092714 
L 523.043496 -133.857103 
L 521.730193 -136.621492 
L 520.061537 -139.385881 
L 517.997003 -142.15027 
L 515.510698 -144.914659 
L 512.597642 -147.679048 
L 509.279131 -150.443437 
L 505.606175 -153.207826 
L 501.660099 -155.972215 
L 497.549687 -158.736604 
L 493.404747 -161.500992 
L 489.366547 -164.265381 
L 485.576157 -167.02977 
L 482.1622 -169.794159 
L 479.229685 -172.558548 
L 476.851538 -175.322937 
L 475.064014 -178.087326 
L 473.866557 -180.851715 
L 473.225931 -183.616104 
L 473.083767 -186.380493 
L 473.366142 -189.144882 
L 473.993571 -191.909271 
L 474.889877 -194.67366 
L 475.988718 -197.438049 
L 477.237096 -200.202438 
L 478.595808 -202.966827 
L 480.037333 -205.731216 
L 481.542111 -208.495605 
L 483.094355 -211.259993 
L 484.678502 -214.024382 
L 486.277129 -216.788771 
L 487.870724 -219.55316 
L 489.439215 -222.317549 
L 490.964708 -225.081938 
L 492.434576 -227.846327 
L 493.843989 -230.610716 
L 495.197107 -233.375105 
L 496.506503 -236.139494 
L 497.790826 -238.903883 
L 499.071124 -241.668272 
L 500.366557 -244.432661 
L 501.690352 -247.19705 
L 503.04674 -249.961439 
L 504.429428 -252.725828 
L 505.821767 -255.490217 
L 507.198522 -258.254606 
L 508.528857 -261.018994 
L 509.780045 -263.783383 
L 510.921365 -266.547772 
L 511.927709 -269.312161 
L 512.782484 -272.07655 
L 513.479525 -274.840939 
L 514.023777 -277.605328 
L 514.430689 -280.369717 
L 514.724332 -283.134106 
L 514.934482 -285.898495 
L 515.093048 -288.662884 
L 515.230389 -291.427273 
L 515.372129 -294.191662 
L 515.536993 -296.956051 
L 515.736013 -299.72044 
L 515.973179 -302.484829 
L 516.247245 -305.249218 
L 516.554207 -308.013607 
L 516.889782 -310.777995 
L 517.251294 -313.542384 
L 517.638558 -316.306773 
L 518.053613 -319.071162 
L 518.499524 -321.835551 
L 518.978636 -324.59994 
L 519.490833 -327.364329 
L 520.032279 -330.128718 
L 520.594974 -332.893107 
L 521.16723 -335.657496 
L 521.734944 -338.421885 
L 522.283357 -341.186274 
L 522.798937 -343.950663 
L 523.271 -346.715052 
L 523.692797 -349.479441 
L 524.06192 -352.24383 
L 524.380025 -355.008219 
L 524.65201 -357.772608 
L 524.884839 -360.536996 
L 525.086266 -363.301385 
L 525.263679 -366.065774 
L 525.423229 -368.830163 
L 525.56934 -371.594552 
L 525.704601 -374.358941 
L 525.829994 -377.12333 
L 525.945329 -379.887719 
L 526.049777 -382.652108 
L 526.142375 -385.416497 
L 526.222424 -388.180886 
L 526.289726 -390.945275 
L 526.344673 -393.709664 
L 526.388193 -396.474053 
L 526.611807 -396.474053 
L 526.611807 -396.474053 
L 526.655327 -393.709664 
L 526.710274 -390.945275 
L 526.777576 -388.180886 
L 526.857625 -385.416497 
L 526.950223 -382.652108 
L 527.054671 -379.887719 
L 527.170006 -377.12333 
L 527.295399 -374.358941 
L 527.43066 -371.594552 
L 527.576771 -368.830163 
L 527.736321 -366.065774 
L 527.913734 -363.301385 
L 528.115161 -360.536996 
L 528.34799 -357.772608 
L 528.619975 -355.008219 
L 528.93808 -352.24383 
L 529.307203 -349.479441 
L 529.729 -346.715052 
L 530.201063 -343.950663 
L 530.716643 -341.186274 
L 531.265056 -338.421885 
L 531.83277 -335.657496 
L 532.405026 -332.893107 
L 532.967721 -330.128718 
L 533.509167 -327.364329 
L 534.021364 -324.59994 
L 534.500476 -321.835551 
L 534.946387 -319.071162 
L 535.361442 -316.306773 
L 535.748706 -313.542384 
L 536.110218 -310.777995 
L 536.445793 -308.013607 
L 536.752755 -305.249218 
L 537.026821 -302.484829 
L 537.263987 -299.72044 
L 537.463007 -296.956051 
L 537.627871 -294.191662 
L 537.769611 -291.427273 
L 537.906952 -288.662884 
L 538.065518 -285.898495 
L 538.275668 -283.134106 
L 538.569311 -280.369717 
L 538.976223 -277.605328 
L 539.520475 -274.840939 
L 540.217516 -272.07655 
L 541.072291 -269.312161 
L 542.078635 -266.547772 
L 543.219955 -263.783383 
L 544.471143 -261.018994 
L 545.801478 -258.254606 
L 547.178233 -255.490217 
L 548.570572 -252.725828 
L 549.95326 -249.961439 
L 551.309648 -247.19705 
L 552.633443 -244.432661 
L 553.928876 -241.668272 
L 555.209174 -238.903883 
L 556.493497 -236.139494 
L 557.802893 -233.375105 
L 559.156011 -230.610716 
L 560.565424 -227.846327 
L 562.035292 -225.081938 
L 563.560785 -222.317549 
L 565.129276 -219.55316 
L 566.722871 -216.788771 
L 568.321498 -214.024382 
L 569.905645 -211.259993 
L 571.457889 -208.495605 
L 572.962667 -205.731216 
L 574.404192 -202.966827 
L 575.762904 -200.202438 
L 577.011282 -197.438049 
L 578.110123 -194.67366 
L 579.006429 -191.909271 
L 579.633858 -189.144882 
L 579.916233 -186.380493 
L 579.774069 -183.616104 
L 579.133443 -180.851715 
L 577.935986 -178.087326 
L 576.148462 -175.322937 
L 573.770315 -172.558548 
L 570.8378 -169.794159 
L 567.423843 -167.02977 
L 563.633453 -164.265381 
L 559.595253 -161.500992 
L 555.450313 -158.736604 
L 551.339901 -155.972215 
L 547.393825 -153.207826 
L 543.720869 -150.443437 
L 540.402358 -147.679048 
L 537.489302 -144.914659 
L 535.002997 -142.15027 
L 532.938463 -139.385881 
L 531.269807 -136.621492 
L 529.956504 -133.857103 
L 528.949663 -131.092714 
L 528.19757 -128.328325 
L 527.650064 -125.563936 
L 527.261571 -122.799547 
z
" id="m5020c4c18c" style="stroke:#1e1e1e;stroke-width:1.75;"/>
    </defs>
    <g clip-path="url(#p29b7f21ff3)">
     <use style="fill:#f9fadb;stroke:#1e1e1e;stroke-width:1.75;" x="0.0" xlink:href="#m5020c4c18c" y="576.0"/>
    </g>
   </g>
   <g id="PolyCollection_4">
    <defs>
     <path d="M 694.5803 -127.201581 
L 693.2197 -127.201581 
L 692.772397 -129.922131 
L 692.092825 -132.642681 
L 691.097922 -135.363231 
L 689.694022 -138.083781 
L 687.784165 -140.804331 
L 685.278845 -143.524881 
L 682.109354 -146.24543 
L 678.242076 -148.96598 
L 673.691472 -151.68653 
L 668.529293 -154.40708 
L 662.887861 -157.12763 
L 656.956047 -159.84818 
L 650.96768 -162.56873 
L 645.18331 -165.289279 
L 639.867331 -168.009829 
L 635.263242 -170.730379 
L 631.570242 -173.450929 
L 628.924309 -176.171479 
L 627.386473 -178.892029 
L 626.94 -181.612579 
L 627.496924 -184.333129 
L 628.912808 -187.053678 
L 631.007194 -189.774228 
L 633.586252 -192.494778 
L 636.46385 -195.215328 
L 639.477916 -197.935878 
L 642.500201 -200.656428 
L 645.439198 -203.376978 
L 648.237444 -206.097528 
L 650.865378 -208.818077 
L 653.314175 -211.538627 
L 655.589393 -214.259177 
L 657.706363 -216.979727 
L 659.687142 -219.700277 
L 661.558159 -222.420827 
L 663.347521 -225.141377 
L 665.081367 -227.861927 
L 666.779482 -230.582476 
L 668.451145 -233.303026 
L 670.092612 -236.023576 
L 671.687427 -238.744126 
L 673.209968 -241.464676 
L 674.631594 -244.185226 
L 675.927769 -246.905776 
L 677.084144 -249.626326 
L 678.099826 -252.346875 
L 678.986985 -255.067425 
L 679.76713 -257.787975 
L 680.465437 -260.508525 
L 681.105041 -263.229075 
L 681.702997 -265.949625 
L 682.268923 -268.670175 
L 682.80626 -271.390725 
L 683.315259 -274.111274 
L 683.796292 -276.831824 
L 684.252173 -279.552374 
L 684.68867 -282.272924 
L 685.113135 -284.993474 
L 685.531862 -287.714024 
L 685.947235 -290.434574 
L 686.355778 -293.155124 
L 686.74789 -295.875673 
L 687.109472 -298.596223 
L 687.425013 -301.316773 
L 687.681213 -304.037323 
L 687.870061 -306.757873 
L 687.990536 -309.478423 
L 688.048564 -312.198973 
L 688.055455 -314.919523 
L 688.025511 -317.640072 
L 687.973616 -320.360622 
L 687.913516 -323.081172 
L 687.857098 -325.801722 
L 687.814606 -328.522272 
L 687.795381 -331.242822 
L 687.808632 -333.963372 
L 687.863786 -336.683922 
L 687.97017 -339.404471 
L 688.136037 -342.125021 
L 688.367156 -344.845571 
L 688.665345 -347.566121 
L 689.027366 -350.286671 
L 689.444522 -353.007221 
L 689.903142 -355.727771 
L 690.385933 -358.448321 
L 690.873941 -361.16887 
L 691.348723 -363.88942 
L 691.794314 -366.60997 
L 692.198611 -369.33052 
L 692.55402 -372.05107 
L 692.857359 -374.77162 
L 693.109201 -377.49217 
L 693.312912 -380.212719 
L 693.473632 -382.933269 
L 693.597369 -385.653819 
L 693.690318 -388.374369 
L 693.758387 -391.094919 
L 693.806921 -393.815469 
L 693.840558 -396.536019 
L 693.959442 -396.536019 
L 693.959442 -396.536019 
L 693.993079 -393.815469 
L 694.041613 -391.094919 
L 694.109682 -388.374369 
L 694.202631 -385.653819 
L 694.326368 -382.933269 
L 694.487088 -380.212719 
L 694.690799 -377.49217 
L 694.942641 -374.77162 
L 695.24598 -372.05107 
L 695.601389 -369.33052 
L 696.005686 -366.60997 
L 696.451277 -363.88942 
L 696.926059 -361.16887 
L 697.414067 -358.448321 
L 697.896858 -355.727771 
L 698.355478 -353.007221 
L 698.772634 -350.286671 
L 699.134655 -347.566121 
L 699.432844 -344.845571 
L 699.663963 -342.125021 
L 699.82983 -339.404471 
L 699.936214 -336.683922 
L 699.991368 -333.963372 
L 700.004619 -331.242822 
L 699.985394 -328.522272 
L 699.942902 -325.801722 
L 699.886484 -323.081172 
L 699.826384 -320.360622 
L 699.774489 -317.640072 
L 699.744545 -314.919523 
L 699.751436 -312.198973 
L 699.809464 -309.478423 
L 699.929939 -306.757873 
L 700.118787 -304.037323 
L 700.374987 -301.316773 
L 700.690528 -298.596223 
L 701.05211 -295.875673 
L 701.444222 -293.155124 
L 701.852765 -290.434574 
L 702.268138 -287.714024 
L 702.686865 -284.993474 
L 703.11133 -282.272924 
L 703.547827 -279.552374 
L 704.003708 -276.831824 
L 704.484741 -274.111274 
L 704.99374 -271.390725 
L 705.531077 -268.670175 
L 706.097003 -265.949625 
L 706.694959 -263.229075 
L 707.334563 -260.508525 
L 708.03287 -257.787975 
L 708.813015 -255.067425 
L 709.700174 -252.346875 
L 710.715856 -249.626326 
L 711.872231 -246.905776 
L 713.168406 -244.185226 
L 714.590032 -241.464676 
L 716.112573 -238.744126 
L 717.707388 -236.023576 
L 719.348855 -233.303026 
L 721.020518 -230.582476 
L 722.718633 -227.861927 
L 724.452479 -225.141377 
L 726.241841 -222.420827 
L 728.112858 -219.700277 
L 730.093637 -216.979727 
L 732.210607 -214.259177 
L 734.485825 -211.538627 
L 736.934622 -208.818077 
L 739.562556 -206.097528 
L 742.360802 -203.376978 
L 745.299799 -200.656428 
L 748.322084 -197.935878 
L 751.33615 -195.215328 
L 754.213748 -192.494778 
L 756.792806 -189.774228 
L 758.887192 -187.053678 
L 760.303076 -184.333129 
L 760.86 -181.612579 
L 760.413527 -178.892029 
L 758.875691 -176.171479 
L 756.229758 -173.450929 
L 752.536758 -170.730379 
L 747.932669 -168.009829 
L 742.61669 -165.289279 
L 736.83232 -162.56873 
L 730.843953 -159.84818 
L 724.912139 -157.12763 
L 719.270707 -154.40708 
L 714.108528 -151.68653 
L 709.557924 -148.96598 
L 705.690646 -146.24543 
L 702.521155 -143.524881 
L 700.015835 -140.804331 
L 698.105978 -138.083781 
L 696.702078 -135.363231 
L 695.707175 -132.642681 
L 695.027603 -129.922131 
L 694.5803 -127.201581 
z
" id="m25ba38ab00" style="stroke:#1e1e1e;stroke-width:1.75;"/>
    </defs>
    <g clip-path="url(#p29b7f21ff3)">
     <use style="fill:#9dcdb8;stroke:#1e1e1e;stroke-width:1.75;" x="0.0" xlink:href="#m25ba38ab00" y="576.0"/>
    </g>
   </g>
   <g id="line2d_30">
    <path clip-path="url(#p29b7f21ff3)" d="M 191.7 415.464 
L 191.7 228.8688 
" style="fill:none;stroke:#1e1e1e;stroke-linecap:round;stroke-width:1.75;"/>
   </g>
   <g id="line2d_31">
    <path clip-path="url(#p29b7f21ff3)" d="M 191.7 370.7496 
L 191.7 312.7176 
" style="fill:none;stroke:#1e1e1e;stroke-linecap:round;stroke-width:5.25;"/>
   </g>
   <g id="line2d_32">
    <path clip-path="url(#p29b7f21ff3)" d="M 359.1 418.2912 
L 359.1 206.5488 
" style="fill:none;stroke:#1e1e1e;stroke-linecap:round;stroke-width:1.75;"/>
   </g>
   <g id="line2d_33">
    <path clip-path="url(#p29b7f21ff3)" d="M 359.1 385.1088 
L 359.1 309.4068 
" style="fill:none;stroke:#1e1e1e;stroke-linecap:round;stroke-width:5.25;"/>
   </g>
   <g id="line2d_34">
    <path clip-path="url(#p29b7f21ff3)" d="M 526.5 420.2256 
L 526.5 247.7664 
" style="fill:none;stroke:#1e1e1e;stroke-linecap:round;stroke-width:1.75;"/>
   </g>
   <g id="line2d_35">
    <path clip-path="url(#p29b7f21ff3)" d="M 526.5 396.213 
L 526.5 334.1448 
" style="fill:none;stroke:#1e1e1e;stroke-linecap:round;stroke-width:5.25;"/>
   </g>
   <g id="line2d_36">
    <path clip-path="url(#p29b7f21ff3)" d="M 693.9 421.9368 
L 693.9 272.4672 
" style="fill:none;stroke:#1e1e1e;stroke-linecap:round;stroke-width:1.75;"/>
   </g>
   <g id="line2d_37">
    <path clip-path="url(#p29b7f21ff3)" d="M 693.9 398.3706 
L 693.9 346.6254 
" style="fill:none;stroke:#1e1e1e;stroke-linecap:round;stroke-width:5.25;"/>
   </g>
   <g id="patch_3">
    <path d="M 777.6 504 
L 777.6 57.6 
" style="fill:none;"/>
   </g>
   <g id="patch_4">
    <path d="M 108 504 
L 777.6 504 
" style="fill:none;"/>
   </g>
   <g id="patch_5">
    <path d="M 108 504 
L 108 57.6 
" style="fill:none;"/>
   </g>
   <g id="patch_6">
    <path d="M 108 57.6 
L 777.6 57.6 
" style="fill:none;"/>
   </g>
   <g id="PathCollection_1">
    <defs>
     <path d="M 0 1.75 
C 0.464105 1.75 0.909265 1.565609 1.237437 1.237437 
C 1.565609 0.909265 1.75 0.464105 1.75 0 
C 1.75 -0.464105 1.565609 -0.909265 1.237437 -1.237437 
C 0.909265 -1.565609 0.464105 -1.75 0 -1.75 
C -0.464105 -1.75 -0.909265 -1.565609 -1.237437 -1.237437 
C -1.565609 -0.909265 -1.75 -0.464105 -1.75 0 
C -1.75 0.464105 -1.565609 0.909265 -1.237437 1.237437 
C -0.909265 1.565609 -0.464105 1.75 0 1.75 
z
" id="m8db6caceab" style="stroke:#1e1e1e;stroke-width:0.3;"/>
    </defs>
    <g clip-path="url(#p29b7f21ff3)">
     <use style="fill:#ffffff;stroke:#1e1e1e;stroke-width:0.3;" x="191.7" xlink:href="#m8db6caceab" y="347.76"/>
    </g>
   </g>
   <g id="PathCollection_2">
    <g clip-path="url(#p29b7f21ff3)">
     <use style="fill:#ffffff;stroke:#1e1e1e;stroke-width:0.3;" x="359.1" xlink:href="#m8db6caceab" y="359.2176"/>
    </g>
   </g>
   <g id="PathCollection_3">
    <g clip-path="url(#p29b7f21ff3)">
     <use style="fill:#ffffff;stroke:#1e1e1e;stroke-width:0.3;" x="526.5" xlink:href="#m8db6caceab" y="370.6752"/>
    </g>
   </g>
   <g id="PathCollection_4">
    <g clip-path="url(#p29b7f21ff3)">
     <use style="fill:#ffffff;stroke:#1e1e1e;stroke-width:0.3;" x="693.9" xlink:href="#m8db6caceab" y="380.2356"/>
    </g>
   </g>
  </g>
 </g>
 <defs>
  <clipPath id="p29b7f21ff3">
   <rect height="446.4" width="669.6" x="108.0" y="57.6"/>
  </clipPath>
 </defs>
</svg>
