<?xml version="1.0" encoding="utf-8" standalone="no"?>
<!DOCTYPE svg PUBLIC "-//W3C//DTD SVG 1.1//EN"
  "http://www.w3.org/Graphics/SVG/1.1/DTD/svg11.dtd">
<!-- Created with matplotlib (http://matplotlib.org/) -->
<svg height="576pt" version="1.1" viewBox="0 0 864 576" width="864pt" xmlns="http://www.w3.org/2000/svg" xmlns:xlink="http://www.w3.org/1999/xlink">
 <defs>
  <style type="text/css">
*{stroke-linecap:butt;stroke-linejoin:round;stroke-miterlimit:100000;}
  </style>
 </defs>
 <g id="figure_1">
  <g id="patch_1">
   <path d="M 0 576 
L 864 576 
L 864 0 
L 0 0 
z
" style="fill:#ffffff;"/>
  </g>
  <g id="axes_1">
   <g id="patch_2">
    <path d="M 108 504 
L 777.6 504 
L 777.6 57.6 
L 108 57.6 
z
" style="fill:#eaeaf2;"/>
   </g>
   <g id="matplotlib.axis_1">
    <g id="xtick_1">
     <g id="line2d_1">
      <defs>
       <path d="M 0 0 
L 0 0 
" id="m0625ea54de" style="stroke:#262626;"/>
      </defs>
      <g>
       <use style="fill:#262626;stroke:#262626;" x="219.6" xlink:href="#m0625ea54de" y="504.0"/>
      </g>
     </g>
     <g id="line2d_2">
      <g>
       <use style="fill:#262626;stroke:#262626;" x="219.6" xlink:href="#m0625ea54de" y="57.6"/>
      </g>
     </g>
     <g id="text_1">
      <!-- Run 1 -->
      <defs>
       <path d="M 44.390625 34.1875 
Q 47.5625 33.109375 50.5625 29.59375 
Q 53.5625 26.078125 56.59375 19.921875 
L 66.609375 0 
L 56 0 
L 46.6875 18.703125 
Q 43.0625 26.03125 39.671875 28.421875 
Q 36.28125 30.8125 30.421875 30.8125 
L 19.671875 30.8125 
L 19.671875 0 
L 9.8125 0 
L 9.8125 72.90625 
L 32.078125 72.90625 
Q 44.578125 72.90625 50.734375 67.671875 
Q 56.890625 62.453125 56.890625 51.90625 
Q 56.890625 45.015625 53.6875 40.46875 
Q 50.484375 35.9375 44.390625 34.1875 
M 19.671875 64.796875 
L 19.671875 38.921875 
L 32.078125 38.921875 
Q 39.203125 38.921875 42.84375 42.21875 
Q 46.484375 45.515625 46.484375 51.90625 
Q 46.484375 58.296875 42.84375 61.546875 
Q 39.203125 64.796875 32.078125 64.796875 
z
" id="BitstreamVeraSans-Roman-52"/>
       <path d="M 8.5 21.578125 
L 8.5 54.6875 
L 17.484375 54.6875 
L 17.484375 21.921875 
Q 17.484375 14.15625 20.5 10.265625 
Q 23.53125 6.390625 29.59375 6.390625 
Q 36.859375 6.390625 41.078125 11.03125 
Q 45.3125 15.671875 45.3125 23.6875 
L 45.3125 54.6875 
L 54.296875 54.6875 
L 54.296875 0 
L 45.3125 0 
L 45.3125 8.40625 
Q 42.046875 3.421875 37.71875 1 
Q 33.40625 -1.421875 27.6875 -1.421875 
Q 18.265625 -1.421875 13.375 4.4375 
Q 8.5 10.296875 8.5 21.578125 
" id="BitstreamVeraSans-Roman-75"/>
       <path id="BitstreamVeraSans-Roman-20"/>
       <path d="M 54.890625 33.015625 
L 54.890625 0 
L 45.90625 0 
L 45.90625 32.71875 
Q 45.90625 40.484375 42.875 44.328125 
Q 39.84375 48.1875 33.796875 48.1875 
Q 26.515625 48.1875 22.3125 43.546875 
Q 18.109375 38.921875 18.109375 30.90625 
L 18.109375 0 
L 9.078125 0 
L 9.078125 54.6875 
L 18.109375 54.6875 
L 18.109375 46.1875 
Q 21.34375 51.125 25.703125 53.5625 
Q 30.078125 56 35.796875 56 
Q 45.21875 56 50.046875 50.171875 
Q 54.890625 44.34375 54.890625 33.015625 
" id="BitstreamVeraSans-Roman-6e"/>
       <path d="M 12.40625 8.296875 
L 28.515625 8.296875 
L 28.515625 63.921875 
L 10.984375 60.40625 
L 10.984375 69.390625 
L 28.421875 72.90625 
L 38.28125 72.90625 
L 38.28125 8.296875 
L 54.390625 8.296875 
L 54.390625 0 
L 12.40625 0 
z
" id="BitstreamVeraSans-Roman-31"/>
      </defs>
      <g style="fill:#262626;" transform="translate(197.731640625 522.39765625)scale(0.15 -0.15)">
       <use xlink:href="#BitstreamVeraSans-Roman-52"/>
       <use x="69.419921875" xlink:href="#BitstreamVeraSans-Roman-75"/>
       <use x="132.798828125" xlink:href="#BitstreamVeraSans-Roman-6e"/>
       <use x="196.177734375" xlink:href="#BitstreamVeraSans-Roman-20"/>
       <use x="227.96484375" xlink:href="#BitstreamVeraSans-Roman-31"/>
      </g>
     </g>
    </g>
    <g id="xtick_2">
     <g id="line2d_3">
      <g>
       <use style="fill:#262626;stroke:#262626;" x="442.8" xlink:href="#m0625ea54de" y="504.0"/>
      </g>
     </g>
     <g id="line2d_4">
      <g>
       <use style="fill:#262626;stroke:#262626;" x="442.8" xlink:href="#m0625ea54de" y="57.6"/>
      </g>
     </g>
     <g id="text_2">
      <!-- Run 2 -->
      <defs>
       <path d="M 19.1875 8.296875 
L 53.609375 8.296875 
L 53.609375 0 
L 7.328125 0 
L 7.328125 8.296875 
Q 12.9375 14.109375 22.625 23.890625 
Q 32.328125 33.6875 34.8125 36.53125 
Q 39.546875 41.84375 41.421875 45.53125 
Q 43.3125 49.21875 43.3125 52.78125 
Q 43.3125 58.59375 39.234375 62.25 
Q 35.15625 65.921875 28.609375 65.921875 
Q 23.96875 65.921875 18.8125 64.3125 
Q 13.671875 62.703125 7.8125 59.421875 
L 7.8125 69.390625 
Q 13.765625 71.78125 18.9375 73 
Q 24.125 74.21875 28.421875 74.21875 
Q 39.75 74.21875 46.484375 68.546875 
Q 53.21875 62.890625 53.21875 53.421875 
Q 53.21875 48.921875 51.53125 44.890625 
Q 49.859375 40.875 45.40625 35.40625 
Q 44.1875 33.984375 37.640625 27.21875 
Q 31.109375 20.453125 19.1875 8.296875 
" id="BitstreamVeraSans-Roman-32"/>
      </defs>
      <g style="fill:#262626;" transform="translate(420.931640625 522.39765625)scale(0.15 -0.15)">
       <use xlink:href="#BitstreamVeraSans-Roman-52"/>
       <use x="69.419921875" xlink:href="#BitstreamVeraSans-Roman-75"/>
       <use x="132.798828125" xlink:href="#BitstreamVeraSans-Roman-6e"/>
       <use x="196.177734375" xlink:href="#BitstreamVeraSans-Roman-20"/>
       <use x="227.96484375" xlink:href="#BitstreamVeraSans-Roman-32"/>
      </g>
     </g>
    </g>
    <g id="xtick_3">
     <g id="line2d_5">
      <g>
       <use style="fill:#262626;stroke:#262626;" x="666.0" xlink:href="#m0625ea54de" y="504.0"/>
      </g>
     </g>
     <g id="line2d_6">
      <g>
       <use style="fill:#262626;stroke:#262626;" x="666.0" xlink:href="#m0625ea54de" y="57.6"/>
      </g>
     </g>
     <g id="text_3">
      <!-- Run 3 -->
      <defs>
       <path d="M 40.578125 39.3125 
Q 47.65625 37.796875 51.625 33 
Q 55.609375 28.21875 55.609375 21.1875 
Q 55.609375 10.40625 48.1875 4.484375 
Q 40.765625 -1.421875 27.09375 -1.421875 
Q 22.515625 -1.421875 17.65625 -0.515625 
Q 12.796875 0.390625 7.625 2.203125 
L 7.625 11.71875 
Q 11.71875 9.328125 16.59375 8.109375 
Q 21.484375 6.890625 26.8125 6.890625 
Q 36.078125 6.890625 40.9375 10.546875 
Q 45.796875 14.203125 45.796875 21.1875 
Q 45.796875 27.640625 41.28125 31.265625 
Q 36.765625 34.90625 28.71875 34.90625 
L 20.21875 34.90625 
L 20.21875 43.015625 
L 29.109375 43.015625 
Q 36.375 43.015625 40.234375 45.921875 
Q 44.09375 48.828125 44.09375 54.296875 
Q 44.09375 59.90625 40.109375 62.90625 
Q 36.140625 65.921875 28.71875 65.921875 
Q 24.65625 65.921875 20.015625 65.03125 
Q 15.375 64.15625 9.8125 62.3125 
L 9.8125 71.09375 
Q 15.4375 72.65625 20.34375 73.4375 
Q 25.25 74.21875 29.59375 74.21875 
Q 40.828125 74.21875 47.359375 69.109375 
Q 53.90625 64.015625 53.90625 55.328125 
Q 53.90625 49.265625 50.4375 45.09375 
Q 46.96875 40.921875 40.578125 39.3125 
" id="BitstreamVeraSans-Roman-33"/>
      </defs>
      <g style="fill:#262626;" transform="translate(644.131640625 522.39765625)scale(0.15 -0.15)">
       <use xlink:href="#BitstreamVeraSans-Roman-52"/>
       <use x="69.419921875" xlink:href="#BitstreamVeraSans-Roman-75"/>
       <use x="132.798828125" xlink:href="#BitstreamVeraSans-Roman-6e"/>
       <use x="196.177734375" xlink:href="#BitstreamVeraSans-Roman-20"/>
       <use x="227.96484375" xlink:href="#BitstreamVeraSans-Roman-33"/>
      </g>
     </g>
    </g>
    <g id="text_4">
     <!-- Run -->
     <g style="fill:#262626;" transform="translate(426.615820313 543.054609375)scale(0.165 -0.165)">
      <use xlink:href="#BitstreamVeraSans-Roman-52"/>
      <use x="69.419921875" xlink:href="#BitstreamVeraSans-Roman-75"/>
      <use x="132.798828125" xlink:href="#BitstreamVeraSans-Roman-6e"/>
     </g>
    </g>
   </g>
   <g id="matplotlib.axis_2">
    <g id="ytick_1">
     <g id="line2d_7">
      <path clip-path="url(#p23e2cfa165)" d="M 108 504 
L 777.6 504 
" style="fill:none;stroke:#ffffff;stroke-linecap:round;"/>
     </g>
     <g id="line2d_8">
      <g>
       <use style="fill:#262626;stroke:#262626;" x="108.0" xlink:href="#m0625ea54de" y="504.0"/>
      </g>
     </g>
     <g id="line2d_9">
      <g>
       <use style="fill:#262626;stroke:#262626;" x="777.6" xlink:href="#m0625ea54de" y="504.0"/>
      </g>
     </g>
     <g id="text_5">
      <!-- −100 -->
      <defs>
       <path d="M 31.78125 66.40625 
Q 24.171875 66.40625 20.328125 58.90625 
Q 16.5 51.421875 16.5 36.375 
Q 16.5 21.390625 20.328125 13.890625 
Q 24.171875 6.390625 31.78125 6.390625 
Q 39.453125 6.390625 43.28125 13.890625 
Q 47.125 21.390625 47.125 36.375 
Q 47.125 51.421875 43.28125 58.90625 
Q 39.453125 66.40625 31.78125 66.40625 
M 31.78125 74.21875 
Q 44.046875 74.21875 50.515625 64.515625 
Q 56.984375 54.828125 56.984375 36.375 
Q 56.984375 17.96875 50.515625 8.265625 
Q 44.046875 -1.421875 31.78125 -1.421875 
Q 19.53125 -1.421875 13.0625 8.265625 
Q 6.59375 17.96875 6.59375 36.375 
Q 6.59375 54.828125 13.0625 64.515625 
Q 19.53125 74.21875 31.78125 74.21875 
" id="BitstreamVeraSans-Roman-30"/>
       <path d="M 10.59375 35.5 
L 73.1875 35.5 
L 73.1875 27.203125 
L 10.59375 27.203125 
z
" id="BitstreamVeraSans-Roman-2212"/>
      </defs>
      <g style="fill:#262626;" transform="translate(59.79921875 508.1390625)scale(0.15 -0.15)">
       <use xlink:href="#BitstreamVeraSans-Roman-2212"/>
       <use x="83.7890625" xlink:href="#BitstreamVeraSans-Roman-31"/>
       <use x="147.412109375" xlink:href="#BitstreamVeraSans-Roman-30"/>
       <use x="211.03515625" xlink:href="#BitstreamVeraSans-Roman-30"/>
      </g>
     </g>
    </g>
    <g id="ytick_2">
     <g id="line2d_10">
      <path clip-path="url(#p23e2cfa165)" d="M 108 429.6 
L 777.6 429.6 
" style="fill:none;stroke:#ffffff;stroke-linecap:round;"/>
     </g>
     <g id="line2d_11">
      <g>
       <use style="fill:#262626;stroke:#262626;" x="108.0" xlink:href="#m0625ea54de" y="429.6"/>
      </g>
     </g>
     <g id="line2d_12">
      <g>
       <use style="fill:#262626;stroke:#262626;" x="777.6" xlink:href="#m0625ea54de" y="429.6"/>
      </g>
     </g>
     <g id="text_6">
      <!-- 0 -->
      <g style="fill:#262626;" transform="translate(91.45625 433.7390625)scale(0.15 -0.15)">
       <use xlink:href="#BitstreamVeraSans-Roman-30"/>
      </g>
     </g>
    </g>
    <g id="ytick_3">
     <g id="line2d_13">
      <path clip-path="url(#p23e2cfa165)" d="M 108 355.2 
L 777.6 355.2 
" style="fill:none;stroke:#ffffff;stroke-linecap:round;"/>
     </g>
     <g id="line2d_14">
      <g>
       <use style="fill:#262626;stroke:#262626;" x="108.0" xlink:href="#m0625ea54de" y="355.2"/>
      </g>
     </g>
     <g id="line2d_15">
      <g>
       <use style="fill:#262626;stroke:#262626;" x="777.6" xlink:href="#m0625ea54de" y="355.2"/>
      </g>
     </g>
     <g id="text_7">
      <!-- 100 -->
      <g style="fill:#262626;" transform="translate(72.36875 359.3390625)scale(0.15 -0.15)">
       <use xlink:href="#BitstreamVeraSans-Roman-31"/>
       <use x="63.623046875" xlink:href="#BitstreamVeraSans-Roman-30"/>
       <use x="127.24609375" xlink:href="#BitstreamVeraSans-Roman-30"/>
      </g>
     </g>
    </g>
    <g id="ytick_4">
     <g id="line2d_16">
      <path clip-path="url(#p23e2cfa165)" d="M 108 280.8 
L 777.6 280.8 
" style="fill:none;stroke:#ffffff;stroke-linecap:round;"/>
     </g>
     <g id="line2d_17">
      <g>
       <use style="fill:#262626;stroke:#262626;" x="108.0" xlink:href="#m0625ea54de" y="280.8"/>
      </g>
     </g>
     <g id="line2d_18">
      <g>
       <use style="fill:#262626;stroke:#262626;" x="777.6" xlink:href="#m0625ea54de" y="280.8"/>
      </g>
     </g>
     <g id="text_8">
      <!-- 200 -->
      <g style="fill:#262626;" transform="translate(72.36875 284.9390625)scale(0.15 -0.15)">
       <use xlink:href="#BitstreamVeraSans-Roman-32"/>
       <use x="63.623046875" xlink:href="#BitstreamVeraSans-Roman-30"/>
       <use x="127.24609375" xlink:href="#BitstreamVeraSans-Roman-30"/>
      </g>
     </g>
    </g>
    <g id="ytick_5">
     <g id="line2d_19">
      <path clip-path="url(#p23e2cfa165)" d="M 108 206.4 
L 777.6 206.4 
" style="fill:none;stroke:#ffffff;stroke-linecap:round;"/>
     </g>
     <g id="line2d_20">
      <g>
       <use style="fill:#262626;stroke:#262626;" x="108.0" xlink:href="#m0625ea54de" y="206.4"/>
      </g>
     </g>
     <g id="line2d_21">
      <g>
       <use style="fill:#262626;stroke:#262626;" x="777.6" xlink:href="#m0625ea54de" y="206.4"/>
      </g>
     </g>
     <g id="text_9">
      <!-- 300 -->
      <g style="fill:#262626;" transform="translate(72.36875 210.5390625)scale(0.15 -0.15)">
       <use xlink:href="#BitstreamVeraSans-Roman-33"/>
       <use x="63.623046875" xlink:href="#BitstreamVeraSans-Roman-30"/>
       <use x="127.24609375" xlink:href="#BitstreamVeraSans-Roman-30"/>
      </g>
     </g>
    </g>
    <g id="ytick_6">
     <g id="line2d_22">
      <path clip-path="url(#p23e2cfa165)" d="M 108 132 
L 777.6 132 
" style="fill:none;stroke:#ffffff;stroke-linecap:round;"/>
     </g>
     <g id="line2d_23">
      <g>
       <use style="fill:#262626;stroke:#262626;" x="108.0" xlink:href="#m0625ea54de" y="132.0"/>
      </g>
     </g>
     <g id="line2d_24">
      <g>
       <use style="fill:#262626;stroke:#262626;" x="777.6" xlink:href="#m0625ea54de" y="132.0"/>
      </g>
     </g>
     <g id="text_10">
      <!-- 400 -->
      <defs>
       <path d="M 37.796875 64.3125 
L 12.890625 25.390625 
L 37.796875 25.390625 
z
M 35.203125 72.90625 
L 47.609375 72.90625 
L 47.609375 25.390625 
L 58.015625 25.390625 
L 58.015625 17.1875 
L 47.609375 17.1875 
L 47.609375 0 
L 37.796875 0 
L 37.796875 17.1875 
L 4.890625 17.1875 
L 4.890625 26.703125 
z
" id="BitstreamVeraSans-Roman-34"/>
      </defs>
      <g style="fill:#262626;" transform="translate(72.36875 136.1390625)scale(0.15 -0.15)">
       <use xlink:href="#BitstreamVeraSans-Roman-34"/>
       <use x="63.623046875" xlink:href="#BitstreamVeraSans-Roman-30"/>
       <use x="127.24609375" xlink:href="#BitstreamVeraSans-Roman-30"/>
      </g>
     </g>
    </g>
    <g id="ytick_7">
     <g id="line2d_25">
      <path clip-path="url(#p23e2cfa165)" d="M 108 57.6 
L 777.6 57.6 
" style="fill:none;stroke:#ffffff;stroke-linecap:round;"/>
     </g>
     <g id="line2d_26">
      <g>
       <use style="fill:#262626;stroke:#262626;" x="108.0" xlink:href="#m0625ea54de" y="57.6"/>
      </g>
     </g>
     <g id="line2d_27">
      <g>
       <use style="fill:#262626;stroke:#262626;" x="777.6" xlink:href="#m0625ea54de" y="57.6"/>
      </g>
     </g>
     <g id="text_11">
      <!-- 500 -->
      <defs>
       <path d="M 10.796875 72.90625 
L 49.515625 72.90625 
L 49.515625 64.59375 
L 19.828125 64.59375 
L 19.828125 46.734375 
Q 21.96875 47.46875 24.109375 47.828125 
Q 26.265625 48.1875 28.421875 48.1875 
Q 40.625 48.1875 47.75 41.5 
Q 54.890625 34.8125 54.890625 23.390625 
Q 54.890625 11.625 47.5625 5.09375 
Q 40.234375 -1.421875 26.90625 -1.421875 
Q 22.3125 -1.421875 17.546875 -0.640625 
Q 12.796875 0.140625 7.71875 1.703125 
L 7.71875 11.625 
Q 12.109375 9.234375 16.796875 8.0625 
Q 21.484375 6.890625 26.703125 6.890625 
Q 35.15625 6.890625 40.078125 11.328125 
Q 45.015625 15.765625 45.015625 23.390625 
Q 45.015625 31 40.078125 35.4375 
Q 35.15625 39.890625 26.703125 39.890625 
Q 22.75 39.890625 18.8125 39.015625 
Q 14.890625 38.140625 10.796875 36.28125 
z
" id="BitstreamVeraSans-Roman-35"/>
      </defs>
      <g style="fill:#262626;" transform="translate(72.36875 61.7390625)scale(0.15 -0.15)">
       <use xlink:href="#BitstreamVeraSans-Roman-35"/>
       <use x="63.623046875" xlink:href="#BitstreamVeraSans-Roman-30"/>
       <use x="127.24609375" xlink:href="#BitstreamVeraSans-Roman-30"/>
      </g>
     </g>
    </g>
    <g id="text_12">
     <!-- OTU Counts -->
     <defs>
      <path d="M 30.609375 48.390625 
Q 23.390625 48.390625 19.1875 42.75 
Q 14.984375 37.109375 14.984375 27.296875 
Q 14.984375 17.484375 19.15625 11.84375 
Q 23.34375 6.203125 30.609375 6.203125 
Q 37.796875 6.203125 41.984375 11.859375 
Q 46.1875 17.53125 46.1875 27.296875 
Q 46.1875 37.015625 41.984375 42.703125 
Q 37.796875 48.390625 30.609375 48.390625 
M 30.609375 56 
Q 42.328125 56 49.015625 48.375 
Q 55.71875 40.765625 55.71875 27.296875 
Q 55.71875 13.875 49.015625 6.21875 
Q 42.328125 -1.421875 30.609375 -1.421875 
Q 18.84375 -1.421875 12.171875 6.21875 
Q 5.515625 13.875 5.515625 27.296875 
Q 5.515625 40.765625 12.171875 48.375 
Q 18.84375 56 30.609375 56 
" id="BitstreamVeraSans-Roman-6f"/>
      <path d="M 39.40625 66.21875 
Q 28.65625 66.21875 22.328125 58.203125 
Q 16.015625 50.203125 16.015625 36.375 
Q 16.015625 22.609375 22.328125 14.59375 
Q 28.65625 6.59375 39.40625 6.59375 
Q 50.140625 6.59375 56.421875 14.59375 
Q 62.703125 22.609375 62.703125 36.375 
Q 62.703125 50.203125 56.421875 58.203125 
Q 50.140625 66.21875 39.40625 66.21875 
M 39.40625 74.21875 
Q 54.734375 74.21875 63.90625 63.9375 
Q 73.09375 53.65625 73.09375 36.375 
Q 73.09375 19.140625 63.90625 8.859375 
Q 54.734375 -1.421875 39.40625 -1.421875 
Q 24.03125 -1.421875 14.8125 8.828125 
Q 5.609375 19.09375 5.609375 36.375 
Q 5.609375 53.65625 14.8125 63.9375 
Q 24.03125 74.21875 39.40625 74.21875 
" id="BitstreamVeraSans-Roman-4f"/>
      <path d="M 18.3125 70.21875 
L 18.3125 54.6875 
L 36.8125 54.6875 
L 36.8125 47.703125 
L 18.3125 47.703125 
L 18.3125 18.015625 
Q 18.3125 11.328125 20.140625 9.421875 
Q 21.96875 7.515625 27.59375 7.515625 
L 36.8125 7.515625 
L 36.8125 0 
L 27.59375 0 
Q 17.1875 0 13.234375 3.875 
Q 9.28125 7.765625 9.28125 18.015625 
L 9.28125 47.703125 
L 2.6875 47.703125 
L 2.6875 54.6875 
L 9.28125 54.6875 
L 9.28125 70.21875 
z
" id="BitstreamVeraSans-Roman-74"/>
      <path d="M 64.40625 67.28125 
L 64.40625 56.890625 
Q 59.421875 61.53125 53.78125 63.8125 
Q 48.140625 66.109375 41.796875 66.109375 
Q 29.296875 66.109375 22.65625 58.46875 
Q 16.015625 50.828125 16.015625 36.375 
Q 16.015625 21.96875 22.65625 14.328125 
Q 29.296875 6.6875 41.796875 6.6875 
Q 48.140625 6.6875 53.78125 8.984375 
Q 59.421875 11.28125 64.40625 15.921875 
L 64.40625 5.609375 
Q 59.234375 2.09375 53.4375 0.328125 
Q 47.65625 -1.421875 41.21875 -1.421875 
Q 24.65625 -1.421875 15.125 8.703125 
Q 5.609375 18.84375 5.609375 36.375 
Q 5.609375 53.953125 15.125 64.078125 
Q 24.65625 74.21875 41.21875 74.21875 
Q 47.75 74.21875 53.53125 72.484375 
Q 59.328125 70.75 64.40625 67.28125 
" id="BitstreamVeraSans-Roman-43"/>
      <path d="M 8.6875 72.90625 
L 18.609375 72.90625 
L 18.609375 28.609375 
Q 18.609375 16.890625 22.84375 11.734375 
Q 27.09375 6.59375 36.625 6.59375 
Q 46.09375 6.59375 50.34375 11.734375 
Q 54.59375 16.890625 54.59375 28.609375 
L 54.59375 72.90625 
L 64.5 72.90625 
L 64.5 27.390625 
Q 64.5 13.140625 57.4375 5.859375 
Q 50.390625 -1.421875 36.625 -1.421875 
Q 22.796875 -1.421875 15.734375 5.859375 
Q 8.6875 13.140625 8.6875 27.390625 
z
" id="BitstreamVeraSans-Roman-55"/>
      <path d="M -0.296875 72.90625 
L 61.375 72.90625 
L 61.375 64.59375 
L 35.5 64.59375 
L 35.5 0 
L 25.59375 0 
L 25.59375 64.59375 
L -0.296875 64.59375 
z
" id="BitstreamVeraSans-Roman-54"/>
      <path d="M 44.28125 53.078125 
L 44.28125 44.578125 
Q 40.484375 46.53125 36.375 47.5 
Q 32.28125 48.484375 27.875 48.484375 
Q 21.1875 48.484375 17.84375 46.4375 
Q 14.5 44.390625 14.5 40.28125 
Q 14.5 37.15625 16.890625 35.375 
Q 19.28125 33.59375 26.515625 31.984375 
L 29.59375 31.296875 
Q 39.15625 29.25 43.1875 25.515625 
Q 47.21875 21.78125 47.21875 15.09375 
Q 47.21875 7.46875 41.1875 3.015625 
Q 35.15625 -1.421875 24.609375 -1.421875 
Q 20.21875 -1.421875 15.453125 -0.5625 
Q 10.6875 0.296875 5.421875 2 
L 5.421875 11.28125 
Q 10.40625 8.6875 15.234375 7.390625 
Q 20.0625 6.109375 24.8125 6.109375 
Q 31.15625 6.109375 34.5625 8.28125 
Q 37.984375 10.453125 37.984375 14.40625 
Q 37.984375 18.0625 35.515625 20.015625 
Q 33.0625 21.96875 24.703125 23.78125 
L 21.578125 24.515625 
Q 13.234375 26.265625 9.515625 29.90625 
Q 5.8125 33.546875 5.8125 39.890625 
Q 5.8125 47.609375 11.28125 51.796875 
Q 16.75 56 26.8125 56 
Q 31.78125 56 36.171875 55.265625 
Q 40.578125 54.546875 44.28125 53.078125 
" id="BitstreamVeraSans-Roman-73"/>
     </defs>
     <g style="fill:#262626;" transform="translate(51.367734375 329.790820313)rotate(-90.0)scale(0.165 -0.165)">
      <use xlink:href="#BitstreamVeraSans-Roman-4f"/>
      <use x="78.7109375" xlink:href="#BitstreamVeraSans-Roman-54"/>
      <use x="139.794921875" xlink:href="#BitstreamVeraSans-Roman-55"/>
      <use x="212.98828125" xlink:href="#BitstreamVeraSans-Roman-20"/>
      <use x="244.775390625" xlink:href="#BitstreamVeraSans-Roman-43"/>
      <use x="314.599609375" xlink:href="#BitstreamVeraSans-Roman-6f"/>
      <use x="375.78125" xlink:href="#BitstreamVeraSans-Roman-75"/>
      <use x="439.16015625" xlink:href="#BitstreamVeraSans-Roman-6e"/>
      <use x="502.5390625" xlink:href="#BitstreamVeraSans-Roman-74"/>
      <use x="541.748046875" xlink:href="#BitstreamVeraSans-Roman-73"/>
     </g>
    </g>
   </g>
   <g id="PolyCollection_1">
    <defs>
     <path d="M 219.720738 -134.638551 
L 219.479262 -134.638551 
L 219.383225 -137.79955 
L 219.224917 -140.960549 
L 218.972965 -144.121548 
L 218.584895 -147.282546 
L 218.005358 -150.443545 
L 217.165149 -153.604544 
L 215.981702 -156.765543 
L 214.361894 -159.926542 
L 212.207908 -163.087541 
L 209.426758 -166.24854 
L 205.943557 -169.409539 
L 201.717786 -172.570538 
L 196.76056 -175.731537 
L 191.14938 -178.892536 
L 185.035684 -182.053535 
L 178.640577 -185.214534 
L 172.236122 -188.375533 
L 166.113664 -191.536532 
L 160.545463 -194.697531 
L 155.749526 -197.85853 
L 151.867616 -201.019529 
L 148.962257 -204.180528 
L 147.031491 -207.341527 
L 146.033231 -210.502526 
L 145.907899 -213.663525 
L 146.590312 -216.824524 
L 148.008337 -219.985523 
L 150.0732 -223.146522 
L 152.670358 -226.307521 
L 155.658802 -229.46852 
L 158.881403 -232.629519 
L 162.182844 -235.790518 
L 165.428046 -238.951517 
L 168.514319 -242.112516 
L 171.373877 -245.273515 
L 173.967771 -248.434514 
L 176.275537 -251.595513 
L 178.285818 -254.756512 
L 179.992112 -257.917511 
L 181.395238 -261.07851 
L 182.511141 -264.239509 
L 183.380189 -267.400508 
L 184.072914 -270.561507 
L 184.687813 -273.722506 
L 185.339331 -276.883505 
L 186.137814 -280.044504 
L 187.166771 -283.205503 
L 188.46462 -286.366502 
L 190.017271 -289.527501 
L 191.764557 -292.688499 
L 193.618721 -295.849498 
L 195.488969 -299.010497 
L 197.304061 -302.171496 
L 199.025921 -305.332495 
L 200.650836 -308.493494 
L 202.199478 -311.654493 
L 203.700824 -314.815492 
L 205.17651 -317.976491 
L 206.630871 -321.13749 
L 208.04885 -324.298489 
L 209.400573 -327.459488 
L 210.649491 -330.620487 
L 211.760883 -333.781486 
L 212.70874 -336.942485 
L 213.48047 -340.103484 
L 214.079461 -343.264483 
L 214.525449 -346.425482 
L 214.852287 -349.586481 
L 215.102901 -352.74748 
L 215.322041 -355.908479 
L 215.548421 -359.069478 
L 215.808393 -362.230477 
L 216.112907 -365.391476 
L 216.458378 -368.552475 
L 216.83073 -371.713474 
L 217.210913 -374.874473 
L 217.579995 -378.035472 
L 217.922446 -381.196471 
L 218.227159 -384.35747 
L 218.486688 -387.518469 
L 218.695774 -390.679468 
L 218.850282 -393.840467 
L 218.947309 -397.001466 
L 218.986519 -400.162465 
L 218.972157 -403.323464 
L 218.914696 -406.484463 
L 218.831089 -409.645462 
L 218.742993 -412.806461 
L 218.673071 -415.96746 
L 218.640315 -419.128459 
L 218.655875 -422.289458 
L 218.720802 -425.450457 
L 218.826519 -428.611456 
L 218.957777 -431.772455 
L 219.096993 -434.933454 
L 219.228464 -438.094452 
L 219.341234 -441.255451 
L 219.430073 -444.41645 
L 219.494792 -447.577449 
L 219.705208 -447.577449 
L 219.705208 -447.577449 
L 219.769927 -444.41645 
L 219.858766 -441.255451 
L 219.971536 -438.094452 
L 220.103007 -434.933454 
L 220.242223 -431.772455 
L 220.373481 -428.611456 
L 220.479198 -425.450457 
L 220.544125 -422.289458 
L 220.559685 -419.128459 
L 220.526929 -415.96746 
L 220.457007 -412.806461 
L 220.368911 -409.645462 
L 220.285304 -406.484463 
L 220.227843 -403.323464 
L 220.213481 -400.162465 
L 220.252691 -397.001466 
L 220.349718 -393.840467 
L 220.504226 -390.679468 
L 220.713312 -387.518469 
L 220.972841 -384.35747 
L 221.277554 -381.196471 
L 221.620005 -378.035472 
L 221.989087 -374.874473 
L 222.36927 -371.713474 
L 222.741622 -368.552475 
L 223.087093 -365.391476 
L 223.391607 -362.230477 
L 223.651579 -359.069478 
L 223.877959 -355.908479 
L 224.097099 -352.74748 
L 224.347713 -349.586481 
L 224.674551 -346.425482 
L 225.120539 -343.264483 
L 225.71953 -340.103484 
L 226.49126 -336.942485 
L 227.439117 -333.781486 
L 228.550509 -330.620487 
L 229.799427 -327.459488 
L 231.15115 -324.298489 
L 232.569129 -321.13749 
L 234.02349 -317.976491 
L 235.499176 -314.815492 
L 237.000522 -311.654493 
L 238.549164 -308.493494 
L 240.174079 -305.332495 
L 241.895939 -302.171496 
L 243.711031 -299.010497 
L 245.581279 -295.849498 
L 247.435443 -292.688499 
L 249.182729 -289.527501 
L 250.73538 -286.366502 
L 252.033229 -283.205503 
L 253.062186 -280.044504 
L 253.860669 -276.883505 
L 254.512187 -273.722506 
L 255.127086 -270.561507 
L 255.819811 -267.400508 
L 256.688859 -264.239509 
L 257.804762 -261.07851 
L 259.207888 -257.917511 
L 260.914182 -254.756512 
L 262.924463 -251.595513 
L 265.232229 -248.434514 
L 267.826123 -245.273515 
L 270.685681 -242.112516 
L 273.771954 -238.951517 
L 277.017156 -235.790518 
L 280.318597 -232.629519 
L 283.541198 -229.46852 
L 286.529642 -226.307521 
L 289.1268 -223.146522 
L 291.191663 -219.985523 
L 292.609688 -216.824524 
L 293.292101 -213.663525 
L 293.166769 -210.502526 
L 292.168509 -207.341527 
L 290.237743 -204.180528 
L 287.332384 -201.019529 
L 283.450474 -197.85853 
L 278.654537 -194.697531 
L 273.086336 -191.536532 
L 266.963878 -188.375533 
L 260.559423 -185.214534 
L 254.164316 -182.053535 
L 248.05062 -178.892536 
L 242.43944 -175.731537 
L 237.482214 -172.570538 
L 233.256443 -169.409539 
L 229.773242 -166.24854 
L 226.992092 -163.087541 
L 224.838106 -159.926542 
L 223.218298 -156.765543 
L 222.034851 -153.604544 
L 221.194642 -150.443545 
L 220.615105 -147.282546 
L 220.227035 -144.121548 
L 219.975083 -140.960549 
L 219.816775 -137.79955 
L 219.720738 -134.638551 
z
" id="m3bad80d36e" style="stroke:#1e1e1e;stroke-width:1.75;"/>
    </defs>
    <g clip-path="url(#p23e2cfa165)">
     <use style="fill:#142452;stroke:#1e1e1e;stroke-width:1.75;" x="0.0" xlink:href="#m3bad80d36e" y="576.0"/>
    </g>
   </g>
   <g id="PolyCollection_2">
    <defs>
     <path d="M 443.769677 -125.818427 
L 441.830323 -125.818427 
L 441.277364 -128.560908 
L 440.473313 -131.303388 
L 439.339172 -134.045868 
L 437.787518 -136.788348 
L 435.728853 -139.530829 
L 433.080797 -142.273309 
L 429.779647 -145.015789 
L 425.793099 -147.758269 
L 421.132332 -150.50075 
L 415.861214 -153.24323 
L 410.100389 -155.98571 
L 404.024488 -158.72819 
L 397.85169 -161.470671 
L 391.826218 -164.213151 
L 386.195771 -166.955631 
L 381.1871 -169.698111 
L 376.983482 -172.440592 
L 373.707732 -175.183072 
L 371.413358 -177.925552 
L 370.085015 -180.668032 
L 369.647591 -183.410513 
L 369.981767 -186.152993 
L 370.942872 -188.895473 
L 372.379648 -191.637953 
L 374.150005 -194.380434 
L 376.131926 -197.122914 
L 378.228912 -199.865394 
L 380.370508 -202.607874 
L 382.509248 -205.350355 
L 384.615661 -208.092835 
L 386.672885 -210.835315 
L 388.672032 -213.577796 
L 390.608915 -216.320276 
L 392.482282 -219.062756 
L 394.293342 -221.805236 
L 396.046138 -224.547717 
L 397.748251 -227.290197 
L 399.411294 -230.032677 
L 401.050759 -232.775157 
L 402.684914 -235.517638 
L 404.332673 -238.260118 
L 406.010632 -241.002598 
L 407.729698 -243.745078 
L 409.491928 -246.487559 
L 411.288229 -249.230039 
L 413.097427 -251.972519 
L 414.88705 -254.714999 
L 416.61583 -257.45748 
L 418.23772 -260.19996 
L 419.706996 -262.94244 
L 420.98387 -265.68492 
L 422.039964 -268.427401 
L 422.862908 -271.169881 
L 423.45935 -273.912361 
L 423.855728 -276.654841 
L 424.09638 -279.397322 
L 424.238982 -282.139802 
L 424.347767 -284.882282 
L 424.485494 -287.624762 
L 424.705527 -290.367243 
L 425.045445 -293.109723 
L 425.523408 -295.852203 
L 426.13793 -298.594683 
L 426.870998 -301.337164 
L 427.693706 -304.079644 
L 428.573072 -306.822124 
L 429.47848 -309.564604 
L 430.386418 -312.307085 
L 431.282669 -315.049565 
L 432.161835 -317.792045 
L 433.024714 -320.534526 
L 433.874529 -323.277006 
L 434.71313 -326.019486 
L 435.538174 -328.761966 
L 436.341867 -331.504447 
L 437.111415 -334.246927 
L 437.830887 -336.989407 
L 438.483931 -339.731887 
L 439.056678 -342.474368 
L 439.540222 -345.216848 
L 439.932246 -347.959328 
L 440.237551 -350.701808 
L 440.467468 -353.444289 
L 440.638303 -356.186769 
L 440.769091 -358.929249 
L 440.879064 -361.671729 
L 440.985222 -364.41421 
L 441.100409 -367.15669 
L 441.232176 -369.89917 
L 441.382565 -372.64165 
L 441.548768 -375.384131 
L 441.724458 -378.126611 
L 441.901452 -380.869091 
L 442.071389 -383.611571 
L 442.227094 -386.354052 
L 442.363464 -389.096532 
L 442.477815 -391.839012 
L 442.569751 -394.581492 
L 442.640706 -397.323973 
L 442.959294 -397.323973 
L 442.959294 -397.323973 
L 443.030249 -394.581492 
L 443.122185 -391.839012 
L 443.236536 -389.096532 
L 443.372906 -386.354052 
L 443.528611 -383.611571 
L 443.698548 -380.869091 
L 443.875542 -378.126611 
L 444.051232 -375.384131 
L 444.217435 -372.64165 
L 444.367824 -369.89917 
L 444.499591 -367.15669 
L 444.614778 -364.41421 
L 444.720936 -361.671729 
L 444.830909 -358.929249 
L 444.961697 -356.186769 
L 445.132532 -353.444289 
L 445.362449 -350.701808 
L 445.667754 -347.959328 
L 446.059778 -345.216848 
L 446.543322 -342.474368 
L 447.116069 -339.731887 
L 447.769113 -336.989407 
L 448.488585 -334.246927 
L 449.258133 -331.504447 
L 450.061826 -328.761966 
L 450.88687 -326.019486 
L 451.725471 -323.277006 
L 452.575286 -320.534526 
L 453.438165 -317.792045 
L 454.317331 -315.049565 
L 455.213582 -312.307085 
L 456.12152 -309.564604 
L 457.026928 -306.822124 
L 457.906294 -304.079644 
L 458.729002 -301.337164 
L 459.46207 -298.594683 
L 460.076592 -295.852203 
L 460.554555 -293.109723 
L 460.894473 -290.367243 
L 461.114506 -287.624762 
L 461.252233 -284.882282 
L 461.361018 -282.139802 
L 461.50362 -279.397322 
L 461.744272 -276.654841 
L 462.14065 -273.912361 
L 462.737092 -271.169881 
L 463.560036 -268.427401 
L 464.61613 -265.68492 
L 465.893004 -262.94244 
L 467.36228 -260.19996 
L 468.98417 -257.45748 
L 470.71295 -254.714999 
L 472.502573 -251.972519 
L 474.311771 -249.230039 
L 476.108072 -246.487559 
L 477.870302 -243.745078 
L 479.589368 -241.002598 
L 481.267327 -238.260118 
L 482.915086 -235.517638 
L 484.549241 -232.775157 
L 486.188706 -230.032677 
L 487.851749 -227.290197 
L 489.553862 -224.547717 
L 491.306658 -221.805236 
L 493.117718 -219.062756 
L 494.991085 -216.320276 
L 496.927968 -213.577796 
L 498.927115 -210.835315 
L 500.984339 -208.092835 
L 503.090752 -205.350355 
L 505.229492 -202.607874 
L 507.371088 -199.865394 
L 509.468074 -197.122914 
L 511.449995 -194.380434 
L 513.220352 -191.637953 
L 514.657128 -188.895473 
L 515.618233 -186.152993 
L 515.952409 -183.410513 
L 515.514985 -180.668032 
L 514.186642 -177.925552 
L 511.892268 -175.183072 
L 508.616518 -172.440592 
L 504.4129 -169.698111 
L 499.404229 -166.955631 
L 493.773782 -164.213151 
L 487.74831 -161.470671 
L 481.575512 -158.72819 
L 475.499611 -155.98571 
L 469.738786 -153.24323 
L 464.467668 -150.50075 
L 459.806901 -147.758269 
L 455.820353 -145.015789 
L 452.519203 -142.273309 
L 449.871147 -139.530829 
L 447.812482 -136.788348 
L 446.260828 -134.045868 
L 445.126687 -131.303388 
L 444.322636 -128.560908 
L 443.769677 -125.818427 
z
" id="m88178f1f04" style="stroke:#1e1e1e;stroke-width:1.75;"/>
    </defs>
    <g clip-path="url(#p23e2cfa165)">
     <use style="fill:#f9fadb;stroke:#1e1e1e;stroke-width:1.75;" x="0.0" xlink:href="#m88178f1f04" y="576.0"/>
    </g>
   </g>
   <g id="PolyCollection_3">
    <defs>
     <path d="M 666.877512 -127.381213 
L 665.122488 -127.381213 
L 664.541628 -130.098134 
L 663.657223 -132.815055 
L 662.360048 -135.531976 
L 660.526784 -138.248897 
L 658.029636 -140.965818 
L 654.75046 -143.682739 
L 650.598258 -146.39966 
L 645.527825 -149.116581 
L 639.55655 -151.833502 
L 632.776157 -154.550423 
L 625.356626 -157.267344 
L 617.540653 -159.984265 
L 609.628494 -162.701186 
L 601.95457 -165.418107 
L 594.858576 -168.135028 
L 588.654657 -170.851948 
L 583.602616 -173.568869 
L 579.884874 -176.28579 
L 577.592199 -179.002711 
L 576.72 -181.719632 
L 577.175431 -184.436553 
L 578.793876 -187.153474 
L 581.361903 -189.870395 
L 584.642867 -192.587316 
L 588.401181 -195.304237 
L 592.421999 -198.021158 
L 596.524358 -200.738079 
L 600.567393 -203.455 
L 604.450682 -206.171921 
L 608.110608 -208.888842 
L 611.514854 -211.605763 
L 614.656687 -214.322684 
L 617.549846 -217.039604 
L 620.223937 -219.756525 
L 622.719662 -222.473446 
L 625.083154 -225.190367 
L 627.35916 -227.907288 
L 629.583702 -230.624209 
L 631.777603 -233.34113 
L 633.942622 -236.058051 
L 636.061631 -238.774972 
L 638.103232 -241.491893 
L 640.029896 -244.208814 
L 641.807523 -246.925735 
L 643.41376 -249.642656 
L 644.842794 -252.359577 
L 646.105422 -255.076498 
L 647.224783 -257.793419 
L 648.229451 -260.51034 
L 649.146325 -263.22726 
L 649.995532 -265.944181 
L 650.788628 -268.661102 
L 651.5301 -271.378023 
L 652.220986 -274.094944 
L 652.862874 -276.811865 
L 653.460564 -279.528786 
L 654.022395 -282.245707 
L 654.558187 -284.962628 
L 655.075666 -287.679549 
L 655.576839 -290.39647 
L 656.055804 -293.113391 
L 656.499038 -295.830312 
L 656.888318 -298.547233 
L 657.205539 -301.264154 
L 657.437955 -303.981075 
L 657.582221 -306.697996 
L 657.645955 -309.414916 
L 657.646421 -312.131837 
L 657.606848 -314.848758 
L 657.55167 -317.565679 
L 657.502205 -320.2826 
L 657.473993 -322.999521 
L 657.476327 -325.716442 
L 657.513751 -328.433363 
L 657.588661 -331.150284 
L 657.703937 -333.867205 
L 657.864671 -336.584126 
L 658.078445 -339.301047 
L 658.354133 -342.017968 
L 658.699657 -344.734889 
L 659.119361 -347.45181 
L 659.611801 -350.168731 
L 660.168535 -352.885652 
L 660.774298 -355.602572 
L 661.40851 -358.319493 
L 662.047794 -361.036414 
L 662.668899 -363.753335 
L 663.251411 -366.470256 
L 663.77973 -369.187177 
L 664.24402 -371.904098 
L 664.640172 -374.621019 
L 664.968972 -377.33794 
L 665.234856 -380.054861 
L 665.444569 -382.771782 
L 665.605983 -385.488703 
L 665.727196 -388.205624 
L 665.815929 -390.922545 
L 665.879161 -393.639466 
L 665.922949 -396.356387 
L 666.077051 -396.356387 
L 666.077051 -396.356387 
L 666.120839 -393.639466 
L 666.184071 -390.922545 
L 666.272804 -388.205624 
L 666.394017 -385.488703 
L 666.555431 -382.771782 
L 666.765144 -380.054861 
L 667.031028 -377.33794 
L 667.359828 -374.621019 
L 667.75598 -371.904098 
L 668.22027 -369.187177 
L 668.748589 -366.470256 
L 669.331101 -363.753335 
L 669.952206 -361.036414 
L 670.59149 -358.319493 
L 671.225702 -355.602572 
L 671.831465 -352.885652 
L 672.388199 -350.168731 
L 672.880639 -347.45181 
L 673.300343 -344.734889 
L 673.645867 -342.017968 
L 673.921555 -339.301047 
L 674.135329 -336.584126 
L 674.296063 -333.867205 
L 674.411339 -331.150284 
L 674.486249 -328.433363 
L 674.523673 -325.716442 
L 674.526007 -322.999521 
L 674.497795 -320.2826 
L 674.44833 -317.565679 
L 674.393152 -314.848758 
L 674.353579 -312.131837 
L 674.354045 -309.414916 
L 674.417779 -306.697996 
L 674.562045 -303.981075 
L 674.794461 -301.264154 
L 675.111682 -298.547233 
L 675.500962 -295.830312 
L 675.944196 -293.113391 
L 676.423161 -290.39647 
L 676.924334 -287.679549 
L 677.441813 -284.962628 
L 677.977605 -282.245707 
L 678.539436 -279.528786 
L 679.137126 -276.811865 
L 679.779014 -274.094944 
L 680.4699 -271.378023 
L 681.211372 -268.661102 
L 682.004468 -265.944181 
L 682.853675 -263.22726 
L 683.770549 -260.51034 
L 684.775217 -257.793419 
L 685.894578 -255.076498 
L 687.157206 -252.359577 
L 688.58624 -249.642656 
L 690.192477 -246.925735 
L 691.970104 -244.208814 
L 693.896768 -241.491893 
L 695.938369 -238.774972 
L 698.057378 -236.058051 
L 700.222397 -233.34113 
L 702.416298 -230.624209 
L 704.64084 -227.907288 
L 706.916846 -225.190367 
L 709.280338 -222.473446 
L 711.776063 -219.756525 
L 714.450154 -217.039604 
L 717.343313 -214.322684 
L 720.485146 -211.605763 
L 723.889392 -208.888842 
L 727.549318 -206.171921 
L 731.432607 -203.455 
L 735.475642 -200.738079 
L 739.578001 -198.021158 
L 743.598819 -195.304237 
L 747.357133 -192.587316 
L 750.638097 -189.870395 
L 753.206124 -187.153474 
L 754.824569 -184.436553 
L 755.28 -181.719632 
L 754.407801 -179.002711 
L 752.115126 -176.28579 
L 748.397384 -173.568869 
L 743.345343 -170.851948 
L 737.141424 -168.135028 
L 730.04543 -165.418107 
L 722.371506 -162.701186 
L 714.459347 -159.984265 
L 706.643374 -157.267344 
L 699.223843 -154.550423 
L 692.44345 -151.833502 
L 686.472175 -149.116581 
L 681.401742 -146.39966 
L 677.24954 -143.682739 
L 673.970364 -140.965818 
L 671.473216 -138.248897 
L 669.639952 -135.531976 
L 668.342777 -132.815055 
L 667.458372 -130.098134 
L 666.877512 -127.381213 
z
" id="m961c12ef5d" style="stroke:#1e1e1e;stroke-width:1.75;"/>
    </defs>
    <g clip-path="url(#p23e2cfa165)">
     <use style="fill:#327ca5;stroke:#1e1e1e;stroke-width:1.75;" x="0.0" xlink:href="#m961c12ef5d" y="576.0"/>
    </g>
   </g>
   <g id="line2d_28">
    <path clip-path="url(#p23e2cfa165)" d="M 219.6 415.464 
L 219.6 214.212 
" style="fill:none;stroke:#1e1e1e;stroke-linecap:round;stroke-width:1.75;"/>
   </g>
   <g id="line2d_29">
    <path clip-path="url(#p23e2cfa165)" d="M 219.6 370.6008 
L 219.6 307.956 
" style="fill:none;stroke:#1e1e1e;stroke-linecap:round;stroke-width:5.25;"/>
   </g>
   <g id="line2d_30">
    <path clip-path="url(#p23e2cfa165)" d="M 442.8 420.2256 
L 442.8 247.7664 
" style="fill:none;stroke:#1e1e1e;stroke-linecap:round;stroke-width:1.75;"/>
   </g>
   <g id="line2d_31">
    <path clip-path="url(#p23e2cfa165)" d="M 442.8 396.3432 
L 442.8 333.8844 
" style="fill:none;stroke:#1e1e1e;stroke-linecap:round;stroke-width:5.25;"/>
   </g>
   <g id="line2d_32">
    <path clip-path="url(#p23e2cfa165)" d="M 666 421.9368 
L 666 272.4672 
" style="fill:none;stroke:#1e1e1e;stroke-linecap:round;stroke-width:1.75;"/>
   </g>
   <g id="line2d_33">
    <path clip-path="url(#p23e2cfa165)" d="M 666 397.8312 
L 666 346.4394 
" style="fill:none;stroke:#1e1e1e;stroke-linecap:round;stroke-width:5.25;"/>
   </g>
   <g id="patch_3">
    <path d="M 777.6 504 
L 777.6 57.6 
" style="fill:none;"/>
   </g>
   <g id="patch_4">
    <path d="M 108 504 
L 777.6 504 
" style="fill:none;"/>
   </g>
   <g id="patch_5">
    <path d="M 108 504 
L 108 57.6 
" style="fill:none;"/>
   </g>
   <g id="patch_6">
    <path d="M 108 57.6 
L 777.6 57.6 
" style="fill:none;"/>
   </g>
   <g id="PathCollection_1">
    <defs>
     <path d="M 0 1.75 
C 0.464105 1.75 0.909265 1.565609 1.237437 1.237437 
C 1.565609 0.909265 1.75 0.464105 1.75 0 
C 1.75 -0.464105 1.565609 -0.909265 1.237437 -1.237437 
C 0.909265 -1.565609 0.464105 -1.75 0 -1.75 
C -0.464105 -1.75 -0.909265 -1.565609 -1.237437 -1.237437 
C -1.565609 -0.909265 -1.75 -0.464105 -1.75 0 
C -1.75 0.464105 -1.565609 0.909265 -1.237437 1.237437 
C -0.909265 1.565609 -0.464105 1.75 0 1.75 
z
" id="md79534baed" style="stroke:#1e1e1e;stroke-width:0.3;"/>
    </defs>
    <g clip-path="url(#p23e2cfa165)">
     <use style="fill:#ffffff;stroke:#1e1e1e;stroke-width:0.3;" x="219.6" xlink:href="#md79534baed" y="347.2392"/>
    </g>
   </g>
   <g id="PathCollection_2">
    <g clip-path="url(#p23e2cfa165)">
     <use style="fill:#ffffff;stroke:#1e1e1e;stroke-width:0.3;" x="442.8" xlink:href="#md79534baed" y="370.7496"/>
    </g>
   </g>
   <g id="PathCollection_3">
    <g clip-path="url(#p23e2cfa165)">
     <use style="fill:#ffffff;stroke:#1e1e1e;stroke-width:0.3;" x="666.0" xlink:href="#md79534baed" y="380.1984"/>
    </g>
   </g>
  </g>
 </g>
 <defs>
  <clipPath id="p23e2cfa165">
   <rect height="446.4" width="669.6" x="108.0" y="57.6"/>
  </clipPath>
 </defs>
</svg>
