<?xml version="1.0" encoding="utf-8" standalone="no"?>
<!DOCTYPE svg PUBLIC "-//W3C//DTD SVG 1.1//EN"
  "http://www.w3.org/Graphics/SVG/1.1/DTD/svg11.dtd">
<!-- Created with matplotlib (http://matplotlib.org/) -->
<svg height="576pt" version="1.1" viewBox="0 0 864 576" width="864pt" xmlns="http://www.w3.org/2000/svg" xmlns:xlink="http://www.w3.org/1999/xlink">
 <defs>
  <style type="text/css">
*{stroke-linecap:butt;stroke-linejoin:round;stroke-miterlimit:100000;}
  </style>
 </defs>
 <g id="figure_1">
  <g id="patch_1">
   <path d="M 0 576 
L 864 576 
L 864 0 
L 0 0 
z
" style="fill:#ffffff;"/>
  </g>
  <g id="axes_1">
   <g id="patch_2">
    <path d="M 108 504 
L 777.6 504 
L 777.6 57.6 
L 108 57.6 
z
" style="fill:#eaeaf2;"/>
   </g>
   <g id="matplotlib.axis_1">
    <g id="xtick_1">
     <g id="line2d_1">
      <defs>
       <path d="M 0 0 
L 0 0 
" id="ma32c5c4cd3" style="stroke:#262626;"/>
      </defs>
      <g>
       <use style="fill:#262626;stroke:#262626;" x="219.6" xlink:href="#ma32c5c4cd3" y="504.0"/>
      </g>
     </g>
     <g id="line2d_2">
      <g>
       <use style="fill:#262626;stroke:#262626;" x="219.6" xlink:href="#ma32c5c4cd3" y="57.6"/>
      </g>
     </g>
     <g id="text_1">
      <!-- Run 1 -->
      <defs>
       <path d="M 44.390625 34.1875 
Q 47.5625 33.109375 50.5625 29.59375 
Q 53.5625 26.078125 56.59375 19.921875 
L 66.609375 0 
L 56 0 
L 46.6875 18.703125 
Q 43.0625 26.03125 39.671875 28.421875 
Q 36.28125 30.8125 30.421875 30.8125 
L 19.671875 30.8125 
L 19.671875 0 
L 9.8125 0 
L 9.8125 72.90625 
L 32.078125 72.90625 
Q 44.578125 72.90625 50.734375 67.671875 
Q 56.890625 62.453125 56.890625 51.90625 
Q 56.890625 45.015625 53.6875 40.46875 
Q 50.484375 35.9375 44.390625 34.1875 
M 19.671875 64.796875 
L 19.671875 38.921875 
L 32.078125 38.921875 
Q 39.203125 38.921875 42.84375 42.21875 
Q 46.484375 45.515625 46.484375 51.90625 
Q 46.484375 58.296875 42.84375 61.546875 
Q 39.203125 64.796875 32.078125 64.796875 
z
" id="BitstreamVeraSans-Roman-52"/>
       <path d="M 8.5 21.578125 
L 8.5 54.6875 
L 17.484375 54.6875 
L 17.484375 21.921875 
Q 17.484375 14.15625 20.5 10.265625 
Q 23.53125 6.390625 29.59375 6.390625 
Q 36.859375 6.390625 41.078125 11.03125 
Q 45.3125 15.671875 45.3125 23.6875 
L 45.3125 54.6875 
L 54.296875 54.6875 
L 54.296875 0 
L 45.3125 0 
L 45.3125 8.40625 
Q 42.046875 3.421875 37.71875 1 
Q 33.40625 -1.421875 27.6875 -1.421875 
Q 18.265625 -1.421875 13.375 4.4375 
Q 8.5 10.296875 8.5 21.578125 
" id="BitstreamVeraSans-Roman-75"/>
       <path id="BitstreamVeraSans-Roman-20"/>
       <path d="M 54.890625 33.015625 
L 54.890625 0 
L 45.90625 0 
L 45.90625 32.71875 
Q 45.90625 40.484375 42.875 44.328125 
Q 39.84375 48.1875 33.796875 48.1875 
Q 26.515625 48.1875 22.3125 43.546875 
Q 18.109375 38.921875 18.109375 30.90625 
L 18.109375 0 
L 9.078125 0 
L 9.078125 54.6875 
L 18.109375 54.6875 
L 18.109375 46.1875 
Q 21.34375 51.125 25.703125 53.5625 
Q 30.078125 56 35.796875 56 
Q 45.21875 56 50.046875 50.171875 
Q 54.890625 44.34375 54.890625 33.015625 
" id="BitstreamVeraSans-Roman-6e"/>
       <path d="M 12.40625 8.296875 
L 28.515625 8.296875 
L 28.515625 63.921875 
L 10.984375 60.40625 
L 10.984375 69.390625 
L 28.421875 72.90625 
L 38.28125 72.90625 
L 38.28125 8.296875 
L 54.390625 8.296875 
L 54.390625 0 
L 12.40625 0 
z
" id="BitstreamVeraSans-Roman-31"/>
      </defs>
      <g style="fill:#262626;" transform="translate(197.731640625 522.39765625)scale(0.15 -0.15)">
       <use xlink:href="#BitstreamVeraSans-Roman-52"/>
       <use x="69.419921875" xlink:href="#BitstreamVeraSans-Roman-75"/>
       <use x="132.798828125" xlink:href="#BitstreamVeraSans-Roman-6e"/>
       <use x="196.177734375" xlink:href="#BitstreamVeraSans-Roman-20"/>
       <use x="227.96484375" xlink:href="#BitstreamVeraSans-Roman-31"/>
      </g>
     </g>
    </g>
    <g id="xtick_2">
     <g id="line2d_3">
      <g>
       <use style="fill:#262626;stroke:#262626;" x="442.8" xlink:href="#ma32c5c4cd3" y="504.0"/>
      </g>
     </g>
     <g id="line2d_4">
      <g>
       <use style="fill:#262626;stroke:#262626;" x="442.8" xlink:href="#ma32c5c4cd3" y="57.6"/>
      </g>
     </g>
     <g id="text_2">
      <!-- Run 2 -->
      <defs>
       <path d="M 19.1875 8.296875 
L 53.609375 8.296875 
L 53.609375 0 
L 7.328125 0 
L 7.328125 8.296875 
Q 12.9375 14.109375 22.625 23.890625 
Q 32.328125 33.6875 34.8125 36.53125 
Q 39.546875 41.84375 41.421875 45.53125 
Q 43.3125 49.21875 43.3125 52.78125 
Q 43.3125 58.59375 39.234375 62.25 
Q 35.15625 65.921875 28.609375 65.921875 
Q 23.96875 65.921875 18.8125 64.3125 
Q 13.671875 62.703125 7.8125 59.421875 
L 7.8125 69.390625 
Q 13.765625 71.78125 18.9375 73 
Q 24.125 74.21875 28.421875 74.21875 
Q 39.75 74.21875 46.484375 68.546875 
Q 53.21875 62.890625 53.21875 53.421875 
Q 53.21875 48.921875 51.53125 44.890625 
Q 49.859375 40.875 45.40625 35.40625 
Q 44.1875 33.984375 37.640625 27.21875 
Q 31.109375 20.453125 19.1875 8.296875 
" id="BitstreamVeraSans-Roman-32"/>
      </defs>
      <g style="fill:#262626;" transform="translate(420.931640625 522.39765625)scale(0.15 -0.15)">
       <use xlink:href="#BitstreamVeraSans-Roman-52"/>
       <use x="69.419921875" xlink:href="#BitstreamVeraSans-Roman-75"/>
       <use x="132.798828125" xlink:href="#BitstreamVeraSans-Roman-6e"/>
       <use x="196.177734375" xlink:href="#BitstreamVeraSans-Roman-20"/>
       <use x="227.96484375" xlink:href="#BitstreamVeraSans-Roman-32"/>
      </g>
     </g>
    </g>
    <g id="xtick_3">
     <g id="line2d_5">
      <g>
       <use style="fill:#262626;stroke:#262626;" x="666.0" xlink:href="#ma32c5c4cd3" y="504.0"/>
      </g>
     </g>
     <g id="line2d_6">
      <g>
       <use style="fill:#262626;stroke:#262626;" x="666.0" xlink:href="#ma32c5c4cd3" y="57.6"/>
      </g>
     </g>
     <g id="text_3">
      <!-- Run 3 -->
      <defs>
       <path d="M 40.578125 39.3125 
Q 47.65625 37.796875 51.625 33 
Q 55.609375 28.21875 55.609375 21.1875 
Q 55.609375 10.40625 48.1875 4.484375 
Q 40.765625 -1.421875 27.09375 -1.421875 
Q 22.515625 -1.421875 17.65625 -0.515625 
Q 12.796875 0.390625 7.625 2.203125 
L 7.625 11.71875 
Q 11.71875 9.328125 16.59375 8.109375 
Q 21.484375 6.890625 26.8125 6.890625 
Q 36.078125 6.890625 40.9375 10.546875 
Q 45.796875 14.203125 45.796875 21.1875 
Q 45.796875 27.640625 41.28125 31.265625 
Q 36.765625 34.90625 28.71875 34.90625 
L 20.21875 34.90625 
L 20.21875 43.015625 
L 29.109375 43.015625 
Q 36.375 43.015625 40.234375 45.921875 
Q 44.09375 48.828125 44.09375 54.296875 
Q 44.09375 59.90625 40.109375 62.90625 
Q 36.140625 65.921875 28.71875 65.921875 
Q 24.65625 65.921875 20.015625 65.03125 
Q 15.375 64.15625 9.8125 62.3125 
L 9.8125 71.09375 
Q 15.4375 72.65625 20.34375 73.4375 
Q 25.25 74.21875 29.59375 74.21875 
Q 40.828125 74.21875 47.359375 69.109375 
Q 53.90625 64.015625 53.90625 55.328125 
Q 53.90625 49.265625 50.4375 45.09375 
Q 46.96875 40.921875 40.578125 39.3125 
" id="BitstreamVeraSans-Roman-33"/>
      </defs>
      <g style="fill:#262626;" transform="translate(644.131640625 522.39765625)scale(0.15 -0.15)">
       <use xlink:href="#BitstreamVeraSans-Roman-52"/>
       <use x="69.419921875" xlink:href="#BitstreamVeraSans-Roman-75"/>
       <use x="132.798828125" xlink:href="#BitstreamVeraSans-Roman-6e"/>
       <use x="196.177734375" xlink:href="#BitstreamVeraSans-Roman-20"/>
       <use x="227.96484375" xlink:href="#BitstreamVeraSans-Roman-33"/>
      </g>
     </g>
    </g>
    <g id="text_4">
     <!-- Run -->
     <g style="fill:#262626;" transform="translate(426.615820313 543.054609375)scale(0.165 -0.165)">
      <use xlink:href="#BitstreamVeraSans-Roman-52"/>
      <use x="69.419921875" xlink:href="#BitstreamVeraSans-Roman-75"/>
      <use x="132.798828125" xlink:href="#BitstreamVeraSans-Roman-6e"/>
     </g>
    </g>
   </g>
   <g id="matplotlib.axis_2">
    <g id="ytick_1">
     <g id="line2d_7">
      <path clip-path="url(#pfc5a8f1b97)" d="M 108 504 
L 777.6 504 
" style="fill:none;stroke:#ffffff;stroke-linecap:round;"/>
     </g>
     <g id="line2d_8">
      <g>
       <use style="fill:#262626;stroke:#262626;" x="108.0" xlink:href="#ma32c5c4cd3" y="504.0"/>
      </g>
     </g>
     <g id="line2d_9">
      <g>
       <use style="fill:#262626;stroke:#262626;" x="777.6" xlink:href="#ma32c5c4cd3" y="504.0"/>
      </g>
     </g>
     <g id="text_5">
      <!-- −100 -->
      <defs>
       <path d="M 31.78125 66.40625 
Q 24.171875 66.40625 20.328125 58.90625 
Q 16.5 51.421875 16.5 36.375 
Q 16.5 21.390625 20.328125 13.890625 
Q 24.171875 6.390625 31.78125 6.390625 
Q 39.453125 6.390625 43.28125 13.890625 
Q 47.125 21.390625 47.125 36.375 
Q 47.125 51.421875 43.28125 58.90625 
Q 39.453125 66.40625 31.78125 66.40625 
M 31.78125 74.21875 
Q 44.046875 74.21875 50.515625 64.515625 
Q 56.984375 54.828125 56.984375 36.375 
Q 56.984375 17.96875 50.515625 8.265625 
Q 44.046875 -1.421875 31.78125 -1.421875 
Q 19.53125 -1.421875 13.0625 8.265625 
Q 6.59375 17.96875 6.59375 36.375 
Q 6.59375 54.828125 13.0625 64.515625 
Q 19.53125 74.21875 31.78125 74.21875 
" id="BitstreamVeraSans-Roman-30"/>
       <path d="M 10.59375 35.5 
L 73.1875 35.5 
L 73.1875 27.203125 
L 10.59375 27.203125 
z
" id="BitstreamVeraSans-Roman-2212"/>
      </defs>
      <g style="fill:#262626;" transform="translate(59.79921875 508.1390625)scale(0.15 -0.15)">
       <use xlink:href="#BitstreamVeraSans-Roman-2212"/>
       <use x="83.7890625" xlink:href="#BitstreamVeraSans-Roman-31"/>
       <use x="147.412109375" xlink:href="#BitstreamVeraSans-Roman-30"/>
       <use x="211.03515625" xlink:href="#BitstreamVeraSans-Roman-30"/>
      </g>
     </g>
    </g>
    <g id="ytick_2">
     <g id="line2d_10">
      <path clip-path="url(#pfc5a8f1b97)" d="M 108 414.72 
L 777.6 414.72 
" style="fill:none;stroke:#ffffff;stroke-linecap:round;"/>
     </g>
     <g id="line2d_11">
      <g>
       <use style="fill:#262626;stroke:#262626;" x="108.0" xlink:href="#ma32c5c4cd3" y="414.72"/>
      </g>
     </g>
     <g id="line2d_12">
      <g>
       <use style="fill:#262626;stroke:#262626;" x="777.6" xlink:href="#ma32c5c4cd3" y="414.72"/>
      </g>
     </g>
     <g id="text_6">
      <!-- 0 -->
      <g style="fill:#262626;" transform="translate(91.45625 418.8590625)scale(0.15 -0.15)">
       <use xlink:href="#BitstreamVeraSans-Roman-30"/>
      </g>
     </g>
    </g>
    <g id="ytick_3">
     <g id="line2d_13">
      <path clip-path="url(#pfc5a8f1b97)" d="M 108 325.44 
L 777.6 325.44 
" style="fill:none;stroke:#ffffff;stroke-linecap:round;"/>
     </g>
     <g id="line2d_14">
      <g>
       <use style="fill:#262626;stroke:#262626;" x="108.0" xlink:href="#ma32c5c4cd3" y="325.44"/>
      </g>
     </g>
     <g id="line2d_15">
      <g>
       <use style="fill:#262626;stroke:#262626;" x="777.6" xlink:href="#ma32c5c4cd3" y="325.44"/>
      </g>
     </g>
     <g id="text_7">
      <!-- 100 -->
      <g style="fill:#262626;" transform="translate(72.36875 329.5790625)scale(0.15 -0.15)">
       <use xlink:href="#BitstreamVeraSans-Roman-31"/>
       <use x="63.623046875" xlink:href="#BitstreamVeraSans-Roman-30"/>
       <use x="127.24609375" xlink:href="#BitstreamVeraSans-Roman-30"/>
      </g>
     </g>
    </g>
    <g id="ytick_4">
     <g id="line2d_16">
      <path clip-path="url(#pfc5a8f1b97)" d="M 108 236.16 
L 777.6 236.16 
" style="fill:none;stroke:#ffffff;stroke-linecap:round;"/>
     </g>
     <g id="line2d_17">
      <g>
       <use style="fill:#262626;stroke:#262626;" x="108.0" xlink:href="#ma32c5c4cd3" y="236.16"/>
      </g>
     </g>
     <g id="line2d_18">
      <g>
       <use style="fill:#262626;stroke:#262626;" x="777.6" xlink:href="#ma32c5c4cd3" y="236.16"/>
      </g>
     </g>
     <g id="text_8">
      <!-- 200 -->
      <g style="fill:#262626;" transform="translate(72.36875 240.2990625)scale(0.15 -0.15)">
       <use xlink:href="#BitstreamVeraSans-Roman-32"/>
       <use x="63.623046875" xlink:href="#BitstreamVeraSans-Roman-30"/>
       <use x="127.24609375" xlink:href="#BitstreamVeraSans-Roman-30"/>
      </g>
     </g>
    </g>
    <g id="ytick_5">
     <g id="line2d_19">
      <path clip-path="url(#pfc5a8f1b97)" d="M 108 146.88 
L 777.6 146.88 
" style="fill:none;stroke:#ffffff;stroke-linecap:round;"/>
     </g>
     <g id="line2d_20">
      <g>
       <use style="fill:#262626;stroke:#262626;" x="108.0" xlink:href="#ma32c5c4cd3" y="146.88"/>
      </g>
     </g>
     <g id="line2d_21">
      <g>
       <use style="fill:#262626;stroke:#262626;" x="777.6" xlink:href="#ma32c5c4cd3" y="146.88"/>
      </g>
     </g>
     <g id="text_9">
      <!-- 300 -->
      <g style="fill:#262626;" transform="translate(72.36875 151.0190625)scale(0.15 -0.15)">
       <use xlink:href="#BitstreamVeraSans-Roman-33"/>
       <use x="63.623046875" xlink:href="#BitstreamVeraSans-Roman-30"/>
       <use x="127.24609375" xlink:href="#BitstreamVeraSans-Roman-30"/>
      </g>
     </g>
    </g>
    <g id="ytick_6">
     <g id="line2d_22">
      <path clip-path="url(#pfc5a8f1b97)" d="M 108 57.6 
L 777.6 57.6 
" style="fill:none;stroke:#ffffff;stroke-linecap:round;"/>
     </g>
     <g id="line2d_23">
      <g>
       <use style="fill:#262626;stroke:#262626;" x="108.0" xlink:href="#ma32c5c4cd3" y="57.6"/>
      </g>
     </g>
     <g id="line2d_24">
      <g>
       <use style="fill:#262626;stroke:#262626;" x="777.6" xlink:href="#ma32c5c4cd3" y="57.6"/>
      </g>
     </g>
     <g id="text_10">
      <!-- 400 -->
      <defs>
       <path d="M 37.796875 64.3125 
L 12.890625 25.390625 
L 37.796875 25.390625 
z
M 35.203125 72.90625 
L 47.609375 72.90625 
L 47.609375 25.390625 
L 58.015625 25.390625 
L 58.015625 17.1875 
L 47.609375 17.1875 
L 47.609375 0 
L 37.796875 0 
L 37.796875 17.1875 
L 4.890625 17.1875 
L 4.890625 26.703125 
z
" id="BitstreamVeraSans-Roman-34"/>
      </defs>
      <g style="fill:#262626;" transform="translate(72.36875 61.7390625)scale(0.15 -0.15)">
       <use xlink:href="#BitstreamVeraSans-Roman-34"/>
       <use x="63.623046875" xlink:href="#BitstreamVeraSans-Roman-30"/>
       <use x="127.24609375" xlink:href="#BitstreamVeraSans-Roman-30"/>
      </g>
     </g>
    </g>
    <g id="text_11">
     <!-- OTU Counts -->
     <defs>
      <path d="M 30.609375 48.390625 
Q 23.390625 48.390625 19.1875 42.75 
Q 14.984375 37.109375 14.984375 27.296875 
Q 14.984375 17.484375 19.15625 11.84375 
Q 23.34375 6.203125 30.609375 6.203125 
Q 37.796875 6.203125 41.984375 11.859375 
Q 46.1875 17.53125 46.1875 27.296875 
Q 46.1875 37.015625 41.984375 42.703125 
Q 37.796875 48.390625 30.609375 48.390625 
M 30.609375 56 
Q 42.328125 56 49.015625 48.375 
Q 55.71875 40.765625 55.71875 27.296875 
Q 55.71875 13.875 49.015625 6.21875 
Q 42.328125 -1.421875 30.609375 -1.421875 
Q 18.84375 -1.421875 12.171875 6.21875 
Q 5.515625 13.875 5.515625 27.296875 
Q 5.515625 40.765625 12.171875 48.375 
Q 18.84375 56 30.609375 56 
" id="BitstreamVeraSans-Roman-6f"/>
      <path d="M 39.40625 66.21875 
Q 28.65625 66.21875 22.328125 58.203125 
Q 16.015625 50.203125 16.015625 36.375 
Q 16.015625 22.609375 22.328125 14.59375 
Q 28.65625 6.59375 39.40625 6.59375 
Q 50.140625 6.59375 56.421875 14.59375 
Q 62.703125 22.609375 62.703125 36.375 
Q 62.703125 50.203125 56.421875 58.203125 
Q 50.140625 66.21875 39.40625 66.21875 
M 39.40625 74.21875 
Q 54.734375 74.21875 63.90625 63.9375 
Q 73.09375 53.65625 73.09375 36.375 
Q 73.09375 19.140625 63.90625 8.859375 
Q 54.734375 -1.421875 39.40625 -1.421875 
Q 24.03125 -1.421875 14.8125 8.828125 
Q 5.609375 19.09375 5.609375 36.375 
Q 5.609375 53.65625 14.8125 63.9375 
Q 24.03125 74.21875 39.40625 74.21875 
" id="BitstreamVeraSans-Roman-4f"/>
      <path d="M 18.3125 70.21875 
L 18.3125 54.6875 
L 36.8125 54.6875 
L 36.8125 47.703125 
L 18.3125 47.703125 
L 18.3125 18.015625 
Q 18.3125 11.328125 20.140625 9.421875 
Q 21.96875 7.515625 27.59375 7.515625 
L 36.8125 7.515625 
L 36.8125 0 
L 27.59375 0 
Q 17.1875 0 13.234375 3.875 
Q 9.28125 7.765625 9.28125 18.015625 
L 9.28125 47.703125 
L 2.6875 47.703125 
L 2.6875 54.6875 
L 9.28125 54.6875 
L 9.28125 70.21875 
z
" id="BitstreamVeraSans-Roman-74"/>
      <path d="M 64.40625 67.28125 
L 64.40625 56.890625 
Q 59.421875 61.53125 53.78125 63.8125 
Q 48.140625 66.109375 41.796875 66.109375 
Q 29.296875 66.109375 22.65625 58.46875 
Q 16.015625 50.828125 16.015625 36.375 
Q 16.015625 21.96875 22.65625 14.328125 
Q 29.296875 6.6875 41.796875 6.6875 
Q 48.140625 6.6875 53.78125 8.984375 
Q 59.421875 11.28125 64.40625 15.921875 
L 64.40625 5.609375 
Q 59.234375 2.09375 53.4375 0.328125 
Q 47.65625 -1.421875 41.21875 -1.421875 
Q 24.65625 -1.421875 15.125 8.703125 
Q 5.609375 18.84375 5.609375 36.375 
Q 5.609375 53.953125 15.125 64.078125 
Q 24.65625 74.21875 41.21875 74.21875 
Q 47.75 74.21875 53.53125 72.484375 
Q 59.328125 70.75 64.40625 67.28125 
" id="BitstreamVeraSans-Roman-43"/>
      <path d="M 8.6875 72.90625 
L 18.609375 72.90625 
L 18.609375 28.609375 
Q 18.609375 16.890625 22.84375 11.734375 
Q 27.09375 6.59375 36.625 6.59375 
Q 46.09375 6.59375 50.34375 11.734375 
Q 54.59375 16.890625 54.59375 28.609375 
L 54.59375 72.90625 
L 64.5 72.90625 
L 64.5 27.390625 
Q 64.5 13.140625 57.4375 5.859375 
Q 50.390625 -1.421875 36.625 -1.421875 
Q 22.796875 -1.421875 15.734375 5.859375 
Q 8.6875 13.140625 8.6875 27.390625 
z
" id="BitstreamVeraSans-Roman-55"/>
      <path d="M -0.296875 72.90625 
L 61.375 72.90625 
L 61.375 64.59375 
L 35.5 64.59375 
L 35.5 0 
L 25.59375 0 
L 25.59375 64.59375 
L -0.296875 64.59375 
z
" id="BitstreamVeraSans-Roman-54"/>
      <path d="M 44.28125 53.078125 
L 44.28125 44.578125 
Q 40.484375 46.53125 36.375 47.5 
Q 32.28125 48.484375 27.875 48.484375 
Q 21.1875 48.484375 17.84375 46.4375 
Q 14.5 44.390625 14.5 40.28125 
Q 14.5 37.15625 16.890625 35.375 
Q 19.28125 33.59375 26.515625 31.984375 
L 29.59375 31.296875 
Q 39.15625 29.25 43.1875 25.515625 
Q 47.21875 21.78125 47.21875 15.09375 
Q 47.21875 7.46875 41.1875 3.015625 
Q 35.15625 -1.421875 24.609375 -1.421875 
Q 20.21875 -1.421875 15.453125 -0.5625 
Q 10.6875 0.296875 5.421875 2 
L 5.421875 11.28125 
Q 10.40625 8.6875 15.234375 7.390625 
Q 20.0625 6.109375 24.8125 6.109375 
Q 31.15625 6.109375 34.5625 8.28125 
Q 37.984375 10.453125 37.984375 14.40625 
Q 37.984375 18.0625 35.515625 20.015625 
Q 33.0625 21.96875 24.703125 23.78125 
L 21.578125 24.515625 
Q 13.234375 26.265625 9.515625 29.90625 
Q 5.8125 33.546875 5.8125 39.890625 
Q 5.8125 47.609375 11.28125 51.796875 
Q 16.75 56 26.8125 56 
Q 31.78125 56 36.171875 55.265625 
Q 40.578125 54.546875 44.28125 53.078125 
" id="BitstreamVeraSans-Roman-73"/>
     </defs>
     <g style="fill:#262626;" transform="translate(51.367734375 329.790820313)rotate(-90.0)scale(0.165 -0.165)">
      <use xlink:href="#BitstreamVeraSans-Roman-4f"/>
      <use x="78.7109375" xlink:href="#BitstreamVeraSans-Roman-54"/>
      <use x="139.794921875" xlink:href="#BitstreamVeraSans-Roman-55"/>
      <use x="212.98828125" xlink:href="#BitstreamVeraSans-Roman-20"/>
      <use x="244.775390625" xlink:href="#BitstreamVeraSans-Roman-43"/>
      <use x="314.599609375" xlink:href="#BitstreamVeraSans-Roman-6f"/>
      <use x="375.78125" xlink:href="#BitstreamVeraSans-Roman-75"/>
      <use x="439.16015625" xlink:href="#BitstreamVeraSans-Roman-6e"/>
      <use x="502.5390625" xlink:href="#BitstreamVeraSans-Roman-74"/>
      <use x="541.748046875" xlink:href="#BitstreamVeraSans-Roman-73"/>
     </g>
    </g>
   </g>
   <g id="PolyCollection_1">
    <defs>
     <path d="M 223.745461 -152.071335 
L 215.454539 -152.071335 
L 214.518033 -155.46243 
L 213.416048 -158.853526 
L 212.130673 -162.244621 
L 210.644613 -165.635717 
L 208.941842 -169.026812 
L 207.00834 -172.417908 
L 204.832867 -175.809003 
L 202.407768 -179.200098 
L 199.729767 -182.591194 
L 196.800698 -185.982289 
L 193.628148 -189.373385 
L 190.225958 -192.76448 
L 186.614537 -196.155576 
L 182.820967 -199.546671 
L 178.878859 -202.937767 
L 174.827944 -206.328862 
L 170.713399 -209.719958 
L 166.584927 -213.111053 
L 162.495599 -216.502148 
L 158.500517 -219.893244 
L 154.655344 -223.284339 
L 151.014769 -226.675435 
L 147.63097 -230.06653 
L 144.552162 -233.457626 
L 141.821274 -236.848721 
L 139.474847 -240.239817 
L 137.542166 -243.630912 
L 136.044687 -247.022008 
L 134.995757 -250.413103 
L 134.400624 -253.804199 
L 134.25673 -257.195294 
L 134.554223 -260.586389 
L 135.276668 -263.977485 
L 136.401883 -267.36858 
L 137.902847 -270.759676 
L 139.748629 -274.150771 
L 141.905277 -277.541867 
L 144.336641 -280.932962 
L 147.005097 -284.324058 
L 149.872157 -287.715153 
L 152.898973 -291.106249 
L 156.046737 -294.497344 
L 159.277008 -297.88844 
L 162.551982 -301.279535 
L 165.83474 -304.67063 
L 169.089504 -308.061726 
L 172.28191 -311.452821 
L 175.379326 -314.843917 
L 178.351219 -318.235012 
L 181.169561 -321.626108 
L 183.809274 -325.017203 
L 186.24868 -328.408299 
L 188.469956 -331.799394 
L 190.459535 -335.19049 
L 192.208454 -338.581585 
L 193.712607 -341.97268 
L 194.972875 -345.363776 
L 195.995139 -348.754871 
L 196.790134 -352.145967 
L 197.373172 -355.537062 
L 197.763714 -358.928158 
L 197.984812 -362.319253 
L 198.06245 -365.710349 
L 198.024783 -369.101444 
L 197.901321 -372.49254 
L 197.722083 -375.883635 
L 197.516744 -379.274731 
L 197.313813 -382.665826 
L 197.139874 -386.056921 
L 197.018899 -389.448017 
L 196.971679 -392.839112 
L 197.015365 -396.230208 
L 197.163156 -399.621303 
L 197.424118 -403.012399 
L 197.803152 -406.403494 
L 198.301097 -409.79459 
L 198.91496 -413.185685 
L 199.638261 -416.576781 
L 200.461471 -419.967876 
L 201.372525 -423.358972 
L 202.357386 -426.750067 
L 203.400634 -430.141162 
L 204.486051 -433.532258 
L 205.597202 -436.923353 
L 206.717956 -440.314449 
L 207.832962 -443.705544 
L 208.928051 -447.09664 
L 209.99056 -450.487735 
L 211.009561 -453.878831 
L 211.976022 -457.269926 
L 212.882868 -460.661022 
L 213.724973 -464.052117 
L 214.499089 -467.443212 
L 215.203714 -470.834308 
L 215.838912 -474.225403 
L 216.406112 -477.616499 
L 216.907884 -481.007594 
L 217.347703 -484.39869 
L 217.729727 -487.789785 
L 221.470273 -487.789785 
L 221.470273 -487.789785 
L 221.852297 -484.39869 
L 222.292116 -481.007594 
L 222.793888 -477.616499 
L 223.361088 -474.225403 
L 223.996286 -470.834308 
L 224.700911 -467.443212 
L 225.475027 -464.052117 
L 226.317132 -460.661022 
L 227.223978 -457.269926 
L 228.190439 -453.878831 
L 229.20944 -450.487735 
L 230.271949 -447.09664 
L 231.367038 -443.705544 
L 232.482044 -440.314449 
L 233.602798 -436.923353 
L 234.713949 -433.532258 
L 235.799366 -430.141162 
L 236.842614 -426.750067 
L 237.827475 -423.358972 
L 238.738529 -419.967876 
L 239.561739 -416.576781 
L 240.28504 -413.185685 
L 240.898903 -409.79459 
L 241.396848 -406.403494 
L 241.775882 -403.012399 
L 242.036844 -399.621303 
L 242.184635 -396.230208 
L 242.228321 -392.839112 
L 242.181101 -389.448017 
L 242.060126 -386.056921 
L 241.886187 -382.665826 
L 241.683256 -379.274731 
L 241.477917 -375.883635 
L 241.298679 -372.49254 
L 241.175217 -369.101444 
L 241.13755 -365.710349 
L 241.215188 -362.319253 
L 241.436286 -358.928158 
L 241.826828 -355.537062 
L 242.409866 -352.145967 
L 243.204861 -348.754871 
L 244.227125 -345.363776 
L 245.487393 -341.97268 
L 246.991546 -338.581585 
L 248.740465 -335.19049 
L 250.730044 -331.799394 
L 252.95132 -328.408299 
L 255.390726 -325.017203 
L 258.030439 -321.626108 
L 260.848781 -318.235012 
L 263.820674 -314.843917 
L 266.91809 -311.452821 
L 270.110496 -308.061726 
L 273.36526 -304.67063 
L 276.648018 -301.279535 
L 279.922992 -297.88844 
L 283.153263 -294.497344 
L 286.301027 -291.106249 
L 289.327843 -287.715153 
L 292.194903 -284.324058 
L 294.863359 -280.932962 
L 297.294723 -277.541867 
L 299.451371 -274.150771 
L 301.297153 -270.759676 
L 302.798117 -267.36858 
L 303.923332 -263.977485 
L 304.645777 -260.586389 
L 304.94327 -257.195294 
L 304.799376 -253.804199 
L 304.204243 -250.413103 
L 303.155313 -247.022008 
L 301.657834 -243.630912 
L 299.725153 -240.239817 
L 297.378726 -236.848721 
L 294.647838 -233.457626 
L 291.56903 -230.06653 
L 288.185231 -226.675435 
L 284.544656 -223.284339 
L 280.699483 -219.893244 
L 276.704401 -216.502148 
L 272.615073 -213.111053 
L 268.486601 -209.719958 
L 264.372056 -206.328862 
L 260.321141 -202.937767 
L 256.379033 -199.546671 
L 252.585463 -196.155576 
L 248.974042 -192.76448 
L 245.571852 -189.373385 
L 242.399302 -185.982289 
L 239.470233 -182.591194 
L 236.792232 -179.200098 
L 234.367133 -175.809003 
L 232.19166 -172.417908 
L 230.258158 -169.026812 
L 228.555387 -165.635717 
L 227.069327 -162.244621 
L 225.783952 -158.853526 
L 224.681967 -155.46243 
L 223.745461 -152.071335 
z
" id="mab85eea208" style="stroke:#1e1e1e;stroke-width:1.75;"/>
    </defs>
    <g clip-path="url(#pfc5a8f1b97)">
     <use style="fill:#142452;stroke:#1e1e1e;stroke-width:1.75;" x="0.0" xlink:href="#mab85eea208" y="576.0"/>
    </g>
   </g>
   <g id="PolyCollection_2">
    <defs>
     <path d="M 447.760194 -126.447708 
L 437.839806 -126.447708 
L 436.791265 -129.492511 
L 435.570805 -132.537313 
L 434.161756 -135.582116 
L 432.548286 -138.626919 
L 430.716016 -141.671721 
L 428.652676 -144.716524 
L 426.348808 -147.761327 
L 423.79847 -150.806129 
L 420.999929 -153.850932 
L 417.956301 -156.895735 
L 414.6761 -159.940537 
L 411.173669 -162.98534 
L 407.469455 -166.030143 
L 403.590094 -169.074945 
L 399.568294 -172.119748 
L 395.442481 -175.164551 
L 391.25623 -178.209353 
L 387.057452 -181.254156 
L 382.897392 -184.298959 
L 378.829433 -187.343761 
L 374.907775 -190.388564 
L 371.186017 -193.433367 
L 367.71571 -196.478169 
L 364.544945 -199.522972 
L 361.717023 -202.567775 
L 359.269276 -205.612577 
L 357.232091 -208.65738 
L 355.628172 -211.702183 
L 354.472073 -214.746985 
L 353.770016 -217.791788 
L 353.52 -220.836591 
L 353.712172 -223.881393 
L 354.329451 -226.926196 
L 355.348346 -229.970999 
L 356.739931 -233.015801 
L 358.470921 -236.060604 
L 360.504785 -239.105407 
L 362.802851 -242.150209 
L 365.325349 -245.195012 
L 368.032349 -248.239815 
L 370.884564 -251.284617 
L 373.844006 -254.32942 
L 376.874473 -257.374223 
L 379.941883 -260.419025 
L 383.014464 -263.463828 
L 386.062825 -266.508631 
L 389.059939 -269.553433 
L 391.981061 -272.598236 
L 394.803625 -275.643039 
L 397.507143 -278.687841 
L 400.073136 -281.732644 
L 402.485117 -284.777447 
L 404.728627 -287.822249 
L 406.791351 -290.867052 
L 408.663282 -293.911855 
L 410.336947 -296.956657 
L 411.807648 -300.00146 
L 413.073726 -303.046263 
L 414.136794 -306.091065 
L 415.001926 -309.135868 
L 415.67777 -312.180671 
L 416.176567 -315.225473 
L 416.51405 -318.270276 
L 416.709216 -321.315079 
L 416.783971 -324.359881 
L 416.762635 -327.404684 
L 416.67135 -330.449487 
L 416.537371 -333.494289 
L 416.388303 -336.539092 
L 416.251289 -339.583895 
L 416.152204 -342.628697 
L 416.11487 -345.6735 
L 416.160346 -348.718303 
L 416.30632 -351.763105 
L 416.566617 -354.807908 
L 416.950868 -357.852711 
L 417.464335 -360.897513 
L 418.107899 -363.942316 
L 418.878219 -366.987119 
L 419.768037 -370.031921 
L 420.766621 -373.076724 
L 421.86031 -376.121527 
L 423.033141 -379.166329 
L 424.267528 -382.211132 
L 425.54495 -385.255935 
L 426.846628 -388.300737 
L 428.154154 -391.34554 
L 429.450056 -394.390343 
L 430.718282 -397.435145 
L 431.944571 -400.479948 
L 433.116738 -403.524751 
L 434.224834 -406.569553 
L 435.261221 -409.614356 
L 436.220541 -412.659159 
L 437.099613 -415.703961 
L 437.897262 -418.748764 
L 438.614093 -421.793567 
L 439.252245 -424.838369 
L 439.81511 -427.883172 
L 445.78489 -427.883172 
L 445.78489 -427.883172 
L 446.347755 -424.838369 
L 446.985907 -421.793567 
L 447.702738 -418.748764 
L 448.500387 -415.703961 
L 449.379459 -412.659159 
L 450.338779 -409.614356 
L 451.375166 -406.569553 
L 452.483262 -403.524751 
L 453.655429 -400.479948 
L 454.881718 -397.435145 
L 456.149944 -394.390343 
L 457.445846 -391.34554 
L 458.753372 -388.300737 
L 460.05505 -385.255935 
L 461.332472 -382.211132 
L 462.566859 -379.166329 
L 463.73969 -376.121527 
L 464.833379 -373.076724 
L 465.831963 -370.031921 
L 466.721781 -366.987119 
L 467.492101 -363.942316 
L 468.135665 -360.897513 
L 468.649132 -357.852711 
L 469.033383 -354.807908 
L 469.29368 -351.763105 
L 469.439654 -348.718303 
L 469.48513 -345.6735 
L 469.447796 -342.628697 
L 469.348711 -339.583895 
L 469.211697 -336.539092 
L 469.062629 -333.494289 
L 468.92865 -330.449487 
L 468.837365 -327.404684 
L 468.816029 -324.359881 
L 468.890784 -321.315079 
L 469.08595 -318.270276 
L 469.423433 -315.225473 
L 469.92223 -312.180671 
L 470.598074 -309.135868 
L 471.463206 -306.091065 
L 472.526274 -303.046263 
L 473.792352 -300.00146 
L 475.263053 -296.956657 
L 476.936718 -293.911855 
L 478.808649 -290.867052 
L 480.871373 -287.822249 
L 483.114883 -284.777447 
L 485.526864 -281.732644 
L 488.092857 -278.687841 
L 490.796375 -275.643039 
L 493.618939 -272.598236 
L 496.540061 -269.553433 
L 499.537175 -266.508631 
L 502.585536 -263.463828 
L 505.658117 -260.419025 
L 508.725527 -257.374223 
L 511.755994 -254.32942 
L 514.715436 -251.284617 
L 517.567651 -248.239815 
L 520.274651 -245.195012 
L 522.797149 -242.150209 
L 525.095215 -239.105407 
L 527.129079 -236.060604 
L 528.860069 -233.015801 
L 530.251654 -229.970999 
L 531.270549 -226.926196 
L 531.887828 -223.881393 
L 532.08 -220.836591 
L 531.829984 -217.791788 
L 531.127927 -214.746985 
L 529.971828 -211.702183 
L 528.367909 -208.65738 
L 526.330724 -205.612577 
L 523.882977 -202.567775 
L 521.055055 -199.522972 
L 517.88429 -196.478169 
L 514.413983 -193.433367 
L 510.692225 -190.388564 
L 506.770567 -187.343761 
L 502.702608 -184.298959 
L 498.542548 -181.254156 
L 494.34377 -178.209353 
L 490.157519 -175.164551 
L 486.031706 -172.119748 
L 482.009906 -169.074945 
L 478.130545 -166.030143 
L 474.426331 -162.98534 
L 470.9239 -159.940537 
L 467.643699 -156.895735 
L 464.600071 -153.850932 
L 461.80153 -150.806129 
L 459.251192 -147.761327 
L 456.947324 -144.716524 
L 454.883984 -141.671721 
L 453.051714 -138.626919 
L 451.438244 -135.582116 
L 450.029195 -132.537313 
L 448.808735 -129.492511 
L 447.760194 -126.447708 
z
" id="mc853085403" style="stroke:#1e1e1e;stroke-width:1.75;"/>
    </defs>
    <g clip-path="url(#pfc5a8f1b97)">
     <use style="fill:#f9fadb;stroke:#1e1e1e;stroke-width:1.75;" x="0.0" xlink:href="#mc853085403" y="576.0"/>
    </g>
   </g>
   <g id="PolyCollection_3">
    <defs>
     <path d="M 671.36654 -131.818624 
L 660.63346 -131.818624 
L 659.521056 -134.943403 
L 658.232186 -138.068182 
L 656.751236 -141.192962 
L 655.063828 -144.317741 
L 653.157466 -147.44252 
L 651.022207 -150.5673 
L 648.651357 -153.692079 
L 646.042155 -156.816858 
L 643.196407 -159.941637 
L 640.12104 -163.066417 
L 636.828549 -166.191196 
L 633.337282 -169.315975 
L 629.671551 -172.440755 
L 625.861535 -175.565534 
L 621.94296 -178.690313 
L 617.956555 -181.815093 
L 613.947276 -184.939872 
L 609.963336 -188.064651 
L 606.055046 -191.189431 
L 602.273533 -194.31421 
L 598.669365 -197.438989 
L 595.291156 -200.563769 
L 592.184203 -203.688548 
L 589.389222 -206.813327 
L 586.941236 -209.938107 
L 584.868678 -213.062886 
L 583.19273 -216.187665 
L 581.926948 -219.312445 
L 581.077161 -222.437224 
L 580.641657 -225.562003 
L 580.611636 -228.686783 
L 580.971875 -231.811562 
L 581.70159 -234.936341 
L 582.775415 -238.061121 
L 584.164452 -241.1859 
L 585.837333 -244.310679 
L 587.761227 -247.435458 
L 589.902764 -250.560238 
L 592.228808 -253.685017 
L 594.707089 -256.809796 
L 597.30665 -259.934576 
L 599.998124 -263.059355 
L 602.753859 -266.184134 
L 605.547904 -269.308914 
L 608.355893 -272.433693 
L 611.154866 -275.558472 
L 613.923068 -278.683252 
L 616.639753 -281.808031 
L 619.28504 -284.93281 
L 621.839838 -288.05759 
L 624.285865 -291.182369 
L 626.605763 -294.307148 
L 628.783319 -297.431928 
L 630.803763 -300.556707 
L 632.654151 -303.681486 
L 634.323777 -306.806266 
L 635.804614 -309.931045 
L 637.091725 -313.055824 
L 638.18363 -316.180604 
L 639.082591 -319.305383 
L 639.794786 -322.430162 
L 640.330354 -325.554942 
L 640.703295 -328.679721 
L 640.931227 -331.8045 
L 641.034982 -334.929279 
L 641.038081 -338.054059 
L 640.966076 -341.178838 
L 640.845806 -344.303617 
L 640.704589 -347.428397 
L 640.56938 -350.553176 
L 640.465939 -353.677955 
L 640.418041 -356.802735 
L 640.446763 -359.927514 
L 640.569873 -363.052293 
L 640.801359 -366.177073 
L 641.151101 -369.301852 
L 641.624704 -372.426631 
L 642.223498 -375.551411 
L 642.944693 -378.67619 
L 643.781682 -381.800969 
L 644.724468 -384.925749 
L 645.760194 -388.050528 
L 646.873748 -391.175307 
L 648.048413 -394.300087 
L 649.266527 -397.424866 
L 650.510132 -400.549645 
L 651.76158 -403.674425 
L 653.00407 -406.799204 
L 654.222114 -409.923983 
L 655.401904 -413.048763 
L 656.531578 -416.173542 
L 657.601386 -419.298321 
L 658.603771 -422.4231 
L 659.533342 -425.54788 
L 660.386789 -428.672659 
L 661.162725 -431.797438 
L 661.861481 -434.922218 
L 662.484872 -438.046997 
L 663.035937 -441.171776 
L 668.964063 -441.171776 
L 668.964063 -441.171776 
L 669.515128 -438.046997 
L 670.138519 -434.922218 
L 670.837275 -431.797438 
L 671.613211 -428.672659 
L 672.466658 -425.54788 
L 673.396229 -422.4231 
L 674.398614 -419.298321 
L 675.468422 -416.173542 
L 676.598096 -413.048763 
L 677.777886 -409.923983 
L 678.99593 -406.799204 
L 680.23842 -403.674425 
L 681.489868 -400.549645 
L 682.733473 -397.424866 
L 683.951587 -394.300087 
L 685.126252 -391.175307 
L 686.239806 -388.050528 
L 687.275532 -384.925749 
L 688.218318 -381.800969 
L 689.055307 -378.67619 
L 689.776502 -375.551411 
L 690.375296 -372.426631 
L 690.848899 -369.301852 
L 691.198641 -366.177073 
L 691.430127 -363.052293 
L 691.553237 -359.927514 
L 691.581959 -356.802735 
L 691.534061 -353.677955 
L 691.43062 -350.553176 
L 691.295411 -347.428397 
L 691.154194 -344.303617 
L 691.033924 -341.178838 
L 690.961919 -338.054059 
L 690.965018 -334.929279 
L 691.068773 -331.8045 
L 691.296705 -328.679721 
L 691.669646 -325.554942 
L 692.205214 -322.430162 
L 692.917409 -319.305383 
L 693.81637 -316.180604 
L 694.908275 -313.055824 
L 696.195386 -309.931045 
L 697.676223 -306.806266 
L 699.345849 -303.681486 
L 701.196237 -300.556707 
L 703.216681 -297.431928 
L 705.394237 -294.307148 
L 707.714135 -291.182369 
L 710.160162 -288.05759 
L 712.71496 -284.93281 
L 715.360247 -281.808031 
L 718.076932 -278.683252 
L 720.845134 -275.558472 
L 723.644107 -272.433693 
L 726.452096 -269.308914 
L 729.246141 -266.184134 
L 732.001876 -263.059355 
L 734.69335 -259.934576 
L 737.292911 -256.809796 
L 739.771192 -253.685017 
L 742.097236 -250.560238 
L 744.238773 -247.435458 
L 746.162667 -244.310679 
L 747.835548 -241.1859 
L 749.224585 -238.061121 
L 750.29841 -234.936341 
L 751.028125 -231.811562 
L 751.388364 -228.686783 
L 751.358343 -225.562003 
L 750.922839 -222.437224 
L 750.073052 -219.312445 
L 748.80727 -216.187665 
L 747.131322 -213.062886 
L 745.058764 -209.938107 
L 742.610778 -206.813327 
L 739.815797 -203.688548 
L 736.708844 -200.563769 
L 733.330635 -197.438989 
L 729.726467 -194.31421 
L 725.944954 -191.189431 
L 722.036664 -188.064651 
L 718.052724 -184.939872 
L 714.043445 -181.815093 
L 710.05704 -178.690313 
L 706.138465 -175.565534 
L 702.328449 -172.440755 
L 698.662718 -169.315975 
L 695.171451 -166.191196 
L 691.87896 -163.066417 
L 688.803593 -159.941637 
L 685.957845 -156.816858 
L 683.348643 -153.692079 
L 680.977793 -150.5673 
L 678.842534 -147.44252 
L 676.936172 -144.317741 
L 675.248764 -141.192962 
L 673.767814 -138.068182 
L 672.478944 -134.943403 
L 671.36654 -131.818624 
z
" id="m462f77d667" style="stroke:#1e1e1e;stroke-width:1.75;"/>
    </defs>
    <g clip-path="url(#pfc5a8f1b97)">
     <use style="fill:#327ca5;stroke:#1e1e1e;stroke-width:1.75;" x="0.0" xlink:href="#m462f77d667" y="576.0"/>
    </g>
   </g>
   <g id="line2d_25">
    <path clip-path="url(#pfc5a8f1b97)" d="M 219.6 348.29568 
L 219.6 279.0144 
" style="fill:none;stroke:#1e1e1e;stroke-linecap:round;stroke-width:1.75;"/>
   </g>
   <g id="line2d_26">
    <path clip-path="url(#pfc5a8f1b97)" d="M 219.6 328.3416 
L 219.6 280.53216 
" style="fill:none;stroke:#1e1e1e;stroke-linecap:round;stroke-width:5.25;"/>
   </g>
   <g id="line2d_27">
    <path clip-path="url(#pfc5a8f1b97)" d="M 442.8 378.74016 
L 442.8 297.40608 
" style="fill:none;stroke:#1e1e1e;stroke-linecap:round;stroke-width:1.75;"/>
   </g>
   <g id="line2d_28">
    <path clip-path="url(#pfc5a8f1b97)" d="M 442.8 361.19664 
L 442.8 306.60192 
" style="fill:none;stroke:#1e1e1e;stroke-linecap:round;stroke-width:5.25;"/>
   </g>
   <g id="line2d_29">
    <path clip-path="url(#pfc5a8f1b97)" d="M 666 370.9728 
L 666 211.1616 
" style="fill:none;stroke:#1e1e1e;stroke-linecap:round;stroke-width:1.75;"/>
   </g>
   <g id="line2d_30">
    <path clip-path="url(#pfc5a8f1b97)" d="M 666 359.45568 
L 666 299.1024 
" style="fill:none;stroke:#1e1e1e;stroke-linecap:round;stroke-width:5.25;"/>
   </g>
   <g id="patch_3">
    <path d="M 777.6 504 
L 777.6 57.6 
" style="fill:none;"/>
   </g>
   <g id="patch_4">
    <path d="M 108 504 
L 777.6 504 
" style="fill:none;"/>
   </g>
   <g id="patch_5">
    <path d="M 108 504 
L 108 57.6 
" style="fill:none;"/>
   </g>
   <g id="patch_6">
    <path d="M 108 57.6 
L 777.6 57.6 
" style="fill:none;"/>
   </g>
   <g id="PathCollection_1">
    <defs>
     <path d="M 0 1.75 
C 0.464105 1.75 0.909265 1.565609 1.237437 1.237437 
C 1.565609 0.909265 1.75 0.464105 1.75 0 
C 1.75 -0.464105 1.565609 -0.909265 1.237437 -1.237437 
C 0.909265 -1.565609 0.464105 -1.75 0 -1.75 
C -0.464105 -1.75 -0.909265 -1.565609 -1.237437 -1.237437 
C -1.565609 -0.909265 -1.75 -0.464105 -1.75 0 
C -1.75 0.464105 -1.565609 0.909265 -1.237437 1.237437 
C -0.909265 1.565609 -0.464105 1.75 0 1.75 
z
" id="mb8f42cccb5" style="stroke:#1e1e1e;stroke-width:0.3;"/>
    </defs>
    <g clip-path="url(#pfc5a8f1b97)">
     <use style="fill:#ffffff;stroke:#1e1e1e;stroke-width:0.3;" x="219.6" xlink:href="#mb8f42cccb5" y="327.2256"/>
    </g>
   </g>
   <g id="PathCollection_2">
    <g clip-path="url(#pfc5a8f1b97)">
     <use style="fill:#ffffff;stroke:#1e1e1e;stroke-width:0.3;" x="442.8" xlink:href="#mb8f42cccb5" y="358.29504"/>
    </g>
   </g>
   <g id="PathCollection_3">
    <g clip-path="url(#pfc5a8f1b97)">
     <use style="fill:#ffffff;stroke:#1e1e1e;stroke-width:0.3;" x="666.0" xlink:href="#mb8f42cccb5" y="350.8848"/>
    </g>
   </g>
  </g>
 </g>
 <defs>
  <clipPath id="pfc5a8f1b97">
   <rect height="446.4" width="669.6" x="108.0" y="57.6"/>
  </clipPath>
 </defs>
</svg>
