<?xml version="1.0" encoding="utf-8" standalone="no"?>
<!DOCTYPE svg PUBLIC "-//W3C//DTD SVG 1.1//EN"
  "http://www.w3.org/Graphics/SVG/1.1/DTD/svg11.dtd">
<!-- Created with matplotlib (http://matplotlib.org/) -->
<svg height="576pt" version="1.1" viewBox="0 0 864 576" width="864pt" xmlns="http://www.w3.org/2000/svg" xmlns:xlink="http://www.w3.org/1999/xlink">
 <defs>
  <style type="text/css">
*{stroke-linecap:butt;stroke-linejoin:round;stroke-miterlimit:100000;}
  </style>
 </defs>
 <g id="figure_1">
  <g id="patch_1">
   <path d="M 0 576 
L 864 576 
L 864 0 
L 0 0 
z
" style="fill:#ffffff;"/>
  </g>
  <g id="axes_1">
   <g id="patch_2">
    <path d="M 108 504 
L 777.6 504 
L 777.6 57.6 
L 108 57.6 
z
" style="fill:#eaeaf2;"/>
   </g>
   <g id="matplotlib.axis_1">
    <g id="xtick_1">
     <g id="line2d_1">
      <defs>
       <path d="M 0 0 
L 0 0 
" id="m3a9667f25b" style="stroke:#262626;"/>
      </defs>
      <g>
       <use style="fill:#262626;stroke:#262626;" x="275.4" xlink:href="#m3a9667f25b" y="504.0"/>
      </g>
     </g>
     <g id="line2d_2">
      <g>
       <use style="fill:#262626;stroke:#262626;" x="275.4" xlink:href="#m3a9667f25b" y="57.6"/>
      </g>
     </g>
     <g id="text_1">
      <!-- Summer -->
      <defs>
       <path d="M 8.5 21.578125 
L 8.5 54.6875 
L 17.484375 54.6875 
L 17.484375 21.921875 
Q 17.484375 14.15625 20.5 10.265625 
Q 23.53125 6.390625 29.59375 6.390625 
Q 36.859375 6.390625 41.078125 11.03125 
Q 45.3125 15.671875 45.3125 23.6875 
L 45.3125 54.6875 
L 54.296875 54.6875 
L 54.296875 0 
L 45.3125 0 
L 45.3125 8.40625 
Q 42.046875 3.421875 37.71875 1 
Q 33.40625 -1.421875 27.6875 -1.421875 
Q 18.265625 -1.421875 13.375 4.4375 
Q 8.5 10.296875 8.5 21.578125 
" id="BitstreamVeraSans-Roman-75"/>
       <path d="M 56.203125 29.59375 
L 56.203125 25.203125 
L 14.890625 25.203125 
Q 15.484375 15.921875 20.484375 11.0625 
Q 25.484375 6.203125 34.421875 6.203125 
Q 39.59375 6.203125 44.453125 7.46875 
Q 49.3125 8.734375 54.109375 11.28125 
L 54.109375 2.78125 
Q 49.265625 0.734375 44.1875 -0.34375 
Q 39.109375 -1.421875 33.890625 -1.421875 
Q 20.796875 -1.421875 13.15625 6.1875 
Q 5.515625 13.8125 5.515625 26.8125 
Q 5.515625 40.234375 12.765625 48.109375 
Q 20.015625 56 32.328125 56 
Q 43.359375 56 49.78125 48.890625 
Q 56.203125 41.796875 56.203125 29.59375 
M 47.21875 32.234375 
Q 47.125 39.59375 43.09375 43.984375 
Q 39.0625 48.390625 32.421875 48.390625 
Q 24.90625 48.390625 20.390625 44.140625 
Q 15.875 39.890625 15.1875 32.171875 
z
" id="BitstreamVeraSans-Roman-65"/>
       <path d="M 41.109375 46.296875 
Q 39.59375 47.171875 37.8125 47.578125 
Q 36.03125 48 33.890625 48 
Q 26.265625 48 22.1875 43.046875 
Q 18.109375 38.09375 18.109375 28.8125 
L 18.109375 0 
L 9.078125 0 
L 9.078125 54.6875 
L 18.109375 54.6875 
L 18.109375 46.1875 
Q 20.953125 51.171875 25.484375 53.578125 
Q 30.03125 56 36.53125 56 
Q 37.453125 56 38.578125 55.875 
Q 39.703125 55.765625 41.0625 55.515625 
z
" id="BitstreamVeraSans-Roman-72"/>
       <path d="M 52 44.1875 
Q 55.375 50.25 60.0625 53.125 
Q 64.75 56 71.09375 56 
Q 79.640625 56 84.28125 50.015625 
Q 88.921875 44.046875 88.921875 33.015625 
L 88.921875 0 
L 79.890625 0 
L 79.890625 32.71875 
Q 79.890625 40.578125 77.09375 44.375 
Q 74.3125 48.1875 68.609375 48.1875 
Q 61.625 48.1875 57.5625 43.546875 
Q 53.515625 38.921875 53.515625 30.90625 
L 53.515625 0 
L 44.484375 0 
L 44.484375 32.71875 
Q 44.484375 40.625 41.703125 44.40625 
Q 38.921875 48.1875 33.109375 48.1875 
Q 26.21875 48.1875 22.15625 43.53125 
Q 18.109375 38.875 18.109375 30.90625 
L 18.109375 0 
L 9.078125 0 
L 9.078125 54.6875 
L 18.109375 54.6875 
L 18.109375 46.1875 
Q 21.1875 51.21875 25.484375 53.609375 
Q 29.78125 56 35.6875 56 
Q 41.65625 56 45.828125 52.96875 
Q 50 49.953125 52 44.1875 
" id="BitstreamVeraSans-Roman-6d"/>
       <path d="M 53.515625 70.515625 
L 53.515625 60.890625 
Q 47.90625 63.578125 42.921875 64.890625 
Q 37.9375 66.21875 33.296875 66.21875 
Q 25.25 66.21875 20.875 63.09375 
Q 16.5 59.96875 16.5 54.203125 
Q 16.5 49.359375 19.40625 46.890625 
Q 22.3125 44.4375 30.421875 42.921875 
L 36.375 41.703125 
Q 47.40625 39.59375 52.65625 34.296875 
Q 57.90625 29 57.90625 20.125 
Q 57.90625 9.515625 50.796875 4.046875 
Q 43.703125 -1.421875 29.984375 -1.421875 
Q 24.8125 -1.421875 18.96875 -0.25 
Q 13.140625 0.921875 6.890625 3.21875 
L 6.890625 13.375 
Q 12.890625 10.015625 18.65625 8.296875 
Q 24.421875 6.59375 29.984375 6.59375 
Q 38.421875 6.59375 43.015625 9.90625 
Q 47.609375 13.234375 47.609375 19.390625 
Q 47.609375 24.75 44.3125 27.78125 
Q 41.015625 30.8125 33.5 32.328125 
L 27.484375 33.5 
Q 16.453125 35.6875 11.515625 40.375 
Q 6.59375 45.0625 6.59375 53.421875 
Q 6.59375 63.09375 13.40625 68.65625 
Q 20.21875 74.21875 32.171875 74.21875 
Q 37.3125 74.21875 42.625 73.28125 
Q 47.953125 72.359375 53.515625 70.515625 
" id="BitstreamVeraSans-Roman-53"/>
      </defs>
      <g style="fill:#262626;" transform="translate(243.5765625 522.39765625)scale(0.15 -0.15)">
       <use xlink:href="#BitstreamVeraSans-Roman-53"/>
       <use x="63.4765625" xlink:href="#BitstreamVeraSans-Roman-75"/>
       <use x="126.85546875" xlink:href="#BitstreamVeraSans-Roman-6d"/>
       <use x="224.267578125" xlink:href="#BitstreamVeraSans-Roman-6d"/>
       <use x="321.6796875" xlink:href="#BitstreamVeraSans-Roman-65"/>
       <use x="383.203125" xlink:href="#BitstreamVeraSans-Roman-72"/>
      </g>
     </g>
    </g>
    <g id="xtick_2">
     <g id="line2d_3">
      <g>
       <use style="fill:#262626;stroke:#262626;" x="610.2" xlink:href="#m3a9667f25b" y="504.0"/>
      </g>
     </g>
     <g id="line2d_4">
      <g>
       <use style="fill:#262626;stroke:#262626;" x="610.2" xlink:href="#m3a9667f25b" y="57.6"/>
      </g>
     </g>
     <g id="text_2">
      <!-- Fall -->
      <defs>
       <path d="M 9.421875 75.984375 
L 18.40625 75.984375 
L 18.40625 0 
L 9.421875 0 
z
" id="BitstreamVeraSans-Roman-6c"/>
       <path d="M 9.8125 72.90625 
L 51.703125 72.90625 
L 51.703125 64.59375 
L 19.671875 64.59375 
L 19.671875 43.109375 
L 48.578125 43.109375 
L 48.578125 34.8125 
L 19.671875 34.8125 
L 19.671875 0 
L 9.8125 0 
z
" id="BitstreamVeraSans-Roman-46"/>
       <path d="M 34.28125 27.484375 
Q 23.390625 27.484375 19.1875 25 
Q 14.984375 22.515625 14.984375 16.5 
Q 14.984375 11.71875 18.140625 8.90625 
Q 21.296875 6.109375 26.703125 6.109375 
Q 34.1875 6.109375 38.703125 11.40625 
Q 43.21875 16.703125 43.21875 25.484375 
L 43.21875 27.484375 
z
M 52.203125 31.203125 
L 52.203125 0 
L 43.21875 0 
L 43.21875 8.296875 
Q 40.140625 3.328125 35.546875 0.953125 
Q 30.953125 -1.421875 24.3125 -1.421875 
Q 15.921875 -1.421875 10.953125 3.296875 
Q 6 8.015625 6 15.921875 
Q 6 25.140625 12.171875 29.828125 
Q 18.359375 34.515625 30.609375 34.515625 
L 43.21875 34.515625 
L 43.21875 35.40625 
Q 43.21875 41.609375 39.140625 45 
Q 35.0625 48.390625 27.6875 48.390625 
Q 23 48.390625 18.546875 47.265625 
Q 14.109375 46.140625 10.015625 43.890625 
L 10.015625 52.203125 
Q 14.9375 54.109375 19.578125 55.046875 
Q 24.21875 56 28.609375 56 
Q 40.484375 56 46.34375 49.84375 
Q 52.203125 43.703125 52.203125 31.203125 
" id="BitstreamVeraSans-Roman-61"/>
      </defs>
      <g style="fill:#262626;" transform="translate(597.13359375 522.39765625)scale(0.15 -0.15)">
       <use xlink:href="#BitstreamVeraSans-Roman-46"/>
       <use x="57.37890625" xlink:href="#BitstreamVeraSans-Roman-61"/>
       <use x="118.658203125" xlink:href="#BitstreamVeraSans-Roman-6c"/>
       <use x="146.44140625" xlink:href="#BitstreamVeraSans-Roman-6c"/>
      </g>
     </g>
    </g>
    <g id="text_3">
     <!-- Season -->
     <defs>
      <path d="M 54.890625 33.015625 
L 54.890625 0 
L 45.90625 0 
L 45.90625 32.71875 
Q 45.90625 40.484375 42.875 44.328125 
Q 39.84375 48.1875 33.796875 48.1875 
Q 26.515625 48.1875 22.3125 43.546875 
Q 18.109375 38.921875 18.109375 30.90625 
L 18.109375 0 
L 9.078125 0 
L 9.078125 54.6875 
L 18.109375 54.6875 
L 18.109375 46.1875 
Q 21.34375 51.125 25.703125 53.5625 
Q 30.078125 56 35.796875 56 
Q 45.21875 56 50.046875 50.171875 
Q 54.890625 44.34375 54.890625 33.015625 
" id="BitstreamVeraSans-Roman-6e"/>
      <path d="M 44.28125 53.078125 
L 44.28125 44.578125 
Q 40.484375 46.53125 36.375 47.5 
Q 32.28125 48.484375 27.875 48.484375 
Q 21.1875 48.484375 17.84375 46.4375 
Q 14.5 44.390625 14.5 40.28125 
Q 14.5 37.15625 16.890625 35.375 
Q 19.28125 33.59375 26.515625 31.984375 
L 29.59375 31.296875 
Q 39.15625 29.25 43.1875 25.515625 
Q 47.21875 21.78125 47.21875 15.09375 
Q 47.21875 7.46875 41.1875 3.015625 
Q 35.15625 -1.421875 24.609375 -1.421875 
Q 20.21875 -1.421875 15.453125 -0.5625 
Q 10.6875 0.296875 5.421875 2 
L 5.421875 11.28125 
Q 10.40625 8.6875 15.234375 7.390625 
Q 20.0625 6.109375 24.8125 6.109375 
Q 31.15625 6.109375 34.5625 8.28125 
Q 37.984375 10.453125 37.984375 14.40625 
Q 37.984375 18.0625 35.515625 20.015625 
Q 33.0625 21.96875 24.703125 23.78125 
L 21.578125 24.515625 
Q 13.234375 26.265625 9.515625 29.90625 
Q 5.8125 33.546875 5.8125 39.890625 
Q 5.8125 47.609375 11.28125 51.796875 
Q 16.75 56 26.8125 56 
Q 31.78125 56 36.171875 55.265625 
Q 40.578125 54.546875 44.28125 53.078125 
" id="BitstreamVeraSans-Roman-73"/>
      <path d="M 30.609375 48.390625 
Q 23.390625 48.390625 19.1875 42.75 
Q 14.984375 37.109375 14.984375 27.296875 
Q 14.984375 17.484375 19.15625 11.84375 
Q 23.34375 6.203125 30.609375 6.203125 
Q 37.796875 6.203125 41.984375 11.859375 
Q 46.1875 17.53125 46.1875 27.296875 
Q 46.1875 37.015625 41.984375 42.703125 
Q 37.796875 48.390625 30.609375 48.390625 
M 30.609375 56 
Q 42.328125 56 49.015625 48.375 
Q 55.71875 40.765625 55.71875 27.296875 
Q 55.71875 13.875 49.015625 6.21875 
Q 42.328125 -1.421875 30.609375 -1.421875 
Q 18.84375 -1.421875 12.171875 6.21875 
Q 5.515625 13.875 5.515625 27.296875 
Q 5.515625 40.765625 12.171875 48.375 
Q 18.84375 56 30.609375 56 
" id="BitstreamVeraSans-Roman-6f"/>
     </defs>
     <g style="fill:#262626;" transform="translate(412.856367187 543.054609375)scale(0.165 -0.165)">
      <use xlink:href="#BitstreamVeraSans-Roman-53"/>
      <use x="63.4765625" xlink:href="#BitstreamVeraSans-Roman-65"/>
      <use x="125.0" xlink:href="#BitstreamVeraSans-Roman-61"/>
      <use x="186.279296875" xlink:href="#BitstreamVeraSans-Roman-73"/>
      <use x="238.37890625" xlink:href="#BitstreamVeraSans-Roman-6f"/>
      <use x="299.560546875" xlink:href="#BitstreamVeraSans-Roman-6e"/>
     </g>
    </g>
   </g>
   <g id="matplotlib.axis_2">
    <g id="ytick_1">
     <g id="line2d_5">
      <path clip-path="url(#pb0b8b4e701)" d="M 108 504 
L 777.6 504 
" style="fill:none;stroke:#ffffff;stroke-linecap:round;"/>
     </g>
     <g id="line2d_6">
      <g>
       <use style="fill:#262626;stroke:#262626;" x="108.0" xlink:href="#m3a9667f25b" y="504.0"/>
      </g>
     </g>
     <g id="line2d_7">
      <g>
       <use style="fill:#262626;stroke:#262626;" x="777.6" xlink:href="#m3a9667f25b" y="504.0"/>
      </g>
     </g>
     <g id="text_4">
      <!-- −100 -->
      <defs>
       <path d="M 12.40625 8.296875 
L 28.515625 8.296875 
L 28.515625 63.921875 
L 10.984375 60.40625 
L 10.984375 69.390625 
L 28.421875 72.90625 
L 38.28125 72.90625 
L 38.28125 8.296875 
L 54.390625 8.296875 
L 54.390625 0 
L 12.40625 0 
z
" id="BitstreamVeraSans-Roman-31"/>
       <path d="M 31.78125 66.40625 
Q 24.171875 66.40625 20.328125 58.90625 
Q 16.5 51.421875 16.5 36.375 
Q 16.5 21.390625 20.328125 13.890625 
Q 24.171875 6.390625 31.78125 6.390625 
Q 39.453125 6.390625 43.28125 13.890625 
Q 47.125 21.390625 47.125 36.375 
Q 47.125 51.421875 43.28125 58.90625 
Q 39.453125 66.40625 31.78125 66.40625 
M 31.78125 74.21875 
Q 44.046875 74.21875 50.515625 64.515625 
Q 56.984375 54.828125 56.984375 36.375 
Q 56.984375 17.96875 50.515625 8.265625 
Q 44.046875 -1.421875 31.78125 -1.421875 
Q 19.53125 -1.421875 13.0625 8.265625 
Q 6.59375 17.96875 6.59375 36.375 
Q 6.59375 54.828125 13.0625 64.515625 
Q 19.53125 74.21875 31.78125 74.21875 
" id="BitstreamVeraSans-Roman-30"/>
       <path d="M 10.59375 35.5 
L 73.1875 35.5 
L 73.1875 27.203125 
L 10.59375 27.203125 
z
" id="BitstreamVeraSans-Roman-2212"/>
      </defs>
      <g style="fill:#262626;" transform="translate(59.79921875 508.1390625)scale(0.15 -0.15)">
       <use xlink:href="#BitstreamVeraSans-Roman-2212"/>
       <use x="83.7890625" xlink:href="#BitstreamVeraSans-Roman-31"/>
       <use x="147.412109375" xlink:href="#BitstreamVeraSans-Roman-30"/>
       <use x="211.03515625" xlink:href="#BitstreamVeraSans-Roman-30"/>
      </g>
     </g>
    </g>
    <g id="ytick_2">
     <g id="line2d_8">
      <path clip-path="url(#pb0b8b4e701)" d="M 108 454.4 
L 777.6 454.4 
" style="fill:none;stroke:#ffffff;stroke-linecap:round;"/>
     </g>
     <g id="line2d_9">
      <g>
       <use style="fill:#262626;stroke:#262626;" x="108.0" xlink:href="#m3a9667f25b" y="454.4"/>
      </g>
     </g>
     <g id="line2d_10">
      <g>
       <use style="fill:#262626;stroke:#262626;" x="777.6" xlink:href="#m3a9667f25b" y="454.4"/>
      </g>
     </g>
     <g id="text_5">
      <!-- −50 -->
      <defs>
       <path d="M 10.796875 72.90625 
L 49.515625 72.90625 
L 49.515625 64.59375 
L 19.828125 64.59375 
L 19.828125 46.734375 
Q 21.96875 47.46875 24.109375 47.828125 
Q 26.265625 48.1875 28.421875 48.1875 
Q 40.625 48.1875 47.75 41.5 
Q 54.890625 34.8125 54.890625 23.390625 
Q 54.890625 11.625 47.5625 5.09375 
Q 40.234375 -1.421875 26.90625 -1.421875 
Q 22.3125 -1.421875 17.546875 -0.640625 
Q 12.796875 0.140625 7.71875 1.703125 
L 7.71875 11.625 
Q 12.109375 9.234375 16.796875 8.0625 
Q 21.484375 6.890625 26.703125 6.890625 
Q 35.15625 6.890625 40.078125 11.328125 
Q 45.015625 15.765625 45.015625 23.390625 
Q 45.015625 31 40.078125 35.4375 
Q 35.15625 39.890625 26.703125 39.890625 
Q 22.75 39.890625 18.8125 39.015625 
Q 14.890625 38.140625 10.796875 36.28125 
z
" id="BitstreamVeraSans-Roman-35"/>
      </defs>
      <g style="fill:#262626;" transform="translate(69.34296875 458.5390625)scale(0.15 -0.15)">
       <use xlink:href="#BitstreamVeraSans-Roman-2212"/>
       <use x="83.7890625" xlink:href="#BitstreamVeraSans-Roman-35"/>
       <use x="147.412109375" xlink:href="#BitstreamVeraSans-Roman-30"/>
      </g>
     </g>
    </g>
    <g id="ytick_3">
     <g id="line2d_11">
      <path clip-path="url(#pb0b8b4e701)" d="M 108 404.8 
L 777.6 404.8 
" style="fill:none;stroke:#ffffff;stroke-linecap:round;"/>
     </g>
     <g id="line2d_12">
      <g>
       <use style="fill:#262626;stroke:#262626;" x="108.0" xlink:href="#m3a9667f25b" y="404.8"/>
      </g>
     </g>
     <g id="line2d_13">
      <g>
       <use style="fill:#262626;stroke:#262626;" x="777.6" xlink:href="#m3a9667f25b" y="404.8"/>
      </g>
     </g>
     <g id="text_6">
      <!-- 0 -->
      <g style="fill:#262626;" transform="translate(91.45625 408.9390625)scale(0.15 -0.15)">
       <use xlink:href="#BitstreamVeraSans-Roman-30"/>
      </g>
     </g>
    </g>
    <g id="ytick_4">
     <g id="line2d_14">
      <path clip-path="url(#pb0b8b4e701)" d="M 108 355.2 
L 777.6 355.2 
" style="fill:none;stroke:#ffffff;stroke-linecap:round;"/>
     </g>
     <g id="line2d_15">
      <g>
       <use style="fill:#262626;stroke:#262626;" x="108.0" xlink:href="#m3a9667f25b" y="355.2"/>
      </g>
     </g>
     <g id="line2d_16">
      <g>
       <use style="fill:#262626;stroke:#262626;" x="777.6" xlink:href="#m3a9667f25b" y="355.2"/>
      </g>
     </g>
     <g id="text_7">
      <!-- 50 -->
      <g style="fill:#262626;" transform="translate(81.9125 359.3390625)scale(0.15 -0.15)">
       <use xlink:href="#BitstreamVeraSans-Roman-35"/>
       <use x="63.623046875" xlink:href="#BitstreamVeraSans-Roman-30"/>
      </g>
     </g>
    </g>
    <g id="ytick_5">
     <g id="line2d_17">
      <path clip-path="url(#pb0b8b4e701)" d="M 108 305.6 
L 777.6 305.6 
" style="fill:none;stroke:#ffffff;stroke-linecap:round;"/>
     </g>
     <g id="line2d_18">
      <g>
       <use style="fill:#262626;stroke:#262626;" x="108.0" xlink:href="#m3a9667f25b" y="305.6"/>
      </g>
     </g>
     <g id="line2d_19">
      <g>
       <use style="fill:#262626;stroke:#262626;" x="777.6" xlink:href="#m3a9667f25b" y="305.6"/>
      </g>
     </g>
     <g id="text_8">
      <!-- 100 -->
      <g style="fill:#262626;" transform="translate(72.36875 309.7390625)scale(0.15 -0.15)">
       <use xlink:href="#BitstreamVeraSans-Roman-31"/>
       <use x="63.623046875" xlink:href="#BitstreamVeraSans-Roman-30"/>
       <use x="127.24609375" xlink:href="#BitstreamVeraSans-Roman-30"/>
      </g>
     </g>
    </g>
    <g id="ytick_6">
     <g id="line2d_20">
      <path clip-path="url(#pb0b8b4e701)" d="M 108 256 
L 777.6 256 
" style="fill:none;stroke:#ffffff;stroke-linecap:round;"/>
     </g>
     <g id="line2d_21">
      <g>
       <use style="fill:#262626;stroke:#262626;" x="108.0" xlink:href="#m3a9667f25b" y="256.0"/>
      </g>
     </g>
     <g id="line2d_22">
      <g>
       <use style="fill:#262626;stroke:#262626;" x="777.6" xlink:href="#m3a9667f25b" y="256.0"/>
      </g>
     </g>
     <g id="text_9">
      <!-- 150 -->
      <g style="fill:#262626;" transform="translate(72.36875 260.1390625)scale(0.15 -0.15)">
       <use xlink:href="#BitstreamVeraSans-Roman-31"/>
       <use x="63.623046875" xlink:href="#BitstreamVeraSans-Roman-35"/>
       <use x="127.24609375" xlink:href="#BitstreamVeraSans-Roman-30"/>
      </g>
     </g>
    </g>
    <g id="ytick_7">
     <g id="line2d_23">
      <path clip-path="url(#pb0b8b4e701)" d="M 108 206.4 
L 777.6 206.4 
" style="fill:none;stroke:#ffffff;stroke-linecap:round;"/>
     </g>
     <g id="line2d_24">
      <g>
       <use style="fill:#262626;stroke:#262626;" x="108.0" xlink:href="#m3a9667f25b" y="206.4"/>
      </g>
     </g>
     <g id="line2d_25">
      <g>
       <use style="fill:#262626;stroke:#262626;" x="777.6" xlink:href="#m3a9667f25b" y="206.4"/>
      </g>
     </g>
     <g id="text_10">
      <!-- 200 -->
      <defs>
       <path d="M 19.1875 8.296875 
L 53.609375 8.296875 
L 53.609375 0 
L 7.328125 0 
L 7.328125 8.296875 
Q 12.9375 14.109375 22.625 23.890625 
Q 32.328125 33.6875 34.8125 36.53125 
Q 39.546875 41.84375 41.421875 45.53125 
Q 43.3125 49.21875 43.3125 52.78125 
Q 43.3125 58.59375 39.234375 62.25 
Q 35.15625 65.921875 28.609375 65.921875 
Q 23.96875 65.921875 18.8125 64.3125 
Q 13.671875 62.703125 7.8125 59.421875 
L 7.8125 69.390625 
Q 13.765625 71.78125 18.9375 73 
Q 24.125 74.21875 28.421875 74.21875 
Q 39.75 74.21875 46.484375 68.546875 
Q 53.21875 62.890625 53.21875 53.421875 
Q 53.21875 48.921875 51.53125 44.890625 
Q 49.859375 40.875 45.40625 35.40625 
Q 44.1875 33.984375 37.640625 27.21875 
Q 31.109375 20.453125 19.1875 8.296875 
" id="BitstreamVeraSans-Roman-32"/>
      </defs>
      <g style="fill:#262626;" transform="translate(72.36875 210.5390625)scale(0.15 -0.15)">
       <use xlink:href="#BitstreamVeraSans-Roman-32"/>
       <use x="63.623046875" xlink:href="#BitstreamVeraSans-Roman-30"/>
       <use x="127.24609375" xlink:href="#BitstreamVeraSans-Roman-30"/>
      </g>
     </g>
    </g>
    <g id="ytick_8">
     <g id="line2d_26">
      <path clip-path="url(#pb0b8b4e701)" d="M 108 156.8 
L 777.6 156.8 
" style="fill:none;stroke:#ffffff;stroke-linecap:round;"/>
     </g>
     <g id="line2d_27">
      <g>
       <use style="fill:#262626;stroke:#262626;" x="108.0" xlink:href="#m3a9667f25b" y="156.8"/>
      </g>
     </g>
     <g id="line2d_28">
      <g>
       <use style="fill:#262626;stroke:#262626;" x="777.6" xlink:href="#m3a9667f25b" y="156.8"/>
      </g>
     </g>
     <g id="text_11">
      <!-- 250 -->
      <g style="fill:#262626;" transform="translate(72.36875 160.9390625)scale(0.15 -0.15)">
       <use xlink:href="#BitstreamVeraSans-Roman-32"/>
       <use x="63.623046875" xlink:href="#BitstreamVeraSans-Roman-35"/>
       <use x="127.24609375" xlink:href="#BitstreamVeraSans-Roman-30"/>
      </g>
     </g>
    </g>
    <g id="ytick_9">
     <g id="line2d_29">
      <path clip-path="url(#pb0b8b4e701)" d="M 108 107.2 
L 777.6 107.2 
" style="fill:none;stroke:#ffffff;stroke-linecap:round;"/>
     </g>
     <g id="line2d_30">
      <g>
       <use style="fill:#262626;stroke:#262626;" x="108.0" xlink:href="#m3a9667f25b" y="107.2"/>
      </g>
     </g>
     <g id="line2d_31">
      <g>
       <use style="fill:#262626;stroke:#262626;" x="777.6" xlink:href="#m3a9667f25b" y="107.2"/>
      </g>
     </g>
     <g id="text_12">
      <!-- 300 -->
      <defs>
       <path d="M 40.578125 39.3125 
Q 47.65625 37.796875 51.625 33 
Q 55.609375 28.21875 55.609375 21.1875 
Q 55.609375 10.40625 48.1875 4.484375 
Q 40.765625 -1.421875 27.09375 -1.421875 
Q 22.515625 -1.421875 17.65625 -0.515625 
Q 12.796875 0.390625 7.625 2.203125 
L 7.625 11.71875 
Q 11.71875 9.328125 16.59375 8.109375 
Q 21.484375 6.890625 26.8125 6.890625 
Q 36.078125 6.890625 40.9375 10.546875 
Q 45.796875 14.203125 45.796875 21.1875 
Q 45.796875 27.640625 41.28125 31.265625 
Q 36.765625 34.90625 28.71875 34.90625 
L 20.21875 34.90625 
L 20.21875 43.015625 
L 29.109375 43.015625 
Q 36.375 43.015625 40.234375 45.921875 
Q 44.09375 48.828125 44.09375 54.296875 
Q 44.09375 59.90625 40.109375 62.90625 
Q 36.140625 65.921875 28.71875 65.921875 
Q 24.65625 65.921875 20.015625 65.03125 
Q 15.375 64.15625 9.8125 62.3125 
L 9.8125 71.09375 
Q 15.4375 72.65625 20.34375 73.4375 
Q 25.25 74.21875 29.59375 74.21875 
Q 40.828125 74.21875 47.359375 69.109375 
Q 53.90625 64.015625 53.90625 55.328125 
Q 53.90625 49.265625 50.4375 45.09375 
Q 46.96875 40.921875 40.578125 39.3125 
" id="BitstreamVeraSans-Roman-33"/>
      </defs>
      <g style="fill:#262626;" transform="translate(72.36875 111.3390625)scale(0.15 -0.15)">
       <use xlink:href="#BitstreamVeraSans-Roman-33"/>
       <use x="63.623046875" xlink:href="#BitstreamVeraSans-Roman-30"/>
       <use x="127.24609375" xlink:href="#BitstreamVeraSans-Roman-30"/>
      </g>
     </g>
    </g>
    <g id="ytick_10">
     <g id="line2d_32">
      <path clip-path="url(#pb0b8b4e701)" d="M 108 57.6 
L 777.6 57.6 
" style="fill:none;stroke:#ffffff;stroke-linecap:round;"/>
     </g>
     <g id="line2d_33">
      <g>
       <use style="fill:#262626;stroke:#262626;" x="108.0" xlink:href="#m3a9667f25b" y="57.6"/>
      </g>
     </g>
     <g id="line2d_34">
      <g>
       <use style="fill:#262626;stroke:#262626;" x="777.6" xlink:href="#m3a9667f25b" y="57.6"/>
      </g>
     </g>
     <g id="text_13">
      <!-- 350 -->
      <g style="fill:#262626;" transform="translate(72.36875 61.7390625)scale(0.15 -0.15)">
       <use xlink:href="#BitstreamVeraSans-Roman-33"/>
       <use x="63.623046875" xlink:href="#BitstreamVeraSans-Roman-35"/>
       <use x="127.24609375" xlink:href="#BitstreamVeraSans-Roman-30"/>
      </g>
     </g>
    </g>
    <g id="text_14">
     <!-- OTU Counts -->
     <defs>
      <path d="M 64.40625 67.28125 
L 64.40625 56.890625 
Q 59.421875 61.53125 53.78125 63.8125 
Q 48.140625 66.109375 41.796875 66.109375 
Q 29.296875 66.109375 22.65625 58.46875 
Q 16.015625 50.828125 16.015625 36.375 
Q 16.015625 21.96875 22.65625 14.328125 
Q 29.296875 6.6875 41.796875 6.6875 
Q 48.140625 6.6875 53.78125 8.984375 
Q 59.421875 11.28125 64.40625 15.921875 
L 64.40625 5.609375 
Q 59.234375 2.09375 53.4375 0.328125 
Q 47.65625 -1.421875 41.21875 -1.421875 
Q 24.65625 -1.421875 15.125 8.703125 
Q 5.609375 18.84375 5.609375 36.375 
Q 5.609375 53.953125 15.125 64.078125 
Q 24.65625 74.21875 41.21875 74.21875 
Q 47.75 74.21875 53.53125 72.484375 
Q 59.328125 70.75 64.40625 67.28125 
" id="BitstreamVeraSans-Roman-43"/>
      <path d="M 39.40625 66.21875 
Q 28.65625 66.21875 22.328125 58.203125 
Q 16.015625 50.203125 16.015625 36.375 
Q 16.015625 22.609375 22.328125 14.59375 
Q 28.65625 6.59375 39.40625 6.59375 
Q 50.140625 6.59375 56.421875 14.59375 
Q 62.703125 22.609375 62.703125 36.375 
Q 62.703125 50.203125 56.421875 58.203125 
Q 50.140625 66.21875 39.40625 66.21875 
M 39.40625 74.21875 
Q 54.734375 74.21875 63.90625 63.9375 
Q 73.09375 53.65625 73.09375 36.375 
Q 73.09375 19.140625 63.90625 8.859375 
Q 54.734375 -1.421875 39.40625 -1.421875 
Q 24.03125 -1.421875 14.8125 8.828125 
Q 5.609375 19.09375 5.609375 36.375 
Q 5.609375 53.65625 14.8125 63.9375 
Q 24.03125 74.21875 39.40625 74.21875 
" id="BitstreamVeraSans-Roman-4f"/>
      <path id="BitstreamVeraSans-Roman-20"/>
      <path d="M 18.3125 70.21875 
L 18.3125 54.6875 
L 36.8125 54.6875 
L 36.8125 47.703125 
L 18.3125 47.703125 
L 18.3125 18.015625 
Q 18.3125 11.328125 20.140625 9.421875 
Q 21.96875 7.515625 27.59375 7.515625 
L 36.8125 7.515625 
L 36.8125 0 
L 27.59375 0 
Q 17.1875 0 13.234375 3.875 
Q 9.28125 7.765625 9.28125 18.015625 
L 9.28125 47.703125 
L 2.6875 47.703125 
L 2.6875 54.6875 
L 9.28125 54.6875 
L 9.28125 70.21875 
z
" id="BitstreamVeraSans-Roman-74"/>
      <path d="M 8.6875 72.90625 
L 18.609375 72.90625 
L 18.609375 28.609375 
Q 18.609375 16.890625 22.84375 11.734375 
Q 27.09375 6.59375 36.625 6.59375 
Q 46.09375 6.59375 50.34375 11.734375 
Q 54.59375 16.890625 54.59375 28.609375 
L 54.59375 72.90625 
L 64.5 72.90625 
L 64.5 27.390625 
Q 64.5 13.140625 57.4375 5.859375 
Q 50.390625 -1.421875 36.625 -1.421875 
Q 22.796875 -1.421875 15.734375 5.859375 
Q 8.6875 13.140625 8.6875 27.390625 
z
" id="BitstreamVeraSans-Roman-55"/>
      <path d="M -0.296875 72.90625 
L 61.375 72.90625 
L 61.375 64.59375 
L 35.5 64.59375 
L 35.5 0 
L 25.59375 0 
L 25.59375 64.59375 
L -0.296875 64.59375 
z
" id="BitstreamVeraSans-Roman-54"/>
     </defs>
     <g style="fill:#262626;" transform="translate(51.367734375 329.790820313)rotate(-90.0)scale(0.165 -0.165)">
      <use xlink:href="#BitstreamVeraSans-Roman-4f"/>
      <use x="78.7109375" xlink:href="#BitstreamVeraSans-Roman-54"/>
      <use x="139.794921875" xlink:href="#BitstreamVeraSans-Roman-55"/>
      <use x="212.98828125" xlink:href="#BitstreamVeraSans-Roman-20"/>
      <use x="244.775390625" xlink:href="#BitstreamVeraSans-Roman-43"/>
      <use x="314.599609375" xlink:href="#BitstreamVeraSans-Roman-6f"/>
      <use x="375.78125" xlink:href="#BitstreamVeraSans-Roman-75"/>
      <use x="439.16015625" xlink:href="#BitstreamVeraSans-Roman-6e"/>
      <use x="502.5390625" xlink:href="#BitstreamVeraSans-Roman-74"/>
      <use x="541.748046875" xlink:href="#BitstreamVeraSans-Roman-73"/>
     </g>
    </g>
   </g>
   <g id="PolyCollection_1">
    <defs>
     <path d="M 282.439961 -129.48257 
L 268.360039 -129.48257 
L 267.018566 -133.100942 
L 265.480141 -136.719315 
L 263.728113 -140.337687 
L 261.746783 -143.956059 
L 259.521923 -147.574432 
L 257.04133 -151.192804 
L 254.295405 -154.811176 
L 251.277722 -158.429549 
L 247.985587 -162.047921 
L 244.420552 -165.666293 
L 240.588863 -169.284666 
L 236.501823 -172.903038 
L 232.176037 -176.52141 
L 227.633544 -180.139783 
L 222.90179 -183.758155 
L 218.013456 -187.376527 
L 213.006132 -190.9949 
L 207.921829 -194.613272 
L 202.806347 -198.231644 
L 197.708513 -201.850016 
L 192.679312 -205.468389 
L 187.770924 -209.086761 
L 183.035721 -212.705133 
L 178.52523 -216.323506 
L 174.289115 -219.941878 
L 170.3742 -223.56025 
L 166.823563 -227.178623 
L 163.675735 -230.796995 
L 160.964009 -234.415367 
L 158.715894 -238.03374 
L 156.952701 -241.652112 
L 155.689281 -245.270484 
L 154.9339 -248.888857 
L 154.688247 -252.507229 
L 154.947563 -256.125601 
L 155.700878 -259.743974 
L 156.931325 -263.362346 
L 158.616544 -266.980718 
L 160.729129 -270.599091 
L 163.237126 -274.217463 
L 166.104567 -277.835835 
L 169.292024 -281.454208 
L 172.757191 -285.07258 
L 176.455488 -288.690952 
L 180.340672 -292.309325 
L 184.365479 -295.927697 
L 188.48228 -299.546069 
L 192.643751 -303.164442 
L 196.80356 -306.782814 
L 200.91706 -310.401186 
L 204.941978 -314.019558 
L 208.839095 -317.637931 
L 212.57289 -321.256303 
L 216.112144 -324.874675 
L 219.430472 -328.493048 
L 222.506781 -332.11142 
L 225.325608 -335.729792 
L 227.877357 -339.348165 
L 230.158384 -342.966537 
L 232.17095 -346.584909 
L 233.923021 -350.203282 
L 235.427916 -353.821654 
L 236.703815 -357.440026 
L 237.77314 -361.058399 
L 238.661814 -364.676771 
L 239.398438 -368.295143 
L 240.013405 -371.913516 
L 240.537968 -375.531888 
L 241.003323 -379.15026 
L 241.439705 -382.768633 
L 241.875555 -386.387005 
L 242.336764 -390.005377 
L 242.846042 -393.62375 
L 243.4224 -397.242122 
L 244.080793 -400.860494 
L 244.831907 -404.478867 
L 245.682097 -408.097239 
L 246.633479 -411.715611 
L 247.684158 -415.333984 
L 248.828571 -418.952356 
L 250.057941 -422.570728 
L 251.360799 -426.1891 
L 252.723565 -429.807473 
L 254.131153 -433.425845 
L 255.56758 -437.044217 
L 257.016549 -440.66259 
L 258.461999 -444.280962 
L 259.888583 -447.899334 
L 261.282089 -451.517707 
L 262.629769 -455.136079 
L 263.920589 -458.754451 
L 265.14539 -462.372824 
L 266.296974 -465.991196 
L 267.3701 -469.609568 
L 268.361432 -473.227941 
L 269.269417 -476.846313 
L 270.094122 -480.464685 
L 270.837044 -484.083058 
L 271.500893 -487.70143 
L 279.299107 -487.70143 
L 279.299107 -487.70143 
L 279.962956 -484.083058 
L 280.705878 -480.464685 
L 281.530583 -476.846313 
L 282.438568 -473.227941 
L 283.4299 -469.609568 
L 284.503026 -465.991196 
L 285.65461 -462.372824 
L 286.879411 -458.754451 
L 288.170231 -455.136079 
L 289.517911 -451.517707 
L 290.911417 -447.899334 
L 292.338001 -444.280962 
L 293.783451 -440.66259 
L 295.23242 -437.044217 
L 296.668847 -433.425845 
L 298.076435 -429.807473 
L 299.439201 -426.1891 
L 300.742059 -422.570728 
L 301.971429 -418.952356 
L 303.115842 -415.333984 
L 304.166521 -411.715611 
L 305.117903 -408.097239 
L 305.968093 -404.478867 
L 306.719207 -400.860494 
L 307.3776 -397.242122 
L 307.953958 -393.62375 
L 308.463236 -390.005377 
L 308.924445 -386.387005 
L 309.360295 -382.768633 
L 309.796677 -379.15026 
L 310.262032 -375.531888 
L 310.786595 -371.913516 
L 311.401562 -368.295143 
L 312.138186 -364.676771 
L 313.02686 -361.058399 
L 314.096185 -357.440026 
L 315.372084 -353.821654 
L 316.876979 -350.203282 
L 318.62905 -346.584909 
L 320.641616 -342.966537 
L 322.922643 -339.348165 
L 325.474392 -335.729792 
L 328.293219 -332.11142 
L 331.369528 -328.493048 
L 334.687856 -324.874675 
L 338.22711 -321.256303 
L 341.960905 -317.637931 
L 345.858022 -314.019558 
L 349.88294 -310.401186 
L 353.99644 -306.782814 
L 358.156249 -303.164442 
L 362.31772 -299.546069 
L 366.434521 -295.927697 
L 370.459328 -292.309325 
L 374.344512 -288.690952 
L 378.042809 -285.07258 
L 381.507976 -281.454208 
L 384.695433 -277.835835 
L 387.562874 -274.217463 
L 390.070871 -270.599091 
L 392.183456 -266.980718 
L 393.868675 -263.362346 
L 395.099122 -259.743974 
L 395.852437 -256.125601 
L 396.111753 -252.507229 
L 395.8661 -248.888857 
L 395.110719 -245.270484 
L 393.847299 -241.652112 
L 392.084106 -238.03374 
L 389.835991 -234.415367 
L 387.124265 -230.796995 
L 383.976437 -227.178623 
L 380.4258 -223.56025 
L 376.510885 -219.941878 
L 372.27477 -216.323506 
L 367.764279 -212.705133 
L 363.029076 -209.086761 
L 358.120688 -205.468389 
L 353.091487 -201.850016 
L 347.993653 -198.231644 
L 342.878171 -194.613272 
L 337.793868 -190.9949 
L 332.786544 -187.376527 
L 327.89821 -183.758155 
L 323.166456 -180.139783 
L 318.623963 -176.52141 
L 314.298177 -172.903038 
L 310.211137 -169.284666 
L 306.379448 -165.666293 
L 302.814413 -162.047921 
L 299.522278 -158.429549 
L 296.504595 -154.811176 
L 293.75867 -151.192804 
L 291.278077 -147.574432 
L 289.053217 -143.956059 
L 287.071887 -140.337687 
L 285.319859 -136.719315 
L 283.781434 -133.100942 
L 282.439961 -129.48257 
z
" id="m1ef2e7994d" style="stroke:#1e1e1e;stroke-width:1.75;"/>
    </defs>
    <g clip-path="url(#pb0b8b4e701)">
     <use style="fill:#142452;stroke:#1e1e1e;stroke-width:1.75;" x="0.0" xlink:href="#m1ef2e7994d" y="576.0"/>
    </g>
   </g>
   <g id="PolyCollection_2">
    <defs>
     <path d="M 623.16649 -136.084673 
L 597.23351 -136.084673 
L 594.963227 -139.701937 
L 592.399906 -143.3192 
L 589.526542 -146.936463 
L 586.32912 -150.553726 
L 582.797434 -154.170989 
L 578.925904 -157.788252 
L 574.714384 -161.405516 
L 570.168907 -165.022779 
L 565.302344 -168.640042 
L 560.134935 -172.257305 
L 554.69467 -175.874568 
L 549.017467 -179.491831 
L 543.147142 -183.109094 
L 537.135133 -186.726358 
L 531.039976 -190.343621 
L 524.926522 -193.960884 
L 518.864905 -197.578147 
L 512.929279 -201.19541 
L 507.196346 -204.812673 
L 501.743726 -208.429937 
L 496.648199 -212.0472 
L 491.983888 -215.664463 
L 487.820436 -219.281726 
L 484.221238 -222.898989 
L 481.241799 -226.516252 
L 478.928258 -230.133516 
L 477.316159 -233.750779 
L 476.429483 -237.368042 
L 476.28 -240.985305 
L 476.866952 -244.602568 
L 478.177077 -248.219831 
L 480.184971 -251.837095 
L 482.853778 -255.454358 
L 486.136161 -259.071621 
L 489.975545 -262.688884 
L 494.307549 -266.306147 
L 499.06159 -269.92341 
L 504.162572 -273.540674 
L 509.532623 -277.157937 
L 515.092821 -280.7752 
L 520.764851 -284.392463 
L 526.472556 -288.009726 
L 532.143342 -291.626989 
L 537.70941 -295.244253 
L 543.108788 -298.861516 
L 548.286158 -302.478779 
L 553.193483 -306.096042 
L 557.79041 -309.713305 
L 562.044499 -313.330568 
L 565.931257 -316.947832 
L 569.43402 -320.565095 
L 572.543693 -324.182358 
L 575.258373 -327.799621 
L 577.582875 -331.416884 
L 579.528182 -335.034147 
L 581.110836 -338.651411 
L 582.352285 -342.268674 
L 583.278205 -345.885937 
L 583.9178 -349.5032 
L 584.303091 -353.120463 
L 584.468211 -356.737726 
L 584.448699 -360.35499 
L 584.280806 -363.972253 
L 584.000824 -367.589516 
L 583.644434 -371.206779 
L 583.246087 -374.824042 
L 582.838429 -378.441305 
L 582.451772 -382.058569 
L 582.113619 -385.675832 
L 581.848267 -389.293095 
L 581.676469 -392.910358 
L 581.615197 -396.527621 
L 581.677479 -400.144884 
L 581.872341 -403.762148 
L 582.204833 -407.379411 
L 582.676152 -410.996674 
L 583.283859 -414.613937 
L 584.022165 -418.2312 
L 584.882298 -421.848463 
L 585.852922 -425.465727 
L 586.920604 -429.08299 
L 588.070303 -432.700253 
L 589.285876 -436.317516 
L 590.550579 -439.934779 
L 591.847541 -443.552042 
L 593.160215 -447.169306 
L 594.472771 -450.786569 
L 595.770446 -454.403832 
L 597.039822 -458.021095 
L 598.269044 -461.638358 
L 599.447966 -465.255621 
L 600.568239 -468.872884 
L 601.62333 -472.490148 
L 602.608488 -476.107411 
L 603.520663 -479.724674 
L 604.358382 -483.341937 
L 605.121601 -486.9592 
L 605.811522 -490.576463 
L 606.43041 -494.193727 
L 613.96959 -494.193727 
L 613.96959 -494.193727 
L 614.588478 -490.576463 
L 615.278399 -486.9592 
L 616.041618 -483.341937 
L 616.879337 -479.724674 
L 617.791512 -476.107411 
L 618.77667 -472.490148 
L 619.831761 -468.872884 
L 620.952034 -465.255621 
L 622.130956 -461.638358 
L 623.360178 -458.021095 
L 624.629554 -454.403832 
L 625.927229 -450.786569 
L 627.239785 -447.169306 
L 628.552459 -443.552042 
L 629.849421 -439.934779 
L 631.114124 -436.317516 
L 632.329697 -432.700253 
L 633.479396 -429.08299 
L 634.547078 -425.465727 
L 635.517702 -421.848463 
L 636.377835 -418.2312 
L 637.116141 -414.613937 
L 637.723848 -410.996674 
L 638.195167 -407.379411 
L 638.527659 -403.762148 
L 638.722521 -400.144884 
L 638.784803 -396.527621 
L 638.723531 -392.910358 
L 638.551733 -389.293095 
L 638.286381 -385.675832 
L 637.948228 -382.058569 
L 637.561571 -378.441305 
L 637.153913 -374.824042 
L 636.755566 -371.206779 
L 636.399176 -367.589516 
L 636.119194 -363.972253 
L 635.951301 -360.35499 
L 635.931789 -356.737726 
L 636.096909 -353.120463 
L 636.4822 -349.5032 
L 637.121795 -345.885937 
L 638.047715 -342.268674 
L 639.289164 -338.651411 
L 640.871818 -335.034147 
L 642.817125 -331.416884 
L 645.141627 -327.799621 
L 647.856307 -324.182358 
L 650.96598 -320.565095 
L 654.468743 -316.947832 
L 658.355501 -313.330568 
L 662.60959 -309.713305 
L 667.206517 -306.096042 
L 672.113842 -302.478779 
L 677.291212 -298.861516 
L 682.69059 -295.244253 
L 688.256658 -291.626989 
L 693.927444 -288.009726 
L 699.635149 -284.392463 
L 705.307179 -280.7752 
L 710.867377 -277.157937 
L 716.237428 -273.540674 
L 721.33841 -269.92341 
L 726.092451 -266.306147 
L 730.424455 -262.688884 
L 734.263839 -259.071621 
L 737.546222 -255.454358 
L 740.215029 -251.837095 
L 742.222923 -248.219831 
L 743.533048 -244.602568 
L 744.12 -240.985305 
L 743.970517 -237.368042 
L 743.083841 -233.750779 
L 741.471742 -230.133516 
L 739.158201 -226.516252 
L 736.178762 -222.898989 
L 732.579564 -219.281726 
L 728.416112 -215.664463 
L 723.751801 -212.0472 
L 718.656274 -208.429937 
L 713.203654 -204.812673 
L 707.470721 -201.19541 
L 701.535095 -197.578147 
L 695.473478 -193.960884 
L 689.360024 -190.343621 
L 683.264867 -186.726358 
L 677.252858 -183.109094 
L 671.382533 -179.491831 
L 665.70533 -175.874568 
L 660.265065 -172.257305 
L 655.097656 -168.640042 
L 650.231093 -165.022779 
L 645.685616 -161.405516 
L 641.474096 -157.788252 
L 637.602566 -154.170989 
L 634.07088 -150.553726 
L 630.873458 -146.936463 
L 628.000094 -143.3192 
L 625.436773 -139.701937 
L 623.16649 -136.084673 
z
" id="m10b112912b" style="stroke:#1e1e1e;stroke-width:1.75;"/>
    </defs>
    <g clip-path="url(#pb0b8b4e701)">
     <use style="fill:#f9fadb;stroke:#1e1e1e;stroke-width:1.75;" x="0.0" xlink:href="#m10b112912b" y="576.0"/>
    </g>
   </g>
   <g id="line2d_35">
    <path clip-path="url(#pb0b8b4e701)" d="M 275.4 356.192 
L 275.4 281.3952 
" style="fill:none;stroke:#1e1e1e;stroke-linecap:round;stroke-width:1.75;"/>
   </g>
   <g id="line2d_36">
    <path clip-path="url(#pb0b8b4e701)" d="M 275.4 337.7408 
L 275.4 285.5864 
" style="fill:none;stroke:#1e1e1e;stroke-linecap:round;stroke-width:5.25;"/>
   </g>
   <g id="line2d_37">
    <path clip-path="url(#pb0b8b4e701)" d="M 610.2 346.5696 
L 610.2 309.1712 
" style="fill:none;stroke:#1e1e1e;stroke-linecap:round;stroke-width:1.75;"/>
   </g>
   <g id="line2d_38">
    <path clip-path="url(#pb0b8b4e701)" d="M 610.2 341.7336 
L 610.2 316.388 
" style="fill:none;stroke:#1e1e1e;stroke-linecap:round;stroke-width:5.25;"/>
   </g>
   <g id="patch_3">
    <path d="M 777.6 504 
L 777.6 57.6 
" style="fill:none;"/>
   </g>
   <g id="patch_4">
    <path d="M 108 504 
L 777.6 504 
" style="fill:none;"/>
   </g>
   <g id="patch_5">
    <path d="M 108 504 
L 108 57.6 
" style="fill:none;"/>
   </g>
   <g id="patch_6">
    <path d="M 108 57.6 
L 777.6 57.6 
" style="fill:none;"/>
   </g>
   <g id="PathCollection_1">
    <defs>
     <path d="M 0 1.75 
C 0.464105 1.75 0.909265 1.565609 1.237437 1.237437 
C 1.565609 0.909265 1.75 0.464105 1.75 0 
C 1.75 -0.464105 1.565609 -0.909265 1.237437 -1.237437 
C 0.909265 -1.565609 0.464105 -1.75 0 -1.75 
C -0.464105 -1.75 -0.909265 -1.565609 -1.237437 -1.237437 
C -1.565609 -0.909265 -1.75 -0.464105 -1.75 0 
C -1.75 0.464105 -1.565609 0.909265 -1.237437 1.237437 
C -0.909265 1.565609 -0.464105 1.75 0 1.75 
z
" id="m1c28a175cf" style="stroke:#1e1e1e;stroke-width:0.3;"/>
    </defs>
    <g clip-path="url(#pb0b8b4e701)">
     <use style="fill:#ffffff;stroke:#1e1e1e;stroke-width:0.3;" x="275.4" xlink:href="#m1c28a175cf" y="316.016"/>
    </g>
   </g>
   <g id="PathCollection_2">
    <g clip-path="url(#pb0b8b4e701)">
     <use style="fill:#ffffff;stroke:#1e1e1e;stroke-width:0.3;" x="610.2" xlink:href="#m1c28a175cf" y="339.7744"/>
    </g>
   </g>
  </g>
 </g>
 <defs>
  <clipPath id="pb0b8b4e701">
   <rect height="446.4" width="669.6" x="108.0" y="57.6"/>
  </clipPath>
 </defs>
</svg>
