<?xml version="1.0" encoding="utf-8" standalone="no"?>
<!DOCTYPE svg PUBLIC "-//W3C//DTD SVG 1.1//EN"
  "http://www.w3.org/Graphics/SVG/1.1/DTD/svg11.dtd">
<!-- Created with matplotlib (http://matplotlib.org/) -->
<svg height="720pt" version="1.1" viewBox="0 0 864 720" width="864pt" xmlns="http://www.w3.org/2000/svg" xmlns:xlink="http://www.w3.org/1999/xlink">
 <defs>
  <style type="text/css">
*{stroke-linecap:butt;stroke-linejoin:round;stroke-miterlimit:100000;}
  </style>
 </defs>
 <g id="figure_1">
  <g id="patch_1">
   <path d="M 0 720 
L 864 720 
L 864 0 
L 0 0 
z
" style="fill:#ffffff;"/>
  </g>
  <g id="axes_1">
   <g id="patch_2">
    <path d="M 108 630 
L 777.6 630 
L 777.6 72 
L 108 72 
z
" style="fill:#eaeaf2;"/>
   </g>
   <g id="matplotlib.axis_1">
    <g id="xtick_1">
     <g id="line2d_1">
      <path clip-path="url(#paed6be5e5e)" d="M 108 630 
L 108 72 
" style="fill:none;stroke:#ffffff;stroke-linecap:round;"/>
     </g>
     <g id="line2d_2">
      <defs>
       <path d="M 0 0 
L 0 0 
" id="m63e4c110ab" style="stroke:#262626;"/>
      </defs>
      <g>
       <use style="fill:#262626;stroke:#262626;" x="108.0" xlink:href="#m63e4c110ab" y="630.0"/>
      </g>
     </g>
     <g id="line2d_3">
      <g>
       <use style="fill:#262626;stroke:#262626;" x="108.0" xlink:href="#m63e4c110ab" y="72.0"/>
      </g>
     </g>
    </g>
    <g id="xtick_2">
     <g id="line2d_4">
      <path clip-path="url(#paed6be5e5e)" d="M 191.7 630 
L 191.7 72 
" style="fill:none;stroke:#ffffff;stroke-linecap:round;"/>
     </g>
     <g id="line2d_5">
      <g>
       <use style="fill:#262626;stroke:#262626;" x="191.7" xlink:href="#m63e4c110ab" y="630.0"/>
      </g>
     </g>
     <g id="line2d_6">
      <g>
       <use style="fill:#262626;stroke:#262626;" x="191.7" xlink:href="#m63e4c110ab" y="72.0"/>
      </g>
     </g>
    </g>
    <g id="xtick_3">
     <g id="line2d_7">
      <path clip-path="url(#paed6be5e5e)" d="M 275.4 630 
L 275.4 72 
" style="fill:none;stroke:#ffffff;stroke-linecap:round;"/>
     </g>
     <g id="line2d_8">
      <g>
       <use style="fill:#262626;stroke:#262626;" x="275.4" xlink:href="#m63e4c110ab" y="630.0"/>
      </g>
     </g>
     <g id="line2d_9">
      <g>
       <use style="fill:#262626;stroke:#262626;" x="275.4" xlink:href="#m63e4c110ab" y="72.0"/>
      </g>
     </g>
    </g>
    <g id="xtick_4">
     <g id="line2d_10">
      <path clip-path="url(#paed6be5e5e)" d="M 359.1 630 
L 359.1 72 
" style="fill:none;stroke:#ffffff;stroke-linecap:round;"/>
     </g>
     <g id="line2d_11">
      <g>
       <use style="fill:#262626;stroke:#262626;" x="359.1" xlink:href="#m63e4c110ab" y="630.0"/>
      </g>
     </g>
     <g id="line2d_12">
      <g>
       <use style="fill:#262626;stroke:#262626;" x="359.1" xlink:href="#m63e4c110ab" y="72.0"/>
      </g>
     </g>
    </g>
    <g id="xtick_5">
     <g id="line2d_13">
      <path clip-path="url(#paed6be5e5e)" d="M 442.8 630 
L 442.8 72 
" style="fill:none;stroke:#ffffff;stroke-linecap:round;"/>
     </g>
     <g id="line2d_14">
      <g>
       <use style="fill:#262626;stroke:#262626;" x="442.8" xlink:href="#m63e4c110ab" y="630.0"/>
      </g>
     </g>
     <g id="line2d_15">
      <g>
       <use style="fill:#262626;stroke:#262626;" x="442.8" xlink:href="#m63e4c110ab" y="72.0"/>
      </g>
     </g>
    </g>
    <g id="xtick_6">
     <g id="line2d_16">
      <path clip-path="url(#paed6be5e5e)" d="M 526.5 630 
L 526.5 72 
" style="fill:none;stroke:#ffffff;stroke-linecap:round;"/>
     </g>
     <g id="line2d_17">
      <g>
       <use style="fill:#262626;stroke:#262626;" x="526.5" xlink:href="#m63e4c110ab" y="630.0"/>
      </g>
     </g>
     <g id="line2d_18">
      <g>
       <use style="fill:#262626;stroke:#262626;" x="526.5" xlink:href="#m63e4c110ab" y="72.0"/>
      </g>
     </g>
    </g>
    <g id="xtick_7">
     <g id="line2d_19">
      <path clip-path="url(#paed6be5e5e)" d="M 610.2 630 
L 610.2 72 
" style="fill:none;stroke:#ffffff;stroke-linecap:round;"/>
     </g>
     <g id="line2d_20">
      <g>
       <use style="fill:#262626;stroke:#262626;" x="610.2" xlink:href="#m63e4c110ab" y="630.0"/>
      </g>
     </g>
     <g id="line2d_21">
      <g>
       <use style="fill:#262626;stroke:#262626;" x="610.2" xlink:href="#m63e4c110ab" y="72.0"/>
      </g>
     </g>
    </g>
    <g id="xtick_8">
     <g id="line2d_22">
      <path clip-path="url(#paed6be5e5e)" d="M 693.9 630 
L 693.9 72 
" style="fill:none;stroke:#ffffff;stroke-linecap:round;"/>
     </g>
     <g id="line2d_23">
      <g>
       <use style="fill:#262626;stroke:#262626;" x="693.9" xlink:href="#m63e4c110ab" y="630.0"/>
      </g>
     </g>
     <g id="line2d_24">
      <g>
       <use style="fill:#262626;stroke:#262626;" x="693.9" xlink:href="#m63e4c110ab" y="72.0"/>
      </g>
     </g>
    </g>
    <g id="xtick_9">
     <g id="line2d_25">
      <path clip-path="url(#paed6be5e5e)" d="M 777.6 630 
L 777.6 72 
" style="fill:none;stroke:#ffffff;stroke-linecap:round;"/>
     </g>
     <g id="line2d_26">
      <g>
       <use style="fill:#262626;stroke:#262626;" x="777.6" xlink:href="#m63e4c110ab" y="630.0"/>
      </g>
     </g>
     <g id="line2d_27">
      <g>
       <use style="fill:#262626;stroke:#262626;" x="777.6" xlink:href="#m63e4c110ab" y="72.0"/>
      </g>
     </g>
    </g>
    <g id="text_1">
     <!-- PC1 (12.207%) -->
     <defs>
      <path d="M 19.1875 8.296875 
L 53.609375 8.296875 
L 53.609375 0 
L 7.328125 0 
L 7.328125 8.296875 
Q 12.9375 14.109375 22.625 23.890625 
Q 32.328125 33.6875 34.8125 36.53125 
Q 39.546875 41.84375 41.421875 45.53125 
Q 43.3125 49.21875 43.3125 52.78125 
Q 43.3125 58.59375 39.234375 62.25 
Q 35.15625 65.921875 28.609375 65.921875 
Q 23.96875 65.921875 18.8125 64.3125 
Q 13.671875 62.703125 7.8125 59.421875 
L 7.8125 69.390625 
Q 13.765625 71.78125 18.9375 73 
Q 24.125 74.21875 28.421875 74.21875 
Q 39.75 74.21875 46.484375 68.546875 
Q 53.21875 62.890625 53.21875 53.421875 
Q 53.21875 48.921875 51.53125 44.890625 
Q 49.859375 40.875 45.40625 35.40625 
Q 44.1875 33.984375 37.640625 27.21875 
Q 31.109375 20.453125 19.1875 8.296875 
" id="BitstreamVeraSans-Roman-32"/>
      <path d="M 72.703125 32.078125 
Q 68.453125 32.078125 66.03125 28.46875 
Q 63.625 24.859375 63.625 18.40625 
Q 63.625 12.0625 66.03125 8.421875 
Q 68.453125 4.78125 72.703125 4.78125 
Q 76.859375 4.78125 79.265625 8.421875 
Q 81.6875 12.0625 81.6875 18.40625 
Q 81.6875 24.8125 79.265625 28.4375 
Q 76.859375 32.078125 72.703125 32.078125 
M 72.703125 38.28125 
Q 80.421875 38.28125 84.953125 32.90625 
Q 89.5 27.546875 89.5 18.40625 
Q 89.5 9.28125 84.9375 3.921875 
Q 80.375 -1.421875 72.703125 -1.421875 
Q 64.890625 -1.421875 60.34375 3.921875 
Q 55.8125 9.28125 55.8125 18.40625 
Q 55.8125 27.59375 60.375 32.9375 
Q 64.9375 38.28125 72.703125 38.28125 
M 22.3125 68.015625 
Q 18.109375 68.015625 15.6875 64.375 
Q 13.28125 60.75 13.28125 54.390625 
Q 13.28125 47.953125 15.671875 44.328125 
Q 18.0625 40.71875 22.3125 40.71875 
Q 26.5625 40.71875 28.96875 44.328125 
Q 31.390625 47.953125 31.390625 54.390625 
Q 31.390625 60.6875 28.953125 64.34375 
Q 26.515625 68.015625 22.3125 68.015625 
M 66.40625 74.21875 
L 74.21875 74.21875 
L 28.609375 -1.421875 
L 20.796875 -1.421875 
z
M 22.3125 74.21875 
Q 30.03125 74.21875 34.609375 68.875 
Q 39.203125 63.53125 39.203125 54.390625 
Q 39.203125 45.171875 34.640625 39.84375 
Q 30.078125 34.515625 22.3125 34.515625 
Q 14.546875 34.515625 10.03125 39.859375 
Q 5.515625 45.21875 5.515625 54.390625 
Q 5.515625 63.484375 10.046875 68.84375 
Q 14.59375 74.21875 22.3125 74.21875 
" id="BitstreamVeraSans-Roman-25"/>
      <path d="M 8.015625 75.875 
L 15.828125 75.875 
Q 23.140625 64.359375 26.78125 53.3125 
Q 30.421875 42.28125 30.421875 31.390625 
Q 30.421875 20.453125 26.78125 9.375 
Q 23.140625 -1.703125 15.828125 -13.1875 
L 8.015625 -13.1875 
Q 14.5 -2 17.703125 9.0625 
Q 20.90625 20.125 20.90625 31.390625 
Q 20.90625 42.671875 17.703125 53.65625 
Q 14.5 64.65625 8.015625 75.875 
" id="BitstreamVeraSans-Roman-29"/>
      <path d="M 8.203125 72.90625 
L 55.078125 72.90625 
L 55.078125 68.703125 
L 28.609375 0 
L 18.3125 0 
L 43.21875 64.59375 
L 8.203125 64.59375 
z
" id="BitstreamVeraSans-Roman-37"/>
      <path d="M 31.78125 66.40625 
Q 24.171875 66.40625 20.328125 58.90625 
Q 16.5 51.421875 16.5 36.375 
Q 16.5 21.390625 20.328125 13.890625 
Q 24.171875 6.390625 31.78125 6.390625 
Q 39.453125 6.390625 43.28125 13.890625 
Q 47.125 21.390625 47.125 36.375 
Q 47.125 51.421875 43.28125 58.90625 
Q 39.453125 66.40625 31.78125 66.40625 
M 31.78125 74.21875 
Q 44.046875 74.21875 50.515625 64.515625 
Q 56.984375 54.828125 56.984375 36.375 
Q 56.984375 17.96875 50.515625 8.265625 
Q 44.046875 -1.421875 31.78125 -1.421875 
Q 19.53125 -1.421875 13.0625 8.265625 
Q 6.59375 17.96875 6.59375 36.375 
Q 6.59375 54.828125 13.0625 64.515625 
Q 19.53125 74.21875 31.78125 74.21875 
" id="BitstreamVeraSans-Roman-30"/>
      <path d="M 12.40625 8.296875 
L 28.515625 8.296875 
L 28.515625 63.921875 
L 10.984375 60.40625 
L 10.984375 69.390625 
L 28.421875 72.90625 
L 38.28125 72.90625 
L 38.28125 8.296875 
L 54.390625 8.296875 
L 54.390625 0 
L 12.40625 0 
z
" id="BitstreamVeraSans-Roman-31"/>
      <path d="M 64.40625 67.28125 
L 64.40625 56.890625 
Q 59.421875 61.53125 53.78125 63.8125 
Q 48.140625 66.109375 41.796875 66.109375 
Q 29.296875 66.109375 22.65625 58.46875 
Q 16.015625 50.828125 16.015625 36.375 
Q 16.015625 21.96875 22.65625 14.328125 
Q 29.296875 6.6875 41.796875 6.6875 
Q 48.140625 6.6875 53.78125 8.984375 
Q 59.421875 11.28125 64.40625 15.921875 
L 64.40625 5.609375 
Q 59.234375 2.09375 53.4375 0.328125 
Q 47.65625 -1.421875 41.21875 -1.421875 
Q 24.65625 -1.421875 15.125 8.703125 
Q 5.609375 18.84375 5.609375 36.375 
Q 5.609375 53.953125 15.125 64.078125 
Q 24.65625 74.21875 41.21875 74.21875 
Q 47.75 74.21875 53.53125 72.484375 
Q 59.328125 70.75 64.40625 67.28125 
" id="BitstreamVeraSans-Roman-43"/>
      <path d="M 19.671875 64.796875 
L 19.671875 37.40625 
L 32.078125 37.40625 
Q 38.96875 37.40625 42.71875 40.96875 
Q 46.484375 44.53125 46.484375 51.125 
Q 46.484375 57.671875 42.71875 61.234375 
Q 38.96875 64.796875 32.078125 64.796875 
z
M 9.8125 72.90625 
L 32.078125 72.90625 
Q 44.34375 72.90625 50.609375 67.359375 
Q 56.890625 61.8125 56.890625 51.125 
Q 56.890625 40.328125 50.609375 34.8125 
Q 44.34375 29.296875 32.078125 29.296875 
L 19.671875 29.296875 
L 19.671875 0 
L 9.8125 0 
z
" id="BitstreamVeraSans-Roman-50"/>
      <path id="BitstreamVeraSans-Roman-20"/>
      <path d="M 10.6875 12.40625 
L 21 12.40625 
L 21 0 
L 10.6875 0 
z
" id="BitstreamVeraSans-Roman-2e"/>
      <path d="M 31 75.875 
Q 24.46875 64.65625 21.28125 53.65625 
Q 18.109375 42.671875 18.109375 31.390625 
Q 18.109375 20.125 21.3125 9.0625 
Q 24.515625 -2 31 -13.1875 
L 23.1875 -13.1875 
Q 15.875 -1.703125 12.234375 9.375 
Q 8.59375 20.453125 8.59375 31.390625 
Q 8.59375 42.28125 12.203125 53.3125 
Q 15.828125 64.359375 23.1875 75.875 
z
" id="BitstreamVeraSans-Roman-28"/>
     </defs>
     <g style="fill:#262626;" transform="translate(339.883398437 655.895703125)scale(0.275 -0.275)">
      <use xlink:href="#BitstreamVeraSans-Roman-50"/>
      <use x="60.302734375" xlink:href="#BitstreamVeraSans-Roman-43"/>
      <use x="130.126953125" xlink:href="#BitstreamVeraSans-Roman-31"/>
      <use x="193.75" xlink:href="#BitstreamVeraSans-Roman-20"/>
      <use x="225.537109375" xlink:href="#BitstreamVeraSans-Roman-28"/>
      <use x="264.55078125" xlink:href="#BitstreamVeraSans-Roman-31"/>
      <use x="328.173828125" xlink:href="#BitstreamVeraSans-Roman-32"/>
      <use x="391.796875" xlink:href="#BitstreamVeraSans-Roman-2e"/>
      <use x="423.583984375" xlink:href="#BitstreamVeraSans-Roman-32"/>
      <use x="487.20703125" xlink:href="#BitstreamVeraSans-Roman-30"/>
      <use x="550.830078125" xlink:href="#BitstreamVeraSans-Roman-37"/>
      <use x="614.453125" xlink:href="#BitstreamVeraSans-Roman-25"/>
      <use x="709.47265625" xlink:href="#BitstreamVeraSans-Roman-29"/>
     </g>
    </g>
   </g>
   <g id="matplotlib.axis_2">
    <g id="ytick_1">
     <g id="line2d_28">
      <path clip-path="url(#paed6be5e5e)" d="M 108 630 
L 777.6 630 
" style="fill:none;stroke:#ffffff;stroke-linecap:round;"/>
     </g>
     <g id="line2d_29">
      <g>
       <use style="fill:#262626;stroke:#262626;" x="108.0" xlink:href="#m63e4c110ab" y="630.0"/>
      </g>
     </g>
     <g id="line2d_30">
      <g>
       <use style="fill:#262626;stroke:#262626;" x="777.6" xlink:href="#m63e4c110ab" y="630.0"/>
      </g>
     </g>
    </g>
    <g id="ytick_2">
     <g id="line2d_31">
      <path clip-path="url(#paed6be5e5e)" d="M 108 550.285714 
L 777.6 550.285714 
" style="fill:none;stroke:#ffffff;stroke-linecap:round;"/>
     </g>
     <g id="line2d_32">
      <g>
       <use style="fill:#262626;stroke:#262626;" x="108.0" xlink:href="#m63e4c110ab" y="550.285714286"/>
      </g>
     </g>
     <g id="line2d_33">
      <g>
       <use style="fill:#262626;stroke:#262626;" x="777.6" xlink:href="#m63e4c110ab" y="550.285714286"/>
      </g>
     </g>
    </g>
    <g id="ytick_3">
     <g id="line2d_34">
      <path clip-path="url(#paed6be5e5e)" d="M 108 470.571429 
L 777.6 470.571429 
" style="fill:none;stroke:#ffffff;stroke-linecap:round;"/>
     </g>
     <g id="line2d_35">
      <g>
       <use style="fill:#262626;stroke:#262626;" x="108.0" xlink:href="#m63e4c110ab" y="470.571428571"/>
      </g>
     </g>
     <g id="line2d_36">
      <g>
       <use style="fill:#262626;stroke:#262626;" x="777.6" xlink:href="#m63e4c110ab" y="470.571428571"/>
      </g>
     </g>
    </g>
    <g id="ytick_4">
     <g id="line2d_37">
      <path clip-path="url(#paed6be5e5e)" d="M 108 390.857143 
L 777.6 390.857143 
" style="fill:none;stroke:#ffffff;stroke-linecap:round;"/>
     </g>
     <g id="line2d_38">
      <g>
       <use style="fill:#262626;stroke:#262626;" x="108.0" xlink:href="#m63e4c110ab" y="390.857142857"/>
      </g>
     </g>
     <g id="line2d_39">
      <g>
       <use style="fill:#262626;stroke:#262626;" x="777.6" xlink:href="#m63e4c110ab" y="390.857142857"/>
      </g>
     </g>
    </g>
    <g id="ytick_5">
     <g id="line2d_40">
      <path clip-path="url(#paed6be5e5e)" d="M 108 311.142857 
L 777.6 311.142857 
" style="fill:none;stroke:#ffffff;stroke-linecap:round;"/>
     </g>
     <g id="line2d_41">
      <g>
       <use style="fill:#262626;stroke:#262626;" x="108.0" xlink:href="#m63e4c110ab" y="311.142857143"/>
      </g>
     </g>
     <g id="line2d_42">
      <g>
       <use style="fill:#262626;stroke:#262626;" x="777.6" xlink:href="#m63e4c110ab" y="311.142857143"/>
      </g>
     </g>
    </g>
    <g id="ytick_6">
     <g id="line2d_43">
      <path clip-path="url(#paed6be5e5e)" d="M 108 231.428571 
L 777.6 231.428571 
" style="fill:none;stroke:#ffffff;stroke-linecap:round;"/>
     </g>
     <g id="line2d_44">
      <g>
       <use style="fill:#262626;stroke:#262626;" x="108.0" xlink:href="#m63e4c110ab" y="231.428571429"/>
      </g>
     </g>
     <g id="line2d_45">
      <g>
       <use style="fill:#262626;stroke:#262626;" x="777.6" xlink:href="#m63e4c110ab" y="231.428571429"/>
      </g>
     </g>
    </g>
    <g id="ytick_7">
     <g id="line2d_46">
      <path clip-path="url(#paed6be5e5e)" d="M 108 151.714286 
L 777.6 151.714286 
" style="fill:none;stroke:#ffffff;stroke-linecap:round;"/>
     </g>
     <g id="line2d_47">
      <g>
       <use style="fill:#262626;stroke:#262626;" x="108.0" xlink:href="#m63e4c110ab" y="151.714285714"/>
      </g>
     </g>
     <g id="line2d_48">
      <g>
       <use style="fill:#262626;stroke:#262626;" x="777.6" xlink:href="#m63e4c110ab" y="151.714285714"/>
      </g>
     </g>
    </g>
    <g id="ytick_8">
     <g id="line2d_49">
      <path clip-path="url(#paed6be5e5e)" d="M 108 72 
L 777.6 72 
" style="fill:none;stroke:#ffffff;stroke-linecap:round;"/>
     </g>
     <g id="line2d_50">
      <g>
       <use style="fill:#262626;stroke:#262626;" x="108.0" xlink:href="#m63e4c110ab" y="72.0"/>
      </g>
     </g>
     <g id="line2d_51">
      <g>
       <use style="fill:#262626;stroke:#262626;" x="777.6" xlink:href="#m63e4c110ab" y="72.0"/>
      </g>
     </g>
    </g>
    <g id="text_2">
     <!-- PC2 (7.845%) -->
     <defs>
      <path d="M 10.796875 72.90625 
L 49.515625 72.90625 
L 49.515625 64.59375 
L 19.828125 64.59375 
L 19.828125 46.734375 
Q 21.96875 47.46875 24.109375 47.828125 
Q 26.265625 48.1875 28.421875 48.1875 
Q 40.625 48.1875 47.75 41.5 
Q 54.890625 34.8125 54.890625 23.390625 
Q 54.890625 11.625 47.5625 5.09375 
Q 40.234375 -1.421875 26.90625 -1.421875 
Q 22.3125 -1.421875 17.546875 -0.640625 
Q 12.796875 0.140625 7.71875 1.703125 
L 7.71875 11.625 
Q 12.109375 9.234375 16.796875 8.0625 
Q 21.484375 6.890625 26.703125 6.890625 
Q 35.15625 6.890625 40.078125 11.328125 
Q 45.015625 15.765625 45.015625 23.390625 
Q 45.015625 31 40.078125 35.4375 
Q 35.15625 39.890625 26.703125 39.890625 
Q 22.75 39.890625 18.8125 39.015625 
Q 14.890625 38.140625 10.796875 36.28125 
z
" id="BitstreamVeraSans-Roman-35"/>
      <path d="M 31.78125 34.625 
Q 24.75 34.625 20.71875 30.859375 
Q 16.703125 27.09375 16.703125 20.515625 
Q 16.703125 13.921875 20.71875 10.15625 
Q 24.75 6.390625 31.78125 6.390625 
Q 38.8125 6.390625 42.859375 10.171875 
Q 46.921875 13.96875 46.921875 20.515625 
Q 46.921875 27.09375 42.890625 30.859375 
Q 38.875 34.625 31.78125 34.625 
M 21.921875 38.8125 
Q 15.578125 40.375 12.03125 44.71875 
Q 8.5 49.078125 8.5 55.328125 
Q 8.5 64.0625 14.71875 69.140625 
Q 20.953125 74.21875 31.78125 74.21875 
Q 42.671875 74.21875 48.875 69.140625 
Q 55.078125 64.0625 55.078125 55.328125 
Q 55.078125 49.078125 51.53125 44.71875 
Q 48 40.375 41.703125 38.8125 
Q 48.828125 37.15625 52.796875 32.3125 
Q 56.78125 27.484375 56.78125 20.515625 
Q 56.78125 9.90625 50.3125 4.234375 
Q 43.84375 -1.421875 31.78125 -1.421875 
Q 19.734375 -1.421875 13.25 4.234375 
Q 6.78125 9.90625 6.78125 20.515625 
Q 6.78125 27.484375 10.78125 32.3125 
Q 14.796875 37.15625 21.921875 38.8125 
M 18.3125 54.390625 
Q 18.3125 48.734375 21.84375 45.5625 
Q 25.390625 42.390625 31.78125 42.390625 
Q 38.140625 42.390625 41.71875 45.5625 
Q 45.3125 48.734375 45.3125 54.390625 
Q 45.3125 60.0625 41.71875 63.234375 
Q 38.140625 66.40625 31.78125 66.40625 
Q 25.390625 66.40625 21.84375 63.234375 
Q 18.3125 60.0625 18.3125 54.390625 
" id="BitstreamVeraSans-Roman-38"/>
      <path d="M 37.796875 64.3125 
L 12.890625 25.390625 
L 37.796875 25.390625 
z
M 35.203125 72.90625 
L 47.609375 72.90625 
L 47.609375 25.390625 
L 58.015625 25.390625 
L 58.015625 17.1875 
L 47.609375 17.1875 
L 47.609375 0 
L 37.796875 0 
L 37.796875 17.1875 
L 4.890625 17.1875 
L 4.890625 26.703125 
z
" id="BitstreamVeraSans-Roman-34"/>
     </defs>
     <g style="fill:#262626;" transform="translate(97.280859375 445.168164063)rotate(-90.0)scale(0.275 -0.275)">
      <use xlink:href="#BitstreamVeraSans-Roman-50"/>
      <use x="60.302734375" xlink:href="#BitstreamVeraSans-Roman-43"/>
      <use x="130.126953125" xlink:href="#BitstreamVeraSans-Roman-32"/>
      <use x="193.75" xlink:href="#BitstreamVeraSans-Roman-20"/>
      <use x="225.537109375" xlink:href="#BitstreamVeraSans-Roman-28"/>
      <use x="264.55078125" xlink:href="#BitstreamVeraSans-Roman-37"/>
      <use x="328.173828125" xlink:href="#BitstreamVeraSans-Roman-2e"/>
      <use x="359.9609375" xlink:href="#BitstreamVeraSans-Roman-38"/>
      <use x="423.583984375" xlink:href="#BitstreamVeraSans-Roman-34"/>
      <use x="487.20703125" xlink:href="#BitstreamVeraSans-Roman-35"/>
      <use x="550.830078125" xlink:href="#BitstreamVeraSans-Roman-25"/>
      <use x="645.849609375" xlink:href="#BitstreamVeraSans-Roman-29"/>
     </g>
    </g>
   </g>
   <g id="PathCollection_1">
    <defs>
     <path d="M 0 7.071068 
C 1.875269 7.071068 3.673985 6.326016 5 5 
C 6.326016 3.673985 7.071068 1.875269 7.071068 0 
C 7.071068 -1.875269 6.326016 -3.673985 5 -5 
C 3.673985 -6.326016 1.875269 -7.071068 0 -7.071068 
C -1.875269 -7.071068 -3.673985 -6.326016 -5 -5 
C -6.326016 -3.673985 -7.071068 -1.875269 -7.071068 0 
C -7.071068 1.875269 -6.326016 3.673985 -5 5 
C -3.673985 6.326016 -1.875269 7.071068 0 7.071068 
z
" id="m4b6653e345" style="stroke:#000000;stroke-width:0.3;"/>
    </defs>
    <g clip-path="url(#paed6be5e5e)">
     <use style="fill:#0a1e5c;stroke:#000000;stroke-width:0.3;" x="469.35350561" xlink:href="#m4b6653e345" y="323.937732191"/>
     <use style="fill:#0a1e5c;stroke:#000000;stroke-width:0.3;" x="196.227755401" xlink:href="#m4b6653e345" y="484.322837984"/>
     <use style="fill:#0a1e5c;stroke:#000000;stroke-width:0.3;" x="395.035669891" xlink:href="#m4b6653e345" y="297.352445312"/>
     <use style="fill:#0a1e5c;stroke:#000000;stroke-width:0.3;" x="188.666819857" xlink:href="#m4b6653e345" y="539.850272685"/>
     <use style="fill:#0a1e5c;stroke:#000000;stroke-width:0.3;" x="355.401496988" xlink:href="#m4b6653e345" y="262.210090787"/>
     <use style="fill:#0a1e5c;stroke:#000000;stroke-width:0.3;" x="383.519906696" xlink:href="#m4b6653e345" y="161.632347072"/>
     <use style="fill:#0a1e5c;stroke:#000000;stroke-width:0.3;" x="280.45254557" xlink:href="#m4b6653e345" y="385.471400763"/>
     <use style="fill:#0a1e5c;stroke:#000000;stroke-width:0.3;" x="414.34489082" xlink:href="#m4b6653e345" y="236.409440263"/>
    </g>
   </g>
   <g id="PathCollection_2">
    <defs>
     <path d="M 0 7.071068 
C 1.875269 7.071068 3.673985 6.326016 5 5 
C 6.326016 3.673985 7.071068 1.875269 7.071068 0 
C 7.071068 -1.875269 6.326016 -3.673985 5 -5 
C 3.673985 -6.326016 1.875269 -7.071068 0 -7.071068 
C -1.875269 -7.071068 -3.673985 -6.326016 -5 -5 
C -6.326016 -3.673985 -7.071068 -1.875269 -7.071068 0 
C -7.071068 1.875269 -6.326016 3.673985 -5 5 
C -3.673985 6.326016 -1.875269 7.071068 0 7.071068 
z
" id="m4c0cb7a28c" style="stroke:#000000;stroke-width:0.3;"/>
    </defs>
    <g clip-path="url(#paed6be5e5e)">
     <use style="fill:#feffd6;stroke:#000000;stroke-width:0.3;" x="613.652553785" xlink:href="#m4c0cb7a28c" y="483.810646897"/>
     <use style="fill:#feffd6;stroke:#000000;stroke-width:0.3;" x="670.491839672" xlink:href="#m4c0cb7a28c" y="443.805225943"/>
     <use style="fill:#feffd6;stroke:#000000;stroke-width:0.3;" x="423.722799448" xlink:href="#m4c0cb7a28c" y="596.440423236"/>
     <use style="fill:#feffd6;stroke:#000000;stroke-width:0.3;" x="399.586947778" xlink:href="#m4c0cb7a28c" y="334.903543925"/>
     <use style="fill:#feffd6;stroke:#000000;stroke-width:0.3;" x="637.4242216" xlink:href="#m4c0cb7a28c" y="529.78584655"/>
     <use style="fill:#feffd6;stroke:#000000;stroke-width:0.3;" x="691.5586523" xlink:href="#m4c0cb7a28c" y="508.427856723"/>
     <use style="fill:#feffd6;stroke:#000000;stroke-width:0.3;" x="675.377243684" xlink:href="#m4c0cb7a28c" y="427.163342561"/>
     <use style="fill:#feffd6;stroke:#000000;stroke-width:0.3;" x="714.762461746" xlink:href="#m4c0cb7a28c" y="509.504463197"/>
    </g>
   </g>
   <g id="PathCollection_3">
    <defs>
     <path d="M 0 7.071068 
C 1.875269 7.071068 3.673985 6.326016 5 5 
C 6.326016 3.673985 7.071068 1.875269 7.071068 0 
C 7.071068 -1.875269 6.326016 -3.673985 5 -5 
C 3.673985 -6.326016 1.875269 -7.071068 0 -7.071068 
C -1.875269 -7.071068 -3.673985 -6.326016 -5 -5 
C -6.326016 -3.673985 -7.071068 -1.875269 -7.071068 0 
C -7.071068 1.875269 -6.326016 3.673985 -5 5 
C -3.673985 6.326016 -1.875269 7.071068 0 7.071068 
z
" id="mc2dbf7e1bc" style="stroke:#000000;stroke-width:0.3;"/>
    </defs>
    <g clip-path="url(#paed6be5e5e)">
     <use style="fill:#3fb4c4;stroke:#000000;stroke-width:0.3;" x="389.529696651" xlink:href="#mc2dbf7e1bc" y="285.817791037"/>
     <use style="fill:#3fb4c4;stroke:#000000;stroke-width:0.3;" x="311.06713433" xlink:href="#mc2dbf7e1bc" y="410.24576361"/>
     <use style="fill:#3fb4c4;stroke:#000000;stroke-width:0.3;" x="553.730246008" xlink:href="#mc2dbf7e1bc" y="246.582345275"/>
     <use style="fill:#3fb4c4;stroke:#000000;stroke-width:0.3;" x="206.90821406" xlink:href="#mc2dbf7e1bc" y="510.486115968"/>
     <use style="fill:#3fb4c4;stroke:#000000;stroke-width:0.3;" x="463.403555627" xlink:href="#mc2dbf7e1bc" y="206.21508261"/>
     <use style="fill:#3fb4c4;stroke:#000000;stroke-width:0.3;" x="203.905684685" xlink:href="#mc2dbf7e1bc" y="580.969300176"/>
     <use style="fill:#3fb4c4;stroke:#000000;stroke-width:0.3;" x="413.654875282" xlink:href="#mc2dbf7e1bc" y="284.700389317"/>
     <use style="fill:#3fb4c4;stroke:#000000;stroke-width:0.3;" x="575.42128251" xlink:href="#mc2dbf7e1bc" y="330.526724488"/>
    </g>
   </g>
   <g id="line2d_52">
    <path clip-path="url(#paed6be5e5e)" d="M 675.377244 427.163343 
L 529.448575 294.397845 
" style="fill:none;stroke:#feffd6;stroke-linecap:round;stroke-width:3.0;"/>
   </g>
   <g id="line2d_53">
    <path clip-path="url(#paed6be5e5e)" d="M 529.448575 294.397845 
L 383.519907 161.632347 
" style="fill:none;stroke:#0a1e5c;stroke-linecap:round;stroke-width:3.0;"/>
   </g>
   <g id="line2d_54">
    <path clip-path="url(#paed6be5e5e)" d="M 613.652554 483.810647 
L 404.940155 484.066742 
" style="fill:none;stroke:#feffd6;stroke-linecap:round;stroke-width:3.0;"/>
   </g>
   <g id="line2d_55">
    <path clip-path="url(#paed6be5e5e)" d="M 404.940155 484.066742 
L 196.227755 484.322838 
" style="fill:none;stroke:#0a1e5c;stroke-linecap:round;stroke-width:3.0;"/>
   </g>
   <g id="line2d_56">
    <path clip-path="url(#paed6be5e5e)" d="M 714.762462 509.504463 
L 535.081979 385.857277 
" style="fill:none;stroke:#feffd6;stroke-linecap:round;stroke-width:3.0;"/>
   </g>
   <g id="line2d_57">
    <path clip-path="url(#paed6be5e5e)" d="M 535.081979 385.857277 
L 355.401497 262.210091 
" style="fill:none;stroke:#0a1e5c;stroke-linecap:round;stroke-width:3.0;"/>
   </g>
   <g id="line2d_58">
    <path clip-path="url(#paed6be5e5e)" d="M 670.49184 443.805226 
L 475.472193 414.638313 
" style="fill:none;stroke:#feffd6;stroke-linecap:round;stroke-width:3.0;"/>
   </g>
   <g id="line2d_59">
    <path clip-path="url(#paed6be5e5e)" d="M 475.472193 414.638313 
L 280.452546 385.471401 
" style="fill:none;stroke:#0a1e5c;stroke-linecap:round;stroke-width:3.0;"/>
   </g>
   <g id="line2d_60">
    <path clip-path="url(#paed6be5e5e)" d="M 691.558652 508.427857 
L 552.951772 372.418648 
" style="fill:none;stroke:#feffd6;stroke-linecap:round;stroke-width:3.0;"/>
   </g>
   <g id="line2d_61">
    <path clip-path="url(#paed6be5e5e)" d="M 552.951772 372.418648 
L 414.344891 236.40944 
" style="fill:none;stroke:#0a1e5c;stroke-linecap:round;stroke-width:3.0;"/>
   </g>
   <g id="line2d_62">
    <path clip-path="url(#paed6be5e5e)" d="M 423.722799 596.440423 
L 306.19481 568.145348 
" style="fill:none;stroke:#feffd6;stroke-linecap:round;stroke-width:3.0;"/>
   </g>
   <g id="line2d_63">
    <path clip-path="url(#paed6be5e5e)" d="M 306.19481 568.145348 
L 188.66682 539.850273 
" style="fill:none;stroke:#0a1e5c;stroke-linecap:round;stroke-width:3.0;"/>
   </g>
   <g id="line2d_64">
    <path clip-path="url(#paed6be5e5e)" d="M 637.424222 529.785847 
L 553.388864 426.861789 
" style="fill:none;stroke:#feffd6;stroke-linecap:round;stroke-width:3.0;"/>
   </g>
   <g id="line2d_65">
    <path clip-path="url(#paed6be5e5e)" d="M 553.388864 426.861789 
L 469.353506 323.937732 
" style="fill:none;stroke:#0a1e5c;stroke-linecap:round;stroke-width:3.0;"/>
   </g>
   <g id="line2d_66">
    <path clip-path="url(#paed6be5e5e)" d="M 399.586948 334.903544 
L 397.311309 316.127995 
" style="fill:none;stroke:#feffd6;stroke-linecap:round;stroke-width:3.0;"/>
   </g>
   <g id="line2d_67">
    <path clip-path="url(#paed6be5e5e)" d="M 397.311309 316.127995 
L 395.03567 297.352445 
" style="fill:none;stroke:#0a1e5c;stroke-linecap:round;stroke-width:3.0;"/>
   </g>
   <g id="line2d_68">
    <path clip-path="url(#paed6be5e5e)" d="M 389.529697 285.817791 
L 386.524802 223.725069 
" style="fill:none;stroke:#3fb4c4;stroke-linecap:round;stroke-width:3.0;"/>
   </g>
   <g id="line2d_69">
    <path clip-path="url(#paed6be5e5e)" d="M 386.524802 223.725069 
L 383.519907 161.632347 
" style="fill:none;stroke:#0a1e5c;stroke-linecap:round;stroke-width:3.0;"/>
   </g>
   <g id="line2d_70">
    <path clip-path="url(#paed6be5e5e)" d="M 206.908214 510.486116 
L 201.567985 497.404477 
" style="fill:none;stroke:#3fb4c4;stroke-linecap:round;stroke-width:3.0;"/>
   </g>
   <g id="line2d_71">
    <path clip-path="url(#paed6be5e5e)" d="M 201.567985 497.404477 
L 196.227755 484.322838 
" style="fill:none;stroke:#0a1e5c;stroke-linecap:round;stroke-width:3.0;"/>
   </g>
   <g id="line2d_72">
    <path clip-path="url(#paed6be5e5e)" d="M 311.067134 410.245764 
L 333.234316 336.227927 
" style="fill:none;stroke:#3fb4c4;stroke-linecap:round;stroke-width:3.0;"/>
   </g>
   <g id="line2d_73">
    <path clip-path="url(#paed6be5e5e)" d="M 333.234316 336.227927 
L 355.401497 262.210091 
" style="fill:none;stroke:#0a1e5c;stroke-linecap:round;stroke-width:3.0;"/>
   </g>
   <g id="line2d_74">
    <path clip-path="url(#paed6be5e5e)" d="M 553.730246 246.582345 
L 417.091396 316.026873 
" style="fill:none;stroke:#3fb4c4;stroke-linecap:round;stroke-width:3.0;"/>
   </g>
   <g id="line2d_75">
    <path clip-path="url(#paed6be5e5e)" d="M 417.091396 316.026873 
L 280.452546 385.471401 
" style="fill:none;stroke:#0a1e5c;stroke-linecap:round;stroke-width:3.0;"/>
   </g>
   <g id="line2d_76">
    <path clip-path="url(#paed6be5e5e)" d="M 463.403556 206.215083 
L 438.874223 221.312261 
" style="fill:none;stroke:#3fb4c4;stroke-linecap:round;stroke-width:3.0;"/>
   </g>
   <g id="line2d_77">
    <path clip-path="url(#paed6be5e5e)" d="M 438.874223 221.312261 
L 414.344891 236.40944 
" style="fill:none;stroke:#0a1e5c;stroke-linecap:round;stroke-width:3.0;"/>
   </g>
   <g id="line2d_78">
    <path clip-path="url(#paed6be5e5e)" d="M 203.905685 580.9693 
L 196.286252 560.409786 
" style="fill:none;stroke:#3fb4c4;stroke-linecap:round;stroke-width:3.0;"/>
   </g>
   <g id="line2d_79">
    <path clip-path="url(#paed6be5e5e)" d="M 196.286252 560.409786 
L 188.66682 539.850273 
" style="fill:none;stroke:#0a1e5c;stroke-linecap:round;stroke-width:3.0;"/>
   </g>
   <g id="line2d_80">
    <path clip-path="url(#paed6be5e5e)" d="M 575.421283 330.526724 
L 522.387394 327.232228 
" style="fill:none;stroke:#3fb4c4;stroke-linecap:round;stroke-width:3.0;"/>
   </g>
   <g id="line2d_81">
    <path clip-path="url(#paed6be5e5e)" d="M 522.387394 327.232228 
L 469.353506 323.937732 
" style="fill:none;stroke:#0a1e5c;stroke-linecap:round;stroke-width:3.0;"/>
   </g>
   <g id="line2d_82">
    <path clip-path="url(#paed6be5e5e)" d="M 413.654875 284.700389 
L 404.345273 291.026417 
" style="fill:none;stroke:#3fb4c4;stroke-linecap:round;stroke-width:3.0;"/>
   </g>
   <g id="line2d_83">
    <path clip-path="url(#paed6be5e5e)" d="M 404.345273 291.026417 
L 395.03567 297.352445 
" style="fill:none;stroke:#0a1e5c;stroke-linecap:round;stroke-width:3.0;"/>
   </g>
   <g id="line2d_84">
    <path clip-path="url(#paed6be5e5e)" d="M 389.529697 285.817791 
L 532.45347 356.490567 
" style="fill:none;stroke:#3fb4c4;stroke-linecap:round;stroke-width:3.0;"/>
   </g>
   <g id="line2d_85">
    <path clip-path="url(#paed6be5e5e)" d="M 532.45347 356.490567 
L 675.377244 427.163343 
" style="fill:none;stroke:#feffd6;stroke-linecap:round;stroke-width:3.0;"/>
   </g>
   <g id="line2d_86">
    <path clip-path="url(#paed6be5e5e)" d="M 206.908214 510.486116 
L 410.280384 497.148381 
" style="fill:none;stroke:#3fb4c4;stroke-linecap:round;stroke-width:3.0;"/>
   </g>
   <g id="line2d_87">
    <path clip-path="url(#paed6be5e5e)" d="M 410.280384 497.148381 
L 613.652554 483.810647 
" style="fill:none;stroke:#feffd6;stroke-linecap:round;stroke-width:3.0;"/>
   </g>
   <g id="line2d_88">
    <path clip-path="url(#paed6be5e5e)" d="M 311.067134 410.245764 
L 512.914798 459.875113 
" style="fill:none;stroke:#3fb4c4;stroke-linecap:round;stroke-width:3.0;"/>
   </g>
   <g id="line2d_89">
    <path clip-path="url(#paed6be5e5e)" d="M 512.914798 459.875113 
L 714.762462 509.504463 
" style="fill:none;stroke:#feffd6;stroke-linecap:round;stroke-width:3.0;"/>
   </g>
   <g id="line2d_90">
    <path clip-path="url(#paed6be5e5e)" d="M 553.730246 246.582345 
L 612.111043 345.193786 
" style="fill:none;stroke:#3fb4c4;stroke-linecap:round;stroke-width:3.0;"/>
   </g>
   <g id="line2d_91">
    <path clip-path="url(#paed6be5e5e)" d="M 612.111043 345.193786 
L 670.49184 443.805226 
" style="fill:none;stroke:#feffd6;stroke-linecap:round;stroke-width:3.0;"/>
   </g>
   <g id="line2d_92">
    <path clip-path="url(#paed6be5e5e)" d="M 463.403556 206.215083 
L 577.481104 357.32147 
" style="fill:none;stroke:#3fb4c4;stroke-linecap:round;stroke-width:3.0;"/>
   </g>
   <g id="line2d_93">
    <path clip-path="url(#paed6be5e5e)" d="M 577.481104 357.32147 
L 691.558652 508.427857 
" style="fill:none;stroke:#feffd6;stroke-linecap:round;stroke-width:3.0;"/>
   </g>
   <g id="line2d_94">
    <path clip-path="url(#paed6be5e5e)" d="M 203.905685 580.9693 
L 313.814242 588.704862 
" style="fill:none;stroke:#3fb4c4;stroke-linecap:round;stroke-width:3.0;"/>
   </g>
   <g id="line2d_95">
    <path clip-path="url(#paed6be5e5e)" d="M 313.814242 588.704862 
L 423.722799 596.440423 
" style="fill:none;stroke:#feffd6;stroke-linecap:round;stroke-width:3.0;"/>
   </g>
   <g id="line2d_96">
    <path clip-path="url(#paed6be5e5e)" d="M 575.421283 330.526724 
L 606.422752 430.156286 
" style="fill:none;stroke:#3fb4c4;stroke-linecap:round;stroke-width:3.0;"/>
   </g>
   <g id="line2d_97">
    <path clip-path="url(#paed6be5e5e)" d="M 606.422752 430.156286 
L 637.424222 529.785847 
" style="fill:none;stroke:#feffd6;stroke-linecap:round;stroke-width:3.0;"/>
   </g>
   <g id="line2d_98">
    <path clip-path="url(#paed6be5e5e)" d="M 413.654875 284.700389 
L 406.620912 309.801967 
" style="fill:none;stroke:#3fb4c4;stroke-linecap:round;stroke-width:3.0;"/>
   </g>
   <g id="line2d_99">
    <path clip-path="url(#paed6be5e5e)" d="M 406.620912 309.801967 
L 399.586948 334.903544 
" style="fill:none;stroke:#feffd6;stroke-linecap:round;stroke-width:3.0;"/>
   </g>
   <g id="patch_3">
    <path d="M 108 630 
L 108 72 
" style="fill:none;"/>
   </g>
   <g id="patch_4">
    <path d="M 777.6 630 
L 777.6 72 
" style="fill:none;"/>
   </g>
   <g id="patch_5">
    <path d="M 108 630 
L 777.6 630 
" style="fill:none;"/>
   </g>
   <g id="patch_6">
    <path d="M 108 72 
L 777.6 72 
" style="fill:none;"/>
   </g>
   <g id="legend_1">
    <g id="PathCollection_4">
     <path d="M 637.205469 114.004662 
C 639.080738 114.004662 640.879453 113.259609 642.205469 111.933594 
C 643.531484 110.607578 644.276537 108.808863 644.276537 106.933594 
C 644.276537 105.058325 643.531484 103.259609 642.205469 101.933594 
C 640.879453 100.607578 639.080738 99.862526 637.205469 99.862526 
C 635.3302 99.862526 633.531484 100.607578 632.205469 101.933594 
C 630.879453 103.259609 630.134401 105.058325 630.134401 106.933594 
C 630.134401 108.808863 630.879453 110.607578 632.205469 111.933594 
C 633.531484 113.259609 635.3302 114.004662 637.205469 114.004662 
z
" style="fill:#0a1e5c;stroke:#000000;stroke-width:0.3;"/>
     <path d="M 637.205469 114.004662 
C 639.080738 114.004662 640.879453 113.259609 642.205469 111.933594 
C 643.531484 110.607578 644.276537 108.808863 644.276537 106.933594 
C 644.276537 105.058325 643.531484 103.259609 642.205469 101.933594 
C 640.879453 100.607578 639.080738 99.862526 637.205469 99.862526 
C 635.3302 99.862526 633.531484 100.607578 632.205469 101.933594 
C 630.879453 103.259609 630.134401 105.058325 630.134401 106.933594 
C 630.134401 108.808863 630.879453 110.607578 632.205469 111.933594 
C 633.531484 113.259609 635.3302 114.004662 637.205469 114.004662 
z
" style="fill:#0a1e5c;stroke:#000000;stroke-width:0.3;"/>
     <path d="M 637.205469 114.004662 
C 639.080738 114.004662 640.879453 113.259609 642.205469 111.933594 
C 643.531484 110.607578 644.276537 108.808863 644.276537 106.933594 
C 644.276537 105.058325 643.531484 103.259609 642.205469 101.933594 
C 640.879453 100.607578 639.080738 99.862526 637.205469 99.862526 
C 635.3302 99.862526 633.531484 100.607578 632.205469 101.933594 
C 630.879453 103.259609 630.134401 105.058325 630.134401 106.933594 
C 630.134401 108.808863 630.879453 110.607578 632.205469 111.933594 
C 633.531484 113.259609 635.3302 114.004662 637.205469 114.004662 
z
" style="fill:#0a1e5c;stroke:#000000;stroke-width:0.3;"/>
    </g>
    <g id="text_3">
     <!-- Run 1 -->
     <defs>
      <path d="M 44.390625 34.1875 
Q 47.5625 33.109375 50.5625 29.59375 
Q 53.5625 26.078125 56.59375 19.921875 
L 66.609375 0 
L 56 0 
L 46.6875 18.703125 
Q 43.0625 26.03125 39.671875 28.421875 
Q 36.28125 30.8125 30.421875 30.8125 
L 19.671875 30.8125 
L 19.671875 0 
L 9.8125 0 
L 9.8125 72.90625 
L 32.078125 72.90625 
Q 44.578125 72.90625 50.734375 67.671875 
Q 56.890625 62.453125 56.890625 51.90625 
Q 56.890625 45.015625 53.6875 40.46875 
Q 50.484375 35.9375 44.390625 34.1875 
M 19.671875 64.796875 
L 19.671875 38.921875 
L 32.078125 38.921875 
Q 39.203125 38.921875 42.84375 42.21875 
Q 46.484375 45.515625 46.484375 51.90625 
Q 46.484375 58.296875 42.84375 61.546875 
Q 39.203125 64.796875 32.078125 64.796875 
z
" id="BitstreamVeraSans-Roman-52"/>
      <path d="M 8.5 21.578125 
L 8.5 54.6875 
L 17.484375 54.6875 
L 17.484375 21.921875 
Q 17.484375 14.15625 20.5 10.265625 
Q 23.53125 6.390625 29.59375 6.390625 
Q 36.859375 6.390625 41.078125 11.03125 
Q 45.3125 15.671875 45.3125 23.6875 
L 45.3125 54.6875 
L 54.296875 54.6875 
L 54.296875 0 
L 45.3125 0 
L 45.3125 8.40625 
Q 42.046875 3.421875 37.71875 1 
Q 33.40625 -1.421875 27.6875 -1.421875 
Q 18.265625 -1.421875 13.375 4.4375 
Q 8.5 10.296875 8.5 21.578125 
" id="BitstreamVeraSans-Roman-75"/>
      <path d="M 54.890625 33.015625 
L 54.890625 0 
L 45.90625 0 
L 45.90625 32.71875 
Q 45.90625 40.484375 42.875 44.328125 
Q 39.84375 48.1875 33.796875 48.1875 
Q 26.515625 48.1875 22.3125 43.546875 
Q 18.109375 38.921875 18.109375 30.90625 
L 18.109375 0 
L 9.078125 0 
L 9.078125 54.6875 
L 18.109375 54.6875 
L 18.109375 46.1875 
Q 21.34375 51.125 25.703125 53.5625 
Q 30.078125 56 35.796875 56 
Q 45.21875 56 50.046875 50.171875 
Q 54.890625 44.34375 54.890625 33.015625 
" id="BitstreamVeraSans-Roman-6e"/>
     </defs>
     <g style="fill:#262626;" transform="translate(682.20546875 113.49609375)scale(0.25 -0.25)">
      <use xlink:href="#BitstreamVeraSans-Roman-52"/>
      <use x="69.419921875" xlink:href="#BitstreamVeraSans-Roman-75"/>
      <use x="132.798828125" xlink:href="#BitstreamVeraSans-Roman-6e"/>
      <use x="196.177734375" xlink:href="#BitstreamVeraSans-Roman-20"/>
      <use x="227.96484375" xlink:href="#BitstreamVeraSans-Roman-31"/>
     </g>
    </g>
    <g id="PathCollection_5">
     <path d="M 637.205469 150.699974 
C 639.080738 150.699974 640.879453 149.954922 642.205469 148.628906 
C 643.531484 147.302891 644.276537 145.504175 644.276537 143.628906 
C 644.276537 141.753637 643.531484 139.954922 642.205469 138.628906 
C 640.879453 137.302891 639.080738 136.557838 637.205469 136.557838 
C 635.3302 136.557838 633.531484 137.302891 632.205469 138.628906 
C 630.879453 139.954922 630.134401 141.753637 630.134401 143.628906 
C 630.134401 145.504175 630.879453 147.302891 632.205469 148.628906 
C 633.531484 149.954922 635.3302 150.699974 637.205469 150.699974 
z
" style="fill:#feffd6;stroke:#000000;stroke-width:0.3;"/>
     <path d="M 637.205469 150.699974 
C 639.080738 150.699974 640.879453 149.954922 642.205469 148.628906 
C 643.531484 147.302891 644.276537 145.504175 644.276537 143.628906 
C 644.276537 141.753637 643.531484 139.954922 642.205469 138.628906 
C 640.879453 137.302891 639.080738 136.557838 637.205469 136.557838 
C 635.3302 136.557838 633.531484 137.302891 632.205469 138.628906 
C 630.879453 139.954922 630.134401 141.753637 630.134401 143.628906 
C 630.134401 145.504175 630.879453 147.302891 632.205469 148.628906 
C 633.531484 149.954922 635.3302 150.699974 637.205469 150.699974 
z
" style="fill:#feffd6;stroke:#000000;stroke-width:0.3;"/>
     <path d="M 637.205469 150.699974 
C 639.080738 150.699974 640.879453 149.954922 642.205469 148.628906 
C 643.531484 147.302891 644.276537 145.504175 644.276537 143.628906 
C 644.276537 141.753637 643.531484 139.954922 642.205469 138.628906 
C 640.879453 137.302891 639.080738 136.557838 637.205469 136.557838 
C 635.3302 136.557838 633.531484 137.302891 632.205469 138.628906 
C 630.879453 139.954922 630.134401 141.753637 630.134401 143.628906 
C 630.134401 145.504175 630.879453 147.302891 632.205469 148.628906 
C 633.531484 149.954922 635.3302 150.699974 637.205469 150.699974 
z
" style="fill:#feffd6;stroke:#000000;stroke-width:0.3;"/>
    </g>
    <g id="text_4">
     <!-- Run 3 -->
     <defs>
      <path d="M 40.578125 39.3125 
Q 47.65625 37.796875 51.625 33 
Q 55.609375 28.21875 55.609375 21.1875 
Q 55.609375 10.40625 48.1875 4.484375 
Q 40.765625 -1.421875 27.09375 -1.421875 
Q 22.515625 -1.421875 17.65625 -0.515625 
Q 12.796875 0.390625 7.625 2.203125 
L 7.625 11.71875 
Q 11.71875 9.328125 16.59375 8.109375 
Q 21.484375 6.890625 26.8125 6.890625 
Q 36.078125 6.890625 40.9375 10.546875 
Q 45.796875 14.203125 45.796875 21.1875 
Q 45.796875 27.640625 41.28125 31.265625 
Q 36.765625 34.90625 28.71875 34.90625 
L 20.21875 34.90625 
L 20.21875 43.015625 
L 29.109375 43.015625 
Q 36.375 43.015625 40.234375 45.921875 
Q 44.09375 48.828125 44.09375 54.296875 
Q 44.09375 59.90625 40.109375 62.90625 
Q 36.140625 65.921875 28.71875 65.921875 
Q 24.65625 65.921875 20.015625 65.03125 
Q 15.375 64.15625 9.8125 62.3125 
L 9.8125 71.09375 
Q 15.4375 72.65625 20.34375 73.4375 
Q 25.25 74.21875 29.59375 74.21875 
Q 40.828125 74.21875 47.359375 69.109375 
Q 53.90625 64.015625 53.90625 55.328125 
Q 53.90625 49.265625 50.4375 45.09375 
Q 46.96875 40.921875 40.578125 39.3125 
" id="BitstreamVeraSans-Roman-33"/>
     </defs>
     <g style="fill:#262626;" transform="translate(682.20546875 150.19140625)scale(0.25 -0.25)">
      <use xlink:href="#BitstreamVeraSans-Roman-52"/>
      <use x="69.419921875" xlink:href="#BitstreamVeraSans-Roman-75"/>
      <use x="132.798828125" xlink:href="#BitstreamVeraSans-Roman-6e"/>
      <use x="196.177734375" xlink:href="#BitstreamVeraSans-Roman-20"/>
      <use x="227.96484375" xlink:href="#BitstreamVeraSans-Roman-33"/>
     </g>
    </g>
    <g id="PathCollection_6">
     <path d="M 637.205469 187.395287 
C 639.080738 187.395287 640.879453 186.650234 642.205469 185.324219 
C 643.531484 183.998203 644.276537 182.199488 644.276537 180.324219 
C 644.276537 178.44895 643.531484 176.650234 642.205469 175.324219 
C 640.879453 173.998203 639.080738 173.253151 637.205469 173.253151 
C 635.3302 173.253151 633.531484 173.998203 632.205469 175.324219 
C 630.879453 176.650234 630.134401 178.44895 630.134401 180.324219 
C 630.134401 182.199488 630.879453 183.998203 632.205469 185.324219 
C 633.531484 186.650234 635.3302 187.395287 637.205469 187.395287 
z
" style="fill:#3fb4c4;stroke:#000000;stroke-width:0.3;"/>
     <path d="M 637.205469 187.395287 
C 639.080738 187.395287 640.879453 186.650234 642.205469 185.324219 
C 643.531484 183.998203 644.276537 182.199488 644.276537 180.324219 
C 644.276537 178.44895 643.531484 176.650234 642.205469 175.324219 
C 640.879453 173.998203 639.080738 173.253151 637.205469 173.253151 
C 635.3302 173.253151 633.531484 173.998203 632.205469 175.324219 
C 630.879453 176.650234 630.134401 178.44895 630.134401 180.324219 
C 630.134401 182.199488 630.879453 183.998203 632.205469 185.324219 
C 633.531484 186.650234 635.3302 187.395287 637.205469 187.395287 
z
" style="fill:#3fb4c4;stroke:#000000;stroke-width:0.3;"/>
     <path d="M 637.205469 187.395287 
C 639.080738 187.395287 640.879453 186.650234 642.205469 185.324219 
C 643.531484 183.998203 644.276537 182.199488 644.276537 180.324219 
C 644.276537 178.44895 643.531484 176.650234 642.205469 175.324219 
C 640.879453 173.998203 639.080738 173.253151 637.205469 173.253151 
C 635.3302 173.253151 633.531484 173.998203 632.205469 175.324219 
C 630.879453 176.650234 630.134401 178.44895 630.134401 180.324219 
C 630.134401 182.199488 630.879453 183.998203 632.205469 185.324219 
C 633.531484 186.650234 635.3302 187.395287 637.205469 187.395287 
z
" style="fill:#3fb4c4;stroke:#000000;stroke-width:0.3;"/>
    </g>
    <g id="text_5">
     <!-- Run 4 -->
     <g style="fill:#262626;" transform="translate(682.20546875 186.88671875)scale(0.25 -0.25)">
      <use xlink:href="#BitstreamVeraSans-Roman-52"/>
      <use x="69.419921875" xlink:href="#BitstreamVeraSans-Roman-75"/>
      <use x="132.798828125" xlink:href="#BitstreamVeraSans-Roman-6e"/>
      <use x="196.177734375" xlink:href="#BitstreamVeraSans-Roman-20"/>
      <use x="227.96484375" xlink:href="#BitstreamVeraSans-Roman-34"/>
     </g>
    </g>
   </g>
  </g>
 </g>
 <defs>
  <clipPath id="paed6be5e5e">
   <rect height="558.0" width="669.6" x="108.0" y="72.0"/>
  </clipPath>
 </defs>
</svg>
