<?xml version="1.0" encoding="utf-8" standalone="no"?>
<!DOCTYPE svg PUBLIC "-//W3C//DTD SVG 1.1//EN"
  "http://www.w3.org/Graphics/SVG/1.1/DTD/svg11.dtd">
<!-- Created with matplotlib (http://matplotlib.org/) -->
<svg height="576pt" version="1.1" viewBox="0 0 864 576" width="864pt" xmlns="http://www.w3.org/2000/svg" xmlns:xlink="http://www.w3.org/1999/xlink">
 <defs>
  <style type="text/css">
*{stroke-linecap:butt;stroke-linejoin:round;stroke-miterlimit:100000;}
  </style>
 </defs>
 <g id="figure_1">
  <g id="patch_1">
   <path d="M 0 576 
L 864 576 
L 864 0 
L 0 0 
z
" style="fill:#ffffff;"/>
  </g>
  <g id="axes_1">
   <g id="patch_2">
    <path d="M 108 504 
L 777.6 504 
L 777.6 57.6 
L 108 57.6 
z
" style="fill:#eaeaf2;"/>
   </g>
   <g id="matplotlib.axis_1">
    <g id="xtick_1">
     <g id="line2d_1">
      <defs>
       <path d="M 0 0 
L 0 0 
" id="m403c2d9ec5" style="stroke:#262626;"/>
      </defs>
      <g>
       <use style="fill:#262626;stroke:#262626;" x="275.4" xlink:href="#m403c2d9ec5" y="504.0"/>
      </g>
     </g>
     <g id="line2d_2">
      <g>
       <use style="fill:#262626;stroke:#262626;" x="275.4" xlink:href="#m403c2d9ec5" y="57.6"/>
      </g>
     </g>
     <g id="text_1">
      <!-- Summer -->
      <defs>
       <path d="M 53.515625 70.515625 
L 53.515625 60.890625 
Q 47.90625 63.578125 42.921875 64.890625 
Q 37.9375 66.21875 33.296875 66.21875 
Q 25.25 66.21875 20.875 63.09375 
Q 16.5 59.96875 16.5 54.203125 
Q 16.5 49.359375 19.40625 46.890625 
Q 22.3125 44.4375 30.421875 42.921875 
L 36.375 41.703125 
Q 47.40625 39.59375 52.65625 34.296875 
Q 57.90625 29 57.90625 20.125 
Q 57.90625 9.515625 50.796875 4.046875 
Q 43.703125 -1.421875 29.984375 -1.421875 
Q 24.8125 -1.421875 18.96875 -0.25 
Q 13.140625 0.921875 6.890625 3.21875 
L 6.890625 13.375 
Q 12.890625 10.015625 18.65625 8.296875 
Q 24.421875 6.59375 29.984375 6.59375 
Q 38.421875 6.59375 43.015625 9.90625 
Q 47.609375 13.234375 47.609375 19.390625 
Q 47.609375 24.75 44.3125 27.78125 
Q 41.015625 30.8125 33.5 32.328125 
L 27.484375 33.5 
Q 16.453125 35.6875 11.515625 40.375 
Q 6.59375 45.0625 6.59375 53.421875 
Q 6.59375 63.09375 13.40625 68.65625 
Q 20.21875 74.21875 32.171875 74.21875 
Q 37.3125 74.21875 42.625 73.28125 
Q 47.953125 72.359375 53.515625 70.515625 
" id="BitstreamVeraSans-Roman-53"/>
       <path d="M 56.203125 29.59375 
L 56.203125 25.203125 
L 14.890625 25.203125 
Q 15.484375 15.921875 20.484375 11.0625 
Q 25.484375 6.203125 34.421875 6.203125 
Q 39.59375 6.203125 44.453125 7.46875 
Q 49.3125 8.734375 54.109375 11.28125 
L 54.109375 2.78125 
Q 49.265625 0.734375 44.1875 -0.34375 
Q 39.109375 -1.421875 33.890625 -1.421875 
Q 20.796875 -1.421875 13.15625 6.1875 
Q 5.515625 13.8125 5.515625 26.8125 
Q 5.515625 40.234375 12.765625 48.109375 
Q 20.015625 56 32.328125 56 
Q 43.359375 56 49.78125 48.890625 
Q 56.203125 41.796875 56.203125 29.59375 
M 47.21875 32.234375 
Q 47.125 39.59375 43.09375 43.984375 
Q 39.0625 48.390625 32.421875 48.390625 
Q 24.90625 48.390625 20.390625 44.140625 
Q 15.875 39.890625 15.1875 32.171875 
z
" id="BitstreamVeraSans-Roman-65"/>
       <path d="M 8.5 21.578125 
L 8.5 54.6875 
L 17.484375 54.6875 
L 17.484375 21.921875 
Q 17.484375 14.15625 20.5 10.265625 
Q 23.53125 6.390625 29.59375 6.390625 
Q 36.859375 6.390625 41.078125 11.03125 
Q 45.3125 15.671875 45.3125 23.6875 
L 45.3125 54.6875 
L 54.296875 54.6875 
L 54.296875 0 
L 45.3125 0 
L 45.3125 8.40625 
Q 42.046875 3.421875 37.71875 1 
Q 33.40625 -1.421875 27.6875 -1.421875 
Q 18.265625 -1.421875 13.375 4.4375 
Q 8.5 10.296875 8.5 21.578125 
" id="BitstreamVeraSans-Roman-75"/>
       <path d="M 52 44.1875 
Q 55.375 50.25 60.0625 53.125 
Q 64.75 56 71.09375 56 
Q 79.640625 56 84.28125 50.015625 
Q 88.921875 44.046875 88.921875 33.015625 
L 88.921875 0 
L 79.890625 0 
L 79.890625 32.71875 
Q 79.890625 40.578125 77.09375 44.375 
Q 74.3125 48.1875 68.609375 48.1875 
Q 61.625 48.1875 57.5625 43.546875 
Q 53.515625 38.921875 53.515625 30.90625 
L 53.515625 0 
L 44.484375 0 
L 44.484375 32.71875 
Q 44.484375 40.625 41.703125 44.40625 
Q 38.921875 48.1875 33.109375 48.1875 
Q 26.21875 48.1875 22.15625 43.53125 
Q 18.109375 38.875 18.109375 30.90625 
L 18.109375 0 
L 9.078125 0 
L 9.078125 54.6875 
L 18.109375 54.6875 
L 18.109375 46.1875 
Q 21.1875 51.21875 25.484375 53.609375 
Q 29.78125 56 35.6875 56 
Q 41.65625 56 45.828125 52.96875 
Q 50 49.953125 52 44.1875 
" id="BitstreamVeraSans-Roman-6d"/>
       <path d="M 41.109375 46.296875 
Q 39.59375 47.171875 37.8125 47.578125 
Q 36.03125 48 33.890625 48 
Q 26.265625 48 22.1875 43.046875 
Q 18.109375 38.09375 18.109375 28.8125 
L 18.109375 0 
L 9.078125 0 
L 9.078125 54.6875 
L 18.109375 54.6875 
L 18.109375 46.1875 
Q 20.953125 51.171875 25.484375 53.578125 
Q 30.03125 56 36.53125 56 
Q 37.453125 56 38.578125 55.875 
Q 39.703125 55.765625 41.0625 55.515625 
z
" id="BitstreamVeraSans-Roman-72"/>
      </defs>
      <g style="fill:#262626;" transform="translate(222.3609375 529.99609375)scale(0.25 -0.25)">
       <use xlink:href="#BitstreamVeraSans-Roman-53"/>
       <use x="63.4765625" xlink:href="#BitstreamVeraSans-Roman-75"/>
       <use x="126.85546875" xlink:href="#BitstreamVeraSans-Roman-6d"/>
       <use x="224.267578125" xlink:href="#BitstreamVeraSans-Roman-6d"/>
       <use x="321.6796875" xlink:href="#BitstreamVeraSans-Roman-65"/>
       <use x="383.203125" xlink:href="#BitstreamVeraSans-Roman-72"/>
      </g>
     </g>
    </g>
    <g id="xtick_2">
     <g id="line2d_3">
      <g>
       <use style="fill:#262626;stroke:#262626;" x="610.2" xlink:href="#m403c2d9ec5" y="504.0"/>
      </g>
     </g>
     <g id="line2d_4">
      <g>
       <use style="fill:#262626;stroke:#262626;" x="610.2" xlink:href="#m403c2d9ec5" y="57.6"/>
      </g>
     </g>
     <g id="text_2">
      <!-- Fall -->
      <defs>
       <path d="M 9.8125 72.90625 
L 51.703125 72.90625 
L 51.703125 64.59375 
L 19.671875 64.59375 
L 19.671875 43.109375 
L 48.578125 43.109375 
L 48.578125 34.8125 
L 19.671875 34.8125 
L 19.671875 0 
L 9.8125 0 
z
" id="BitstreamVeraSans-Roman-46"/>
       <path d="M 34.28125 27.484375 
Q 23.390625 27.484375 19.1875 25 
Q 14.984375 22.515625 14.984375 16.5 
Q 14.984375 11.71875 18.140625 8.90625 
Q 21.296875 6.109375 26.703125 6.109375 
Q 34.1875 6.109375 38.703125 11.40625 
Q 43.21875 16.703125 43.21875 25.484375 
L 43.21875 27.484375 
z
M 52.203125 31.203125 
L 52.203125 0 
L 43.21875 0 
L 43.21875 8.296875 
Q 40.140625 3.328125 35.546875 0.953125 
Q 30.953125 -1.421875 24.3125 -1.421875 
Q 15.921875 -1.421875 10.953125 3.296875 
Q 6 8.015625 6 15.921875 
Q 6 25.140625 12.171875 29.828125 
Q 18.359375 34.515625 30.609375 34.515625 
L 43.21875 34.515625 
L 43.21875 35.40625 
Q 43.21875 41.609375 39.140625 45 
Q 35.0625 48.390625 27.6875 48.390625 
Q 23 48.390625 18.546875 47.265625 
Q 14.109375 46.140625 10.015625 43.890625 
L 10.015625 52.203125 
Q 14.9375 54.109375 19.578125 55.046875 
Q 24.21875 56 28.609375 56 
Q 40.484375 56 46.34375 49.84375 
Q 52.203125 43.703125 52.203125 31.203125 
" id="BitstreamVeraSans-Roman-61"/>
       <path d="M 9.421875 75.984375 
L 18.40625 75.984375 
L 18.40625 0 
L 9.421875 0 
z
" id="BitstreamVeraSans-Roman-6c"/>
      </defs>
      <g style="fill:#262626;" transform="translate(588.42265625 529.99609375)scale(0.25 -0.25)">
       <use xlink:href="#BitstreamVeraSans-Roman-46"/>
       <use x="57.37890625" xlink:href="#BitstreamVeraSans-Roman-61"/>
       <use x="118.658203125" xlink:href="#BitstreamVeraSans-Roman-6c"/>
       <use x="146.44140625" xlink:href="#BitstreamVeraSans-Roman-6c"/>
      </g>
     </g>
    </g>
    <g id="text_3">
     <!-- Season -->
     <defs>
      <path d="M 30.609375 48.390625 
Q 23.390625 48.390625 19.1875 42.75 
Q 14.984375 37.109375 14.984375 27.296875 
Q 14.984375 17.484375 19.15625 11.84375 
Q 23.34375 6.203125 30.609375 6.203125 
Q 37.796875 6.203125 41.984375 11.859375 
Q 46.1875 17.53125 46.1875 27.296875 
Q 46.1875 37.015625 41.984375 42.703125 
Q 37.796875 48.390625 30.609375 48.390625 
M 30.609375 56 
Q 42.328125 56 49.015625 48.375 
Q 55.71875 40.765625 55.71875 27.296875 
Q 55.71875 13.875 49.015625 6.21875 
Q 42.328125 -1.421875 30.609375 -1.421875 
Q 18.84375 -1.421875 12.171875 6.21875 
Q 5.515625 13.875 5.515625 27.296875 
Q 5.515625 40.765625 12.171875 48.375 
Q 18.84375 56 30.609375 56 
" id="BitstreamVeraSans-Roman-6f"/>
      <path d="M 54.890625 33.015625 
L 54.890625 0 
L 45.90625 0 
L 45.90625 32.71875 
Q 45.90625 40.484375 42.875 44.328125 
Q 39.84375 48.1875 33.796875 48.1875 
Q 26.515625 48.1875 22.3125 43.546875 
Q 18.109375 38.921875 18.109375 30.90625 
L 18.109375 0 
L 9.078125 0 
L 9.078125 54.6875 
L 18.109375 54.6875 
L 18.109375 46.1875 
Q 21.34375 51.125 25.703125 53.5625 
Q 30.078125 56 35.796875 56 
Q 45.21875 56 50.046875 50.171875 
Q 54.890625 44.34375 54.890625 33.015625 
" id="BitstreamVeraSans-Roman-6e"/>
      <path d="M 44.28125 53.078125 
L 44.28125 44.578125 
Q 40.484375 46.53125 36.375 47.5 
Q 32.28125 48.484375 27.875 48.484375 
Q 21.1875 48.484375 17.84375 46.4375 
Q 14.5 44.390625 14.5 40.28125 
Q 14.5 37.15625 16.890625 35.375 
Q 19.28125 33.59375 26.515625 31.984375 
L 29.59375 31.296875 
Q 39.15625 29.25 43.1875 25.515625 
Q 47.21875 21.78125 47.21875 15.09375 
Q 47.21875 7.46875 41.1875 3.015625 
Q 35.15625 -1.421875 24.609375 -1.421875 
Q 20.21875 -1.421875 15.453125 -0.5625 
Q 10.6875 0.296875 5.421875 2 
L 5.421875 11.28125 
Q 10.40625 8.6875 15.234375 7.390625 
Q 20.0625 6.109375 24.8125 6.109375 
Q 31.15625 6.109375 34.5625 8.28125 
Q 37.984375 10.453125 37.984375 14.40625 
Q 37.984375 18.0625 35.515625 20.015625 
Q 33.0625 21.96875 24.703125 23.78125 
L 21.578125 24.515625 
Q 13.234375 26.265625 9.515625 29.90625 
Q 5.8125 33.546875 5.8125 39.890625 
Q 5.8125 47.609375 11.28125 51.796875 
Q 16.75 56 26.8125 56 
Q 31.78125 56 36.171875 55.265625 
Q 40.578125 54.546875 44.28125 53.078125 
" id="BitstreamVeraSans-Roman-73"/>
     </defs>
     <g style="fill:#262626;" transform="translate(392.893945313 561.091015625)scale(0.275 -0.275)">
      <use xlink:href="#BitstreamVeraSans-Roman-53"/>
      <use x="63.4765625" xlink:href="#BitstreamVeraSans-Roman-65"/>
      <use x="125.0" xlink:href="#BitstreamVeraSans-Roman-61"/>
      <use x="186.279296875" xlink:href="#BitstreamVeraSans-Roman-73"/>
      <use x="238.37890625" xlink:href="#BitstreamVeraSans-Roman-6f"/>
      <use x="299.560546875" xlink:href="#BitstreamVeraSans-Roman-6e"/>
     </g>
    </g>
   </g>
   <g id="matplotlib.axis_2">
    <g id="ytick_1">
     <g id="line2d_5">
      <path clip-path="url(#p1256e44640)" d="M 108 504 
L 777.6 504 
" style="fill:none;stroke:#ffffff;stroke-linecap:round;"/>
     </g>
     <g id="line2d_6">
      <g>
       <use style="fill:#262626;stroke:#262626;" x="108.0" xlink:href="#m403c2d9ec5" y="504.0"/>
      </g>
     </g>
     <g id="line2d_7">
      <g>
       <use style="fill:#262626;stroke:#262626;" x="777.6" xlink:href="#m403c2d9ec5" y="504.0"/>
      </g>
     </g>
     <g id="text_4">
      <!-- −40 -->
      <defs>
       <path d="M 31.78125 66.40625 
Q 24.171875 66.40625 20.328125 58.90625 
Q 16.5 51.421875 16.5 36.375 
Q 16.5 21.390625 20.328125 13.890625 
Q 24.171875 6.390625 31.78125 6.390625 
Q 39.453125 6.390625 43.28125 13.890625 
Q 47.125 21.390625 47.125 36.375 
Q 47.125 51.421875 43.28125 58.90625 
Q 39.453125 66.40625 31.78125 66.40625 
M 31.78125 74.21875 
Q 44.046875 74.21875 50.515625 64.515625 
Q 56.984375 54.828125 56.984375 36.375 
Q 56.984375 17.96875 50.515625 8.265625 
Q 44.046875 -1.421875 31.78125 -1.421875 
Q 19.53125 -1.421875 13.0625 8.265625 
Q 6.59375 17.96875 6.59375 36.375 
Q 6.59375 54.828125 13.0625 64.515625 
Q 19.53125 74.21875 31.78125 74.21875 
" id="BitstreamVeraSans-Roman-30"/>
       <path d="M 37.796875 64.3125 
L 12.890625 25.390625 
L 37.796875 25.390625 
z
M 35.203125 72.90625 
L 47.609375 72.90625 
L 47.609375 25.390625 
L 58.015625 25.390625 
L 58.015625 17.1875 
L 47.609375 17.1875 
L 47.609375 0 
L 37.796875 0 
L 37.796875 17.1875 
L 4.890625 17.1875 
L 4.890625 26.703125 
z
" id="BitstreamVeraSans-Roman-34"/>
       <path d="M 10.59375 35.5 
L 73.1875 35.5 
L 73.1875 27.203125 
L 10.59375 27.203125 
z
" id="BitstreamVeraSans-Roman-2212"/>
      </defs>
      <g style="fill:#262626;" transform="translate(48.23828125 510.8984375)scale(0.25 -0.25)">
       <use xlink:href="#BitstreamVeraSans-Roman-2212"/>
       <use x="83.7890625" xlink:href="#BitstreamVeraSans-Roman-34"/>
       <use x="147.412109375" xlink:href="#BitstreamVeraSans-Roman-30"/>
      </g>
     </g>
    </g>
    <g id="ytick_2">
     <g id="line2d_8">
      <path clip-path="url(#p1256e44640)" d="M 108 448.2 
L 777.6 448.2 
" style="fill:none;stroke:#ffffff;stroke-linecap:round;"/>
     </g>
     <g id="line2d_9">
      <g>
       <use style="fill:#262626;stroke:#262626;" x="108.0" xlink:href="#m403c2d9ec5" y="448.2"/>
      </g>
     </g>
     <g id="line2d_10">
      <g>
       <use style="fill:#262626;stroke:#262626;" x="777.6" xlink:href="#m403c2d9ec5" y="448.2"/>
      </g>
     </g>
     <g id="text_5">
      <!-- −20 -->
      <defs>
       <path d="M 19.1875 8.296875 
L 53.609375 8.296875 
L 53.609375 0 
L 7.328125 0 
L 7.328125 8.296875 
Q 12.9375 14.109375 22.625 23.890625 
Q 32.328125 33.6875 34.8125 36.53125 
Q 39.546875 41.84375 41.421875 45.53125 
Q 43.3125 49.21875 43.3125 52.78125 
Q 43.3125 58.59375 39.234375 62.25 
Q 35.15625 65.921875 28.609375 65.921875 
Q 23.96875 65.921875 18.8125 64.3125 
Q 13.671875 62.703125 7.8125 59.421875 
L 7.8125 69.390625 
Q 13.765625 71.78125 18.9375 73 
Q 24.125 74.21875 28.421875 74.21875 
Q 39.75 74.21875 46.484375 68.546875 
Q 53.21875 62.890625 53.21875 53.421875 
Q 53.21875 48.921875 51.53125 44.890625 
Q 49.859375 40.875 45.40625 35.40625 
Q 44.1875 33.984375 37.640625 27.21875 
Q 31.109375 20.453125 19.1875 8.296875 
" id="BitstreamVeraSans-Roman-32"/>
      </defs>
      <g style="fill:#262626;" transform="translate(48.23828125 455.0984375)scale(0.25 -0.25)">
       <use xlink:href="#BitstreamVeraSans-Roman-2212"/>
       <use x="83.7890625" xlink:href="#BitstreamVeraSans-Roman-32"/>
       <use x="147.412109375" xlink:href="#BitstreamVeraSans-Roman-30"/>
      </g>
     </g>
    </g>
    <g id="ytick_3">
     <g id="line2d_11">
      <path clip-path="url(#p1256e44640)" d="M 108 392.4 
L 777.6 392.4 
" style="fill:none;stroke:#ffffff;stroke-linecap:round;"/>
     </g>
     <g id="line2d_12">
      <g>
       <use style="fill:#262626;stroke:#262626;" x="108.0" xlink:href="#m403c2d9ec5" y="392.4"/>
      </g>
     </g>
     <g id="line2d_13">
      <g>
       <use style="fill:#262626;stroke:#262626;" x="777.6" xlink:href="#m403c2d9ec5" y="392.4"/>
      </g>
     </g>
     <g id="text_6">
      <!-- 0 -->
      <g style="fill:#262626;" transform="translate(85.09375 399.2984375)scale(0.25 -0.25)">
       <use xlink:href="#BitstreamVeraSans-Roman-30"/>
      </g>
     </g>
    </g>
    <g id="ytick_4">
     <g id="line2d_14">
      <path clip-path="url(#p1256e44640)" d="M 108 336.6 
L 777.6 336.6 
" style="fill:none;stroke:#ffffff;stroke-linecap:round;"/>
     </g>
     <g id="line2d_15">
      <g>
       <use style="fill:#262626;stroke:#262626;" x="108.0" xlink:href="#m403c2d9ec5" y="336.6"/>
      </g>
     </g>
     <g id="line2d_16">
      <g>
       <use style="fill:#262626;stroke:#262626;" x="777.6" xlink:href="#m403c2d9ec5" y="336.6"/>
      </g>
     </g>
     <g id="text_7">
      <!-- 20 -->
      <g style="fill:#262626;" transform="translate(69.1875 343.4984375)scale(0.25 -0.25)">
       <use xlink:href="#BitstreamVeraSans-Roman-32"/>
       <use x="63.623046875" xlink:href="#BitstreamVeraSans-Roman-30"/>
      </g>
     </g>
    </g>
    <g id="ytick_5">
     <g id="line2d_17">
      <path clip-path="url(#p1256e44640)" d="M 108 280.8 
L 777.6 280.8 
" style="fill:none;stroke:#ffffff;stroke-linecap:round;"/>
     </g>
     <g id="line2d_18">
      <g>
       <use style="fill:#262626;stroke:#262626;" x="108.0" xlink:href="#m403c2d9ec5" y="280.8"/>
      </g>
     </g>
     <g id="line2d_19">
      <g>
       <use style="fill:#262626;stroke:#262626;" x="777.6" xlink:href="#m403c2d9ec5" y="280.8"/>
      </g>
     </g>
     <g id="text_8">
      <!-- 40 -->
      <g style="fill:#262626;" transform="translate(69.1875 287.6984375)scale(0.25 -0.25)">
       <use xlink:href="#BitstreamVeraSans-Roman-34"/>
       <use x="63.623046875" xlink:href="#BitstreamVeraSans-Roman-30"/>
      </g>
     </g>
    </g>
    <g id="ytick_6">
     <g id="line2d_20">
      <path clip-path="url(#p1256e44640)" d="M 108 225 
L 777.6 225 
" style="fill:none;stroke:#ffffff;stroke-linecap:round;"/>
     </g>
     <g id="line2d_21">
      <g>
       <use style="fill:#262626;stroke:#262626;" x="108.0" xlink:href="#m403c2d9ec5" y="225.0"/>
      </g>
     </g>
     <g id="line2d_22">
      <g>
       <use style="fill:#262626;stroke:#262626;" x="777.6" xlink:href="#m403c2d9ec5" y="225.0"/>
      </g>
     </g>
     <g id="text_9">
      <!-- 60 -->
      <defs>
       <path d="M 33.015625 40.375 
Q 26.375 40.375 22.484375 35.828125 
Q 18.609375 31.296875 18.609375 23.390625 
Q 18.609375 15.53125 22.484375 10.953125 
Q 26.375 6.390625 33.015625 6.390625 
Q 39.65625 6.390625 43.53125 10.953125 
Q 47.40625 15.53125 47.40625 23.390625 
Q 47.40625 31.296875 43.53125 35.828125 
Q 39.65625 40.375 33.015625 40.375 
M 52.59375 71.296875 
L 52.59375 62.3125 
Q 48.875 64.0625 45.09375 64.984375 
Q 41.3125 65.921875 37.59375 65.921875 
Q 27.828125 65.921875 22.671875 59.328125 
Q 17.53125 52.734375 16.796875 39.40625 
Q 19.671875 43.65625 24.015625 45.921875 
Q 28.375 48.1875 33.59375 48.1875 
Q 44.578125 48.1875 50.953125 41.515625 
Q 57.328125 34.859375 57.328125 23.390625 
Q 57.328125 12.15625 50.6875 5.359375 
Q 44.046875 -1.421875 33.015625 -1.421875 
Q 20.359375 -1.421875 13.671875 8.265625 
Q 6.984375 17.96875 6.984375 36.375 
Q 6.984375 53.65625 15.1875 63.9375 
Q 23.390625 74.21875 37.203125 74.21875 
Q 40.921875 74.21875 44.703125 73.484375 
Q 48.484375 72.75 52.59375 71.296875 
" id="BitstreamVeraSans-Roman-36"/>
      </defs>
      <g style="fill:#262626;" transform="translate(69.1875 231.8984375)scale(0.25 -0.25)">
       <use xlink:href="#BitstreamVeraSans-Roman-36"/>
       <use x="63.623046875" xlink:href="#BitstreamVeraSans-Roman-30"/>
      </g>
     </g>
    </g>
    <g id="ytick_7">
     <g id="line2d_23">
      <path clip-path="url(#p1256e44640)" d="M 108 169.2 
L 777.6 169.2 
" style="fill:none;stroke:#ffffff;stroke-linecap:round;"/>
     </g>
     <g id="line2d_24">
      <g>
       <use style="fill:#262626;stroke:#262626;" x="108.0" xlink:href="#m403c2d9ec5" y="169.2"/>
      </g>
     </g>
     <g id="line2d_25">
      <g>
       <use style="fill:#262626;stroke:#262626;" x="777.6" xlink:href="#m403c2d9ec5" y="169.2"/>
      </g>
     </g>
     <g id="text_10">
      <!-- 80 -->
      <defs>
       <path d="M 31.78125 34.625 
Q 24.75 34.625 20.71875 30.859375 
Q 16.703125 27.09375 16.703125 20.515625 
Q 16.703125 13.921875 20.71875 10.15625 
Q 24.75 6.390625 31.78125 6.390625 
Q 38.8125 6.390625 42.859375 10.171875 
Q 46.921875 13.96875 46.921875 20.515625 
Q 46.921875 27.09375 42.890625 30.859375 
Q 38.875 34.625 31.78125 34.625 
M 21.921875 38.8125 
Q 15.578125 40.375 12.03125 44.71875 
Q 8.5 49.078125 8.5 55.328125 
Q 8.5 64.0625 14.71875 69.140625 
Q 20.953125 74.21875 31.78125 74.21875 
Q 42.671875 74.21875 48.875 69.140625 
Q 55.078125 64.0625 55.078125 55.328125 
Q 55.078125 49.078125 51.53125 44.71875 
Q 48 40.375 41.703125 38.8125 
Q 48.828125 37.15625 52.796875 32.3125 
Q 56.78125 27.484375 56.78125 20.515625 
Q 56.78125 9.90625 50.3125 4.234375 
Q 43.84375 -1.421875 31.78125 -1.421875 
Q 19.734375 -1.421875 13.25 4.234375 
Q 6.78125 9.90625 6.78125 20.515625 
Q 6.78125 27.484375 10.78125 32.3125 
Q 14.796875 37.15625 21.921875 38.8125 
M 18.3125 54.390625 
Q 18.3125 48.734375 21.84375 45.5625 
Q 25.390625 42.390625 31.78125 42.390625 
Q 38.140625 42.390625 41.71875 45.5625 
Q 45.3125 48.734375 45.3125 54.390625 
Q 45.3125 60.0625 41.71875 63.234375 
Q 38.140625 66.40625 31.78125 66.40625 
Q 25.390625 66.40625 21.84375 63.234375 
Q 18.3125 60.0625 18.3125 54.390625 
" id="BitstreamVeraSans-Roman-38"/>
      </defs>
      <g style="fill:#262626;" transform="translate(69.1875 176.0984375)scale(0.25 -0.25)">
       <use xlink:href="#BitstreamVeraSans-Roman-38"/>
       <use x="63.623046875" xlink:href="#BitstreamVeraSans-Roman-30"/>
      </g>
     </g>
    </g>
    <g id="ytick_8">
     <g id="line2d_26">
      <path clip-path="url(#p1256e44640)" d="M 108 113.4 
L 777.6 113.4 
" style="fill:none;stroke:#ffffff;stroke-linecap:round;"/>
     </g>
     <g id="line2d_27">
      <g>
       <use style="fill:#262626;stroke:#262626;" x="108.0" xlink:href="#m403c2d9ec5" y="113.4"/>
      </g>
     </g>
     <g id="line2d_28">
      <g>
       <use style="fill:#262626;stroke:#262626;" x="777.6" xlink:href="#m403c2d9ec5" y="113.4"/>
      </g>
     </g>
     <g id="text_11">
      <!-- 100 -->
      <defs>
       <path d="M 12.40625 8.296875 
L 28.515625 8.296875 
L 28.515625 63.921875 
L 10.984375 60.40625 
L 10.984375 69.390625 
L 28.421875 72.90625 
L 38.28125 72.90625 
L 38.28125 8.296875 
L 54.390625 8.296875 
L 54.390625 0 
L 12.40625 0 
z
" id="BitstreamVeraSans-Roman-31"/>
      </defs>
      <g style="fill:#262626;" transform="translate(53.28125 120.2984375)scale(0.25 -0.25)">
       <use xlink:href="#BitstreamVeraSans-Roman-31"/>
       <use x="63.623046875" xlink:href="#BitstreamVeraSans-Roman-30"/>
       <use x="127.24609375" xlink:href="#BitstreamVeraSans-Roman-30"/>
      </g>
     </g>
    </g>
    <g id="ytick_9">
     <g id="line2d_29">
      <path clip-path="url(#p1256e44640)" d="M 108 57.6 
L 777.6 57.6 
" style="fill:none;stroke:#ffffff;stroke-linecap:round;"/>
     </g>
     <g id="line2d_30">
      <g>
       <use style="fill:#262626;stroke:#262626;" x="108.0" xlink:href="#m403c2d9ec5" y="57.6"/>
      </g>
     </g>
     <g id="line2d_31">
      <g>
       <use style="fill:#262626;stroke:#262626;" x="777.6" xlink:href="#m403c2d9ec5" y="57.6"/>
      </g>
     </g>
     <g id="text_12">
      <!-- 120 -->
      <g style="fill:#262626;" transform="translate(53.28125 64.4984375)scale(0.25 -0.25)">
       <use xlink:href="#BitstreamVeraSans-Roman-31"/>
       <use x="63.623046875" xlink:href="#BitstreamVeraSans-Roman-32"/>
       <use x="127.24609375" xlink:href="#BitstreamVeraSans-Roman-30"/>
      </g>
     </g>
    </g>
    <g id="text_13">
     <!-- Phylogenetic Diversity -->
     <defs>
      <path d="M 45.40625 27.984375 
Q 45.40625 37.75 41.375 43.109375 
Q 37.359375 48.484375 30.078125 48.484375 
Q 22.859375 48.484375 18.828125 43.109375 
Q 14.796875 37.75 14.796875 27.984375 
Q 14.796875 18.265625 18.828125 12.890625 
Q 22.859375 7.515625 30.078125 7.515625 
Q 37.359375 7.515625 41.375 12.890625 
Q 45.40625 18.265625 45.40625 27.984375 
M 54.390625 6.78125 
Q 54.390625 -7.171875 48.1875 -13.984375 
Q 42 -20.796875 29.203125 -20.796875 
Q 24.46875 -20.796875 20.265625 -20.09375 
Q 16.0625 -19.390625 12.109375 -17.921875 
L 12.109375 -9.1875 
Q 16.0625 -11.328125 19.921875 -12.34375 
Q 23.78125 -13.375 27.78125 -13.375 
Q 36.625 -13.375 41.015625 -8.765625 
Q 45.40625 -4.15625 45.40625 5.171875 
L 45.40625 9.625 
Q 42.625 4.78125 38.28125 2.390625 
Q 33.9375 0 27.875 0 
Q 17.828125 0 11.671875 7.65625 
Q 5.515625 15.328125 5.515625 27.984375 
Q 5.515625 40.671875 11.671875 48.328125 
Q 17.828125 56 27.875 56 
Q 33.9375 56 38.28125 53.609375 
Q 42.625 51.21875 45.40625 46.390625 
L 45.40625 54.6875 
L 54.390625 54.6875 
z
" id="BitstreamVeraSans-Roman-67"/>
      <path d="M 54.890625 33.015625 
L 54.890625 0 
L 45.90625 0 
L 45.90625 32.71875 
Q 45.90625 40.484375 42.875 44.328125 
Q 39.84375 48.1875 33.796875 48.1875 
Q 26.515625 48.1875 22.3125 43.546875 
Q 18.109375 38.921875 18.109375 30.90625 
L 18.109375 0 
L 9.078125 0 
L 9.078125 75.984375 
L 18.109375 75.984375 
L 18.109375 46.1875 
Q 21.34375 51.125 25.703125 53.5625 
Q 30.078125 56 35.796875 56 
Q 45.21875 56 50.046875 50.171875 
Q 54.890625 44.34375 54.890625 33.015625 
" id="BitstreamVeraSans-Roman-68"/>
      <path d="M 9.421875 54.6875 
L 18.40625 54.6875 
L 18.40625 0 
L 9.421875 0 
z
M 9.421875 75.984375 
L 18.40625 75.984375 
L 18.40625 64.59375 
L 9.421875 64.59375 
z
" id="BitstreamVeraSans-Roman-69"/>
      <path d="M 19.671875 64.796875 
L 19.671875 8.109375 
L 31.59375 8.109375 
Q 46.6875 8.109375 53.6875 14.9375 
Q 60.6875 21.78125 60.6875 36.53125 
Q 60.6875 51.171875 53.6875 57.984375 
Q 46.6875 64.796875 31.59375 64.796875 
z
M 9.8125 72.90625 
L 30.078125 72.90625 
Q 51.265625 72.90625 61.171875 64.09375 
Q 71.09375 55.28125 71.09375 36.53125 
Q 71.09375 17.671875 61.125 8.828125 
Q 51.171875 0 30.078125 0 
L 9.8125 0 
z
" id="BitstreamVeraSans-Roman-44"/>
      <path d="M 2.984375 54.6875 
L 12.5 54.6875 
L 29.59375 8.796875 
L 46.6875 54.6875 
L 56.203125 54.6875 
L 35.6875 0 
L 23.484375 0 
z
" id="BitstreamVeraSans-Roman-76"/>
      <path d="M 32.171875 -5.078125 
Q 28.375 -14.84375 24.75 -17.8125 
Q 21.140625 -20.796875 15.09375 -20.796875 
L 7.90625 -20.796875 
L 7.90625 -13.28125 
L 13.1875 -13.28125 
Q 16.890625 -13.28125 18.9375 -11.515625 
Q 21 -9.765625 23.484375 -3.21875 
L 25.09375 0.875 
L 2.984375 54.6875 
L 12.5 54.6875 
L 29.59375 11.921875 
L 46.6875 54.6875 
L 56.203125 54.6875 
z
" id="BitstreamVeraSans-Roman-79"/>
      <path id="BitstreamVeraSans-Roman-20"/>
      <path d="M 48.78125 52.59375 
L 48.78125 44.1875 
Q 44.96875 46.296875 41.140625 47.34375 
Q 37.3125 48.390625 33.40625 48.390625 
Q 24.65625 48.390625 19.8125 42.84375 
Q 14.984375 37.3125 14.984375 27.296875 
Q 14.984375 17.28125 19.8125 11.734375 
Q 24.65625 6.203125 33.40625 6.203125 
Q 37.3125 6.203125 41.140625 7.25 
Q 44.96875 8.296875 48.78125 10.40625 
L 48.78125 2.09375 
Q 45.015625 0.34375 40.984375 -0.53125 
Q 36.96875 -1.421875 32.421875 -1.421875 
Q 20.0625 -1.421875 12.78125 6.34375 
Q 5.515625 14.109375 5.515625 27.296875 
Q 5.515625 40.671875 12.859375 48.328125 
Q 20.21875 56 33.015625 56 
Q 37.15625 56 41.109375 55.140625 
Q 45.0625 54.296875 48.78125 52.59375 
" id="BitstreamVeraSans-Roman-63"/>
      <path d="M 18.3125 70.21875 
L 18.3125 54.6875 
L 36.8125 54.6875 
L 36.8125 47.703125 
L 18.3125 47.703125 
L 18.3125 18.015625 
Q 18.3125 11.328125 20.140625 9.421875 
Q 21.96875 7.515625 27.59375 7.515625 
L 36.8125 7.515625 
L 36.8125 0 
L 27.59375 0 
Q 17.1875 0 13.234375 3.875 
Q 9.28125 7.765625 9.28125 18.015625 
L 9.28125 47.703125 
L 2.6875 47.703125 
L 2.6875 54.6875 
L 9.28125 54.6875 
L 9.28125 70.21875 
z
" id="BitstreamVeraSans-Roman-74"/>
      <path d="M 19.671875 64.796875 
L 19.671875 37.40625 
L 32.078125 37.40625 
Q 38.96875 37.40625 42.71875 40.96875 
Q 46.484375 44.53125 46.484375 51.125 
Q 46.484375 57.671875 42.71875 61.234375 
Q 38.96875 64.796875 32.078125 64.796875 
z
M 9.8125 72.90625 
L 32.078125 72.90625 
Q 44.34375 72.90625 50.609375 67.359375 
Q 56.890625 61.8125 56.890625 51.125 
Q 56.890625 40.328125 50.609375 34.8125 
Q 44.34375 29.296875 32.078125 29.296875 
L 19.671875 29.296875 
L 19.671875 0 
L 9.8125 0 
z
" id="BitstreamVeraSans-Roman-50"/>
     </defs>
     <g style="fill:#262626;" transform="translate(37.519140625 434.8515625)rotate(-90.0)scale(0.275 -0.275)">
      <use xlink:href="#BitstreamVeraSans-Roman-50"/>
      <use x="60.302734375" xlink:href="#BitstreamVeraSans-Roman-68"/>
      <use x="123.681640625" xlink:href="#BitstreamVeraSans-Roman-79"/>
      <use x="182.861328125" xlink:href="#BitstreamVeraSans-Roman-6c"/>
      <use x="210.64453125" xlink:href="#BitstreamVeraSans-Roman-6f"/>
      <use x="271.826171875" xlink:href="#BitstreamVeraSans-Roman-67"/>
      <use x="335.302734375" xlink:href="#BitstreamVeraSans-Roman-65"/>
      <use x="396.826171875" xlink:href="#BitstreamVeraSans-Roman-6e"/>
      <use x="460.205078125" xlink:href="#BitstreamVeraSans-Roman-65"/>
      <use x="521.728515625" xlink:href="#BitstreamVeraSans-Roman-74"/>
      <use x="560.9375" xlink:href="#BitstreamVeraSans-Roman-69"/>
      <use x="588.720703125" xlink:href="#BitstreamVeraSans-Roman-63"/>
      <use x="643.701171875" xlink:href="#BitstreamVeraSans-Roman-20"/>
      <use x="675.48828125" xlink:href="#BitstreamVeraSans-Roman-44"/>
      <use x="752.490234375" xlink:href="#BitstreamVeraSans-Roman-69"/>
      <use x="780.2734375" xlink:href="#BitstreamVeraSans-Roman-76"/>
      <use x="839.453125" xlink:href="#BitstreamVeraSans-Roman-65"/>
      <use x="900.9765625" xlink:href="#BitstreamVeraSans-Roman-72"/>
      <use x="942.08984375" xlink:href="#BitstreamVeraSans-Roman-73"/>
      <use x="994.189453125" xlink:href="#BitstreamVeraSans-Roman-69"/>
      <use x="1021.97265625" xlink:href="#BitstreamVeraSans-Roman-74"/>
      <use x="1061.181640625" xlink:href="#BitstreamVeraSans-Roman-79"/>
     </g>
    </g>
   </g>
   <g id="PolyCollection_1">
    <defs>
     <path d="M 282.400946 -161.125458 
L 268.399054 -161.125458 
L 267.055942 -163.579192 
L 265.52003 -166.032925 
L 263.777146 -168.486659 
L 261.814619 -170.940393 
L 259.621779 -173.394126 
L 257.190455 -175.84786 
L 254.51545 -178.301594 
L 251.594952 -180.755327 
L 248.430882 -183.209061 
L 245.029142 -185.662795 
L 241.399738 -188.116528 
L 237.556787 -190.570262 
L 233.518373 -193.023996 
L 229.30627 -195.477729 
L 224.945525 -197.931463 
L 220.463926 -200.385197 
L 215.891365 -202.83893 
L 211.259134 -205.292664 
L 206.599183 -207.746398 
L 201.943372 -210.200131 
L 197.32276 -212.653865 
L 192.766966 -215.107599 
L 188.303627 -217.561332 
L 183.957986 -220.015066 
L 179.752616 -222.4688 
L 175.707306 -224.922533 
L 171.83908 -227.376267 
L 168.162362 -229.830001 
L 164.689248 -232.283734 
L 161.429864 -234.737468 
L 158.392772 -237.191202 
L 155.585385 -239.644935 
L 153.014363 -242.098669 
L 150.685938 -244.552403 
L 148.60616 -247.006136 
L 146.781017 -249.45987 
L 145.216443 -251.913604 
L 143.918183 -254.367337 
L 142.891549 -256.821071 
L 142.141063 -259.274805 
L 141.670018 -261.728538 
L 141.48 -264.182272 
L 141.570387 -266.636006 
L 141.937883 -269.089739 
L 142.576117 -271.543473 
L 143.475335 -273.997207 
L 144.622235 -276.45094 
L 145.999949 -278.904674 
L 147.588194 -281.358408 
L 149.363605 -283.812141 
L 151.300235 -286.265875 
L 153.370211 -288.719609 
L 155.544526 -291.173342 
L 157.793931 -293.627076 
L 160.089892 -296.08081 
L 162.405565 -298.534543 
L 164.716743 -300.988277 
L 167.002735 -303.442011 
L 169.247122 -305.895744 
L 171.438354 -308.349478 
L 173.570157 -310.803212 
L 175.641714 -313.256945 
L 177.657619 -315.710679 
L 179.627584 -318.164413 
L 181.565915 -320.618146 
L 183.490782 -323.07188 
L 185.423292 -325.525614 
L 187.386436 -327.979347 
L 189.403926 -330.433081 
L 191.49901 -332.886815 
L 193.693287 -335.340548 
L 196.005607 -337.794282 
L 198.45109 -340.248016 
L 201.040322 -342.701749 
L 203.778753 -345.155483 
L 206.666338 -347.609217 
L 209.69742 -350.06295 
L 212.860862 -352.516684 
L 216.140416 -354.970418 
L 219.515302 -357.424151 
L 222.960967 -359.877885 
L 226.449971 -362.331619 
L 229.95297 -364.785352 
L 233.43973 -367.239086 
L 236.880131 -369.69282 
L 240.245125 -372.146553 
L 243.507587 -374.600287 
L 246.643047 -377.054021 
L 249.630273 -379.507754 
L 252.451692 -381.961488 
L 255.093642 -384.415222 
L 257.546462 -386.868955 
L 259.804437 -389.322689 
L 261.865602 -391.776423 
L 263.731441 -394.230156 
L 265.406505 -396.68389 
L 266.897962 -399.137624 
L 268.215119 -401.591357 
L 269.368934 -404.045091 
L 281.431066 -404.045091 
L 281.431066 -404.045091 
L 282.584881 -401.591357 
L 283.902038 -399.137624 
L 285.393495 -396.68389 
L 287.068559 -394.230156 
L 288.934398 -391.776423 
L 290.995563 -389.322689 
L 293.253538 -386.868955 
L 295.706358 -384.415222 
L 298.348308 -381.961488 
L 301.169727 -379.507754 
L 304.156953 -377.054021 
L 307.292413 -374.600287 
L 310.554875 -372.146553 
L 313.919869 -369.69282 
L 317.36027 -367.239086 
L 320.84703 -364.785352 
L 324.350029 -362.331619 
L 327.839033 -359.877885 
L 331.284698 -357.424151 
L 334.659584 -354.970418 
L 337.939138 -352.516684 
L 341.10258 -350.06295 
L 344.133662 -347.609217 
L 347.021247 -345.155483 
L 349.759678 -342.701749 
L 352.34891 -340.248016 
L 354.794393 -337.794282 
L 357.106713 -335.340548 
L 359.30099 -332.886815 
L 361.396074 -330.433081 
L 363.413564 -327.979347 
L 365.376708 -325.525614 
L 367.309218 -323.07188 
L 369.234085 -320.618146 
L 371.172416 -318.164413 
L 373.142381 -315.710679 
L 375.158286 -313.256945 
L 377.229843 -310.803212 
L 379.361646 -308.349478 
L 381.552878 -305.895744 
L 383.797265 -303.442011 
L 386.083257 -300.988277 
L 388.394435 -298.534543 
L 390.710108 -296.08081 
L 393.006069 -293.627076 
L 395.255474 -291.173342 
L 397.429789 -288.719609 
L 399.499765 -286.265875 
L 401.436395 -283.812141 
L 403.211806 -281.358408 
L 404.800051 -278.904674 
L 406.177765 -276.45094 
L 407.324665 -273.997207 
L 408.223883 -271.543473 
L 408.862117 -269.089739 
L 409.229613 -266.636006 
L 409.32 -264.182272 
L 409.129982 -261.728538 
L 408.658937 -259.274805 
L 407.908451 -256.821071 
L 406.881817 -254.367337 
L 405.583557 -251.913604 
L 404.018983 -249.45987 
L 402.19384 -247.006136 
L 400.114062 -244.552403 
L 397.785637 -242.098669 
L 395.214615 -239.644935 
L 392.407228 -237.191202 
L 389.370136 -234.737468 
L 386.110752 -232.283734 
L 382.637638 -229.830001 
L 378.96092 -227.376267 
L 375.092694 -224.922533 
L 371.047384 -222.4688 
L 366.842014 -220.015066 
L 362.496373 -217.561332 
L 358.033034 -215.107599 
L 353.47724 -212.653865 
L 348.856628 -210.200131 
L 344.200817 -207.746398 
L 339.540866 -205.292664 
L 334.908635 -202.83893 
L 330.336074 -200.385197 
L 325.854475 -197.931463 
L 321.49373 -195.477729 
L 317.281627 -193.023996 
L 313.243213 -190.570262 
L 309.400262 -188.116528 
L 305.770858 -185.662795 
L 302.369118 -183.209061 
L 299.205048 -180.755327 
L 296.28455 -178.301594 
L 293.609545 -175.84786 
L 291.178221 -173.394126 
L 288.985381 -170.940393 
L 287.022854 -168.486659 
L 285.27997 -166.032925 
L 283.744058 -163.579192 
L 282.400946 -161.125458 
z
" id="mcc5c828b4a" style="stroke:#142452;stroke-width:1.75;"/>
    </defs>
    <g clip-path="url(#p1256e44640)">
     <use style="fill:#142452;stroke:#142452;stroke-width:1.75;" x="0.0" xlink:href="#mcc5c828b4a" y="576.0"/>
    </g>
   </g>
   <g id="PolyCollection_2">
    <defs>
     <path d="M 613.310948 -122.75812 
L 607.089052 -122.75812 
L 606.43629 -126.28202 
L 605.683276 -129.80592 
L 604.822653 -133.32982 
L 603.84801 -136.85372 
L 602.754112 -140.37762 
L 601.537084 -143.901521 
L 600.194524 -147.425421 
L 598.725549 -150.949321 
L 597.130742 -154.473221 
L 595.412002 -157.997121 
L 593.572311 -161.521022 
L 591.615418 -165.044922 
L 589.545468 -168.568822 
L 587.36661 -172.092722 
L 585.082603 -175.616622 
L 582.696488 -179.140522 
L 580.210338 -182.664423 
L 577.625137 -186.188323 
L 574.94081 -189.712223 
L 572.156423 -193.236123 
L 569.270537 -196.760023 
L 566.281733 -200.283923 
L 563.18923 -203.807824 
L 559.993596 -207.331724 
L 556.697453 -210.855624 
L 553.306144 -214.379524 
L 549.828281 -217.903424 
L 546.276121 -221.427325 
L 542.66573 -224.951225 
L 539.016912 -228.475125 
L 535.352891 -231.999025 
L 531.69977 -235.522925 
L 528.085816 -239.046825 
L 524.540612 -242.570726 
L 521.094167 -246.094626 
L 517.776048 -249.618526 
L 514.614611 -253.142426 
L 511.63639 -256.666326 
L 508.865691 -260.190226 
L 506.324408 -263.714127 
L 504.032053 -267.238027 
L 502.005977 -270.761927 
L 500.26171 -274.285827 
L 498.813369 -277.809727 
L 497.674046 -281.333628 
L 496.856097 -284.857528 
L 496.371265 -288.381428 
L 496.230593 -291.905328 
L 496.444091 -295.429228 
L 497.020173 -298.953128 
L 497.964885 -302.477029 
L 499.280999 -306.000929 
L 500.967034 -309.524829 
L 503.01632 -313.048729 
L 505.416195 -316.572629 
L 508.147434 -320.09653 
L 511.183985 -323.62043 
L 514.493091 -327.14433 
L 518.035794 -330.66823 
L 521.767853 -334.19213 
L 525.641021 -337.71603 
L 529.604614 -341.239931 
L 533.607296 -344.763831 
L 537.598955 -348.287731 
L 541.532556 -351.811631 
L 545.36586 -355.335531 
L 549.062889 -358.859431 
L 552.595054 -362.383332 
L 555.941873 -365.907232 
L 559.091248 -369.431132 
L 562.039296 -372.955032 
L 564.789745 -376.478932 
L 567.352968 -380.002833 
L 569.74472 -383.526733 
L 571.984667 -387.050633 
L 574.094826 -390.574533 
L 576.097994 -394.098433 
L 578.016288 -397.622333 
L 579.869862 -401.146234 
L 581.675873 -404.670134 
L 583.447746 -408.194034 
L 585.194739 -411.717934 
L 586.921832 -415.241834 
L 588.629895 -418.765734 
L 590.316102 -422.289635 
L 591.974541 -425.813535 
L 593.596954 -429.337435 
L 595.173548 -432.861335 
L 596.69381 -436.385235 
L 598.147282 -439.909136 
L 599.524239 -443.433036 
L 600.816253 -446.956936 
L 602.016607 -450.480836 
L 603.120566 -454.004736 
L 604.125496 -457.528636 
L 605.030857 -461.052537 
L 605.838077 -464.576437 
L 606.550342 -468.100337 
L 607.172322 -471.624237 
L 613.227678 -471.624237 
L 613.227678 -471.624237 
L 613.849658 -468.100337 
L 614.561923 -464.576437 
L 615.369143 -461.052537 
L 616.274504 -457.528636 
L 617.279434 -454.004736 
L 618.383393 -450.480836 
L 619.583747 -446.956936 
L 620.875761 -443.433036 
L 622.252718 -439.909136 
L 623.70619 -436.385235 
L 625.226452 -432.861335 
L 626.803046 -429.337435 
L 628.425459 -425.813535 
L 630.083898 -422.289635 
L 631.770105 -418.765734 
L 633.478168 -415.241834 
L 635.205261 -411.717934 
L 636.952254 -408.194034 
L 638.724127 -404.670134 
L 640.530138 -401.146234 
L 642.383712 -397.622333 
L 644.302006 -394.098433 
L 646.305174 -390.574533 
L 648.415333 -387.050633 
L 650.65528 -383.526733 
L 653.047032 -380.002833 
L 655.610255 -376.478932 
L 658.360704 -372.955032 
L 661.308752 -369.431132 
L 664.458127 -365.907232 
L 667.804946 -362.383332 
L 671.337111 -358.859431 
L 675.03414 -355.335531 
L 678.867444 -351.811631 
L 682.801045 -348.287731 
L 686.792704 -344.763831 
L 690.795386 -341.239931 
L 694.758979 -337.71603 
L 698.632147 -334.19213 
L 702.364206 -330.66823 
L 705.906909 -327.14433 
L 709.216015 -323.62043 
L 712.252566 -320.09653 
L 714.983805 -316.572629 
L 717.38368 -313.048729 
L 719.432966 -309.524829 
L 721.119001 -306.000929 
L 722.435115 -302.477029 
L 723.379827 -298.953128 
L 723.955909 -295.429228 
L 724.169407 -291.905328 
L 724.028735 -288.381428 
L 723.543903 -284.857528 
L 722.725954 -281.333628 
L 721.586631 -277.809727 
L 720.13829 -274.285827 
L 718.394023 -270.761927 
L 716.367947 -267.238027 
L 714.075592 -263.714127 
L 711.534309 -260.190226 
L 708.76361 -256.666326 
L 705.785389 -253.142426 
L 702.623952 -249.618526 
L 699.305833 -246.094626 
L 695.859388 -242.570726 
L 692.314184 -239.046825 
L 688.70023 -235.522925 
L 685.047109 -231.999025 
L 681.383088 -228.475125 
L 677.73427 -224.951225 
L 674.123879 -221.427325 
L 670.571719 -217.903424 
L 667.093856 -214.379524 
L 663.702547 -210.855624 
L 660.406404 -207.331724 
L 657.21077 -203.807824 
L 654.118267 -200.283923 
L 651.129463 -196.760023 
L 648.243577 -193.236123 
L 645.45919 -189.712223 
L 642.774863 -186.188323 
L 640.189662 -182.664423 
L 637.703512 -179.140522 
L 635.317397 -175.616622 
L 633.03339 -172.092722 
L 630.854532 -168.568822 
L 628.784582 -165.044922 
L 626.827689 -161.521022 
L 624.987998 -157.997121 
L 623.269258 -154.473221 
L 621.674451 -150.949321 
L 620.205476 -147.425421 
L 618.862916 -143.901521 
L 617.645888 -140.37762 
L 616.55199 -136.85372 
L 615.577347 -133.32982 
L 614.716724 -129.80592 
L 613.96371 -126.28202 
L 613.310948 -122.75812 
z
" id="md742e77521" style="stroke:#f9fadb;stroke-width:1.75;"/>
    </defs>
    <g clip-path="url(#p1256e44640)">
     <use style="fill:#f9fadb;stroke:#f9fadb;stroke-width:1.75;" x="0.0" xlink:href="#md742e77521" y="576.0"/>
    </g>
   </g>
   <g id="line2d_32">
    <path clip-path="url(#p1256e44640)" d="M 275.4 356.574659 
L 275.4 230.254792 
" style="fill:none;stroke:#1e1e1e;stroke-linecap:round;stroke-width:1.75;"/>
   </g>
   <g id="line2d_33">
    <path clip-path="url(#p1256e44640)" d="M 275.4 326.959303 
L 275.4 271.355535 
" style="fill:none;stroke:#1e1e1e;stroke-linecap:round;stroke-width:5.25;"/>
   </g>
   <g id="line2d_34">
    <path clip-path="url(#p1256e44640)" d="M 610.2 378.734636 
L 610.2 178.883007 
" style="fill:none;stroke:#1e1e1e;stroke-linecap:round;stroke-width:1.75;"/>
   </g>
   <g id="line2d_35">
    <path clip-path="url(#p1256e44640)" d="M 610.2 315.600069 
L 610.2 256.877382 
" style="fill:none;stroke:#1e1e1e;stroke-linecap:round;stroke-width:5.25;"/>
   </g>
   <g id="patch_3">
    <path d="M 108 504 
L 108 57.6 
" style="fill:none;"/>
   </g>
   <g id="patch_4">
    <path d="M 777.6 504 
L 777.6 57.6 
" style="fill:none;"/>
   </g>
   <g id="patch_5">
    <path d="M 108 504 
L 777.6 504 
" style="fill:none;"/>
   </g>
   <g id="patch_6">
    <path d="M 108 57.6 
L 777.6 57.6 
" style="fill:none;"/>
   </g>
   <g id="PathCollection_1">
    <defs>
     <path d="M 0 1.75 
C 0.464105 1.75 0.909265 1.565609 1.237437 1.237437 
C 1.565609 0.909265 1.75 0.464105 1.75 0 
C 1.75 -0.464105 1.565609 -0.909265 1.237437 -1.237437 
C 0.909265 -1.565609 0.464105 -1.75 0 -1.75 
C -0.464105 -1.75 -0.909265 -1.565609 -1.237437 -1.237437 
C -1.565609 -0.909265 -1.75 -0.464105 -1.75 0 
C -1.75 0.464105 -1.565609 0.909265 -1.237437 1.237437 
C -0.909265 1.565609 -0.464105 1.75 0 1.75 
z
" id="m29fa49229c" style="stroke:#1e1e1e;stroke-width:0.3;"/>
    </defs>
    <g clip-path="url(#p1256e44640)">
     <use style="fill:#ffffff;stroke:#1e1e1e;stroke-width:0.3;" x="275.4" xlink:href="#m29fa49229c" y="302.4790812"/>
    </g>
   </g>
   <g id="PathCollection_2">
    <g clip-path="url(#p1256e44640)">
     <use style="fill:#ffffff;stroke:#1e1e1e;stroke-width:0.3;" x="610.2" xlink:href="#m29fa49229c" y="277.40074491"/>
    </g>
   </g>
  </g>
 </g>
 <defs>
  <clipPath id="p1256e44640">
   <rect height="446.4" width="669.6" x="108.0" y="57.6"/>
  </clipPath>
 </defs>
</svg>
