<?xml version="1.0" encoding="utf-8" standalone="no"?>
<!DOCTYPE svg PUBLIC "-//W3C//DTD SVG 1.1//EN"
  "http://www.w3.org/Graphics/SVG/1.1/DTD/svg11.dtd">
<!-- Created with matplotlib (http://matplotlib.org/) -->
<svg height="720pt" version="1.1" viewBox="0 0 864 720" width="864pt" xmlns="http://www.w3.org/2000/svg" xmlns:xlink="http://www.w3.org/1999/xlink">
 <defs>
  <style type="text/css">
*{stroke-linecap:butt;stroke-linejoin:round;stroke-miterlimit:100000;}
  </style>
 </defs>
 <g id="figure_1">
  <g id="patch_1">
   <path d="M 0 720 
L 864 720 
L 864 0 
L 0 0 
z
" style="fill:#ffffff;"/>
  </g>
  <g id="axes_1">
   <g id="patch_2">
    <path d="M 108 630 
L 777.6 630 
L 777.6 72 
L 108 72 
z
" style="fill:#eaeaf2;"/>
   </g>
   <g id="matplotlib.axis_1">
    <g id="xtick_1">
     <g id="line2d_1">
      <path clip-path="url(#p435c812f07)" d="M 108 630 
L 108 72 
" style="fill:none;stroke:#ffffff;stroke-linecap:round;"/>
     </g>
     <g id="line2d_2">
      <defs>
       <path d="M 0 0 
L 0 0 
" id="m8975cd8a08" style="stroke:#262626;"/>
      </defs>
      <g>
       <use style="fill:#262626;stroke:#262626;" x="108.0" xlink:href="#m8975cd8a08" y="630.0"/>
      </g>
     </g>
     <g id="line2d_3">
      <g>
       <use style="fill:#262626;stroke:#262626;" x="108.0" xlink:href="#m8975cd8a08" y="72.0"/>
      </g>
     </g>
    </g>
    <g id="xtick_2">
     <g id="line2d_4">
      <path clip-path="url(#p435c812f07)" d="M 182.4 630 
L 182.4 72 
" style="fill:none;stroke:#ffffff;stroke-linecap:round;"/>
     </g>
     <g id="line2d_5">
      <g>
       <use style="fill:#262626;stroke:#262626;" x="182.4" xlink:href="#m8975cd8a08" y="630.0"/>
      </g>
     </g>
     <g id="line2d_6">
      <g>
       <use style="fill:#262626;stroke:#262626;" x="182.4" xlink:href="#m8975cd8a08" y="72.0"/>
      </g>
     </g>
    </g>
    <g id="xtick_3">
     <g id="line2d_7">
      <path clip-path="url(#p435c812f07)" d="M 256.8 630 
L 256.8 72 
" style="fill:none;stroke:#ffffff;stroke-linecap:round;"/>
     </g>
     <g id="line2d_8">
      <g>
       <use style="fill:#262626;stroke:#262626;" x="256.8" xlink:href="#m8975cd8a08" y="630.0"/>
      </g>
     </g>
     <g id="line2d_9">
      <g>
       <use style="fill:#262626;stroke:#262626;" x="256.8" xlink:href="#m8975cd8a08" y="72.0"/>
      </g>
     </g>
    </g>
    <g id="xtick_4">
     <g id="line2d_10">
      <path clip-path="url(#p435c812f07)" d="M 331.2 630 
L 331.2 72 
" style="fill:none;stroke:#ffffff;stroke-linecap:round;"/>
     </g>
     <g id="line2d_11">
      <g>
       <use style="fill:#262626;stroke:#262626;" x="331.2" xlink:href="#m8975cd8a08" y="630.0"/>
      </g>
     </g>
     <g id="line2d_12">
      <g>
       <use style="fill:#262626;stroke:#262626;" x="331.2" xlink:href="#m8975cd8a08" y="72.0"/>
      </g>
     </g>
    </g>
    <g id="xtick_5">
     <g id="line2d_13">
      <path clip-path="url(#p435c812f07)" d="M 405.6 630 
L 405.6 72 
" style="fill:none;stroke:#ffffff;stroke-linecap:round;"/>
     </g>
     <g id="line2d_14">
      <g>
       <use style="fill:#262626;stroke:#262626;" x="405.6" xlink:href="#m8975cd8a08" y="630.0"/>
      </g>
     </g>
     <g id="line2d_15">
      <g>
       <use style="fill:#262626;stroke:#262626;" x="405.6" xlink:href="#m8975cd8a08" y="72.0"/>
      </g>
     </g>
    </g>
    <g id="xtick_6">
     <g id="line2d_16">
      <path clip-path="url(#p435c812f07)" d="M 480 630 
L 480 72 
" style="fill:none;stroke:#ffffff;stroke-linecap:round;"/>
     </g>
     <g id="line2d_17">
      <g>
       <use style="fill:#262626;stroke:#262626;" x="480.0" xlink:href="#m8975cd8a08" y="630.0"/>
      </g>
     </g>
     <g id="line2d_18">
      <g>
       <use style="fill:#262626;stroke:#262626;" x="480.0" xlink:href="#m8975cd8a08" y="72.0"/>
      </g>
     </g>
    </g>
    <g id="xtick_7">
     <g id="line2d_19">
      <path clip-path="url(#p435c812f07)" d="M 554.4 630 
L 554.4 72 
" style="fill:none;stroke:#ffffff;stroke-linecap:round;"/>
     </g>
     <g id="line2d_20">
      <g>
       <use style="fill:#262626;stroke:#262626;" x="554.4" xlink:href="#m8975cd8a08" y="630.0"/>
      </g>
     </g>
     <g id="line2d_21">
      <g>
       <use style="fill:#262626;stroke:#262626;" x="554.4" xlink:href="#m8975cd8a08" y="72.0"/>
      </g>
     </g>
    </g>
    <g id="xtick_8">
     <g id="line2d_22">
      <path clip-path="url(#p435c812f07)" d="M 628.8 630 
L 628.8 72 
" style="fill:none;stroke:#ffffff;stroke-linecap:round;"/>
     </g>
     <g id="line2d_23">
      <g>
       <use style="fill:#262626;stroke:#262626;" x="628.8" xlink:href="#m8975cd8a08" y="630.0"/>
      </g>
     </g>
     <g id="line2d_24">
      <g>
       <use style="fill:#262626;stroke:#262626;" x="628.8" xlink:href="#m8975cd8a08" y="72.0"/>
      </g>
     </g>
    </g>
    <g id="xtick_9">
     <g id="line2d_25">
      <path clip-path="url(#p435c812f07)" d="M 703.2 630 
L 703.2 72 
" style="fill:none;stroke:#ffffff;stroke-linecap:round;"/>
     </g>
     <g id="line2d_26">
      <g>
       <use style="fill:#262626;stroke:#262626;" x="703.2" xlink:href="#m8975cd8a08" y="630.0"/>
      </g>
     </g>
     <g id="line2d_27">
      <g>
       <use style="fill:#262626;stroke:#262626;" x="703.2" xlink:href="#m8975cd8a08" y="72.0"/>
      </g>
     </g>
    </g>
    <g id="xtick_10">
     <g id="line2d_28">
      <path clip-path="url(#p435c812f07)" d="M 777.6 630 
L 777.6 72 
" style="fill:none;stroke:#ffffff;stroke-linecap:round;"/>
     </g>
     <g id="line2d_29">
      <g>
       <use style="fill:#262626;stroke:#262626;" x="777.6" xlink:href="#m8975cd8a08" y="630.0"/>
      </g>
     </g>
     <g id="line2d_30">
      <g>
       <use style="fill:#262626;stroke:#262626;" x="777.6" xlink:href="#m8975cd8a08" y="72.0"/>
      </g>
     </g>
    </g>
    <g id="text_1">
     <!-- PC1 (25.968%) -->
     <defs>
      <path d="M 19.1875 8.296875 
L 53.609375 8.296875 
L 53.609375 0 
L 7.328125 0 
L 7.328125 8.296875 
Q 12.9375 14.109375 22.625 23.890625 
Q 32.328125 33.6875 34.8125 36.53125 
Q 39.546875 41.84375 41.421875 45.53125 
Q 43.3125 49.21875 43.3125 52.78125 
Q 43.3125 58.59375 39.234375 62.25 
Q 35.15625 65.921875 28.609375 65.921875 
Q 23.96875 65.921875 18.8125 64.3125 
Q 13.671875 62.703125 7.8125 59.421875 
L 7.8125 69.390625 
Q 13.765625 71.78125 18.9375 73 
Q 24.125 74.21875 28.421875 74.21875 
Q 39.75 74.21875 46.484375 68.546875 
Q 53.21875 62.890625 53.21875 53.421875 
Q 53.21875 48.921875 51.53125 44.890625 
Q 49.859375 40.875 45.40625 35.40625 
Q 44.1875 33.984375 37.640625 27.21875 
Q 31.109375 20.453125 19.1875 8.296875 
" id="BitstreamVeraSans-Roman-32"/>
      <path d="M 72.703125 32.078125 
Q 68.453125 32.078125 66.03125 28.46875 
Q 63.625 24.859375 63.625 18.40625 
Q 63.625 12.0625 66.03125 8.421875 
Q 68.453125 4.78125 72.703125 4.78125 
Q 76.859375 4.78125 79.265625 8.421875 
Q 81.6875 12.0625 81.6875 18.40625 
Q 81.6875 24.8125 79.265625 28.4375 
Q 76.859375 32.078125 72.703125 32.078125 
M 72.703125 38.28125 
Q 80.421875 38.28125 84.953125 32.90625 
Q 89.5 27.546875 89.5 18.40625 
Q 89.5 9.28125 84.9375 3.921875 
Q 80.375 -1.421875 72.703125 -1.421875 
Q 64.890625 -1.421875 60.34375 3.921875 
Q 55.8125 9.28125 55.8125 18.40625 
Q 55.8125 27.59375 60.375 32.9375 
Q 64.9375 38.28125 72.703125 38.28125 
M 22.3125 68.015625 
Q 18.109375 68.015625 15.6875 64.375 
Q 13.28125 60.75 13.28125 54.390625 
Q 13.28125 47.953125 15.671875 44.328125 
Q 18.0625 40.71875 22.3125 40.71875 
Q 26.5625 40.71875 28.96875 44.328125 
Q 31.390625 47.953125 31.390625 54.390625 
Q 31.390625 60.6875 28.953125 64.34375 
Q 26.515625 68.015625 22.3125 68.015625 
M 66.40625 74.21875 
L 74.21875 74.21875 
L 28.609375 -1.421875 
L 20.796875 -1.421875 
z
M 22.3125 74.21875 
Q 30.03125 74.21875 34.609375 68.875 
Q 39.203125 63.53125 39.203125 54.390625 
Q 39.203125 45.171875 34.640625 39.84375 
Q 30.078125 34.515625 22.3125 34.515625 
Q 14.546875 34.515625 10.03125 39.859375 
Q 5.515625 45.21875 5.515625 54.390625 
Q 5.515625 63.484375 10.046875 68.84375 
Q 14.59375 74.21875 22.3125 74.21875 
" id="BitstreamVeraSans-Roman-25"/>
      <path d="M 8.015625 75.875 
L 15.828125 75.875 
Q 23.140625 64.359375 26.78125 53.3125 
Q 30.421875 42.28125 30.421875 31.390625 
Q 30.421875 20.453125 26.78125 9.375 
Q 23.140625 -1.703125 15.828125 -13.1875 
L 8.015625 -13.1875 
Q 14.5 -2 17.703125 9.0625 
Q 20.90625 20.125 20.90625 31.390625 
Q 20.90625 42.671875 17.703125 53.65625 
Q 14.5 64.65625 8.015625 75.875 
" id="BitstreamVeraSans-Roman-29"/>
      <path id="BitstreamVeraSans-Roman-20"/>
      <path d="M 31.78125 34.625 
Q 24.75 34.625 20.71875 30.859375 
Q 16.703125 27.09375 16.703125 20.515625 
Q 16.703125 13.921875 20.71875 10.15625 
Q 24.75 6.390625 31.78125 6.390625 
Q 38.8125 6.390625 42.859375 10.171875 
Q 46.921875 13.96875 46.921875 20.515625 
Q 46.921875 27.09375 42.890625 30.859375 
Q 38.875 34.625 31.78125 34.625 
M 21.921875 38.8125 
Q 15.578125 40.375 12.03125 44.71875 
Q 8.5 49.078125 8.5 55.328125 
Q 8.5 64.0625 14.71875 69.140625 
Q 20.953125 74.21875 31.78125 74.21875 
Q 42.671875 74.21875 48.875 69.140625 
Q 55.078125 64.0625 55.078125 55.328125 
Q 55.078125 49.078125 51.53125 44.71875 
Q 48 40.375 41.703125 38.8125 
Q 48.828125 37.15625 52.796875 32.3125 
Q 56.78125 27.484375 56.78125 20.515625 
Q 56.78125 9.90625 50.3125 4.234375 
Q 43.84375 -1.421875 31.78125 -1.421875 
Q 19.734375 -1.421875 13.25 4.234375 
Q 6.78125 9.90625 6.78125 20.515625 
Q 6.78125 27.484375 10.78125 32.3125 
Q 14.796875 37.15625 21.921875 38.8125 
M 18.3125 54.390625 
Q 18.3125 48.734375 21.84375 45.5625 
Q 25.390625 42.390625 31.78125 42.390625 
Q 38.140625 42.390625 41.71875 45.5625 
Q 45.3125 48.734375 45.3125 54.390625 
Q 45.3125 60.0625 41.71875 63.234375 
Q 38.140625 66.40625 31.78125 66.40625 
Q 25.390625 66.40625 21.84375 63.234375 
Q 18.3125 60.0625 18.3125 54.390625 
" id="BitstreamVeraSans-Roman-38"/>
      <path d="M 12.40625 8.296875 
L 28.515625 8.296875 
L 28.515625 63.921875 
L 10.984375 60.40625 
L 10.984375 69.390625 
L 28.421875 72.90625 
L 38.28125 72.90625 
L 38.28125 8.296875 
L 54.390625 8.296875 
L 54.390625 0 
L 12.40625 0 
z
" id="BitstreamVeraSans-Roman-31"/>
      <path d="M 10.984375 1.515625 
L 10.984375 10.5 
Q 14.703125 8.734375 18.5 7.8125 
Q 22.3125 6.890625 25.984375 6.890625 
Q 35.75 6.890625 40.890625 13.453125 
Q 46.046875 20.015625 46.78125 33.40625 
Q 43.953125 29.203125 39.59375 26.953125 
Q 35.25 24.703125 29.984375 24.703125 
Q 19.046875 24.703125 12.671875 31.3125 
Q 6.296875 37.9375 6.296875 49.421875 
Q 6.296875 60.640625 12.9375 67.421875 
Q 19.578125 74.21875 30.609375 74.21875 
Q 43.265625 74.21875 49.921875 64.515625 
Q 56.59375 54.828125 56.59375 36.375 
Q 56.59375 19.140625 48.40625 8.859375 
Q 40.234375 -1.421875 26.421875 -1.421875 
Q 22.703125 -1.421875 18.890625 -0.6875 
Q 15.09375 0.046875 10.984375 1.515625 
M 30.609375 32.421875 
Q 37.25 32.421875 41.125 36.953125 
Q 45.015625 41.5 45.015625 49.421875 
Q 45.015625 57.28125 41.125 61.84375 
Q 37.25 66.40625 30.609375 66.40625 
Q 23.96875 66.40625 20.09375 61.84375 
Q 16.21875 57.28125 16.21875 49.421875 
Q 16.21875 41.5 20.09375 36.953125 
Q 23.96875 32.421875 30.609375 32.421875 
" id="BitstreamVeraSans-Roman-39"/>
      <path d="M 10.6875 12.40625 
L 21 12.40625 
L 21 0 
L 10.6875 0 
z
" id="BitstreamVeraSans-Roman-2e"/>
      <path d="M 33.015625 40.375 
Q 26.375 40.375 22.484375 35.828125 
Q 18.609375 31.296875 18.609375 23.390625 
Q 18.609375 15.53125 22.484375 10.953125 
Q 26.375 6.390625 33.015625 6.390625 
Q 39.65625 6.390625 43.53125 10.953125 
Q 47.40625 15.53125 47.40625 23.390625 
Q 47.40625 31.296875 43.53125 35.828125 
Q 39.65625 40.375 33.015625 40.375 
M 52.59375 71.296875 
L 52.59375 62.3125 
Q 48.875 64.0625 45.09375 64.984375 
Q 41.3125 65.921875 37.59375 65.921875 
Q 27.828125 65.921875 22.671875 59.328125 
Q 17.53125 52.734375 16.796875 39.40625 
Q 19.671875 43.65625 24.015625 45.921875 
Q 28.375 48.1875 33.59375 48.1875 
Q 44.578125 48.1875 50.953125 41.515625 
Q 57.328125 34.859375 57.328125 23.390625 
Q 57.328125 12.15625 50.6875 5.359375 
Q 44.046875 -1.421875 33.015625 -1.421875 
Q 20.359375 -1.421875 13.671875 8.265625 
Q 6.984375 17.96875 6.984375 36.375 
Q 6.984375 53.65625 15.1875 63.9375 
Q 23.390625 74.21875 37.203125 74.21875 
Q 40.921875 74.21875 44.703125 73.484375 
Q 48.484375 72.75 52.59375 71.296875 
" id="BitstreamVeraSans-Roman-36"/>
      <path d="M 10.796875 72.90625 
L 49.515625 72.90625 
L 49.515625 64.59375 
L 19.828125 64.59375 
L 19.828125 46.734375 
Q 21.96875 47.46875 24.109375 47.828125 
Q 26.265625 48.1875 28.421875 48.1875 
Q 40.625 48.1875 47.75 41.5 
Q 54.890625 34.8125 54.890625 23.390625 
Q 54.890625 11.625 47.5625 5.09375 
Q 40.234375 -1.421875 26.90625 -1.421875 
Q 22.3125 -1.421875 17.546875 -0.640625 
Q 12.796875 0.140625 7.71875 1.703125 
L 7.71875 11.625 
Q 12.109375 9.234375 16.796875 8.0625 
Q 21.484375 6.890625 26.703125 6.890625 
Q 35.15625 6.890625 40.078125 11.328125 
Q 45.015625 15.765625 45.015625 23.390625 
Q 45.015625 31 40.078125 35.4375 
Q 35.15625 39.890625 26.703125 39.890625 
Q 22.75 39.890625 18.8125 39.015625 
Q 14.890625 38.140625 10.796875 36.28125 
z
" id="BitstreamVeraSans-Roman-35"/>
      <path d="M 31 75.875 
Q 24.46875 64.65625 21.28125 53.65625 
Q 18.109375 42.671875 18.109375 31.390625 
Q 18.109375 20.125 21.3125 9.0625 
Q 24.515625 -2 31 -13.1875 
L 23.1875 -13.1875 
Q 15.875 -1.703125 12.234375 9.375 
Q 8.59375 20.453125 8.59375 31.390625 
Q 8.59375 42.28125 12.203125 53.3125 
Q 15.828125 64.359375 23.1875 75.875 
z
" id="BitstreamVeraSans-Roman-28"/>
      <path d="M 64.40625 67.28125 
L 64.40625 56.890625 
Q 59.421875 61.53125 53.78125 63.8125 
Q 48.140625 66.109375 41.796875 66.109375 
Q 29.296875 66.109375 22.65625 58.46875 
Q 16.015625 50.828125 16.015625 36.375 
Q 16.015625 21.96875 22.65625 14.328125 
Q 29.296875 6.6875 41.796875 6.6875 
Q 48.140625 6.6875 53.78125 8.984375 
Q 59.421875 11.28125 64.40625 15.921875 
L 64.40625 5.609375 
Q 59.234375 2.09375 53.4375 0.328125 
Q 47.65625 -1.421875 41.21875 -1.421875 
Q 24.65625 -1.421875 15.125 8.703125 
Q 5.609375 18.84375 5.609375 36.375 
Q 5.609375 53.953125 15.125 64.078125 
Q 24.65625 74.21875 41.21875 74.21875 
Q 47.75 74.21875 53.53125 72.484375 
Q 59.328125 70.75 64.40625 67.28125 
" id="BitstreamVeraSans-Roman-43"/>
      <path d="M 19.671875 64.796875 
L 19.671875 37.40625 
L 32.078125 37.40625 
Q 38.96875 37.40625 42.71875 40.96875 
Q 46.484375 44.53125 46.484375 51.125 
Q 46.484375 57.671875 42.71875 61.234375 
Q 38.96875 64.796875 32.078125 64.796875 
z
M 9.8125 72.90625 
L 32.078125 72.90625 
Q 44.34375 72.90625 50.609375 67.359375 
Q 56.890625 61.8125 56.890625 51.125 
Q 56.890625 40.328125 50.609375 34.8125 
Q 44.34375 29.296875 32.078125 29.296875 
L 19.671875 29.296875 
L 19.671875 0 
L 9.8125 0 
z
" id="BitstreamVeraSans-Roman-50"/>
     </defs>
     <g style="fill:#262626;" transform="translate(339.883398437 655.895703125)scale(0.275 -0.275)">
      <use xlink:href="#BitstreamVeraSans-Roman-50"/>
      <use x="60.302734375" xlink:href="#BitstreamVeraSans-Roman-43"/>
      <use x="130.126953125" xlink:href="#BitstreamVeraSans-Roman-31"/>
      <use x="193.75" xlink:href="#BitstreamVeraSans-Roman-20"/>
      <use x="225.537109375" xlink:href="#BitstreamVeraSans-Roman-28"/>
      <use x="264.55078125" xlink:href="#BitstreamVeraSans-Roman-32"/>
      <use x="328.173828125" xlink:href="#BitstreamVeraSans-Roman-35"/>
      <use x="391.796875" xlink:href="#BitstreamVeraSans-Roman-2e"/>
      <use x="423.583984375" xlink:href="#BitstreamVeraSans-Roman-39"/>
      <use x="487.20703125" xlink:href="#BitstreamVeraSans-Roman-36"/>
      <use x="550.830078125" xlink:href="#BitstreamVeraSans-Roman-38"/>
      <use x="614.453125" xlink:href="#BitstreamVeraSans-Roman-25"/>
      <use x="709.47265625" xlink:href="#BitstreamVeraSans-Roman-29"/>
     </g>
    </g>
   </g>
   <g id="matplotlib.axis_2">
    <g id="ytick_1">
     <g id="line2d_31">
      <path clip-path="url(#p435c812f07)" d="M 108 630 
L 777.6 630 
" style="fill:none;stroke:#ffffff;stroke-linecap:round;"/>
     </g>
     <g id="line2d_32">
      <g>
       <use style="fill:#262626;stroke:#262626;" x="108.0" xlink:href="#m8975cd8a08" y="630.0"/>
      </g>
     </g>
     <g id="line2d_33">
      <g>
       <use style="fill:#262626;stroke:#262626;" x="777.6" xlink:href="#m8975cd8a08" y="630.0"/>
      </g>
     </g>
    </g>
    <g id="ytick_2">
     <g id="line2d_34">
      <path clip-path="url(#p435c812f07)" d="M 108 560.25 
L 777.6 560.25 
" style="fill:none;stroke:#ffffff;stroke-linecap:round;"/>
     </g>
     <g id="line2d_35">
      <g>
       <use style="fill:#262626;stroke:#262626;" x="108.0" xlink:href="#m8975cd8a08" y="560.25"/>
      </g>
     </g>
     <g id="line2d_36">
      <g>
       <use style="fill:#262626;stroke:#262626;" x="777.6" xlink:href="#m8975cd8a08" y="560.25"/>
      </g>
     </g>
    </g>
    <g id="ytick_3">
     <g id="line2d_37">
      <path clip-path="url(#p435c812f07)" d="M 108 490.5 
L 777.6 490.5 
" style="fill:none;stroke:#ffffff;stroke-linecap:round;"/>
     </g>
     <g id="line2d_38">
      <g>
       <use style="fill:#262626;stroke:#262626;" x="108.0" xlink:href="#m8975cd8a08" y="490.5"/>
      </g>
     </g>
     <g id="line2d_39">
      <g>
       <use style="fill:#262626;stroke:#262626;" x="777.6" xlink:href="#m8975cd8a08" y="490.5"/>
      </g>
     </g>
    </g>
    <g id="ytick_4">
     <g id="line2d_40">
      <path clip-path="url(#p435c812f07)" d="M 108 420.75 
L 777.6 420.75 
" style="fill:none;stroke:#ffffff;stroke-linecap:round;"/>
     </g>
     <g id="line2d_41">
      <g>
       <use style="fill:#262626;stroke:#262626;" x="108.0" xlink:href="#m8975cd8a08" y="420.75"/>
      </g>
     </g>
     <g id="line2d_42">
      <g>
       <use style="fill:#262626;stroke:#262626;" x="777.6" xlink:href="#m8975cd8a08" y="420.75"/>
      </g>
     </g>
    </g>
    <g id="ytick_5">
     <g id="line2d_43">
      <path clip-path="url(#p435c812f07)" d="M 108 351 
L 777.6 351 
" style="fill:none;stroke:#ffffff;stroke-linecap:round;"/>
     </g>
     <g id="line2d_44">
      <g>
       <use style="fill:#262626;stroke:#262626;" x="108.0" xlink:href="#m8975cd8a08" y="351.0"/>
      </g>
     </g>
     <g id="line2d_45">
      <g>
       <use style="fill:#262626;stroke:#262626;" x="777.6" xlink:href="#m8975cd8a08" y="351.0"/>
      </g>
     </g>
    </g>
    <g id="ytick_6">
     <g id="line2d_46">
      <path clip-path="url(#p435c812f07)" d="M 108 281.25 
L 777.6 281.25 
" style="fill:none;stroke:#ffffff;stroke-linecap:round;"/>
     </g>
     <g id="line2d_47">
      <g>
       <use style="fill:#262626;stroke:#262626;" x="108.0" xlink:href="#m8975cd8a08" y="281.25"/>
      </g>
     </g>
     <g id="line2d_48">
      <g>
       <use style="fill:#262626;stroke:#262626;" x="777.6" xlink:href="#m8975cd8a08" y="281.25"/>
      </g>
     </g>
    </g>
    <g id="ytick_7">
     <g id="line2d_49">
      <path clip-path="url(#p435c812f07)" d="M 108 211.5 
L 777.6 211.5 
" style="fill:none;stroke:#ffffff;stroke-linecap:round;"/>
     </g>
     <g id="line2d_50">
      <g>
       <use style="fill:#262626;stroke:#262626;" x="108.0" xlink:href="#m8975cd8a08" y="211.5"/>
      </g>
     </g>
     <g id="line2d_51">
      <g>
       <use style="fill:#262626;stroke:#262626;" x="777.6" xlink:href="#m8975cd8a08" y="211.5"/>
      </g>
     </g>
    </g>
    <g id="ytick_8">
     <g id="line2d_52">
      <path clip-path="url(#p435c812f07)" d="M 108 141.75 
L 777.6 141.75 
" style="fill:none;stroke:#ffffff;stroke-linecap:round;"/>
     </g>
     <g id="line2d_53">
      <g>
       <use style="fill:#262626;stroke:#262626;" x="108.0" xlink:href="#m8975cd8a08" y="141.75"/>
      </g>
     </g>
     <g id="line2d_54">
      <g>
       <use style="fill:#262626;stroke:#262626;" x="777.6" xlink:href="#m8975cd8a08" y="141.75"/>
      </g>
     </g>
    </g>
    <g id="ytick_9">
     <g id="line2d_55">
      <path clip-path="url(#p435c812f07)" d="M 108 72 
L 777.6 72 
" style="fill:none;stroke:#ffffff;stroke-linecap:round;"/>
     </g>
     <g id="line2d_56">
      <g>
       <use style="fill:#262626;stroke:#262626;" x="108.0" xlink:href="#m8975cd8a08" y="72.0"/>
      </g>
     </g>
     <g id="line2d_57">
      <g>
       <use style="fill:#262626;stroke:#262626;" x="777.6" xlink:href="#m8975cd8a08" y="72.0"/>
      </g>
     </g>
    </g>
    <g id="text_2">
     <!-- PC2 (18.084%) -->
     <defs>
      <path d="M 31.78125 66.40625 
Q 24.171875 66.40625 20.328125 58.90625 
Q 16.5 51.421875 16.5 36.375 
Q 16.5 21.390625 20.328125 13.890625 
Q 24.171875 6.390625 31.78125 6.390625 
Q 39.453125 6.390625 43.28125 13.890625 
Q 47.125 21.390625 47.125 36.375 
Q 47.125 51.421875 43.28125 58.90625 
Q 39.453125 66.40625 31.78125 66.40625 
M 31.78125 74.21875 
Q 44.046875 74.21875 50.515625 64.515625 
Q 56.984375 54.828125 56.984375 36.375 
Q 56.984375 17.96875 50.515625 8.265625 
Q 44.046875 -1.421875 31.78125 -1.421875 
Q 19.53125 -1.421875 13.0625 8.265625 
Q 6.59375 17.96875 6.59375 36.375 
Q 6.59375 54.828125 13.0625 64.515625 
Q 19.53125 74.21875 31.78125 74.21875 
" id="BitstreamVeraSans-Roman-30"/>
      <path d="M 37.796875 64.3125 
L 12.890625 25.390625 
L 37.796875 25.390625 
z
M 35.203125 72.90625 
L 47.609375 72.90625 
L 47.609375 25.390625 
L 58.015625 25.390625 
L 58.015625 17.1875 
L 47.609375 17.1875 
L 47.609375 0 
L 37.796875 0 
L 37.796875 17.1875 
L 4.890625 17.1875 
L 4.890625 26.703125 
z
" id="BitstreamVeraSans-Roman-34"/>
     </defs>
     <g style="fill:#262626;" transform="translate(97.280859375 453.916601562)rotate(-90.0)scale(0.275 -0.275)">
      <use xlink:href="#BitstreamVeraSans-Roman-50"/>
      <use x="60.302734375" xlink:href="#BitstreamVeraSans-Roman-43"/>
      <use x="130.126953125" xlink:href="#BitstreamVeraSans-Roman-32"/>
      <use x="193.75" xlink:href="#BitstreamVeraSans-Roman-20"/>
      <use x="225.537109375" xlink:href="#BitstreamVeraSans-Roman-28"/>
      <use x="264.55078125" xlink:href="#BitstreamVeraSans-Roman-31"/>
      <use x="328.173828125" xlink:href="#BitstreamVeraSans-Roman-38"/>
      <use x="391.796875" xlink:href="#BitstreamVeraSans-Roman-2e"/>
      <use x="423.583984375" xlink:href="#BitstreamVeraSans-Roman-30"/>
      <use x="487.20703125" xlink:href="#BitstreamVeraSans-Roman-38"/>
      <use x="550.830078125" xlink:href="#BitstreamVeraSans-Roman-34"/>
      <use x="614.453125" xlink:href="#BitstreamVeraSans-Roman-25"/>
      <use x="709.47265625" xlink:href="#BitstreamVeraSans-Roman-29"/>
     </g>
    </g>
   </g>
   <g id="PathCollection_1">
    <defs>
     <path d="M 0 6.123724 
C 1.624031 6.123724 3.181764 5.47849 4.330127 4.330127 
C 5.47849 3.181764 6.123724 1.624031 6.123724 0 
C 6.123724 -1.624031 5.47849 -3.181764 4.330127 -4.330127 
C 3.181764 -5.47849 1.624031 -6.123724 0 -6.123724 
C -1.624031 -6.123724 -3.181764 -5.47849 -4.330127 -4.330127 
C -5.47849 -3.181764 -6.123724 -1.624031 -6.123724 0 
C -6.123724 1.624031 -5.47849 3.181764 -4.330127 4.330127 
C -3.181764 5.47849 -1.624031 6.123724 0 6.123724 
z
" id="m618c859331" style="stroke:#000000;stroke-width:0.3;"/>
    </defs>
    <g clip-path="url(#p435c812f07)">
     <use style="fill:#0a1e5c;stroke:#000000;stroke-width:0.3;" x="356.937035271" xlink:href="#m618c859331" y="254.921255681"/>
     <use style="fill:#0a1e5c;stroke:#000000;stroke-width:0.3;" x="352.653560633" xlink:href="#m618c859331" y="263.604181482"/>
     <use style="fill:#0a1e5c;stroke:#000000;stroke-width:0.3;" x="422.786226355" xlink:href="#m618c859331" y="269.940578613"/>
     <use style="fill:#0a1e5c;stroke:#000000;stroke-width:0.3;" x="633.247288279" xlink:href="#m618c859331" y="298.972010828"/>
     <use style="fill:#0a1e5c;stroke:#000000;stroke-width:0.3;" x="244.830379951" xlink:href="#m618c859331" y="565.996213823"/>
     <use style="fill:#0a1e5c;stroke:#000000;stroke-width:0.3;" x="447.898921467" xlink:href="#m618c859331" y="332.166600812"/>
     <use style="fill:#0a1e5c;stroke:#000000;stroke-width:0.3;" x="431.432768539" xlink:href="#m618c859331" y="158.36795234"/>
     <use style="fill:#0a1e5c;stroke:#000000;stroke-width:0.3;" x="192.34584788" xlink:href="#m618c859331" y="248.502383667"/>
     <use style="fill:#0a1e5c;stroke:#000000;stroke-width:0.3;" x="343.273124751" xlink:href="#m618c859331" y="447.999810886"/>
    </g>
   </g>
   <g id="PathCollection_2">
    <defs>
     <path d="M 0 6.123724 
C 1.624031 6.123724 3.181764 5.47849 4.330127 4.330127 
C 5.47849 3.181764 6.123724 1.624031 6.123724 0 
C 6.123724 -1.624031 5.47849 -3.181764 4.330127 -4.330127 
C 3.181764 -5.47849 1.624031 -6.123724 0 -6.123724 
C -1.624031 -6.123724 -3.181764 -5.47849 -4.330127 -4.330127 
C -5.47849 -3.181764 -6.123724 -1.624031 -6.123724 0 
C -6.123724 1.624031 -5.47849 3.181764 -4.330127 4.330127 
C -3.181764 5.47849 -1.624031 6.123724 0 6.123724 
z
" id="m4c4c6f3b65" style="stroke:#000000;stroke-width:0.3;"/>
    </defs>
    <g clip-path="url(#p435c812f07)">
     <use style="fill:#feffd6;stroke:#000000;stroke-width:0.3;" x="513.084147792" xlink:href="#m4c4c6f3b65" y="144.777368471"/>
     <use style="fill:#feffd6;stroke:#000000;stroke-width:0.3;" x="619.632607876" xlink:href="#m4c4c6f3b65" y="389.74963874"/>
     <use style="fill:#feffd6;stroke:#000000;stroke-width:0.3;" x="632.478241891" xlink:href="#m4c4c6f3b65" y="423.890671374"/>
     <use style="fill:#feffd6;stroke:#000000;stroke-width:0.3;" x="622.274586511" xlink:href="#m4c4c6f3b65" y="435.230360035"/>
     <use style="fill:#feffd6;stroke:#000000;stroke-width:0.3;" x="540.57223482" xlink:href="#m4c4c6f3b65" y="405.794360837"/>
     <use style="fill:#feffd6;stroke:#000000;stroke-width:0.3;" x="336.16516113" xlink:href="#m4c4c6f3b65" y="568.384612988"/>
     <use style="fill:#feffd6;stroke:#000000;stroke-width:0.3;" x="629.147580949" xlink:href="#m4c4c6f3b65" y="370.381760859"/>
     <use style="fill:#feffd6;stroke:#000000;stroke-width:0.3;" x="645.165916876" xlink:href="#m4c4c6f3b65" y="324.623636682"/>
     <use style="fill:#feffd6;stroke:#000000;stroke-width:0.3;" x="676.074369029" xlink:href="#m4c4c6f3b65" y="414.696601883"/>
    </g>
   </g>
   <g id="line2d_58">
    <path clip-path="url(#p435c812f07)" d="M 513.084148 144.777368 
L 428.178636 296.38859 
" style="fill:none;stroke:#feffd6;stroke-linecap:round;stroke-width:3.0;"/>
   </g>
   <g id="line2d_59">
    <path clip-path="url(#p435c812f07)" d="M 428.178636 296.38859 
L 343.273125 447.999811 
" style="fill:none;stroke:#0a1e5c;stroke-linecap:round;stroke-width:3.0;"/>
   </g>
   <g id="line2d_60">
    <path clip-path="url(#p435c812f07)" d="M 619.632608 389.749639 
L 533.765765 360.95812 
" style="fill:none;stroke:#feffd6;stroke-linecap:round;stroke-width:3.0;"/>
   </g>
   <g id="line2d_61">
    <path clip-path="url(#p435c812f07)" d="M 533.765765 360.95812 
L 447.898921 332.166601 
" style="fill:none;stroke:#0a1e5c;stroke-linecap:round;stroke-width:3.0;"/>
   </g>
   <g id="line2d_62">
    <path clip-path="url(#p435c812f07)" d="M 645.165917 324.623637 
L 501.051476 289.772446 
" style="fill:none;stroke:#feffd6;stroke-linecap:round;stroke-width:3.0;"/>
   </g>
   <g id="line2d_63">
    <path clip-path="url(#p435c812f07)" d="M 501.051476 289.772446 
L 356.937035 254.921256 
" style="fill:none;stroke:#0a1e5c;stroke-linecap:round;stroke-width:3.0;"/>
   </g>
   <g id="line2d_64">
    <path clip-path="url(#p435c812f07)" d="M 629.147581 370.381761 
L 490.900571 316.992971 
" style="fill:none;stroke:#feffd6;stroke-linecap:round;stroke-width:3.0;"/>
   </g>
   <g id="line2d_65">
    <path clip-path="url(#p435c812f07)" d="M 490.900571 316.992971 
L 352.653561 263.604181 
" style="fill:none;stroke:#0a1e5c;stroke-linecap:round;stroke-width:3.0;"/>
   </g>
   <g id="line2d_66">
    <path clip-path="url(#p435c812f07)" d="M 632.478242 423.890671 
L 531.955505 291.129312 
" style="fill:none;stroke:#feffd6;stroke-linecap:round;stroke-width:3.0;"/>
   </g>
   <g id="line2d_67">
    <path clip-path="url(#p435c812f07)" d="M 531.955505 291.129312 
L 431.432769 158.367952 
" style="fill:none;stroke:#0a1e5c;stroke-linecap:round;stroke-width:3.0;"/>
   </g>
   <g id="line2d_68">
    <path clip-path="url(#p435c812f07)" d="M 622.274587 435.23036 
L 407.310217 341.866372 
" style="fill:none;stroke:#feffd6;stroke-linecap:round;stroke-width:3.0;"/>
   </g>
   <g id="line2d_69">
    <path clip-path="url(#p435c812f07)" d="M 407.310217 341.866372 
L 192.345848 248.502384 
" style="fill:none;stroke:#0a1e5c;stroke-linecap:round;stroke-width:3.0;"/>
   </g>
   <g id="line2d_70">
    <path clip-path="url(#p435c812f07)" d="M 540.572235 405.794361 
L 481.679231 337.86747 
" style="fill:none;stroke:#feffd6;stroke-linecap:round;stroke-width:3.0;"/>
   </g>
   <g id="line2d_71">
    <path clip-path="url(#p435c812f07)" d="M 481.679231 337.86747 
L 422.786226 269.940579 
" style="fill:none;stroke:#0a1e5c;stroke-linecap:round;stroke-width:3.0;"/>
   </g>
   <g id="line2d_72">
    <path clip-path="url(#p435c812f07)" d="M 676.074369 414.696602 
L 654.660829 356.834306 
" style="fill:none;stroke:#feffd6;stroke-linecap:round;stroke-width:3.0;"/>
   </g>
   <g id="line2d_73">
    <path clip-path="url(#p435c812f07)" d="M 654.660829 356.834306 
L 633.247288 298.972011 
" style="fill:none;stroke:#0a1e5c;stroke-linecap:round;stroke-width:3.0;"/>
   </g>
   <g id="line2d_74">
    <path clip-path="url(#p435c812f07)" d="M 336.165161 568.384613 
L 290.497771 567.190413 
" style="fill:none;stroke:#feffd6;stroke-linecap:round;stroke-width:3.0;"/>
   </g>
   <g id="line2d_75">
    <path clip-path="url(#p435c812f07)" d="M 290.497771 567.190413 
L 244.83038 565.996214 
" style="fill:none;stroke:#0a1e5c;stroke-linecap:round;stroke-width:3.0;"/>
   </g>
   <g id="patch_3">
    <path d="M 108 630 
L 108 72 
" style="fill:none;"/>
   </g>
   <g id="patch_4">
    <path d="M 777.6 630 
L 777.6 72 
" style="fill:none;"/>
   </g>
   <g id="patch_5">
    <path d="M 108 630 
L 777.6 630 
" style="fill:none;"/>
   </g>
   <g id="patch_6">
    <path d="M 108 72 
L 777.6 72 
" style="fill:none;"/>
   </g>
   <g id="legend_1">
    <g id="PathCollection_3">
     <path d="M 604.021875 113.057318 
C 605.645906 113.057318 607.203639 112.412084 608.352002 111.263721 
C 609.500365 110.115358 610.145599 108.557624 610.145599 106.933594 
C 610.145599 105.309563 609.500365 103.75183 608.352002 102.603467 
C 607.203639 101.455104 605.645906 100.809869 604.021875 100.809869 
C 602.397844 100.809869 600.840111 101.455104 599.691748 102.603467 
C 598.543385 103.75183 597.898151 105.309563 597.898151 106.933594 
C 597.898151 108.557624 598.543385 110.115358 599.691748 111.263721 
C 600.840111 112.412084 602.397844 113.057318 604.021875 113.057318 
z
" style="fill:#0a1e5c;stroke:#000000;stroke-width:0.3;"/>
     <path d="M 604.021875 113.057318 
C 605.645906 113.057318 607.203639 112.412084 608.352002 111.263721 
C 609.500365 110.115358 610.145599 108.557624 610.145599 106.933594 
C 610.145599 105.309563 609.500365 103.75183 608.352002 102.603467 
C 607.203639 101.455104 605.645906 100.809869 604.021875 100.809869 
C 602.397844 100.809869 600.840111 101.455104 599.691748 102.603467 
C 598.543385 103.75183 597.898151 105.309563 597.898151 106.933594 
C 597.898151 108.557624 598.543385 110.115358 599.691748 111.263721 
C 600.840111 112.412084 602.397844 113.057318 604.021875 113.057318 
z
" style="fill:#0a1e5c;stroke:#000000;stroke-width:0.3;"/>
     <path d="M 604.021875 113.057318 
C 605.645906 113.057318 607.203639 112.412084 608.352002 111.263721 
C 609.500365 110.115358 610.145599 108.557624 610.145599 106.933594 
C 610.145599 105.309563 609.500365 103.75183 608.352002 102.603467 
C 607.203639 101.455104 605.645906 100.809869 604.021875 100.809869 
C 602.397844 100.809869 600.840111 101.455104 599.691748 102.603467 
C 598.543385 103.75183 597.898151 105.309563 597.898151 106.933594 
C 597.898151 108.557624 598.543385 110.115358 599.691748 111.263721 
C 600.840111 112.412084 602.397844 113.057318 604.021875 113.057318 
z
" style="fill:#0a1e5c;stroke:#000000;stroke-width:0.3;"/>
    </g>
    <g id="text_3">
     <!-- Summer -->
     <defs>
      <path d="M 53.515625 70.515625 
L 53.515625 60.890625 
Q 47.90625 63.578125 42.921875 64.890625 
Q 37.9375 66.21875 33.296875 66.21875 
Q 25.25 66.21875 20.875 63.09375 
Q 16.5 59.96875 16.5 54.203125 
Q 16.5 49.359375 19.40625 46.890625 
Q 22.3125 44.4375 30.421875 42.921875 
L 36.375 41.703125 
Q 47.40625 39.59375 52.65625 34.296875 
Q 57.90625 29 57.90625 20.125 
Q 57.90625 9.515625 50.796875 4.046875 
Q 43.703125 -1.421875 29.984375 -1.421875 
Q 24.8125 -1.421875 18.96875 -0.25 
Q 13.140625 0.921875 6.890625 3.21875 
L 6.890625 13.375 
Q 12.890625 10.015625 18.65625 8.296875 
Q 24.421875 6.59375 29.984375 6.59375 
Q 38.421875 6.59375 43.015625 9.90625 
Q 47.609375 13.234375 47.609375 19.390625 
Q 47.609375 24.75 44.3125 27.78125 
Q 41.015625 30.8125 33.5 32.328125 
L 27.484375 33.5 
Q 16.453125 35.6875 11.515625 40.375 
Q 6.59375 45.0625 6.59375 53.421875 
Q 6.59375 63.09375 13.40625 68.65625 
Q 20.21875 74.21875 32.171875 74.21875 
Q 37.3125 74.21875 42.625 73.28125 
Q 47.953125 72.359375 53.515625 70.515625 
" id="BitstreamVeraSans-Roman-53"/>
      <path d="M 56.203125 29.59375 
L 56.203125 25.203125 
L 14.890625 25.203125 
Q 15.484375 15.921875 20.484375 11.0625 
Q 25.484375 6.203125 34.421875 6.203125 
Q 39.59375 6.203125 44.453125 7.46875 
Q 49.3125 8.734375 54.109375 11.28125 
L 54.109375 2.78125 
Q 49.265625 0.734375 44.1875 -0.34375 
Q 39.109375 -1.421875 33.890625 -1.421875 
Q 20.796875 -1.421875 13.15625 6.1875 
Q 5.515625 13.8125 5.515625 26.8125 
Q 5.515625 40.234375 12.765625 48.109375 
Q 20.015625 56 32.328125 56 
Q 43.359375 56 49.78125 48.890625 
Q 56.203125 41.796875 56.203125 29.59375 
M 47.21875 32.234375 
Q 47.125 39.59375 43.09375 43.984375 
Q 39.0625 48.390625 32.421875 48.390625 
Q 24.90625 48.390625 20.390625 44.140625 
Q 15.875 39.890625 15.1875 32.171875 
z
" id="BitstreamVeraSans-Roman-65"/>
      <path d="M 8.5 21.578125 
L 8.5 54.6875 
L 17.484375 54.6875 
L 17.484375 21.921875 
Q 17.484375 14.15625 20.5 10.265625 
Q 23.53125 6.390625 29.59375 6.390625 
Q 36.859375 6.390625 41.078125 11.03125 
Q 45.3125 15.671875 45.3125 23.6875 
L 45.3125 54.6875 
L 54.296875 54.6875 
L 54.296875 0 
L 45.3125 0 
L 45.3125 8.40625 
Q 42.046875 3.421875 37.71875 1 
Q 33.40625 -1.421875 27.6875 -1.421875 
Q 18.265625 -1.421875 13.375 4.4375 
Q 8.5 10.296875 8.5 21.578125 
" id="BitstreamVeraSans-Roman-75"/>
      <path d="M 52 44.1875 
Q 55.375 50.25 60.0625 53.125 
Q 64.75 56 71.09375 56 
Q 79.640625 56 84.28125 50.015625 
Q 88.921875 44.046875 88.921875 33.015625 
L 88.921875 0 
L 79.890625 0 
L 79.890625 32.71875 
Q 79.890625 40.578125 77.09375 44.375 
Q 74.3125 48.1875 68.609375 48.1875 
Q 61.625 48.1875 57.5625 43.546875 
Q 53.515625 38.921875 53.515625 30.90625 
L 53.515625 0 
L 44.484375 0 
L 44.484375 32.71875 
Q 44.484375 40.625 41.703125 44.40625 
Q 38.921875 48.1875 33.109375 48.1875 
Q 26.21875 48.1875 22.15625 43.53125 
Q 18.109375 38.875 18.109375 30.90625 
L 18.109375 0 
L 9.078125 0 
L 9.078125 54.6875 
L 18.109375 54.6875 
L 18.109375 46.1875 
Q 21.1875 51.21875 25.484375 53.609375 
Q 29.78125 56 35.6875 56 
Q 41.65625 56 45.828125 52.96875 
Q 50 49.953125 52 44.1875 
" id="BitstreamVeraSans-Roman-6d"/>
      <path d="M 41.109375 46.296875 
Q 39.59375 47.171875 37.8125 47.578125 
Q 36.03125 48 33.890625 48 
Q 26.265625 48 22.1875 43.046875 
Q 18.109375 38.09375 18.109375 28.8125 
L 18.109375 0 
L 9.078125 0 
L 9.078125 54.6875 
L 18.109375 54.6875 
L 18.109375 46.1875 
Q 20.953125 51.171875 25.484375 53.578125 
Q 30.03125 56 36.53125 56 
Q 37.453125 56 38.578125 55.875 
Q 39.703125 55.765625 41.0625 55.515625 
z
" id="BitstreamVeraSans-Roman-72"/>
     </defs>
     <g style="fill:#262626;" transform="translate(649.021875 113.49609375)scale(0.25 -0.25)">
      <use xlink:href="#BitstreamVeraSans-Roman-53"/>
      <use x="63.4765625" xlink:href="#BitstreamVeraSans-Roman-75"/>
      <use x="126.85546875" xlink:href="#BitstreamVeraSans-Roman-6d"/>
      <use x="224.267578125" xlink:href="#BitstreamVeraSans-Roman-6d"/>
      <use x="321.6796875" xlink:href="#BitstreamVeraSans-Roman-65"/>
      <use x="383.203125" xlink:href="#BitstreamVeraSans-Roman-72"/>
     </g>
    </g>
    <g id="PathCollection_4">
     <path d="M 604.021875 149.752631 
C 605.645906 149.752631 607.203639 149.107396 608.352002 147.959033 
C 609.500365 146.81067 610.145599 145.252937 610.145599 143.628906 
C 610.145599 142.004876 609.500365 140.447142 608.352002 139.298779 
C 607.203639 138.150416 605.645906 137.505182 604.021875 137.505182 
C 602.397844 137.505182 600.840111 138.150416 599.691748 139.298779 
C 598.543385 140.447142 597.898151 142.004876 597.898151 143.628906 
C 597.898151 145.252937 598.543385 146.81067 599.691748 147.959033 
C 600.840111 149.107396 602.397844 149.752631 604.021875 149.752631 
z
" style="fill:#feffd6;stroke:#000000;stroke-width:0.3;"/>
     <path d="M 604.021875 149.752631 
C 605.645906 149.752631 607.203639 149.107396 608.352002 147.959033 
C 609.500365 146.81067 610.145599 145.252937 610.145599 143.628906 
C 610.145599 142.004876 609.500365 140.447142 608.352002 139.298779 
C 607.203639 138.150416 605.645906 137.505182 604.021875 137.505182 
C 602.397844 137.505182 600.840111 138.150416 599.691748 139.298779 
C 598.543385 140.447142 597.898151 142.004876 597.898151 143.628906 
C 597.898151 145.252937 598.543385 146.81067 599.691748 147.959033 
C 600.840111 149.107396 602.397844 149.752631 604.021875 149.752631 
z
" style="fill:#feffd6;stroke:#000000;stroke-width:0.3;"/>
     <path d="M 604.021875 149.752631 
C 605.645906 149.752631 607.203639 149.107396 608.352002 147.959033 
C 609.500365 146.81067 610.145599 145.252937 610.145599 143.628906 
C 610.145599 142.004876 609.500365 140.447142 608.352002 139.298779 
C 607.203639 138.150416 605.645906 137.505182 604.021875 137.505182 
C 602.397844 137.505182 600.840111 138.150416 599.691748 139.298779 
C 598.543385 140.447142 597.898151 142.004876 597.898151 143.628906 
C 597.898151 145.252937 598.543385 146.81067 599.691748 147.959033 
C 600.840111 149.107396 602.397844 149.752631 604.021875 149.752631 
z
" style="fill:#feffd6;stroke:#000000;stroke-width:0.3;"/>
    </g>
    <g id="text_4">
     <!-- Fall -->
     <defs>
      <path d="M 9.8125 72.90625 
L 51.703125 72.90625 
L 51.703125 64.59375 
L 19.671875 64.59375 
L 19.671875 43.109375 
L 48.578125 43.109375 
L 48.578125 34.8125 
L 19.671875 34.8125 
L 19.671875 0 
L 9.8125 0 
z
" id="BitstreamVeraSans-Roman-46"/>
      <path d="M 34.28125 27.484375 
Q 23.390625 27.484375 19.1875 25 
Q 14.984375 22.515625 14.984375 16.5 
Q 14.984375 11.71875 18.140625 8.90625 
Q 21.296875 6.109375 26.703125 6.109375 
Q 34.1875 6.109375 38.703125 11.40625 
Q 43.21875 16.703125 43.21875 25.484375 
L 43.21875 27.484375 
z
M 52.203125 31.203125 
L 52.203125 0 
L 43.21875 0 
L 43.21875 8.296875 
Q 40.140625 3.328125 35.546875 0.953125 
Q 30.953125 -1.421875 24.3125 -1.421875 
Q 15.921875 -1.421875 10.953125 3.296875 
Q 6 8.015625 6 15.921875 
Q 6 25.140625 12.171875 29.828125 
Q 18.359375 34.515625 30.609375 34.515625 
L 43.21875 34.515625 
L 43.21875 35.40625 
Q 43.21875 41.609375 39.140625 45 
Q 35.0625 48.390625 27.6875 48.390625 
Q 23 48.390625 18.546875 47.265625 
Q 14.109375 46.140625 10.015625 43.890625 
L 10.015625 52.203125 
Q 14.9375 54.109375 19.578125 55.046875 
Q 24.21875 56 28.609375 56 
Q 40.484375 56 46.34375 49.84375 
Q 52.203125 43.703125 52.203125 31.203125 
" id="BitstreamVeraSans-Roman-61"/>
      <path d="M 9.421875 75.984375 
L 18.40625 75.984375 
L 18.40625 0 
L 9.421875 0 
z
" id="BitstreamVeraSans-Roman-6c"/>
     </defs>
     <g style="fill:#262626;" transform="translate(649.021875 150.19140625)scale(0.25 -0.25)">
      <use xlink:href="#BitstreamVeraSans-Roman-46"/>
      <use x="57.37890625" xlink:href="#BitstreamVeraSans-Roman-61"/>
      <use x="118.658203125" xlink:href="#BitstreamVeraSans-Roman-6c"/>
      <use x="146.44140625" xlink:href="#BitstreamVeraSans-Roman-6c"/>
     </g>
    </g>
   </g>
  </g>
 </g>
 <defs>
  <clipPath id="p435c812f07">
   <rect height="558.0" width="669.6" x="108.0" y="72.0"/>
  </clipPath>
 </defs>
</svg>
