<?xml version="1.0" encoding="utf-8" standalone="no"?>
<!DOCTYPE svg PUBLIC "-//W3C//DTD SVG 1.1//EN"
  "http://www.w3.org/Graphics/SVG/1.1/DTD/svg11.dtd">
<!-- Created with matplotlib (http://matplotlib.org/) -->
<svg height="720pt" version="1.1" viewBox="0 0 864 720" width="864pt" xmlns="http://www.w3.org/2000/svg" xmlns:xlink="http://www.w3.org/1999/xlink">
 <defs>
  <style type="text/css">
*{stroke-linecap:butt;stroke-linejoin:round;stroke-miterlimit:100000;}
  </style>
 </defs>
 <g id="figure_1">
  <g id="patch_1">
   <path d="M 0 720 
L 864 720 
L 864 0 
L 0 0 
z
" style="fill:#ffffff;"/>
  </g>
  <g id="axes_1">
   <g id="patch_2">
    <path d="M 108 630 
L 777.6 630 
L 777.6 72 
L 108 72 
z
" style="fill:#eaeaf2;"/>
   </g>
   <g id="matplotlib.axis_1">
    <g id="xtick_1">
     <g id="line2d_1">
      <path clip-path="url(#pfc1f5367ff)" d="M 108 630 
L 108 72 
" style="fill:none;stroke:#ffffff;stroke-linecap:round;"/>
     </g>
     <g id="line2d_2">
      <defs>
       <path d="M 0 0 
L 0 0 
" id="m2f81985a64" style="stroke:#262626;"/>
      </defs>
      <g>
       <use style="fill:#262626;stroke:#262626;" x="108.0" xlink:href="#m2f81985a64" y="630.0"/>
      </g>
     </g>
     <g id="line2d_3">
      <g>
       <use style="fill:#262626;stroke:#262626;" x="108.0" xlink:href="#m2f81985a64" y="72.0"/>
      </g>
     </g>
    </g>
    <g id="xtick_2">
     <g id="line2d_4">
      <path clip-path="url(#pfc1f5367ff)" d="M 203.657143 630 
L 203.657143 72 
" style="fill:none;stroke:#ffffff;stroke-linecap:round;"/>
     </g>
     <g id="line2d_5">
      <g>
       <use style="fill:#262626;stroke:#262626;" x="203.657142857" xlink:href="#m2f81985a64" y="630.0"/>
      </g>
     </g>
     <g id="line2d_6">
      <g>
       <use style="fill:#262626;stroke:#262626;" x="203.657142857" xlink:href="#m2f81985a64" y="72.0"/>
      </g>
     </g>
    </g>
    <g id="xtick_3">
     <g id="line2d_7">
      <path clip-path="url(#pfc1f5367ff)" d="M 299.314286 630 
L 299.314286 72 
" style="fill:none;stroke:#ffffff;stroke-linecap:round;"/>
     </g>
     <g id="line2d_8">
      <g>
       <use style="fill:#262626;stroke:#262626;" x="299.314285714" xlink:href="#m2f81985a64" y="630.0"/>
      </g>
     </g>
     <g id="line2d_9">
      <g>
       <use style="fill:#262626;stroke:#262626;" x="299.314285714" xlink:href="#m2f81985a64" y="72.0"/>
      </g>
     </g>
    </g>
    <g id="xtick_4">
     <g id="line2d_10">
      <path clip-path="url(#pfc1f5367ff)" d="M 394.971429 630 
L 394.971429 72 
" style="fill:none;stroke:#ffffff;stroke-linecap:round;"/>
     </g>
     <g id="line2d_11">
      <g>
       <use style="fill:#262626;stroke:#262626;" x="394.971428571" xlink:href="#m2f81985a64" y="630.0"/>
      </g>
     </g>
     <g id="line2d_12">
      <g>
       <use style="fill:#262626;stroke:#262626;" x="394.971428571" xlink:href="#m2f81985a64" y="72.0"/>
      </g>
     </g>
    </g>
    <g id="xtick_5">
     <g id="line2d_13">
      <path clip-path="url(#pfc1f5367ff)" d="M 490.628571 630 
L 490.628571 72 
" style="fill:none;stroke:#ffffff;stroke-linecap:round;"/>
     </g>
     <g id="line2d_14">
      <g>
       <use style="fill:#262626;stroke:#262626;" x="490.628571429" xlink:href="#m2f81985a64" y="630.0"/>
      </g>
     </g>
     <g id="line2d_15">
      <g>
       <use style="fill:#262626;stroke:#262626;" x="490.628571429" xlink:href="#m2f81985a64" y="72.0"/>
      </g>
     </g>
    </g>
    <g id="xtick_6">
     <g id="line2d_16">
      <path clip-path="url(#pfc1f5367ff)" d="M 586.285714 630 
L 586.285714 72 
" style="fill:none;stroke:#ffffff;stroke-linecap:round;"/>
     </g>
     <g id="line2d_17">
      <g>
       <use style="fill:#262626;stroke:#262626;" x="586.285714286" xlink:href="#m2f81985a64" y="630.0"/>
      </g>
     </g>
     <g id="line2d_18">
      <g>
       <use style="fill:#262626;stroke:#262626;" x="586.285714286" xlink:href="#m2f81985a64" y="72.0"/>
      </g>
     </g>
    </g>
    <g id="xtick_7">
     <g id="line2d_19">
      <path clip-path="url(#pfc1f5367ff)" d="M 681.942857 630 
L 681.942857 72 
" style="fill:none;stroke:#ffffff;stroke-linecap:round;"/>
     </g>
     <g id="line2d_20">
      <g>
       <use style="fill:#262626;stroke:#262626;" x="681.942857143" xlink:href="#m2f81985a64" y="630.0"/>
      </g>
     </g>
     <g id="line2d_21">
      <g>
       <use style="fill:#262626;stroke:#262626;" x="681.942857143" xlink:href="#m2f81985a64" y="72.0"/>
      </g>
     </g>
    </g>
    <g id="xtick_8">
     <g id="line2d_22">
      <path clip-path="url(#pfc1f5367ff)" d="M 777.6 630 
L 777.6 72 
" style="fill:none;stroke:#ffffff;stroke-linecap:round;"/>
     </g>
     <g id="line2d_23">
      <g>
       <use style="fill:#262626;stroke:#262626;" x="777.6" xlink:href="#m2f81985a64" y="630.0"/>
      </g>
     </g>
     <g id="line2d_24">
      <g>
       <use style="fill:#262626;stroke:#262626;" x="777.6" xlink:href="#m2f81985a64" y="72.0"/>
      </g>
     </g>
    </g>
    <g id="text_1">
     <!-- PC1 (34.686%) -->
     <defs>
      <path d="M 72.703125 32.078125 
Q 68.453125 32.078125 66.03125 28.46875 
Q 63.625 24.859375 63.625 18.40625 
Q 63.625 12.0625 66.03125 8.421875 
Q 68.453125 4.78125 72.703125 4.78125 
Q 76.859375 4.78125 79.265625 8.421875 
Q 81.6875 12.0625 81.6875 18.40625 
Q 81.6875 24.8125 79.265625 28.4375 
Q 76.859375 32.078125 72.703125 32.078125 
M 72.703125 38.28125 
Q 80.421875 38.28125 84.953125 32.90625 
Q 89.5 27.546875 89.5 18.40625 
Q 89.5 9.28125 84.9375 3.921875 
Q 80.375 -1.421875 72.703125 -1.421875 
Q 64.890625 -1.421875 60.34375 3.921875 
Q 55.8125 9.28125 55.8125 18.40625 
Q 55.8125 27.59375 60.375 32.9375 
Q 64.9375 38.28125 72.703125 38.28125 
M 22.3125 68.015625 
Q 18.109375 68.015625 15.6875 64.375 
Q 13.28125 60.75 13.28125 54.390625 
Q 13.28125 47.953125 15.671875 44.328125 
Q 18.0625 40.71875 22.3125 40.71875 
Q 26.5625 40.71875 28.96875 44.328125 
Q 31.390625 47.953125 31.390625 54.390625 
Q 31.390625 60.6875 28.953125 64.34375 
Q 26.515625 68.015625 22.3125 68.015625 
M 66.40625 74.21875 
L 74.21875 74.21875 
L 28.609375 -1.421875 
L 20.796875 -1.421875 
z
M 22.3125 74.21875 
Q 30.03125 74.21875 34.609375 68.875 
Q 39.203125 63.53125 39.203125 54.390625 
Q 39.203125 45.171875 34.640625 39.84375 
Q 30.078125 34.515625 22.3125 34.515625 
Q 14.546875 34.515625 10.03125 39.859375 
Q 5.515625 45.21875 5.515625 54.390625 
Q 5.515625 63.484375 10.046875 68.84375 
Q 14.59375 74.21875 22.3125 74.21875 
" id="BitstreamVeraSans-Roman-25"/>
      <path d="M 40.578125 39.3125 
Q 47.65625 37.796875 51.625 33 
Q 55.609375 28.21875 55.609375 21.1875 
Q 55.609375 10.40625 48.1875 4.484375 
Q 40.765625 -1.421875 27.09375 -1.421875 
Q 22.515625 -1.421875 17.65625 -0.515625 
Q 12.796875 0.390625 7.625 2.203125 
L 7.625 11.71875 
Q 11.71875 9.328125 16.59375 8.109375 
Q 21.484375 6.890625 26.8125 6.890625 
Q 36.078125 6.890625 40.9375 10.546875 
Q 45.796875 14.203125 45.796875 21.1875 
Q 45.796875 27.640625 41.28125 31.265625 
Q 36.765625 34.90625 28.71875 34.90625 
L 20.21875 34.90625 
L 20.21875 43.015625 
L 29.109375 43.015625 
Q 36.375 43.015625 40.234375 45.921875 
Q 44.09375 48.828125 44.09375 54.296875 
Q 44.09375 59.90625 40.109375 62.90625 
Q 36.140625 65.921875 28.71875 65.921875 
Q 24.65625 65.921875 20.015625 65.03125 
Q 15.375 64.15625 9.8125 62.3125 
L 9.8125 71.09375 
Q 15.4375 72.65625 20.34375 73.4375 
Q 25.25 74.21875 29.59375 74.21875 
Q 40.828125 74.21875 47.359375 69.109375 
Q 53.90625 64.015625 53.90625 55.328125 
Q 53.90625 49.265625 50.4375 45.09375 
Q 46.96875 40.921875 40.578125 39.3125 
" id="BitstreamVeraSans-Roman-33"/>
      <path d="M 8.015625 75.875 
L 15.828125 75.875 
Q 23.140625 64.359375 26.78125 53.3125 
Q 30.421875 42.28125 30.421875 31.390625 
Q 30.421875 20.453125 26.78125 9.375 
Q 23.140625 -1.703125 15.828125 -13.1875 
L 8.015625 -13.1875 
Q 14.5 -2 17.703125 9.0625 
Q 20.90625 20.125 20.90625 31.390625 
Q 20.90625 42.671875 17.703125 53.65625 
Q 14.5 64.65625 8.015625 75.875 
" id="BitstreamVeraSans-Roman-29"/>
      <path id="BitstreamVeraSans-Roman-20"/>
      <path d="M 31.78125 34.625 
Q 24.75 34.625 20.71875 30.859375 
Q 16.703125 27.09375 16.703125 20.515625 
Q 16.703125 13.921875 20.71875 10.15625 
Q 24.75 6.390625 31.78125 6.390625 
Q 38.8125 6.390625 42.859375 10.171875 
Q 46.921875 13.96875 46.921875 20.515625 
Q 46.921875 27.09375 42.890625 30.859375 
Q 38.875 34.625 31.78125 34.625 
M 21.921875 38.8125 
Q 15.578125 40.375 12.03125 44.71875 
Q 8.5 49.078125 8.5 55.328125 
Q 8.5 64.0625 14.71875 69.140625 
Q 20.953125 74.21875 31.78125 74.21875 
Q 42.671875 74.21875 48.875 69.140625 
Q 55.078125 64.0625 55.078125 55.328125 
Q 55.078125 49.078125 51.53125 44.71875 
Q 48 40.375 41.703125 38.8125 
Q 48.828125 37.15625 52.796875 32.3125 
Q 56.78125 27.484375 56.78125 20.515625 
Q 56.78125 9.90625 50.3125 4.234375 
Q 43.84375 -1.421875 31.78125 -1.421875 
Q 19.734375 -1.421875 13.25 4.234375 
Q 6.78125 9.90625 6.78125 20.515625 
Q 6.78125 27.484375 10.78125 32.3125 
Q 14.796875 37.15625 21.921875 38.8125 
M 18.3125 54.390625 
Q 18.3125 48.734375 21.84375 45.5625 
Q 25.390625 42.390625 31.78125 42.390625 
Q 38.140625 42.390625 41.71875 45.5625 
Q 45.3125 48.734375 45.3125 54.390625 
Q 45.3125 60.0625 41.71875 63.234375 
Q 38.140625 66.40625 31.78125 66.40625 
Q 25.390625 66.40625 21.84375 63.234375 
Q 18.3125 60.0625 18.3125 54.390625 
" id="BitstreamVeraSans-Roman-38"/>
      <path d="M 12.40625 8.296875 
L 28.515625 8.296875 
L 28.515625 63.921875 
L 10.984375 60.40625 
L 10.984375 69.390625 
L 28.421875 72.90625 
L 38.28125 72.90625 
L 38.28125 8.296875 
L 54.390625 8.296875 
L 54.390625 0 
L 12.40625 0 
z
" id="BitstreamVeraSans-Roman-31"/>
      <path d="M 10.6875 12.40625 
L 21 12.40625 
L 21 0 
L 10.6875 0 
z
" id="BitstreamVeraSans-Roman-2e"/>
      <path d="M 33.015625 40.375 
Q 26.375 40.375 22.484375 35.828125 
Q 18.609375 31.296875 18.609375 23.390625 
Q 18.609375 15.53125 22.484375 10.953125 
Q 26.375 6.390625 33.015625 6.390625 
Q 39.65625 6.390625 43.53125 10.953125 
Q 47.40625 15.53125 47.40625 23.390625 
Q 47.40625 31.296875 43.53125 35.828125 
Q 39.65625 40.375 33.015625 40.375 
M 52.59375 71.296875 
L 52.59375 62.3125 
Q 48.875 64.0625 45.09375 64.984375 
Q 41.3125 65.921875 37.59375 65.921875 
Q 27.828125 65.921875 22.671875 59.328125 
Q 17.53125 52.734375 16.796875 39.40625 
Q 19.671875 43.65625 24.015625 45.921875 
Q 28.375 48.1875 33.59375 48.1875 
Q 44.578125 48.1875 50.953125 41.515625 
Q 57.328125 34.859375 57.328125 23.390625 
Q 57.328125 12.15625 50.6875 5.359375 
Q 44.046875 -1.421875 33.015625 -1.421875 
Q 20.359375 -1.421875 13.671875 8.265625 
Q 6.984375 17.96875 6.984375 36.375 
Q 6.984375 53.65625 15.1875 63.9375 
Q 23.390625 74.21875 37.203125 74.21875 
Q 40.921875 74.21875 44.703125 73.484375 
Q 48.484375 72.75 52.59375 71.296875 
" id="BitstreamVeraSans-Roman-36"/>
      <path d="M 37.796875 64.3125 
L 12.890625 25.390625 
L 37.796875 25.390625 
z
M 35.203125 72.90625 
L 47.609375 72.90625 
L 47.609375 25.390625 
L 58.015625 25.390625 
L 58.015625 17.1875 
L 47.609375 17.1875 
L 47.609375 0 
L 37.796875 0 
L 37.796875 17.1875 
L 4.890625 17.1875 
L 4.890625 26.703125 
z
" id="BitstreamVeraSans-Roman-34"/>
      <path d="M 31 75.875 
Q 24.46875 64.65625 21.28125 53.65625 
Q 18.109375 42.671875 18.109375 31.390625 
Q 18.109375 20.125 21.3125 9.0625 
Q 24.515625 -2 31 -13.1875 
L 23.1875 -13.1875 
Q 15.875 -1.703125 12.234375 9.375 
Q 8.59375 20.453125 8.59375 31.390625 
Q 8.59375 42.28125 12.203125 53.3125 
Q 15.828125 64.359375 23.1875 75.875 
z
" id="BitstreamVeraSans-Roman-28"/>
      <path d="M 64.40625 67.28125 
L 64.40625 56.890625 
Q 59.421875 61.53125 53.78125 63.8125 
Q 48.140625 66.109375 41.796875 66.109375 
Q 29.296875 66.109375 22.65625 58.46875 
Q 16.015625 50.828125 16.015625 36.375 
Q 16.015625 21.96875 22.65625 14.328125 
Q 29.296875 6.6875 41.796875 6.6875 
Q 48.140625 6.6875 53.78125 8.984375 
Q 59.421875 11.28125 64.40625 15.921875 
L 64.40625 5.609375 
Q 59.234375 2.09375 53.4375 0.328125 
Q 47.65625 -1.421875 41.21875 -1.421875 
Q 24.65625 -1.421875 15.125 8.703125 
Q 5.609375 18.84375 5.609375 36.375 
Q 5.609375 53.953125 15.125 64.078125 
Q 24.65625 74.21875 41.21875 74.21875 
Q 47.75 74.21875 53.53125 72.484375 
Q 59.328125 70.75 64.40625 67.28125 
" id="BitstreamVeraSans-Roman-43"/>
      <path d="M 19.671875 64.796875 
L 19.671875 37.40625 
L 32.078125 37.40625 
Q 38.96875 37.40625 42.71875 40.96875 
Q 46.484375 44.53125 46.484375 51.125 
Q 46.484375 57.671875 42.71875 61.234375 
Q 38.96875 64.796875 32.078125 64.796875 
z
M 9.8125 72.90625 
L 32.078125 72.90625 
Q 44.34375 72.90625 50.609375 67.359375 
Q 56.890625 61.8125 56.890625 51.125 
Q 56.890625 40.328125 50.609375 34.8125 
Q 44.34375 29.296875 32.078125 29.296875 
L 19.671875 29.296875 
L 19.671875 0 
L 9.8125 0 
z
" id="BitstreamVeraSans-Roman-50"/>
     </defs>
     <g style="fill:#262626;" transform="translate(339.883398437 655.895703125)scale(0.275 -0.275)">
      <use xlink:href="#BitstreamVeraSans-Roman-50"/>
      <use x="60.302734375" xlink:href="#BitstreamVeraSans-Roman-43"/>
      <use x="130.126953125" xlink:href="#BitstreamVeraSans-Roman-31"/>
      <use x="193.75" xlink:href="#BitstreamVeraSans-Roman-20"/>
      <use x="225.537109375" xlink:href="#BitstreamVeraSans-Roman-28"/>
      <use x="264.55078125" xlink:href="#BitstreamVeraSans-Roman-33"/>
      <use x="328.173828125" xlink:href="#BitstreamVeraSans-Roman-34"/>
      <use x="391.796875" xlink:href="#BitstreamVeraSans-Roman-2e"/>
      <use x="423.583984375" xlink:href="#BitstreamVeraSans-Roman-36"/>
      <use x="487.20703125" xlink:href="#BitstreamVeraSans-Roman-38"/>
      <use x="550.830078125" xlink:href="#BitstreamVeraSans-Roman-36"/>
      <use x="614.453125" xlink:href="#BitstreamVeraSans-Roman-25"/>
      <use x="709.47265625" xlink:href="#BitstreamVeraSans-Roman-29"/>
     </g>
    </g>
   </g>
   <g id="matplotlib.axis_2">
    <g id="ytick_1">
     <g id="line2d_25">
      <path clip-path="url(#pfc1f5367ff)" d="M 108 630 
L 777.6 630 
" style="fill:none;stroke:#ffffff;stroke-linecap:round;"/>
     </g>
     <g id="line2d_26">
      <g>
       <use style="fill:#262626;stroke:#262626;" x="108.0" xlink:href="#m2f81985a64" y="630.0"/>
      </g>
     </g>
     <g id="line2d_27">
      <g>
       <use style="fill:#262626;stroke:#262626;" x="777.6" xlink:href="#m2f81985a64" y="630.0"/>
      </g>
     </g>
    </g>
    <g id="ytick_2">
     <g id="line2d_28">
      <path clip-path="url(#pfc1f5367ff)" d="M 108 550.285714 
L 777.6 550.285714 
" style="fill:none;stroke:#ffffff;stroke-linecap:round;"/>
     </g>
     <g id="line2d_29">
      <g>
       <use style="fill:#262626;stroke:#262626;" x="108.0" xlink:href="#m2f81985a64" y="550.285714286"/>
      </g>
     </g>
     <g id="line2d_30">
      <g>
       <use style="fill:#262626;stroke:#262626;" x="777.6" xlink:href="#m2f81985a64" y="550.285714286"/>
      </g>
     </g>
    </g>
    <g id="ytick_3">
     <g id="line2d_31">
      <path clip-path="url(#pfc1f5367ff)" d="M 108 470.571429 
L 777.6 470.571429 
" style="fill:none;stroke:#ffffff;stroke-linecap:round;"/>
     </g>
     <g id="line2d_32">
      <g>
       <use style="fill:#262626;stroke:#262626;" x="108.0" xlink:href="#m2f81985a64" y="470.571428571"/>
      </g>
     </g>
     <g id="line2d_33">
      <g>
       <use style="fill:#262626;stroke:#262626;" x="777.6" xlink:href="#m2f81985a64" y="470.571428571"/>
      </g>
     </g>
    </g>
    <g id="ytick_4">
     <g id="line2d_34">
      <path clip-path="url(#pfc1f5367ff)" d="M 108 390.857143 
L 777.6 390.857143 
" style="fill:none;stroke:#ffffff;stroke-linecap:round;"/>
     </g>
     <g id="line2d_35">
      <g>
       <use style="fill:#262626;stroke:#262626;" x="108.0" xlink:href="#m2f81985a64" y="390.857142857"/>
      </g>
     </g>
     <g id="line2d_36">
      <g>
       <use style="fill:#262626;stroke:#262626;" x="777.6" xlink:href="#m2f81985a64" y="390.857142857"/>
      </g>
     </g>
    </g>
    <g id="ytick_5">
     <g id="line2d_37">
      <path clip-path="url(#pfc1f5367ff)" d="M 108 311.142857 
L 777.6 311.142857 
" style="fill:none;stroke:#ffffff;stroke-linecap:round;"/>
     </g>
     <g id="line2d_38">
      <g>
       <use style="fill:#262626;stroke:#262626;" x="108.0" xlink:href="#m2f81985a64" y="311.142857143"/>
      </g>
     </g>
     <g id="line2d_39">
      <g>
       <use style="fill:#262626;stroke:#262626;" x="777.6" xlink:href="#m2f81985a64" y="311.142857143"/>
      </g>
     </g>
    </g>
    <g id="ytick_6">
     <g id="line2d_40">
      <path clip-path="url(#pfc1f5367ff)" d="M 108 231.428571 
L 777.6 231.428571 
" style="fill:none;stroke:#ffffff;stroke-linecap:round;"/>
     </g>
     <g id="line2d_41">
      <g>
       <use style="fill:#262626;stroke:#262626;" x="108.0" xlink:href="#m2f81985a64" y="231.428571429"/>
      </g>
     </g>
     <g id="line2d_42">
      <g>
       <use style="fill:#262626;stroke:#262626;" x="777.6" xlink:href="#m2f81985a64" y="231.428571429"/>
      </g>
     </g>
    </g>
    <g id="ytick_7">
     <g id="line2d_43">
      <path clip-path="url(#pfc1f5367ff)" d="M 108 151.714286 
L 777.6 151.714286 
" style="fill:none;stroke:#ffffff;stroke-linecap:round;"/>
     </g>
     <g id="line2d_44">
      <g>
       <use style="fill:#262626;stroke:#262626;" x="108.0" xlink:href="#m2f81985a64" y="151.714285714"/>
      </g>
     </g>
     <g id="line2d_45">
      <g>
       <use style="fill:#262626;stroke:#262626;" x="777.6" xlink:href="#m2f81985a64" y="151.714285714"/>
      </g>
     </g>
    </g>
    <g id="ytick_8">
     <g id="line2d_46">
      <path clip-path="url(#pfc1f5367ff)" d="M 108 72 
L 777.6 72 
" style="fill:none;stroke:#ffffff;stroke-linecap:round;"/>
     </g>
     <g id="line2d_47">
      <g>
       <use style="fill:#262626;stroke:#262626;" x="108.0" xlink:href="#m2f81985a64" y="72.0"/>
      </g>
     </g>
     <g id="line2d_48">
      <g>
       <use style="fill:#262626;stroke:#262626;" x="777.6" xlink:href="#m2f81985a64" y="72.0"/>
      </g>
     </g>
    </g>
    <g id="text_2">
     <!-- PC2 (12.632%) -->
     <defs>
      <path d="M 19.1875 8.296875 
L 53.609375 8.296875 
L 53.609375 0 
L 7.328125 0 
L 7.328125 8.296875 
Q 12.9375 14.109375 22.625 23.890625 
Q 32.328125 33.6875 34.8125 36.53125 
Q 39.546875 41.84375 41.421875 45.53125 
Q 43.3125 49.21875 43.3125 52.78125 
Q 43.3125 58.59375 39.234375 62.25 
Q 35.15625 65.921875 28.609375 65.921875 
Q 23.96875 65.921875 18.8125 64.3125 
Q 13.671875 62.703125 7.8125 59.421875 
L 7.8125 69.390625 
Q 13.765625 71.78125 18.9375 73 
Q 24.125 74.21875 28.421875 74.21875 
Q 39.75 74.21875 46.484375 68.546875 
Q 53.21875 62.890625 53.21875 53.421875 
Q 53.21875 48.921875 51.53125 44.890625 
Q 49.859375 40.875 45.40625 35.40625 
Q 44.1875 33.984375 37.640625 27.21875 
Q 31.109375 20.453125 19.1875 8.296875 
" id="BitstreamVeraSans-Roman-32"/>
     </defs>
     <g style="fill:#262626;" transform="translate(97.280859375 453.916601562)rotate(-90.0)scale(0.275 -0.275)">
      <use xlink:href="#BitstreamVeraSans-Roman-50"/>
      <use x="60.302734375" xlink:href="#BitstreamVeraSans-Roman-43"/>
      <use x="130.126953125" xlink:href="#BitstreamVeraSans-Roman-32"/>
      <use x="193.75" xlink:href="#BitstreamVeraSans-Roman-20"/>
      <use x="225.537109375" xlink:href="#BitstreamVeraSans-Roman-28"/>
      <use x="264.55078125" xlink:href="#BitstreamVeraSans-Roman-31"/>
      <use x="328.173828125" xlink:href="#BitstreamVeraSans-Roman-32"/>
      <use x="391.796875" xlink:href="#BitstreamVeraSans-Roman-2e"/>
      <use x="423.583984375" xlink:href="#BitstreamVeraSans-Roman-36"/>
      <use x="487.20703125" xlink:href="#BitstreamVeraSans-Roman-33"/>
      <use x="550.830078125" xlink:href="#BitstreamVeraSans-Roman-32"/>
      <use x="614.453125" xlink:href="#BitstreamVeraSans-Roman-25"/>
      <use x="709.47265625" xlink:href="#BitstreamVeraSans-Roman-29"/>
     </g>
    </g>
   </g>
   <g id="PathCollection_1">
    <defs>
     <path d="M 0 7.071068 
C 1.875269 7.071068 3.673985 6.326016 5 5 
C 6.326016 3.673985 7.071068 1.875269 7.071068 0 
C 7.071068 -1.875269 6.326016 -3.673985 5 -5 
C 3.673985 -6.326016 1.875269 -7.071068 0 -7.071068 
C -1.875269 -7.071068 -3.673985 -6.326016 -5 -5 
C -6.326016 -3.673985 -7.071068 -1.875269 -7.071068 0 
C -7.071068 1.875269 -6.326016 3.673985 -5 5 
C -3.673985 6.326016 -1.875269 7.071068 0 7.071068 
z
" id="m49ec0babb8" style="stroke:#000000;stroke-width:0.3;"/>
    </defs>
    <g clip-path="url(#pfc1f5367ff)">
     <use style="fill:#0a1e5c;stroke:#000000;stroke-width:0.3;" x="421.987886575" xlink:href="#m49ec0babb8" y="538.924263265"/>
     <use style="fill:#0a1e5c;stroke:#000000;stroke-width:0.3;" x="274.850708604" xlink:href="#m49ec0babb8" y="288.063944336"/>
     <use style="fill:#0a1e5c;stroke:#000000;stroke-width:0.3;" x="214.036248711" xlink:href="#m49ec0babb8" y="427.633916328"/>
     <use style="fill:#0a1e5c;stroke:#000000;stroke-width:0.3;" x="387.161830008" xlink:href="#m49ec0babb8" y="169.063027792"/>
     <use style="fill:#0a1e5c;stroke:#000000;stroke-width:0.3;" x="223.729720922" xlink:href="#m49ec0babb8" y="445.357016681"/>
     <use style="fill:#0a1e5c;stroke:#000000;stroke-width:0.3;" x="255.973358962" xlink:href="#m49ec0babb8" y="515.413637825"/>
     <use style="fill:#0a1e5c;stroke:#000000;stroke-width:0.3;" x="203.769668819" xlink:href="#m49ec0babb8" y="408.284201525"/>
     <use style="fill:#0a1e5c;stroke:#000000;stroke-width:0.3;" x="201.549686799" xlink:href="#m49ec0babb8" y="517.19924783"/>
    </g>
   </g>
   <g id="PathCollection_2">
    <defs>
     <path d="M 0 7.071068 
C 1.875269 7.071068 3.673985 6.326016 5 5 
C 6.326016 3.673985 7.071068 1.875269 7.071068 0 
C 7.071068 -1.875269 6.326016 -3.673985 5 -5 
C 3.673985 -6.326016 1.875269 -7.071068 0 -7.071068 
C -1.875269 -7.071068 -3.673985 -6.326016 -5 -5 
C -6.326016 -3.673985 -7.071068 -1.875269 -7.071068 0 
C -7.071068 1.875269 -6.326016 3.673985 -5 5 
C -3.673985 6.326016 -1.875269 7.071068 0 7.071068 
z
" id="mdbf66f2eec" style="stroke:#000000;stroke-width:0.3;"/>
    </defs>
    <g clip-path="url(#pfc1f5367ff)">
     <use style="fill:#feffd6;stroke:#000000;stroke-width:0.3;" x="254.189682034" xlink:href="#mdbf66f2eec" y="285.94092343"/>
     <use style="fill:#feffd6;stroke:#000000;stroke-width:0.3;" x="204.853757886" xlink:href="#mdbf66f2eec" y="503.410931034"/>
     <use style="fill:#feffd6;stroke:#000000;stroke-width:0.3;" x="545.580826216" xlink:href="#mdbf66f2eec" y="195.153516204"/>
     <use style="fill:#feffd6;stroke:#000000;stroke-width:0.3;" x="249.963097351" xlink:href="#mdbf66f2eec" y="369.602876139"/>
     <use style="fill:#feffd6;stroke:#000000;stroke-width:0.3;" x="665.714550766" xlink:href="#mdbf66f2eec" y="522.163092747"/>
     <use style="fill:#feffd6;stroke:#000000;stroke-width:0.3;" x="169.012236046" xlink:href="#mdbf66f2eec" y="183.133075043"/>
     <use style="fill:#feffd6;stroke:#000000;stroke-width:0.3;" x="261.491320945" xlink:href="#mdbf66f2eec" y="475.812423506"/>
     <use style="fill:#feffd6;stroke:#000000;stroke-width:0.3;" x="174.84298954" xlink:href="#mdbf66f2eec" y="272.507013966"/>
    </g>
   </g>
   <g id="PathCollection_3">
    <defs>
     <path d="M 0 7.071068 
C 1.875269 7.071068 3.673985 6.326016 5 5 
C 6.326016 3.673985 7.071068 1.875269 7.071068 0 
C 7.071068 -1.875269 6.326016 -3.673985 5 -5 
C 3.673985 -6.326016 1.875269 -7.071068 0 -7.071068 
C -1.875269 -7.071068 -3.673985 -6.326016 -5 -5 
C -6.326016 -3.673985 -7.071068 -1.875269 -7.071068 0 
C -7.071068 1.875269 -6.326016 3.673985 -5 5 
C -3.673985 6.326016 -1.875269 7.071068 0 7.071068 
z
" id="md2d709ab09" style="stroke:#000000;stroke-width:0.3;"/>
    </defs>
    <g clip-path="url(#pfc1f5367ff)">
     <use style="fill:#3fb4c4;stroke:#000000;stroke-width:0.3;" x="264.409550821" xlink:href="#md2d709ab09" y="478.262730396"/>
     <use style="fill:#3fb4c4;stroke:#000000;stroke-width:0.3;" x="239.589243286" xlink:href="#md2d709ab09" y="373.79706987"/>
     <use style="fill:#3fb4c4;stroke:#000000;stroke-width:0.3;" x="223.16858352" xlink:href="#md2d709ab09" y="511.320483717"/>
     <use style="fill:#3fb4c4;stroke:#000000;stroke-width:0.3;" x="287.369228733" xlink:href="#md2d709ab09" y="280.313548984"/>
     <use style="fill:#3fb4c4;stroke:#000000;stroke-width:0.3;" x="290.707040051" xlink:href="#md2d709ab09" y="492.458758098"/>
     <use style="fill:#3fb4c4;stroke:#000000;stroke-width:0.3;" x="407.353696227" xlink:href="#md2d709ab09" y="149.630784232"/>
     <use style="fill:#3fb4c4;stroke:#000000;stroke-width:0.3;" x="226.192267148" xlink:href="#md2d709ab09" y="447.704120566"/>
     <use style="fill:#3fb4c4;stroke:#000000;stroke-width:0.3;" x="536.045677172" xlink:href="#md2d709ab09" y="529.420825057"/>
    </g>
   </g>
   <g id="line2d_49">
    <path clip-path="url(#pfc1f5367ff)" d="M 261.491321 475.812424 
L 258.73234 495.613031 
" style="fill:none;stroke:#feffd6;stroke-linecap:round;stroke-width:3.0;"/>
   </g>
   <g id="line2d_50">
    <path clip-path="url(#pfc1f5367ff)" d="M 258.73234 495.613031 
L 255.973359 515.413638 
" style="fill:none;stroke:#0a1e5c;stroke-linecap:round;stroke-width:3.0;"/>
   </g>
   <g id="line2d_51">
    <path clip-path="url(#pfc1f5367ff)" d="M 254.189682 285.940923 
L 264.520195 287.002434 
" style="fill:none;stroke:#feffd6;stroke-linecap:round;stroke-width:3.0;"/>
   </g>
   <g id="line2d_52">
    <path clip-path="url(#pfc1f5367ff)" d="M 264.520195 287.002434 
L 274.850709 288.063944 
" style="fill:none;stroke:#0a1e5c;stroke-linecap:round;stroke-width:3.0;"/>
   </g>
   <g id="line2d_53">
    <path clip-path="url(#pfc1f5367ff)" d="M 174.84299 272.507014 
L 199.286355 358.932015 
" style="fill:none;stroke:#feffd6;stroke-linecap:round;stroke-width:3.0;"/>
   </g>
   <g id="line2d_54">
    <path clip-path="url(#pfc1f5367ff)" d="M 199.286355 358.932015 
L 223.729721 445.357017 
" style="fill:none;stroke:#0a1e5c;stroke-linecap:round;stroke-width:3.0;"/>
   </g>
   <g id="line2d_55">
    <path clip-path="url(#pfc1f5367ff)" d="M 204.853758 503.410931 
L 204.311713 455.847566 
" style="fill:none;stroke:#feffd6;stroke-linecap:round;stroke-width:3.0;"/>
   </g>
   <g id="line2d_56">
    <path clip-path="url(#pfc1f5367ff)" d="M 204.311713 455.847566 
L 203.769669 408.284202 
" style="fill:none;stroke:#0a1e5c;stroke-linecap:round;stroke-width:3.0;"/>
   </g>
   <g id="line2d_57">
    <path clip-path="url(#pfc1f5367ff)" d="M 169.012236 183.133075 
L 185.280961 350.166161 
" style="fill:none;stroke:#feffd6;stroke-linecap:round;stroke-width:3.0;"/>
   </g>
   <g id="line2d_58">
    <path clip-path="url(#pfc1f5367ff)" d="M 185.280961 350.166161 
L 201.549687 517.199248 
" style="fill:none;stroke:#0a1e5c;stroke-linecap:round;stroke-width:3.0;"/>
   </g>
   <g id="line2d_59">
    <path clip-path="url(#pfc1f5367ff)" d="M 545.580826 195.153516 
L 466.371328 182.108272 
" style="fill:none;stroke:#feffd6;stroke-linecap:round;stroke-width:3.0;"/>
   </g>
   <g id="line2d_60">
    <path clip-path="url(#pfc1f5367ff)" d="M 466.371328 182.108272 
L 387.16183 169.063028 
" style="fill:none;stroke:#0a1e5c;stroke-linecap:round;stroke-width:3.0;"/>
   </g>
   <g id="line2d_61">
    <path clip-path="url(#pfc1f5367ff)" d="M 665.714551 522.163093 
L 543.851219 530.543678 
" style="fill:none;stroke:#feffd6;stroke-linecap:round;stroke-width:3.0;"/>
   </g>
   <g id="line2d_62">
    <path clip-path="url(#pfc1f5367ff)" d="M 543.851219 530.543678 
L 421.987887 538.924263 
" style="fill:none;stroke:#0a1e5c;stroke-linecap:round;stroke-width:3.0;"/>
   </g>
   <g id="line2d_63">
    <path clip-path="url(#pfc1f5367ff)" d="M 249.963097 369.602876 
L 231.999673 398.618396 
" style="fill:none;stroke:#feffd6;stroke-linecap:round;stroke-width:3.0;"/>
   </g>
   <g id="line2d_64">
    <path clip-path="url(#pfc1f5367ff)" d="M 231.999673 398.618396 
L 214.036249 427.633916 
" style="fill:none;stroke:#0a1e5c;stroke-linecap:round;stroke-width:3.0;"/>
   </g>
   <g id="line2d_65">
    <path clip-path="url(#pfc1f5367ff)" d="M 264.409551 478.26273 
L 260.191455 496.838184 
" style="fill:none;stroke:#3fb4c4;stroke-linecap:round;stroke-width:3.0;"/>
   </g>
   <g id="line2d_66">
    <path clip-path="url(#pfc1f5367ff)" d="M 260.191455 496.838184 
L 255.973359 515.413638 
" style="fill:none;stroke:#0a1e5c;stroke-linecap:round;stroke-width:3.0;"/>
   </g>
   <g id="line2d_67">
    <path clip-path="url(#pfc1f5367ff)" d="M 287.369229 280.313549 
L 281.109969 284.188747 
" style="fill:none;stroke:#3fb4c4;stroke-linecap:round;stroke-width:3.0;"/>
   </g>
   <g id="line2d_68">
    <path clip-path="url(#pfc1f5367ff)" d="M 281.109969 284.188747 
L 274.850709 288.063944 
" style="fill:none;stroke:#0a1e5c;stroke-linecap:round;stroke-width:3.0;"/>
   </g>
   <g id="line2d_69">
    <path clip-path="url(#pfc1f5367ff)" d="M 239.589243 373.79707 
L 231.659482 409.577043 
" style="fill:none;stroke:#3fb4c4;stroke-linecap:round;stroke-width:3.0;"/>
   </g>
   <g id="line2d_70">
    <path clip-path="url(#pfc1f5367ff)" d="M 231.659482 409.577043 
L 223.729721 445.357017 
" style="fill:none;stroke:#0a1e5c;stroke-linecap:round;stroke-width:3.0;"/>
   </g>
   <g id="line2d_71">
    <path clip-path="url(#pfc1f5367ff)" d="M 223.168584 511.320484 
L 213.469126 459.802343 
" style="fill:none;stroke:#3fb4c4;stroke-linecap:round;stroke-width:3.0;"/>
   </g>
   <g id="line2d_72">
    <path clip-path="url(#pfc1f5367ff)" d="M 213.469126 459.802343 
L 203.769669 408.284202 
" style="fill:none;stroke:#0a1e5c;stroke-linecap:round;stroke-width:3.0;"/>
   </g>
   <g id="line2d_73">
    <path clip-path="url(#pfc1f5367ff)" d="M 290.70704 492.458758 
L 246.128363 504.829003 
" style="fill:none;stroke:#3fb4c4;stroke-linecap:round;stroke-width:3.0;"/>
   </g>
   <g id="line2d_74">
    <path clip-path="url(#pfc1f5367ff)" d="M 246.128363 504.829003 
L 201.549687 517.199248 
" style="fill:none;stroke:#0a1e5c;stroke-linecap:round;stroke-width:3.0;"/>
   </g>
   <g id="line2d_75">
    <path clip-path="url(#pfc1f5367ff)" d="M 407.353696 149.630784 
L 397.257763 159.346906 
" style="fill:none;stroke:#3fb4c4;stroke-linecap:round;stroke-width:3.0;"/>
   </g>
   <g id="line2d_76">
    <path clip-path="url(#pfc1f5367ff)" d="M 397.257763 159.346906 
L 387.16183 169.063028 
" style="fill:none;stroke:#0a1e5c;stroke-linecap:round;stroke-width:3.0;"/>
   </g>
   <g id="line2d_77">
    <path clip-path="url(#pfc1f5367ff)" d="M 536.045677 529.420825 
L 479.016782 534.172544 
" style="fill:none;stroke:#3fb4c4;stroke-linecap:round;stroke-width:3.0;"/>
   </g>
   <g id="line2d_78">
    <path clip-path="url(#pfc1f5367ff)" d="M 479.016782 534.172544 
L 421.987887 538.924263 
" style="fill:none;stroke:#0a1e5c;stroke-linecap:round;stroke-width:3.0;"/>
   </g>
   <g id="line2d_79">
    <path clip-path="url(#pfc1f5367ff)" d="M 226.192267 447.704121 
L 220.114258 437.669018 
" style="fill:none;stroke:#3fb4c4;stroke-linecap:round;stroke-width:3.0;"/>
   </g>
   <g id="line2d_80">
    <path clip-path="url(#pfc1f5367ff)" d="M 220.114258 437.669018 
L 214.036249 427.633916 
" style="fill:none;stroke:#0a1e5c;stroke-linecap:round;stroke-width:3.0;"/>
   </g>
   <g id="line2d_81">
    <path clip-path="url(#pfc1f5367ff)" d="M 264.409551 478.26273 
L 262.950436 477.037577 
" style="fill:none;stroke:#3fb4c4;stroke-linecap:round;stroke-width:3.0;"/>
   </g>
   <g id="line2d_82">
    <path clip-path="url(#pfc1f5367ff)" d="M 262.950436 477.037577 
L 261.491321 475.812424 
" style="fill:none;stroke:#feffd6;stroke-linecap:round;stroke-width:3.0;"/>
   </g>
   <g id="line2d_83">
    <path clip-path="url(#pfc1f5367ff)" d="M 287.369229 280.313549 
L 270.779455 283.127236 
" style="fill:none;stroke:#3fb4c4;stroke-linecap:round;stroke-width:3.0;"/>
   </g>
   <g id="line2d_84">
    <path clip-path="url(#pfc1f5367ff)" d="M 270.779455 283.127236 
L 254.189682 285.940923 
" style="fill:none;stroke:#feffd6;stroke-linecap:round;stroke-width:3.0;"/>
   </g>
   <g id="line2d_85">
    <path clip-path="url(#pfc1f5367ff)" d="M 239.589243 373.79707 
L 207.216116 323.152042 
" style="fill:none;stroke:#3fb4c4;stroke-linecap:round;stroke-width:3.0;"/>
   </g>
   <g id="line2d_86">
    <path clip-path="url(#pfc1f5367ff)" d="M 207.216116 323.152042 
L 174.84299 272.507014 
" style="fill:none;stroke:#feffd6;stroke-linecap:round;stroke-width:3.0;"/>
   </g>
   <g id="line2d_87">
    <path clip-path="url(#pfc1f5367ff)" d="M 223.168584 511.320484 
L 214.011171 507.365707 
" style="fill:none;stroke:#3fb4c4;stroke-linecap:round;stroke-width:3.0;"/>
   </g>
   <g id="line2d_88">
    <path clip-path="url(#pfc1f5367ff)" d="M 214.011171 507.365707 
L 204.853758 503.410931 
" style="fill:none;stroke:#feffd6;stroke-linecap:round;stroke-width:3.0;"/>
   </g>
   <g id="line2d_89">
    <path clip-path="url(#pfc1f5367ff)" d="M 290.70704 492.458758 
L 229.859638 337.795917 
" style="fill:none;stroke:#3fb4c4;stroke-linecap:round;stroke-width:3.0;"/>
   </g>
   <g id="line2d_90">
    <path clip-path="url(#pfc1f5367ff)" d="M 229.859638 337.795917 
L 169.012236 183.133075 
" style="fill:none;stroke:#feffd6;stroke-linecap:round;stroke-width:3.0;"/>
   </g>
   <g id="line2d_91">
    <path clip-path="url(#pfc1f5367ff)" d="M 407.353696 149.630784 
L 476.467261 172.39215 
" style="fill:none;stroke:#3fb4c4;stroke-linecap:round;stroke-width:3.0;"/>
   </g>
   <g id="line2d_92">
    <path clip-path="url(#pfc1f5367ff)" d="M 476.467261 172.39215 
L 545.580826 195.153516 
" style="fill:none;stroke:#feffd6;stroke-linecap:round;stroke-width:3.0;"/>
   </g>
   <g id="line2d_93">
    <path clip-path="url(#pfc1f5367ff)" d="M 536.045677 529.420825 
L 600.880114 525.791959 
" style="fill:none;stroke:#3fb4c4;stroke-linecap:round;stroke-width:3.0;"/>
   </g>
   <g id="line2d_94">
    <path clip-path="url(#pfc1f5367ff)" d="M 600.880114 525.791959 
L 665.714551 522.163093 
" style="fill:none;stroke:#feffd6;stroke-linecap:round;stroke-width:3.0;"/>
   </g>
   <g id="line2d_95">
    <path clip-path="url(#pfc1f5367ff)" d="M 226.192267 447.704121 
L 238.077682 408.653498 
" style="fill:none;stroke:#3fb4c4;stroke-linecap:round;stroke-width:3.0;"/>
   </g>
   <g id="line2d_96">
    <path clip-path="url(#pfc1f5367ff)" d="M 238.077682 408.653498 
L 249.963097 369.602876 
" style="fill:none;stroke:#feffd6;stroke-linecap:round;stroke-width:3.0;"/>
   </g>
   <g id="patch_3">
    <path d="M 108 630 
L 108 72 
" style="fill:none;"/>
   </g>
   <g id="patch_4">
    <path d="M 777.6 630 
L 777.6 72 
" style="fill:none;"/>
   </g>
   <g id="patch_5">
    <path d="M 108 630 
L 777.6 630 
" style="fill:none;"/>
   </g>
   <g id="patch_6">
    <path d="M 108 72 
L 777.6 72 
" style="fill:none;"/>
   </g>
   <g id="legend_1">
    <g id="PathCollection_4">
     <path d="M 637.205469 114.004662 
C 639.080738 114.004662 640.879453 113.259609 642.205469 111.933594 
C 643.531484 110.607578 644.276537 108.808863 644.276537 106.933594 
C 644.276537 105.058325 643.531484 103.259609 642.205469 101.933594 
C 640.879453 100.607578 639.080738 99.862526 637.205469 99.862526 
C 635.3302 99.862526 633.531484 100.607578 632.205469 101.933594 
C 630.879453 103.259609 630.134401 105.058325 630.134401 106.933594 
C 630.134401 108.808863 630.879453 110.607578 632.205469 111.933594 
C 633.531484 113.259609 635.3302 114.004662 637.205469 114.004662 
z
" style="fill:#0a1e5c;stroke:#000000;stroke-width:0.3;"/>
     <path d="M 637.205469 114.004662 
C 639.080738 114.004662 640.879453 113.259609 642.205469 111.933594 
C 643.531484 110.607578 644.276537 108.808863 644.276537 106.933594 
C 644.276537 105.058325 643.531484 103.259609 642.205469 101.933594 
C 640.879453 100.607578 639.080738 99.862526 637.205469 99.862526 
C 635.3302 99.862526 633.531484 100.607578 632.205469 101.933594 
C 630.879453 103.259609 630.134401 105.058325 630.134401 106.933594 
C 630.134401 108.808863 630.879453 110.607578 632.205469 111.933594 
C 633.531484 113.259609 635.3302 114.004662 637.205469 114.004662 
z
" style="fill:#0a1e5c;stroke:#000000;stroke-width:0.3;"/>
     <path d="M 637.205469 114.004662 
C 639.080738 114.004662 640.879453 113.259609 642.205469 111.933594 
C 643.531484 110.607578 644.276537 108.808863 644.276537 106.933594 
C 644.276537 105.058325 643.531484 103.259609 642.205469 101.933594 
C 640.879453 100.607578 639.080738 99.862526 637.205469 99.862526 
C 635.3302 99.862526 633.531484 100.607578 632.205469 101.933594 
C 630.879453 103.259609 630.134401 105.058325 630.134401 106.933594 
C 630.134401 108.808863 630.879453 110.607578 632.205469 111.933594 
C 633.531484 113.259609 635.3302 114.004662 637.205469 114.004662 
z
" style="fill:#0a1e5c;stroke:#000000;stroke-width:0.3;"/>
    </g>
    <g id="text_3">
     <!-- Run 1 -->
     <defs>
      <path d="M 44.390625 34.1875 
Q 47.5625 33.109375 50.5625 29.59375 
Q 53.5625 26.078125 56.59375 19.921875 
L 66.609375 0 
L 56 0 
L 46.6875 18.703125 
Q 43.0625 26.03125 39.671875 28.421875 
Q 36.28125 30.8125 30.421875 30.8125 
L 19.671875 30.8125 
L 19.671875 0 
L 9.8125 0 
L 9.8125 72.90625 
L 32.078125 72.90625 
Q 44.578125 72.90625 50.734375 67.671875 
Q 56.890625 62.453125 56.890625 51.90625 
Q 56.890625 45.015625 53.6875 40.46875 
Q 50.484375 35.9375 44.390625 34.1875 
M 19.671875 64.796875 
L 19.671875 38.921875 
L 32.078125 38.921875 
Q 39.203125 38.921875 42.84375 42.21875 
Q 46.484375 45.515625 46.484375 51.90625 
Q 46.484375 58.296875 42.84375 61.546875 
Q 39.203125 64.796875 32.078125 64.796875 
z
" id="BitstreamVeraSans-Roman-52"/>
      <path d="M 8.5 21.578125 
L 8.5 54.6875 
L 17.484375 54.6875 
L 17.484375 21.921875 
Q 17.484375 14.15625 20.5 10.265625 
Q 23.53125 6.390625 29.59375 6.390625 
Q 36.859375 6.390625 41.078125 11.03125 
Q 45.3125 15.671875 45.3125 23.6875 
L 45.3125 54.6875 
L 54.296875 54.6875 
L 54.296875 0 
L 45.3125 0 
L 45.3125 8.40625 
Q 42.046875 3.421875 37.71875 1 
Q 33.40625 -1.421875 27.6875 -1.421875 
Q 18.265625 -1.421875 13.375 4.4375 
Q 8.5 10.296875 8.5 21.578125 
" id="BitstreamVeraSans-Roman-75"/>
      <path d="M 54.890625 33.015625 
L 54.890625 0 
L 45.90625 0 
L 45.90625 32.71875 
Q 45.90625 40.484375 42.875 44.328125 
Q 39.84375 48.1875 33.796875 48.1875 
Q 26.515625 48.1875 22.3125 43.546875 
Q 18.109375 38.921875 18.109375 30.90625 
L 18.109375 0 
L 9.078125 0 
L 9.078125 54.6875 
L 18.109375 54.6875 
L 18.109375 46.1875 
Q 21.34375 51.125 25.703125 53.5625 
Q 30.078125 56 35.796875 56 
Q 45.21875 56 50.046875 50.171875 
Q 54.890625 44.34375 54.890625 33.015625 
" id="BitstreamVeraSans-Roman-6e"/>
     </defs>
     <g style="fill:#262626;" transform="translate(682.20546875 113.49609375)scale(0.25 -0.25)">
      <use xlink:href="#BitstreamVeraSans-Roman-52"/>
      <use x="69.419921875" xlink:href="#BitstreamVeraSans-Roman-75"/>
      <use x="132.798828125" xlink:href="#BitstreamVeraSans-Roman-6e"/>
      <use x="196.177734375" xlink:href="#BitstreamVeraSans-Roman-20"/>
      <use x="227.96484375" xlink:href="#BitstreamVeraSans-Roman-31"/>
     </g>
    </g>
    <g id="PathCollection_5">
     <path d="M 637.205469 150.699974 
C 639.080738 150.699974 640.879453 149.954922 642.205469 148.628906 
C 643.531484 147.302891 644.276537 145.504175 644.276537 143.628906 
C 644.276537 141.753637 643.531484 139.954922 642.205469 138.628906 
C 640.879453 137.302891 639.080738 136.557838 637.205469 136.557838 
C 635.3302 136.557838 633.531484 137.302891 632.205469 138.628906 
C 630.879453 139.954922 630.134401 141.753637 630.134401 143.628906 
C 630.134401 145.504175 630.879453 147.302891 632.205469 148.628906 
C 633.531484 149.954922 635.3302 150.699974 637.205469 150.699974 
z
" style="fill:#feffd6;stroke:#000000;stroke-width:0.3;"/>
     <path d="M 637.205469 150.699974 
C 639.080738 150.699974 640.879453 149.954922 642.205469 148.628906 
C 643.531484 147.302891 644.276537 145.504175 644.276537 143.628906 
C 644.276537 141.753637 643.531484 139.954922 642.205469 138.628906 
C 640.879453 137.302891 639.080738 136.557838 637.205469 136.557838 
C 635.3302 136.557838 633.531484 137.302891 632.205469 138.628906 
C 630.879453 139.954922 630.134401 141.753637 630.134401 143.628906 
C 630.134401 145.504175 630.879453 147.302891 632.205469 148.628906 
C 633.531484 149.954922 635.3302 150.699974 637.205469 150.699974 
z
" style="fill:#feffd6;stroke:#000000;stroke-width:0.3;"/>
     <path d="M 637.205469 150.699974 
C 639.080738 150.699974 640.879453 149.954922 642.205469 148.628906 
C 643.531484 147.302891 644.276537 145.504175 644.276537 143.628906 
C 644.276537 141.753637 643.531484 139.954922 642.205469 138.628906 
C 640.879453 137.302891 639.080738 136.557838 637.205469 136.557838 
C 635.3302 136.557838 633.531484 137.302891 632.205469 138.628906 
C 630.879453 139.954922 630.134401 141.753637 630.134401 143.628906 
C 630.134401 145.504175 630.879453 147.302891 632.205469 148.628906 
C 633.531484 149.954922 635.3302 150.699974 637.205469 150.699974 
z
" style="fill:#feffd6;stroke:#000000;stroke-width:0.3;"/>
    </g>
    <g id="text_4">
     <!-- Run 3 -->
     <g style="fill:#262626;" transform="translate(682.20546875 150.19140625)scale(0.25 -0.25)">
      <use xlink:href="#BitstreamVeraSans-Roman-52"/>
      <use x="69.419921875" xlink:href="#BitstreamVeraSans-Roman-75"/>
      <use x="132.798828125" xlink:href="#BitstreamVeraSans-Roman-6e"/>
      <use x="196.177734375" xlink:href="#BitstreamVeraSans-Roman-20"/>
      <use x="227.96484375" xlink:href="#BitstreamVeraSans-Roman-33"/>
     </g>
    </g>
    <g id="PathCollection_6">
     <path d="M 637.205469 187.395287 
C 639.080738 187.395287 640.879453 186.650234 642.205469 185.324219 
C 643.531484 183.998203 644.276537 182.199488 644.276537 180.324219 
C 644.276537 178.44895 643.531484 176.650234 642.205469 175.324219 
C 640.879453 173.998203 639.080738 173.253151 637.205469 173.253151 
C 635.3302 173.253151 633.531484 173.998203 632.205469 175.324219 
C 630.879453 176.650234 630.134401 178.44895 630.134401 180.324219 
C 630.134401 182.199488 630.879453 183.998203 632.205469 185.324219 
C 633.531484 186.650234 635.3302 187.395287 637.205469 187.395287 
z
" style="fill:#3fb4c4;stroke:#000000;stroke-width:0.3;"/>
     <path d="M 637.205469 187.395287 
C 639.080738 187.395287 640.879453 186.650234 642.205469 185.324219 
C 643.531484 183.998203 644.276537 182.199488 644.276537 180.324219 
C 644.276537 178.44895 643.531484 176.650234 642.205469 175.324219 
C 640.879453 173.998203 639.080738 173.253151 637.205469 173.253151 
C 635.3302 173.253151 633.531484 173.998203 632.205469 175.324219 
C 630.879453 176.650234 630.134401 178.44895 630.134401 180.324219 
C 630.134401 182.199488 630.879453 183.998203 632.205469 185.324219 
C 633.531484 186.650234 635.3302 187.395287 637.205469 187.395287 
z
" style="fill:#3fb4c4;stroke:#000000;stroke-width:0.3;"/>
     <path d="M 637.205469 187.395287 
C 639.080738 187.395287 640.879453 186.650234 642.205469 185.324219 
C 643.531484 183.998203 644.276537 182.199488 644.276537 180.324219 
C 644.276537 178.44895 643.531484 176.650234 642.205469 175.324219 
C 640.879453 173.998203 639.080738 173.253151 637.205469 173.253151 
C 635.3302 173.253151 633.531484 173.998203 632.205469 175.324219 
C 630.879453 176.650234 630.134401 178.44895 630.134401 180.324219 
C 630.134401 182.199488 630.879453 183.998203 632.205469 185.324219 
C 633.531484 186.650234 635.3302 187.395287 637.205469 187.395287 
z
" style="fill:#3fb4c4;stroke:#000000;stroke-width:0.3;"/>
    </g>
    <g id="text_5">
     <!-- Run 4 -->
     <g style="fill:#262626;" transform="translate(682.20546875 186.88671875)scale(0.25 -0.25)">
      <use xlink:href="#BitstreamVeraSans-Roman-52"/>
      <use x="69.419921875" xlink:href="#BitstreamVeraSans-Roman-75"/>
      <use x="132.798828125" xlink:href="#BitstreamVeraSans-Roman-6e"/>
      <use x="196.177734375" xlink:href="#BitstreamVeraSans-Roman-20"/>
      <use x="227.96484375" xlink:href="#BitstreamVeraSans-Roman-34"/>
     </g>
    </g>
   </g>
  </g>
 </g>
 <defs>
  <clipPath id="pfc1f5367ff">
   <rect height="558.0" width="669.6" x="108.0" y="72.0"/>
  </clipPath>
 </defs>
</svg>
