<?xml version="1.0" encoding="utf-8" standalone="no"?>
<!DOCTYPE svg PUBLIC "-//W3C//DTD SVG 1.1//EN"
  "http://www.w3.org/Graphics/SVG/1.1/DTD/svg11.dtd">
<!-- Created with matplotlib (http://matplotlib.org/) -->
<svg height="576pt" version="1.1" viewBox="0 0 864 576" width="864pt" xmlns="http://www.w3.org/2000/svg" xmlns:xlink="http://www.w3.org/1999/xlink">
 <defs>
  <style type="text/css">
*{stroke-linecap:butt;stroke-linejoin:round;stroke-miterlimit:100000;}
  </style>
 </defs>
 <g id="figure_1">
  <g id="patch_1">
   <path d="M 0 576 
L 864 576 
L 864 0 
L 0 0 
z
" style="fill:#ffffff;"/>
  </g>
  <g id="axes_1">
   <g id="patch_2">
    <path d="M 108 504 
L 777.6 504 
L 777.6 57.6 
L 108 57.6 
z
" style="fill:#eaeaf2;"/>
   </g>
   <g id="matplotlib.axis_1">
    <g id="xtick_1">
     <g id="line2d_1">
      <defs>
       <path d="M 0 0 
L 0 0 
" id="m0224748cb9" style="stroke:#262626;"/>
      </defs>
      <g>
       <use style="fill:#262626;stroke:#262626;" x="219.6" xlink:href="#m0224748cb9" y="504.0"/>
      </g>
     </g>
     <g id="line2d_2">
      <g>
       <use style="fill:#262626;stroke:#262626;" x="219.6" xlink:href="#m0224748cb9" y="57.6"/>
      </g>
     </g>
     <g id="text_1">
      <!-- Run 1 -->
      <defs>
       <path id="BitstreamVeraSans-Roman-20"/>
       <path d="M 44.390625 34.1875 
Q 47.5625 33.109375 50.5625 29.59375 
Q 53.5625 26.078125 56.59375 19.921875 
L 66.609375 0 
L 56 0 
L 46.6875 18.703125 
Q 43.0625 26.03125 39.671875 28.421875 
Q 36.28125 30.8125 30.421875 30.8125 
L 19.671875 30.8125 
L 19.671875 0 
L 9.8125 0 
L 9.8125 72.90625 
L 32.078125 72.90625 
Q 44.578125 72.90625 50.734375 67.671875 
Q 56.890625 62.453125 56.890625 51.90625 
Q 56.890625 45.015625 53.6875 40.46875 
Q 50.484375 35.9375 44.390625 34.1875 
M 19.671875 64.796875 
L 19.671875 38.921875 
L 32.078125 38.921875 
Q 39.203125 38.921875 42.84375 42.21875 
Q 46.484375 45.515625 46.484375 51.90625 
Q 46.484375 58.296875 42.84375 61.546875 
Q 39.203125 64.796875 32.078125 64.796875 
z
" id="BitstreamVeraSans-Roman-52"/>
       <path d="M 8.5 21.578125 
L 8.5 54.6875 
L 17.484375 54.6875 
L 17.484375 21.921875 
Q 17.484375 14.15625 20.5 10.265625 
Q 23.53125 6.390625 29.59375 6.390625 
Q 36.859375 6.390625 41.078125 11.03125 
Q 45.3125 15.671875 45.3125 23.6875 
L 45.3125 54.6875 
L 54.296875 54.6875 
L 54.296875 0 
L 45.3125 0 
L 45.3125 8.40625 
Q 42.046875 3.421875 37.71875 1 
Q 33.40625 -1.421875 27.6875 -1.421875 
Q 18.265625 -1.421875 13.375 4.4375 
Q 8.5 10.296875 8.5 21.578125 
" id="BitstreamVeraSans-Roman-75"/>
       <path d="M 12.40625 8.296875 
L 28.515625 8.296875 
L 28.515625 63.921875 
L 10.984375 60.40625 
L 10.984375 69.390625 
L 28.421875 72.90625 
L 38.28125 72.90625 
L 38.28125 8.296875 
L 54.390625 8.296875 
L 54.390625 0 
L 12.40625 0 
z
" id="BitstreamVeraSans-Roman-31"/>
       <path d="M 54.890625 33.015625 
L 54.890625 0 
L 45.90625 0 
L 45.90625 32.71875 
Q 45.90625 40.484375 42.875 44.328125 
Q 39.84375 48.1875 33.796875 48.1875 
Q 26.515625 48.1875 22.3125 43.546875 
Q 18.109375 38.921875 18.109375 30.90625 
L 18.109375 0 
L 9.078125 0 
L 9.078125 54.6875 
L 18.109375 54.6875 
L 18.109375 46.1875 
Q 21.34375 51.125 25.703125 53.5625 
Q 30.078125 56 35.796875 56 
Q 45.21875 56 50.046875 50.171875 
Q 54.890625 44.34375 54.890625 33.015625 
" id="BitstreamVeraSans-Roman-6e"/>
      </defs>
      <g style="fill:#262626;" transform="translate(183.152734375 529.99609375)scale(0.25 -0.25)">
       <use xlink:href="#BitstreamVeraSans-Roman-52"/>
       <use x="69.419921875" xlink:href="#BitstreamVeraSans-Roman-75"/>
       <use x="132.798828125" xlink:href="#BitstreamVeraSans-Roman-6e"/>
       <use x="196.177734375" xlink:href="#BitstreamVeraSans-Roman-20"/>
       <use x="227.96484375" xlink:href="#BitstreamVeraSans-Roman-31"/>
      </g>
     </g>
    </g>
    <g id="xtick_2">
     <g id="line2d_3">
      <g>
       <use style="fill:#262626;stroke:#262626;" x="442.8" xlink:href="#m0224748cb9" y="504.0"/>
      </g>
     </g>
     <g id="line2d_4">
      <g>
       <use style="fill:#262626;stroke:#262626;" x="442.8" xlink:href="#m0224748cb9" y="57.6"/>
      </g>
     </g>
     <g id="text_2">
      <!-- Run 3 -->
      <defs>
       <path d="M 40.578125 39.3125 
Q 47.65625 37.796875 51.625 33 
Q 55.609375 28.21875 55.609375 21.1875 
Q 55.609375 10.40625 48.1875 4.484375 
Q 40.765625 -1.421875 27.09375 -1.421875 
Q 22.515625 -1.421875 17.65625 -0.515625 
Q 12.796875 0.390625 7.625 2.203125 
L 7.625 11.71875 
Q 11.71875 9.328125 16.59375 8.109375 
Q 21.484375 6.890625 26.8125 6.890625 
Q 36.078125 6.890625 40.9375 10.546875 
Q 45.796875 14.203125 45.796875 21.1875 
Q 45.796875 27.640625 41.28125 31.265625 
Q 36.765625 34.90625 28.71875 34.90625 
L 20.21875 34.90625 
L 20.21875 43.015625 
L 29.109375 43.015625 
Q 36.375 43.015625 40.234375 45.921875 
Q 44.09375 48.828125 44.09375 54.296875 
Q 44.09375 59.90625 40.109375 62.90625 
Q 36.140625 65.921875 28.71875 65.921875 
Q 24.65625 65.921875 20.015625 65.03125 
Q 15.375 64.15625 9.8125 62.3125 
L 9.8125 71.09375 
Q 15.4375 72.65625 20.34375 73.4375 
Q 25.25 74.21875 29.59375 74.21875 
Q 40.828125 74.21875 47.359375 69.109375 
Q 53.90625 64.015625 53.90625 55.328125 
Q 53.90625 49.265625 50.4375 45.09375 
Q 46.96875 40.921875 40.578125 39.3125 
" id="BitstreamVeraSans-Roman-33"/>
      </defs>
      <g style="fill:#262626;" transform="translate(406.352734375 529.99609375)scale(0.25 -0.25)">
       <use xlink:href="#BitstreamVeraSans-Roman-52"/>
       <use x="69.419921875" xlink:href="#BitstreamVeraSans-Roman-75"/>
       <use x="132.798828125" xlink:href="#BitstreamVeraSans-Roman-6e"/>
       <use x="196.177734375" xlink:href="#BitstreamVeraSans-Roman-20"/>
       <use x="227.96484375" xlink:href="#BitstreamVeraSans-Roman-33"/>
      </g>
     </g>
    </g>
    <g id="xtick_3">
     <g id="line2d_5">
      <g>
       <use style="fill:#262626;stroke:#262626;" x="666.0" xlink:href="#m0224748cb9" y="504.0"/>
      </g>
     </g>
     <g id="line2d_6">
      <g>
       <use style="fill:#262626;stroke:#262626;" x="666.0" xlink:href="#m0224748cb9" y="57.6"/>
      </g>
     </g>
     <g id="text_3">
      <!-- Run 4 -->
      <defs>
       <path d="M 37.796875 64.3125 
L 12.890625 25.390625 
L 37.796875 25.390625 
z
M 35.203125 72.90625 
L 47.609375 72.90625 
L 47.609375 25.390625 
L 58.015625 25.390625 
L 58.015625 17.1875 
L 47.609375 17.1875 
L 47.609375 0 
L 37.796875 0 
L 37.796875 17.1875 
L 4.890625 17.1875 
L 4.890625 26.703125 
z
" id="BitstreamVeraSans-Roman-34"/>
      </defs>
      <g style="fill:#262626;" transform="translate(629.552734375 529.99609375)scale(0.25 -0.25)">
       <use xlink:href="#BitstreamVeraSans-Roman-52"/>
       <use x="69.419921875" xlink:href="#BitstreamVeraSans-Roman-75"/>
       <use x="132.798828125" xlink:href="#BitstreamVeraSans-Roman-6e"/>
       <use x="196.177734375" xlink:href="#BitstreamVeraSans-Roman-20"/>
       <use x="227.96484375" xlink:href="#BitstreamVeraSans-Roman-34"/>
      </g>
     </g>
    </g>
    <g id="text_4">
     <!-- Run -->
     <g style="fill:#262626;" transform="translate(415.826367188 561.091015625)scale(0.275 -0.275)">
      <use xlink:href="#BitstreamVeraSans-Roman-52"/>
      <use x="69.419921875" xlink:href="#BitstreamVeraSans-Roman-75"/>
      <use x="132.798828125" xlink:href="#BitstreamVeraSans-Roman-6e"/>
     </g>
    </g>
   </g>
   <g id="matplotlib.axis_2">
    <g id="ytick_1">
     <g id="line2d_7">
      <path clip-path="url(#pfd985dca2e)" d="M 108 504 
L 777.6 504 
" style="fill:none;stroke:#ffffff;stroke-linecap:round;"/>
     </g>
     <g id="line2d_8">
      <g>
       <use style="fill:#262626;stroke:#262626;" x="108.0" xlink:href="#m0224748cb9" y="504.0"/>
      </g>
     </g>
     <g id="line2d_9">
      <g>
       <use style="fill:#262626;stroke:#262626;" x="777.6" xlink:href="#m0224748cb9" y="504.0"/>
      </g>
     </g>
     <g id="text_5">
      <!-- −20 -->
      <defs>
       <path d="M 19.1875 8.296875 
L 53.609375 8.296875 
L 53.609375 0 
L 7.328125 0 
L 7.328125 8.296875 
Q 12.9375 14.109375 22.625 23.890625 
Q 32.328125 33.6875 34.8125 36.53125 
Q 39.546875 41.84375 41.421875 45.53125 
Q 43.3125 49.21875 43.3125 52.78125 
Q 43.3125 58.59375 39.234375 62.25 
Q 35.15625 65.921875 28.609375 65.921875 
Q 23.96875 65.921875 18.8125 64.3125 
Q 13.671875 62.703125 7.8125 59.421875 
L 7.8125 69.390625 
Q 13.765625 71.78125 18.9375 73 
Q 24.125 74.21875 28.421875 74.21875 
Q 39.75 74.21875 46.484375 68.546875 
Q 53.21875 62.890625 53.21875 53.421875 
Q 53.21875 48.921875 51.53125 44.890625 
Q 49.859375 40.875 45.40625 35.40625 
Q 44.1875 33.984375 37.640625 27.21875 
Q 31.109375 20.453125 19.1875 8.296875 
" id="BitstreamVeraSans-Roman-32"/>
       <path d="M 31.78125 66.40625 
Q 24.171875 66.40625 20.328125 58.90625 
Q 16.5 51.421875 16.5 36.375 
Q 16.5 21.390625 20.328125 13.890625 
Q 24.171875 6.390625 31.78125 6.390625 
Q 39.453125 6.390625 43.28125 13.890625 
Q 47.125 21.390625 47.125 36.375 
Q 47.125 51.421875 43.28125 58.90625 
Q 39.453125 66.40625 31.78125 66.40625 
M 31.78125 74.21875 
Q 44.046875 74.21875 50.515625 64.515625 
Q 56.984375 54.828125 56.984375 36.375 
Q 56.984375 17.96875 50.515625 8.265625 
Q 44.046875 -1.421875 31.78125 -1.421875 
Q 19.53125 -1.421875 13.0625 8.265625 
Q 6.59375 17.96875 6.59375 36.375 
Q 6.59375 54.828125 13.0625 64.515625 
Q 19.53125 74.21875 31.78125 74.21875 
" id="BitstreamVeraSans-Roman-30"/>
       <path d="M 10.59375 35.5 
L 73.1875 35.5 
L 73.1875 27.203125 
L 10.59375 27.203125 
z
" id="BitstreamVeraSans-Roman-2212"/>
      </defs>
      <g style="fill:#262626;" transform="translate(48.23828125 510.8984375)scale(0.25 -0.25)">
       <use xlink:href="#BitstreamVeraSans-Roman-2212"/>
       <use x="83.7890625" xlink:href="#BitstreamVeraSans-Roman-32"/>
       <use x="147.412109375" xlink:href="#BitstreamVeraSans-Roman-30"/>
      </g>
     </g>
    </g>
    <g id="ytick_2">
     <g id="line2d_10">
      <path clip-path="url(#pfd985dca2e)" d="M 108 429.6 
L 777.6 429.6 
" style="fill:none;stroke:#ffffff;stroke-linecap:round;"/>
     </g>
     <g id="line2d_11">
      <g>
       <use style="fill:#262626;stroke:#262626;" x="108.0" xlink:href="#m0224748cb9" y="429.6"/>
      </g>
     </g>
     <g id="line2d_12">
      <g>
       <use style="fill:#262626;stroke:#262626;" x="777.6" xlink:href="#m0224748cb9" y="429.6"/>
      </g>
     </g>
     <g id="text_6">
      <!-- 0 -->
      <g style="fill:#262626;" transform="translate(85.09375 436.4984375)scale(0.25 -0.25)">
       <use xlink:href="#BitstreamVeraSans-Roman-30"/>
      </g>
     </g>
    </g>
    <g id="ytick_3">
     <g id="line2d_13">
      <path clip-path="url(#pfd985dca2e)" d="M 108 355.2 
L 777.6 355.2 
" style="fill:none;stroke:#ffffff;stroke-linecap:round;"/>
     </g>
     <g id="line2d_14">
      <g>
       <use style="fill:#262626;stroke:#262626;" x="108.0" xlink:href="#m0224748cb9" y="355.2"/>
      </g>
     </g>
     <g id="line2d_15">
      <g>
       <use style="fill:#262626;stroke:#262626;" x="777.6" xlink:href="#m0224748cb9" y="355.2"/>
      </g>
     </g>
     <g id="text_7">
      <!-- 20 -->
      <g style="fill:#262626;" transform="translate(69.1875 362.0984375)scale(0.25 -0.25)">
       <use xlink:href="#BitstreamVeraSans-Roman-32"/>
       <use x="63.623046875" xlink:href="#BitstreamVeraSans-Roman-30"/>
      </g>
     </g>
    </g>
    <g id="ytick_4">
     <g id="line2d_16">
      <path clip-path="url(#pfd985dca2e)" d="M 108 280.8 
L 777.6 280.8 
" style="fill:none;stroke:#ffffff;stroke-linecap:round;"/>
     </g>
     <g id="line2d_17">
      <g>
       <use style="fill:#262626;stroke:#262626;" x="108.0" xlink:href="#m0224748cb9" y="280.8"/>
      </g>
     </g>
     <g id="line2d_18">
      <g>
       <use style="fill:#262626;stroke:#262626;" x="777.6" xlink:href="#m0224748cb9" y="280.8"/>
      </g>
     </g>
     <g id="text_8">
      <!-- 40 -->
      <g style="fill:#262626;" transform="translate(69.1875 287.6984375)scale(0.25 -0.25)">
       <use xlink:href="#BitstreamVeraSans-Roman-34"/>
       <use x="63.623046875" xlink:href="#BitstreamVeraSans-Roman-30"/>
      </g>
     </g>
    </g>
    <g id="ytick_5">
     <g id="line2d_19">
      <path clip-path="url(#pfd985dca2e)" d="M 108 206.4 
L 777.6 206.4 
" style="fill:none;stroke:#ffffff;stroke-linecap:round;"/>
     </g>
     <g id="line2d_20">
      <g>
       <use style="fill:#262626;stroke:#262626;" x="108.0" xlink:href="#m0224748cb9" y="206.4"/>
      </g>
     </g>
     <g id="line2d_21">
      <g>
       <use style="fill:#262626;stroke:#262626;" x="777.6" xlink:href="#m0224748cb9" y="206.4"/>
      </g>
     </g>
     <g id="text_9">
      <!-- 60 -->
      <defs>
       <path d="M 33.015625 40.375 
Q 26.375 40.375 22.484375 35.828125 
Q 18.609375 31.296875 18.609375 23.390625 
Q 18.609375 15.53125 22.484375 10.953125 
Q 26.375 6.390625 33.015625 6.390625 
Q 39.65625 6.390625 43.53125 10.953125 
Q 47.40625 15.53125 47.40625 23.390625 
Q 47.40625 31.296875 43.53125 35.828125 
Q 39.65625 40.375 33.015625 40.375 
M 52.59375 71.296875 
L 52.59375 62.3125 
Q 48.875 64.0625 45.09375 64.984375 
Q 41.3125 65.921875 37.59375 65.921875 
Q 27.828125 65.921875 22.671875 59.328125 
Q 17.53125 52.734375 16.796875 39.40625 
Q 19.671875 43.65625 24.015625 45.921875 
Q 28.375 48.1875 33.59375 48.1875 
Q 44.578125 48.1875 50.953125 41.515625 
Q 57.328125 34.859375 57.328125 23.390625 
Q 57.328125 12.15625 50.6875 5.359375 
Q 44.046875 -1.421875 33.015625 -1.421875 
Q 20.359375 -1.421875 13.671875 8.265625 
Q 6.984375 17.96875 6.984375 36.375 
Q 6.984375 53.65625 15.1875 63.9375 
Q 23.390625 74.21875 37.203125 74.21875 
Q 40.921875 74.21875 44.703125 73.484375 
Q 48.484375 72.75 52.59375 71.296875 
" id="BitstreamVeraSans-Roman-36"/>
      </defs>
      <g style="fill:#262626;" transform="translate(69.1875 213.2984375)scale(0.25 -0.25)">
       <use xlink:href="#BitstreamVeraSans-Roman-36"/>
       <use x="63.623046875" xlink:href="#BitstreamVeraSans-Roman-30"/>
      </g>
     </g>
    </g>
    <g id="ytick_6">
     <g id="line2d_22">
      <path clip-path="url(#pfd985dca2e)" d="M 108 132 
L 777.6 132 
" style="fill:none;stroke:#ffffff;stroke-linecap:round;"/>
     </g>
     <g id="line2d_23">
      <g>
       <use style="fill:#262626;stroke:#262626;" x="108.0" xlink:href="#m0224748cb9" y="132.0"/>
      </g>
     </g>
     <g id="line2d_24">
      <g>
       <use style="fill:#262626;stroke:#262626;" x="777.6" xlink:href="#m0224748cb9" y="132.0"/>
      </g>
     </g>
     <g id="text_10">
      <!-- 80 -->
      <defs>
       <path d="M 31.78125 34.625 
Q 24.75 34.625 20.71875 30.859375 
Q 16.703125 27.09375 16.703125 20.515625 
Q 16.703125 13.921875 20.71875 10.15625 
Q 24.75 6.390625 31.78125 6.390625 
Q 38.8125 6.390625 42.859375 10.171875 
Q 46.921875 13.96875 46.921875 20.515625 
Q 46.921875 27.09375 42.890625 30.859375 
Q 38.875 34.625 31.78125 34.625 
M 21.921875 38.8125 
Q 15.578125 40.375 12.03125 44.71875 
Q 8.5 49.078125 8.5 55.328125 
Q 8.5 64.0625 14.71875 69.140625 
Q 20.953125 74.21875 31.78125 74.21875 
Q 42.671875 74.21875 48.875 69.140625 
Q 55.078125 64.0625 55.078125 55.328125 
Q 55.078125 49.078125 51.53125 44.71875 
Q 48 40.375 41.703125 38.8125 
Q 48.828125 37.15625 52.796875 32.3125 
Q 56.78125 27.484375 56.78125 20.515625 
Q 56.78125 9.90625 50.3125 4.234375 
Q 43.84375 -1.421875 31.78125 -1.421875 
Q 19.734375 -1.421875 13.25 4.234375 
Q 6.78125 9.90625 6.78125 20.515625 
Q 6.78125 27.484375 10.78125 32.3125 
Q 14.796875 37.15625 21.921875 38.8125 
M 18.3125 54.390625 
Q 18.3125 48.734375 21.84375 45.5625 
Q 25.390625 42.390625 31.78125 42.390625 
Q 38.140625 42.390625 41.71875 45.5625 
Q 45.3125 48.734375 45.3125 54.390625 
Q 45.3125 60.0625 41.71875 63.234375 
Q 38.140625 66.40625 31.78125 66.40625 
Q 25.390625 66.40625 21.84375 63.234375 
Q 18.3125 60.0625 18.3125 54.390625 
" id="BitstreamVeraSans-Roman-38"/>
      </defs>
      <g style="fill:#262626;" transform="translate(69.1875 138.8984375)scale(0.25 -0.25)">
       <use xlink:href="#BitstreamVeraSans-Roman-38"/>
       <use x="63.623046875" xlink:href="#BitstreamVeraSans-Roman-30"/>
      </g>
     </g>
    </g>
    <g id="ytick_7">
     <g id="line2d_25">
      <path clip-path="url(#pfd985dca2e)" d="M 108 57.6 
L 777.6 57.6 
" style="fill:none;stroke:#ffffff;stroke-linecap:round;"/>
     </g>
     <g id="line2d_26">
      <g>
       <use style="fill:#262626;stroke:#262626;" x="108.0" xlink:href="#m0224748cb9" y="57.6"/>
      </g>
     </g>
     <g id="line2d_27">
      <g>
       <use style="fill:#262626;stroke:#262626;" x="777.6" xlink:href="#m0224748cb9" y="57.6"/>
      </g>
     </g>
     <g id="text_11">
      <!-- 100 -->
      <g style="fill:#262626;" transform="translate(53.28125 64.4984375)scale(0.25 -0.25)">
       <use xlink:href="#BitstreamVeraSans-Roman-31"/>
       <use x="63.623046875" xlink:href="#BitstreamVeraSans-Roman-30"/>
       <use x="127.24609375" xlink:href="#BitstreamVeraSans-Roman-30"/>
      </g>
     </g>
    </g>
    <g id="text_12">
     <!-- Phylogenetic Diversity -->
     <defs>
      <path d="M 45.40625 27.984375 
Q 45.40625 37.75 41.375 43.109375 
Q 37.359375 48.484375 30.078125 48.484375 
Q 22.859375 48.484375 18.828125 43.109375 
Q 14.796875 37.75 14.796875 27.984375 
Q 14.796875 18.265625 18.828125 12.890625 
Q 22.859375 7.515625 30.078125 7.515625 
Q 37.359375 7.515625 41.375 12.890625 
Q 45.40625 18.265625 45.40625 27.984375 
M 54.390625 6.78125 
Q 54.390625 -7.171875 48.1875 -13.984375 
Q 42 -20.796875 29.203125 -20.796875 
Q 24.46875 -20.796875 20.265625 -20.09375 
Q 16.0625 -19.390625 12.109375 -17.921875 
L 12.109375 -9.1875 
Q 16.0625 -11.328125 19.921875 -12.34375 
Q 23.78125 -13.375 27.78125 -13.375 
Q 36.625 -13.375 41.015625 -8.765625 
Q 45.40625 -4.15625 45.40625 5.171875 
L 45.40625 9.625 
Q 42.625 4.78125 38.28125 2.390625 
Q 33.9375 0 27.875 0 
Q 17.828125 0 11.671875 7.65625 
Q 5.515625 15.328125 5.515625 27.984375 
Q 5.515625 40.671875 11.671875 48.328125 
Q 17.828125 56 27.875 56 
Q 33.9375 56 38.28125 53.609375 
Q 42.625 51.21875 45.40625 46.390625 
L 45.40625 54.6875 
L 54.390625 54.6875 
z
" id="BitstreamVeraSans-Roman-67"/>
      <path d="M 44.28125 53.078125 
L 44.28125 44.578125 
Q 40.484375 46.53125 36.375 47.5 
Q 32.28125 48.484375 27.875 48.484375 
Q 21.1875 48.484375 17.84375 46.4375 
Q 14.5 44.390625 14.5 40.28125 
Q 14.5 37.15625 16.890625 35.375 
Q 19.28125 33.59375 26.515625 31.984375 
L 29.59375 31.296875 
Q 39.15625 29.25 43.1875 25.515625 
Q 47.21875 21.78125 47.21875 15.09375 
Q 47.21875 7.46875 41.1875 3.015625 
Q 35.15625 -1.421875 24.609375 -1.421875 
Q 20.21875 -1.421875 15.453125 -0.5625 
Q 10.6875 0.296875 5.421875 2 
L 5.421875 11.28125 
Q 10.40625 8.6875 15.234375 7.390625 
Q 20.0625 6.109375 24.8125 6.109375 
Q 31.15625 6.109375 34.5625 8.28125 
Q 37.984375 10.453125 37.984375 14.40625 
Q 37.984375 18.0625 35.515625 20.015625 
Q 33.0625 21.96875 24.703125 23.78125 
L 21.578125 24.515625 
Q 13.234375 26.265625 9.515625 29.90625 
Q 5.8125 33.546875 5.8125 39.890625 
Q 5.8125 47.609375 11.28125 51.796875 
Q 16.75 56 26.8125 56 
Q 31.78125 56 36.171875 55.265625 
Q 40.578125 54.546875 44.28125 53.078125 
" id="BitstreamVeraSans-Roman-73"/>
      <path d="M 56.203125 29.59375 
L 56.203125 25.203125 
L 14.890625 25.203125 
Q 15.484375 15.921875 20.484375 11.0625 
Q 25.484375 6.203125 34.421875 6.203125 
Q 39.59375 6.203125 44.453125 7.46875 
Q 49.3125 8.734375 54.109375 11.28125 
L 54.109375 2.78125 
Q 49.265625 0.734375 44.1875 -0.34375 
Q 39.109375 -1.421875 33.890625 -1.421875 
Q 20.796875 -1.421875 13.15625 6.1875 
Q 5.515625 13.8125 5.515625 26.8125 
Q 5.515625 40.234375 12.765625 48.109375 
Q 20.015625 56 32.328125 56 
Q 43.359375 56 49.78125 48.890625 
Q 56.203125 41.796875 56.203125 29.59375 
M 47.21875 32.234375 
Q 47.125 39.59375 43.09375 43.984375 
Q 39.0625 48.390625 32.421875 48.390625 
Q 24.90625 48.390625 20.390625 44.140625 
Q 15.875 39.890625 15.1875 32.171875 
z
" id="BitstreamVeraSans-Roman-65"/>
      <path d="M 19.671875 64.796875 
L 19.671875 8.109375 
L 31.59375 8.109375 
Q 46.6875 8.109375 53.6875 14.9375 
Q 60.6875 21.78125 60.6875 36.53125 
Q 60.6875 51.171875 53.6875 57.984375 
Q 46.6875 64.796875 31.59375 64.796875 
z
M 9.8125 72.90625 
L 30.078125 72.90625 
Q 51.265625 72.90625 61.171875 64.09375 
Q 71.09375 55.28125 71.09375 36.53125 
Q 71.09375 17.671875 61.125 8.828125 
Q 51.171875 0 30.078125 0 
L 9.8125 0 
z
" id="BitstreamVeraSans-Roman-44"/>
      <path d="M 2.984375 54.6875 
L 12.5 54.6875 
L 29.59375 8.796875 
L 46.6875 54.6875 
L 56.203125 54.6875 
L 35.6875 0 
L 23.484375 0 
z
" id="BitstreamVeraSans-Roman-76"/>
      <path d="M 32.171875 -5.078125 
Q 28.375 -14.84375 24.75 -17.8125 
Q 21.140625 -20.796875 15.09375 -20.796875 
L 7.90625 -20.796875 
L 7.90625 -13.28125 
L 13.1875 -13.28125 
Q 16.890625 -13.28125 18.9375 -11.515625 
Q 21 -9.765625 23.484375 -3.21875 
L 25.09375 0.875 
L 2.984375 54.6875 
L 12.5 54.6875 
L 29.59375 11.921875 
L 46.6875 54.6875 
L 56.203125 54.6875 
z
" id="BitstreamVeraSans-Roman-79"/>
      <path d="M 9.421875 75.984375 
L 18.40625 75.984375 
L 18.40625 0 
L 9.421875 0 
z
" id="BitstreamVeraSans-Roman-6c"/>
      <path d="M 48.78125 52.59375 
L 48.78125 44.1875 
Q 44.96875 46.296875 41.140625 47.34375 
Q 37.3125 48.390625 33.40625 48.390625 
Q 24.65625 48.390625 19.8125 42.84375 
Q 14.984375 37.3125 14.984375 27.296875 
Q 14.984375 17.28125 19.8125 11.734375 
Q 24.65625 6.203125 33.40625 6.203125 
Q 37.3125 6.203125 41.140625 7.25 
Q 44.96875 8.296875 48.78125 10.40625 
L 48.78125 2.09375 
Q 45.015625 0.34375 40.984375 -0.53125 
Q 36.96875 -1.421875 32.421875 -1.421875 
Q 20.0625 -1.421875 12.78125 6.34375 
Q 5.515625 14.109375 5.515625 27.296875 
Q 5.515625 40.671875 12.859375 48.328125 
Q 20.21875 56 33.015625 56 
Q 37.15625 56 41.109375 55.140625 
Q 45.0625 54.296875 48.78125 52.59375 
" id="BitstreamVeraSans-Roman-63"/>
      <path d="M 54.890625 33.015625 
L 54.890625 0 
L 45.90625 0 
L 45.90625 32.71875 
Q 45.90625 40.484375 42.875 44.328125 
Q 39.84375 48.1875 33.796875 48.1875 
Q 26.515625 48.1875 22.3125 43.546875 
Q 18.109375 38.921875 18.109375 30.90625 
L 18.109375 0 
L 9.078125 0 
L 9.078125 75.984375 
L 18.109375 75.984375 
L 18.109375 46.1875 
Q 21.34375 51.125 25.703125 53.5625 
Q 30.078125 56 35.796875 56 
Q 45.21875 56 50.046875 50.171875 
Q 54.890625 44.34375 54.890625 33.015625 
" id="BitstreamVeraSans-Roman-68"/>
      <path d="M 9.421875 54.6875 
L 18.40625 54.6875 
L 18.40625 0 
L 9.421875 0 
z
M 9.421875 75.984375 
L 18.40625 75.984375 
L 18.40625 64.59375 
L 9.421875 64.59375 
z
" id="BitstreamVeraSans-Roman-69"/>
      <path d="M 30.609375 48.390625 
Q 23.390625 48.390625 19.1875 42.75 
Q 14.984375 37.109375 14.984375 27.296875 
Q 14.984375 17.484375 19.15625 11.84375 
Q 23.34375 6.203125 30.609375 6.203125 
Q 37.796875 6.203125 41.984375 11.859375 
Q 46.1875 17.53125 46.1875 27.296875 
Q 46.1875 37.015625 41.984375 42.703125 
Q 37.796875 48.390625 30.609375 48.390625 
M 30.609375 56 
Q 42.328125 56 49.015625 48.375 
Q 55.71875 40.765625 55.71875 27.296875 
Q 55.71875 13.875 49.015625 6.21875 
Q 42.328125 -1.421875 30.609375 -1.421875 
Q 18.84375 -1.421875 12.171875 6.21875 
Q 5.515625 13.875 5.515625 27.296875 
Q 5.515625 40.765625 12.171875 48.375 
Q 18.84375 56 30.609375 56 
" id="BitstreamVeraSans-Roman-6f"/>
      <path d="M 41.109375 46.296875 
Q 39.59375 47.171875 37.8125 47.578125 
Q 36.03125 48 33.890625 48 
Q 26.265625 48 22.1875 43.046875 
Q 18.109375 38.09375 18.109375 28.8125 
L 18.109375 0 
L 9.078125 0 
L 9.078125 54.6875 
L 18.109375 54.6875 
L 18.109375 46.1875 
Q 20.953125 51.171875 25.484375 53.578125 
Q 30.03125 56 36.53125 56 
Q 37.453125 56 38.578125 55.875 
Q 39.703125 55.765625 41.0625 55.515625 
z
" id="BitstreamVeraSans-Roman-72"/>
      <path d="M 18.3125 70.21875 
L 18.3125 54.6875 
L 36.8125 54.6875 
L 36.8125 47.703125 
L 18.3125 47.703125 
L 18.3125 18.015625 
Q 18.3125 11.328125 20.140625 9.421875 
Q 21.96875 7.515625 27.59375 7.515625 
L 36.8125 7.515625 
L 36.8125 0 
L 27.59375 0 
Q 17.1875 0 13.234375 3.875 
Q 9.28125 7.765625 9.28125 18.015625 
L 9.28125 47.703125 
L 2.6875 47.703125 
L 2.6875 54.6875 
L 9.28125 54.6875 
L 9.28125 70.21875 
z
" id="BitstreamVeraSans-Roman-74"/>
      <path d="M 19.671875 64.796875 
L 19.671875 37.40625 
L 32.078125 37.40625 
Q 38.96875 37.40625 42.71875 40.96875 
Q 46.484375 44.53125 46.484375 51.125 
Q 46.484375 57.671875 42.71875 61.234375 
Q 38.96875 64.796875 32.078125 64.796875 
z
M 9.8125 72.90625 
L 32.078125 72.90625 
Q 44.34375 72.90625 50.609375 67.359375 
Q 56.890625 61.8125 56.890625 51.125 
Q 56.890625 40.328125 50.609375 34.8125 
Q 44.34375 29.296875 32.078125 29.296875 
L 19.671875 29.296875 
L 19.671875 0 
L 9.8125 0 
z
" id="BitstreamVeraSans-Roman-50"/>
     </defs>
     <g style="fill:#262626;" transform="translate(37.519140625 434.8515625)rotate(-90.0)scale(0.275 -0.275)">
      <use xlink:href="#BitstreamVeraSans-Roman-50"/>
      <use x="60.302734375" xlink:href="#BitstreamVeraSans-Roman-68"/>
      <use x="123.681640625" xlink:href="#BitstreamVeraSans-Roman-79"/>
      <use x="182.861328125" xlink:href="#BitstreamVeraSans-Roman-6c"/>
      <use x="210.64453125" xlink:href="#BitstreamVeraSans-Roman-6f"/>
      <use x="271.826171875" xlink:href="#BitstreamVeraSans-Roman-67"/>
      <use x="335.302734375" xlink:href="#BitstreamVeraSans-Roman-65"/>
      <use x="396.826171875" xlink:href="#BitstreamVeraSans-Roman-6e"/>
      <use x="460.205078125" xlink:href="#BitstreamVeraSans-Roman-65"/>
      <use x="521.728515625" xlink:href="#BitstreamVeraSans-Roman-74"/>
      <use x="560.9375" xlink:href="#BitstreamVeraSans-Roman-69"/>
      <use x="588.720703125" xlink:href="#BitstreamVeraSans-Roman-63"/>
      <use x="643.701171875" xlink:href="#BitstreamVeraSans-Roman-20"/>
      <use x="675.48828125" xlink:href="#BitstreamVeraSans-Roman-44"/>
      <use x="752.490234375" xlink:href="#BitstreamVeraSans-Roman-69"/>
      <use x="780.2734375" xlink:href="#BitstreamVeraSans-Roman-76"/>
      <use x="839.453125" xlink:href="#BitstreamVeraSans-Roman-65"/>
      <use x="900.9765625" xlink:href="#BitstreamVeraSans-Roman-72"/>
      <use x="942.08984375" xlink:href="#BitstreamVeraSans-Roman-73"/>
      <use x="994.189453125" xlink:href="#BitstreamVeraSans-Roman-69"/>
      <use x="1021.97265625" xlink:href="#BitstreamVeraSans-Roman-74"/>
      <use x="1061.181640625" xlink:href="#BitstreamVeraSans-Roman-79"/>
     </g>
    </g>
   </g>
   <g id="PolyCollection_1">
    <defs>
     <path d="M 221.875762 -132.467748 
L 217.324238 -132.467748 
L 216.900679 -135.714469 
L 216.415704 -138.96119 
L 215.864 -142.20791 
L 215.240482 -145.454631 
L 214.54045 -148.701352 
L 213.759762 -151.948072 
L 212.895013 -155.194793 
L 211.943726 -158.441514 
L 210.904538 -161.688234 
L 209.777392 -164.934955 
L 208.563703 -168.181676 
L 207.266517 -171.428396 
L 205.890636 -174.675117 
L 204.442709 -177.921838 
L 202.931284 -181.168558 
L 201.366811 -184.415279 
L 199.761586 -187.662 
L 198.129648 -190.90872 
L 196.486606 -194.155441 
L 194.849414 -197.402162 
L 193.236088 -200.648882 
L 191.66537 -203.895603 
L 190.156346 -207.142324 
L 188.728033 -210.389044 
L 187.398935 -213.635765 
L 186.186594 -216.882486 
L 185.107138 -220.129206 
L 184.17485 -223.375927 
L 183.401763 -226.622648 
L 182.797307 -229.869368 
L 182.368013 -233.116089 
L 182.117281 -236.36281 
L 182.045238 -239.60953 
L 182.148671 -242.856251 
L 182.42106 -246.102972 
L 182.852697 -249.349692 
L 183.430889 -252.596413 
L 184.140256 -255.843134 
L 184.963091 -259.089854 
L 185.879793 -262.336575 
L 186.869349 -265.583296 
L 187.909851 -268.830016 
L 188.979038 -272.076737 
L 190.054843 -275.323458 
L 191.115928 -278.570178 
L 192.142195 -281.816899 
L 193.115256 -285.06362 
L 194.018856 -288.31034 
L 194.839223 -291.557061 
L 195.565356 -294.803782 
L 196.189227 -298.050502 
L 196.705908 -301.297223 
L 197.113604 -304.543944 
L 197.413617 -307.790664 
L 197.610214 -311.037385 
L 197.710437 -314.284106 
L 197.72383 -317.530826 
L 197.662119 -320.777547 
L 197.538837 -324.024268 
L 197.368915 -327.270988 
L 197.168246 -330.517709 
L 196.953233 -333.76443 
L 196.740346 -337.01115 
L 196.54568 -340.257871 
L 196.384541 -343.504592 
L 196.271069 -346.751312 
L 196.217901 -349.998033 
L 196.235889 -353.244754 
L 196.33387 -356.491474 
L 196.518511 -359.738195 
L 196.794208 -362.984916 
L 197.163057 -366.231636 
L 197.624891 -369.478357 
L 198.177373 -372.725078 
L 198.816148 -375.971798 
L 199.535047 -379.218519 
L 200.326323 -382.46524 
L 201.180924 -385.71196 
L 202.088789 -388.958681 
L 203.039147 -392.205402 
L 204.020825 -395.452122 
L 205.022543 -398.698843 
L 206.033191 -401.945564 
L 207.042083 -405.192284 
L 208.039182 -408.439005 
L 209.015282 -411.685726 
L 209.962159 -414.932446 
L 210.87268 -418.179167 
L 211.740867 -421.425888 
L 212.56193 -424.672608 
L 213.332261 -427.919329 
L 214.049395 -431.16605 
L 214.711946 -434.41277 
L 215.319519 -437.659491 
L 215.87261 -440.906212 
L 216.372487 -444.152932 
L 216.821072 -447.399653 
L 217.220814 -450.646374 
L 217.57457 -453.893094 
L 221.62543 -453.893094 
L 221.62543 -453.893094 
L 221.979186 -450.646374 
L 222.378928 -447.399653 
L 222.827513 -444.152932 
L 223.32739 -440.906212 
L 223.880481 -437.659491 
L 224.488054 -434.41277 
L 225.150605 -431.16605 
L 225.867739 -427.919329 
L 226.63807 -424.672608 
L 227.459133 -421.425888 
L 228.32732 -418.179167 
L 229.237841 -414.932446 
L 230.184718 -411.685726 
L 231.160818 -408.439005 
L 232.157917 -405.192284 
L 233.166809 -401.945564 
L 234.177457 -398.698843 
L 235.179175 -395.452122 
L 236.160853 -392.205402 
L 237.111211 -388.958681 
L 238.019076 -385.71196 
L 238.873677 -382.46524 
L 239.664953 -379.218519 
L 240.383852 -375.971798 
L 241.022627 -372.725078 
L 241.575109 -369.478357 
L 242.036943 -366.231636 
L 242.405792 -362.984916 
L 242.681489 -359.738195 
L 242.86613 -356.491474 
L 242.964111 -353.244754 
L 242.982099 -349.998033 
L 242.928931 -346.751312 
L 242.815459 -343.504592 
L 242.65432 -340.257871 
L 242.459654 -337.01115 
L 242.246767 -333.76443 
L 242.031754 -330.517709 
L 241.831085 -327.270988 
L 241.661163 -324.024268 
L 241.537881 -320.777547 
L 241.47617 -317.530826 
L 241.489563 -314.284106 
L 241.589786 -311.037385 
L 241.786383 -307.790664 
L 242.086396 -304.543944 
L 242.494092 -301.297223 
L 243.010773 -298.050502 
L 243.634644 -294.803782 
L 244.360777 -291.557061 
L 245.181144 -288.31034 
L 246.084744 -285.06362 
L 247.057805 -281.816899 
L 248.084072 -278.570178 
L 249.145157 -275.323458 
L 250.220962 -272.076737 
L 251.290149 -268.830016 
L 252.330651 -265.583296 
L 253.320207 -262.336575 
L 254.236909 -259.089854 
L 255.059744 -255.843134 
L 255.769111 -252.596413 
L 256.347303 -249.349692 
L 256.77894 -246.102972 
L 257.051329 -242.856251 
L 257.154762 -239.60953 
L 257.082719 -236.36281 
L 256.831987 -233.116089 
L 256.402693 -229.869368 
L 255.798237 -226.622648 
L 255.02515 -223.375927 
L 254.092862 -220.129206 
L 253.013406 -216.882486 
L 251.801065 -213.635765 
L 250.471967 -210.389044 
L 249.043654 -207.142324 
L 247.53463 -203.895603 
L 245.963912 -200.648882 
L 244.350586 -197.402162 
L 242.713394 -194.155441 
L 241.070352 -190.90872 
L 239.438414 -187.662 
L 237.833189 -184.415279 
L 236.268716 -181.168558 
L 234.757291 -177.921838 
L 233.309364 -174.675117 
L 231.933483 -171.428396 
L 230.636297 -168.181676 
L 229.422608 -164.934955 
L 228.295462 -161.688234 
L 227.256274 -158.441514 
L 226.304987 -155.194793 
L 225.440238 -151.948072 
L 224.65955 -148.701352 
L 223.959518 -145.454631 
L 223.336 -142.20791 
L 222.784296 -138.96119 
L 222.299321 -135.714469 
L 221.875762 -132.467748 
z
" id="m214849d910" style="stroke:#142452;stroke-width:1.75;"/>
    </defs>
    <g clip-path="url(#pfd985dca2e)">
     <use style="fill:#142452;stroke:#142452;stroke-width:1.75;" x="0.0" xlink:href="#m214849d910" y="576.0"/>
    </g>
   </g>
   <g id="PolyCollection_2">
    <defs>
     <path d="M 447.314034 -132.828291 
L 438.285966 -132.828291 
L 437.407786 -134.296932 
L 436.397193 -135.765573 
L 435.242287 -137.234214 
L 433.93164 -138.702855 
L 432.454624 -140.171497 
L 430.801769 -141.640138 
L 428.965137 -143.108779 
L 426.938703 -144.57742 
L 424.718722 -146.046061 
L 422.304086 -147.514702 
L 419.696635 -148.983343 
L 416.901434 -150.451984 
L 413.926975 -151.920625 
L 410.785311 -153.389267 
L 407.492115 -154.857908 
L 404.066633 -156.326549 
L 400.531559 -157.79519 
L 396.912803 -159.263831 
L 393.239174 -160.732472 
L 389.541974 -162.201113 
L 385.85451 -163.669754 
L 382.211548 -165.138395 
L 378.648711 -166.607037 
L 375.20184 -168.075678 
L 371.906341 -169.544319 
L 368.796522 -171.01296 
L 365.904953 -172.481601 
L 363.26185 -173.950242 
L 360.894507 -175.418883 
L 358.826785 -176.887524 
L 357.078662 -178.356165 
L 355.665869 -179.824807 
L 354.599595 -181.293448 
L 353.886284 -182.762089 
L 353.527522 -184.23073 
L 353.52 -185.699371 
L 353.855571 -187.168012 
L 354.521393 -188.636653 
L 355.500147 -190.105294 
L 356.770335 -191.573935 
L 358.306655 -193.042577 
L 360.080441 -194.511218 
L 362.060164 -195.979859 
L 364.212 -197.4485 
L 366.500438 -198.917141 
L 368.888934 -200.385782 
L 371.340599 -201.854423 
L 373.818905 -203.323064 
L 376.288401 -204.791705 
L 378.715423 -206.260347 
L 381.068784 -207.728988 
L 383.32042 -209.197629 
L 385.445986 -210.66627 
L 387.42537 -212.134911 
L 389.243123 -213.603552 
L 390.888771 -215.072193 
L 392.357008 -216.540834 
L 393.647758 -218.009475 
L 394.766085 -219.478117 
L 395.721963 -220.946758 
L 396.529906 -222.415399 
L 397.208451 -223.88404 
L 397.779533 -225.352681 
L 398.267738 -226.821322 
L 398.699491 -228.289963 
L 399.102181 -229.758604 
L 399.503264 -231.227245 
L 399.929379 -232.695887 
L 400.405498 -234.164528 
L 400.954155 -235.633169 
L 401.594771 -237.10181 
L 402.343106 -238.570451 
L 403.210849 -240.039092 
L 404.205367 -241.507733 
L 405.329614 -242.976374 
L 406.582193 -244.445015 
L 407.95758 -245.913657 
L 409.446466 -247.382298 
L 411.036236 -248.850939 
L 412.711516 -250.31958 
L 414.454805 -251.788221 
L 416.247132 -253.256862 
L 418.068721 -254.725503 
L 419.899644 -256.194144 
L 421.720422 -257.662785 
L 423.512574 -259.131427 
L 425.259075 -260.600068 
L 426.944736 -262.068709 
L 428.556477 -263.53735 
L 430.083511 -265.005991 
L 431.517428 -266.474632 
L 432.852193 -267.943273 
L 434.084069 -269.411914 
L 435.211469 -270.880555 
L 436.234759 -272.349197 
L 437.156023 -273.817838 
L 437.978804 -275.286479 
L 438.707833 -276.75512 
L 439.348755 -278.223761 
L 446.251245 -278.223761 
L 446.251245 -278.223761 
L 446.892167 -276.75512 
L 447.621196 -275.286479 
L 448.443977 -273.817838 
L 449.365241 -272.349197 
L 450.388531 -270.880555 
L 451.515931 -269.411914 
L 452.747807 -267.943273 
L 454.082572 -266.474632 
L 455.516489 -265.005991 
L 457.043523 -263.53735 
L 458.655264 -262.068709 
L 460.340925 -260.600068 
L 462.087426 -259.131427 
L 463.879578 -257.662785 
L 465.700356 -256.194144 
L 467.531279 -254.725503 
L 469.352868 -253.256862 
L 471.145195 -251.788221 
L 472.888484 -250.31958 
L 474.563764 -248.850939 
L 476.153534 -247.382298 
L 477.64242 -245.913657 
L 479.017807 -244.445015 
L 480.270386 -242.976374 
L 481.394633 -241.507733 
L 482.389151 -240.039092 
L 483.256894 -238.570451 
L 484.005229 -237.10181 
L 484.645845 -235.633169 
L 485.194502 -234.164528 
L 485.670621 -232.695887 
L 486.096736 -231.227245 
L 486.497819 -229.758604 
L 486.900509 -228.289963 
L 487.332262 -226.821322 
L 487.820467 -225.352681 
L 488.391549 -223.88404 
L 489.070094 -222.415399 
L 489.878037 -220.946758 
L 490.833915 -219.478117 
L 491.952242 -218.009475 
L 493.242992 -216.540834 
L 494.711229 -215.072193 
L 496.356877 -213.603552 
L 498.17463 -212.134911 
L 500.154014 -210.66627 
L 502.27958 -209.197629 
L 504.531216 -207.728988 
L 506.884577 -206.260347 
L 509.311599 -204.791705 
L 511.781095 -203.323064 
L 514.259401 -201.854423 
L 516.711066 -200.385782 
L 519.099562 -198.917141 
L 521.388 -197.4485 
L 523.539836 -195.979859 
L 525.519559 -194.511218 
L 527.293345 -193.042577 
L 528.829665 -191.573935 
L 530.099853 -190.105294 
L 531.078607 -188.636653 
L 531.744429 -187.168012 
L 532.08 -185.699371 
L 532.072478 -184.23073 
L 531.713716 -182.762089 
L 531.000405 -181.293448 
L 529.934131 -179.824807 
L 528.521338 -178.356165 
L 526.773215 -176.887524 
L 524.705493 -175.418883 
L 522.33815 -173.950242 
L 519.695047 -172.481601 
L 516.803478 -171.01296 
L 513.693659 -169.544319 
L 510.39816 -168.075678 
L 506.951289 -166.607037 
L 503.388452 -165.138395 
L 499.74549 -163.669754 
L 496.058026 -162.201113 
L 492.360826 -160.732472 
L 488.687197 -159.263831 
L 485.068441 -157.79519 
L 481.533367 -156.326549 
L 478.107885 -154.857908 
L 474.814689 -153.389267 
L 471.673025 -151.920625 
L 468.698566 -150.451984 
L 465.903365 -148.983343 
L 463.295914 -147.514702 
L 460.881278 -146.046061 
L 458.661297 -144.57742 
L 456.634863 -143.108779 
L 454.798231 -141.640138 
L 453.145376 -140.171497 
L 451.66836 -138.702855 
L 450.357713 -137.234214 
L 449.202807 -135.765573 
L 448.192214 -134.296932 
L 447.314034 -132.828291 
z
" id="mb51306b64b" style="stroke:#f9fadb;stroke-width:1.75;"/>
    </defs>
    <g clip-path="url(#pfd985dca2e)">
     <use style="fill:#f9fadb;stroke:#f9fadb;stroke-width:1.75;" x="0.0" xlink:href="#mb51306b64b" y="576.0"/>
    </g>
   </g>
   <g id="PolyCollection_3">
    <defs>
     <path d="M 667.80695 -119.236336 
L 664.19305 -119.236336 
L 663.846031 -122.511079 
L 663.447391 -125.785821 
L 662.99257 -129.060563 
L 662.477192 -132.335305 
L 661.897189 -135.610048 
L 661.248937 -138.88479 
L 660.529397 -142.159532 
L 659.736255 -145.434274 
L 658.868058 -148.709017 
L 657.924351 -151.983759 
L 656.905785 -155.258501 
L 655.814221 -158.533243 
L 654.652802 -161.807985 
L 653.426005 -165.082728 
L 652.139648 -168.35747 
L 650.800879 -171.632212 
L 649.418119 -174.906954 
L 648.000973 -178.181697 
L 646.560109 -181.456439 
L 645.107094 -184.731181 
L 643.654217 -188.005923 
L 642.214277 -191.280666 
L 640.800351 -194.555408 
L 639.425562 -197.83015 
L 638.102824 -201.104892 
L 636.844601 -204.379635 
L 635.662664 -207.654377 
L 634.567868 -210.929119 
L 633.569943 -214.203861 
L 632.677308 -217.478603 
L 631.896917 -220.753346 
L 631.234129 -224.028088 
L 630.692618 -227.30283 
L 630.274311 -230.577572 
L 629.979367 -233.852315 
L 629.806185 -237.127057 
L 629.751454 -240.401799 
L 629.810229 -243.676541 
L 629.97604 -246.951284 
L 630.241038 -250.226026 
L 630.596152 -253.500768 
L 631.031287 -256.77551 
L 631.535527 -260.050253 
L 632.097364 -263.324995 
L 632.70493 -266.599737 
L 633.346249 -269.874479 
L 634.009476 -273.149221 
L 634.683148 -276.423964 
L 635.356415 -279.698706 
L 636.01927 -282.973448 
L 636.662754 -286.24819 
L 637.27914 -289.522933 
L 637.862089 -292.797675 
L 638.406781 -296.072417 
L 638.91 -299.347159 
L 639.370191 -302.621902 
L 639.787468 -305.896644 
L 640.163584 -309.171386 
L 640.501859 -312.446128 
L 640.807062 -315.720871 
L 641.085255 -318.995613 
L 641.3436 -322.270355 
L 641.590131 -325.545097 
L 641.833502 -328.819839 
L 642.082711 -332.094582 
L 642.346812 -335.369324 
L 642.634627 -338.644066 
L 642.954462 -341.918808 
L 643.313835 -345.193551 
L 643.719232 -348.468293 
L 644.175898 -351.743035 
L 644.687664 -355.017777 
L 645.256823 -358.29252 
L 645.884063 -361.567262 
L 646.568449 -364.842004 
L 647.307457 -368.116746 
L 648.097067 -371.391489 
L 648.931905 -374.666231 
L 649.805415 -377.940973 
L 650.710082 -381.215715 
L 651.637667 -384.490457 
L 652.579463 -387.7652 
L 653.526556 -391.039942 
L 654.470074 -394.314684 
L 655.401431 -397.589426 
L 656.312544 -400.864169 
L 657.196012 -404.138911 
L 658.045276 -407.413653 
L 658.854729 -410.688395 
L 659.619787 -413.963138 
L 660.336931 -417.23788 
L 661.0037 -420.512622 
L 661.618663 -423.787364 
L 662.181348 -427.062107 
L 662.692165 -430.336849 
L 663.152298 -433.611591 
L 663.563591 -436.886333 
L 663.928429 -440.161075 
L 664.249615 -443.435818 
L 667.750385 -443.435818 
L 667.750385 -443.435818 
L 668.071571 -440.161075 
L 668.436409 -436.886333 
L 668.847702 -433.611591 
L 669.307835 -430.336849 
L 669.818652 -427.062107 
L 670.381337 -423.787364 
L 670.9963 -420.512622 
L 671.663069 -417.23788 
L 672.380213 -413.963138 
L 673.145271 -410.688395 
L 673.954724 -407.413653 
L 674.803988 -404.138911 
L 675.687456 -400.864169 
L 676.598569 -397.589426 
L 677.529926 -394.314684 
L 678.473444 -391.039942 
L 679.420537 -387.7652 
L 680.362333 -384.490457 
L 681.289918 -381.215715 
L 682.194585 -377.940973 
L 683.068095 -374.666231 
L 683.902933 -371.391489 
L 684.692543 -368.116746 
L 685.431551 -364.842004 
L 686.115937 -361.567262 
L 686.743177 -358.29252 
L 687.312336 -355.017777 
L 687.824102 -351.743035 
L 688.280768 -348.468293 
L 688.686165 -345.193551 
L 689.045538 -341.918808 
L 689.365373 -338.644066 
L 689.653188 -335.369324 
L 689.917289 -332.094582 
L 690.166498 -328.819839 
L 690.409869 -325.545097 
L 690.6564 -322.270355 
L 690.914745 -318.995613 
L 691.192938 -315.720871 
L 691.498141 -312.446128 
L 691.836416 -309.171386 
L 692.212532 -305.896644 
L 692.629809 -302.621902 
L 693.09 -299.347159 
L 693.593219 -296.072417 
L 694.137911 -292.797675 
L 694.72086 -289.522933 
L 695.337246 -286.24819 
L 695.98073 -282.973448 
L 696.643585 -279.698706 
L 697.316852 -276.423964 
L 697.990524 -273.149221 
L 698.653751 -269.874479 
L 699.29507 -266.599737 
L 699.902636 -263.324995 
L 700.464473 -260.050253 
L 700.968713 -256.77551 
L 701.403848 -253.500768 
L 701.758962 -250.226026 
L 702.02396 -246.951284 
L 702.189771 -243.676541 
L 702.248546 -240.401799 
L 702.193815 -237.127057 
L 702.020633 -233.852315 
L 701.725689 -230.577572 
L 701.307382 -227.30283 
L 700.765871 -224.028088 
L 700.103083 -220.753346 
L 699.322692 -217.478603 
L 698.430057 -214.203861 
L 697.432132 -210.929119 
L 696.337336 -207.654377 
L 695.155399 -204.379635 
L 693.897176 -201.104892 
L 692.574438 -197.83015 
L 691.199649 -194.555408 
L 689.785723 -191.280666 
L 688.345783 -188.005923 
L 686.892906 -184.731181 
L 685.439891 -181.456439 
L 683.999027 -178.181697 
L 682.581881 -174.906954 
L 681.199121 -171.632212 
L 679.860352 -168.35747 
L 678.573995 -165.082728 
L 677.347198 -161.807985 
L 676.185779 -158.533243 
L 675.094215 -155.258501 
L 674.075649 -151.983759 
L 673.131942 -148.709017 
L 672.263745 -145.434274 
L 671.470603 -142.159532 
L 670.751063 -138.88479 
L 670.102811 -135.610048 
L 669.522808 -132.335305 
L 669.00743 -129.060563 
L 668.552609 -125.785821 
L 668.153969 -122.511079 
L 667.80695 -119.236336 
z
" id="m5d7067e517" style="stroke:#50a8b3;stroke-width:1.75;"/>
    </defs>
    <g clip-path="url(#pfd985dca2e)">
     <use style="fill:#50a8b3;stroke:#50a8b3;stroke-width:1.75;" x="0.0" xlink:href="#m5d7067e517" y="576.0"/>
    </g>
   </g>
   <g id="line2d_28">
    <path clip-path="url(#pfd985dca2e)" d="M 219.6 359.208564 
L 219.6 206.430593 
" style="fill:none;stroke:#1e1e1e;stroke-linecap:round;stroke-width:1.75;"/>
   </g>
   <g id="line2d_29">
    <path clip-path="url(#pfd985dca2e)" d="M 219.6 340.825045 
L 219.6 230.276364 
" style="fill:none;stroke:#1e1e1e;stroke-linecap:round;stroke-width:5.25;"/>
   </g>
   <g id="line2d_30">
    <path clip-path="url(#pfd985dca2e)" d="M 442.8 407.250017 
L 442.8 333.697931 
" style="fill:none;stroke:#1e1e1e;stroke-linecap:round;stroke-width:1.75;"/>
   </g>
   <g id="line2d_31">
    <path clip-path="url(#pfd985dca2e)" d="M 442.8 396.342922 
L 442.8 362.969601 
" style="fill:none;stroke:#1e1e1e;stroke-linecap:round;stroke-width:5.25;"/>
   </g>
   <g id="line2d_32">
    <path clip-path="url(#pfd985dca2e)" d="M 666 375.921456 
L 666 213.406389 
" style="fill:none;stroke:#1e1e1e;stroke-linecap:round;stroke-width:1.75;"/>
   </g>
   <g id="line2d_33">
    <path clip-path="url(#pfd985dca2e)" d="M 666 347.185422 
L 666 257.198948 
" style="fill:none;stroke:#1e1e1e;stroke-linecap:round;stroke-width:5.25;"/>
   </g>
   <g id="patch_3">
    <path d="M 108 504 
L 108 57.6 
" style="fill:none;"/>
   </g>
   <g id="patch_4">
    <path d="M 777.6 504 
L 777.6 57.6 
" style="fill:none;"/>
   </g>
   <g id="patch_5">
    <path d="M 108 504 
L 777.6 504 
" style="fill:none;"/>
   </g>
   <g id="patch_6">
    <path d="M 108 57.6 
L 777.6 57.6 
" style="fill:none;"/>
   </g>
   <g id="PathCollection_1">
    <defs>
     <path d="M 0 1.75 
C 0.464105 1.75 0.909265 1.565609 1.237437 1.237437 
C 1.565609 0.909265 1.75 0.464105 1.75 0 
C 1.75 -0.464105 1.565609 -0.909265 1.237437 -1.237437 
C 0.909265 -1.565609 0.464105 -1.75 0 -1.75 
C -0.464105 -1.75 -0.909265 -1.565609 -1.237437 -1.237437 
C -1.565609 -0.909265 -1.75 -0.464105 -1.75 0 
C -1.75 0.464105 -1.565609 0.909265 -1.237437 1.237437 
C -0.909265 1.565609 -0.464105 1.75 0 1.75 
z
" id="me5d0fcf01c" style="stroke:#1e1e1e;stroke-width:0.3;"/>
    </defs>
    <g clip-path="url(#pfd985dca2e)">
     <use style="fill:#ffffff;stroke:#1e1e1e;stroke-width:0.3;" x="219.6" xlink:href="#me5d0fcf01c" y="324.50997768"/>
    </g>
   </g>
   <g id="PathCollection_2">
    <g clip-path="url(#pfd985dca2e)">
     <use style="fill:#ffffff;stroke:#1e1e1e;stroke-width:0.3;" x="442.8" xlink:href="#me5d0fcf01c" y="384.97694646"/>
    </g>
   </g>
   <g id="PathCollection_3">
    <g clip-path="url(#pfd985dca2e)">
     <use style="fill:#ffffff;stroke:#1e1e1e;stroke-width:0.3;" x="666.0" xlink:href="#me5d0fcf01c" y="317.18549298"/>
    </g>
   </g>
  </g>
 </g>
 <defs>
  <clipPath id="pfd985dca2e">
   <rect height="446.4" width="669.6" x="108.0" y="57.6"/>
  </clipPath>
 </defs>
</svg>
