<svg xmlns="http://www.w3.org/2000/svg" enable-background="new -374 -127.951 1280 720" height="720px" overflow="visible" version="1.1" viewBox="-374 -127.951 1280 720" width="1280px" x="0px" y="0px" xml:space="preserve">
<defs>
</defs>
<g>
	<path d="M136.239,16.778c5.458,0.676,14.12,2.856,19.248,4.845l48.708,18.888   c5.128,1.989,13.771,2.936,19.208,2.105l33.962-5.188c5.437-0.831,13.751,0.793,18.476,3.608l19.143,11.405   c4.725,2.815,12.943,3.977,18.264,2.583l40.44-10.6c5.32-1.395,13.916-1.037,19.102,0.795l31.849,11.25   c5.186,1.832,13.237,5.728,17.892,8.658l18.643,11.734c4.654,2.93,12.872,6.227,18.261,7.326l2.351,0.479   c5.389,1.1,14.277,2.427,19.753,2.949l3.55,0.339c5.476,0.522,13.656,1.254,18.18,1.626c4.523,0.372,4.166,2.62-0.794,4.996   l-30.938,14.987c-4.96,2.376-13.519,4.486-19.019,4.486H131c-5.5,0-13.321-3.203-17.379-6.915L3.379,6.235   c-4.059-3.711-2.914-6.237,2.545-5.561L136.239,16.778z" fill="#F2F2F2" />
	<path d="M136.239,16.778c5.458,0.676,14.12,2.856,19.248,4.845l48.708,18.888   c5.128,1.989,13.771,2.936,19.208,2.105l33.962-5.188c5.437-0.831,13.751,0.793,18.476,3.608l19.143,11.405   c4.725,2.815,12.943,3.977,18.264,2.583l40.44-10.6c5.32-1.395,13.916-1.037,19.102,0.795l31.849,11.25   c5.186,1.832,13.237,5.728,17.892,8.658l18.643,11.734c4.654,2.93,12.872,6.227,18.261,7.326l2.351,0.479   c5.389,1.1,14.277,2.427,19.753,2.949l3.55,0.339c5.476,0.522,13.656,1.254,18.18,1.626c4.523,0.372,4.166,2.62-0.794,4.996   l-30.938,14.737c-4.96,2.376-13.519,4.236-19.019,4.236H131c-5.5,0-13.321-2.953-17.379-6.665L3.379,6.11   c-4.059-3.711-2.914-6.174,2.545-5.498L136.239,16.778z" fill="none" stroke="#000000" stroke-miterlimit="10" />
</g>
<g>
	<path d="M134.973,394.62c5.454-0.713,14.08-3.002,19.169-5.087l47.975-19.648   c5.089-2.085,13.696-3.073,19.126-2.197l33.293,5.372c5.43,0.876,13.681-0.804,18.336-3.732l18.927-11.91   c4.655-2.929,12.801-4.125,18.102-2.657l39.738,11.001c5.301,1.468,13.854,1.095,19.007-0.827l31.31-11.681   c5.153-1.922,13.116-5.986,17.697-9.031l18.453-12.267c4.581-3.045,12.728-6.483,18.104-7.643l2.111-0.454   c5.376-1.158,14.253-2.558,19.725-3.109l3.259-0.329c5.472-0.552,13.603-1.32,18.067-1.708c4.465-0.387,4.103-2.735-0.805-5.219   l-30.496-15.179c-4.907-2.483-13.423-4.265-18.923-4.265H130.052c-5.5,0-13.237,2.876-17.193,6.697L3.86,405.894   c-3.956,3.821-2.731,6.301,2.723,5.587L134.973,394.62z" fill="#DADEE0" />
	<path d="M134.973,394.62c5.454-0.713,14.08-3.002,19.169-5.087l47.975-19.648   c5.089-2.085,13.696-3.073,19.126-2.197l33.293,5.372c5.43,0.876,13.681-0.804,18.336-3.732l18.927-11.91   c4.655-2.929,12.801-4.125,18.102-2.657l39.738,11.001c5.301,1.468,13.854,1.095,19.007-0.827l31.31-11.681   c5.153-1.922,13.116-5.986,17.697-9.031l18.453-12.267c4.581-3.045,12.728-6.483,18.104-7.643l2.111-0.454   c5.376-1.158,14.253-2.558,19.725-3.109l3.259-0.329c5.472-0.552,13.603-1.32,18.067-1.708c4.465-0.387,4.103-2.735-0.805-5.219   l-30.496-15.429c-4.907-2.483-13.423-4.515-18.923-4.515H130.052c-5.5,0-13.237,3.126-17.193,6.947L3.86,405.769   c-3.956,3.821-2.731,6.363,2.723,5.649L134.973,394.62z" fill="none" stroke="#000000" stroke-miterlimit="10" />
</g>
<polygon fill="#D8D8D8" points="0.5,409.673 117.5,300.383 117.5,109.55 0.5,2.046 " stroke="#000000" stroke-miterlimit="10" />
<rect fill="#E6E6E6" height="191" stroke="#000000" stroke-miterlimit="10" width="352" x="117.5" y="109.549" />
<g>
	<path d="M246,251.049c0,1.657-1.343,3-3,3H127c-1.657,0-3-1.343-3-3v-101c0-1.657,1.343-3,3-3h116   c1.657,0,3,1.343,3,3V251.049z" fill="#FFFFFF" />
	<path d="M246.5,250.549c0,1.657-1.343,3-3,3h-116c-1.657,0-3-1.343-3-3v-101   c0-1.657,1.343-3,3-3h116c1.657,0,3,1.343,3,3V250.549z" fill="none" stroke="#000000" stroke-miterlimit="10" />
</g>
<circle cx="148.867" cy="184.413" fill="#99d7b8" r="12.372" stroke="#000000" stroke-miterlimit="10" />
<circle cx="225.343" cy="218.902" fill="#eff9b6" r="12.371" stroke="#000000" stroke-miterlimit="10" />
<circle cx="225.343" cy="184.413" fill="#daf0b3" r="12.371" stroke="#000000" stroke-miterlimit="10" />
<circle cx="187.106" cy="218.902" fill="#e8f6b1" r="12.371" stroke="#000000" stroke-miterlimit="10" />
<circle cx="148.867" cy="218.902" fill="#e8f6b1" r="12.372" stroke="#000000" stroke-miterlimit="10" />
<circle cx="187.856" cy="184.413" fill="#d5efb3" r="12.371" stroke="#000000" stroke-miterlimit="10" />
<g>
	<path d="M242.954,346.045c-0.073,1.648-1.483,3.004-3.133,3.004H84.053c-1.65,0-2.061-0.977-0.913-2.162   l38.905-39.93c1.148-1.186,3.437-1.908,5.087-1.908h114.657c1.65,0,2.94,1.103,2.867,2.751L242.954,346.045z" fill="#FFFFFF" />
	<path d="M242.954,345.795c-0.073,1.648-1.483,2.754-3.133,2.754H84.053   c-1.65,0-2.061-0.727-0.913-1.912l38.905-40.055c1.148-1.186,3.437-2.033,5.087-2.033l114.657,0.001c1.65,0,2.94,1.228,2.867,2.876   L242.954,345.795z" fill="none" stroke="#000000" stroke-miterlimit="10" />
</g>
<path d="M151.233,317.541c-1.842,2.584-9.591,4.755-17.25,4.755  s-11.914-2.171-9.579-4.755c2.251-2.496,9.834-4.456,17.006-4.456C148.584,313.084,153.008,315.044,151.233,317.541z" fill="#253896" stroke="#000000" stroke-miterlimit="10" />
<path d="M232.44,331.649c-0.381,3.139-7.554,5.777-16.012,5.777  c-8.456,0-14.487-2.638-13.507-5.776c0.941-3.017,8.056-5.376,15.925-5.378C226.714,326.273,232.806,328.635,232.44,331.649z" fill="#2070b0" stroke="#000000" stroke-miterlimit="10" />
<path d="M234.151,317.537c-0.313,2.589-6.784,4.756-14.442,4.756  c-7.658,0.003-13.19-2.166-12.384-4.754c0.779-2.494,7.206-4.454,14.381-4.454C228.877,313.084,234.456,315.044,234.151,317.537z" fill="#253896" stroke="#000000" stroke-miterlimit="10" />
<path d="M186.818,331.649c-1.308,3.139-9.259,5.778-17.715,5.778  c-8.459-0.001-13.711-2.639-11.804-5.777c1.832-3.015,9.642-5.377,17.51-5.376C182.676,326.272,188.073,328.635,186.818,331.649z" fill="#259ac1" stroke="#000000" stroke-miterlimit="10" />
<path d="M141.196,331.65c-2.23,3.138-10.964,5.777-19.418,5.777  c-8.458,0-12.934-2.64-10.102-5.777c2.723-3.015,11.227-5.377,19.097-5.377C138.641,326.272,143.343,328.635,141.196,331.65z" fill="#2ea3c2" stroke="#000000" stroke-miterlimit="10" />
<path d="M193.506,317.539c-1.06,2.588-8.161,4.754-15.819,4.757  c-7.66,0-12.564-2.17-11.009-4.756c1.501-2.495,8.493-4.455,15.667-4.455C189.517,313.084,194.53,315.044,193.506,317.539z" fill="#1d2e83" stroke="#000000" stroke-miterlimit="10" />
<g>
	<path d="M242.225,60.046c-0.071-1.648-1.479-2.997-3.129-2.997H81c-1.65,0-2.046,0.956-0.881,2.124l44.168,44.253   c1.166,1.168,3.469,2.124,5.119,2.124l111.785-0.002c1.65,0,2.942-1.349,2.871-2.997L242.225,60.046z" fill="#FFFFFF" />
	<path d="M242.225,60.296c-0.071-1.648-1.479-2.747-3.129-2.747H81   c-1.65,0-2.046,0.706-0.881,1.874l44.168,44.128c1.166,1.168,3.469,2.061,5.119,2.061l111.785-0.034   c1.65,0,2.942-1.239,2.871-2.888L242.225,60.296z" fill="none" stroke="#000000" stroke-miterlimit="10" />
</g>
<path d="M152.358,91.336c-2.007-2.815-9.843-5.185-17.428-5.185  c-7.584,0-11.588,2.37-9.037,5.185c2.451,2.705,10.083,4.82,17.133,4.82S154.285,94.041,152.358,91.336z" fill="#eff9b6" stroke="#000000" stroke-miterlimit="10" />
<path d="M232.372,75.832c-0.404-3.499-7.617-6.454-16.096-6.454  c-8.479,0-14.444,2.955-13.365,6.454c1.03,3.344,8.172,5.95,15.989,5.95C226.719,81.783,232.754,79.176,232.372,75.832z" fill="#d0edb3" stroke="#000000" stroke-miterlimit="10" />
<path d="M234.153,91.336c-0.324-2.816-6.743-5.185-14.328-5.185  c-7.584,0-13.004,2.37-12.137,5.185c0.835,2.706,7.204,4.82,14.253,4.82C228.992,96.155,234.465,94.042,234.153,91.336z" fill="#f6fbc5" stroke="#000000" stroke-miterlimit="10" />
<path d="M186.841,75.832c-1.447-3.499-9.545-6.454-18.025-6.454  s-13.561,2.956-11.436,6.454c2.029,3.344,9.949,5.95,17.768,5.95C182.964,81.782,188.224,79.176,186.841,75.832z" fill="#f1fabb" stroke="#000000" stroke-miterlimit="10" />
<path d="M141.311,75.832c-2.494-3.499-11.474-6.454-19.954-6.454  c-8.479,0-12.678,2.955-9.508,6.454c3.028,3.344,11.729,5.95,19.547,5.95C139.211,81.782,143.692,79.176,141.311,75.832z" fill="#e8f6b1" stroke="#000000" stroke-miterlimit="10" />
<path d="M194.057,91.336c-1.148-2.815-8.263-5.185-15.847-5.185  c-7.583,0-12.31,2.37-10.616,5.185c1.626,2.705,8.613,4.819,15.663,4.82C190.309,96.155,195.16,94.041,194.057,91.336z" fill="#eff9b6" stroke="#000000" stroke-miterlimit="10" />
<g>
	<polygon fill="#F2F2F2" points="20,112.379 99,155.195 99,232.243 20,245.386  " />
	<path d="M24,119.097l71,38.48v71.277l-71,11.812V119.049 M16,105.661v144.446l87-14.475v-82.819L16,105.661   L16,105.661z" fill="#808080" />
	<polygon fill="none" points="103,235.632 16,250.107 16,105.661    103,152.813  " stroke="#999999" stroke-miterlimit="10" stroke-width="6" />
</g>
<rect fill="#FFFFFF" height="3" stroke="#000000" stroke-miterlimit="10" width="154" x="304.5" y="237.549" />
<rect fill="#FFFFFF" height="9" stroke="#000000" stroke-miterlimit="10" width="158" x="301.5" y="227.549" />
<rect fill="#FFFFFF" height="79" stroke="#000000" stroke-miterlimit="10" width="3" x="456.5" y="236.549" />
<rect fill="#FFFFFF" height="79" stroke="#000000" stroke-miterlimit="10" width="3" x="301.5" y="236.549" />
<rect fill="#FFFFFF" height="2" stroke="#000000" stroke-miterlimit="10" width="152" x="304.5" y="270.549" />
<g>
	<rect fill="#FFFFFF" height="40" width="70" x="355" y="177.049" />
	<path d="M422,180.049v35h-65v-35H422 M427,175.049h-75v45h75V175.049L427,175.049z" />
	<rect fill="none" height="45" stroke="#4D4D4D" stroke-miterlimit="10" stroke-width="5" width="75" x="352.5" y="174.549" />
</g>
<polyline fill="none" points="357.623,208.549 379.957,194.049   396.598,207.299 420.245,190.049 " stroke="#D8CFCA" stroke-miterlimit="10" stroke-width="5" />
<rect fill="#808080" height="8" stroke="#000000" stroke-miterlimit="10" width="22" x="368.5" y="220.549" />
<path d="M357.667,227.715c0-20.986,14.684-14.999,32.449-14.999  c17.767,0,31.885-5.987,31.885,14.999c0,20.987-14.684,26-32.449,26S357.667,248.703,357.667,227.715z" stroke="#000000" stroke-miterlimit="10" />
<rect height="21" stroke="#000000" stroke-miterlimit="10" width="7" x="386.5" y="279.549" />
<rect height="13" stroke="#000000" stroke-miterlimit="10" width="5" x="387.5" y="254.549" />
<g>
	<path d="M424.334,274.799c0,3.85-4.488,7.194-9.975,7.584l-15.217,1.02c-5.486,0.39-14.463,0.346-19.947-0.06l-13.889-1.041   c-5.484-0.405-9.973-3.646-9.973-7.495s4.5-6.758,10-6.758h49C419.834,268.049,424.334,270.95,424.334,274.799z" />
	<path d="M424.334,274.549c0,3.85-4.488,7.319-9.975,7.709l-15.217,1.082   c-5.486,0.39-14.463,0.377-19.947-0.028l-13.889-1.025c-5.484-0.405-9.973-3.888-9.973-7.737s4.5-7,10-7h49   C419.834,267.549,424.334,270.7,424.334,274.549z" fill="none" stroke="#000000" stroke-miterlimit="10" />
</g>
<path d="M354.314,271.749c-0.164-0.384-0.088-0.676-0.127-1.106  c-0.049-0.544-0.087-0.505-0.248-0.958c-0.354-0.996-0.473-1.956-0.547-3.043c-0.207-3.035-0.143-6.021-0.143-9.104  c0-1.895,0.108-3.591-0.076-5.442c-0.175-1.751-0.234-4.632,0.748-5.859c0.166-0.208,0.412-0.317,0.535-0.476  c0.121-0.154,0.109-0.477,0.276-0.633c0.289-0.27,1.085-0.468,0.628-1.38c-0.22-0.438-1.334-0.39-1.747-0.438  c-0.773-0.094-1.586,0.002-2.364,0.002c-1.127,0-2.645-0.266-3.252,1.127c-0.937,2.152,1.492,2.473,2.429,2.816  c0.576,2.092-0.22,4.68-0.117,6.86c0.05,1.063,0.284,2.109,0.321,3.147c0.021,0.576-0.122,1.371-0.166,1.979  c-0.105,1.466-0.142,3.272-0.027,4.726c0.078,0.994,0.077,1.982,0.125,3.016c0.04,0.868,0.393,1.637,0.486,2.505  c0.104,0.96-0.089,1.677,0.393,2.41c0.244,0.374,0.669,0.745,0.996,1.021c0.894,0.756,1.698,1.501,2.75,1.506L355,274.34  c0.108-0.002,0.231-0.112,0.365-0.096c0.125-0.684,0.1-1.514,0.062-2.242C354.907,272.081,354.648,272.527,354.314,271.749z" stroke="#000000" stroke-miterlimit="10" />
<path d="M424.973,271.749c0.164-0.384,0.088-0.676,0.127-1.106  c0.049-0.544,0.087-0.505,0.248-0.958c0.354-0.996,0.473-1.956,0.547-3.043c0.207-3.035,0.143-6.021,0.143-9.104  c0-1.895-0.108-3.591,0.076-5.442c0.175-1.751,0.234-4.632-0.748-5.859c-0.166-0.208-0.412-0.317-0.535-0.476  c-0.121-0.154-0.109-0.477-0.276-0.633c-0.289-0.27-1.085-0.468-0.628-1.38c0.22-0.438,1.334-0.39,1.747-0.438  c0.773-0.094,1.586,0.002,2.364,0.002c1.127,0,2.645-0.266,3.252,1.127c0.937,2.152-1.492,2.473-2.429,2.816  c-0.576,2.092,0.22,4.68,0.117,6.86c-0.05,1.063-0.284,2.109-0.321,3.147c-0.021,0.576,0.122,1.371,0.166,1.979  c0.105,1.466,0.142,3.272,0.027,4.726c-0.078,0.994-0.077,1.982-0.125,3.016c-0.04,0.868-0.393,1.637-0.486,2.505  c-0.104,0.96,0.089,1.677-0.393,2.41c-0.244,0.374-0.669,0.745-0.996,1.021c-0.894,0.756-1.698,1.501-2.75,1.506l0.188-0.084  c-0.108-0.002-0.231-0.112-0.365-0.096c-0.125-0.684-0.1-1.514-0.062-2.242C424.38,272.081,424.639,272.527,424.973,271.749z" stroke="#000000" stroke-miterlimit="10" />
<path d="M389.519,300.851c-1.925-0.092-3.858-0.131-5.771-0.136  l0.551,0.118c-4.104,0-8.265-0.161-12.364,0c-1.766,0.069-3.24,0.882-4.985,1.071c-0.795,0.088-1.691-0.008-2.497-0.008  c-2.171,0-4.198,0.021-6.156,0.605c-1.568,0.47-3.471,0.97-4.557,2.104c-0.745,0.778-0.7,1.95-1.272,2.843  c-1.137,1.77-1.132,3.212,0.306,4.968c1.573,1.921,4.56,1.65,6.229,0.007c0.891-0.879,1.057-1.674,0.933-2.844  c-0.115-1.07-1.024-1.707-0.814-2.819c3.242-0.164,6.5-0.136,9.762-0.136c1.793,0,6.78-0.722,7.881,0.446  c1.138,1.206-4.127,3.604-5.429,4.255c-1.049,0.524-1.57,1.057-2.414,1.709c-1.175,0.906-2.358,1.215-2.518,2.691  c-0.12,1.102,0.171,2.041-0.388,2.962c-0.705,1.161-0.933,1.103-0.336,2.298c1.014,2.035,2.242,2.497,4.962,2.279  c2.019-0.16,4.563-1.759,3.332-3.516c-0.547-0.779-1.18-1.092-0.685-2.04c0.473-0.905,1.845-1.58,2.617-2.341  c2.292-2.247,4.732-3.344,7.609-4.932c1.974-1.088,4.253-0.404,6.409-0.992C390.089,306.533,389.783,303.644,389.519,300.851z" stroke="#000000" stroke-miterlimit="10" stroke-width="0.5" />
<path d="M390.096,300.851c1.925-0.092,3.858-0.131,5.771-0.136  l-0.551,0.118c4.104,0,8.265-0.161,12.363,0c1.767,0.069,3.24,0.882,4.986,1.071c0.795,0.088,1.691-0.008,2.497-0.008  c2.171,0,4.197,0.021,6.156,0.605c1.568,0.47,3.471,0.97,4.557,2.104c0.745,0.778,0.7,1.95,1.272,2.843  c1.137,1.77,1.132,3.212-0.306,4.968c-1.573,1.921-4.56,1.65-6.229,0.007c-0.891-0.879-1.057-1.674-0.933-2.844  c0.114-1.07,1.024-1.707,0.814-2.819c-3.242-0.164-6.5-0.136-9.763-0.136c-1.792,0-6.779-0.722-7.881,0.446  c-1.137,1.206,4.127,3.604,5.43,4.255c1.048,0.524,1.57,1.057,2.414,1.709c1.175,0.906,2.358,1.215,2.518,2.691  c0.12,1.102-0.172,2.041,0.388,2.962c0.705,1.161,0.933,1.103,0.336,2.298c-1.014,2.035-2.243,2.497-4.962,2.279  c-2.019-0.16-4.563-1.759-3.332-3.516c0.547-0.779,1.18-1.092,0.685-2.04c-0.473-0.905-1.845-1.58-2.618-2.341  c-2.291-2.247-4.731-3.344-7.608-4.932c-1.974-1.088-4.253-0.404-6.409-0.992C389.525,306.533,389.831,303.644,390.096,300.851z" stroke="#000000" stroke-miterlimit="10" stroke-width="0.5" />
</svg>